G04 #@! TF.GenerationSoftware,KiCad,Pcbnew,5.0.2-bee76a0~70~ubuntu18.04.1*
G04 #@! TF.CreationDate,2019-08-28T17:06:08+02:00*
G04 #@! TF.ProjectId,upper_Sensor,75707065-725f-4536-956e-736f722e6b69,rev?*
G04 #@! TF.SameCoordinates,Original*
G04 #@! TF.FileFunction,Legend,Top*
G04 #@! TF.FilePolarity,Positive*
%FSLAX46Y46*%
G04 Gerber Fmt 4.6, Leading zero omitted, Abs format (unit mm)*
G04 Created by KiCad (PCBNEW 5.0.2-bee76a0~70~ubuntu18.04.1) date Mi 28 Aug 2019 17:06:08 CEST*
%MOMM*%
%LPD*%
G01*
G04 APERTURE LIST*
%ADD10C,0.250000*%
%ADD11C,0.200000*%
%ADD12C,0.100000*%
G04 APERTURE END LIST*
D10*
X105540000Y-73517380D02*
X105540000Y-72517380D01*
X106111428Y-73517380D01*
X106111428Y-72517380D01*
X106587619Y-73517380D02*
X106587619Y-72850714D01*
X106587619Y-72517380D02*
X106540000Y-72565000D01*
X106587619Y-72612619D01*
X106635238Y-72565000D01*
X106587619Y-72517380D01*
X106587619Y-72612619D01*
X107063809Y-73517380D02*
X107063809Y-72517380D01*
X107159047Y-73136428D02*
X107444761Y-73517380D01*
X107444761Y-72850714D02*
X107063809Y-73231666D01*
X108016190Y-73517380D02*
X107920952Y-73469761D01*
X107873333Y-73374523D01*
X107873333Y-72517380D01*
X108825714Y-73517380D02*
X108825714Y-72993571D01*
X108778095Y-72898333D01*
X108682857Y-72850714D01*
X108492380Y-72850714D01*
X108397142Y-72898333D01*
X108825714Y-73469761D02*
X108730476Y-73517380D01*
X108492380Y-73517380D01*
X108397142Y-73469761D01*
X108349523Y-73374523D01*
X108349523Y-73279285D01*
X108397142Y-73184047D01*
X108492380Y-73136428D01*
X108730476Y-73136428D01*
X108825714Y-73088809D01*
X109254285Y-73469761D02*
X109349523Y-73517380D01*
X109540000Y-73517380D01*
X109635238Y-73469761D01*
X109682857Y-73374523D01*
X109682857Y-73326904D01*
X109635238Y-73231666D01*
X109540000Y-73184047D01*
X109397142Y-73184047D01*
X109301904Y-73136428D01*
X109254285Y-73041190D01*
X109254285Y-72993571D01*
X109301904Y-72898333D01*
X109397142Y-72850714D01*
X109540000Y-72850714D01*
X109635238Y-72898333D01*
X111206666Y-72993571D02*
X110873333Y-72993571D01*
X110873333Y-73517380D02*
X110873333Y-72517380D01*
X111349523Y-72517380D01*
X112159047Y-73517380D02*
X112159047Y-72993571D01*
X112111428Y-72898333D01*
X112016190Y-72850714D01*
X111825714Y-72850714D01*
X111730476Y-72898333D01*
X112159047Y-73469761D02*
X112063809Y-73517380D01*
X111825714Y-73517380D01*
X111730476Y-73469761D01*
X111682857Y-73374523D01*
X111682857Y-73279285D01*
X111730476Y-73184047D01*
X111825714Y-73136428D01*
X112063809Y-73136428D01*
X112159047Y-73088809D01*
X113063809Y-72850714D02*
X113063809Y-73517380D01*
X112635238Y-72850714D02*
X112635238Y-73374523D01*
X112682857Y-73469761D01*
X112778095Y-73517380D01*
X112920952Y-73517380D01*
X113016190Y-73469761D01*
X113063809Y-73422142D01*
X113397142Y-72850714D02*
X113778095Y-72850714D01*
X113540000Y-72517380D02*
X113540000Y-73374523D01*
X113587619Y-73469761D01*
X113682857Y-73517380D01*
X113778095Y-73517380D01*
X114111428Y-73517380D02*
X114111428Y-72517380D01*
X114540000Y-73517380D02*
X114540000Y-72993571D01*
X114492380Y-72898333D01*
X114397142Y-72850714D01*
X114254285Y-72850714D01*
X114159047Y-72898333D01*
X114111428Y-72945952D01*
X108325714Y-74362619D02*
X108373333Y-74315000D01*
X108468571Y-74267380D01*
X108706666Y-74267380D01*
X108801904Y-74315000D01*
X108849523Y-74362619D01*
X108897142Y-74457857D01*
X108897142Y-74553095D01*
X108849523Y-74695952D01*
X108278095Y-75267380D01*
X108897142Y-75267380D01*
X109516190Y-74267380D02*
X109611428Y-74267380D01*
X109706666Y-74315000D01*
X109754285Y-74362619D01*
X109801904Y-74457857D01*
X109849523Y-74648333D01*
X109849523Y-74886428D01*
X109801904Y-75076904D01*
X109754285Y-75172142D01*
X109706666Y-75219761D01*
X109611428Y-75267380D01*
X109516190Y-75267380D01*
X109420952Y-75219761D01*
X109373333Y-75172142D01*
X109325714Y-75076904D01*
X109278095Y-74886428D01*
X109278095Y-74648333D01*
X109325714Y-74457857D01*
X109373333Y-74362619D01*
X109420952Y-74315000D01*
X109516190Y-74267380D01*
X110801904Y-75267380D02*
X110230476Y-75267380D01*
X110516190Y-75267380D02*
X110516190Y-74267380D01*
X110420952Y-74410238D01*
X110325714Y-74505476D01*
X110230476Y-74553095D01*
X111278095Y-75267380D02*
X111468571Y-75267380D01*
X111563809Y-75219761D01*
X111611428Y-75172142D01*
X111706666Y-75029285D01*
X111754285Y-74838809D01*
X111754285Y-74457857D01*
X111706666Y-74362619D01*
X111659047Y-74315000D01*
X111563809Y-74267380D01*
X111373333Y-74267380D01*
X111278095Y-74315000D01*
X111230476Y-74362619D01*
X111182857Y-74457857D01*
X111182857Y-74695952D01*
X111230476Y-74791190D01*
X111278095Y-74838809D01*
X111373333Y-74886428D01*
X111563809Y-74886428D01*
X111659047Y-74838809D01*
X111706666Y-74791190D01*
X111754285Y-74695952D01*
X108431904Y-86357380D02*
X108431904Y-85357380D01*
X108860476Y-86309761D02*
X109003333Y-86357380D01*
X109241428Y-86357380D01*
X109336666Y-86309761D01*
X109384285Y-86262142D01*
X109431904Y-86166904D01*
X109431904Y-86071666D01*
X109384285Y-85976428D01*
X109336666Y-85928809D01*
X109241428Y-85881190D01*
X109050952Y-85833571D01*
X108955714Y-85785952D01*
X108908095Y-85738333D01*
X108860476Y-85643095D01*
X108860476Y-85547857D01*
X108908095Y-85452619D01*
X108955714Y-85405000D01*
X109050952Y-85357380D01*
X109289047Y-85357380D01*
X109431904Y-85405000D01*
X110193809Y-85833571D02*
X109860476Y-85833571D01*
X109860476Y-86357380D02*
X109860476Y-85357380D01*
X110336666Y-85357380D01*
X110717619Y-85833571D02*
X111050952Y-85833571D01*
X111193809Y-86357380D02*
X110717619Y-86357380D01*
X110717619Y-85357380D01*
X111193809Y-85357380D01*
X111479523Y-85357380D02*
X112050952Y-85357380D01*
X111765238Y-86357380D02*
X111765238Y-85357380D01*
X107717619Y-87583571D02*
X107384285Y-87583571D01*
X107384285Y-88107380D02*
X107384285Y-87107380D01*
X107860476Y-87107380D01*
X108384285Y-88107380D02*
X108289047Y-88059761D01*
X108241428Y-87964523D01*
X108241428Y-87107380D01*
X108765238Y-88107380D02*
X108765238Y-87440714D01*
X108765238Y-87107380D02*
X108717619Y-87155000D01*
X108765238Y-87202619D01*
X108812857Y-87155000D01*
X108765238Y-87107380D01*
X108765238Y-87202619D01*
X109241428Y-87440714D02*
X109241428Y-88440714D01*
X109241428Y-87488333D02*
X109336666Y-87440714D01*
X109527142Y-87440714D01*
X109622380Y-87488333D01*
X109670000Y-87535952D01*
X109717619Y-87631190D01*
X109717619Y-87916904D01*
X109670000Y-88012142D01*
X109622380Y-88059761D01*
X109527142Y-88107380D01*
X109336666Y-88107380D01*
X109241428Y-88059761D01*
X110717619Y-88012142D02*
X110670000Y-88059761D01*
X110527142Y-88107380D01*
X110431904Y-88107380D01*
X110289047Y-88059761D01*
X110193809Y-87964523D01*
X110146190Y-87869285D01*
X110098571Y-87678809D01*
X110098571Y-87535952D01*
X110146190Y-87345476D01*
X110193809Y-87250238D01*
X110289047Y-87155000D01*
X110431904Y-87107380D01*
X110527142Y-87107380D01*
X110670000Y-87155000D01*
X110717619Y-87202619D01*
X111146190Y-88107380D02*
X111146190Y-87107380D01*
X111574761Y-88107380D02*
X111574761Y-87583571D01*
X111527142Y-87488333D01*
X111431904Y-87440714D01*
X111289047Y-87440714D01*
X111193809Y-87488333D01*
X111146190Y-87535952D01*
X112050952Y-88107380D02*
X112050952Y-87440714D01*
X112050952Y-87107380D02*
X112003333Y-87155000D01*
X112050952Y-87202619D01*
X112098571Y-87155000D01*
X112050952Y-87107380D01*
X112050952Y-87202619D01*
X112527142Y-87440714D02*
X112527142Y-88440714D01*
X112527142Y-87488333D02*
X112622380Y-87440714D01*
X112812857Y-87440714D01*
X112908095Y-87488333D01*
X112955714Y-87535952D01*
X113003333Y-87631190D01*
X113003333Y-87916904D01*
X112955714Y-88012142D01*
X112908095Y-88059761D01*
X112812857Y-88107380D01*
X112622380Y-88107380D01*
X112527142Y-88059761D01*
D11*
X108600000Y-78600000D02*
X111400000Y-78600000D01*
X108600000Y-81400000D02*
X108600000Y-78600000D01*
X111400000Y-81400000D02*
X108600000Y-81400000D01*
X111400000Y-78600000D02*
X111400000Y-81400000D01*
G04 #@! TO.C,J12*
X101000000Y-81000000D02*
G75*
G02X101000000Y-80900000I0J50000D01*
G01*
X101000000Y-80900000D02*
G75*
G02X101000000Y-81000000I0J-50000D01*
G01*
X101000000Y-80900000D02*
X101000000Y-80900000D01*
X101000000Y-81000000D02*
X101000000Y-81000000D01*
D12*
X101840000Y-77890000D02*
X101840000Y-78800000D01*
X104160000Y-77890000D02*
X101840000Y-77890000D01*
X104160000Y-78800000D02*
X104160000Y-77890000D01*
X101840000Y-82110000D02*
X101840000Y-81200000D01*
X104160000Y-82110000D02*
X101840000Y-82110000D01*
X104160000Y-81200000D02*
X104160000Y-82110000D01*
D11*
G04 #@! TO.C,J11*
X115000000Y-81000000D02*
G75*
G02X115000000Y-80900000I0J50000D01*
G01*
X115000000Y-80900000D02*
G75*
G02X115000000Y-81000000I0J-50000D01*
G01*
X115000000Y-80900000D02*
X115000000Y-80900000D01*
X115000000Y-81000000D02*
X115000000Y-81000000D01*
D12*
X115840000Y-77890000D02*
X115840000Y-78800000D01*
X118160000Y-77890000D02*
X115840000Y-77890000D01*
X118160000Y-78800000D02*
X118160000Y-77890000D01*
X115840000Y-82110000D02*
X115840000Y-81200000D01*
X118160000Y-82110000D02*
X115840000Y-82110000D01*
X118160000Y-81200000D02*
X118160000Y-82110000D01*
G04 #@! TD*
M02*
