G04 #@! TF.GenerationSoftware,KiCad,Pcbnew,5.0.2-bee76a0~70~ubuntu18.04.1*
G04 #@! TF.CreationDate,2019-05-15T03:21:57+02:00*
G04 #@! TF.ProjectId,ring,72696e67-2e6b-4696-9361-645f70636258,rev?*
G04 #@! TF.SameCoordinates,Original*
G04 #@! TF.FileFunction,Soldermask,Bot*
G04 #@! TF.FilePolarity,Negative*
%FSLAX46Y46*%
G04 Gerber Fmt 4.6, Leading zero omitted, Abs format (unit mm)*
G04 Created by KiCad (PCBNEW 5.0.2-bee76a0~70~ubuntu18.04.1) date Mi 15 Mai 2019 03:21:57 CEST*
%MOMM*%
%LPD*%
G01*
G04 APERTURE LIST*
%ADD10C,0.100000*%
G04 APERTURE END LIST*
D10*
G36*
X110726000Y-92076000D02*
X109274000Y-92076000D01*
X109274000Y-90624000D01*
X110726000Y-90624000D01*
X110726000Y-92076000D01*
X110726000Y-92076000D01*
G37*
G36*
X105059890Y-89514017D02*
X105178361Y-89563089D01*
X105284992Y-89634338D01*
X105375662Y-89725008D01*
X105446911Y-89831639D01*
X105495983Y-89950110D01*
X105521000Y-90075881D01*
X105521000Y-90204119D01*
X105495983Y-90329890D01*
X105446911Y-90448361D01*
X105375662Y-90554992D01*
X105284992Y-90645662D01*
X105178361Y-90716911D01*
X105059890Y-90765983D01*
X104934119Y-90791000D01*
X104805881Y-90791000D01*
X104680110Y-90765983D01*
X104561639Y-90716911D01*
X104455008Y-90645662D01*
X104364338Y-90554992D01*
X104293089Y-90448361D01*
X104244017Y-90329890D01*
X104219000Y-90204119D01*
X104219000Y-90075881D01*
X104244017Y-89950110D01*
X104293089Y-89831639D01*
X104364338Y-89725008D01*
X104455008Y-89634338D01*
X104561639Y-89563089D01*
X104680110Y-89514017D01*
X104805881Y-89489000D01*
X104934119Y-89489000D01*
X105059890Y-89514017D01*
X105059890Y-89514017D01*
G37*
G36*
X117819890Y-87784017D02*
X117938361Y-87833089D01*
X118044992Y-87904338D01*
X118135662Y-87995008D01*
X118206911Y-88101639D01*
X118255983Y-88220110D01*
X118281000Y-88345881D01*
X118281000Y-88474119D01*
X118255983Y-88599890D01*
X118206911Y-88718361D01*
X118135662Y-88824992D01*
X118044992Y-88915662D01*
X117938361Y-88986911D01*
X117819890Y-89035983D01*
X117694119Y-89061000D01*
X117565881Y-89061000D01*
X117440110Y-89035983D01*
X117321639Y-88986911D01*
X117215008Y-88915662D01*
X117124338Y-88824992D01*
X117053089Y-88718361D01*
X117004017Y-88599890D01*
X116979000Y-88474119D01*
X116979000Y-88345881D01*
X117004017Y-88220110D01*
X117053089Y-88101639D01*
X117124338Y-87995008D01*
X117215008Y-87904338D01*
X117321639Y-87833089D01*
X117440110Y-87784017D01*
X117565881Y-87759000D01*
X117694119Y-87759000D01*
X117819890Y-87784017D01*
X117819890Y-87784017D01*
G37*
G36*
X119169890Y-86334017D02*
X119288361Y-86383089D01*
X119394992Y-86454338D01*
X119485662Y-86545008D01*
X119556911Y-86651639D01*
X119605983Y-86770110D01*
X119631000Y-86895881D01*
X119631000Y-87024119D01*
X119605983Y-87149890D01*
X119556911Y-87268361D01*
X119485662Y-87374992D01*
X119394992Y-87465662D01*
X119288361Y-87536911D01*
X119169890Y-87585983D01*
X119044119Y-87611000D01*
X118915881Y-87611000D01*
X118790110Y-87585983D01*
X118671639Y-87536911D01*
X118565008Y-87465662D01*
X118474338Y-87374992D01*
X118403089Y-87268361D01*
X118354017Y-87149890D01*
X118329000Y-87024119D01*
X118329000Y-86895881D01*
X118354017Y-86770110D01*
X118403089Y-86651639D01*
X118474338Y-86545008D01*
X118565008Y-86454338D01*
X118671639Y-86383089D01*
X118790110Y-86334017D01*
X118915881Y-86309000D01*
X119044119Y-86309000D01*
X119169890Y-86334017D01*
X119169890Y-86334017D01*
G37*
G36*
X120249890Y-84654017D02*
X120368361Y-84703089D01*
X120474992Y-84774338D01*
X120565662Y-84865008D01*
X120636911Y-84971639D01*
X120685983Y-85090110D01*
X120711000Y-85215881D01*
X120711000Y-85344119D01*
X120685983Y-85469890D01*
X120636911Y-85588361D01*
X120565662Y-85694992D01*
X120474992Y-85785662D01*
X120368361Y-85856911D01*
X120249890Y-85905983D01*
X120124119Y-85931000D01*
X119995881Y-85931000D01*
X119870110Y-85905983D01*
X119751639Y-85856911D01*
X119645008Y-85785662D01*
X119554338Y-85694992D01*
X119483089Y-85588361D01*
X119434017Y-85469890D01*
X119409000Y-85344119D01*
X119409000Y-85215881D01*
X119434017Y-85090110D01*
X119483089Y-84971639D01*
X119554338Y-84865008D01*
X119645008Y-84774338D01*
X119751639Y-84703089D01*
X119870110Y-84654017D01*
X119995881Y-84629000D01*
X120124119Y-84629000D01*
X120249890Y-84654017D01*
X120249890Y-84654017D01*
G37*
G36*
X115029890Y-69084017D02*
X115148361Y-69133089D01*
X115254992Y-69204338D01*
X115345662Y-69295008D01*
X115345664Y-69295011D01*
X115345665Y-69295012D01*
X115416909Y-69401636D01*
X115416911Y-69401639D01*
X115465983Y-69520110D01*
X115491000Y-69645882D01*
X115491000Y-69774118D01*
X115471314Y-69873091D01*
X115466054Y-69899532D01*
X115463652Y-69923918D01*
X115466054Y-69948305D01*
X115473167Y-69971754D01*
X115484718Y-69993364D01*
X115500264Y-70012307D01*
X115519206Y-70027852D01*
X115540817Y-70039403D01*
X115564266Y-70046516D01*
X115588652Y-70048918D01*
X115613039Y-70046516D01*
X115636488Y-70039403D01*
X115658098Y-70027852D01*
X115677040Y-70012306D01*
X115745008Y-69944338D01*
X115812065Y-69899532D01*
X115851636Y-69873091D01*
X115851639Y-69873089D01*
X115970110Y-69824017D01*
X116095881Y-69799000D01*
X116224119Y-69799000D01*
X116349890Y-69824017D01*
X116468361Y-69873089D01*
X116468364Y-69873091D01*
X116507936Y-69899532D01*
X116574992Y-69944338D01*
X116665662Y-70035008D01*
X116665664Y-70035011D01*
X116665665Y-70035012D01*
X116716493Y-70111082D01*
X116736911Y-70141639D01*
X116785983Y-70260110D01*
X116811000Y-70385881D01*
X116811000Y-70514119D01*
X116785983Y-70639890D01*
X116755311Y-70713939D01*
X116748198Y-70737388D01*
X116745796Y-70761774D01*
X116748198Y-70786161D01*
X116755311Y-70809610D01*
X116766863Y-70831221D01*
X116782408Y-70850163D01*
X116801350Y-70865708D01*
X116822961Y-70877259D01*
X116846410Y-70884372D01*
X116870796Y-70886774D01*
X116895183Y-70884372D01*
X116918632Y-70877259D01*
X116940243Y-70865707D01*
X116959184Y-70850162D01*
X116965008Y-70844338D01*
X116984639Y-70831221D01*
X117071636Y-70773091D01*
X117071639Y-70773089D01*
X117190110Y-70724017D01*
X117315881Y-70699000D01*
X117444119Y-70699000D01*
X117569890Y-70724017D01*
X117688361Y-70773089D01*
X117688364Y-70773091D01*
X117775362Y-70831221D01*
X117794992Y-70844338D01*
X117885662Y-70935008D01*
X117885664Y-70935011D01*
X117885665Y-70935012D01*
X117956909Y-71041636D01*
X117956911Y-71041639D01*
X118005983Y-71160110D01*
X118031000Y-71285881D01*
X118031000Y-71414119D01*
X118005983Y-71539890D01*
X117956910Y-71658363D01*
X117950137Y-71668500D01*
X117938586Y-71690111D01*
X117931473Y-71713561D01*
X117929072Y-71737947D01*
X117931474Y-71762333D01*
X117938588Y-71785782D01*
X117950139Y-71807393D01*
X117965685Y-71826335D01*
X117984627Y-71841880D01*
X118006238Y-71853431D01*
X118029688Y-71860544D01*
X118054074Y-71862945D01*
X118078460Y-71860543D01*
X118101909Y-71853429D01*
X118123517Y-71841880D01*
X118134995Y-71834211D01*
X118151638Y-71823089D01*
X118270110Y-71774017D01*
X118395881Y-71749000D01*
X118524119Y-71749000D01*
X118649890Y-71774017D01*
X118768361Y-71823089D01*
X118768364Y-71823091D01*
X118867688Y-71889457D01*
X118874992Y-71894338D01*
X118965662Y-71985008D01*
X119036911Y-72091639D01*
X119085983Y-72210110D01*
X119111000Y-72335881D01*
X119111000Y-72464119D01*
X119085983Y-72589890D01*
X119036911Y-72708361D01*
X119036909Y-72708364D01*
X118965665Y-72814988D01*
X118965663Y-72814990D01*
X118960081Y-72823344D01*
X118957221Y-72826829D01*
X118945670Y-72848440D01*
X118938557Y-72871889D01*
X118936155Y-72896275D01*
X118938557Y-72920661D01*
X118945670Y-72944110D01*
X118957221Y-72965721D01*
X118972767Y-72984663D01*
X118991709Y-73000209D01*
X119013320Y-73011760D01*
X119036769Y-73018873D01*
X119061155Y-73021275D01*
X119085541Y-73018873D01*
X119108990Y-73011760D01*
X119200110Y-72974017D01*
X119325881Y-72949000D01*
X119454119Y-72949000D01*
X119579890Y-72974017D01*
X119698361Y-73023089D01*
X119804992Y-73094338D01*
X119895662Y-73185008D01*
X119966911Y-73291639D01*
X120015983Y-73410110D01*
X120041000Y-73535881D01*
X120041000Y-73664119D01*
X120015983Y-73789890D01*
X119966911Y-73908361D01*
X119895662Y-74014992D01*
X119828122Y-74082532D01*
X119812576Y-74101474D01*
X119801025Y-74123085D01*
X119793912Y-74146534D01*
X119791510Y-74170920D01*
X119793912Y-74195306D01*
X119801025Y-74218755D01*
X119812576Y-74240366D01*
X119828122Y-74259308D01*
X119847064Y-74274854D01*
X119868675Y-74286405D01*
X119892124Y-74293518D01*
X119916510Y-74295920D01*
X119940896Y-74293518D01*
X119964344Y-74286405D01*
X119970108Y-74284018D01*
X119970107Y-74284018D01*
X119970110Y-74284017D01*
X120064652Y-74265212D01*
X120095881Y-74259000D01*
X120224119Y-74259000D01*
X120349890Y-74284017D01*
X120468361Y-74333089D01*
X120574992Y-74404338D01*
X120665662Y-74495008D01*
X120736911Y-74601639D01*
X120785983Y-74720110D01*
X120811000Y-74845881D01*
X120811000Y-74974119D01*
X120785983Y-75099890D01*
X120736911Y-75218361D01*
X120665662Y-75324992D01*
X120574992Y-75415662D01*
X120574989Y-75415664D01*
X120574988Y-75415665D01*
X120557494Y-75427354D01*
X120538557Y-75442895D01*
X120523011Y-75461837D01*
X120511460Y-75483448D01*
X120504346Y-75506897D01*
X120501944Y-75531283D01*
X120504345Y-75555669D01*
X120511458Y-75579119D01*
X120523009Y-75600730D01*
X120538554Y-75619672D01*
X120557496Y-75635218D01*
X120579107Y-75646769D01*
X120602556Y-75653883D01*
X120626942Y-75656285D01*
X120651328Y-75653884D01*
X120651333Y-75653883D01*
X120675882Y-75649000D01*
X120804119Y-75649000D01*
X120929890Y-75674017D01*
X121048361Y-75723089D01*
X121154992Y-75794338D01*
X121245662Y-75885008D01*
X121316911Y-75991639D01*
X121365983Y-76110110D01*
X121391000Y-76235881D01*
X121391000Y-76364119D01*
X121365983Y-76489890D01*
X121316911Y-76608361D01*
X121245662Y-76714992D01*
X121154992Y-76805662D01*
X121154989Y-76805664D01*
X121154988Y-76805665D01*
X121082624Y-76854017D01*
X121043639Y-76880066D01*
X121024697Y-76895612D01*
X121009152Y-76914554D01*
X120997601Y-76936165D01*
X120990488Y-76959614D01*
X120988086Y-76984000D01*
X120990488Y-77008387D01*
X120997601Y-77031836D01*
X121009152Y-77053447D01*
X121024698Y-77072389D01*
X121043640Y-77087934D01*
X121065251Y-77099485D01*
X121088700Y-77106598D01*
X121113086Y-77109000D01*
X121204119Y-77109000D01*
X121329890Y-77134017D01*
X121448361Y-77183089D01*
X121554992Y-77254338D01*
X121645662Y-77345008D01*
X121716911Y-77451639D01*
X121765983Y-77570110D01*
X121791000Y-77695881D01*
X121791000Y-77824119D01*
X121765983Y-77949890D01*
X121716911Y-78068361D01*
X121645662Y-78174992D01*
X121554992Y-78265662D01*
X121448361Y-78336911D01*
X121329890Y-78385983D01*
X121204119Y-78411000D01*
X121075881Y-78411000D01*
X120950110Y-78385983D01*
X120831639Y-78336911D01*
X120725008Y-78265662D01*
X120634338Y-78174992D01*
X120563089Y-78068361D01*
X120514017Y-77949890D01*
X120489000Y-77824119D01*
X120489000Y-77695881D01*
X120514017Y-77570110D01*
X120563089Y-77451639D01*
X120634338Y-77345008D01*
X120725008Y-77254338D01*
X120836361Y-77179934D01*
X120855303Y-77164388D01*
X120870848Y-77145446D01*
X120882399Y-77123835D01*
X120889512Y-77100386D01*
X120891914Y-77076000D01*
X120889512Y-77051613D01*
X120882399Y-77028164D01*
X120870848Y-77006553D01*
X120855302Y-76987611D01*
X120836360Y-76972066D01*
X120814749Y-76960515D01*
X120791300Y-76953402D01*
X120766914Y-76951000D01*
X120675881Y-76951000D01*
X120550110Y-76925983D01*
X120431639Y-76876911D01*
X120397376Y-76854017D01*
X120325012Y-76805665D01*
X120325011Y-76805664D01*
X120325008Y-76805662D01*
X120234338Y-76714992D01*
X120163089Y-76608361D01*
X120114017Y-76489890D01*
X120089000Y-76364119D01*
X120089000Y-76235881D01*
X120114017Y-76110110D01*
X120163089Y-75991639D01*
X120234338Y-75885008D01*
X120325008Y-75794338D01*
X120325012Y-75794335D01*
X120342506Y-75782646D01*
X120361443Y-75767105D01*
X120376989Y-75748163D01*
X120388540Y-75726552D01*
X120395654Y-75703103D01*
X120398056Y-75678717D01*
X120395655Y-75654331D01*
X120388542Y-75630881D01*
X120376991Y-75609270D01*
X120361446Y-75590328D01*
X120342504Y-75574782D01*
X120320893Y-75563231D01*
X120297444Y-75556117D01*
X120273058Y-75553715D01*
X120248672Y-75556116D01*
X120224118Y-75561000D01*
X120095881Y-75561000D01*
X119970110Y-75535983D01*
X119851639Y-75486911D01*
X119846456Y-75483448D01*
X119745012Y-75415665D01*
X119745011Y-75415664D01*
X119745008Y-75415662D01*
X119654338Y-75324992D01*
X119583089Y-75218361D01*
X119534017Y-75099890D01*
X119509000Y-74974119D01*
X119509000Y-74845881D01*
X119534017Y-74720110D01*
X119583089Y-74601639D01*
X119654338Y-74495008D01*
X119721878Y-74427468D01*
X119737424Y-74408526D01*
X119748975Y-74386915D01*
X119756088Y-74363466D01*
X119758490Y-74339080D01*
X119756088Y-74314694D01*
X119748975Y-74291245D01*
X119737424Y-74269634D01*
X119721878Y-74250692D01*
X119702936Y-74235146D01*
X119681325Y-74223595D01*
X119657876Y-74216482D01*
X119633490Y-74214080D01*
X119609104Y-74216482D01*
X119585656Y-74223595D01*
X119581692Y-74225237D01*
X119579890Y-74225983D01*
X119485348Y-74244788D01*
X119454119Y-74251000D01*
X119325881Y-74251000D01*
X119200110Y-74225983D01*
X119081639Y-74176911D01*
X118975008Y-74105662D01*
X118884338Y-74014992D01*
X118813089Y-73908361D01*
X118764017Y-73789890D01*
X118739000Y-73664119D01*
X118739000Y-73535881D01*
X118764017Y-73410110D01*
X118813089Y-73291639D01*
X118813091Y-73291636D01*
X118884335Y-73185012D01*
X118884337Y-73185010D01*
X118889919Y-73176656D01*
X118892779Y-73173171D01*
X118904330Y-73151560D01*
X118911443Y-73128111D01*
X118913845Y-73103725D01*
X118911443Y-73079339D01*
X118904330Y-73055890D01*
X118892779Y-73034279D01*
X118877233Y-73015337D01*
X118858291Y-72999791D01*
X118836680Y-72988240D01*
X118813231Y-72981127D01*
X118788845Y-72978725D01*
X118764459Y-72981127D01*
X118741010Y-72988240D01*
X118649890Y-73025983D01*
X118524119Y-73051000D01*
X118395881Y-73051000D01*
X118270110Y-73025983D01*
X118151639Y-72976911D01*
X118045008Y-72905662D01*
X117954338Y-72814992D01*
X117883089Y-72708361D01*
X117834017Y-72589890D01*
X117809000Y-72464119D01*
X117809000Y-72335881D01*
X117834017Y-72210110D01*
X117883090Y-72091637D01*
X117889863Y-72081500D01*
X117901414Y-72059889D01*
X117908527Y-72036439D01*
X117910928Y-72012053D01*
X117908526Y-71987667D01*
X117901412Y-71964218D01*
X117889861Y-71942607D01*
X117874315Y-71923665D01*
X117855373Y-71908120D01*
X117833762Y-71896569D01*
X117810312Y-71889456D01*
X117785926Y-71887055D01*
X117761540Y-71889457D01*
X117738091Y-71896571D01*
X117716483Y-71908120D01*
X117705005Y-71915789D01*
X117688362Y-71926911D01*
X117569890Y-71975983D01*
X117444119Y-72001000D01*
X117315881Y-72001000D01*
X117190110Y-71975983D01*
X117071639Y-71926911D01*
X117015584Y-71889456D01*
X116965012Y-71855665D01*
X116965011Y-71855664D01*
X116965008Y-71855662D01*
X116874338Y-71764992D01*
X116803089Y-71658361D01*
X116754017Y-71539890D01*
X116729000Y-71414119D01*
X116729000Y-71285881D01*
X116754017Y-71160110D01*
X116784689Y-71086061D01*
X116791802Y-71062612D01*
X116794204Y-71038226D01*
X116791802Y-71013839D01*
X116784689Y-70990390D01*
X116773137Y-70968779D01*
X116757592Y-70949837D01*
X116738650Y-70934292D01*
X116717039Y-70922741D01*
X116693590Y-70915628D01*
X116669204Y-70913226D01*
X116644817Y-70915628D01*
X116621368Y-70922741D01*
X116599757Y-70934293D01*
X116580816Y-70949838D01*
X116574992Y-70955662D01*
X116574989Y-70955664D01*
X116574988Y-70955665D01*
X116523018Y-70990390D01*
X116468361Y-71026911D01*
X116349890Y-71075983D01*
X116224119Y-71101000D01*
X116095881Y-71101000D01*
X115970110Y-71075983D01*
X115851639Y-71026911D01*
X115796982Y-70990390D01*
X115745012Y-70955665D01*
X115745011Y-70955664D01*
X115745008Y-70955662D01*
X115654338Y-70864992D01*
X115644430Y-70850163D01*
X115583091Y-70758364D01*
X115583089Y-70758361D01*
X115534017Y-70639890D01*
X115509000Y-70514119D01*
X115509000Y-70385881D01*
X115528686Y-70286911D01*
X115533946Y-70260466D01*
X115536348Y-70236082D01*
X115533946Y-70211695D01*
X115526833Y-70188246D01*
X115515282Y-70166636D01*
X115499736Y-70147693D01*
X115480794Y-70132148D01*
X115459183Y-70120597D01*
X115435734Y-70113484D01*
X115411348Y-70111082D01*
X115386961Y-70113484D01*
X115363512Y-70120597D01*
X115341902Y-70132148D01*
X115322960Y-70147694D01*
X115254992Y-70215662D01*
X115254989Y-70215664D01*
X115254988Y-70215665D01*
X115148364Y-70286909D01*
X115148361Y-70286911D01*
X115029890Y-70335983D01*
X114904119Y-70361000D01*
X114775881Y-70361000D01*
X114650110Y-70335983D01*
X114531639Y-70286911D01*
X114531636Y-70286909D01*
X114425012Y-70215665D01*
X114425011Y-70215664D01*
X114425008Y-70215662D01*
X114334338Y-70124992D01*
X114326649Y-70113484D01*
X114263091Y-70018364D01*
X114263089Y-70018361D01*
X114214017Y-69899890D01*
X114189000Y-69774119D01*
X114189000Y-69645881D01*
X114214017Y-69520110D01*
X114263089Y-69401639D01*
X114263091Y-69401636D01*
X114334335Y-69295012D01*
X114334336Y-69295011D01*
X114334338Y-69295008D01*
X114425008Y-69204338D01*
X114531639Y-69133089D01*
X114650110Y-69084017D01*
X114775881Y-69059000D01*
X114904119Y-69059000D01*
X115029890Y-69084017D01*
X115029890Y-69084017D01*
G37*
G36*
X99109890Y-76854017D02*
X99228361Y-76903089D01*
X99228364Y-76903091D01*
X99312957Y-76959614D01*
X99334992Y-76974338D01*
X99425662Y-77065008D01*
X99496911Y-77171639D01*
X99545983Y-77290110D01*
X99571000Y-77415881D01*
X99571000Y-77544119D01*
X99545983Y-77669890D01*
X99496911Y-77788361D01*
X99425662Y-77894992D01*
X99334992Y-77985662D01*
X99228361Y-78056911D01*
X99109890Y-78105983D01*
X98984119Y-78131000D01*
X98855881Y-78131000D01*
X98730110Y-78105983D01*
X98611639Y-78056911D01*
X98505008Y-77985662D01*
X98414338Y-77894992D01*
X98343089Y-77788361D01*
X98294017Y-77669890D01*
X98269000Y-77544119D01*
X98269000Y-77415881D01*
X98294017Y-77290110D01*
X98343089Y-77171639D01*
X98414338Y-77065008D01*
X98505008Y-76974338D01*
X98527044Y-76959614D01*
X98611636Y-76903091D01*
X98611639Y-76903089D01*
X98730110Y-76854017D01*
X98855881Y-76829000D01*
X98984119Y-76829000D01*
X99109890Y-76854017D01*
X99109890Y-76854017D01*
G37*
G36*
X99799890Y-74774017D02*
X99918361Y-74823089D01*
X99918364Y-74823091D01*
X99952472Y-74845881D01*
X100024992Y-74894338D01*
X100115662Y-74985008D01*
X100186911Y-75091639D01*
X100235983Y-75210110D01*
X100261000Y-75335881D01*
X100261000Y-75464119D01*
X100235983Y-75589890D01*
X100186911Y-75708361D01*
X100186909Y-75708364D01*
X100137273Y-75782650D01*
X100115662Y-75814992D01*
X100024992Y-75905662D01*
X99918361Y-75976911D01*
X99799890Y-76025983D01*
X99674119Y-76051000D01*
X99545881Y-76051000D01*
X99420110Y-76025983D01*
X99301639Y-75976911D01*
X99195008Y-75905662D01*
X99104338Y-75814992D01*
X99082728Y-75782650D01*
X99033091Y-75708364D01*
X99033089Y-75708361D01*
X98984017Y-75589890D01*
X98959000Y-75464119D01*
X98959000Y-75335881D01*
X98984017Y-75210110D01*
X99033089Y-75091639D01*
X99104338Y-74985008D01*
X99195008Y-74894338D01*
X99267529Y-74845881D01*
X99301636Y-74823091D01*
X99301639Y-74823089D01*
X99420110Y-74774017D01*
X99545881Y-74749000D01*
X99674119Y-74749000D01*
X99799890Y-74774017D01*
X99799890Y-74774017D01*
G37*
G36*
X110726000Y-69376000D02*
X109274000Y-69376000D01*
X109274000Y-67924000D01*
X110726000Y-67924000D01*
X110726000Y-69376000D01*
X110726000Y-69376000D01*
G37*
M02*
