G04 #@! TF.GenerationSoftware,KiCad,Pcbnew,5.0.2-bee76a0~70~ubuntu18.04.1*
G04 #@! TF.CreationDate,2019-05-15T03:21:57+02:00*
G04 #@! TF.ProjectId,ring,72696e67-2e6b-4696-9361-645f70636258,rev?*
G04 #@! TF.SameCoordinates,Original*
G04 #@! TF.FileFunction,Legend,Top*
G04 #@! TF.FilePolarity,Positive*
%FSLAX46Y46*%
G04 Gerber Fmt 4.6, Leading zero omitted, Abs format (unit mm)*
G04 Created by KiCad (PCBNEW 5.0.2-bee76a0~70~ubuntu18.04.1) date Mi 15 Mai 2019 03:21:57 CEST*
%MOMM*%
%LPD*%
G01*
G04 APERTURE LIST*
%ADD10C,0.250000*%
%ADD11C,0.120000*%
%ADD12C,0.100000*%
%ADD13C,0.150000*%
G04 APERTURE END LIST*
D10*
X99695909Y-84833968D02*
X99809916Y-85147199D01*
X100302135Y-84968046D02*
X99362443Y-85310066D01*
X99199576Y-84862593D01*
X99862395Y-83759870D02*
X99370175Y-83939023D01*
X99296967Y-84016344D01*
X99284794Y-84122125D01*
X99349940Y-84301114D01*
X99427261Y-84374322D01*
X99817648Y-83776156D02*
X99894969Y-83849364D01*
X99976402Y-84073101D01*
X99964228Y-84178882D01*
X99891020Y-84256202D01*
X99801526Y-84288776D01*
X99695744Y-84276602D01*
X99618424Y-84203394D01*
X99536990Y-83979658D01*
X99459670Y-83906450D01*
X98926487Y-83137685D02*
X99552948Y-82909672D01*
X99073067Y-83540410D02*
X99565287Y-83361257D01*
X99638495Y-83283936D01*
X99650669Y-83178155D01*
X99601809Y-83043913D01*
X99524488Y-82970706D01*
X99463454Y-82942245D01*
X98812480Y-82824454D02*
X98682187Y-82466476D01*
X98450389Y-82804219D02*
X99255840Y-82511059D01*
X99329048Y-82433738D01*
X99341222Y-82327957D01*
X99308648Y-82238463D01*
X99194642Y-81925232D02*
X98254949Y-82267252D01*
X99048062Y-81522506D02*
X98555842Y-81701660D01*
X98482634Y-81778980D01*
X98470460Y-81884762D01*
X98519320Y-82019003D01*
X98596641Y-82092211D01*
X98657674Y-82120672D01*
X103817766Y-89028003D02*
X103110660Y-89735110D01*
X103413705Y-88623942D01*
X102706599Y-89331049D01*
X103076988Y-88287225D02*
X102605583Y-88758629D01*
X102369881Y-88994331D02*
X102437225Y-88994331D01*
X102437225Y-88926988D01*
X102369881Y-88926988D01*
X102369881Y-88994331D01*
X102437225Y-88926988D01*
X102740270Y-87950507D02*
X102033164Y-88657614D01*
X102403553Y-88152538D02*
X102470896Y-87681133D01*
X101999492Y-88152538D02*
X102538240Y-88152538D01*
X102066835Y-87277072D02*
X102100507Y-87378087D01*
X102066835Y-87479103D01*
X101460744Y-88085194D01*
X101494416Y-86704652D02*
X101124026Y-87075042D01*
X101090355Y-87176057D01*
X101124026Y-87277072D01*
X101258713Y-87411759D01*
X101359729Y-87445431D01*
X101460744Y-86738324D02*
X101561759Y-86771996D01*
X101730118Y-86940355D01*
X101763790Y-87041370D01*
X101730118Y-87142385D01*
X101662774Y-87209729D01*
X101561759Y-87243400D01*
X101460744Y-87209729D01*
X101292385Y-87041370D01*
X101191370Y-87007698D01*
X101157698Y-86435278D02*
X101124026Y-86334263D01*
X100989339Y-86199576D01*
X100888324Y-86165904D01*
X100787309Y-86199576D01*
X100753637Y-86233248D01*
X100719965Y-86334263D01*
X100753637Y-86435278D01*
X100854652Y-86536294D01*
X100888324Y-86637309D01*
X100854652Y-86738324D01*
X100820981Y-86771996D01*
X100719965Y-86805668D01*
X100618950Y-86771996D01*
X100517935Y-86670981D01*
X100484263Y-86569965D01*
X121997619Y-79159523D02*
X121997619Y-79730952D01*
X120997619Y-79445238D02*
X121997619Y-79445238D01*
X120997619Y-80207142D02*
X121045238Y-80111904D01*
X121092857Y-80064285D01*
X121188095Y-80016666D01*
X121473809Y-80016666D01*
X121569047Y-80064285D01*
X121616666Y-80111904D01*
X121664285Y-80207142D01*
X121664285Y-80350000D01*
X121616666Y-80445238D01*
X121569047Y-80492857D01*
X121473809Y-80540476D01*
X121188095Y-80540476D01*
X121092857Y-80492857D01*
X121045238Y-80445238D01*
X120997619Y-80350000D01*
X120997619Y-80207142D01*
X121664285Y-80969047D02*
X120664285Y-80969047D01*
X121616666Y-80969047D02*
X121664285Y-81064285D01*
X121664285Y-81254761D01*
X121616666Y-81350000D01*
X121569047Y-81397619D01*
X121473809Y-81445238D01*
X121188095Y-81445238D01*
X121092857Y-81397619D01*
X121045238Y-81350000D01*
X120997619Y-81254761D01*
X120997619Y-81064285D01*
X121045238Y-80969047D01*
D11*
G04 #@! TO.C,REF\002A\002A*
X111060000Y-90290000D02*
X108940000Y-90290000D01*
X111060000Y-90350000D02*
X111060000Y-90290000D01*
X108940000Y-90350000D02*
X108940000Y-90290000D01*
X111060000Y-90350000D02*
X108940000Y-90350000D01*
X111060000Y-91350000D02*
X111060000Y-92410000D01*
X111060000Y-92410000D02*
X110000000Y-92410000D01*
G04 #@! TO.C,J13*
X99620000Y-77480000D02*
G75*
G03X99620000Y-77480000I-700000J0D01*
G01*
G04 #@! TO.C,J9*
X116860000Y-70450000D02*
G75*
G03X116860000Y-70450000I-700000J0D01*
G01*
G04 #@! TO.C,J16*
X118330000Y-88410000D02*
G75*
G03X118330000Y-88410000I-700000J0D01*
G01*
G04 #@! TO.C,J10*
X115540000Y-69710000D02*
G75*
G03X115540000Y-69710000I-700000J0D01*
G01*
G04 #@! TO.C,J15*
X105570000Y-90140000D02*
G75*
G03X105570000Y-90140000I-700000J0D01*
G01*
G04 #@! TO.C,J14*
X100310000Y-75400000D02*
G75*
G03X100310000Y-75400000I-700000J0D01*
G01*
G04 #@! TO.C,J2*
X121440000Y-76300000D02*
G75*
G03X121440000Y-76300000I-700000J0D01*
G01*
G04 #@! TO.C,J3*
X120860000Y-74910000D02*
G75*
G03X120860000Y-74910000I-700000J0D01*
G01*
G04 #@! TO.C,J4*
X120090000Y-73600000D02*
G75*
G03X120090000Y-73600000I-700000J0D01*
G01*
G04 #@! TO.C,J6*
X119680000Y-86960000D02*
G75*
G03X119680000Y-86960000I-700000J0D01*
G01*
G04 #@! TO.C,J5*
X119160000Y-72400000D02*
G75*
G03X119160000Y-72400000I-700000J0D01*
G01*
G04 #@! TO.C,J8*
X120760000Y-85280000D02*
G75*
G03X120760000Y-85280000I-700000J0D01*
G01*
G04 #@! TO.C,J1*
X121840000Y-77760000D02*
G75*
G03X121840000Y-77760000I-700000J0D01*
G01*
G04 #@! TO.C,J7*
X118080000Y-71350000D02*
G75*
G03X118080000Y-71350000I-700000J0D01*
G01*
G04 #@! TO.C,REF\002A\002A*
X108940000Y-67590000D02*
X110000000Y-67590000D01*
X108940000Y-68650000D02*
X108940000Y-67590000D01*
X108940000Y-69650000D02*
X111060000Y-69650000D01*
X111060000Y-69650000D02*
X111060000Y-69710000D01*
X108940000Y-69650000D02*
X108940000Y-69710000D01*
X108940000Y-69710000D02*
X111060000Y-69710000D01*
G04 #@! TO.C,J13*
D12*
X98920000Y-76032000D02*
X98920000Y-76032000D01*
X98920000Y-76032000D01*
X98920000Y-76032000D01*
X98920000Y-76032000D01*
X98920000Y-76032000D01*
X98920000Y-76032000D02*
X98920000Y-76032000D01*
X98920000Y-76032000D02*
X98920000Y-76032000D01*
X98920000Y-76032000D01*
X98920000Y-76032000D01*
X98920000Y-76032000D01*
X98920000Y-76032000D02*
X98920000Y-76032000D01*
X98920000Y-76032000D01*
X98920000Y-76032000D01*
X98920000Y-76032000D01*
X98920000Y-76032000D01*
X98920000Y-76032000D01*
X98920000Y-76032000D01*
X98920000Y-76032000D01*
X98920000Y-76032000D01*
X98920000Y-76032000D01*
X98920000Y-76032000D01*
X98920000Y-76032000D01*
X98920000Y-76032000D01*
D13*
G04 #@! TO.C,J9*
D12*
X117183891Y-69426109D02*
X117183891Y-69426109D01*
X117183891Y-69426109D01*
X117183891Y-69426109D01*
X117183891Y-69426109D01*
X117183891Y-69426109D01*
X117183891Y-69426109D02*
X117183891Y-69426109D01*
X117183891Y-69426109D01*
X117183891Y-69426109D01*
X117183891Y-69426109D01*
X117183891Y-69426109D01*
X117183891Y-69426109D01*
X117183891Y-69426109D01*
X117183891Y-69426109D01*
X117183891Y-69426109D01*
X117183891Y-69426109D01*
X117183891Y-69426109D01*
X117183891Y-69426109D01*
X117183891Y-69426109D01*
X117183891Y-69426109D01*
X117183891Y-69426109D01*
X117183891Y-69426109D01*
X117183891Y-69426109D01*
X117183891Y-69426109D01*
X117183891Y-69426109D01*
X117183891Y-69426109D01*
X117183891Y-69426109D01*
D13*
G04 #@! TO.C,J16*
D12*
X117630000Y-86962000D02*
X117630000Y-86962000D01*
X117630000Y-86962000D01*
X117630000Y-86962000D01*
X117630000Y-86962000D01*
X117630000Y-86962000D01*
X117630000Y-86962000D02*
X117630000Y-86962000D01*
X117630000Y-86962000D02*
X117630000Y-86962000D01*
X117630000Y-86962000D01*
X117630000Y-86962000D01*
X117630000Y-86962000D01*
X117630000Y-86962000D02*
X117630000Y-86962000D01*
X117630000Y-86962000D01*
X117630000Y-86962000D01*
X117630000Y-86962000D01*
X117630000Y-86962000D01*
X117630000Y-86962000D01*
X117630000Y-86962000D01*
X117630000Y-86962000D01*
X117630000Y-86962000D01*
X117630000Y-86962000D01*
X117630000Y-86962000D01*
X117630000Y-86962000D01*
X117630000Y-86962000D01*
X117630000Y-86962000D01*
X117630000Y-86962000D01*
X117630000Y-86962000D01*
X117630000Y-86962000D01*
X117630000Y-86962000D01*
X117630000Y-86962000D01*
X117630000Y-86962000D01*
X117630000Y-86962000D01*
D13*
G04 #@! TO.C,J10*
D12*
X115863891Y-68686109D02*
X115863891Y-68686109D01*
X115863891Y-68686109D01*
X115863891Y-68686109D01*
X115863891Y-68686109D01*
X115863891Y-68686109D01*
X115863891Y-68686109D02*
X115863891Y-68686109D01*
X115863891Y-68686109D02*
X115863891Y-68686109D01*
X115863891Y-68686109D01*
X115863891Y-68686109D01*
X115863891Y-68686109D01*
X115863891Y-68686109D02*
X115863891Y-68686109D01*
X115863891Y-68686109D01*
X115863891Y-68686109D01*
X115863891Y-68686109D01*
X115863891Y-68686109D01*
X115863891Y-68686109D01*
X115863891Y-68686109D01*
X115863891Y-68686109D01*
X115863891Y-68686109D01*
X115863891Y-68686109D01*
X115863891Y-68686109D01*
X115863891Y-68686109D01*
X115863891Y-68686109D01*
X115863891Y-68686109D01*
X115863891Y-68686109D01*
X115863891Y-68686109D01*
X115863891Y-68686109D01*
X115863891Y-68686109D01*
X115863891Y-68686109D01*
X115863891Y-68686109D01*
D13*
G04 #@! TO.C,J15*
D12*
X104870000Y-88692000D02*
X104870000Y-88692000D01*
X104870000Y-88692000D01*
X104870000Y-88692000D01*
X104870000Y-88692000D01*
X104870000Y-88692000D01*
X104870000Y-88692000D02*
X104870000Y-88692000D01*
X104870000Y-88692000D02*
X104870000Y-88692000D01*
X104870000Y-88692000D01*
X104870000Y-88692000D01*
X104870000Y-88692000D01*
X104870000Y-88692000D02*
X104870000Y-88692000D01*
X104870000Y-88692000D01*
X104870000Y-88692000D01*
X104870000Y-88692000D01*
X104870000Y-88692000D01*
X104870000Y-88692000D01*
X104870000Y-88692000D01*
X104870000Y-88692000D01*
X104870000Y-88692000D01*
X104870000Y-88692000D01*
X104870000Y-88692000D01*
X104870000Y-88692000D01*
X104870000Y-88692000D01*
X104870000Y-88692000D01*
X104870000Y-88692000D01*
D13*
G04 #@! TO.C,J14*
D12*
X99610000Y-73952000D02*
X99610000Y-73952000D01*
X99610000Y-73952000D01*
X99610000Y-73952000D01*
X99610000Y-73952000D01*
X99610000Y-73952000D01*
X99610000Y-73952000D02*
X99610000Y-73952000D01*
X99610000Y-73952000D02*
X99610000Y-73952000D01*
X99610000Y-73952000D01*
X99610000Y-73952000D01*
X99610000Y-73952000D01*
X99610000Y-73952000D02*
X99610000Y-73952000D01*
X99610000Y-73952000D02*
X99610000Y-73952000D01*
X99610000Y-73952000D01*
D13*
G04 #@! TO.C,J2*
D12*
X121763891Y-75276109D02*
X121763891Y-75276109D01*
X121763891Y-75276109D01*
X121763891Y-75276109D01*
X121763891Y-75276109D01*
X121763891Y-75276109D01*
X121763891Y-75276109D02*
X121763891Y-75276109D01*
X121763891Y-75276109D01*
X121763891Y-75276109D01*
X121763891Y-75276109D01*
X121763891Y-75276109D01*
X121763891Y-75276109D01*
X121763891Y-75276109D01*
X121763891Y-75276109D01*
X121763891Y-75276109D01*
X121763891Y-75276109D01*
D13*
G04 #@! TO.C,J3*
D12*
X121183891Y-73886109D02*
X121183891Y-73886109D01*
X121183891Y-73886109D01*
X121183891Y-73886109D01*
X121183891Y-73886109D01*
X121183891Y-73886109D01*
X121183891Y-73886109D02*
X121183891Y-73886109D01*
X121183891Y-73886109D01*
X121183891Y-73886109D01*
X121183891Y-73886109D01*
X121183891Y-73886109D01*
X121183891Y-73886109D01*
X121183891Y-73886109D01*
X121183891Y-73886109D01*
X121183891Y-73886109D01*
X121183891Y-73886109D01*
X121183891Y-73886109D01*
X121183891Y-73886109D01*
X121183891Y-73886109D01*
D13*
G04 #@! TO.C,J4*
D12*
X120413891Y-72576109D02*
X120413891Y-72576109D01*
X120413891Y-72576109D01*
X120413891Y-72576109D01*
X120413891Y-72576109D01*
X120413891Y-72576109D01*
X120413891Y-72576109D02*
X120413891Y-72576109D01*
X120413891Y-72576109D02*
X120413891Y-72576109D01*
X120413891Y-72576109D01*
D13*
G04 #@! TO.C,J6*
D12*
X118980000Y-85512000D02*
X118980000Y-85512000D01*
X118980000Y-85512000D01*
X118980000Y-85512000D01*
X118980000Y-85512000D01*
X118980000Y-85512000D01*
X118980000Y-85512000D02*
X118980000Y-85512000D01*
X118980000Y-85512000D01*
X118980000Y-85512000D01*
X118980000Y-85512000D01*
X118980000Y-85512000D01*
X118980000Y-85512000D01*
X118980000Y-85512000D01*
X118980000Y-85512000D01*
X118980000Y-85512000D01*
X118980000Y-85512000D01*
X118980000Y-85512000D01*
X118980000Y-85512000D01*
X118980000Y-85512000D01*
X118980000Y-85512000D01*
X118980000Y-85512000D01*
X118980000Y-85512000D01*
X118980000Y-85512000D01*
X118980000Y-85512000D01*
X118980000Y-85512000D01*
X118980000Y-85512000D01*
X118980000Y-85512000D01*
D13*
G04 #@! TO.C,J5*
D12*
X119483891Y-71376109D02*
X119483891Y-71376109D01*
X119483891Y-71376109D01*
X119483891Y-71376109D01*
X119483891Y-71376109D01*
X119483891Y-71376109D01*
X119483891Y-71376109D02*
X119483891Y-71376109D01*
X119483891Y-71376109D01*
X119483891Y-71376109D01*
X119483891Y-71376109D01*
X119483891Y-71376109D01*
X119483891Y-71376109D01*
X119483891Y-71376109D01*
X119483891Y-71376109D01*
X119483891Y-71376109D01*
X119483891Y-71376109D01*
X119483891Y-71376109D01*
X119483891Y-71376109D01*
X119483891Y-71376109D01*
X119483891Y-71376109D01*
X119483891Y-71376109D01*
D13*
G04 #@! TO.C,J8*
D12*
X120060000Y-83832000D02*
X120060000Y-83832000D01*
X120060000Y-83832000D01*
X120060000Y-83832000D01*
X120060000Y-83832000D01*
X120060000Y-83832000D01*
X120060000Y-83832000D02*
X120060000Y-83832000D01*
X120060000Y-83832000D01*
X120060000Y-83832000D01*
X120060000Y-83832000D01*
X120060000Y-83832000D01*
X120060000Y-83832000D01*
X120060000Y-83832000D01*
X120060000Y-83832000D01*
X120060000Y-83832000D01*
X120060000Y-83832000D01*
X120060000Y-83832000D01*
X120060000Y-83832000D01*
X120060000Y-83832000D01*
X120060000Y-83832000D01*
X120060000Y-83832000D01*
X120060000Y-83832000D01*
X120060000Y-83832000D01*
X120060000Y-83832000D01*
X120060000Y-83832000D01*
X120060000Y-83832000D01*
X120060000Y-83832000D01*
X120060000Y-83832000D01*
X120060000Y-83832000D01*
X120060000Y-83832000D01*
X120060000Y-83832000D01*
X120060000Y-83832000D01*
X120060000Y-83832000D01*
X120060000Y-83832000D01*
X120060000Y-83832000D01*
X120060000Y-83832000D01*
X120060000Y-83832000D01*
D13*
G04 #@! TO.C,J1*
D12*
X122163891Y-76736109D02*
X122163891Y-76736109D01*
X122163891Y-76736109D01*
X122163891Y-76736109D01*
X122163891Y-76736109D01*
X122163891Y-76736109D01*
X122163891Y-76736109D02*
X122163891Y-76736109D01*
X122163891Y-76736109D02*
X122163891Y-76736109D01*
X122163891Y-76736109D01*
X122163891Y-76736109D01*
X122163891Y-76736109D01*
D13*
G04 #@! TO.C,J7*
D12*
X118403891Y-70326109D02*
X118403891Y-70326109D01*
X118403891Y-70326109D01*
X118403891Y-70326109D01*
X118403891Y-70326109D01*
X118403891Y-70326109D01*
X118403891Y-70326109D02*
X118403891Y-70326109D01*
X118403891Y-70326109D01*
D13*
G04 #@! TD*
M02*
