G04 #@! TF.GenerationSoftware,KiCad,Pcbnew,5.0.2-bee76a0~70~ubuntu18.04.1*
G04 #@! TF.CreationDate,2019-05-15T03:21:57+02:00*
G04 #@! TF.ProjectId,ring,72696e67-2e6b-4696-9361-645f70636258,rev?*
G04 #@! TF.SameCoordinates,Original*
G04 #@! TF.FileFunction,Legend,Bot*
G04 #@! TF.FilePolarity,Positive*
%FSLAX46Y46*%
G04 Gerber Fmt 4.6, Leading zero omitted, Abs format (unit mm)*
G04 Created by KiCad (PCBNEW 5.0.2-bee76a0~70~ubuntu18.04.1) date Mi 15 Mai 2019 03:21:57 CEST*
%MOMM*%
%LPD*%
G01*
G04 APERTURE LIST*
%ADD10C,0.120000*%
%ADD11C,0.100000*%
%ADD12C,0.150000*%
G04 APERTURE END LIST*
D10*
G04 #@! TO.C,J1*
X121840000Y-77760000D02*
G75*
G03X121840000Y-77760000I-700000J0D01*
G01*
G04 #@! TO.C,J13*
X99620000Y-77480000D02*
G75*
G03X99620000Y-77480000I-700000J0D01*
G01*
G04 #@! TO.C,J15*
X105570000Y-90140000D02*
G75*
G03X105570000Y-90140000I-700000J0D01*
G01*
G04 #@! TO.C,J16*
X118330000Y-88410000D02*
G75*
G03X118330000Y-88410000I-700000J0D01*
G01*
G04 #@! TO.C,J14*
X100310000Y-75400000D02*
G75*
G03X100310000Y-75400000I-700000J0D01*
G01*
G04 #@! TO.C,J6*
X119680000Y-86960000D02*
G75*
G03X119680000Y-86960000I-700000J0D01*
G01*
G04 #@! TO.C,J3*
X120860000Y-74910000D02*
G75*
G03X120860000Y-74910000I-700000J0D01*
G01*
G04 #@! TO.C,J4*
X120090000Y-73600000D02*
G75*
G03X120090000Y-73600000I-700000J0D01*
G01*
G04 #@! TO.C,J5*
X119160000Y-72400000D02*
G75*
G03X119160000Y-72400000I-700000J0D01*
G01*
G04 #@! TO.C,J7*
X118080000Y-71350000D02*
G75*
G03X118080000Y-71350000I-700000J0D01*
G01*
G04 #@! TO.C,J8*
X120760000Y-85280000D02*
G75*
G03X120760000Y-85280000I-700000J0D01*
G01*
G04 #@! TO.C,J9*
X116860000Y-70450000D02*
G75*
G03X116860000Y-70450000I-700000J0D01*
G01*
G04 #@! TO.C,J10*
X115540000Y-69710000D02*
G75*
G03X115540000Y-69710000I-700000J0D01*
G01*
G04 #@! TO.C,J2*
X121440000Y-76300000D02*
G75*
G03X121440000Y-76300000I-700000J0D01*
G01*
G04 #@! TO.C,J1*
D11*
X122163891Y-78783891D02*
X122163891Y-78783891D01*
X122163891Y-78783891D01*
X122163891Y-78783891D01*
X122163891Y-78783891D01*
X122163891Y-78783891D01*
X122163891Y-78783891D02*
X122163891Y-78783891D01*
X122163891Y-78783891D02*
X122163891Y-78783891D01*
X122163891Y-78783891D01*
X122163891Y-78783891D01*
X122163891Y-78783891D01*
D12*
G04 #@! TO.C,J13*
D11*
X98920000Y-78928000D02*
X98920000Y-78928000D01*
X98920000Y-78928000D01*
X98920000Y-78928000D01*
X98920000Y-78928000D01*
X98920000Y-78928000D01*
X98920000Y-78928000D02*
X98920000Y-78928000D01*
X98920000Y-78928000D02*
X98920000Y-78928000D01*
X98920000Y-78928000D01*
X98920000Y-78928000D01*
X98920000Y-78928000D01*
X98920000Y-78928000D02*
X98920000Y-78928000D01*
X98920000Y-78928000D01*
X98920000Y-78928000D01*
X98920000Y-78928000D01*
X98920000Y-78928000D01*
X98920000Y-78928000D01*
X98920000Y-78928000D01*
X98920000Y-78928000D01*
X98920000Y-78928000D01*
X98920000Y-78928000D01*
X98920000Y-78928000D01*
X98920000Y-78928000D01*
X98920000Y-78928000D01*
D12*
G04 #@! TO.C,J15*
D11*
X104870000Y-91588000D02*
X104870000Y-91588000D01*
X104870000Y-91588000D01*
X104870000Y-91588000D01*
X104870000Y-91588000D01*
X104870000Y-91588000D01*
X104870000Y-91588000D02*
X104870000Y-91588000D01*
X104870000Y-91588000D02*
X104870000Y-91588000D01*
X104870000Y-91588000D01*
X104870000Y-91588000D01*
X104870000Y-91588000D01*
X104870000Y-91588000D02*
X104870000Y-91588000D01*
X104870000Y-91588000D01*
X104870000Y-91588000D01*
X104870000Y-91588000D01*
X104870000Y-91588000D01*
X104870000Y-91588000D01*
X104870000Y-91588000D01*
X104870000Y-91588000D01*
X104870000Y-91588000D01*
X104870000Y-91588000D01*
X104870000Y-91588000D01*
X104870000Y-91588000D01*
X104870000Y-91588000D01*
X104870000Y-91588000D01*
X104870000Y-91588000D01*
D12*
G04 #@! TO.C,J16*
D11*
X117630000Y-89858000D02*
X117630000Y-89858000D01*
X117630000Y-89858000D01*
X117630000Y-89858000D01*
X117630000Y-89858000D01*
X117630000Y-89858000D01*
X117630000Y-89858000D02*
X117630000Y-89858000D01*
X117630000Y-89858000D02*
X117630000Y-89858000D01*
X117630000Y-89858000D01*
X117630000Y-89858000D01*
X117630000Y-89858000D01*
X117630000Y-89858000D02*
X117630000Y-89858000D01*
X117630000Y-89858000D01*
X117630000Y-89858000D01*
X117630000Y-89858000D01*
X117630000Y-89858000D01*
X117630000Y-89858000D01*
X117630000Y-89858000D01*
X117630000Y-89858000D01*
X117630000Y-89858000D01*
X117630000Y-89858000D01*
X117630000Y-89858000D01*
X117630000Y-89858000D01*
X117630000Y-89858000D01*
X117630000Y-89858000D01*
X117630000Y-89858000D01*
X117630000Y-89858000D01*
X117630000Y-89858000D01*
X117630000Y-89858000D01*
X117630000Y-89858000D01*
X117630000Y-89858000D01*
X117630000Y-89858000D01*
D12*
G04 #@! TO.C,J14*
D11*
X99610000Y-76848000D02*
X99610000Y-76848000D01*
X99610000Y-76848000D01*
X99610000Y-76848000D01*
X99610000Y-76848000D01*
X99610000Y-76848000D01*
X99610000Y-76848000D02*
X99610000Y-76848000D01*
X99610000Y-76848000D02*
X99610000Y-76848000D01*
X99610000Y-76848000D01*
X99610000Y-76848000D01*
X99610000Y-76848000D01*
X99610000Y-76848000D02*
X99610000Y-76848000D01*
X99610000Y-76848000D02*
X99610000Y-76848000D01*
X99610000Y-76848000D01*
D12*
G04 #@! TO.C,J6*
D11*
X118980000Y-88408000D02*
X118980000Y-88408000D01*
X118980000Y-88408000D01*
X118980000Y-88408000D01*
X118980000Y-88408000D01*
X118980000Y-88408000D01*
X118980000Y-88408000D02*
X118980000Y-88408000D01*
X118980000Y-88408000D01*
X118980000Y-88408000D01*
X118980000Y-88408000D01*
X118980000Y-88408000D01*
X118980000Y-88408000D01*
X118980000Y-88408000D01*
X118980000Y-88408000D01*
X118980000Y-88408000D01*
X118980000Y-88408000D01*
X118980000Y-88408000D01*
X118980000Y-88408000D01*
X118980000Y-88408000D01*
X118980000Y-88408000D01*
X118980000Y-88408000D01*
X118980000Y-88408000D01*
X118980000Y-88408000D01*
X118980000Y-88408000D01*
X118980000Y-88408000D01*
X118980000Y-88408000D01*
X118980000Y-88408000D01*
D12*
G04 #@! TO.C,J3*
D11*
X121183891Y-75933891D02*
X121183891Y-75933891D01*
X121183891Y-75933891D01*
X121183891Y-75933891D01*
X121183891Y-75933891D01*
X121183891Y-75933891D01*
X121183891Y-75933891D02*
X121183891Y-75933891D01*
X121183891Y-75933891D01*
X121183891Y-75933891D01*
X121183891Y-75933891D01*
X121183891Y-75933891D01*
X121183891Y-75933891D01*
X121183891Y-75933891D01*
X121183891Y-75933891D01*
X121183891Y-75933891D01*
X121183891Y-75933891D01*
X121183891Y-75933891D01*
X121183891Y-75933891D01*
X121183891Y-75933891D01*
D12*
G04 #@! TO.C,J4*
D11*
X120413891Y-74623891D02*
X120413891Y-74623891D01*
X120413891Y-74623891D01*
X120413891Y-74623891D01*
X120413891Y-74623891D01*
X120413891Y-74623891D01*
X120413891Y-74623891D02*
X120413891Y-74623891D01*
X120413891Y-74623891D02*
X120413891Y-74623891D01*
X120413891Y-74623891D01*
D12*
G04 #@! TO.C,J5*
D11*
X119483891Y-73423891D02*
X119483891Y-73423891D01*
X119483891Y-73423891D01*
X119483891Y-73423891D01*
X119483891Y-73423891D01*
X119483891Y-73423891D01*
X119483891Y-73423891D02*
X119483891Y-73423891D01*
X119483891Y-73423891D01*
X119483891Y-73423891D01*
X119483891Y-73423891D01*
X119483891Y-73423891D01*
X119483891Y-73423891D01*
X119483891Y-73423891D01*
X119483891Y-73423891D01*
X119483891Y-73423891D01*
X119483891Y-73423891D01*
X119483891Y-73423891D01*
X119483891Y-73423891D01*
X119483891Y-73423891D01*
X119483891Y-73423891D01*
X119483891Y-73423891D01*
D12*
G04 #@! TO.C,J7*
D11*
X118403891Y-72373891D02*
X118403891Y-72373891D01*
X118403891Y-72373891D01*
X118403891Y-72373891D01*
X118403891Y-72373891D01*
X118403891Y-72373891D01*
X118403891Y-72373891D02*
X118403891Y-72373891D01*
X118403891Y-72373891D01*
D12*
G04 #@! TO.C,J8*
D11*
X120060000Y-86728000D02*
X120060000Y-86728000D01*
X120060000Y-86728000D01*
X120060000Y-86728000D01*
X120060000Y-86728000D01*
X120060000Y-86728000D01*
X120060000Y-86728000D02*
X120060000Y-86728000D01*
X120060000Y-86728000D01*
X120060000Y-86728000D01*
X120060000Y-86728000D01*
X120060000Y-86728000D01*
X120060000Y-86728000D01*
X120060000Y-86728000D01*
X120060000Y-86728000D01*
X120060000Y-86728000D01*
X120060000Y-86728000D01*
X120060000Y-86728000D01*
X120060000Y-86728000D01*
X120060000Y-86728000D01*
X120060000Y-86728000D01*
X120060000Y-86728000D01*
X120060000Y-86728000D01*
X120060000Y-86728000D01*
X120060000Y-86728000D01*
X120060000Y-86728000D01*
X120060000Y-86728000D01*
X120060000Y-86728000D01*
X120060000Y-86728000D01*
X120060000Y-86728000D01*
X120060000Y-86728000D01*
X120060000Y-86728000D01*
X120060000Y-86728000D01*
X120060000Y-86728000D01*
X120060000Y-86728000D01*
X120060000Y-86728000D01*
X120060000Y-86728000D01*
X120060000Y-86728000D01*
D12*
G04 #@! TO.C,J9*
D11*
X117183891Y-71473891D02*
X117183891Y-71473891D01*
X117183891Y-71473891D01*
X117183891Y-71473891D01*
X117183891Y-71473891D01*
X117183891Y-71473891D01*
X117183891Y-71473891D02*
X117183891Y-71473891D01*
X117183891Y-71473891D01*
X117183891Y-71473891D01*
X117183891Y-71473891D01*
X117183891Y-71473891D01*
X117183891Y-71473891D01*
X117183891Y-71473891D01*
X117183891Y-71473891D01*
X117183891Y-71473891D01*
X117183891Y-71473891D01*
X117183891Y-71473891D01*
X117183891Y-71473891D01*
X117183891Y-71473891D01*
X117183891Y-71473891D01*
X117183891Y-71473891D01*
X117183891Y-71473891D01*
X117183891Y-71473891D01*
X117183891Y-71473891D01*
X117183891Y-71473891D01*
X117183891Y-71473891D01*
X117183891Y-71473891D01*
D12*
G04 #@! TO.C,J10*
D11*
X115863891Y-70733891D02*
X115863891Y-70733891D01*
X115863891Y-70733891D01*
X115863891Y-70733891D01*
X115863891Y-70733891D01*
X115863891Y-70733891D01*
X115863891Y-70733891D02*
X115863891Y-70733891D01*
X115863891Y-70733891D02*
X115863891Y-70733891D01*
X115863891Y-70733891D01*
X115863891Y-70733891D01*
X115863891Y-70733891D01*
X115863891Y-70733891D02*
X115863891Y-70733891D01*
X115863891Y-70733891D01*
X115863891Y-70733891D01*
X115863891Y-70733891D01*
X115863891Y-70733891D01*
X115863891Y-70733891D01*
X115863891Y-70733891D01*
X115863891Y-70733891D01*
X115863891Y-70733891D01*
X115863891Y-70733891D01*
X115863891Y-70733891D01*
X115863891Y-70733891D01*
X115863891Y-70733891D01*
X115863891Y-70733891D01*
X115863891Y-70733891D01*
X115863891Y-70733891D01*
X115863891Y-70733891D01*
X115863891Y-70733891D01*
X115863891Y-70733891D01*
X115863891Y-70733891D01*
D12*
G04 #@! TO.C,J2*
D11*
X121763891Y-77323891D02*
X121763891Y-77323891D01*
X121763891Y-77323891D01*
X121763891Y-77323891D01*
X121763891Y-77323891D01*
X121763891Y-77323891D01*
X121763891Y-77323891D02*
X121763891Y-77323891D01*
X121763891Y-77323891D01*
X121763891Y-77323891D01*
X121763891Y-77323891D01*
X121763891Y-77323891D01*
X121763891Y-77323891D01*
X121763891Y-77323891D01*
X121763891Y-77323891D01*
X121763891Y-77323891D01*
X121763891Y-77323891D01*
D12*
G04 #@! TD*
M02*
