M48
;DRILL file {KiCad 5.0.2-bee76a0~70~ubuntu18.04.1} date Mi 28 Aug 2019 04:11:27 CEST
;FORMAT={-:-/ absolute / inch / decimal}
FMAT,2
INCH,TZ
T1C0.0118
%
G90
G05
T1
X3.9718Y-3.1182
X3.9759Y-3.0871
X3.9827Y-3.0564
X3.9922Y-3.0264
X3.9922Y-3.2728
X4.0042Y-2.9974
X4.0042Y-3.3018
X4.0187Y-2.9695
X4.0187Y-3.3297
X4.1378Y-3.1339
X4.1506Y-2.8376
X4.1506Y-3.4616
X4.1785Y-2.8231
X4.1785Y-3.4761
X4.185Y-3.1772
X4.2075Y-2.8111
X4.2075Y-3.4881
X4.2375Y-2.8016
X4.2375Y-3.4976
X4.2402Y-3.0984
X4.2682Y-2.7948
X4.2682Y-3.5044
X4.2993Y-2.7907
X4.2993Y-3.5085
X4.3307Y-2.7894
X4.3307Y-3.5098
X4.3621Y-2.7907
X4.3621Y-3.5085
X4.3933Y-2.7948
X4.3933Y-3.5044
X4.4213Y-3.1181
X4.4239Y-2.8016
X4.4239Y-3.4976
X4.4539Y-2.8111
X4.4539Y-3.4881
X4.483Y-2.8231
X4.483Y-3.4761
X4.5108Y-2.8376
X4.5108Y-3.4616
X4.5197Y-3.1693
X4.5866Y-3.1142
X4.626Y-3.1378
X4.626Y-3.1654
X4.626Y-3.1654
X4.626Y-3.1654
X4.626Y-3.1929
X4.6427Y-2.9695
X4.6427Y-3.3297
X4.6535Y-3.0945
X4.6572Y-2.9974
X4.6572Y-3.3018
X4.6575Y-3.2047
X4.6692Y-3.0264
X4.6692Y-3.2728
X4.6787Y-3.0564
X4.6787Y-3.2428
X4.6855Y-3.0871
X4.6855Y-3.2122
X4.6896Y-3.1182
X4.7044Y-3.1655
T0
M30
