M48
;DRILL file {KiCad 5.0.2-bee76a0~70~ubuntu18.04.1} date Di 04 Jun 2019 21:22:12 CEST
;FORMAT={-:-/ absolute / inch / decimal}
FMAT,2
INCH,TZ
T1C0.0118
%
G90
G05
T1
X3.9718Y-3.1182
X3.9759Y-3.0871
X3.9827Y-3.0564
X3.9922Y-3.0264
X3.9922Y-3.2728
X4.0042Y-2.9974
X4.0042Y-3.3018
X4.0187Y-2.9695
X4.0187Y-3.3297
X4.0356Y-2.943
X4.0356Y-3.3562
X4.0548Y-2.9181
X4.0548Y-3.3812
X4.076Y-2.8949
X4.076Y-3.4043
X4.0992Y-2.8736
X4.0992Y-3.4256
X4.1241Y-2.8545
X4.1241Y-3.4447
X4.1378Y-3.1339
X4.1506Y-2.8376
X4.1506Y-3.4616
X4.1785Y-2.8231
X4.1785Y-3.4761
X4.185Y-3.1772
X4.2075Y-2.8111
X4.2075Y-3.4881
X4.2375Y-2.8016
X4.2375Y-3.4976
X4.2402Y-3.0984
X4.2682Y-2.7948
X4.2682Y-3.5044
X4.2993Y-2.7907
X4.2993Y-3.5085
X4.3307Y-2.7894
X4.3307Y-3.5098
X4.3621Y-2.7907
X4.3621Y-3.5085
X4.3933Y-2.7948
X4.3933Y-3.5044
X4.4213Y-3.1181
X4.4239Y-2.8016
X4.4239Y-3.4976
X4.4539Y-2.8111
X4.4539Y-3.4881
X4.483Y-2.8231
X4.483Y-3.4761
X4.5108Y-2.8376
X4.5108Y-3.4616
X4.5197Y-3.1693
X4.5373Y-2.8545
X4.5373Y-3.4447
X4.5623Y-2.8736
X4.5623Y-3.4256
X4.5854Y-2.8949
X4.5854Y-3.4043
X4.5866Y-3.1142
X4.6067Y-2.9181
X4.6067Y-3.3812
X4.6258Y-2.943
X4.6258Y-3.3562
X4.626Y-3.1378
X4.626Y-3.1654
X4.626Y-3.1654
X4.626Y-3.1654
X4.626Y-3.1929
X4.6427Y-2.9695
X4.6427Y-3.3297
X4.6535Y-3.0945
X4.6572Y-2.9974
X4.6572Y-3.3018
X4.6575Y-3.2047
X4.6692Y-3.0264
X4.6692Y-3.2728
X4.6787Y-3.0564
X4.6787Y-3.2428
X4.6855Y-3.0871
X4.6855Y-3.2122
X4.6896Y-3.1182
X4.7044Y-3.1655
X4.7396Y-2.4292
X4.7437Y-2.3981
X4.7505Y-2.3674
X4.7599Y-2.3374
X4.7599Y-2.5838
X4.7719Y-2.3084
X4.7719Y-2.6129
X4.7865Y-2.2805
X4.7865Y-2.6407
X4.8033Y-2.254
X4.8033Y-2.6673
X4.8225Y-2.2291
X4.8225Y-2.6922
X4.8437Y-2.2059
X4.8437Y-2.7154
X4.8669Y-2.1847
X4.8669Y-2.7366
X4.8918Y-2.1655
X4.8918Y-2.7557
X4.9055Y-2.4449
X4.9183Y-2.1487
X4.9183Y-2.7726
X4.9462Y-2.1341
X4.9462Y-2.7871
X4.9528Y-2.4882
X4.9752Y-2.1221
X4.9752Y-2.7991
X5.0052Y-2.1127
X5.0052Y-2.8086
X5.0079Y-2.4094
X5.0359Y-2.1059
X5.0359Y-2.8154
X5.067Y-2.1018
X5.067Y-2.8195
X5.0984Y-2.1004
X5.0984Y-2.8209
X5.1298Y-2.1018
X5.1298Y-2.8195
X5.161Y-2.1059
X5.161Y-2.8154
X5.189Y-2.4291
X5.1917Y-2.1127
X5.1917Y-2.8086
X5.2216Y-2.1221
X5.2216Y-2.7991
X5.2507Y-2.1341
X5.2507Y-2.7871
X5.2785Y-2.1487
X5.2785Y-2.7726
X5.2874Y-2.4803
X5.305Y-2.1655
X5.305Y-2.7557
X5.33Y-2.1847
X5.33Y-2.7366
X5.3532Y-2.2059
X5.3532Y-2.7154
X5.3543Y-2.4252
X5.3744Y-2.2291
X5.3744Y-2.6922
X5.3935Y-2.254
X5.3935Y-2.6673
X5.3937Y-2.4488
X5.3937Y-2.4764
X5.3937Y-2.4764
X5.3937Y-2.4764
X5.3937Y-2.5039
X5.4104Y-2.2805
X5.4104Y-2.6407
X5.4213Y-2.4055
X5.4249Y-2.3084
X5.4249Y-2.6129
X5.4252Y-2.5157
X5.4369Y-2.3374
X5.4369Y-2.5838
X5.4464Y-2.3674
X5.4464Y-2.5539
X5.4532Y-2.3981
X5.4532Y-2.5232
X5.4573Y-2.4292
X5.4721Y-2.4765
T0
M30
