G04 #@! TF.GenerationSoftware,KiCad,Pcbnew,5.0.2-bee76a0~70~ubuntu18.04.1*
G04 #@! TF.CreationDate,2019-06-04T21:22:10+02:00*
G04 #@! TF.ProjectId,upper_Sensor,75707065-725f-4536-956e-736f722e6b69,rev?*
G04 #@! TF.SameCoordinates,Original*
G04 #@! TF.FileFunction,Copper,L2,Bot*
G04 #@! TF.FilePolarity,Positive*
%FSLAX46Y46*%
G04 Gerber Fmt 4.6, Leading zero omitted, Abs format (unit mm)*
G04 Created by KiCad (PCBNEW 5.0.2-bee76a0~70~ubuntu18.04.1) date Di 04 Jun 2019 21:22:10 CEST*
%MOMM*%
%LPD*%
G01*
G04 APERTURE LIST*
G04 #@! TA.AperFunction,ViaPad*
%ADD10C,0.600000*%
G04 #@! TD*
G04 #@! TA.AperFunction,Conductor*
%ADD11C,0.500000*%
G04 #@! TD*
G04 #@! TA.AperFunction,Conductor*
%ADD12C,0.254000*%
G04 #@! TD*
G04 #@! TA.AperFunction,NonConductor*
%ADD13C,0.254000*%
G04 #@! TD*
G04 APERTURE END LIST*
D10*
G04 #@! TO.N,*
X127131806Y-53661784D03*
X131868193Y-53661782D03*
X138615178Y-61702524D03*
X135381504Y-55490696D03*
X134748224Y-69995240D03*
X131088881Y-71510990D03*
X125633047Y-70792710D03*
X126370519Y-71098181D03*
X124600000Y-62100000D03*
X124925002Y-54575873D03*
X135970026Y-68970025D03*
X128702526Y-71615174D03*
X137000000Y-62900000D03*
X134074998Y-54575871D03*
X137000000Y-62900000D03*
X129499999Y-53350004D03*
X136995237Y-57251777D03*
X123029976Y-56029977D03*
X120489014Y-60911121D03*
X127911121Y-71510984D03*
X138510987Y-60911119D03*
X121575875Y-67074997D03*
X137792714Y-66366956D03*
X136000000Y-61600000D03*
X136509303Y-56618495D03*
X134748222Y-55004762D03*
X135970024Y-56029975D03*
X134075000Y-70424131D03*
X131868194Y-71338220D03*
X126370516Y-53901818D03*
X137424130Y-67074999D03*
X137792712Y-58633044D03*
X132629483Y-53901816D03*
X137000000Y-62200000D03*
X124251778Y-55004764D03*
X121207291Y-66366955D03*
X124251781Y-69995236D03*
X137000000Y-63600000D03*
X125800000Y-63200000D03*
X127200000Y-61200000D03*
X127911119Y-53489014D03*
X131088880Y-53489012D03*
X131800000Y-61700000D03*
X122490697Y-56618497D03*
X135381506Y-69509305D03*
X137424128Y-57925001D03*
X120661783Y-60131808D03*
X120901817Y-59370518D03*
X129500000Y-71650000D03*
X133366955Y-54207287D03*
X120901820Y-65629483D03*
X137700000Y-61100000D03*
X134300000Y-63000000D03*
X121207288Y-58633046D03*
X136509305Y-68381505D03*
X120384824Y-61702526D03*
X137800000Y-63900000D03*
X138098183Y-59370516D03*
X130297474Y-53384822D03*
X132629484Y-71098186D03*
X133366957Y-70792715D03*
X125633044Y-54207289D03*
X128702524Y-53384823D03*
X122490700Y-68381503D03*
X124925005Y-70424127D03*
X122004766Y-67748221D03*
X138338217Y-60131806D03*
X136995239Y-67748223D03*
X121575872Y-57925003D03*
X123029979Y-68970023D03*
X123618499Y-69509302D03*
X138338219Y-64868193D03*
X138510989Y-64088880D03*
X137000000Y-62900000D03*
X123618496Y-55490698D03*
X138098185Y-65629483D03*
X122004763Y-57251779D03*
X127131808Y-71338215D03*
X130297475Y-71615181D03*
X138991760Y-62903700D03*
G04 #@! TO.N,GNDD*
X110797475Y-89115181D03*
X111588881Y-89010990D03*
X112368194Y-88838220D03*
X113129484Y-88598186D03*
X115248224Y-87495240D03*
X115881506Y-87009305D03*
X116470026Y-86470025D03*
X114575000Y-87924131D03*
X113866957Y-88292715D03*
X117924130Y-84574999D03*
X118292714Y-83866956D03*
X118598185Y-83129483D03*
X117495239Y-85248223D03*
X117009305Y-85881505D03*
X118598183Y-76870516D03*
X118292712Y-76133044D03*
X117924128Y-75425001D03*
X118838217Y-77631806D03*
X119010987Y-78411119D03*
X117495237Y-74751777D03*
X115881504Y-72990696D03*
X115248222Y-72504762D03*
X116470024Y-73529975D03*
X117009303Y-74118495D03*
X114574998Y-72075871D03*
X112368193Y-71161782D03*
X111588880Y-70989012D03*
X113129483Y-71401816D03*
X113866955Y-71707287D03*
X110797474Y-70884822D03*
X108411119Y-70989014D03*
X107631806Y-71161784D03*
X109202524Y-70884823D03*
X109999999Y-70850004D03*
X106870516Y-71401818D03*
X104751778Y-72504764D03*
X104118496Y-72990698D03*
X105425002Y-72075873D03*
X106133044Y-71707289D03*
X102504763Y-74751779D03*
X103529976Y-73529977D03*
X102075872Y-75425003D03*
X102990697Y-74118497D03*
X101707288Y-76133046D03*
X102075875Y-84574997D03*
X101401820Y-83129483D03*
X102504766Y-85248221D03*
X101707291Y-83866955D03*
X102990700Y-85881503D03*
X104751781Y-87495236D03*
X103529979Y-86470023D03*
X105425005Y-87924127D03*
X104118499Y-87009302D03*
X106133047Y-88292710D03*
X106870519Y-88598181D03*
X107631808Y-88838215D03*
X108411121Y-89010984D03*
X109202526Y-89115174D03*
X118838219Y-82368193D03*
X119010989Y-81588880D03*
X119115178Y-79202524D03*
X101401817Y-76870518D03*
X101161783Y-77631808D03*
X100989014Y-78411121D03*
X100884824Y-79202526D03*
X110000000Y-89150000D03*
X118300000Y-81400000D03*
X117500000Y-80400000D03*
X117500000Y-80400000D03*
X117500000Y-80400000D03*
X117500000Y-79700000D03*
X117500000Y-81100000D03*
X118200000Y-78600000D03*
X116500000Y-79100000D03*
X112300000Y-79200000D03*
X114800000Y-80500000D03*
X105100000Y-79600000D03*
X106300000Y-80700000D03*
X107700000Y-78700000D03*
G04 #@! TO.N,RF_ANT*
X119491760Y-80403700D03*
G04 #@! TD*
D11*
G04 #@! TO.N,*
X140486591Y-67537275D02*
X139847301Y-68746015D01*
X133627680Y-73859649D02*
X132318137Y-74253189D01*
X134884387Y-73320709D02*
X133627680Y-73859649D01*
X128242229Y-74520705D02*
X126892489Y-74301704D01*
X120970503Y-71063120D02*
X120057846Y-70044871D01*
X135962108Y-72706043D02*
X134884387Y-73320709D01*
X117708647Y-65153933D02*
X117484335Y-63805055D01*
X124419532Y-51533312D02*
X125690786Y-51029636D01*
X141336925Y-64942645D02*
X140985263Y-66264049D01*
X121056681Y-53851893D02*
X122087558Y-52953531D01*
X125576115Y-73931644D02*
X124309975Y-73415264D01*
X140985263Y-66264049D02*
X140486591Y-67537275D01*
X137175836Y-71835999D02*
X136072173Y-72643268D01*
X141537079Y-63589981D02*
X141336925Y-64942645D01*
X117735812Y-59728138D02*
X118124197Y-58417052D01*
X138181263Y-70909222D02*
X137175836Y-71835999D01*
X124309975Y-73415264D02*
X123110272Y-72759177D01*
X129729084Y-50415842D02*
X131092570Y-50519054D01*
X117413822Y-62439489D02*
X117498006Y-61074696D01*
X139075560Y-69874821D02*
X138181263Y-70909222D01*
X123110272Y-72759177D02*
X121992339Y-71971767D01*
X128362664Y-50467302D02*
X129729084Y-50415842D01*
X141555115Y-63055116D02*
X141537079Y-63589981D01*
X141400000Y-62900000D02*
X141555115Y-63055116D01*
X136072173Y-72643268D02*
X135962108Y-72706043D01*
X129608076Y-74585845D02*
X128242229Y-74520705D01*
X117498006Y-61074696D02*
X117735812Y-59728138D01*
X119266049Y-68930055D02*
X118605241Y-67732933D01*
X130972529Y-74496291D02*
X129608076Y-74585845D01*
X123213310Y-52177359D02*
X124419532Y-51533312D01*
X120057846Y-70044871D02*
X119266049Y-68930055D01*
X120133873Y-54860954D02*
X121056681Y-53851893D01*
X139847301Y-68746015D02*
X139075560Y-69874821D01*
X117484335Y-63805055D02*
X117413822Y-62439489D01*
X126892489Y-74301704D02*
X125576115Y-73931644D01*
X132318137Y-74253189D02*
X130972529Y-74496291D01*
X121992339Y-71971767D02*
X120970503Y-71063120D01*
X125690786Y-51029636D02*
X127010802Y-50672774D01*
X122087558Y-52953531D02*
X123213310Y-52177359D01*
X138990000Y-62900000D02*
X141400000Y-62900000D01*
X118658188Y-57158234D02*
X119330949Y-55967789D01*
X118124197Y-58417052D02*
X118658188Y-57158234D01*
X119330949Y-55967789D02*
X120133873Y-54860954D01*
X127010802Y-50672774D02*
X128362664Y-50467302D01*
X118083879Y-66468821D02*
X117708647Y-65153933D01*
X118605241Y-67732933D02*
X118083879Y-66468821D01*
G04 #@! TO.N,RF_ANT*
X107510802Y-68172774D02*
X108862664Y-67967302D01*
X104919532Y-69033312D02*
X106190786Y-68529636D01*
X103713310Y-69677359D02*
X104919532Y-69033312D01*
X101556681Y-71351893D02*
X102587558Y-70453531D01*
X100633873Y-72360954D02*
X101556681Y-71351893D01*
X99830949Y-73467789D02*
X100633873Y-72360954D01*
X121485263Y-83764049D02*
X120986591Y-85037275D01*
X106190786Y-68529636D02*
X107510802Y-68172774D01*
X116572173Y-90143268D02*
X116462108Y-90206043D01*
X118681263Y-88409222D02*
X117675836Y-89335999D01*
X120347301Y-86246015D02*
X119575560Y-87374821D01*
X115384387Y-90820709D02*
X114127680Y-91359649D01*
X103610272Y-90259177D02*
X102492339Y-89471767D01*
X108862664Y-67967302D02*
X110229084Y-67915842D01*
X107392489Y-91801704D02*
X106076115Y-91431644D01*
X119490000Y-80400000D02*
X121900000Y-80400000D01*
X99105241Y-85232933D02*
X98583879Y-83968821D01*
X116462108Y-90206043D02*
X115384387Y-90820709D01*
X110108076Y-92085845D02*
X108742229Y-92020705D01*
X121836925Y-82442645D02*
X121485263Y-83764049D01*
X97998006Y-78574696D02*
X98235812Y-77228138D01*
X117675836Y-89335999D02*
X116572173Y-90143268D01*
X98624197Y-75917052D02*
X99158188Y-74658234D01*
X120986591Y-85037275D02*
X120347301Y-86246015D01*
X99766049Y-86430055D02*
X99105241Y-85232933D01*
X112818137Y-91753189D02*
X111472529Y-91996291D01*
X122055115Y-80555116D02*
X122037079Y-81089981D01*
X111472529Y-91996291D02*
X110108076Y-92085845D01*
X106076115Y-91431644D02*
X104809975Y-90915264D01*
X108742229Y-92020705D02*
X107392489Y-91801704D01*
X119575560Y-87374821D02*
X118681263Y-88409222D01*
X104809975Y-90915264D02*
X103610272Y-90259177D01*
X101470503Y-88563120D02*
X100557846Y-87544871D01*
X110229084Y-67915842D02*
X111592570Y-68019054D01*
X98235812Y-77228138D02*
X98624197Y-75917052D01*
X102492339Y-89471767D02*
X101470503Y-88563120D01*
X121900000Y-80400000D02*
X122055115Y-80555116D01*
X122037079Y-81089981D02*
X121836925Y-82442645D01*
X100557846Y-87544871D02*
X99766049Y-86430055D01*
X98208647Y-82653933D02*
X97984335Y-81305055D01*
X98583879Y-83968821D02*
X98208647Y-82653933D01*
X97984335Y-81305055D02*
X97913822Y-79939489D01*
X97913822Y-79939489D02*
X97998006Y-78574696D01*
X102587558Y-70453531D02*
X103713310Y-69677359D01*
X114127680Y-91359649D02*
X112818137Y-91753189D01*
X99158188Y-74658234D02*
X99830949Y-73467789D01*
G04 #@! TD*
D12*
G04 #@! TO.N,GNDD*
G36*
X111223385Y-70707457D02*
X112425842Y-70946641D01*
X113586785Y-71340728D01*
X114686365Y-71882981D01*
X115705754Y-72564114D01*
X116627519Y-73372481D01*
X117435886Y-74294246D01*
X118117019Y-75313635D01*
X118659272Y-76413215D01*
X119053359Y-77574158D01*
X119292543Y-78776615D01*
X119363163Y-79854074D01*
X119176245Y-79931498D01*
X119019558Y-80088185D01*
X118934760Y-80292906D01*
X118934760Y-80514494D01*
X119019558Y-80719215D01*
X119176245Y-80875902D01*
X119311642Y-80931985D01*
X119292543Y-81223385D01*
X119053359Y-82425842D01*
X118659272Y-83586785D01*
X118117019Y-84686365D01*
X117435886Y-85705754D01*
X116627519Y-86627519D01*
X115705754Y-87435886D01*
X114686365Y-88117019D01*
X113586785Y-88659272D01*
X112425842Y-89053359D01*
X111223385Y-89292543D01*
X110000000Y-89372728D01*
X108776615Y-89292543D01*
X107574158Y-89053359D01*
X106413215Y-88659272D01*
X105313635Y-88117019D01*
X104294246Y-87435886D01*
X103372481Y-86627519D01*
X102564114Y-85705754D01*
X101882981Y-84686365D01*
X101340728Y-83586785D01*
X100946641Y-82425842D01*
X100707457Y-81223385D01*
X100627272Y-80000000D01*
X100638445Y-79829532D01*
X109143000Y-79829532D01*
X109143000Y-80170468D01*
X109273470Y-80485452D01*
X109514548Y-80726530D01*
X109829532Y-80857000D01*
X110170468Y-80857000D01*
X110485452Y-80726530D01*
X110726530Y-80485452D01*
X110857000Y-80170468D01*
X110857000Y-79829532D01*
X110726530Y-79514548D01*
X110485452Y-79273470D01*
X110170468Y-79143000D01*
X109829532Y-79143000D01*
X109514548Y-79273470D01*
X109273470Y-79514548D01*
X109143000Y-79829532D01*
X100638445Y-79829532D01*
X100707457Y-78776615D01*
X100946641Y-77574158D01*
X101340728Y-76413215D01*
X101882981Y-75313635D01*
X102564114Y-74294246D01*
X103372481Y-73372481D01*
X104294246Y-72564114D01*
X105313635Y-71882981D01*
X106413215Y-71340728D01*
X107574158Y-70946641D01*
X108776615Y-70707457D01*
X110000000Y-70627272D01*
X111223385Y-70707457D01*
X111223385Y-70707457D01*
G37*
X111223385Y-70707457D02*
X112425842Y-70946641D01*
X113586785Y-71340728D01*
X114686365Y-71882981D01*
X115705754Y-72564114D01*
X116627519Y-73372481D01*
X117435886Y-74294246D01*
X118117019Y-75313635D01*
X118659272Y-76413215D01*
X119053359Y-77574158D01*
X119292543Y-78776615D01*
X119363163Y-79854074D01*
X119176245Y-79931498D01*
X119019558Y-80088185D01*
X118934760Y-80292906D01*
X118934760Y-80514494D01*
X119019558Y-80719215D01*
X119176245Y-80875902D01*
X119311642Y-80931985D01*
X119292543Y-81223385D01*
X119053359Y-82425842D01*
X118659272Y-83586785D01*
X118117019Y-84686365D01*
X117435886Y-85705754D01*
X116627519Y-86627519D01*
X115705754Y-87435886D01*
X114686365Y-88117019D01*
X113586785Y-88659272D01*
X112425842Y-89053359D01*
X111223385Y-89292543D01*
X110000000Y-89372728D01*
X108776615Y-89292543D01*
X107574158Y-89053359D01*
X106413215Y-88659272D01*
X105313635Y-88117019D01*
X104294246Y-87435886D01*
X103372481Y-86627519D01*
X102564114Y-85705754D01*
X101882981Y-84686365D01*
X101340728Y-83586785D01*
X100946641Y-82425842D01*
X100707457Y-81223385D01*
X100627272Y-80000000D01*
X100638445Y-79829532D01*
X109143000Y-79829532D01*
X109143000Y-80170468D01*
X109273470Y-80485452D01*
X109514548Y-80726530D01*
X109829532Y-80857000D01*
X110170468Y-80857000D01*
X110485452Y-80726530D01*
X110726530Y-80485452D01*
X110857000Y-80170468D01*
X110857000Y-79829532D01*
X110726530Y-79514548D01*
X110485452Y-79273470D01*
X110170468Y-79143000D01*
X109829532Y-79143000D01*
X109514548Y-79273470D01*
X109273470Y-79514548D01*
X109143000Y-79829532D01*
X100638445Y-79829532D01*
X100707457Y-78776615D01*
X100946641Y-77574158D01*
X101340728Y-76413215D01*
X101882981Y-75313635D01*
X102564114Y-74294246D01*
X103372481Y-73372481D01*
X104294246Y-72564114D01*
X105313635Y-71882981D01*
X106413215Y-71340728D01*
X107574158Y-70946641D01*
X108776615Y-70707457D01*
X110000000Y-70627272D01*
X111223385Y-70707457D01*
D13*
G36*
X130723385Y-53207457D02*
X131925842Y-53446641D01*
X133086785Y-53840728D01*
X134186365Y-54382981D01*
X135205754Y-55064114D01*
X136127519Y-55872481D01*
X136935886Y-56794246D01*
X137617019Y-57813635D01*
X138159272Y-58913215D01*
X138553359Y-60074158D01*
X138792543Y-61276615D01*
X138863163Y-62354074D01*
X138676245Y-62431498D01*
X138519558Y-62588185D01*
X138434760Y-62792906D01*
X138434760Y-63014494D01*
X138519558Y-63219215D01*
X138676245Y-63375902D01*
X138811642Y-63431985D01*
X138792543Y-63723385D01*
X138553359Y-64925842D01*
X138159272Y-66086785D01*
X137617019Y-67186365D01*
X136935886Y-68205754D01*
X136127519Y-69127519D01*
X135205754Y-69935886D01*
X134186365Y-70617019D01*
X133086785Y-71159272D01*
X131925842Y-71553359D01*
X130723385Y-71792543D01*
X129500000Y-71872728D01*
X128276615Y-71792543D01*
X127074158Y-71553359D01*
X125913215Y-71159272D01*
X124813635Y-70617019D01*
X123794246Y-69935886D01*
X122872481Y-69127519D01*
X122064114Y-68205754D01*
X121382981Y-67186365D01*
X120840728Y-66086785D01*
X120446641Y-64925842D01*
X120207457Y-63723385D01*
X120127272Y-62500000D01*
X120138445Y-62329532D01*
X128643000Y-62329532D01*
X128643000Y-62670468D01*
X128773470Y-62985452D01*
X129014548Y-63226530D01*
X129329532Y-63357000D01*
X129670468Y-63357000D01*
X129985452Y-63226530D01*
X130226530Y-62985452D01*
X130357000Y-62670468D01*
X130357000Y-62329532D01*
X130226530Y-62014548D01*
X129985452Y-61773470D01*
X129670468Y-61643000D01*
X129329532Y-61643000D01*
X129014548Y-61773470D01*
X128773470Y-62014548D01*
X128643000Y-62329532D01*
X120138445Y-62329532D01*
X120207457Y-61276615D01*
X120446641Y-60074158D01*
X120840728Y-58913215D01*
X121382981Y-57813635D01*
X122064114Y-56794246D01*
X122872481Y-55872481D01*
X123794246Y-55064114D01*
X124813635Y-54382981D01*
X125913215Y-53840728D01*
X127074158Y-53446641D01*
X128276615Y-53207457D01*
X129500000Y-53127272D01*
X130723385Y-53207457D01*
X130723385Y-53207457D01*
G37*
X130723385Y-53207457D02*
X131925842Y-53446641D01*
X133086785Y-53840728D01*
X134186365Y-54382981D01*
X135205754Y-55064114D01*
X136127519Y-55872481D01*
X136935886Y-56794246D01*
X137617019Y-57813635D01*
X138159272Y-58913215D01*
X138553359Y-60074158D01*
X138792543Y-61276615D01*
X138863163Y-62354074D01*
X138676245Y-62431498D01*
X138519558Y-62588185D01*
X138434760Y-62792906D01*
X138434760Y-63014494D01*
X138519558Y-63219215D01*
X138676245Y-63375902D01*
X138811642Y-63431985D01*
X138792543Y-63723385D01*
X138553359Y-64925842D01*
X138159272Y-66086785D01*
X137617019Y-67186365D01*
X136935886Y-68205754D01*
X136127519Y-69127519D01*
X135205754Y-69935886D01*
X134186365Y-70617019D01*
X133086785Y-71159272D01*
X131925842Y-71553359D01*
X130723385Y-71792543D01*
X129500000Y-71872728D01*
X128276615Y-71792543D01*
X127074158Y-71553359D01*
X125913215Y-71159272D01*
X124813635Y-70617019D01*
X123794246Y-69935886D01*
X122872481Y-69127519D01*
X122064114Y-68205754D01*
X121382981Y-67186365D01*
X120840728Y-66086785D01*
X120446641Y-64925842D01*
X120207457Y-63723385D01*
X120127272Y-62500000D01*
X120138445Y-62329532D01*
X128643000Y-62329532D01*
X128643000Y-62670468D01*
X128773470Y-62985452D01*
X129014548Y-63226530D01*
X129329532Y-63357000D01*
X129670468Y-63357000D01*
X129985452Y-63226530D01*
X130226530Y-62985452D01*
X130357000Y-62670468D01*
X130357000Y-62329532D01*
X130226530Y-62014548D01*
X129985452Y-61773470D01*
X129670468Y-61643000D01*
X129329532Y-61643000D01*
X129014548Y-61773470D01*
X128773470Y-62014548D01*
X128643000Y-62329532D01*
X120138445Y-62329532D01*
X120207457Y-61276615D01*
X120446641Y-60074158D01*
X120840728Y-58913215D01*
X121382981Y-57813635D01*
X122064114Y-56794246D01*
X122872481Y-55872481D01*
X123794246Y-55064114D01*
X124813635Y-54382981D01*
X125913215Y-53840728D01*
X127074158Y-53446641D01*
X128276615Y-53207457D01*
X129500000Y-53127272D01*
X130723385Y-53207457D01*
G04 #@! TD*
M02*
