G04 #@! TF.GenerationSoftware,KiCad,Pcbnew,5.0.2-bee76a0~70~ubuntu18.04.1*
G04 #@! TF.CreationDate,2019-06-04T21:22:10+02:00*
G04 #@! TF.ProjectId,upper_Sensor,75707065-725f-4536-956e-736f722e6b69,rev?*
G04 #@! TF.SameCoordinates,Original*
G04 #@! TF.FileFunction,Soldermask,Bot*
G04 #@! TF.FilePolarity,Negative*
%FSLAX46Y46*%
G04 Gerber Fmt 4.6, Leading zero omitted, Abs format (unit mm)*
G04 Created by KiCad (PCBNEW 5.0.2-bee76a0~70~ubuntu18.04.1) date Di 04 Jun 2019 21:22:10 CEST*
%MOMM*%
%LPD*%
G01*
G04 APERTURE LIST*
%ADD10C,0.100000*%
G04 APERTURE END LIST*
D10*
G36*
X110132004Y-79260544D02*
X110219059Y-79277860D01*
X110355732Y-79334472D01*
X110355733Y-79334473D01*
X110478738Y-79416662D01*
X110583338Y-79521262D01*
X110583340Y-79521265D01*
X110665528Y-79644268D01*
X110722140Y-79780941D01*
X110751000Y-79926033D01*
X110751000Y-80073967D01*
X110722140Y-80219059D01*
X110665528Y-80355732D01*
X110665527Y-80355733D01*
X110583338Y-80478738D01*
X110478738Y-80583338D01*
X110478735Y-80583340D01*
X110355732Y-80665528D01*
X110219059Y-80722140D01*
X110132004Y-80739456D01*
X110073969Y-80751000D01*
X109926031Y-80751000D01*
X109867996Y-80739456D01*
X109780941Y-80722140D01*
X109644268Y-80665528D01*
X109521265Y-80583340D01*
X109521262Y-80583338D01*
X109416662Y-80478738D01*
X109334473Y-80355733D01*
X109334472Y-80355732D01*
X109277860Y-80219059D01*
X109249000Y-80073967D01*
X109249000Y-79926033D01*
X109277860Y-79780941D01*
X109334472Y-79644268D01*
X109416660Y-79521265D01*
X109416662Y-79521262D01*
X109521262Y-79416662D01*
X109644267Y-79334473D01*
X109644268Y-79334472D01*
X109780941Y-79277860D01*
X109867996Y-79260544D01*
X109926031Y-79249000D01*
X110073969Y-79249000D01*
X110132004Y-79260544D01*
X110132004Y-79260544D01*
G37*
G36*
X118598402Y-70627536D02*
X118633846Y-70634586D01*
X118670425Y-70649738D01*
X118670427Y-70649739D01*
X118703347Y-70671736D01*
X118731342Y-70699731D01*
X118749866Y-70727453D01*
X118753340Y-70732653D01*
X118768492Y-70769232D01*
X118776216Y-70808065D01*
X118776216Y-70847659D01*
X118770791Y-70874932D01*
X118768390Y-70899311D01*
X118770792Y-70923697D01*
X118777905Y-70947146D01*
X118789456Y-70968757D01*
X118805001Y-70987700D01*
X118823943Y-71003245D01*
X118845553Y-71014796D01*
X118869003Y-71021910D01*
X118893389Y-71024312D01*
X118917776Y-71021910D01*
X118947252Y-71016047D01*
X118986848Y-71016047D01*
X118996555Y-71017978D01*
X119025680Y-71023771D01*
X119062259Y-71038923D01*
X119062261Y-71038924D01*
X119077131Y-71048860D01*
X119095180Y-71060920D01*
X119123177Y-71088917D01*
X119134100Y-71105265D01*
X119144469Y-71120782D01*
X119145174Y-71121838D01*
X119160326Y-71158417D01*
X119164956Y-71181697D01*
X119168050Y-71197249D01*
X119168050Y-71236845D01*
X119158343Y-71285646D01*
X119157106Y-71289723D01*
X119154703Y-71314110D01*
X119157104Y-71338496D01*
X119164216Y-71361945D01*
X119175766Y-71383557D01*
X119191311Y-71402500D01*
X119210252Y-71418046D01*
X119231863Y-71429598D01*
X119255311Y-71436712D01*
X119279698Y-71439115D01*
X119297418Y-71437370D01*
X119340382Y-71437370D01*
X119349154Y-71439115D01*
X119379214Y-71445094D01*
X119415793Y-71460246D01*
X119415795Y-71460247D01*
X119421175Y-71463842D01*
X119435417Y-71473358D01*
X119448715Y-71482244D01*
X119476710Y-71510239D01*
X119497470Y-71541307D01*
X119498708Y-71543161D01*
X119513860Y-71579740D01*
X119516824Y-71594644D01*
X119521584Y-71618572D01*
X119521584Y-71658168D01*
X119511882Y-71706945D01*
X119510641Y-71711032D01*
X119508235Y-71735418D01*
X119510632Y-71759805D01*
X119517741Y-71783255D01*
X119529288Y-71804868D01*
X119544830Y-71823813D01*
X119563769Y-71839362D01*
X119585378Y-71850918D01*
X119608825Y-71858036D01*
X119633211Y-71860442D01*
X119650950Y-71858697D01*
X119693915Y-71858697D01*
X119697293Y-71859369D01*
X119732747Y-71866421D01*
X119769326Y-71881573D01*
X119769328Y-71881574D01*
X119802248Y-71903571D01*
X119830243Y-71931566D01*
X119851013Y-71962649D01*
X119852241Y-71964488D01*
X119867393Y-72001067D01*
X119875117Y-72039900D01*
X119875117Y-72079494D01*
X119867393Y-72118327D01*
X119858695Y-72139324D01*
X119851582Y-72162773D01*
X119849180Y-72187160D01*
X119851582Y-72211546D01*
X119858695Y-72234995D01*
X119870246Y-72256606D01*
X119885791Y-72275548D01*
X119904734Y-72291094D01*
X119926344Y-72302645D01*
X119949793Y-72309758D01*
X119974180Y-72312160D01*
X120009146Y-72312160D01*
X120018853Y-72314091D01*
X120047978Y-72319884D01*
X120084557Y-72335036D01*
X120084559Y-72335037D01*
X120101130Y-72346110D01*
X120117478Y-72357033D01*
X120145475Y-72385030D01*
X120156398Y-72401378D01*
X120162216Y-72410084D01*
X120167472Y-72417951D01*
X120182624Y-72454530D01*
X120190348Y-72493363D01*
X120190348Y-72532957D01*
X120182624Y-72571790D01*
X120167472Y-72608369D01*
X120167471Y-72608371D01*
X120145474Y-72641291D01*
X120117479Y-72669286D01*
X120084559Y-72691283D01*
X120084558Y-72691284D01*
X120084557Y-72691284D01*
X120047978Y-72706436D01*
X120018853Y-72712229D01*
X120009146Y-72714160D01*
X119969550Y-72714160D01*
X119959843Y-72712229D01*
X119930718Y-72706436D01*
X119894139Y-72691284D01*
X119894138Y-72691284D01*
X119894137Y-72691283D01*
X119861217Y-72669286D01*
X119833222Y-72641291D01*
X119811225Y-72608371D01*
X119811224Y-72608369D01*
X119796072Y-72571790D01*
X119788348Y-72532957D01*
X119788348Y-72493363D01*
X119796072Y-72454530D01*
X119804771Y-72433529D01*
X119811883Y-72410084D01*
X119814285Y-72385697D01*
X119811883Y-72361311D01*
X119804770Y-72337862D01*
X119793219Y-72316251D01*
X119777674Y-72297309D01*
X119758731Y-72281763D01*
X119737121Y-72270212D01*
X119713672Y-72263099D01*
X119689285Y-72260697D01*
X119654319Y-72260697D01*
X119644612Y-72258766D01*
X119615487Y-72252973D01*
X119578908Y-72237821D01*
X119578907Y-72237821D01*
X119578906Y-72237820D01*
X119545986Y-72215823D01*
X119517991Y-72187828D01*
X119517545Y-72187160D01*
X119507067Y-72171479D01*
X119495994Y-72154908D01*
X119489539Y-72139324D01*
X119480841Y-72118327D01*
X119473117Y-72079494D01*
X119473117Y-72039900D01*
X119480841Y-72001067D01*
X119482819Y-71991122D01*
X119484060Y-71987035D01*
X119486466Y-71962649D01*
X119484069Y-71938262D01*
X119476960Y-71914812D01*
X119465413Y-71893199D01*
X119449871Y-71874254D01*
X119430932Y-71858705D01*
X119409323Y-71847149D01*
X119385876Y-71840031D01*
X119361490Y-71837625D01*
X119343751Y-71839370D01*
X119300786Y-71839370D01*
X119291079Y-71837439D01*
X119261954Y-71831646D01*
X119225375Y-71816494D01*
X119225374Y-71816494D01*
X119225373Y-71816493D01*
X119192453Y-71794496D01*
X119164458Y-71766501D01*
X119142461Y-71733581D01*
X119138792Y-71724723D01*
X119127308Y-71697000D01*
X119119584Y-71658167D01*
X119119584Y-71618573D01*
X119127308Y-71579740D01*
X119129291Y-71569771D01*
X119130528Y-71565694D01*
X119132931Y-71541307D01*
X119130530Y-71516921D01*
X119123418Y-71493472D01*
X119111868Y-71471860D01*
X119096323Y-71452917D01*
X119077382Y-71437371D01*
X119055771Y-71425819D01*
X119032323Y-71418705D01*
X119007936Y-71416302D01*
X118990216Y-71418047D01*
X118947252Y-71418047D01*
X118937545Y-71416116D01*
X118908420Y-71410323D01*
X118871841Y-71395171D01*
X118871840Y-71395171D01*
X118871839Y-71395170D01*
X118838919Y-71373173D01*
X118810924Y-71345178D01*
X118804483Y-71335538D01*
X118796754Y-71323971D01*
X118788927Y-71312258D01*
X118782485Y-71296706D01*
X118773774Y-71275677D01*
X118766050Y-71236844D01*
X118766050Y-71197250D01*
X118771475Y-71169977D01*
X118773876Y-71145598D01*
X118771474Y-71121212D01*
X118764361Y-71097763D01*
X118752810Y-71076152D01*
X118737265Y-71057209D01*
X118718323Y-71041664D01*
X118696713Y-71030113D01*
X118673263Y-71022999D01*
X118648877Y-71020597D01*
X118624490Y-71022999D01*
X118595014Y-71028862D01*
X118555418Y-71028862D01*
X118545711Y-71026931D01*
X118516586Y-71021138D01*
X118480007Y-71005986D01*
X118480006Y-71005986D01*
X118480005Y-71005985D01*
X118447085Y-70983988D01*
X118419090Y-70955993D01*
X118416870Y-70952670D01*
X118408166Y-70939644D01*
X118397093Y-70923073D01*
X118397092Y-70923071D01*
X118381940Y-70886492D01*
X118374216Y-70847659D01*
X118374216Y-70808065D01*
X118381940Y-70769232D01*
X118397092Y-70732653D01*
X118400567Y-70727453D01*
X118419090Y-70699731D01*
X118447085Y-70671736D01*
X118480005Y-70649739D01*
X118480007Y-70649738D01*
X118516586Y-70634586D01*
X118552030Y-70627536D01*
X118555418Y-70626862D01*
X118595014Y-70626862D01*
X118598402Y-70627536D01*
X118598402Y-70627536D01*
G37*
G36*
X119477369Y-69781727D02*
X119506494Y-69787520D01*
X119543073Y-69802672D01*
X119543075Y-69802673D01*
X119559646Y-69813746D01*
X119575994Y-69824669D01*
X119603991Y-69852666D01*
X119625988Y-69885587D01*
X119641140Y-69922166D01*
X119648864Y-69960999D01*
X119648864Y-70000593D01*
X119641141Y-70039423D01*
X119641140Y-70039425D01*
X119632442Y-70060423D01*
X119625328Y-70083872D01*
X119622926Y-70108258D01*
X119625327Y-70132644D01*
X119632440Y-70156093D01*
X119643991Y-70177704D01*
X119659536Y-70196647D01*
X119678478Y-70212192D01*
X119700089Y-70223744D01*
X119723538Y-70230858D01*
X119747926Y-70233260D01*
X119782894Y-70233260D01*
X119792601Y-70235191D01*
X119821726Y-70240984D01*
X119858305Y-70256136D01*
X119858307Y-70256137D01*
X119891227Y-70278134D01*
X119919222Y-70306129D01*
X119935964Y-70331184D01*
X119941220Y-70339051D01*
X119956372Y-70375630D01*
X119962165Y-70404755D01*
X119964096Y-70414462D01*
X119964096Y-70454058D01*
X119954385Y-70502880D01*
X119953148Y-70506959D01*
X119950749Y-70531346D01*
X119953154Y-70555732D01*
X119960271Y-70579180D01*
X119971825Y-70600789D01*
X119987373Y-70619729D01*
X120006317Y-70635272D01*
X120027929Y-70646820D01*
X120051379Y-70653930D01*
X120075766Y-70656329D01*
X120093466Y-70654584D01*
X120136426Y-70654584D01*
X120145198Y-70656329D01*
X120175258Y-70662308D01*
X120211837Y-70677460D01*
X120211839Y-70677461D01*
X120228410Y-70688534D01*
X120244758Y-70699457D01*
X120272755Y-70727454D01*
X120294752Y-70760375D01*
X120309904Y-70796954D01*
X120312114Y-70808065D01*
X120317628Y-70835786D01*
X120317628Y-70875382D01*
X120307917Y-70924204D01*
X120306680Y-70928283D01*
X120304281Y-70952670D01*
X120306686Y-70977056D01*
X120313803Y-71000504D01*
X120325357Y-71022113D01*
X120340905Y-71041053D01*
X120359849Y-71056596D01*
X120381461Y-71068144D01*
X120404911Y-71075254D01*
X120429298Y-71077653D01*
X120447003Y-71075908D01*
X120489959Y-71075908D01*
X120498731Y-71077653D01*
X120528791Y-71083632D01*
X120562905Y-71097763D01*
X120565372Y-71098785D01*
X120581943Y-71109858D01*
X120598291Y-71120781D01*
X120626288Y-71148778D01*
X120648285Y-71181699D01*
X120663437Y-71218278D01*
X120671161Y-71257111D01*
X120671161Y-71296705D01*
X120665736Y-71323978D01*
X120663335Y-71348357D01*
X120665737Y-71372743D01*
X120672850Y-71396192D01*
X120684401Y-71417803D01*
X120699946Y-71436746D01*
X120718888Y-71452291D01*
X120740498Y-71463842D01*
X120763948Y-71470956D01*
X120788334Y-71473358D01*
X120812717Y-71470957D01*
X120842200Y-71465093D01*
X120881795Y-71465093D01*
X120891502Y-71467024D01*
X120920627Y-71472817D01*
X120957206Y-71487969D01*
X120957208Y-71487970D01*
X120990128Y-71509967D01*
X121018123Y-71537962D01*
X121039378Y-71569771D01*
X121040121Y-71570884D01*
X121055273Y-71607463D01*
X121062997Y-71646296D01*
X121062997Y-71685890D01*
X121055273Y-71724723D01*
X121040121Y-71761302D01*
X121018124Y-71794223D01*
X120990127Y-71822220D01*
X120976020Y-71831646D01*
X120957208Y-71844216D01*
X120957207Y-71844217D01*
X120957206Y-71844217D01*
X120920627Y-71859369D01*
X120891502Y-71865162D01*
X120881795Y-71867093D01*
X120842199Y-71867093D01*
X120832492Y-71865162D01*
X120803367Y-71859369D01*
X120766788Y-71844217D01*
X120766787Y-71844217D01*
X120766786Y-71844216D01*
X120747974Y-71831646D01*
X120733867Y-71822220D01*
X120705870Y-71794223D01*
X120683873Y-71761302D01*
X120668721Y-71724723D01*
X120660997Y-71685890D01*
X120660997Y-71646296D01*
X120666422Y-71619023D01*
X120668823Y-71594644D01*
X120666421Y-71570258D01*
X120659308Y-71546809D01*
X120647757Y-71525198D01*
X120632212Y-71506255D01*
X120613270Y-71490710D01*
X120591660Y-71479159D01*
X120568210Y-71472045D01*
X120543824Y-71469643D01*
X120519441Y-71472044D01*
X120489958Y-71477908D01*
X120450363Y-71477908D01*
X120440656Y-71475977D01*
X120411531Y-71470184D01*
X120374952Y-71455032D01*
X120374951Y-71455032D01*
X120374950Y-71455031D01*
X120358379Y-71443958D01*
X120342031Y-71433035D01*
X120314034Y-71405038D01*
X120292743Y-71373174D01*
X120292038Y-71372119D01*
X120292037Y-71372117D01*
X120276885Y-71335538D01*
X120269161Y-71296705D01*
X120269161Y-71257111D01*
X120276885Y-71218278D01*
X120278872Y-71208288D01*
X120280109Y-71204209D01*
X120282508Y-71179822D01*
X120280103Y-71155436D01*
X120272986Y-71131988D01*
X120261432Y-71110379D01*
X120245884Y-71091439D01*
X120226940Y-71075896D01*
X120205328Y-71064348D01*
X120181878Y-71057238D01*
X120157491Y-71054839D01*
X120139786Y-71056584D01*
X120096830Y-71056584D01*
X120087123Y-71054653D01*
X120057998Y-71048860D01*
X120021419Y-71033708D01*
X120021418Y-71033708D01*
X120021417Y-71033707D01*
X120001797Y-71020597D01*
X119988498Y-71011711D01*
X119960501Y-70983714D01*
X119949578Y-70967366D01*
X119938505Y-70950795D01*
X119938504Y-70950793D01*
X119923352Y-70914214D01*
X119915628Y-70875381D01*
X119915628Y-70835787D01*
X119923352Y-70796954D01*
X119925339Y-70786964D01*
X119926576Y-70782885D01*
X119928975Y-70758498D01*
X119926570Y-70734112D01*
X119919453Y-70710664D01*
X119907899Y-70689055D01*
X119892351Y-70670115D01*
X119873407Y-70654572D01*
X119851795Y-70643024D01*
X119828345Y-70635914D01*
X119803958Y-70633515D01*
X119786258Y-70635260D01*
X119743298Y-70635260D01*
X119733591Y-70633329D01*
X119704466Y-70627536D01*
X119667887Y-70612384D01*
X119667886Y-70612384D01*
X119667885Y-70612383D01*
X119634965Y-70590386D01*
X119606970Y-70562391D01*
X119584973Y-70529471D01*
X119584972Y-70529469D01*
X119569820Y-70492890D01*
X119562096Y-70454057D01*
X119562096Y-70414463D01*
X119569820Y-70375630D01*
X119578519Y-70354629D01*
X119585632Y-70331184D01*
X119588034Y-70306798D01*
X119585633Y-70282412D01*
X119578520Y-70258963D01*
X119566969Y-70237352D01*
X119551424Y-70218409D01*
X119532482Y-70202864D01*
X119510871Y-70191312D01*
X119487422Y-70184198D01*
X119463034Y-70181796D01*
X119428066Y-70181796D01*
X119418359Y-70179865D01*
X119389234Y-70174072D01*
X119352655Y-70158920D01*
X119352654Y-70158920D01*
X119352653Y-70158919D01*
X119319733Y-70136922D01*
X119291738Y-70108927D01*
X119269741Y-70076007D01*
X119263286Y-70060423D01*
X119254588Y-70039426D01*
X119246864Y-70000593D01*
X119246864Y-69960999D01*
X119254588Y-69922166D01*
X119269740Y-69885587D01*
X119291737Y-69852666D01*
X119319734Y-69824669D01*
X119336082Y-69813746D01*
X119352653Y-69802673D01*
X119352655Y-69802672D01*
X119389234Y-69787520D01*
X119418359Y-69781727D01*
X119428066Y-69779796D01*
X119467662Y-69779796D01*
X119477369Y-69781727D01*
X119477369Y-69781727D01*
G37*
G36*
X129704472Y-61825938D02*
X129832049Y-61878782D01*
X129946865Y-61955500D01*
X130044500Y-62053135D01*
X130121218Y-62167951D01*
X130174062Y-62295528D01*
X130201000Y-62430956D01*
X130201000Y-62569044D01*
X130174062Y-62704472D01*
X130121218Y-62832049D01*
X130044500Y-62946865D01*
X129946865Y-63044500D01*
X129832049Y-63121218D01*
X129704472Y-63174062D01*
X129569044Y-63201000D01*
X129430956Y-63201000D01*
X129295528Y-63174062D01*
X129167951Y-63121218D01*
X129053135Y-63044500D01*
X128955500Y-62946865D01*
X128878782Y-62832049D01*
X128825938Y-62704472D01*
X128799000Y-62569044D01*
X128799000Y-62430956D01*
X128825938Y-62295528D01*
X128878782Y-62167951D01*
X128955500Y-62053135D01*
X129053135Y-61955500D01*
X129167951Y-61878782D01*
X129295528Y-61825938D01*
X129430956Y-61799000D01*
X129569044Y-61799000D01*
X129704472Y-61825938D01*
X129704472Y-61825938D01*
G37*
M02*
