G04 #@! TF.GenerationSoftware,KiCad,Pcbnew,5.0.2-bee76a0~70~ubuntu18.04.1*
G04 #@! TF.CreationDate,2019-05-27T21:37:22+02:00*
G04 #@! TF.ProjectId,mainboard,6d61696e-626f-4617-9264-2e6b69636164,rev?*
G04 #@! TF.SameCoordinates,Original*
G04 #@! TF.FileFunction,Copper,L3,Inr*
G04 #@! TF.FilePolarity,Positive*
%FSLAX46Y46*%
G04 Gerber Fmt 4.6, Leading zero omitted, Abs format (unit mm)*
G04 Created by KiCad (PCBNEW 5.0.2-bee76a0~70~ubuntu18.04.1) date Mo 27 Mai 2019 21:37:22 CEST*
%MOMM*%
%LPD*%
G01*
G04 APERTURE LIST*
G04 #@! TA.AperFunction,ViaPad*
%ADD10C,0.500000*%
G04 #@! TD*
G04 #@! TA.AperFunction,ViaPad*
%ADD11C,0.450000*%
G04 #@! TD*
G04 #@! TA.AperFunction,Conductor*
%ADD12C,0.100000*%
G04 #@! TD*
G04 #@! TA.AperFunction,Conductor*
%ADD13C,0.089000*%
G04 #@! TD*
G04 #@! TA.AperFunction,Conductor*
%ADD14C,0.200000*%
G04 #@! TD*
G04 APERTURE END LIST*
D10*
G04 #@! TO.N,GNDD*
G04 #@! TO.C,U1*
X107650000Y-84550000D03*
X107650000Y-85600000D03*
X107650000Y-86650000D03*
X106600000Y-84550000D03*
X106600000Y-85600000D03*
X106600000Y-86650000D03*
X105550000Y-84550000D03*
X105550000Y-85600000D03*
X105550000Y-86650000D03*
G04 #@! TD*
D11*
G04 #@! TO.N,REFFET2_D2*
X117420467Y-71337093D03*
G04 #@! TO.N,REFFET2_D1*
X118330000Y-71500000D03*
G04 #@! TO.N,ISFET2_D1*
X119354600Y-72671940D03*
X114907296Y-71924188D03*
G04 #@! TO.N,ISFET2_D2*
X115123642Y-73312997D03*
X121732040Y-78427580D03*
G04 #@! TO.N,COIL*
X120068340Y-85321140D03*
G04 #@! TO.N,ISFET2_D3*
X114601010Y-73440669D03*
X120736360Y-76311760D03*
G04 #@! TO.N,ISFET2_D4*
X114459580Y-73977060D03*
X120182640Y-74046080D03*
G04 #@! TO.N,REFFET2_D4*
X114828320Y-69725540D03*
G04 #@! TO.N,REFFET2_D3*
X115722400Y-69730620D03*
G04 #@! TO.N,+BATT*
X118880000Y-87060000D03*
G04 #@! TO.N,VCC*
X110441740Y-73314560D03*
X114000000Y-84500000D03*
X113500000Y-84500000D03*
X104561882Y-73658423D03*
X110235674Y-70413686D03*
X107233867Y-69804427D03*
G04 #@! TO.N,GNDD*
X111191409Y-68018708D03*
X108049826Y-68118601D03*
X103211246Y-70055975D03*
X100868864Y-72151868D03*
X98735320Y-75748200D03*
X97960462Y-79857363D03*
X97993844Y-80907221D03*
X98118601Y-81950174D03*
X98637750Y-83983730D03*
X98333782Y-82978285D03*
X99028192Y-84958856D03*
X99502136Y-85896242D03*
X100055975Y-86788754D03*
X100685494Y-87629600D03*
X101385902Y-88412380D03*
X102151868Y-89131136D03*
X102977563Y-89780399D03*
X103856703Y-90355227D03*
X105748200Y-91264680D03*
X106746161Y-91592383D03*
X107768886Y-91831861D03*
X108808591Y-91981292D03*
X109857363Y-92039538D03*
X110907221Y-92006156D03*
X112978285Y-91666218D03*
X111950174Y-91881399D03*
X113983730Y-91362250D03*
X114958856Y-90971808D03*
X115896242Y-90497864D03*
X116788754Y-89944025D03*
X117629600Y-89314506D03*
X119131136Y-87848132D03*
X118412380Y-88614098D03*
X102370400Y-70685494D03*
X101587620Y-71385902D03*
X99644773Y-73856703D03*
X100219601Y-72977563D03*
X104103758Y-69502136D03*
X105041144Y-69028192D03*
X113253839Y-68407617D03*
X112231114Y-68168139D03*
X121831861Y-82231114D03*
X122006156Y-79092779D03*
X121666218Y-77021715D03*
X114251800Y-68735320D03*
X109618780Y-90373200D03*
X107962700Y-89141300D03*
X111200000Y-75500000D03*
X115200000Y-75900000D03*
X116200000Y-75900000D03*
X116200000Y-76600000D03*
X115200000Y-76600000D03*
X119684800Y-81831180D03*
X115887500Y-81470500D03*
X113217960Y-88879680D03*
X104000371Y-76496404D03*
X103858060Y-77965300D03*
X102087680Y-75669140D03*
X102118160Y-74447400D03*
X116200000Y-75150000D03*
X105940860Y-88315800D03*
X108559600Y-87660480D03*
X110990380Y-86088220D03*
X112194340Y-86083140D03*
X112201960Y-88679020D03*
X99500000Y-79900000D03*
X102323900Y-80063340D03*
X102334060Y-80556100D03*
X102313740Y-81061560D03*
X101818440Y-81282540D03*
X101536500Y-81754980D03*
X101546660Y-82288380D03*
X102085140Y-82303620D03*
X102367080Y-84117180D03*
X102867460Y-84373720D03*
X102862380Y-83891120D03*
X103962200Y-83987640D03*
X104094280Y-82824320D03*
X102316280Y-85552280D03*
X101671120Y-85570060D03*
X102130860Y-87906860D03*
X101358700Y-87226140D03*
X100990400Y-86509860D03*
X100284280Y-85570060D03*
X100893880Y-83957160D03*
X98806000Y-82242660D03*
X98958400Y-82725260D03*
X99128580Y-83182460D03*
X99334320Y-83637120D03*
X99794060Y-84582000D03*
X100037900Y-85041740D03*
X99552760Y-84107020D03*
X102885240Y-88633300D03*
X103446580Y-89016840D03*
X104477820Y-87365840D03*
X106888280Y-90624660D03*
X106217720Y-90454480D03*
X109575600Y-88254840D03*
X112295940Y-90441780D03*
X115768120Y-87320120D03*
X115958620Y-89174320D03*
X116941600Y-86354920D03*
X116390420Y-84762340D03*
X121264680Y-84251800D03*
X109857540Y-83085940D03*
X110802420Y-83118960D03*
X115369340Y-84185760D03*
X103751927Y-80342193D03*
X106608880Y-77952600D03*
X105801472Y-74303453D03*
X110903810Y-70812200D03*
X98524903Y-81858277D03*
X99120750Y-81368900D03*
X99120750Y-80660240D03*
X100995480Y-79738220D03*
X101285040Y-81234280D03*
X109265720Y-77343000D03*
X103179880Y-71587360D03*
X109565440Y-68955920D03*
X105795933Y-76377653D03*
X107303275Y-77032680D03*
X103959660Y-71447660D03*
X118840000Y-85570000D03*
X113297194Y-73372047D03*
X112490000Y-75490000D03*
X112500000Y-74810000D03*
X117100000Y-70326990D03*
X121200000Y-75540000D03*
G04 #@! TO.N,ISFET2_SHNT*
X112351820Y-70639940D03*
X111490760Y-68894960D03*
G04 #@! TO.N,ADC_IN7*
X113964720Y-77993240D03*
X109322460Y-71757008D03*
G04 #@! TO.N,+5VA*
X119037100Y-81026000D03*
X114439700Y-77271880D03*
X116238020Y-72783700D03*
X114741960Y-89512140D03*
X114190780Y-90210640D03*
X103582682Y-76157315D03*
X102595680Y-76824840D03*
X106931460Y-77472540D03*
X111229464Y-73680000D03*
G04 #@! TO.N,ADC_IN6*
X117898297Y-77952630D03*
X108767344Y-71794492D03*
G04 #@! TO.N,TAG_EN*
X110210988Y-74686160D03*
X117751860Y-83875880D03*
G04 #@! TO.N,ISFET1_S*
X113647220Y-76166980D03*
X117387570Y-74407792D03*
X118940974Y-78645665D03*
G04 #@! TO.N,ISFET2_S*
X111764651Y-73164584D03*
X113650000Y-70690000D03*
X118695270Y-72164730D03*
G04 #@! TO.N,ISFET1_SHNT*
X118762780Y-76842620D03*
X119624050Y-75559920D03*
G04 #@! TO.N,ADC_IN3*
X112552480Y-71605140D03*
X107375374Y-70802122D03*
G04 #@! TO.N,ADC_IN0*
X117218460Y-73185020D03*
X106679609Y-71067885D03*
G04 #@! TO.N,ADC_IN2*
X121119900Y-78640940D03*
X107635976Y-71272806D03*
G04 #@! TO.N,Net-(C27-Pad2)*
X113667132Y-75629347D03*
X118435120Y-77917040D03*
X116859122Y-74508734D03*
G04 #@! TO.N,ANT_SW*
X100652580Y-79263240D03*
X104965044Y-72982248D03*
G04 #@! TO.N,Net-(C16-Pad1)*
X111640620Y-88745060D03*
X105656380Y-88907620D03*
G04 #@! TO.N,RF_BUSY*
X109253959Y-74951592D03*
X107579160Y-82981800D03*
G04 #@! TO.N,RF_RST*
X108696641Y-74967566D03*
X107041149Y-82981431D03*
G04 #@! TO.N,RF_MISO*
X106357418Y-82885280D03*
X106520659Y-75934866D03*
G04 #@! TO.N,RF_MOSI*
X105587800Y-82961480D03*
X105879566Y-74835767D03*
G04 #@! TO.N,RF_SCK*
X104894380Y-83665060D03*
X106173568Y-75523789D03*
G04 #@! TO.N,RF_CS*
X106933420Y-75563927D03*
X107035194Y-82443452D03*
G04 #@! TO.N,AFE_EN*
X109645515Y-74575863D03*
X114589560Y-87477600D03*
G04 #@! TO.N,SWCLK*
X107468048Y-75503678D03*
X108148120Y-69146420D03*
G04 #@! TO.N,SWDIO*
X110144560Y-69377560D03*
X107683586Y-76652128D03*
G04 #@! TO.N,DAC_OUT1*
X118389252Y-73949708D03*
X110535550Y-76772430D03*
X108443201Y-71365088D03*
G04 #@! TO.N,DAC_OUT2*
X101716840Y-72890380D03*
X108090385Y-70958915D03*
G04 #@! TO.N,ELEC2*
X102168960Y-78399640D03*
G04 #@! TO.N,ELEC_SNS1*
X100561383Y-77112080D03*
X102138480Y-77472540D03*
X105029002Y-81287620D03*
G04 #@! TO.N,Net-(R3-Pad2)*
X111339673Y-72310327D03*
X110553494Y-76234527D03*
G04 #@! TO.N,Net-(R16-Pad2)*
X116928900Y-77109320D03*
X116126260Y-74549000D03*
G04 #@! TO.N,O2_ELEC2*
X100606860Y-77840840D03*
G04 #@! TO.N,ADC_IN12*
X113502440Y-68983860D03*
X106301027Y-71450158D03*
G04 #@! TO.N,MUX4IN0*
X100716589Y-75406689D03*
X105097580Y-73708260D03*
G04 #@! TO.N,MUX4IN1*
X101498400Y-75580240D03*
X105141352Y-74244478D03*
G04 #@! TO.N,MUX3IN1*
X106064661Y-78110980D03*
X108077791Y-76277791D03*
G04 #@! TO.N,MUX3IN0*
X105383186Y-77646380D03*
X105919202Y-72508178D03*
G04 #@! TO.N,MUX3EN*
X109237513Y-74223404D03*
X105338660Y-78211680D03*
G04 #@! TO.N,MUX2IN0*
X109931495Y-72413857D03*
X114468444Y-71563141D03*
G04 #@! TO.N,MUX2IN1*
X109830370Y-72942279D03*
X115474167Y-71852502D03*
G04 #@! TO.N,MUX1IN1*
X110212037Y-74131200D03*
X120222795Y-81828349D03*
G04 #@! TO.N,MUX1IN0*
X109956432Y-73657291D03*
X120109851Y-80565186D03*
G04 #@! TD*
D12*
G04 #@! TO.N,ISFET2_D1*
X115303082Y-71475818D02*
X114907296Y-71871604D01*
X114907296Y-71871604D02*
X114907296Y-71924188D01*
X118689120Y-72671940D02*
X117858540Y-71841360D01*
X117858540Y-71841360D02*
X115976400Y-71841360D01*
X115610858Y-71475818D02*
X115303082Y-71475818D01*
X115976400Y-71841360D02*
X115610858Y-71475818D01*
X119354600Y-72671940D02*
X118689120Y-72671940D01*
G04 #@! TO.N,ISFET2_D2*
X116023779Y-72412860D02*
X117631666Y-72412860D01*
X117631666Y-72412860D02*
X120175071Y-74956265D01*
X121507041Y-78202581D02*
X121732040Y-78427580D01*
X120175071Y-76870611D02*
X121507041Y-78202581D01*
X120175071Y-74956265D02*
X120175071Y-76870611D01*
X115123642Y-73312997D02*
X116023779Y-72412860D01*
G04 #@! TO.N,ISFET2_D3*
X120736360Y-75993562D02*
X120736360Y-76311760D01*
X120736360Y-75251668D02*
X120736360Y-75993562D01*
X114601010Y-73303110D02*
X114975640Y-72928480D01*
X114601010Y-73440669D02*
X114601010Y-73303110D01*
X115943380Y-72222360D02*
X117707052Y-72222360D01*
X114975640Y-72928480D02*
X115237260Y-72928480D01*
X117707052Y-72222360D02*
X120736360Y-75251668D01*
X115237260Y-72928480D02*
X115943380Y-72222360D01*
G04 #@! TO.N,ISFET2_D4*
X119957641Y-73821081D02*
X120182640Y-74046080D01*
X114234581Y-73291079D02*
X114787680Y-72737980D01*
X119571659Y-73821081D02*
X119957641Y-73821081D01*
X114787680Y-72737980D02*
X115158520Y-72737980D01*
X115599632Y-72296868D02*
X115599632Y-72291788D01*
X114234581Y-73752061D02*
X114234581Y-73291079D01*
X115158520Y-72737980D02*
X115599632Y-72296868D01*
X114459580Y-73977060D02*
X114234581Y-73752061D01*
X115599632Y-72291788D02*
X115859560Y-72031860D01*
X115859560Y-72031860D02*
X117782438Y-72031860D01*
X117782438Y-72031860D02*
X119571659Y-73821081D01*
G04 #@! TO.N,ISFET2_SHNT*
X112369600Y-69773800D02*
X111715759Y-69119959D01*
X111715759Y-69119959D02*
X111490760Y-68894960D01*
X112369600Y-70634860D02*
X112369600Y-69773800D01*
G04 #@! TO.N,ADC_IN7*
X109435951Y-71859191D02*
X109326680Y-71749920D01*
X109322460Y-71757008D02*
X109397268Y-71757008D01*
X109496960Y-71856700D02*
X109781440Y-71856700D01*
X109397268Y-71757008D02*
X109496960Y-71856700D01*
X109781440Y-71856700D02*
X110236100Y-71856700D01*
X110236100Y-71856700D02*
X110319820Y-71940420D01*
X111507008Y-71940420D02*
X111513914Y-71947326D01*
X110319820Y-71940420D02*
X111507008Y-71940420D01*
X111513914Y-71947326D02*
X111780479Y-72213891D01*
X111780479Y-72214899D02*
X111777780Y-72212200D01*
X113964720Y-77993240D02*
X113739721Y-77768241D01*
X113739721Y-77768241D02*
X113724482Y-77768241D01*
X111780479Y-72214899D02*
X111780479Y-72520479D01*
X111780479Y-72520479D02*
X112150000Y-72890000D01*
X112150000Y-72890000D02*
X112150000Y-73820000D01*
X112164114Y-73820000D02*
X112520000Y-74175886D01*
X112150000Y-73820000D02*
X112164114Y-73820000D01*
X112520000Y-74175886D02*
X112921990Y-74577876D01*
X112921990Y-74577876D02*
X112921990Y-76971990D01*
X112921990Y-76971990D02*
X113720000Y-77770000D01*
G04 #@! TO.N,ADC_IN6*
X111968489Y-72176849D02*
X111965740Y-72174100D01*
X114082862Y-77574140D02*
X113796266Y-77574140D01*
X117898297Y-77952630D02*
X114461352Y-77952630D01*
X114461352Y-77952630D02*
X114082862Y-77574140D01*
X113110000Y-76887873D02*
X113801063Y-77578936D01*
X113110000Y-74500000D02*
X113110000Y-76887873D01*
X112520000Y-73905886D02*
X112520000Y-73910000D01*
X112520000Y-73910000D02*
X113110000Y-74500000D01*
X109156813Y-71394007D02*
X109496701Y-71394007D01*
X109771385Y-71668691D02*
X110313977Y-71668691D01*
X111968488Y-72136014D02*
X111968488Y-72438488D01*
X108767880Y-71782940D02*
X109156813Y-71394007D01*
X112350000Y-73735886D02*
X112520000Y-73905886D01*
X110313977Y-71668691D02*
X110395206Y-71749920D01*
X110395206Y-71749920D02*
X111582394Y-71749920D01*
X111968488Y-72438488D02*
X112350000Y-72820000D01*
X109496701Y-71394007D02*
X109771385Y-71668691D01*
X111582394Y-71749920D02*
X111968488Y-72136014D01*
X112350000Y-72820000D02*
X112350000Y-73735886D01*
G04 #@! TO.N,TAG_EN*
X109626451Y-75588895D02*
X109626451Y-76920598D01*
X110210988Y-74686160D02*
X110210988Y-75004358D01*
X110210988Y-75004358D02*
X109626451Y-75588895D01*
X109626451Y-76920598D02*
X110249562Y-77543709D01*
X110249562Y-77543709D02*
X112459364Y-77543709D01*
X112459364Y-77543709D02*
X114777571Y-79861916D01*
X114777571Y-79861916D02*
X114777571Y-80901591D01*
X114777571Y-80901591D02*
X117526861Y-83650881D01*
X117526861Y-83650881D02*
X117751860Y-83875880D01*
G04 #@! TO.N,ISFET1_S*
X115849400Y-73967340D02*
X116916200Y-73967340D01*
X115836700Y-73980040D02*
X115849400Y-73967340D01*
D13*
X116942038Y-73962260D02*
X116916200Y-73962260D01*
X117387570Y-74407792D02*
X116942038Y-73962260D01*
D12*
X117390000Y-76180000D02*
X117390000Y-74390000D01*
X118940974Y-78645665D02*
X118940974Y-77730974D01*
X118940974Y-77730974D02*
X117390000Y-76180000D01*
X113647220Y-76166980D02*
X113298011Y-75817771D01*
X114851078Y-74965662D02*
X115851940Y-73964800D01*
X113298011Y-75817771D02*
X113298011Y-75484949D01*
X113817298Y-74965662D02*
X114851078Y-74965662D01*
X113298011Y-75484949D02*
X113817298Y-74965662D01*
G04 #@! TO.N,ISFET2_S*
X113650000Y-70690000D02*
X117300616Y-70690000D01*
X117790000Y-71179384D02*
X117790000Y-71500000D01*
X118470271Y-71939731D02*
X118695270Y-72164730D01*
X117300616Y-70690000D02*
X117790000Y-71179384D01*
X118229731Y-71939731D02*
X118470271Y-71939731D01*
X117790000Y-71500000D02*
X118229731Y-71939731D01*
G04 #@! TO.N,ISFET1_SHNT*
X118775000Y-76408970D02*
X119399051Y-75784919D01*
X118775000Y-76850000D02*
X118775000Y-76408970D01*
X119399051Y-75784919D02*
X119624050Y-75559920D01*
G04 #@! TO.N,ADC_IN3*
X112122541Y-71175201D02*
X110618143Y-71175201D01*
X112552480Y-71605140D02*
X112122541Y-71175201D01*
X110618143Y-71175201D02*
X110514682Y-71071740D01*
X110514682Y-71071740D02*
X109972093Y-71071740D01*
X109319196Y-70418843D02*
X107754002Y-70418843D01*
X109972093Y-71071740D02*
X109319196Y-70418843D01*
X107754002Y-70418843D02*
X107441465Y-70731380D01*
X107441465Y-70731380D02*
X107383580Y-70731380D01*
G04 #@! TO.N,ADC_IN0*
X114579821Y-74394060D02*
X113805834Y-74394060D01*
X117218460Y-73185020D02*
X115788861Y-73185020D01*
X111601937Y-70982840D02*
X110641817Y-70022720D01*
X110641817Y-70022720D02*
X107884239Y-70022720D01*
X112918011Y-71433429D02*
X112665542Y-71180960D01*
X112394186Y-71180960D02*
X112196066Y-70982840D01*
X107140556Y-70439112D02*
X106669840Y-70909828D01*
X115788861Y-73185020D02*
X114579821Y-74394060D01*
X112918011Y-73506238D02*
X112918011Y-71433429D01*
X107884239Y-70022720D02*
X107467847Y-70439112D01*
X112665542Y-71180960D02*
X112394186Y-71180960D01*
X106669840Y-70909828D02*
X106669840Y-71064120D01*
X107467847Y-70439112D02*
X107140556Y-70439112D01*
X112196066Y-70982840D02*
X111601937Y-70982840D01*
X113805834Y-74394060D02*
X112918011Y-73506238D01*
D13*
G04 #@! TO.N,ADC_IN2*
X108256854Y-70601354D02*
X107838726Y-70601354D01*
X107732875Y-71175907D02*
X107635976Y-71272806D01*
X107732875Y-70707205D02*
X107732875Y-71175907D01*
X107838726Y-70601354D02*
X107732875Y-70707205D01*
D12*
X110543436Y-71366380D02*
X110469728Y-71292672D01*
X112351820Y-72257920D02*
X112351820Y-71987574D01*
X110469728Y-71292672D02*
X109936231Y-71292671D01*
X109931200Y-71287640D02*
X109922107Y-71287640D01*
X111730626Y-71366380D02*
X110543436Y-71366380D01*
X109936231Y-71292671D02*
X109931200Y-71287640D01*
X112351820Y-71987574D02*
X111730626Y-71366380D01*
X109922107Y-71287640D02*
X109241387Y-70606920D01*
X109241387Y-70606920D02*
X108249720Y-70606920D01*
X120894901Y-78415941D02*
X121119900Y-78640940D01*
X119987060Y-77508100D02*
X120894901Y-78415941D01*
X115694510Y-73581210D02*
X118534129Y-73581210D01*
X114686080Y-74589640D02*
X115694510Y-73581210D01*
X112730000Y-73584114D02*
X113735526Y-74589640D01*
X113735526Y-74589640D02*
X114686080Y-74589640D01*
X112730000Y-72636052D02*
X112730000Y-73584114D01*
X112351869Y-72257921D02*
X112730000Y-72636052D01*
X118534129Y-73581210D02*
X119987060Y-75034141D01*
X119987060Y-75034141D02*
X119987060Y-77508100D01*
G04 #@! TO.N,Net-(C27-Pad2)*
X118435120Y-77917040D02*
X117121940Y-76603860D01*
X117121940Y-76603860D02*
X117121940Y-74771552D01*
X117084121Y-74733733D02*
X116859122Y-74508734D01*
X117121940Y-74771552D02*
X117084121Y-74733733D01*
X116507311Y-74155351D02*
X116865400Y-74513440D01*
X113667132Y-75629347D02*
X114453279Y-75629347D01*
X115927275Y-74155351D02*
X116507311Y-74155351D01*
X114453279Y-75629347D02*
X115927275Y-74155351D01*
G04 #@! TO.N,ANT_SW*
X104646846Y-72982248D02*
X104965044Y-72982248D01*
X103590634Y-74038460D02*
X104646846Y-72982248D01*
X101516180Y-74038460D02*
X103590634Y-74038460D01*
X100662740Y-79273400D02*
X100169980Y-78780640D01*
X100169980Y-75384660D02*
X101516180Y-74038460D01*
X100169980Y-78780640D02*
X100169980Y-75384660D01*
D14*
G04 #@! TO.N,Net-(C16-Pad1)*
X107585138Y-88907620D02*
X107773098Y-88719660D01*
X105656380Y-88907620D02*
X107585138Y-88907620D01*
X107773098Y-88719660D02*
X111625380Y-88719660D01*
D12*
G04 #@! TO.N,RF_BUSY*
X107500420Y-82786220D02*
X107500420Y-82981800D01*
X108648500Y-75557051D02*
X108648500Y-81638140D01*
X108648500Y-81638140D02*
X107500420Y-82786220D01*
X107500420Y-82981800D02*
X107579160Y-82981800D01*
X109253959Y-74951592D02*
X108648500Y-75557051D01*
G04 #@! TO.N,RF_RST*
X107266148Y-82754606D02*
X107266148Y-82756432D01*
X108460489Y-75191671D02*
X108460489Y-81560265D01*
X107266148Y-82756432D02*
X107041149Y-82981431D01*
X108460489Y-81560265D02*
X107266148Y-82754606D01*
X108694220Y-74957940D02*
X108460489Y-75191671D01*
G04 #@! TO.N,RF_MISO*
X106514900Y-76067920D02*
X106520659Y-76062161D01*
X106520659Y-76062161D02*
X106520659Y-75934866D01*
X106357418Y-82885280D02*
X105961230Y-82489092D01*
X105961229Y-79908450D02*
X104787649Y-78734870D01*
X105961230Y-82489092D02*
X105961229Y-79908450D01*
X104787649Y-78734870D02*
X104787649Y-77456566D01*
X105313876Y-76930339D02*
X105756621Y-76930339D01*
X104787649Y-77456566D02*
X105313876Y-76930339D01*
X105756621Y-76930339D02*
X106542840Y-76144120D01*
X106542840Y-76144120D02*
X106542840Y-75984100D01*
G04 #@! TO.N,RF_MOSI*
X104221229Y-76862991D02*
X105806240Y-75277980D01*
X105587800Y-82643282D02*
X105585209Y-82640691D01*
X104221229Y-79289404D02*
X104221229Y-76862991D01*
X105585209Y-80653384D02*
X104221229Y-79289404D01*
X105585209Y-82640691D02*
X105585209Y-80653384D01*
X105587800Y-82961480D02*
X105587800Y-82643282D01*
X105879566Y-75153965D02*
X105879566Y-74835767D01*
X105803700Y-75277980D02*
X105879566Y-75202114D01*
X105879566Y-75202114D02*
X105879566Y-75153965D01*
G04 #@! TO.N,RF_SCK*
X105839260Y-75534520D02*
X106192320Y-75534520D01*
X104409240Y-76964540D02*
X105839260Y-75534520D01*
X104409240Y-79211528D02*
X104409240Y-76964540D01*
X105435400Y-83665060D02*
X105951020Y-83149440D01*
X104894380Y-83665060D02*
X105435400Y-83665060D01*
X105951020Y-83149440D02*
X105951020Y-82770980D01*
X105951020Y-82770980D02*
X105773220Y-82593180D01*
X105773220Y-82593180D02*
X105773220Y-80575508D01*
X105773220Y-80575508D02*
X104409240Y-79211528D01*
G04 #@! TO.N,RF_CS*
X106756200Y-82156300D02*
X106756200Y-82164458D01*
X106810195Y-82218453D02*
X107035194Y-82443452D01*
X106756200Y-82164458D02*
X106810195Y-82218453D01*
X106926380Y-75565000D02*
X106916220Y-75554840D01*
X105850550Y-77118350D02*
X106926380Y-76042520D01*
X105391752Y-77118350D02*
X105850550Y-77118350D01*
X104975660Y-77534442D02*
X105391752Y-77118350D01*
X106149240Y-81554420D02*
X106149240Y-79830574D01*
X106149240Y-79830574D02*
X104975660Y-78656994D01*
X106926380Y-76042520D02*
X106926380Y-75565000D01*
X106758740Y-82163920D02*
X106149240Y-81554420D01*
X104975660Y-78656994D02*
X104975660Y-77534442D01*
G04 #@! TO.N,AFE_EN*
X112381488Y-77733348D02*
X114589560Y-79941420D01*
X109645515Y-75303945D02*
X109438440Y-75511020D01*
X114589560Y-87378540D02*
X114589560Y-87477600D01*
X109645515Y-74575863D02*
X109645515Y-75303945D01*
X109438440Y-75511020D02*
X109438440Y-76998473D01*
X109438440Y-76998473D02*
X110171687Y-77731720D01*
X110171687Y-77731720D02*
X112381488Y-77731720D01*
X112381488Y-77731720D02*
X112381488Y-77733348D01*
X114589560Y-79941420D02*
X114589560Y-87378540D01*
G04 #@! TO.N,DAC_OUT1*
X112156497Y-72058137D02*
X111655240Y-71556880D01*
X109849261Y-71480680D02*
X109508670Y-71140089D01*
X109508670Y-71140089D02*
X108668200Y-71140089D01*
X111655240Y-71556880D02*
X110468052Y-71556880D01*
X110468052Y-71556880D02*
X110391853Y-71480681D01*
X112156497Y-72130920D02*
X112156497Y-72058137D01*
X110391853Y-71480681D02*
X109849261Y-71480680D01*
X108668200Y-71140089D02*
X108443201Y-71365088D01*
X110190484Y-75941629D02*
X110950010Y-75182104D01*
X110812580Y-73800354D02*
X110812580Y-72757700D01*
X108597571Y-72157493D02*
X108394500Y-71954422D01*
X110102082Y-72047202D02*
X109569508Y-72047202D01*
X109459217Y-72157493D02*
X108597571Y-72157493D01*
X110950010Y-75182104D02*
X110950010Y-73937784D01*
X110950010Y-73937784D02*
X110812580Y-73800354D01*
X110535550Y-76772430D02*
X110190484Y-76427364D01*
X110190484Y-76427364D02*
X110190484Y-75941629D01*
X109569508Y-72047202D02*
X109459217Y-72157493D01*
X108394500Y-71954422D02*
X108394500Y-71381620D01*
X110812580Y-72757700D02*
X110102082Y-72047202D01*
X112156498Y-72116498D02*
X112156498Y-72110000D01*
X112156499Y-72346499D02*
X112156498Y-72116498D01*
X112540000Y-72730000D02*
X112156499Y-72346499D01*
X118264941Y-73769221D02*
X115772386Y-73769221D01*
X112540000Y-73660000D02*
X112540000Y-72730000D01*
X115772386Y-73769221D02*
X114763956Y-74777651D01*
X114763956Y-74777651D02*
X113657651Y-74777651D01*
X118447820Y-73952100D02*
X118264941Y-73769221D01*
X113657651Y-74777651D02*
X112540000Y-73660000D01*
G04 #@! TO.N,DAC_OUT2*
X101737160Y-72870060D02*
X101737160Y-72864980D01*
X104627439Y-72782611D02*
X105586470Y-71823580D01*
X105586470Y-71823580D02*
X107600994Y-71823580D01*
X107600994Y-71823580D02*
X108074460Y-71350114D01*
X101716840Y-72890380D02*
X101737160Y-72870060D01*
X101819529Y-72782611D02*
X104627439Y-72782611D01*
X101737160Y-72864980D02*
X101819529Y-72782611D01*
X108074460Y-71010780D02*
X108097320Y-70987920D01*
X108074460Y-71350114D02*
X108074460Y-71010780D01*
G04 #@! TO.N,ELEC_SNS1*
X101820282Y-77472540D02*
X101459602Y-77111860D01*
X102138480Y-77472540D02*
X101820282Y-77472540D01*
X101459602Y-77111860D02*
X100561140Y-77111860D01*
X105072180Y-81338420D02*
X105158540Y-81252060D01*
X102138480Y-77472540D02*
X105021380Y-80355440D01*
X105021380Y-81287620D02*
X105072180Y-81338420D01*
X105021380Y-80355440D02*
X105021380Y-81287620D01*
G04 #@! TO.N,Net-(R3-Pad2)*
X110618967Y-76300000D02*
X111100000Y-76300000D01*
X111592469Y-73505763D02*
X111220000Y-73133294D01*
X111220000Y-72450000D02*
X111360000Y-72310000D01*
X111220000Y-73133294D02*
X111220000Y-72450000D01*
X110553494Y-76234527D02*
X110618967Y-76300000D01*
X111592469Y-75807531D02*
X111592469Y-73505763D01*
X111100000Y-76300000D02*
X111592469Y-75807531D01*
G04 #@! TO.N,Net-(R16-Pad2)*
X116928900Y-75351640D02*
X116351259Y-74773999D01*
X116928900Y-77109320D02*
X116928900Y-75351640D01*
X116351259Y-74773999D02*
X116126260Y-74549000D01*
G04 #@! TO.N,ADC_IN12*
X106301027Y-71131960D02*
X106301027Y-71450158D01*
X106301027Y-70909225D02*
X106301027Y-71131960D01*
X106959151Y-70251101D02*
X106301027Y-70909225D01*
X112378780Y-68978780D02*
X111878619Y-68478619D01*
X113522760Y-68978780D02*
X112378780Y-68978780D01*
X107380021Y-70251101D02*
X106959151Y-70251101D01*
X111878619Y-68478619D02*
X111391481Y-68478619D01*
X107846587Y-69784535D02*
X107380021Y-70251101D01*
X110632330Y-69532415D02*
X110380210Y-69784535D01*
X111391481Y-68478619D02*
X110632330Y-69237770D01*
X110380210Y-69784535D02*
X107846587Y-69784535D01*
X110632330Y-69237770D02*
X110632330Y-69532415D01*
G04 #@! TO.N,MUX4IN0*
X103995439Y-74810401D02*
X102292401Y-74810401D01*
X105097580Y-73708260D02*
X103995439Y-74810401D01*
X102292401Y-74810401D02*
X101313199Y-74810401D01*
X101313199Y-74810401D02*
X100716080Y-75407520D01*
G04 #@! TO.N,MUX4IN1*
X104602249Y-74469477D02*
X104073315Y-74998411D01*
X105141352Y-74244478D02*
X104916353Y-74469477D01*
X104916353Y-74469477D02*
X104602249Y-74469477D01*
X104073315Y-74998411D02*
X102082769Y-74998411D01*
X102082769Y-74998411D02*
X101490780Y-75590400D01*
G04 #@! TO.N,MUX3IN1*
X106064661Y-78110980D02*
X106064661Y-77869537D01*
X106064661Y-77869537D02*
X106251820Y-77682378D01*
X106251820Y-77682378D02*
X106251820Y-77559546D01*
X106251820Y-77559546D02*
X106262794Y-77559546D01*
X106262794Y-77559546D02*
X107569000Y-76253340D01*
X107569000Y-76253340D02*
X108038900Y-76253340D01*
G04 #@! TO.N,MUX3IN0*
X105608185Y-77421381D02*
X105383186Y-77646380D01*
X107379081Y-75866679D02*
X105824379Y-77421381D01*
X107642289Y-75866679D02*
X107379081Y-75866679D01*
X105824379Y-77421381D02*
X105608185Y-77421381D01*
X107831049Y-75677919D02*
X107642289Y-75866679D01*
X107831049Y-75677919D02*
X107831049Y-75301269D01*
X107831049Y-75301269D02*
X105918000Y-73388220D01*
X105918000Y-73388220D02*
X105918000Y-72504300D01*
G04 #@! TO.N,MUX3EN*
X105495579Y-78042281D02*
X105500659Y-78042281D01*
X105338660Y-78211680D02*
X105338660Y-78199200D01*
X105338660Y-78199200D02*
X105495579Y-78042281D01*
X107720166Y-76054688D02*
X108019059Y-75755795D01*
X105912920Y-77653888D02*
X105912920Y-77609700D01*
X105495579Y-78042281D02*
X105524527Y-78042281D01*
X108019059Y-75755795D02*
X108025905Y-75755795D01*
X105524527Y-78042281D02*
X105912920Y-77653888D01*
X105912920Y-77609700D02*
X107467932Y-76054688D01*
X107467932Y-76054688D02*
X107720166Y-76054688D01*
X108056680Y-75725020D02*
X108056680Y-75039220D01*
X108025905Y-75755795D02*
X108056680Y-75725020D01*
X108056680Y-75039220D02*
X108905040Y-74190860D01*
X108905040Y-74190860D02*
X109179360Y-74190860D01*
G04 #@! TO.N,MUX2IN1*
X109811820Y-73014840D02*
X109811820Y-72969120D01*
G04 #@! TO.N,MUX1IN1*
X109814462Y-75785878D02*
X110573988Y-75026352D01*
X109814462Y-76842723D02*
X109814462Y-75785878D01*
X117269764Y-78557120D02*
X113738659Y-78557120D01*
X110327437Y-77355698D02*
X109814462Y-76842723D01*
X110573988Y-75026352D02*
X110573988Y-74526308D01*
X112537240Y-77355698D02*
X110327437Y-77355698D01*
X113738659Y-78557120D02*
X112537240Y-77355698D01*
X120222795Y-81510151D02*
X117269764Y-78557120D01*
X120222795Y-81828349D02*
X120222795Y-81510151D01*
X110573988Y-74526308D02*
X110205520Y-74157840D01*
G04 #@! TO.N,MUX1IN0*
X110002473Y-76764847D02*
X110405313Y-77167687D01*
X119542250Y-80563720D02*
X120139460Y-80563720D01*
X113816535Y-78369109D02*
X117347640Y-78369109D01*
X109956432Y-73657291D02*
X110274630Y-73657291D01*
X110761999Y-75104228D02*
X110002473Y-75863754D01*
X110405313Y-77167687D02*
X112615116Y-77167687D01*
X110761999Y-74144660D02*
X110761999Y-75104228D01*
X110274630Y-73657291D02*
X110761999Y-74144660D01*
X112615116Y-77167687D02*
X112725251Y-77277822D01*
X110002473Y-75863754D02*
X110002473Y-76764847D01*
X112725251Y-77277822D02*
X113816535Y-78369109D01*
X117347640Y-78369109D02*
X119542250Y-80563720D01*
G04 #@! TD*
M02*
