M48
;DRILL file {KiCad 5.0.2-bee76a0~70~ubuntu18.04.1} date Mo 27 Mai 2019 21:37:24 CEST
;FORMAT={-:-/ absolute / inch / decimal}
FMAT,2
INCH,TZ
T1C0.0079
%
G90
G05
T1
X3.8567Y-3.144
X3.858Y-3.1853
X3.8629Y-3.2264
X3.8714Y-3.2669
X3.8789Y-3.2228
X3.8834Y-3.3064
X3.8872Y-2.9822
X3.89Y-3.2379
X3.896Y-3.2569
X3.8987Y-3.3448
X3.9024Y-3.1756
X3.9024Y-3.2035
X3.9027Y-3.2749
X3.9108Y-3.2928
X3.9173Y-3.1457
X3.9174Y-3.3817
X3.9194Y-3.3113
X3.923Y-2.9077
X3.9289Y-3.33
X3.9385Y-3.3481
X3.9392Y-3.4169
X3.9457Y-2.8731
X3.9482Y-3.3689
X3.9591Y-3.0359
X3.9609Y-3.0646
X3.9627Y-3.1206
X3.964Y-3.45
X3.9652Y-2.9688
X3.9712Y-2.8406
X3.9722Y-3.3054
X3.976Y-3.4059
X3.9762Y-3.1393
X3.9876Y-3.1982
X3.9905Y-3.4341
X3.9916Y-3.4808
X3.996Y-2.9756
X3.9975Y-3.2187
X3.9979Y-3.2397
X3.9995Y-2.8105
X4.0028Y-3.3689
X4.0046Y-2.8697
X4.0086Y-3.2001
X4.0191Y-3.2403
X4.0192Y-2.9791
X4.0204Y-2.931
X4.0209Y-3.4609
X4.0212Y-3.0501
X4.0217Y-3.5091
X4.0224Y-3.0866
X4.0281Y-3.1914
X4.0282Y-3.3682
X4.0285Y-3.1521
X4.0289Y-3.1715
X4.0302Y-3.3117
X4.0303Y-2.7829
X4.0392Y-3.0246
X4.0497Y-3.3028
X4.0499Y-3.3218
X4.0506Y-3.4895
X4.0542Y-3.5347
X4.0622Y-2.8184
X4.0634Y-2.7581
X4.0727Y-3.5046
X4.0781Y-2.9983
X4.0847Y-3.1631
X4.0888Y-3.5573
X4.0889Y-3.0695
X4.0929Y-2.8129
X4.093Y-3.3066
X4.0945Y-3.0117
X4.0982Y-3.2608
X4.0986Y-2.7363
X4.1133Y-3.4396
X4.1166Y-2.8999
X4.1297Y-3.2939
X4.1325Y-2.8733
X4.135Y-3.2003
X4.1355Y-2.7176
X4.1377Y-2.9019
X4.1394Y-2.923
X4.1472Y-3.0792
X4.1489Y-3.0569
X4.157Y-3.2662
X4.1597Y-3.5003
X4.1633Y-3.5931
X4.1652Y-3.007
X4.1654Y-2.9253
X4.1685Y-2.9463
X4.17Y-2.8547
X4.1709Y-3.477
X4.1758Y-3.0752
X4.1801Y-2.9734
X4.1818Y-3.5612
X4.1851Y-2.813
X4.1873Y-3.2632
X4.1937Y-2.9896
X4.1972Y-3.069
X4.2Y-2.7979
X4.2026Y-3.606
X4.2082Y-3.5679
X4.2099Y-3.0501
X4.21Y-2.975
X4.214Y-3.2458
X4.2142Y-3.267
X4.2218Y-2.7482
X4.2245Y-3.0328
X4.2274Y-2.7875
X4.231Y-2.9726
X4.2354Y-3.267
X4.2376Y-2.806
X4.2395Y-3.0178
X4.2429Y-3.6154
X4.2505Y-3.5095
X4.2539Y-2.6818
X4.255Y-3.0031
X4.2555Y-2.7937
X4.2578Y-2.7223
X4.2694Y-2.8096
X4.274Y-3.4512
X4.2794Y-2.9515
X4.2822Y-2.8266
X4.2838Y-3.6213
X4.3007Y-2.9222
X4.3013Y-2.9509
X4.3018Y-3.045
X4.304Y-2.8251
X4.3136Y-2.7148
X4.314Y-3.4746
X4.3157Y-3.558
X4.3168Y-2.9361
X4.324Y-2.8717
X4.3251Y-3.6236
X4.3251Y-3.2711
X4.328Y-2.8509
X4.329Y-2.8999
X4.3364Y-2.7314
X4.339Y-2.9404
X4.3391Y-2.9186
X4.34Y-2.7722
X4.3481Y-2.8864
X4.3518Y-3.0225
X4.3525Y-3.0014
X4.3623Y-3.2724
X4.3663Y-2.7879
X4.3664Y-3.6223
X4.3697Y-3.3893
X4.3776Y-2.6779
X4.378Y-2.9724
X4.3791Y-2.9008
X4.3835Y-2.8469
X4.3894Y-2.7124
X4.3953Y-3.4939
X4.4002Y-2.8805
X4.4075Y-3.6174
X4.4171Y-3.3891
X4.4174Y-3.4913
X4.4185Y-2.6838
X4.4211Y-3.5607
X4.4233Y-2.7811
X4.4287Y-2.972
X4.4291Y-2.9453
X4.4312Y-2.8191
X4.448Y-3.6089
X4.4574Y-3.4992
X4.4588Y-2.6932
X4.4605Y-2.8887
X4.4685Y-3.3268
X4.4686Y-2.7159
X4.4743Y-2.9987
X4.4744Y-2.7831
X4.4751Y-2.9775
X4.4868Y-3.0706
X4.4875Y-3.5969
X4.4882Y-3.3268
X4.4957Y-3.5516
X4.4981Y-2.7061
X4.5055Y-3.0422
X4.5063Y-2.9125
X4.5066Y-2.8174
X4.5114Y-3.444
X4.5119Y-2.8914
X4.5174Y-3.5241
X4.5208Y-2.7451
X4.5239Y-2.8317
X4.5259Y-3.5816
X4.5324Y-2.8863
X4.5354Y-2.9882
X4.5354Y-3.0157
X4.5421Y-3.3144
X4.5462Y-2.8288
X4.556Y-2.7453
X4.5578Y-3.4378
X4.5625Y-3.2075
X4.5628Y-3.5629
X4.5653Y-3.5108
X4.5719Y-2.935
X4.5748Y-2.9587
X4.5748Y-2.9882
X4.5748Y-3.0157
X4.5763Y-2.8655
X4.5823Y-3.3371
X4.598Y-3.5411
X4.6008Y-2.9334
X4.6035Y-3.0358
X4.604Y-3.3998
X4.6102Y-2.7688
X4.6149Y-2.8813
X4.6216Y-2.9294
X4.6229Y-2.8085
X4.6311Y-3.5163
X4.6359Y-3.3022
X4.6417Y-3.069
X4.6587Y-2.815
X4.661Y-2.9114
X4.6619Y-3.4887
X4.6628Y-3.0676
X4.673Y-2.8411
X4.6757Y-3.0253
X4.6787Y-3.3689
X4.6803Y-3.4276
X4.6827Y-3.0963
X4.6865Y-3.19
X4.6902Y-3.4586
X4.699Y-2.8611
X4.7096Y-2.9748
X4.712Y-3.2217
X4.7271Y-3.3591
X4.7287Y-3.1719
X4.7316Y-2.9152
X4.7332Y-3.2216
X4.7534Y-3.0044
X4.7685Y-3.0961
X4.7717Y-2.974
X4.7742Y-3.317
X4.79Y-3.0324
X4.7926Y-3.0877
X4.7965Y-3.2374
X4.8034Y-3.1139
X4.1555Y-3.3287
X4.1555Y-3.3701
X4.1555Y-3.4114
X4.1969Y-3.3287
X4.1969Y-3.3701
X4.1969Y-3.4114
X4.2382Y-3.3287
X4.2382Y-3.3701
X4.2382Y-3.4114
T0
M30
