G04 #@! TF.GenerationSoftware,KiCad,Pcbnew,5.0.2-bee76a0~70~ubuntu18.04.1*
G04 #@! TF.CreationDate,2019-05-27T21:37:22+02:00*
G04 #@! TF.ProjectId,mainboard,6d61696e-626f-4617-9264-2e6b69636164,rev?*
G04 #@! TF.SameCoordinates,Original*
G04 #@! TF.FileFunction,Legend,Top*
G04 #@! TF.FilePolarity,Positive*
%FSLAX46Y46*%
G04 Gerber Fmt 4.6, Leading zero omitted, Abs format (unit mm)*
G04 Created by KiCad (PCBNEW 5.0.2-bee76a0~70~ubuntu18.04.1) date Mo 27 Mai 2019 21:37:22 CEST*
%MOMM*%
%LPD*%
G01*
G04 APERTURE LIST*
%ADD10C,0.100000*%
%ADD11C,0.125000*%
%ADD12C,0.112500*%
%ADD13C,0.120000*%
%ADD14C,0.010000*%
%ADD15C,0.127000*%
%ADD16C,0.200000*%
G04 APERTURE END LIST*
D10*
X99497576Y-73910883D02*
X99442018Y-73922668D01*
X99391510Y-73973176D01*
X99362889Y-74045570D01*
X99372991Y-74123015D01*
X99399928Y-74183625D01*
X99470639Y-74288007D01*
X99536299Y-74353667D01*
X99640681Y-74424378D01*
X99701290Y-74451315D01*
X99778735Y-74461416D01*
X99851130Y-74432795D01*
X99884801Y-74399124D01*
X99913422Y-74326729D01*
X99908372Y-74288007D01*
X99755165Y-74134800D01*
X99687822Y-74202144D01*
X100103668Y-74180257D02*
X99644048Y-73720638D01*
X100305698Y-73978227D01*
X99846079Y-73518607D01*
X100474057Y-73809868D02*
X100014438Y-73350249D01*
X100098617Y-73266069D01*
X100171011Y-73237448D01*
X100248456Y-73247550D01*
X100309065Y-73274487D01*
X100413448Y-73345198D01*
X100479108Y-73410858D01*
X100549818Y-73515240D01*
X100576756Y-73575849D01*
X100586857Y-73653294D01*
X100558236Y-73725689D01*
X100474057Y-73809868D01*
X100586857Y-72777829D02*
X101164328Y-73119597D01*
X100822560Y-72542127D01*
X101277128Y-72525291D02*
X101349523Y-72496670D01*
X101388245Y-72501721D01*
X101448854Y-72528658D01*
X101514514Y-72594318D01*
X101541452Y-72654927D01*
X101546502Y-72693650D01*
X101534717Y-72749208D01*
X101400030Y-72883895D01*
X100940411Y-72424276D01*
X101058262Y-72306424D01*
X101113820Y-72294639D01*
X101152543Y-72299690D01*
X101213152Y-72326627D01*
X101256925Y-72370401D01*
X101283863Y-72431010D01*
X101288913Y-72469732D01*
X101277128Y-72525291D01*
X101159277Y-72643142D01*
X101605428Y-72415858D02*
X101773787Y-72247499D01*
X101703076Y-72580849D02*
X101361308Y-72003379D01*
X101938778Y-72345147D01*
X101546502Y-71818184D02*
X101748533Y-71616153D01*
X102107137Y-72176788D02*
X101647518Y-71717169D01*
X102753635Y-71442744D02*
X102758685Y-71481466D01*
X102730064Y-71553861D01*
X102696393Y-71587532D01*
X102623998Y-71616153D01*
X102546553Y-71606052D01*
X102485944Y-71579115D01*
X102381562Y-71508404D01*
X102315902Y-71442744D01*
X102245191Y-71338362D01*
X102218254Y-71277752D01*
X102208152Y-71200307D01*
X102236773Y-71127913D01*
X102270445Y-71094241D01*
X102342839Y-71065620D01*
X102381562Y-71070671D01*
X103117290Y-71166636D02*
X102948931Y-71334994D01*
X102489311Y-70875375D01*
X103235141Y-71048784D02*
X102775521Y-70589165D01*
X103437171Y-70846754D02*
X103023009Y-70735637D01*
X102977552Y-70387135D02*
X103038161Y-70851805D01*
X103858068Y-70425857D02*
X103398449Y-69966238D01*
X103482628Y-69882058D01*
X103555022Y-69853437D01*
X103632467Y-69863539D01*
X103693076Y-69890476D01*
X103797459Y-69961187D01*
X103863119Y-70026847D01*
X103933830Y-70131229D01*
X103960767Y-70191838D01*
X103970868Y-70269283D01*
X103942247Y-70341678D01*
X103858068Y-70425857D01*
X104211621Y-70072304D02*
X103752002Y-69612684D01*
X103987704Y-69376982D02*
X104055048Y-69309638D01*
X104110606Y-69297853D01*
X104188051Y-69307955D01*
X104292434Y-69378666D01*
X104445640Y-69531872D01*
X104516351Y-69636254D01*
X104526452Y-69713700D01*
X104514667Y-69769258D01*
X104447324Y-69836601D01*
X104391765Y-69848387D01*
X104314320Y-69838285D01*
X104209938Y-69767574D01*
X104056731Y-69614368D01*
X103986021Y-69509985D01*
X103975919Y-69432540D01*
X103987704Y-69376982D01*
D11*
X106233333Y-82623809D02*
X106333333Y-82661904D01*
X106500000Y-82661904D01*
X106566666Y-82623809D01*
X106600000Y-82585714D01*
X106633333Y-82509523D01*
X106633333Y-82433333D01*
X106600000Y-82357142D01*
X106566666Y-82319047D01*
X106500000Y-82280952D01*
X106366666Y-82242857D01*
X106300000Y-82204761D01*
X106266666Y-82166666D01*
X106233333Y-82090476D01*
X106233333Y-82014285D01*
X106266666Y-81938095D01*
X106300000Y-81900000D01*
X106366666Y-81861904D01*
X106533333Y-81861904D01*
X106633333Y-81900000D01*
X107200000Y-82623809D02*
X107133333Y-82661904D01*
X107000000Y-82661904D01*
X106933333Y-82623809D01*
X106900000Y-82547619D01*
X106900000Y-82242857D01*
X106933333Y-82166666D01*
X107000000Y-82128571D01*
X107133333Y-82128571D01*
X107200000Y-82166666D01*
X107233333Y-82242857D01*
X107233333Y-82319047D01*
X106900000Y-82395238D01*
X107533333Y-82128571D02*
X107533333Y-82661904D01*
X107533333Y-82204761D02*
X107566666Y-82166666D01*
X107633333Y-82128571D01*
X107733333Y-82128571D01*
X107800000Y-82166666D01*
X107833333Y-82242857D01*
X107833333Y-82661904D01*
X108133333Y-82623809D02*
X108200000Y-82661904D01*
X108333333Y-82661904D01*
X108400000Y-82623809D01*
X108433333Y-82547619D01*
X108433333Y-82509523D01*
X108400000Y-82433333D01*
X108333333Y-82395238D01*
X108233333Y-82395238D01*
X108166666Y-82357142D01*
X108133333Y-82280952D01*
X108133333Y-82242857D01*
X108166666Y-82166666D01*
X108233333Y-82128571D01*
X108333333Y-82128571D01*
X108400000Y-82166666D01*
X108833333Y-82661904D02*
X108766666Y-82623809D01*
X108733333Y-82585714D01*
X108700000Y-82509523D01*
X108700000Y-82280952D01*
X108733333Y-82204761D01*
X108766666Y-82166666D01*
X108833333Y-82128571D01*
X108933333Y-82128571D01*
X109000000Y-82166666D01*
X109033333Y-82204761D01*
X109066666Y-82280952D01*
X109066666Y-82509523D01*
X109033333Y-82585714D01*
X109000000Y-82623809D01*
X108933333Y-82661904D01*
X108833333Y-82661904D01*
X109366666Y-82661904D02*
X109366666Y-82128571D01*
X109366666Y-82280952D02*
X109400000Y-82204761D01*
X109433333Y-82166666D01*
X109500000Y-82128571D01*
X109566666Y-82128571D01*
X110333333Y-82661904D02*
X110333333Y-81861904D01*
X110666666Y-82661904D02*
X110666666Y-82128571D01*
X110666666Y-82204761D02*
X110700000Y-82166666D01*
X110766666Y-82128571D01*
X110866666Y-82128571D01*
X110933333Y-82166666D01*
X110966666Y-82242857D01*
X110966666Y-82661904D01*
X110966666Y-82242857D02*
X111000000Y-82166666D01*
X111066666Y-82128571D01*
X111166666Y-82128571D01*
X111233333Y-82166666D01*
X111266666Y-82242857D01*
X111266666Y-82661904D01*
X111600000Y-82128571D02*
X111600000Y-82928571D01*
X111600000Y-82166666D02*
X111666666Y-82128571D01*
X111800000Y-82128571D01*
X111866666Y-82166666D01*
X111900000Y-82204761D01*
X111933333Y-82280952D01*
X111933333Y-82509523D01*
X111900000Y-82585714D01*
X111866666Y-82623809D01*
X111800000Y-82661904D01*
X111666666Y-82661904D01*
X111600000Y-82623809D01*
X112333333Y-82661904D02*
X112266666Y-82623809D01*
X112233333Y-82547619D01*
X112233333Y-81861904D01*
X112900000Y-82661904D02*
X112900000Y-82242857D01*
X112866666Y-82166666D01*
X112800000Y-82128571D01*
X112666666Y-82128571D01*
X112600000Y-82166666D01*
X112900000Y-82623809D02*
X112833333Y-82661904D01*
X112666666Y-82661904D01*
X112600000Y-82623809D01*
X112566666Y-82547619D01*
X112566666Y-82471428D01*
X112600000Y-82395238D01*
X112666666Y-82357142D01*
X112833333Y-82357142D01*
X112900000Y-82319047D01*
X113233333Y-82128571D02*
X113233333Y-82661904D01*
X113233333Y-82204761D02*
X113266666Y-82166666D01*
X113333333Y-82128571D01*
X113433333Y-82128571D01*
X113500000Y-82166666D01*
X113533333Y-82242857D01*
X113533333Y-82661904D01*
X113766666Y-82128571D02*
X114033333Y-82128571D01*
X113866666Y-81861904D02*
X113866666Y-82547619D01*
X113900000Y-82623809D01*
X113966666Y-82661904D01*
X114033333Y-82661904D01*
D12*
X112025000Y-84101904D02*
X112025000Y-83301904D01*
X112425000Y-84101904D01*
X112425000Y-83301904D01*
X112758333Y-84101904D02*
X112758333Y-83568571D01*
X112758333Y-83301904D02*
X112725000Y-83340000D01*
X112758333Y-83378095D01*
X112791666Y-83340000D01*
X112758333Y-83301904D01*
X112758333Y-83378095D01*
X113091666Y-84101904D02*
X113091666Y-83301904D01*
X113158333Y-83797142D02*
X113358333Y-84101904D01*
X113358333Y-83568571D02*
X113091666Y-83873333D01*
X113758333Y-84101904D02*
X113691666Y-84063809D01*
X113658333Y-83987619D01*
X113658333Y-83301904D01*
X114325000Y-84101904D02*
X114325000Y-83682857D01*
X114291666Y-83606666D01*
X114225000Y-83568571D01*
X114091666Y-83568571D01*
X114025000Y-83606666D01*
X114325000Y-84063809D02*
X114258333Y-84101904D01*
X114091666Y-84101904D01*
X114025000Y-84063809D01*
X113991666Y-83987619D01*
X113991666Y-83911428D01*
X114025000Y-83835238D01*
X114091666Y-83797142D01*
X114258333Y-83797142D01*
X114325000Y-83759047D01*
X114625000Y-84063809D02*
X114691666Y-84101904D01*
X114825000Y-84101904D01*
X114891666Y-84063809D01*
X114925000Y-83987619D01*
X114925000Y-83949523D01*
X114891666Y-83873333D01*
X114825000Y-83835238D01*
X114725000Y-83835238D01*
X114658333Y-83797142D01*
X114625000Y-83720952D01*
X114625000Y-83682857D01*
X114658333Y-83606666D01*
X114725000Y-83568571D01*
X114825000Y-83568571D01*
X114891666Y-83606666D01*
X115991666Y-83682857D02*
X115758333Y-83682857D01*
X115758333Y-84101904D02*
X115758333Y-83301904D01*
X116091666Y-83301904D01*
X116658333Y-84101904D02*
X116658333Y-83682857D01*
X116625000Y-83606666D01*
X116558333Y-83568571D01*
X116425000Y-83568571D01*
X116358333Y-83606666D01*
X116658333Y-84063809D02*
X116591666Y-84101904D01*
X116425000Y-84101904D01*
X116358333Y-84063809D01*
X116325000Y-83987619D01*
X116325000Y-83911428D01*
X116358333Y-83835238D01*
X116425000Y-83797142D01*
X116591666Y-83797142D01*
X116658333Y-83759047D01*
X117291666Y-83568571D02*
X117291666Y-84101904D01*
X116991666Y-83568571D02*
X116991666Y-83987619D01*
X117025000Y-84063809D01*
X117091666Y-84101904D01*
X117191666Y-84101904D01*
X117258333Y-84063809D01*
X117291666Y-84025714D01*
X117525000Y-83568571D02*
X117791666Y-83568571D01*
X117625000Y-83301904D02*
X117625000Y-83987619D01*
X117658333Y-84063809D01*
X117725000Y-84101904D01*
X117791666Y-84101904D01*
X118025000Y-84101904D02*
X118025000Y-83301904D01*
X118325000Y-84101904D02*
X118325000Y-83682857D01*
X118291666Y-83606666D01*
X118225000Y-83568571D01*
X118125000Y-83568571D01*
X118058333Y-83606666D01*
X118025000Y-83644761D01*
X119158333Y-83378095D02*
X119191666Y-83340000D01*
X119258333Y-83301904D01*
X119425000Y-83301904D01*
X119491666Y-83340000D01*
X119525000Y-83378095D01*
X119558333Y-83454285D01*
X119558333Y-83530476D01*
X119525000Y-83644761D01*
X119125000Y-84101904D01*
X119558333Y-84101904D01*
X119991666Y-83301904D02*
X120058333Y-83301904D01*
X120125000Y-83340000D01*
X120158333Y-83378095D01*
X120191666Y-83454285D01*
X120225000Y-83606666D01*
X120225000Y-83797142D01*
X120191666Y-83949523D01*
X120158333Y-84025714D01*
X120125000Y-84063809D01*
X120058333Y-84101904D01*
X119991666Y-84101904D01*
X119925000Y-84063809D01*
X119891666Y-84025714D01*
X119858333Y-83949523D01*
X119825000Y-83797142D01*
X119825000Y-83606666D01*
X119858333Y-83454285D01*
X119891666Y-83378095D01*
X119925000Y-83340000D01*
X119991666Y-83301904D01*
X120891666Y-84101904D02*
X120491666Y-84101904D01*
X120691666Y-84101904D02*
X120691666Y-83301904D01*
X120625000Y-83416190D01*
X120558333Y-83492380D01*
X120491666Y-83530476D01*
X121225000Y-84101904D02*
X121358333Y-84101904D01*
X121425000Y-84063809D01*
X121458333Y-84025714D01*
X121525000Y-83911428D01*
X121558333Y-83759047D01*
X121558333Y-83454285D01*
X121525000Y-83378095D01*
X121491666Y-83340000D01*
X121425000Y-83301904D01*
X121291666Y-83301904D01*
X121225000Y-83340000D01*
X121191666Y-83378095D01*
X121158333Y-83454285D01*
X121158333Y-83644761D01*
X121191666Y-83720952D01*
X121225000Y-83759047D01*
X121291666Y-83797142D01*
X121425000Y-83797142D01*
X121491666Y-83759047D01*
X121525000Y-83720952D01*
X121558333Y-83644761D01*
D13*
G04 #@! TO.C,D2*
X119590000Y-84400000D02*
X119590000Y-86100000D01*
X120690000Y-84400000D02*
X119590000Y-84400000D01*
X120690000Y-86100000D02*
X120690000Y-84400000D01*
D14*
G04 #@! TO.C,REF\002A\002A*
G36*
X110103690Y-77676528D02*
X110182234Y-77676958D01*
X110239078Y-77678122D01*
X110277885Y-77680387D01*
X110302318Y-77684120D01*
X110316042Y-77689686D01*
X110322720Y-77697453D01*
X110326016Y-77707785D01*
X110326336Y-77709123D01*
X110331342Y-77733259D01*
X110340609Y-77780881D01*
X110353172Y-77846921D01*
X110368067Y-77926308D01*
X110384331Y-78013976D01*
X110384899Y-78017055D01*
X110401190Y-78102969D01*
X110416432Y-78178876D01*
X110429641Y-78240225D01*
X110439834Y-78282462D01*
X110446028Y-78301035D01*
X110446323Y-78301364D01*
X110464568Y-78310433D01*
X110502185Y-78325547D01*
X110551051Y-78343442D01*
X110551323Y-78343538D01*
X110612873Y-78366673D01*
X110685437Y-78396145D01*
X110753837Y-78425777D01*
X110757074Y-78427242D01*
X110868482Y-78477806D01*
X111115179Y-78309340D01*
X111190857Y-78257983D01*
X111259411Y-78212069D01*
X111316868Y-78174210D01*
X111359256Y-78147017D01*
X111382605Y-78133101D01*
X111384822Y-78132069D01*
X111401790Y-78136664D01*
X111433481Y-78158835D01*
X111481132Y-78199627D01*
X111545978Y-78260085D01*
X111612177Y-78324407D01*
X111675994Y-78387792D01*
X111733109Y-78445631D01*
X111780085Y-78494355D01*
X111813483Y-78530390D01*
X111829865Y-78550164D01*
X111830474Y-78551182D01*
X111832285Y-78564752D01*
X111825463Y-78586913D01*
X111808320Y-78620658D01*
X111779173Y-78668980D01*
X111736335Y-78734872D01*
X111679228Y-78819697D01*
X111628546Y-78894357D01*
X111583241Y-78961320D01*
X111545930Y-79016696D01*
X111519232Y-79056600D01*
X111505765Y-79077142D01*
X111504917Y-79078536D01*
X111506561Y-79098218D01*
X111519025Y-79136473D01*
X111539828Y-79186069D01*
X111547242Y-79201908D01*
X111579594Y-79272470D01*
X111614108Y-79352533D01*
X111642145Y-79421809D01*
X111662348Y-79473225D01*
X111678395Y-79512299D01*
X111687668Y-79532721D01*
X111688821Y-79534294D01*
X111705876Y-79536901D01*
X111746078Y-79544043D01*
X111804082Y-79554703D01*
X111874543Y-79567865D01*
X111952115Y-79582513D01*
X112031452Y-79597629D01*
X112107211Y-79612198D01*
X112174044Y-79625202D01*
X112226608Y-79635625D01*
X112259556Y-79642450D01*
X112267637Y-79644379D01*
X112275985Y-79649142D01*
X112282286Y-79659898D01*
X112286825Y-79680278D01*
X112289884Y-79713914D01*
X112291747Y-79764435D01*
X112292698Y-79835472D01*
X112293020Y-79930656D01*
X112293037Y-79969672D01*
X112293037Y-80286979D01*
X112216837Y-80302019D01*
X112174443Y-80310175D01*
X112111180Y-80322079D01*
X112034742Y-80336296D01*
X111952823Y-80351390D01*
X111930180Y-80355535D01*
X111854586Y-80370233D01*
X111788733Y-80384685D01*
X111738146Y-80397555D01*
X111708354Y-80407502D01*
X111703392Y-80410467D01*
X111691206Y-80431463D01*
X111673733Y-80472147D01*
X111654357Y-80524502D01*
X111650514Y-80535780D01*
X111625119Y-80605703D01*
X111593597Y-80684598D01*
X111562749Y-80755446D01*
X111562597Y-80755775D01*
X111511227Y-80866913D01*
X111680179Y-81115433D01*
X111849132Y-81363952D01*
X111632209Y-81581238D01*
X111566599Y-81645906D01*
X111506759Y-81702913D01*
X111456047Y-81749213D01*
X111417826Y-81781764D01*
X111395455Y-81797523D01*
X111392246Y-81798523D01*
X111373406Y-81790649D01*
X111334960Y-81768758D01*
X111281110Y-81735447D01*
X111216056Y-81693311D01*
X111145720Y-81646123D01*
X111074335Y-81597990D01*
X111010688Y-81556108D01*
X110958821Y-81523051D01*
X110922775Y-81501398D01*
X110906647Y-81493723D01*
X110886969Y-81500217D01*
X110849655Y-81517330D01*
X110802401Y-81541506D01*
X110797392Y-81544193D01*
X110733757Y-81576107D01*
X110690121Y-81591759D01*
X110662982Y-81591925D01*
X110648837Y-81577384D01*
X110648755Y-81577180D01*
X110641685Y-81559959D01*
X110624822Y-81519079D01*
X110599475Y-81457705D01*
X110566951Y-81378999D01*
X110528558Y-81286127D01*
X110485602Y-81182252D01*
X110444002Y-81081682D01*
X110398284Y-80970696D01*
X110356306Y-80867883D01*
X110319328Y-80776395D01*
X110288607Y-80699381D01*
X110265402Y-80639995D01*
X110250970Y-80601389D01*
X110246523Y-80586980D01*
X110257676Y-80570452D01*
X110286849Y-80544110D01*
X110325751Y-80515067D01*
X110436537Y-80423219D01*
X110523131Y-80317939D01*
X110584496Y-80201446D01*
X110619595Y-80075956D01*
X110627388Y-79943687D01*
X110621723Y-79882637D01*
X110590858Y-79755975D01*
X110537700Y-79644121D01*
X110465547Y-79548181D01*
X110377697Y-79469256D01*
X110277445Y-79408450D01*
X110168090Y-79366867D01*
X110052927Y-79345608D01*
X109935255Y-79345779D01*
X109818370Y-79368481D01*
X109705569Y-79414818D01*
X109600149Y-79485893D01*
X109556148Y-79526091D01*
X109471759Y-79629309D01*
X109413002Y-79742105D01*
X109379484Y-79861190D01*
X109370815Y-79983275D01*
X109386603Y-80105073D01*
X109426458Y-80223296D01*
X109489987Y-80334655D01*
X109576801Y-80435864D01*
X109673809Y-80515067D01*
X109714217Y-80545342D01*
X109742762Y-80571399D01*
X109753037Y-80587005D01*
X109747657Y-80604023D01*
X109732355Y-80644680D01*
X109708392Y-80705822D01*
X109677024Y-80784299D01*
X109639512Y-80876960D01*
X109597113Y-80980652D01*
X109555443Y-81081706D01*
X109509470Y-81192787D01*
X109466887Y-81295721D01*
X109429001Y-81387345D01*
X109397120Y-81464496D01*
X109372551Y-81524011D01*
X109356600Y-81562724D01*
X109350690Y-81577180D01*
X109336728Y-81591865D01*
X109309720Y-81591822D01*
X109266193Y-81576279D01*
X109202670Y-81544464D01*
X109202168Y-81544193D01*
X109154340Y-81519503D01*
X109115677Y-81501518D01*
X109093875Y-81493794D01*
X109092913Y-81493723D01*
X109076501Y-81501558D01*
X109040267Y-81523345D01*
X108988254Y-81556508D01*
X108924505Y-81598471D01*
X108853840Y-81646123D01*
X108781896Y-81694371D01*
X108717054Y-81736331D01*
X108663515Y-81769407D01*
X108625477Y-81791001D01*
X108607313Y-81798523D01*
X108590588Y-81788637D01*
X108556960Y-81761006D01*
X108509790Y-81718675D01*
X108452438Y-81664685D01*
X108388264Y-81602079D01*
X108367277Y-81581163D01*
X108150279Y-81363803D01*
X108315448Y-81121400D01*
X108365644Y-81046961D01*
X108409699Y-80980152D01*
X108445142Y-80924845D01*
X108469499Y-80884909D01*
X108480302Y-80864216D01*
X108480618Y-80862743D01*
X108474923Y-80843238D01*
X108459606Y-80804002D01*
X108437317Y-80751610D01*
X108421673Y-80716535D01*
X108392421Y-80649381D01*
X108364874Y-80581538D01*
X108343517Y-80524214D01*
X108337715Y-80506752D01*
X108321232Y-80460118D01*
X108305120Y-80424085D01*
X108296270Y-80410467D01*
X108276740Y-80402132D01*
X108234114Y-80390317D01*
X108173925Y-80376361D01*
X108101702Y-80361602D01*
X108069380Y-80355535D01*
X107987302Y-80340453D01*
X107908575Y-80325849D01*
X107840889Y-80313160D01*
X107791940Y-80303822D01*
X107782723Y-80302019D01*
X107706523Y-80286979D01*
X107706523Y-79969672D01*
X107706694Y-79865334D01*
X107707396Y-79786393D01*
X107708914Y-79729218D01*
X107711529Y-79690179D01*
X107715526Y-79665645D01*
X107721189Y-79651985D01*
X107728800Y-79645569D01*
X107731923Y-79644379D01*
X107750758Y-79640160D01*
X107792368Y-79631742D01*
X107851410Y-79620141D01*
X107922537Y-79606375D01*
X108000405Y-79591460D01*
X108079667Y-79576412D01*
X108154978Y-79562249D01*
X108220993Y-79549986D01*
X108272367Y-79540641D01*
X108303755Y-79535230D01*
X108310739Y-79534294D01*
X108317065Y-79521776D01*
X108331070Y-79488426D01*
X108350135Y-79440557D01*
X108357414Y-79421809D01*
X108386776Y-79349375D01*
X108421351Y-79269350D01*
X108452317Y-79201908D01*
X108475103Y-79150339D01*
X108490262Y-79107965D01*
X108495322Y-79082014D01*
X108494516Y-79078536D01*
X108483821Y-79062116D01*
X108459400Y-79025597D01*
X108423875Y-78972867D01*
X108379867Y-78907815D01*
X108329997Y-78834331D01*
X108320136Y-78819825D01*
X108262272Y-78733884D01*
X108219736Y-78668441D01*
X108190834Y-78620484D01*
X108173870Y-78587000D01*
X108167147Y-78564975D01*
X108168970Y-78551397D01*
X108169016Y-78551311D01*
X108183366Y-78533477D01*
X108215103Y-78498997D01*
X108260790Y-78451448D01*
X108316984Y-78394402D01*
X108380248Y-78331435D01*
X108387382Y-78324407D01*
X108467110Y-78247200D01*
X108528637Y-78190510D01*
X108573201Y-78153290D01*
X108602037Y-78134495D01*
X108614738Y-78132069D01*
X108633274Y-78142651D01*
X108671741Y-78167096D01*
X108726166Y-78202792D01*
X108792578Y-78247127D01*
X108867005Y-78297491D01*
X108884381Y-78309340D01*
X109131077Y-78477806D01*
X109242486Y-78427242D01*
X109310237Y-78397775D01*
X109382963Y-78368139D01*
X109445483Y-78344510D01*
X109448237Y-78343538D01*
X109497140Y-78325637D01*
X109534837Y-78310500D01*
X109553205Y-78301390D01*
X109553236Y-78301364D01*
X109559065Y-78284897D01*
X109568972Y-78244399D01*
X109581975Y-78184422D01*
X109597089Y-78109520D01*
X109613332Y-78024244D01*
X109614661Y-78017055D01*
X109630955Y-77929194D01*
X109645913Y-77849440D01*
X109658571Y-77782861D01*
X109667966Y-77734527D01*
X109673134Y-77709505D01*
X109673224Y-77709123D01*
X109676369Y-77698479D01*
X109682484Y-77690442D01*
X109695233Y-77684647D01*
X109718280Y-77680727D01*
X109755289Y-77678315D01*
X109809924Y-77677045D01*
X109885847Y-77676551D01*
X109986724Y-77676466D01*
X109999780Y-77676466D01*
X110103690Y-77676528D01*
X110103690Y-77676528D01*
G37*
X110103690Y-77676528D02*
X110182234Y-77676958D01*
X110239078Y-77678122D01*
X110277885Y-77680387D01*
X110302318Y-77684120D01*
X110316042Y-77689686D01*
X110322720Y-77697453D01*
X110326016Y-77707785D01*
X110326336Y-77709123D01*
X110331342Y-77733259D01*
X110340609Y-77780881D01*
X110353172Y-77846921D01*
X110368067Y-77926308D01*
X110384331Y-78013976D01*
X110384899Y-78017055D01*
X110401190Y-78102969D01*
X110416432Y-78178876D01*
X110429641Y-78240225D01*
X110439834Y-78282462D01*
X110446028Y-78301035D01*
X110446323Y-78301364D01*
X110464568Y-78310433D01*
X110502185Y-78325547D01*
X110551051Y-78343442D01*
X110551323Y-78343538D01*
X110612873Y-78366673D01*
X110685437Y-78396145D01*
X110753837Y-78425777D01*
X110757074Y-78427242D01*
X110868482Y-78477806D01*
X111115179Y-78309340D01*
X111190857Y-78257983D01*
X111259411Y-78212069D01*
X111316868Y-78174210D01*
X111359256Y-78147017D01*
X111382605Y-78133101D01*
X111384822Y-78132069D01*
X111401790Y-78136664D01*
X111433481Y-78158835D01*
X111481132Y-78199627D01*
X111545978Y-78260085D01*
X111612177Y-78324407D01*
X111675994Y-78387792D01*
X111733109Y-78445631D01*
X111780085Y-78494355D01*
X111813483Y-78530390D01*
X111829865Y-78550164D01*
X111830474Y-78551182D01*
X111832285Y-78564752D01*
X111825463Y-78586913D01*
X111808320Y-78620658D01*
X111779173Y-78668980D01*
X111736335Y-78734872D01*
X111679228Y-78819697D01*
X111628546Y-78894357D01*
X111583241Y-78961320D01*
X111545930Y-79016696D01*
X111519232Y-79056600D01*
X111505765Y-79077142D01*
X111504917Y-79078536D01*
X111506561Y-79098218D01*
X111519025Y-79136473D01*
X111539828Y-79186069D01*
X111547242Y-79201908D01*
X111579594Y-79272470D01*
X111614108Y-79352533D01*
X111642145Y-79421809D01*
X111662348Y-79473225D01*
X111678395Y-79512299D01*
X111687668Y-79532721D01*
X111688821Y-79534294D01*
X111705876Y-79536901D01*
X111746078Y-79544043D01*
X111804082Y-79554703D01*
X111874543Y-79567865D01*
X111952115Y-79582513D01*
X112031452Y-79597629D01*
X112107211Y-79612198D01*
X112174044Y-79625202D01*
X112226608Y-79635625D01*
X112259556Y-79642450D01*
X112267637Y-79644379D01*
X112275985Y-79649142D01*
X112282286Y-79659898D01*
X112286825Y-79680278D01*
X112289884Y-79713914D01*
X112291747Y-79764435D01*
X112292698Y-79835472D01*
X112293020Y-79930656D01*
X112293037Y-79969672D01*
X112293037Y-80286979D01*
X112216837Y-80302019D01*
X112174443Y-80310175D01*
X112111180Y-80322079D01*
X112034742Y-80336296D01*
X111952823Y-80351390D01*
X111930180Y-80355535D01*
X111854586Y-80370233D01*
X111788733Y-80384685D01*
X111738146Y-80397555D01*
X111708354Y-80407502D01*
X111703392Y-80410467D01*
X111691206Y-80431463D01*
X111673733Y-80472147D01*
X111654357Y-80524502D01*
X111650514Y-80535780D01*
X111625119Y-80605703D01*
X111593597Y-80684598D01*
X111562749Y-80755446D01*
X111562597Y-80755775D01*
X111511227Y-80866913D01*
X111680179Y-81115433D01*
X111849132Y-81363952D01*
X111632209Y-81581238D01*
X111566599Y-81645906D01*
X111506759Y-81702913D01*
X111456047Y-81749213D01*
X111417826Y-81781764D01*
X111395455Y-81797523D01*
X111392246Y-81798523D01*
X111373406Y-81790649D01*
X111334960Y-81768758D01*
X111281110Y-81735447D01*
X111216056Y-81693311D01*
X111145720Y-81646123D01*
X111074335Y-81597990D01*
X111010688Y-81556108D01*
X110958821Y-81523051D01*
X110922775Y-81501398D01*
X110906647Y-81493723D01*
X110886969Y-81500217D01*
X110849655Y-81517330D01*
X110802401Y-81541506D01*
X110797392Y-81544193D01*
X110733757Y-81576107D01*
X110690121Y-81591759D01*
X110662982Y-81591925D01*
X110648837Y-81577384D01*
X110648755Y-81577180D01*
X110641685Y-81559959D01*
X110624822Y-81519079D01*
X110599475Y-81457705D01*
X110566951Y-81378999D01*
X110528558Y-81286127D01*
X110485602Y-81182252D01*
X110444002Y-81081682D01*
X110398284Y-80970696D01*
X110356306Y-80867883D01*
X110319328Y-80776395D01*
X110288607Y-80699381D01*
X110265402Y-80639995D01*
X110250970Y-80601389D01*
X110246523Y-80586980D01*
X110257676Y-80570452D01*
X110286849Y-80544110D01*
X110325751Y-80515067D01*
X110436537Y-80423219D01*
X110523131Y-80317939D01*
X110584496Y-80201446D01*
X110619595Y-80075956D01*
X110627388Y-79943687D01*
X110621723Y-79882637D01*
X110590858Y-79755975D01*
X110537700Y-79644121D01*
X110465547Y-79548181D01*
X110377697Y-79469256D01*
X110277445Y-79408450D01*
X110168090Y-79366867D01*
X110052927Y-79345608D01*
X109935255Y-79345779D01*
X109818370Y-79368481D01*
X109705569Y-79414818D01*
X109600149Y-79485893D01*
X109556148Y-79526091D01*
X109471759Y-79629309D01*
X109413002Y-79742105D01*
X109379484Y-79861190D01*
X109370815Y-79983275D01*
X109386603Y-80105073D01*
X109426458Y-80223296D01*
X109489987Y-80334655D01*
X109576801Y-80435864D01*
X109673809Y-80515067D01*
X109714217Y-80545342D01*
X109742762Y-80571399D01*
X109753037Y-80587005D01*
X109747657Y-80604023D01*
X109732355Y-80644680D01*
X109708392Y-80705822D01*
X109677024Y-80784299D01*
X109639512Y-80876960D01*
X109597113Y-80980652D01*
X109555443Y-81081706D01*
X109509470Y-81192787D01*
X109466887Y-81295721D01*
X109429001Y-81387345D01*
X109397120Y-81464496D01*
X109372551Y-81524011D01*
X109356600Y-81562724D01*
X109350690Y-81577180D01*
X109336728Y-81591865D01*
X109309720Y-81591822D01*
X109266193Y-81576279D01*
X109202670Y-81544464D01*
X109202168Y-81544193D01*
X109154340Y-81519503D01*
X109115677Y-81501518D01*
X109093875Y-81493794D01*
X109092913Y-81493723D01*
X109076501Y-81501558D01*
X109040267Y-81523345D01*
X108988254Y-81556508D01*
X108924505Y-81598471D01*
X108853840Y-81646123D01*
X108781896Y-81694371D01*
X108717054Y-81736331D01*
X108663515Y-81769407D01*
X108625477Y-81791001D01*
X108607313Y-81798523D01*
X108590588Y-81788637D01*
X108556960Y-81761006D01*
X108509790Y-81718675D01*
X108452438Y-81664685D01*
X108388264Y-81602079D01*
X108367277Y-81581163D01*
X108150279Y-81363803D01*
X108315448Y-81121400D01*
X108365644Y-81046961D01*
X108409699Y-80980152D01*
X108445142Y-80924845D01*
X108469499Y-80884909D01*
X108480302Y-80864216D01*
X108480618Y-80862743D01*
X108474923Y-80843238D01*
X108459606Y-80804002D01*
X108437317Y-80751610D01*
X108421673Y-80716535D01*
X108392421Y-80649381D01*
X108364874Y-80581538D01*
X108343517Y-80524214D01*
X108337715Y-80506752D01*
X108321232Y-80460118D01*
X108305120Y-80424085D01*
X108296270Y-80410467D01*
X108276740Y-80402132D01*
X108234114Y-80390317D01*
X108173925Y-80376361D01*
X108101702Y-80361602D01*
X108069380Y-80355535D01*
X107987302Y-80340453D01*
X107908575Y-80325849D01*
X107840889Y-80313160D01*
X107791940Y-80303822D01*
X107782723Y-80302019D01*
X107706523Y-80286979D01*
X107706523Y-79969672D01*
X107706694Y-79865334D01*
X107707396Y-79786393D01*
X107708914Y-79729218D01*
X107711529Y-79690179D01*
X107715526Y-79665645D01*
X107721189Y-79651985D01*
X107728800Y-79645569D01*
X107731923Y-79644379D01*
X107750758Y-79640160D01*
X107792368Y-79631742D01*
X107851410Y-79620141D01*
X107922537Y-79606375D01*
X108000405Y-79591460D01*
X108079667Y-79576412D01*
X108154978Y-79562249D01*
X108220993Y-79549986D01*
X108272367Y-79540641D01*
X108303755Y-79535230D01*
X108310739Y-79534294D01*
X108317065Y-79521776D01*
X108331070Y-79488426D01*
X108350135Y-79440557D01*
X108357414Y-79421809D01*
X108386776Y-79349375D01*
X108421351Y-79269350D01*
X108452317Y-79201908D01*
X108475103Y-79150339D01*
X108490262Y-79107965D01*
X108495322Y-79082014D01*
X108494516Y-79078536D01*
X108483821Y-79062116D01*
X108459400Y-79025597D01*
X108423875Y-78972867D01*
X108379867Y-78907815D01*
X108329997Y-78834331D01*
X108320136Y-78819825D01*
X108262272Y-78733884D01*
X108219736Y-78668441D01*
X108190834Y-78620484D01*
X108173870Y-78587000D01*
X108167147Y-78564975D01*
X108168970Y-78551397D01*
X108169016Y-78551311D01*
X108183366Y-78533477D01*
X108215103Y-78498997D01*
X108260790Y-78451448D01*
X108316984Y-78394402D01*
X108380248Y-78331435D01*
X108387382Y-78324407D01*
X108467110Y-78247200D01*
X108528637Y-78190510D01*
X108573201Y-78153290D01*
X108602037Y-78134495D01*
X108614738Y-78132069D01*
X108633274Y-78142651D01*
X108671741Y-78167096D01*
X108726166Y-78202792D01*
X108792578Y-78247127D01*
X108867005Y-78297491D01*
X108884381Y-78309340D01*
X109131077Y-78477806D01*
X109242486Y-78427242D01*
X109310237Y-78397775D01*
X109382963Y-78368139D01*
X109445483Y-78344510D01*
X109448237Y-78343538D01*
X109497140Y-78325637D01*
X109534837Y-78310500D01*
X109553205Y-78301390D01*
X109553236Y-78301364D01*
X109559065Y-78284897D01*
X109568972Y-78244399D01*
X109581975Y-78184422D01*
X109597089Y-78109520D01*
X109613332Y-78024244D01*
X109614661Y-78017055D01*
X109630955Y-77929194D01*
X109645913Y-77849440D01*
X109658571Y-77782861D01*
X109667966Y-77734527D01*
X109673134Y-77709505D01*
X109673224Y-77709123D01*
X109676369Y-77698479D01*
X109682484Y-77690442D01*
X109695233Y-77684647D01*
X109718280Y-77680727D01*
X109755289Y-77678315D01*
X109809924Y-77677045D01*
X109885847Y-77676551D01*
X109986724Y-77676466D01*
X109999780Y-77676466D01*
X110103690Y-77676528D01*
D13*
G04 #@! TO.C,J19*
X108002300Y-68874640D02*
G75*
G03X108002300Y-68874640I-700000J0D01*
G01*
G04 #@! TO.C,J20*
X106557040Y-69362320D02*
G75*
G03X106557040Y-69362320I-700000J0D01*
G01*
G04 #@! TO.C,J18*
X109503440Y-68620640D02*
G75*
G03X109503440Y-68620640I-700000J0D01*
G01*
G04 #@! TO.C,J17*
X111032520Y-68585080D02*
G75*
G03X111032520Y-68585080I-700000J0D01*
G01*
G04 #@! TO.C,U1*
X104490000Y-87235000D02*
X104490000Y-87710000D01*
X108710000Y-83490000D02*
X108235000Y-83490000D01*
X108710000Y-83965000D02*
X108710000Y-83490000D01*
X108710000Y-87710000D02*
X108235000Y-87710000D01*
X108710000Y-87235000D02*
X108710000Y-87710000D01*
X104490000Y-83490000D02*
X104965000Y-83490000D01*
X104490000Y-83965000D02*
X104490000Y-83490000D01*
G04 #@! TO.C,U9*
X117200000Y-77520000D02*
X114700000Y-77520000D01*
X114700000Y-74280000D02*
X116700000Y-74280000D01*
G04 #@! TO.C,U6*
X113537480Y-74008740D02*
X113537480Y-76008740D01*
X110297480Y-76508740D02*
X110297480Y-74008740D01*
D10*
G04 #@! TO.C,J11*
X103800000Y-82110000D02*
X104160000Y-82110000D01*
X104160000Y-82110000D02*
X104160000Y-81200000D01*
X102200000Y-82110000D02*
X101840000Y-82110000D01*
X101840000Y-82110000D02*
X101840000Y-81200000D01*
X104160000Y-78800000D02*
X104160000Y-77890000D01*
X104160000Y-77890000D02*
X103800000Y-77890000D01*
X101840000Y-78800000D02*
X101840000Y-77890000D01*
X101840000Y-77890000D02*
X102200000Y-77890000D01*
G04 #@! TO.C,J12*
X117800000Y-82110000D02*
X118160000Y-82110000D01*
X118160000Y-82110000D02*
X118160000Y-81200000D01*
X116200000Y-82110000D02*
X115840000Y-82110000D01*
X115840000Y-82110000D02*
X115840000Y-81200000D01*
X118160000Y-78800000D02*
X118160000Y-77890000D01*
X118160000Y-77890000D02*
X117800000Y-77890000D01*
X115840000Y-78800000D02*
X115840000Y-77890000D01*
X115840000Y-77890000D02*
X116200000Y-77890000D01*
D13*
G04 #@! TO.C,D1*
X118490000Y-84750000D02*
X118490000Y-86450000D01*
X119590000Y-84750000D02*
X118490000Y-84750000D01*
X119590000Y-86450000D02*
X119590000Y-84750000D01*
G04 #@! TO.C,U7*
X106354120Y-78535732D02*
G75*
G03X106354120Y-78535732I-99999J0D01*
G01*
X106112700Y-76555833D02*
X106819807Y-77262940D01*
X105405593Y-77262940D02*
X106112700Y-76555833D01*
X106112700Y-77970047D02*
X105405593Y-77262940D01*
X106819807Y-77262940D02*
X106112700Y-77970047D01*
G04 #@! TO.C,U10*
X113120000Y-88780000D02*
X113120000Y-87620000D01*
X113120000Y-87620000D02*
X114680000Y-87620000D01*
X114680000Y-87620000D02*
X114680000Y-88780000D01*
X114680000Y-88780000D02*
X113120000Y-88780000D01*
X113000000Y-87400000D02*
G75*
G03X113000000Y-87400000I-100000J0D01*
G01*
G04 #@! TO.C,U4*
X106831606Y-75351562D02*
X104901558Y-73421514D01*
X104901558Y-73421514D02*
X107382089Y-70940983D01*
X107382089Y-70940983D02*
X109888076Y-73446970D01*
X109888076Y-73446970D02*
X107983483Y-75351562D01*
D15*
G04 #@! TO.C,U5*
X116380000Y-70726000D02*
X116080000Y-70726000D01*
X116380000Y-72774000D02*
X116080000Y-72774000D01*
X113720000Y-70726000D02*
X114020000Y-70726000D01*
X113720000Y-72774000D02*
X114020000Y-72774000D01*
D16*
X116700000Y-70550000D02*
G75*
G03X116700000Y-70550000I-50000J0D01*
G01*
G04 #@! TO.C,U8*
X121350000Y-81600000D02*
G75*
G03X121350000Y-81600000I-50000J0D01*
G01*
D15*
X119076000Y-78670000D02*
X119076000Y-78970000D01*
X121124000Y-78670000D02*
X121124000Y-78970000D01*
X119076000Y-81330000D02*
X119076000Y-81030000D01*
X121124000Y-81330000D02*
X121124000Y-81030000D01*
G04 #@! TO.C,U11*
X105010840Y-78667300D02*
X105010840Y-78967300D01*
X107058840Y-78667300D02*
X107058840Y-78967300D01*
X105010840Y-81327300D02*
X105010840Y-81027300D01*
X107058840Y-81327300D02*
X107058840Y-81027300D01*
D16*
X104884840Y-78397300D02*
G75*
G03X104884840Y-78397300I-50000J0D01*
G01*
G04 #@! TO.C,U12*
X99403520Y-75649020D02*
G75*
G03X99403520Y-75649020I-50000J0D01*
G01*
D15*
X101577520Y-78579020D02*
X101577520Y-78279020D01*
X99529520Y-78579020D02*
X99529520Y-78279020D01*
X101577520Y-75919020D02*
X101577520Y-76219020D01*
X99529520Y-75919020D02*
X99529520Y-76219020D01*
D13*
G04 #@! TO.C,C48*
X110437221Y-83490000D02*
X110762779Y-83490000D01*
X110437221Y-84510000D02*
X110762779Y-84510000D01*
G04 #@! TO.C,C46*
X105537221Y-89410000D02*
X105862779Y-89410000D01*
X105537221Y-88390000D02*
X105862779Y-88390000D01*
G04 #@! TO.C,C47*
X111681800Y-88897679D02*
X111681800Y-88572121D01*
X112701800Y-88897679D02*
X112701800Y-88572121D01*
G04 #@! TO.C,C45*
X110490000Y-85837221D02*
X110490000Y-86162779D01*
X111510000Y-85837221D02*
X111510000Y-86162779D01*
G04 #@! TO.C,C49*
X112710000Y-85837221D02*
X112710000Y-86162779D01*
X111690000Y-85837221D02*
X111690000Y-86162779D01*
G04 #@! TO.C,L9*
X113290000Y-85837221D02*
X113290000Y-86162779D01*
X114310000Y-85837221D02*
X114310000Y-86162779D01*
G04 #@! TO.C,L5*
X109290000Y-86162779D02*
X109290000Y-85837221D01*
X110310000Y-86162779D02*
X110310000Y-85837221D01*
G04 #@! TO.C,Q3*
X115980000Y-86780000D02*
X114820000Y-86780000D01*
X114820000Y-86780000D02*
X114820000Y-85220000D01*
X114820000Y-85220000D02*
X115980000Y-85220000D01*
X115980000Y-85220000D02*
X115980000Y-86780000D01*
X114700000Y-87000000D02*
G75*
G03X114700000Y-87000000I-100000J0D01*
G01*
G04 #@! TO.C,Q1*
X111050000Y-70850000D02*
G75*
G03X111050000Y-70850000I-100000J0D01*
G01*
X112330000Y-69070000D02*
X112330000Y-70630000D01*
X111170000Y-69070000D02*
X112330000Y-69070000D01*
X111170000Y-70630000D02*
X111170000Y-69070000D01*
X112330000Y-70630000D02*
X111170000Y-70630000D01*
G04 #@! TO.C,Q2*
X118970000Y-76930000D02*
X118970000Y-75770000D01*
X118970000Y-75770000D02*
X120530000Y-75770000D01*
X120530000Y-75770000D02*
X120530000Y-76930000D01*
X120530000Y-76930000D02*
X118970000Y-76930000D01*
X118850000Y-75550000D02*
G75*
G03X118850000Y-75550000I-100000J0D01*
G01*
G04 #@! TO.C,U13*
X103626155Y-74053627D02*
X102069766Y-72963832D01*
X101148645Y-75151053D02*
X102295458Y-75954060D01*
G04 #@! TO.C,Y1*
X107223760Y-88461060D02*
X107223760Y-91061060D01*
X107223760Y-91061060D02*
X110423760Y-91061060D01*
G04 #@! TO.C,U3*
X104791301Y-72118145D02*
X105257992Y-72584836D01*
X103617504Y-70944348D02*
X104084195Y-71411039D01*
X103617504Y-70944348D02*
X102182077Y-72379775D01*
X104260971Y-73581856D02*
X105257992Y-72584836D01*
G04 #@! TO.C,Q4*
X116240000Y-85820000D02*
X116240000Y-87230000D01*
X118560000Y-87230000D02*
X118560000Y-85200000D01*
X118560000Y-87230000D02*
X117900000Y-87230000D01*
X116900000Y-87230000D02*
X116240000Y-87230000D01*
G04 #@! TO.C,U2*
X99452850Y-83555822D02*
X100255825Y-85277807D01*
X102147150Y-83844178D02*
X101555484Y-82575347D01*
G04 #@! TD*
M02*
