M48
;DRILL file {KiCad 5.0.2-bee76a0~70~ubuntu18.04.1} date Mo 08 Jul 2019 07:54:48 CEST
;FORMAT={-:-/ absolute / inch / decimal}
FMAT,2
INCH,TZ
T1C0.0079
T2C0.0315
%
G90
G05
T1
X4.5058Y-2.9685
X4.5063Y-3.0165
X4.5063Y-3.0394
X4.5064Y-2.9914
X4.5531Y-3.3854
X4.5701Y-3.0167
X4.5701Y-3.0395
X4.5702Y-2.9709
X4.5702Y-2.9938
X4.5713Y-2.9457
X4.5721Y-3.0623
X5.2736Y-2.2796
X5.274Y-2.3276
X5.274Y-2.3504
X5.2742Y-2.3024
X5.3209Y-2.6965
X5.3378Y-2.3277
X5.3378Y-2.3506
X5.3379Y-2.2819
X5.3379Y-2.3048
X5.339Y-2.2567
X5.3398Y-2.3733
T2
X5.4523Y-2.7356
X4.8962Y-2.8606
X4.1285Y-3.5496
X4.7691Y-3.0618
X4.5211Y-2.7451
X5.3987Y-2.7921
X4.631Y-3.4811
X5.5368Y-2.3728
X3.8948Y-3.0514
X5.4315Y-2.1622
X4.6846Y-3.4246
X4.6212Y-2.8098
X5.4952Y-2.6694
X4.6638Y-2.8512
X3.9217Y-2.9697
X4.7308Y-2.9503
X5.5209Y-2.3155
X4.5737Y-2.7748
X4.6625Y-2.3624
X5.4685Y-2.2089
X5.4985Y-2.2613
X4.7008Y-2.8979
X5.2888Y-2.0561
X4.6894Y-2.2807
X4.7532Y-3.0045
X4.7275Y-3.3584
X5.3414Y-2.0858
X5.3889Y-2.1208
T0
M30
