%MOIN*%
%OFA0B0*%
%FSLAX44Y44*%
%IPPOS*%
%LPD*%
%ADD10C,0*%
D10*
X00009837Y00004712D02*
X00009837Y00004712D01*
X00009838Y00004733D01*
X00009841Y00004753D01*
X00009844Y00004773D01*
X00009849Y00004793D01*
X00009854Y00004813D01*
X00009861Y00004833D01*
X00009869Y00004852D01*
X00009877Y00004870D01*
X00009887Y00004889D01*
X00009897Y00004906D01*
X00009909Y00004923D01*
X00009921Y00004940D01*
X00009934Y00004956D01*
X00009948Y00004971D01*
X00009963Y00004985D01*
X00009978Y00004999D01*
X00009994Y00005011D01*
X00010011Y00005023D01*
X00010028Y00005034D01*
X00010046Y00005044D01*
X00011426Y00005774D01*
X00011445Y00005783D01*
X00011465Y00005792D01*
X00011485Y00005799D01*
X00011505Y00005805D01*
X00011526Y00005810D01*
X00011547Y00005814D01*
X00011568Y00005817D01*
X00011590Y00005819D01*
X00011611Y00005819D01*
X00011633Y00005819D01*
X00011654Y00005817D01*
X00011675Y00005814D01*
X00011696Y00005810D01*
X00011717Y00005804D01*
X00011738Y00005798D01*
X00011758Y00005791D01*
X00011777Y00005782D01*
X00011796Y00005772D01*
X00011815Y00005762D01*
X00011833Y00005750D01*
X00011845Y00005742D01*
X00011984Y00005653D01*
X00012126Y00005568D01*
X00012271Y00005489D01*
X00012419Y00005414D01*
X00012569Y00005344D01*
X00012721Y00005280D01*
X00012876Y00005220D01*
X00013032Y00005166D01*
X00013190Y00005117D01*
X00015944Y00005118D01*
X00015944Y00005118D01*
X00016102Y00005167D01*
X00016259Y00005221D01*
X00016413Y00005280D01*
X00016565Y00005345D01*
X00016715Y00005415D01*
X00016863Y00005490D01*
X00017008Y00005569D01*
X00017150Y00005654D01*
X00017290Y00005743D01*
X00017426Y00005837D01*
X00017559Y00005935D01*
X00017689Y00006038D01*
X00017815Y00006145D01*
X00017937Y00006256D01*
X00018056Y00006372D01*
X00018171Y00006491D01*
X00018281Y00006614D01*
X00018388Y00006741D01*
X00018490Y00006871D01*
X00018587Y00007005D01*
X00018680Y00007141D01*
X00018769Y00007281D01*
X00018853Y00007424D01*
X00018931Y00007569D01*
X00019005Y00007717D01*
X00019074Y00007868D01*
X00019138Y00008020D01*
X00019197Y00008175D01*
X00019250Y00008332D01*
X00019298Y00008490D01*
X00019341Y00008650D01*
X00019378Y00008811D01*
X00019410Y00008973D01*
X00019437Y00009137D01*
X00019458Y00009301D01*
X00019473Y00009466D01*
X00019483Y00009631D01*
X00019487Y00009796D01*
X00019486Y00009962D01*
X00019479Y00010127D01*
X00019467Y00010292D01*
X00019449Y00010456D01*
X00019426Y00010620D01*
X00019397Y00010783D01*
X00019362Y00010945D01*
X00019323Y00011106D01*
X00019278Y00011265D01*
X00019227Y00011422D01*
X00019171Y00011578D01*
X00019110Y00011732D01*
X00019044Y00011884D01*
X00018973Y00012033D01*
X00018897Y00012180D01*
X00018816Y00012324D01*
X00018730Y00012466D01*
X00018639Y00012604D01*
X00018544Y00012739D01*
X00018445Y00012872D01*
X00018341Y00013000D01*
X00018232Y00013125D01*
X00018120Y00013247D01*
X00018003Y00013364D01*
X00017883Y00013478D01*
X00017759Y00013587D01*
X00017631Y00013692D01*
X00017500Y00013793D01*
X00017366Y00013890D01*
X00017228Y00013981D01*
X00017087Y00014069D01*
X00016944Y00014151D01*
X00016798Y00014228D01*
X00016649Y00014301D01*
X00016498Y00014368D01*
X00016345Y00014431D01*
X00016189Y00014488D01*
X00016032Y00014540D01*
X00015873Y00014587D01*
X00015713Y00014628D01*
X00015552Y00014664D01*
X00015389Y00014694D01*
X00015225Y00014719D01*
X00015061Y00014738D01*
X00014896Y00014752D01*
X00014731Y00014761D01*
X00014566Y00014763D01*
X00014400Y00014760D01*
X00014235Y00014752D01*
X00014070Y00014738D01*
X00013906Y00014719D01*
X00013742Y00014694D01*
X00013579Y00014663D01*
X00013418Y00014627D01*
X00013258Y00014586D01*
X00013099Y00014539D01*
X00012942Y00014487D01*
X00012787Y00014430D01*
X00012633Y00014368D01*
X00012482Y00014300D01*
X00012334Y00014228D01*
X00012188Y00014150D01*
X00012044Y00014068D01*
X00011903Y00013981D01*
X00011870Y00013958D01*
X00011852Y00013947D01*
X00011834Y00013937D01*
X00011816Y00013928D01*
X00011797Y00013920D01*
X00011777Y00013913D01*
X00011758Y00013906D01*
X00011738Y00013901D01*
X00011718Y00013897D01*
X00011697Y00013894D01*
X00011677Y00013893D01*
X00011656Y00013892D01*
X00011635Y00013892D01*
X00011615Y00013893D01*
X00011594Y00013896D01*
X00011574Y00013899D01*
X00011554Y00013904D01*
X00011534Y00013909D01*
X00011515Y00013916D01*
X00011495Y00013924D01*
X00011477Y00013932D01*
X00010056Y00014633D01*
X00010037Y00014643D01*
X00010019Y00014654D01*
X00010002Y00014666D01*
X00009985Y00014678D01*
X00009969Y00014692D01*
X00009954Y00014706D01*
X00009939Y00014722D01*
X00009925Y00014738D01*
X00009912Y00014754D01*
X00009900Y00014772D01*
X00009889Y00014790D01*
X00009879Y00014808D01*
X00009870Y00014827D01*
X00009862Y00014847D01*
X00009855Y00014867D01*
X00009849Y00014887D01*
X00009845Y00014908D01*
X00009841Y00014928D01*
X00009838Y00014949D01*
X00009837Y00014970D01*
X00009834Y00015048D01*
X00009821Y00015213D01*
X00009804Y00015378D01*
X00009780Y00015541D01*
X00009751Y00015704D01*
X00009717Y00015866D01*
X00009677Y00016027D01*
X00009632Y00016186D01*
X00009581Y00016344D01*
X00009526Y00016499D01*
X00009465Y00016653D01*
X00009399Y00016805D01*
X00009327Y00016954D01*
X00009251Y00017101D01*
X00009170Y00017245D01*
X00009084Y00017387D01*
X00008994Y00017525D01*
X00008899Y00017661D01*
X00008799Y00017793D01*
X00008695Y00017921D01*
X00008587Y00018047D01*
X00008474Y00018168D01*
X00008358Y00018285D01*
X00008237Y00018399D01*
X00008113Y00018508D01*
X00007986Y00018614D01*
X00007854Y00018715D01*
X00007720Y00018811D01*
X00007582Y00018903D01*
X00007442Y00018990D01*
X00007298Y00019072D01*
X00007152Y00019150D01*
X00007003Y00019222D01*
X00006852Y00019290D01*
X00006699Y00019352D01*
X00006544Y00019409D01*
X00006387Y00019461D01*
X00006228Y00019508D01*
X00006068Y00019549D01*
X00005906Y00019585D01*
X00005743Y00019615D01*
X00005580Y00019640D01*
X00005415Y00019660D01*
X00005251Y00019673D01*
X00005085Y00019682D01*
X00004920Y00019685D01*
X00004754Y00019682D01*
X00004589Y00019673D01*
X00004424Y00019659D01*
X00004260Y00019640D01*
X00004096Y00019615D01*
X00003934Y00019585D01*
X00003772Y00019549D01*
X00003612Y00019507D01*
X00003453Y00019461D01*
X00003296Y00019409D01*
X00003141Y00019351D01*
X00002988Y00019289D01*
X00002837Y00019221D01*
X00002688Y00019149D01*
X00002542Y00019071D01*
X00002398Y00018989D01*
X00002258Y00018902D01*
X00002120Y00018810D01*
X00001986Y00018713D01*
X00001855Y00018613D01*
X00001727Y00018507D01*
X00001603Y00018398D01*
X00001483Y00018284D01*
X00001366Y00018167D01*
X00001254Y00018045D01*
X00001145Y00017920D01*
X00001041Y00017791D01*
X00000942Y00017659D01*
X00000847Y00017524D01*
X00000756Y00017385D01*
X00000670Y00017244D01*
X00000589Y00017100D01*
X00000513Y00016953D01*
X00000442Y00016803D01*
X00000376Y00016652D01*
X00000315Y00016498D01*
X00000260Y00016342D01*
X00000209Y00016184D01*
X00000164Y00016025D01*
X00000124Y00015865D01*
X00000090Y00015703D01*
X00000061Y00015540D01*
X00000038Y00015376D01*
X00000020Y00015211D01*
X00000008Y00015046D01*
X00000001Y00014881D01*
X00000000Y00014716D01*
X00000004Y00014550D01*
X00000014Y00014385D01*
X00000030Y00014220D01*
X00000051Y00014056D01*
X00000077Y00013893D01*
X00000109Y00013731D01*
X00000147Y00013569D01*
X00000189Y00013410D01*
X00000238Y00013251D01*
X00000291Y00013095D01*
X00000350Y00012940D01*
X00000414Y00012787D01*
X00000483Y00012637D01*
X00000557Y00012489D01*
X00000635Y00012344D01*
X00000719Y00012201D01*
X00000808Y00012061D01*
X00000901Y00011924D01*
X00000999Y00011791D01*
X00001101Y00011661D01*
X00001207Y00011534D01*
X00001318Y00011411D01*
X00001433Y00011292D01*
X00001551Y00011176D01*
X00001674Y00011065D01*
X00001730Y00011017D01*
X00001730Y00011017D01*
X00001743Y00011006D01*
X00001756Y00010994D01*
X00001767Y00010981D01*
X00001778Y00010969D01*
X00001789Y00010955D01*
X00001799Y00010941D01*
X00001809Y00010927D01*
X00001817Y00010913D01*
X00001826Y00010898D01*
X00001833Y00010882D01*
X00001840Y00010867D01*
X00001846Y00010851D01*
X00001851Y00010835D01*
X00001856Y00010818D01*
X00001860Y00010802D01*
X00001864Y00010785D01*
X00001866Y00010768D01*
X00001868Y00010751D01*
X00001869Y00010734D01*
X00001869Y00010717D01*
X00001869Y00008967D01*
X00001869Y00008950D01*
X00001868Y00008933D01*
X00001866Y00008916D01*
X00001863Y00008899D01*
X00001860Y00008882D01*
X00001856Y00008866D01*
X00001851Y00008849D01*
X00001846Y00008833D01*
X00001840Y00008817D01*
X00001833Y00008802D01*
X00001825Y00008786D01*
X00001817Y00008771D01*
X00001808Y00008757D01*
X00001799Y00008743D01*
X00001789Y00008729D01*
X00001778Y00008715D01*
X00001767Y00008703D01*
X00001755Y00008690D01*
X00001743Y00008678D01*
X00001730Y00008667D01*
X00001672Y00008618D01*
X00001550Y00008506D01*
X00001431Y00008391D01*
X00001317Y00008272D01*
X00001206Y00008149D01*
X00001100Y00008022D01*
X00000998Y00007892D01*
X00000900Y00007758D01*
X00000807Y00007621D01*
X00000718Y00007482D01*
X00000635Y00007339D01*
X00000556Y00007193D01*
X00000482Y00007045D01*
X00000413Y00006895D01*
X00000349Y00006742D01*
X00000290Y00006588D01*
X00000237Y00006431D01*
X00000189Y00006273D01*
X00000146Y00006113D01*
X00000109Y00005952D01*
X00000077Y00005789D01*
X00000050Y00005626D01*
X00000029Y00005462D01*
X00000014Y00005297D01*
X00000004Y00005132D01*
X00000000Y00004967D01*
X00000001Y00004801D01*
X00000008Y00004636D01*
X00000020Y00004471D01*
X00000038Y00004306D01*
X00000061Y00004143D01*
X00000090Y00003980D01*
X00000125Y00003818D01*
X00000164Y00003657D01*
X00000210Y00003498D01*
X00000260Y00003340D01*
X00000316Y00003185D01*
X00000377Y00003031D01*
X00000443Y00002879D01*
X00000514Y00002730D01*
X00000590Y00002583D01*
X00000671Y00002439D01*
X00000757Y00002297D01*
X00000848Y00002159D01*
X00000943Y00002023D01*
X00001043Y00001891D01*
X00001147Y00001763D01*
X00001255Y00001637D01*
X00001367Y00001516D01*
X00001484Y00001399D01*
X00001604Y00001285D01*
X00001728Y00001176D01*
X00001856Y00001070D01*
X00001987Y00000970D01*
X00002122Y00000873D01*
X00002259Y00000781D01*
X00002400Y00000694D01*
X00002543Y00000612D01*
X00002690Y00000534D01*
X00002838Y00000462D01*
X00002989Y00000394D01*
X00003143Y00000332D01*
X00003298Y00000275D01*
X00003455Y00000223D01*
X00003614Y00000176D01*
X00003774Y00000135D01*
X00003936Y00000099D01*
X00004098Y00000069D01*
X00004262Y00000044D01*
X00004426Y00000024D01*
X00004591Y00000011D01*
X00004756Y00000002D01*
X00004922Y00000000D01*
X00005087Y00000002D01*
X00005252Y00000011D01*
X00005417Y00000025D01*
X00005582Y00000044D01*
X00005745Y00000069D01*
X00005908Y00000099D01*
X00006069Y00000135D01*
X00006229Y00000177D01*
X00006388Y00000223D01*
X00006545Y00000275D01*
X00006701Y00000333D01*
X00006854Y00000395D01*
X00007005Y00000463D01*
X00007153Y00000535D01*
X00007300Y00000613D01*
X00007443Y00000695D01*
X00007584Y00000782D01*
X00007721Y00000874D01*
X00007856Y00000971D01*
X00007987Y00001071D01*
X00008115Y00001177D01*
X00008239Y00001286D01*
X00008359Y00001400D01*
X00008475Y00001517D01*
X00008588Y00001639D01*
X00008696Y00001764D01*
X00008800Y00001893D01*
X00008900Y00002025D01*
X00008995Y00002160D01*
X00009085Y00002299D01*
X00009171Y00002440D01*
X00009252Y00002584D01*
X00009328Y00002731D01*
X00009399Y00002881D01*
X00009465Y00003032D01*
X00009526Y00003186D01*
X00009582Y00003342D01*
X00009632Y00003500D01*
X00009677Y00003659D01*
X00009717Y00003819D01*
X00009752Y00003981D01*
X00009780Y00004144D01*
X00009804Y00004308D01*
X00009822Y00004473D01*
X00009834Y00004638D01*
X00009837Y00004712D01*
X00010755Y00006729D02*
X00010755Y00006729D01*
X00010777Y00006700D01*
X00010797Y00006669D01*
X00010813Y00006637D01*
X00010826Y00006603D01*
X00010837Y00006569D01*
X00010844Y00006533D01*
X00010847Y00006497D01*
X00010848Y00006461D01*
X00010845Y00006425D01*
X00010838Y00006390D01*
X00010829Y00006355D01*
X00010816Y00006321D01*
X00010801Y00006288D01*
X00010782Y00006257D01*
X00010761Y00006228D01*
X00010737Y00006201D01*
X00010710Y00006176D01*
X00010682Y00006154D01*
X00010651Y00006135D01*
X00010619Y00006118D01*
X00010221Y00005934D01*
X00010189Y00005921D01*
X00010156Y00005910D01*
X00010123Y00005903D01*
X00010089Y00005899D01*
X00010054Y00005897D01*
X00010020Y00005899D01*
X00009986Y00005903D01*
X00009953Y00005911D01*
X00009920Y00005921D01*
X00009888Y00005934D01*
X00009858Y00005950D01*
X00009829Y00005969D01*
X00009802Y00005990D01*
X00009777Y00006013D01*
X00009754Y00006038D01*
X00009733Y00006065D01*
X00009714Y00006094D01*
X00009698Y00006125D01*
X00009685Y00006156D01*
X00009675Y00006189D01*
X00009652Y00006274D01*
X00009604Y00006433D01*
X00009551Y00006589D01*
X00009492Y00006744D01*
X00009428Y00006897D01*
X00009359Y00007047D01*
X00009285Y00007195D01*
X00009206Y00007340D01*
X00009122Y00007483D01*
X00009034Y00007623D01*
X00008941Y00007760D01*
X00008843Y00007893D01*
X00008741Y00008023D01*
X00008634Y00008150D01*
X00008524Y00008273D01*
X00008409Y00008392D01*
X00008290Y00008508D01*
X00008168Y00008619D01*
X00008042Y00008726D01*
X00007912Y00008829D01*
X00007779Y00008927D01*
X00007643Y00009021D01*
X00007503Y00009110D01*
X00007361Y00009194D01*
X00007216Y00009274D01*
X00007068Y00009349D01*
X00006918Y00009418D01*
X00006766Y00009483D01*
X00006611Y00009542D01*
X00006455Y00009597D01*
X00006297Y00009646D01*
X00003543Y00009645D01*
X00003543Y00009645D01*
X00003385Y00009596D01*
X00003228Y00009542D01*
X00003074Y00009482D01*
X00002958Y00009433D01*
X00002958Y00009433D01*
X00002921Y00009420D01*
X00002884Y00009410D01*
X00002846Y00009404D01*
X00002807Y00009402D01*
X00002768Y00009403D01*
X00002729Y00009409D01*
X00002692Y00009418D01*
X00002655Y00009431D01*
X00002620Y00009448D01*
X00002587Y00009467D01*
X00002555Y00009490D01*
X00002526Y00009516D01*
X00002500Y00009545D01*
X00002477Y00009576D01*
X00002457Y00009610D01*
X00002440Y00009645D01*
X00002427Y00009681D01*
X00002418Y00009719D01*
X00002412Y00009757D01*
X00002410Y00009796D01*
X00002411Y00009889D01*
X00002413Y00009928D01*
X00002418Y00009966D01*
X00002428Y00010004D01*
X00002441Y00010040D01*
X00002458Y00010075D01*
X00002478Y00010108D01*
X00002501Y00010139D01*
X00002527Y00010168D01*
X00002556Y00010194D01*
X00002587Y00010217D01*
X00002620Y00010237D01*
X00002656Y00010253D01*
X00002692Y00010266D01*
X00002730Y00010275D01*
X00002768Y00010281D01*
X00002807Y00010282D01*
X00002846Y00010280D01*
X00002884Y00010274D01*
X00002922Y00010264D01*
X00002958Y00010251D01*
X00003076Y00010201D01*
X00003230Y00010142D01*
X00003386Y00010087D01*
X00003544Y00010038D01*
X00006299Y00010039D01*
X00006299Y00010039D01*
X00006457Y00010088D01*
X00006613Y00010142D01*
X00006767Y00010202D01*
X00006920Y00010266D01*
X00007070Y00010336D01*
X00007217Y00010411D01*
X00007362Y00010490D01*
X00007505Y00010575D01*
X00007644Y00010664D01*
X00007780Y00010758D01*
X00007913Y00010856D01*
X00008043Y00010959D01*
X00008169Y00011066D01*
X00008292Y00011178D01*
X00008410Y00011293D01*
X00008525Y00011412D01*
X00008635Y00011535D01*
X00008742Y00011662D01*
X00008844Y00011792D01*
X00008942Y00011926D01*
X00009035Y00012063D01*
X00009123Y00012202D01*
X00009207Y00012345D01*
X00009286Y00012491D01*
X00009360Y00012639D01*
X00009429Y00012789D01*
X00009492Y00012942D01*
X00009551Y00013096D01*
X00009605Y00013253D01*
X00009653Y00013411D01*
X00009694Y00013567D01*
X00009705Y00013601D01*
X00009719Y00013634D01*
X00009736Y00013665D01*
X00009755Y00013695D01*
X00009777Y00013723D01*
X00009802Y00013749D01*
X00009829Y00013772D01*
X00009857Y00013793D01*
X00009888Y00013812D01*
X00009920Y00013827D01*
X00009953Y00013840D01*
X00009988Y00013849D01*
X00010023Y00013855D01*
X00010058Y00013858D01*
X00010094Y00013858D01*
X00010130Y00013855D01*
X00010165Y00013848D01*
X00010199Y00013839D01*
X00010232Y00013826D01*
X00010264Y00013810D01*
X00010671Y00013587D01*
X00010700Y00013569D01*
X00010728Y00013549D01*
X00010754Y00013526D01*
X00010777Y00013501D01*
X00010799Y00013474D01*
X00010818Y00013445D01*
X00010835Y00013415D01*
X00010848Y00013384D01*
X00010859Y00013351D01*
X00010867Y00013318D01*
X00010873Y00013284D01*
X00010875Y00013249D01*
X00010874Y00013215D01*
X00010870Y00013181D01*
X00010863Y00013147D01*
X00010854Y00013114D01*
X00010841Y00013082D01*
X00010826Y00013051D01*
X00010808Y00013022D01*
X00010787Y00012994D01*
X00010687Y00012870D01*
X00010588Y00012738D01*
X00010492Y00012603D01*
X00010402Y00012464D01*
X00010316Y00012323D01*
X00010235Y00012178D01*
X00010159Y00012031D01*
X00010088Y00011882D01*
X00010022Y00011730D01*
X00009961Y00011576D01*
X00009905Y00011421D01*
X00009855Y00011263D01*
X00009810Y00011104D01*
X00009770Y00010943D01*
X00009736Y00010781D01*
X00009707Y00010618D01*
X00009683Y00010455D01*
X00009666Y00010290D01*
X00009653Y00010125D01*
X00009647Y00009960D01*
X00009645Y00009794D01*
X00009650Y00009629D01*
X00009660Y00009464D01*
X00009675Y00009299D01*
X00009696Y00009135D01*
X00009723Y00008972D01*
X00009755Y00008809D01*
X00009792Y00008648D01*
X00009835Y00008488D01*
X00009883Y00008330D01*
X00009937Y00008173D01*
X00009995Y00008019D01*
X00010059Y00007866D01*
X00010128Y00007716D01*
X00010202Y00007568D01*
X00010281Y00007422D01*
X00010365Y00007280D01*
X00010453Y00007140D01*
X00010547Y00007003D01*
X00010644Y00006870D01*
X00010746Y00006739D01*
X00010755Y00006729D01*
M02*