G04 #@! TF.GenerationSoftware,KiCad,Pcbnew,5.0.2-bee76a0~70~ubuntu18.04.1*
G04 #@! TF.CreationDate,2019-09-04T19:42:23+02:00*
G04 #@! TF.ProjectId,upper_Sensor,75707065-725f-4536-956e-736f722e6b69,rev?*
G04 #@! TF.SameCoordinates,Original*
G04 #@! TF.FileFunction,Copper,L1,Top*
G04 #@! TF.FilePolarity,Positive*
%FSLAX46Y46*%
G04 Gerber Fmt 4.6, Leading zero omitted, Abs format (unit mm)*
G04 Created by KiCad (PCBNEW 5.0.2-bee76a0~70~ubuntu18.04.1) date Mi 04 Sep 2019 19:42:23 CEST*
%MOMM*%
%LPD*%
G01*
G04 APERTURE LIST*
G04 #@! TA.AperFunction,SMDPad,CuDef*
%ADD10R,0.630000X0.230000*%
G04 #@! TD*
G04 #@! TA.AperFunction,BGAPad,CuDef*
%ADD11C,0.150000*%
G04 #@! TD*
G04 #@! TA.AperFunction,ViaPad*
%ADD12C,0.600000*%
G04 #@! TD*
G04 #@! TA.AperFunction,Conductor*
%ADD13C,0.130000*%
G04 #@! TD*
G04 #@! TA.AperFunction,Conductor*
%ADD14C,0.300000*%
G04 #@! TD*
G04 #@! TA.AperFunction,Conductor*
%ADD15C,0.100000*%
G04 #@! TD*
G04 APERTURE END LIST*
D10*
G04 #@! TO.P,J11,10*
G04 #@! TO.N,O2_ELEC1*
X117825000Y-79200000D03*
G04 #@! TO.P,J11,9*
G04 #@! TO.N,ELEC1*
X116175000Y-79200000D03*
G04 #@! TO.P,J11,8*
G04 #@! TO.N,Net-(J11-Pad8)*
X117825000Y-79600000D03*
G04 #@! TO.P,J11,7*
G04 #@! TO.N,Net-(J11-Pad7)*
X116175000Y-79600000D03*
G04 #@! TO.P,J11,6*
G04 #@! TO.N,GNDD*
X117825000Y-80000000D03*
G04 #@! TO.P,J11,5*
G04 #@! TO.N,Net-(J11-Pad5)*
X116175000Y-80000000D03*
G04 #@! TO.P,J11,4*
G04 #@! TO.N,RF_ANT*
X117825000Y-80400000D03*
G04 #@! TO.P,J11,3*
G04 #@! TO.N,GNDD*
X116175000Y-80400000D03*
G04 #@! TO.P,J11,2*
X117825000Y-80800000D03*
G04 #@! TO.P,J11,1*
G04 #@! TO.N,Net-(J11-Pad1)*
X116175000Y-80800000D03*
G04 #@! TD*
G04 #@! TO.P,J12,10*
G04 #@! TO.N,GNDD*
X103825000Y-79200000D03*
G04 #@! TO.P,J12,9*
G04 #@! TO.N,N/C*
X102175000Y-79200000D03*
G04 #@! TO.P,J12,8*
G04 #@! TO.N,REFFET1_D2*
X103825000Y-79600000D03*
G04 #@! TO.P,J12,7*
G04 #@! TO.N,ISFET1_D4*
X102175000Y-79600000D03*
G04 #@! TO.P,J12,6*
G04 #@! TO.N,REFFET1_D3*
X103825000Y-80000000D03*
G04 #@! TO.P,J12,5*
G04 #@! TO.N,ISFET1_D3*
X102175000Y-80000000D03*
G04 #@! TO.P,J12,4*
G04 #@! TO.N,REFFET1_D4*
X103825000Y-80400000D03*
G04 #@! TO.P,J12,3*
G04 #@! TO.N,ISFET1_D2*
X102175000Y-80400000D03*
G04 #@! TO.P,J12,2*
G04 #@! TO.N,N/C*
X103825000Y-80800000D03*
G04 #@! TO.P,J12,1*
G04 #@! TO.N,ISFET1_D1*
X102175000Y-80800000D03*
G04 #@! TD*
D11*
G04 #@! TO.P,REF\002A\002A,D4i*
G04 #@! TO.N,ISFET1_D4*
X110753000Y-79450000D03*
G04 #@! TO.P,REF\002A\002A,D2i*
G04 #@! TO.N,ISFET1_D2*
X110753000Y-80330000D03*
G04 #@! TO.P,REF\002A\002A,D3i*
G04 #@! TO.N,ISFET1_D3*
X110753000Y-79890000D03*
G04 #@! TO.P,REF\002A\002A,D1i*
G04 #@! TO.N,ISFET1_D1*
X110550000Y-80753000D03*
G04 #@! TO.P,REF\002A\002A,SUB*
G04 #@! TO.N,N/C*
X109670000Y-80753000D03*
G04 #@! TO.P,REF\002A\002A,S*
X110110000Y-80753000D03*
G04 #@! TO.P,REF\002A\002A,D3m*
G04 #@! TO.N,REFFET1_D3*
X109247000Y-79890000D03*
G04 #@! TO.P,REF\002A\002A,D4m*
G04 #@! TO.N,REFFET1_D4*
X109247000Y-79450000D03*
G04 #@! TO.P,REF\002A\002A,D2m*
G04 #@! TO.N,REFFET1_D2*
X109247000Y-80330000D03*
G04 #@! TO.P,REF\002A\002A,G*
G04 #@! TO.N,N/C*
X109670000Y-79247000D03*
G04 #@! TO.P,REF\002A\002A,O2*
G04 #@! TO.N,O2_ELEC1*
X110330000Y-79247000D03*
G04 #@! TO.P,REF\002A\002A,ELEC*
G04 #@! TO.N,ELEC1*
X110110000Y-79247000D03*
G04 #@! TD*
D12*
G04 #@! TO.N,GNDD*
X117600000Y-81400000D03*
G04 #@! TO.N,*
X102897693Y-81051700D03*
X102200000Y-78550000D03*
G04 #@! TO.N,GNDD*
X110797475Y-89115181D03*
X111588881Y-89010990D03*
X112368194Y-88838220D03*
X113129484Y-88598186D03*
X114575000Y-87924131D03*
X113866957Y-88292715D03*
X117924130Y-84574999D03*
X118292714Y-83866956D03*
X118598185Y-83129483D03*
X118598183Y-76870516D03*
X118292712Y-76133044D03*
X117924128Y-75425001D03*
X118838217Y-77631806D03*
X119010987Y-78411119D03*
X114574998Y-72075871D03*
X112368193Y-71161782D03*
X111588880Y-70989012D03*
X113129483Y-71401816D03*
X113866955Y-71707287D03*
X110797474Y-70884822D03*
X108411119Y-70989014D03*
X107631806Y-71161784D03*
X109202524Y-70884823D03*
X109999999Y-70850004D03*
X106870516Y-71401818D03*
X105425002Y-72075873D03*
X106133044Y-71707289D03*
X102075872Y-75425003D03*
X101707288Y-76133046D03*
X102075875Y-84574997D03*
X101401820Y-83129483D03*
X101707291Y-83866955D03*
X105425005Y-87924127D03*
X106133047Y-88292710D03*
X106870519Y-88598181D03*
X107631808Y-88838215D03*
X108411121Y-89010984D03*
X109202526Y-89115174D03*
X118838219Y-82368193D03*
X119010989Y-81588880D03*
X119115178Y-79202524D03*
X101401817Y-76870518D03*
X101161783Y-77631808D03*
X100989014Y-78411121D03*
X100884824Y-79202526D03*
X110000000Y-89150000D03*
X118300000Y-81400000D03*
X118200000Y-78600000D03*
X104700000Y-79200000D03*
X106550000Y-78650000D03*
X105050000Y-80600000D03*
X115300000Y-80450000D03*
X118600000Y-79750000D03*
G04 #@! TO.N,RF_ANT*
X119491760Y-80403700D03*
G04 #@! TD*
D13*
G04 #@! TO.N,*
X102842060Y-81285080D02*
X109138720Y-81285080D01*
X109138720Y-81285080D02*
X109928660Y-81285080D01*
X109928660Y-81285080D02*
X110109000Y-81104740D01*
X110109000Y-81104740D02*
X110109000Y-80756760D01*
X109672120Y-81127880D02*
X109672120Y-80751680D01*
X109138720Y-81285080D02*
X109514920Y-81285080D01*
X109514920Y-81285080D02*
X109672120Y-81127880D01*
X102842060Y-81285080D02*
X102842060Y-81107333D01*
X102842060Y-81107333D02*
X102897693Y-81051700D01*
X102200000Y-78550000D02*
X102200000Y-79200000D01*
X109664500Y-78864500D02*
X109664500Y-79217520D01*
X103450000Y-80800000D02*
X102689989Y-80039989D01*
X103880000Y-80800000D02*
X103450000Y-80800000D01*
X102689989Y-80039989D02*
X102689989Y-78742300D01*
X103332289Y-78100000D02*
X108900000Y-78100000D01*
X102689989Y-78742300D02*
X103332289Y-78100000D01*
X108900000Y-78100000D02*
X109664500Y-78864500D01*
G04 #@! TO.N,REFFET1_D2*
X103880000Y-79600000D02*
X103814999Y-79534999D01*
X106746040Y-80332580D02*
X109273340Y-80332580D01*
X106263460Y-79850000D02*
X104600000Y-79850000D01*
X106746040Y-80332580D02*
X106263460Y-79850000D01*
X104600000Y-79850000D02*
X104350000Y-79600000D01*
X104350000Y-79600000D02*
X103800000Y-79600000D01*
G04 #@! TO.N,REFFET1_D3*
X105401190Y-78620022D02*
X106671788Y-79890620D01*
X103800829Y-78620022D02*
X105401190Y-78620022D01*
X106671788Y-79890620D02*
X109204999Y-79890620D01*
X103623975Y-78620023D02*
X103210010Y-79033988D01*
X103210010Y-79033988D02*
X103210010Y-79742302D01*
X103210010Y-79742302D02*
X103467708Y-80000000D01*
X103467708Y-80000000D02*
X103700000Y-80000000D01*
X103629977Y-78620023D02*
X103629979Y-78620021D01*
X103623975Y-78620023D02*
X103629977Y-78620023D01*
X103629979Y-78620021D02*
X103850000Y-78620021D01*
G04 #@! TO.N,REFFET1_D4*
X105508887Y-78360011D02*
X106600076Y-79451200D01*
X103500000Y-80400000D02*
X102950000Y-79850000D01*
X103439989Y-78360011D02*
X105508887Y-78360011D01*
X102950000Y-78850000D02*
X103439989Y-78360011D01*
X102950000Y-79850000D02*
X102950000Y-78850000D01*
X103880000Y-80400000D02*
X103500000Y-80400000D01*
X106600076Y-79451200D02*
X109255560Y-79451200D01*
G04 #@! TO.N,ISFET1_D4*
X111275450Y-79451200D02*
X110771940Y-79451200D01*
X111746620Y-79922370D02*
X111275450Y-79451200D01*
X111746620Y-81753380D02*
X111746620Y-79922370D01*
X102150000Y-79600000D02*
X101800000Y-79600000D01*
X101800000Y-79600000D02*
X101000000Y-80400000D01*
X101000000Y-80400000D02*
X101000000Y-81642068D01*
X101000000Y-81642068D02*
X101690422Y-82332490D01*
X111167510Y-82332490D02*
X111746620Y-81753380D01*
X101690422Y-82332490D02*
X111167510Y-82332490D01*
G04 #@! TO.N,ISFET1_D3*
X111349700Y-79893160D02*
X110795001Y-79893160D01*
X111486609Y-80030069D02*
X111349700Y-79893160D01*
X111486609Y-80876568D02*
X111486609Y-80030069D01*
X111486609Y-80876568D02*
X111486609Y-81613391D01*
X111486609Y-81613391D02*
X111027520Y-82072480D01*
X101798769Y-82072479D02*
X110290697Y-82072479D01*
X101300000Y-81573710D02*
X101798769Y-82072479D01*
X110290697Y-82072479D02*
X111027521Y-82072479D01*
X101300000Y-80500000D02*
X101300000Y-81573710D01*
X102100000Y-80000000D02*
X101800000Y-80000000D01*
X101800000Y-80000000D02*
X101300000Y-80500000D01*
G04 #@! TO.N,ISFET1_D2*
X111226600Y-80768869D02*
X111226600Y-80505300D01*
X111226600Y-80505300D02*
X111058960Y-80337660D01*
X111058960Y-80337660D02*
X110769400Y-80337660D01*
X111226600Y-80768869D02*
X111226600Y-81473400D01*
X111226600Y-81473400D02*
X110900000Y-81800000D01*
X110900000Y-81800000D02*
X110200000Y-81800000D01*
X101900708Y-81806710D02*
X102759001Y-81806710D01*
X101600000Y-81506002D02*
X101900708Y-81806710D01*
X101600000Y-80650000D02*
X101600000Y-81506002D01*
X102100000Y-80400000D02*
X101850000Y-80400000D01*
X102759001Y-81806710D02*
X110188759Y-81806710D01*
X101850000Y-80400000D02*
X101600000Y-80650000D01*
G04 #@! TO.N,ISFET1_D1*
X110556040Y-81071720D02*
X110556040Y-80764380D01*
X110081060Y-81546700D02*
X110556040Y-81071720D01*
X102150000Y-80800000D02*
X102150000Y-81350000D01*
X102346700Y-81546700D02*
X110081060Y-81546700D01*
X102150000Y-81350000D02*
X102346700Y-81546700D01*
G04 #@! TO.N,ELEC1*
X110157260Y-78592680D02*
X110101380Y-78648560D01*
X114867680Y-78592680D02*
X110157260Y-78592680D01*
X115675000Y-79200000D02*
X115475000Y-79200000D01*
X110101380Y-78648560D02*
X110101380Y-79209900D01*
X115475000Y-79200000D02*
X114867680Y-78592680D01*
X115675000Y-79200000D02*
X116100000Y-79200000D01*
D14*
G04 #@! TO.N,RF_ANT*
X119488060Y-80400000D02*
X119491760Y-80403700D01*
X117850000Y-80400000D02*
X119488060Y-80400000D01*
D13*
G04 #@! TO.N,O2_ELEC1*
X110380001Y-78919999D02*
X110380001Y-79197200D01*
X111044650Y-78852690D02*
X110447310Y-78852690D01*
X110447310Y-78852690D02*
X110380001Y-78919999D01*
X117300000Y-79200000D02*
X116750000Y-79750000D01*
X117850000Y-79200000D02*
X117300000Y-79200000D01*
X116750000Y-79750000D02*
X116750000Y-81006002D01*
X116750000Y-81006002D02*
X116606002Y-81150000D01*
X116606002Y-81150000D02*
X113341960Y-81150000D01*
X113341960Y-81150000D02*
X111044650Y-78852690D01*
G04 #@! TD*
D15*
G04 #@! TO.N,GNDD*
G36*
X111233460Y-70630953D02*
X112445808Y-70872104D01*
X113616320Y-71269438D01*
X114724952Y-71816156D01*
X115424441Y-72283539D01*
X115276484Y-72727022D01*
X115280984Y-73300016D01*
X115470845Y-73840660D01*
X115825593Y-74290656D01*
X116306977Y-74601482D01*
X116863089Y-74739621D01*
X117433964Y-74690178D01*
X117711163Y-74567630D01*
X118183844Y-75275048D01*
X118730562Y-76383680D01*
X119127896Y-77554192D01*
X119369047Y-78766540D01*
X119444892Y-79923700D01*
X119396282Y-79923700D01*
X119219862Y-79996775D01*
X119146637Y-80070000D01*
X118265000Y-80070000D01*
X118252500Y-80057500D01*
X117925000Y-80057500D01*
X117925000Y-80070000D01*
X117817498Y-80070000D01*
X117725000Y-80088399D01*
X117725000Y-80057500D01*
X117397500Y-80057500D01*
X117360000Y-80095000D01*
X117360000Y-80144837D01*
X117370398Y-80169940D01*
X117340444Y-80214768D01*
X117326474Y-80285000D01*
X117326474Y-80515000D01*
X117340444Y-80585232D01*
X117370398Y-80630060D01*
X117360000Y-80655163D01*
X117360000Y-80705000D01*
X117397500Y-80742500D01*
X117725000Y-80742500D01*
X117725000Y-80711601D01*
X117817498Y-80730000D01*
X117925000Y-80730000D01*
X117925000Y-80742500D01*
X118252500Y-80742500D01*
X118265000Y-80730000D01*
X119139237Y-80730000D01*
X119219862Y-80810625D01*
X119392086Y-80881962D01*
X119369047Y-81233460D01*
X119127896Y-82445808D01*
X118730562Y-83616320D01*
X118183844Y-84724952D01*
X117711430Y-85431970D01*
X117407362Y-85303214D01*
X116835781Y-85262744D01*
X116281907Y-85409601D01*
X115805465Y-85727950D01*
X115457829Y-86183462D01*
X115276484Y-86727022D01*
X115280984Y-87300016D01*
X115426699Y-87714952D01*
X114724952Y-88183844D01*
X113616320Y-88730562D01*
X112445808Y-89127896D01*
X111233460Y-89369047D01*
X110000000Y-89449893D01*
X108766540Y-89369047D01*
X107554192Y-89127896D01*
X106383680Y-88730562D01*
X105275048Y-88183844D01*
X104570975Y-87713398D01*
X104650919Y-87565236D01*
X104745000Y-87000000D01*
X104744785Y-86972591D01*
X104641837Y-86408902D01*
X104361851Y-85908952D01*
X104080390Y-85656854D01*
X106426572Y-85656854D01*
X106483282Y-85941954D01*
X106644778Y-86183649D01*
X106886473Y-86345145D01*
X107171573Y-86401855D01*
X107456673Y-86345145D01*
X107698368Y-86183649D01*
X107859864Y-85941954D01*
X107916574Y-85656854D01*
X107859864Y-85371754D01*
X107698368Y-85130059D01*
X107456673Y-84968563D01*
X107171573Y-84911853D01*
X106886473Y-84968563D01*
X106644778Y-85130059D01*
X106483282Y-85371754D01*
X106426572Y-85656854D01*
X104080390Y-85656854D01*
X103935018Y-85526648D01*
X103407362Y-85303214D01*
X102835781Y-85262744D01*
X102281907Y-85409601D01*
X102276180Y-85413428D01*
X101816156Y-84724952D01*
X101269438Y-83616320D01*
X101001986Y-82828427D01*
X114911853Y-82828427D01*
X114968563Y-83113527D01*
X115130059Y-83355222D01*
X115371754Y-83516718D01*
X115656854Y-83573428D01*
X115941954Y-83516718D01*
X116183649Y-83355222D01*
X116345145Y-83113527D01*
X116401855Y-82828427D01*
X116345145Y-82543327D01*
X116183649Y-82301632D01*
X115941954Y-82140136D01*
X115656854Y-82083426D01*
X115371754Y-82140136D01*
X115130059Y-82301632D01*
X114968563Y-82543327D01*
X114911853Y-82828427D01*
X101001986Y-82828427D01*
X100872104Y-82445808D01*
X100630953Y-81233460D01*
X100576325Y-80400000D01*
X100750201Y-80400000D01*
X100755000Y-80424126D01*
X100755001Y-81617937D01*
X100750201Y-81642068D01*
X100769216Y-81737661D01*
X100769217Y-81737662D01*
X100823366Y-81818703D01*
X100843822Y-81832371D01*
X101500119Y-82488669D01*
X101513787Y-82509125D01*
X101594828Y-82563274D01*
X101666296Y-82577490D01*
X101666297Y-82577490D01*
X101690421Y-82582289D01*
X101714546Y-82577490D01*
X111143384Y-82577490D01*
X111167510Y-82582289D01*
X111191636Y-82577490D01*
X111263104Y-82563274D01*
X111344145Y-82509125D01*
X111357815Y-82488666D01*
X111902799Y-81943683D01*
X111923255Y-81930015D01*
X111977404Y-81848974D01*
X111991620Y-81777506D01*
X111991620Y-81777505D01*
X111996419Y-81753381D01*
X111991620Y-81729256D01*
X111991620Y-80146141D01*
X113151657Y-81306179D01*
X113165325Y-81326635D01*
X113241719Y-81377679D01*
X113246366Y-81380784D01*
X113341960Y-81399799D01*
X113366086Y-81395000D01*
X116581876Y-81395000D01*
X116606002Y-81399799D01*
X116630128Y-81395000D01*
X116701596Y-81380784D01*
X116782637Y-81326635D01*
X116796307Y-81306176D01*
X116906176Y-81196307D01*
X116926635Y-81182637D01*
X116980784Y-81101596D01*
X116995000Y-81030128D01*
X116999799Y-81006002D01*
X116995000Y-80981876D01*
X116995000Y-80895000D01*
X117360000Y-80895000D01*
X117360000Y-80944837D01*
X117382836Y-80999968D01*
X117425032Y-81042164D01*
X117480163Y-81065000D01*
X117687500Y-81065000D01*
X117725000Y-81027500D01*
X117725000Y-80857500D01*
X117925000Y-80857500D01*
X117925000Y-81027500D01*
X117962500Y-81065000D01*
X118169837Y-81065000D01*
X118224968Y-81042164D01*
X118267164Y-80999968D01*
X118290000Y-80944837D01*
X118290000Y-80895000D01*
X118252500Y-80857500D01*
X117925000Y-80857500D01*
X117725000Y-80857500D01*
X117397500Y-80857500D01*
X117360000Y-80895000D01*
X116995000Y-80895000D01*
X116995000Y-79851481D01*
X117326474Y-79520008D01*
X117326474Y-79715000D01*
X117340444Y-79785232D01*
X117370398Y-79830060D01*
X117360000Y-79855163D01*
X117360000Y-79905000D01*
X117397500Y-79942500D01*
X117725000Y-79942500D01*
X117725000Y-79898526D01*
X117925000Y-79898526D01*
X117925000Y-79942500D01*
X118252500Y-79942500D01*
X118290000Y-79905000D01*
X118290000Y-79855163D01*
X118279602Y-79830060D01*
X118309556Y-79785232D01*
X118323526Y-79715000D01*
X118323526Y-79485000D01*
X118309556Y-79414768D01*
X118299688Y-79400000D01*
X118309556Y-79385232D01*
X118323526Y-79315000D01*
X118323526Y-79085000D01*
X118309556Y-79014768D01*
X118269772Y-78955228D01*
X118210232Y-78915444D01*
X118140000Y-78901474D01*
X117510000Y-78901474D01*
X117439768Y-78915444D01*
X117380569Y-78955000D01*
X117324124Y-78955000D01*
X117299999Y-78950201D01*
X117275874Y-78955000D01*
X117204406Y-78969216D01*
X117123365Y-79023365D01*
X117109697Y-79043821D01*
X116672695Y-79480824D01*
X116659556Y-79414768D01*
X116649688Y-79400000D01*
X116659556Y-79385232D01*
X116673526Y-79315000D01*
X116673526Y-79085000D01*
X116659556Y-79014768D01*
X116619772Y-78955228D01*
X116560232Y-78915444D01*
X116490000Y-78901474D01*
X115860000Y-78901474D01*
X115789768Y-78915444D01*
X115730569Y-78955000D01*
X115576482Y-78955000D01*
X115057985Y-78436504D01*
X115044315Y-78416045D01*
X114963274Y-78361896D01*
X114891806Y-78347680D01*
X114867680Y-78342881D01*
X114843554Y-78347680D01*
X110181384Y-78347680D01*
X110157259Y-78342881D01*
X110133135Y-78347680D01*
X110133134Y-78347680D01*
X110061666Y-78361896D01*
X109980625Y-78416045D01*
X109966955Y-78436504D01*
X109945204Y-78458255D01*
X109924745Y-78471925D01*
X109881501Y-78536646D01*
X109870596Y-78552967D01*
X109851581Y-78648560D01*
X109856380Y-78672686D01*
X109856380Y-78710681D01*
X109841135Y-78687865D01*
X109820679Y-78674197D01*
X109090305Y-77943824D01*
X109076635Y-77923365D01*
X108995594Y-77869216D01*
X108924126Y-77855000D01*
X108900000Y-77850201D01*
X108875874Y-77855000D01*
X104635525Y-77855000D01*
X104869941Y-77698368D01*
X105031437Y-77456673D01*
X105088147Y-77171573D01*
X105031437Y-76886473D01*
X104869941Y-76644778D01*
X104628246Y-76483282D01*
X104343146Y-76426572D01*
X104058046Y-76483282D01*
X103816351Y-76644778D01*
X103654855Y-76886473D01*
X103598145Y-77171573D01*
X103654855Y-77456673D01*
X103816351Y-77698368D01*
X104050767Y-77855000D01*
X103356413Y-77855000D01*
X103332288Y-77850201D01*
X103308163Y-77855000D01*
X103236695Y-77869216D01*
X103155654Y-77923365D01*
X103141986Y-77943821D01*
X102665732Y-78420076D01*
X102606925Y-78278102D01*
X102471898Y-78143075D01*
X102295478Y-78070000D01*
X102104522Y-78070000D01*
X101928102Y-78143075D01*
X101793075Y-78278102D01*
X101720000Y-78454522D01*
X101720000Y-78645478D01*
X101793075Y-78821898D01*
X101872651Y-78901474D01*
X101860000Y-78901474D01*
X101789768Y-78915444D01*
X101730228Y-78955228D01*
X101690444Y-79014768D01*
X101676474Y-79085000D01*
X101676474Y-79315000D01*
X101689270Y-79379329D01*
X101623365Y-79423365D01*
X101609697Y-79443821D01*
X100843824Y-80209695D01*
X100823365Y-80223365D01*
X100769217Y-80304405D01*
X100769216Y-80304407D01*
X100750201Y-80400000D01*
X100576325Y-80400000D01*
X100550107Y-80000000D01*
X100630953Y-78766540D01*
X100872104Y-77554192D01*
X101269438Y-76383680D01*
X101816156Y-75275048D01*
X102278503Y-74583096D01*
X102306977Y-74601482D01*
X102863089Y-74739621D01*
X103433964Y-74690178D01*
X103958045Y-74458484D01*
X104082816Y-74343146D01*
X112083426Y-74343146D01*
X112140136Y-74628246D01*
X112301632Y-74869941D01*
X112543327Y-75031437D01*
X112828427Y-75088147D01*
X113113527Y-75031437D01*
X113355222Y-74869941D01*
X113516718Y-74628246D01*
X113573428Y-74343146D01*
X113516718Y-74058046D01*
X113355222Y-73816351D01*
X113113527Y-73654855D01*
X112828427Y-73598145D01*
X112543327Y-73654855D01*
X112301632Y-73816351D01*
X112140136Y-74058046D01*
X112083426Y-74343146D01*
X104082816Y-74343146D01*
X104378820Y-74069523D01*
X104650919Y-73565236D01*
X104745000Y-73000000D01*
X104744785Y-72972591D01*
X104641837Y-72408902D01*
X104572700Y-72285449D01*
X105275048Y-71816156D01*
X106383680Y-71269438D01*
X107554192Y-70872104D01*
X108766540Y-70630953D01*
X110000000Y-70550107D01*
X111233460Y-70630953D01*
X111233460Y-70630953D01*
G37*
X111233460Y-70630953D02*
X112445808Y-70872104D01*
X113616320Y-71269438D01*
X114724952Y-71816156D01*
X115424441Y-72283539D01*
X115276484Y-72727022D01*
X115280984Y-73300016D01*
X115470845Y-73840660D01*
X115825593Y-74290656D01*
X116306977Y-74601482D01*
X116863089Y-74739621D01*
X117433964Y-74690178D01*
X117711163Y-74567630D01*
X118183844Y-75275048D01*
X118730562Y-76383680D01*
X119127896Y-77554192D01*
X119369047Y-78766540D01*
X119444892Y-79923700D01*
X119396282Y-79923700D01*
X119219862Y-79996775D01*
X119146637Y-80070000D01*
X118265000Y-80070000D01*
X118252500Y-80057500D01*
X117925000Y-80057500D01*
X117925000Y-80070000D01*
X117817498Y-80070000D01*
X117725000Y-80088399D01*
X117725000Y-80057500D01*
X117397500Y-80057500D01*
X117360000Y-80095000D01*
X117360000Y-80144837D01*
X117370398Y-80169940D01*
X117340444Y-80214768D01*
X117326474Y-80285000D01*
X117326474Y-80515000D01*
X117340444Y-80585232D01*
X117370398Y-80630060D01*
X117360000Y-80655163D01*
X117360000Y-80705000D01*
X117397500Y-80742500D01*
X117725000Y-80742500D01*
X117725000Y-80711601D01*
X117817498Y-80730000D01*
X117925000Y-80730000D01*
X117925000Y-80742500D01*
X118252500Y-80742500D01*
X118265000Y-80730000D01*
X119139237Y-80730000D01*
X119219862Y-80810625D01*
X119392086Y-80881962D01*
X119369047Y-81233460D01*
X119127896Y-82445808D01*
X118730562Y-83616320D01*
X118183844Y-84724952D01*
X117711430Y-85431970D01*
X117407362Y-85303214D01*
X116835781Y-85262744D01*
X116281907Y-85409601D01*
X115805465Y-85727950D01*
X115457829Y-86183462D01*
X115276484Y-86727022D01*
X115280984Y-87300016D01*
X115426699Y-87714952D01*
X114724952Y-88183844D01*
X113616320Y-88730562D01*
X112445808Y-89127896D01*
X111233460Y-89369047D01*
X110000000Y-89449893D01*
X108766540Y-89369047D01*
X107554192Y-89127896D01*
X106383680Y-88730562D01*
X105275048Y-88183844D01*
X104570975Y-87713398D01*
X104650919Y-87565236D01*
X104745000Y-87000000D01*
X104744785Y-86972591D01*
X104641837Y-86408902D01*
X104361851Y-85908952D01*
X104080390Y-85656854D01*
X106426572Y-85656854D01*
X106483282Y-85941954D01*
X106644778Y-86183649D01*
X106886473Y-86345145D01*
X107171573Y-86401855D01*
X107456673Y-86345145D01*
X107698368Y-86183649D01*
X107859864Y-85941954D01*
X107916574Y-85656854D01*
X107859864Y-85371754D01*
X107698368Y-85130059D01*
X107456673Y-84968563D01*
X107171573Y-84911853D01*
X106886473Y-84968563D01*
X106644778Y-85130059D01*
X106483282Y-85371754D01*
X106426572Y-85656854D01*
X104080390Y-85656854D01*
X103935018Y-85526648D01*
X103407362Y-85303214D01*
X102835781Y-85262744D01*
X102281907Y-85409601D01*
X102276180Y-85413428D01*
X101816156Y-84724952D01*
X101269438Y-83616320D01*
X101001986Y-82828427D01*
X114911853Y-82828427D01*
X114968563Y-83113527D01*
X115130059Y-83355222D01*
X115371754Y-83516718D01*
X115656854Y-83573428D01*
X115941954Y-83516718D01*
X116183649Y-83355222D01*
X116345145Y-83113527D01*
X116401855Y-82828427D01*
X116345145Y-82543327D01*
X116183649Y-82301632D01*
X115941954Y-82140136D01*
X115656854Y-82083426D01*
X115371754Y-82140136D01*
X115130059Y-82301632D01*
X114968563Y-82543327D01*
X114911853Y-82828427D01*
X101001986Y-82828427D01*
X100872104Y-82445808D01*
X100630953Y-81233460D01*
X100576325Y-80400000D01*
X100750201Y-80400000D01*
X100755000Y-80424126D01*
X100755001Y-81617937D01*
X100750201Y-81642068D01*
X100769216Y-81737661D01*
X100769217Y-81737662D01*
X100823366Y-81818703D01*
X100843822Y-81832371D01*
X101500119Y-82488669D01*
X101513787Y-82509125D01*
X101594828Y-82563274D01*
X101666296Y-82577490D01*
X101666297Y-82577490D01*
X101690421Y-82582289D01*
X101714546Y-82577490D01*
X111143384Y-82577490D01*
X111167510Y-82582289D01*
X111191636Y-82577490D01*
X111263104Y-82563274D01*
X111344145Y-82509125D01*
X111357815Y-82488666D01*
X111902799Y-81943683D01*
X111923255Y-81930015D01*
X111977404Y-81848974D01*
X111991620Y-81777506D01*
X111991620Y-81777505D01*
X111996419Y-81753381D01*
X111991620Y-81729256D01*
X111991620Y-80146141D01*
X113151657Y-81306179D01*
X113165325Y-81326635D01*
X113241719Y-81377679D01*
X113246366Y-81380784D01*
X113341960Y-81399799D01*
X113366086Y-81395000D01*
X116581876Y-81395000D01*
X116606002Y-81399799D01*
X116630128Y-81395000D01*
X116701596Y-81380784D01*
X116782637Y-81326635D01*
X116796307Y-81306176D01*
X116906176Y-81196307D01*
X116926635Y-81182637D01*
X116980784Y-81101596D01*
X116995000Y-81030128D01*
X116999799Y-81006002D01*
X116995000Y-80981876D01*
X116995000Y-80895000D01*
X117360000Y-80895000D01*
X117360000Y-80944837D01*
X117382836Y-80999968D01*
X117425032Y-81042164D01*
X117480163Y-81065000D01*
X117687500Y-81065000D01*
X117725000Y-81027500D01*
X117725000Y-80857500D01*
X117925000Y-80857500D01*
X117925000Y-81027500D01*
X117962500Y-81065000D01*
X118169837Y-81065000D01*
X118224968Y-81042164D01*
X118267164Y-80999968D01*
X118290000Y-80944837D01*
X118290000Y-80895000D01*
X118252500Y-80857500D01*
X117925000Y-80857500D01*
X117725000Y-80857500D01*
X117397500Y-80857500D01*
X117360000Y-80895000D01*
X116995000Y-80895000D01*
X116995000Y-79851481D01*
X117326474Y-79520008D01*
X117326474Y-79715000D01*
X117340444Y-79785232D01*
X117370398Y-79830060D01*
X117360000Y-79855163D01*
X117360000Y-79905000D01*
X117397500Y-79942500D01*
X117725000Y-79942500D01*
X117725000Y-79898526D01*
X117925000Y-79898526D01*
X117925000Y-79942500D01*
X118252500Y-79942500D01*
X118290000Y-79905000D01*
X118290000Y-79855163D01*
X118279602Y-79830060D01*
X118309556Y-79785232D01*
X118323526Y-79715000D01*
X118323526Y-79485000D01*
X118309556Y-79414768D01*
X118299688Y-79400000D01*
X118309556Y-79385232D01*
X118323526Y-79315000D01*
X118323526Y-79085000D01*
X118309556Y-79014768D01*
X118269772Y-78955228D01*
X118210232Y-78915444D01*
X118140000Y-78901474D01*
X117510000Y-78901474D01*
X117439768Y-78915444D01*
X117380569Y-78955000D01*
X117324124Y-78955000D01*
X117299999Y-78950201D01*
X117275874Y-78955000D01*
X117204406Y-78969216D01*
X117123365Y-79023365D01*
X117109697Y-79043821D01*
X116672695Y-79480824D01*
X116659556Y-79414768D01*
X116649688Y-79400000D01*
X116659556Y-79385232D01*
X116673526Y-79315000D01*
X116673526Y-79085000D01*
X116659556Y-79014768D01*
X116619772Y-78955228D01*
X116560232Y-78915444D01*
X116490000Y-78901474D01*
X115860000Y-78901474D01*
X115789768Y-78915444D01*
X115730569Y-78955000D01*
X115576482Y-78955000D01*
X115057985Y-78436504D01*
X115044315Y-78416045D01*
X114963274Y-78361896D01*
X114891806Y-78347680D01*
X114867680Y-78342881D01*
X114843554Y-78347680D01*
X110181384Y-78347680D01*
X110157259Y-78342881D01*
X110133135Y-78347680D01*
X110133134Y-78347680D01*
X110061666Y-78361896D01*
X109980625Y-78416045D01*
X109966955Y-78436504D01*
X109945204Y-78458255D01*
X109924745Y-78471925D01*
X109881501Y-78536646D01*
X109870596Y-78552967D01*
X109851581Y-78648560D01*
X109856380Y-78672686D01*
X109856380Y-78710681D01*
X109841135Y-78687865D01*
X109820679Y-78674197D01*
X109090305Y-77943824D01*
X109076635Y-77923365D01*
X108995594Y-77869216D01*
X108924126Y-77855000D01*
X108900000Y-77850201D01*
X108875874Y-77855000D01*
X104635525Y-77855000D01*
X104869941Y-77698368D01*
X105031437Y-77456673D01*
X105088147Y-77171573D01*
X105031437Y-76886473D01*
X104869941Y-76644778D01*
X104628246Y-76483282D01*
X104343146Y-76426572D01*
X104058046Y-76483282D01*
X103816351Y-76644778D01*
X103654855Y-76886473D01*
X103598145Y-77171573D01*
X103654855Y-77456673D01*
X103816351Y-77698368D01*
X104050767Y-77855000D01*
X103356413Y-77855000D01*
X103332288Y-77850201D01*
X103308163Y-77855000D01*
X103236695Y-77869216D01*
X103155654Y-77923365D01*
X103141986Y-77943821D01*
X102665732Y-78420076D01*
X102606925Y-78278102D01*
X102471898Y-78143075D01*
X102295478Y-78070000D01*
X102104522Y-78070000D01*
X101928102Y-78143075D01*
X101793075Y-78278102D01*
X101720000Y-78454522D01*
X101720000Y-78645478D01*
X101793075Y-78821898D01*
X101872651Y-78901474D01*
X101860000Y-78901474D01*
X101789768Y-78915444D01*
X101730228Y-78955228D01*
X101690444Y-79014768D01*
X101676474Y-79085000D01*
X101676474Y-79315000D01*
X101689270Y-79379329D01*
X101623365Y-79423365D01*
X101609697Y-79443821D01*
X100843824Y-80209695D01*
X100823365Y-80223365D01*
X100769217Y-80304405D01*
X100769216Y-80304407D01*
X100750201Y-80400000D01*
X100576325Y-80400000D01*
X100550107Y-80000000D01*
X100630953Y-78766540D01*
X100872104Y-77554192D01*
X101269438Y-76383680D01*
X101816156Y-75275048D01*
X102278503Y-74583096D01*
X102306977Y-74601482D01*
X102863089Y-74739621D01*
X103433964Y-74690178D01*
X103958045Y-74458484D01*
X104082816Y-74343146D01*
X112083426Y-74343146D01*
X112140136Y-74628246D01*
X112301632Y-74869941D01*
X112543327Y-75031437D01*
X112828427Y-75088147D01*
X113113527Y-75031437D01*
X113355222Y-74869941D01*
X113516718Y-74628246D01*
X113573428Y-74343146D01*
X113516718Y-74058046D01*
X113355222Y-73816351D01*
X113113527Y-73654855D01*
X112828427Y-73598145D01*
X112543327Y-73654855D01*
X112301632Y-73816351D01*
X112140136Y-74058046D01*
X112083426Y-74343146D01*
X104082816Y-74343146D01*
X104378820Y-74069523D01*
X104650919Y-73565236D01*
X104745000Y-73000000D01*
X104744785Y-72972591D01*
X104641837Y-72408902D01*
X104572700Y-72285449D01*
X105275048Y-71816156D01*
X106383680Y-71269438D01*
X107554192Y-70872104D01*
X108766540Y-70630953D01*
X110000000Y-70550107D01*
X111233460Y-70630953D01*
G36*
X104409697Y-80006179D02*
X104423365Y-80026635D01*
X104504406Y-80080784D01*
X104575874Y-80095000D01*
X104599999Y-80099799D01*
X104624124Y-80095000D01*
X106161979Y-80095000D01*
X106555737Y-80488759D01*
X106569405Y-80509215D01*
X106650446Y-80563364D01*
X106721914Y-80577580D01*
X106721915Y-80577580D01*
X106746039Y-80582379D01*
X106770164Y-80577580D01*
X108750000Y-80577580D01*
X108750000Y-81040080D01*
X104272907Y-81040080D01*
X104309556Y-80985232D01*
X104323526Y-80915000D01*
X104323526Y-80685000D01*
X104309556Y-80614768D01*
X104299688Y-80600000D01*
X104309556Y-80585232D01*
X104323526Y-80515000D01*
X104323526Y-80285000D01*
X104309556Y-80214768D01*
X104299688Y-80200000D01*
X104309556Y-80185232D01*
X104323526Y-80115000D01*
X104323526Y-79920008D01*
X104409697Y-80006179D01*
X104409697Y-80006179D01*
G37*
X104409697Y-80006179D02*
X104423365Y-80026635D01*
X104504406Y-80080784D01*
X104575874Y-80095000D01*
X104599999Y-80099799D01*
X104624124Y-80095000D01*
X106161979Y-80095000D01*
X106555737Y-80488759D01*
X106569405Y-80509215D01*
X106650446Y-80563364D01*
X106721914Y-80577580D01*
X106721915Y-80577580D01*
X106746039Y-80582379D01*
X106770164Y-80577580D01*
X108750000Y-80577580D01*
X108750000Y-81040080D01*
X104272907Y-81040080D01*
X104309556Y-80985232D01*
X104323526Y-80915000D01*
X104323526Y-80685000D01*
X104309556Y-80614768D01*
X104299688Y-80600000D01*
X104309556Y-80585232D01*
X104323526Y-80515000D01*
X104323526Y-80285000D01*
X104309556Y-80214768D01*
X104299688Y-80200000D01*
X104309556Y-80185232D01*
X104323526Y-80115000D01*
X104323526Y-79920008D01*
X104409697Y-80006179D01*
G36*
X115284697Y-79356179D02*
X115298365Y-79376635D01*
X115379406Y-79430784D01*
X115450874Y-79445000D01*
X115450875Y-79445000D01*
X115474999Y-79449799D01*
X115499124Y-79445000D01*
X115684430Y-79445000D01*
X115676474Y-79485000D01*
X115676474Y-79715000D01*
X115690444Y-79785232D01*
X115700312Y-79800000D01*
X115690444Y-79814768D01*
X115676474Y-79885000D01*
X115676474Y-80115000D01*
X115690444Y-80185232D01*
X115720398Y-80230060D01*
X115710000Y-80255163D01*
X115710000Y-80305000D01*
X115747500Y-80342500D01*
X116075000Y-80342500D01*
X116075000Y-80298526D01*
X116275000Y-80298526D01*
X116275000Y-80342500D01*
X116295000Y-80342500D01*
X116295000Y-80457500D01*
X116275000Y-80457500D01*
X116275000Y-80501474D01*
X116075000Y-80501474D01*
X116075000Y-80457500D01*
X115747500Y-80457500D01*
X115710000Y-80495000D01*
X115710000Y-80544837D01*
X115720398Y-80569940D01*
X115690444Y-80614768D01*
X115676474Y-80685000D01*
X115676474Y-80905000D01*
X113443442Y-80905000D01*
X111376121Y-78837680D01*
X114766199Y-78837680D01*
X115284697Y-79356179D01*
X115284697Y-79356179D01*
G37*
X115284697Y-79356179D02*
X115298365Y-79376635D01*
X115379406Y-79430784D01*
X115450874Y-79445000D01*
X115450875Y-79445000D01*
X115474999Y-79449799D01*
X115499124Y-79445000D01*
X115684430Y-79445000D01*
X115676474Y-79485000D01*
X115676474Y-79715000D01*
X115690444Y-79785232D01*
X115700312Y-79800000D01*
X115690444Y-79814768D01*
X115676474Y-79885000D01*
X115676474Y-80115000D01*
X115690444Y-80185232D01*
X115720398Y-80230060D01*
X115710000Y-80255163D01*
X115710000Y-80305000D01*
X115747500Y-80342500D01*
X116075000Y-80342500D01*
X116075000Y-80298526D01*
X116275000Y-80298526D01*
X116275000Y-80342500D01*
X116295000Y-80342500D01*
X116295000Y-80457500D01*
X116275000Y-80457500D01*
X116275000Y-80501474D01*
X116075000Y-80501474D01*
X116075000Y-80457500D01*
X115747500Y-80457500D01*
X115710000Y-80495000D01*
X115710000Y-80544837D01*
X115720398Y-80569940D01*
X115690444Y-80614768D01*
X115676474Y-80685000D01*
X115676474Y-80905000D01*
X113443442Y-80905000D01*
X111376121Y-78837680D01*
X114766199Y-78837680D01*
X115284697Y-79356179D01*
G36*
X103776703Y-78865022D02*
X105299709Y-78865022D01*
X106039686Y-79605000D01*
X104701482Y-79605000D01*
X104540305Y-79443824D01*
X104526635Y-79423365D01*
X104445594Y-79369216D01*
X104374126Y-79355000D01*
X104350000Y-79350201D01*
X104325874Y-79355000D01*
X104285790Y-79355000D01*
X104290000Y-79344837D01*
X104290000Y-79295000D01*
X104252500Y-79257500D01*
X103925000Y-79257500D01*
X103925000Y-79301474D01*
X103896812Y-79301474D01*
X103814999Y-79285200D01*
X103733186Y-79301474D01*
X103725000Y-79301474D01*
X103725000Y-79257500D01*
X103705000Y-79257500D01*
X103705000Y-79142500D01*
X103725000Y-79142500D01*
X103725000Y-78972500D01*
X103925000Y-78972500D01*
X103925000Y-79142500D01*
X104252500Y-79142500D01*
X104290000Y-79105000D01*
X104290000Y-79055163D01*
X104267164Y-79000032D01*
X104224968Y-78957836D01*
X104169837Y-78935000D01*
X103962500Y-78935000D01*
X103925000Y-78972500D01*
X103725000Y-78972500D01*
X103687500Y-78935000D01*
X103655480Y-78935000D01*
X103725459Y-78865021D01*
X103776698Y-78865021D01*
X103776703Y-78865022D01*
X103776703Y-78865022D01*
G37*
X103776703Y-78865022D02*
X105299709Y-78865022D01*
X106039686Y-79605000D01*
X104701482Y-79605000D01*
X104540305Y-79443824D01*
X104526635Y-79423365D01*
X104445594Y-79369216D01*
X104374126Y-79355000D01*
X104350000Y-79350201D01*
X104325874Y-79355000D01*
X104285790Y-79355000D01*
X104290000Y-79344837D01*
X104290000Y-79295000D01*
X104252500Y-79257500D01*
X103925000Y-79257500D01*
X103925000Y-79301474D01*
X103896812Y-79301474D01*
X103814999Y-79285200D01*
X103733186Y-79301474D01*
X103725000Y-79301474D01*
X103725000Y-79257500D01*
X103705000Y-79257500D01*
X103705000Y-79142500D01*
X103725000Y-79142500D01*
X103725000Y-78972500D01*
X103925000Y-78972500D01*
X103925000Y-79142500D01*
X104252500Y-79142500D01*
X104290000Y-79105000D01*
X104290000Y-79055163D01*
X104267164Y-79000032D01*
X104224968Y-78957836D01*
X104169837Y-78935000D01*
X103962500Y-78935000D01*
X103925000Y-78972500D01*
X103725000Y-78972500D01*
X103687500Y-78935000D01*
X103655480Y-78935000D01*
X103725459Y-78865021D01*
X103776698Y-78865021D01*
X103776703Y-78865022D01*
G36*
X109203518Y-78750000D02*
X108800000Y-78750000D01*
X108780866Y-78753806D01*
X108764645Y-78764645D01*
X108753806Y-78780866D01*
X108750000Y-78800000D01*
X108750000Y-79206200D01*
X106701558Y-79206200D01*
X105840357Y-78345000D01*
X108798519Y-78345000D01*
X109203518Y-78750000D01*
X109203518Y-78750000D01*
G37*
X109203518Y-78750000D02*
X108800000Y-78750000D01*
X108780866Y-78753806D01*
X108764645Y-78764645D01*
X108753806Y-78780866D01*
X108750000Y-78800000D01*
X108750000Y-79206200D01*
X106701558Y-79206200D01*
X105840357Y-78345000D01*
X108798519Y-78345000D01*
X109203518Y-78750000D01*
G04 #@! TD*
M02*
