G04 #@! TF.GenerationSoftware,KiCad,Pcbnew,5.0.2-bee76a0~70~ubuntu18.04.1*
G04 #@! TF.CreationDate,2019-09-04T19:42:23+02:00*
G04 #@! TF.ProjectId,upper_Sensor,75707065-725f-4536-956e-736f722e6b69,rev?*
G04 #@! TF.SameCoordinates,Original*
G04 #@! TF.FileFunction,Soldermask,Top*
G04 #@! TF.FilePolarity,Negative*
%FSLAX46Y46*%
G04 Gerber Fmt 4.6, Leading zero omitted, Abs format (unit mm)*
G04 Created by KiCad (PCBNEW 5.0.2-bee76a0~70~ubuntu18.04.1) date Mi 04 Sep 2019 19:42:23 CEST*
%MOMM*%
%LPD*%
G01*
G04 APERTURE LIST*
%ADD10C,0.150000*%
%ADD11C,0.200000*%
%ADD12C,0.100000*%
G04 APERTURE END LIST*
D10*
G36*
X111000000Y-79000000D02*
X111000000Y-81000000D01*
X109000000Y-81000000D01*
X109000000Y-79000000D01*
X111000000Y-79000000D01*
G37*
X111000000Y-79000000D02*
X111000000Y-81000000D01*
X109000000Y-81000000D01*
X109000000Y-79000000D01*
X111000000Y-79000000D01*
D11*
X110805902Y-80330000D02*
G75*
G03X110805902Y-80330000I-55902J0D01*
G01*
X110165902Y-79250000D02*
G75*
G03X110165902Y-79250000I-55902J0D01*
G01*
X110165901Y-80750000D02*
G75*
G03X110165901Y-80750000I-55901J0D01*
G01*
X109305902Y-79890000D02*
G75*
G03X109305902Y-79890000I-55902J0D01*
G01*
X110805902Y-79890000D02*
G75*
G03X110805902Y-79890000I-55902J0D01*
G01*
X109725902Y-79250000D02*
G75*
G03X109725902Y-79250000I-55902J0D01*
G01*
X109305902Y-80330000D02*
G75*
G03X109305902Y-80330000I-55902J0D01*
G01*
X109305902Y-79450000D02*
G75*
G03X109305902Y-79450000I-55902J0D01*
G01*
X110805902Y-79450000D02*
G75*
G03X110805902Y-79450000I-55902J0D01*
G01*
X110605901Y-80750000D02*
G75*
G03X110605901Y-80750000I-55901J0D01*
G01*
X109725901Y-80750000D02*
G75*
G03X109725901Y-80750000I-55901J0D01*
G01*
X110385902Y-79250000D02*
G75*
G03X110385902Y-79250000I-55902J0D01*
G01*
D12*
G36*
X116541000Y-80966000D02*
X115809000Y-80966000D01*
X115809000Y-79034000D01*
X116541000Y-79034000D01*
X116541000Y-80966000D01*
X116541000Y-80966000D01*
G37*
G36*
X104191000Y-80966000D02*
X103459000Y-80966000D01*
X103459000Y-79034000D01*
X104191000Y-79034000D01*
X104191000Y-80966000D01*
X104191000Y-80966000D01*
G37*
G36*
X102541000Y-80966000D02*
X101809000Y-80966000D01*
X101809000Y-79034000D01*
X102541000Y-79034000D01*
X102541000Y-80966000D01*
X102541000Y-80966000D01*
G37*
G36*
X118191000Y-80966000D02*
X117459000Y-80966000D01*
X117459000Y-79034000D01*
X118191000Y-79034000D01*
X118191000Y-80966000D01*
X118191000Y-80966000D01*
G37*
G36*
X109706753Y-79125842D02*
X109729684Y-79135340D01*
X109750321Y-79149129D01*
X109767871Y-79166679D01*
X109781660Y-79187316D01*
X109781662Y-79187321D01*
X109786066Y-79193912D01*
X109801612Y-79212854D01*
X109820554Y-79228400D01*
X109842165Y-79239951D01*
X109865614Y-79247064D01*
X109890000Y-79249466D01*
X109914386Y-79247064D01*
X109937835Y-79239951D01*
X109959446Y-79228400D01*
X109978388Y-79212854D01*
X109993934Y-79193912D01*
X109998338Y-79187321D01*
X109998340Y-79187316D01*
X110012129Y-79166679D01*
X110029679Y-79149129D01*
X110050316Y-79135340D01*
X110073247Y-79125842D01*
X110097590Y-79121000D01*
X110122410Y-79121000D01*
X110146754Y-79125842D01*
X110160142Y-79131388D01*
X110169684Y-79135340D01*
X110169685Y-79135341D01*
X110172165Y-79136368D01*
X110195614Y-79143481D01*
X110220001Y-79145883D01*
X110244387Y-79143481D01*
X110267835Y-79136368D01*
X110270315Y-79135341D01*
X110270316Y-79135340D01*
X110279858Y-79131388D01*
X110293246Y-79125842D01*
X110317590Y-79121000D01*
X110342410Y-79121000D01*
X110366753Y-79125842D01*
X110389684Y-79135340D01*
X110410321Y-79149129D01*
X110427871Y-79166679D01*
X110441660Y-79187316D01*
X110451158Y-79210247D01*
X110454769Y-79228400D01*
X110456000Y-79234591D01*
X110456000Y-79267033D01*
X110458402Y-79291419D01*
X110465515Y-79314868D01*
X110477066Y-79336479D01*
X110492612Y-79355421D01*
X110511554Y-79370967D01*
X110533165Y-79382518D01*
X110556614Y-79389631D01*
X110581000Y-79392033D01*
X110605386Y-79389631D01*
X110628835Y-79382518D01*
X110650446Y-79370967D01*
X110669382Y-79355426D01*
X110672679Y-79352129D01*
X110693316Y-79338340D01*
X110716247Y-79328842D01*
X110740590Y-79324000D01*
X110765410Y-79324000D01*
X110789753Y-79328842D01*
X110812684Y-79338340D01*
X110833321Y-79352129D01*
X110850871Y-79369679D01*
X110864660Y-79390316D01*
X110874158Y-79413247D01*
X110879000Y-79437590D01*
X110879000Y-79462410D01*
X110874158Y-79486753D01*
X110864660Y-79509684D01*
X110850871Y-79530321D01*
X110833321Y-79547871D01*
X110812684Y-79561660D01*
X110812679Y-79561662D01*
X110806088Y-79566066D01*
X110787146Y-79581612D01*
X110771600Y-79600554D01*
X110760049Y-79622165D01*
X110752936Y-79645614D01*
X110750534Y-79670000D01*
X110752936Y-79694386D01*
X110760049Y-79717835D01*
X110771600Y-79739446D01*
X110787146Y-79758388D01*
X110806088Y-79773934D01*
X110812679Y-79778338D01*
X110812684Y-79778340D01*
X110833321Y-79792129D01*
X110850871Y-79809679D01*
X110864660Y-79830316D01*
X110874158Y-79853247D01*
X110879000Y-79877590D01*
X110879000Y-79902410D01*
X110874158Y-79926753D01*
X110864660Y-79949684D01*
X110850871Y-79970321D01*
X110833321Y-79987871D01*
X110812684Y-80001660D01*
X110812679Y-80001662D01*
X110806088Y-80006066D01*
X110787146Y-80021612D01*
X110771600Y-80040554D01*
X110760049Y-80062165D01*
X110752936Y-80085614D01*
X110750534Y-80110000D01*
X110752936Y-80134386D01*
X110760049Y-80157835D01*
X110771600Y-80179446D01*
X110787146Y-80198388D01*
X110806088Y-80213934D01*
X110812679Y-80218338D01*
X110812684Y-80218340D01*
X110833321Y-80232129D01*
X110850871Y-80249679D01*
X110864660Y-80270316D01*
X110874158Y-80293247D01*
X110879000Y-80317590D01*
X110879000Y-80342410D01*
X110874158Y-80366753D01*
X110864660Y-80389684D01*
X110850871Y-80410321D01*
X110833321Y-80427871D01*
X110812684Y-80441660D01*
X110789753Y-80451158D01*
X110765410Y-80456000D01*
X110732967Y-80456000D01*
X110708581Y-80458402D01*
X110685132Y-80465515D01*
X110663521Y-80477066D01*
X110644579Y-80492612D01*
X110629033Y-80511554D01*
X110617482Y-80533165D01*
X110610369Y-80556614D01*
X110607967Y-80581000D01*
X110610369Y-80605386D01*
X110617482Y-80628835D01*
X110629033Y-80650446D01*
X110644574Y-80669382D01*
X110647871Y-80672679D01*
X110661660Y-80693316D01*
X110671158Y-80716247D01*
X110676000Y-80740590D01*
X110676000Y-80765410D01*
X110671158Y-80789753D01*
X110661660Y-80812684D01*
X110647871Y-80833321D01*
X110630321Y-80850871D01*
X110609684Y-80864660D01*
X110586753Y-80874158D01*
X110562410Y-80879000D01*
X110537590Y-80879000D01*
X110513247Y-80874158D01*
X110490316Y-80864660D01*
X110469679Y-80850871D01*
X110452129Y-80833321D01*
X110438340Y-80812684D01*
X110438338Y-80812679D01*
X110433934Y-80806088D01*
X110418388Y-80787146D01*
X110399446Y-80771600D01*
X110377835Y-80760049D01*
X110354386Y-80752936D01*
X110330000Y-80750534D01*
X110305614Y-80752936D01*
X110282165Y-80760049D01*
X110260554Y-80771600D01*
X110241612Y-80787146D01*
X110226066Y-80806088D01*
X110221662Y-80812679D01*
X110221660Y-80812684D01*
X110207871Y-80833321D01*
X110190321Y-80850871D01*
X110169684Y-80864660D01*
X110146753Y-80874158D01*
X110122410Y-80879000D01*
X110097590Y-80879000D01*
X110073247Y-80874158D01*
X110050316Y-80864660D01*
X110029679Y-80850871D01*
X110012129Y-80833321D01*
X109998340Y-80812684D01*
X109998338Y-80812679D01*
X109993934Y-80806088D01*
X109978388Y-80787146D01*
X109959446Y-80771600D01*
X109937835Y-80760049D01*
X109914386Y-80752936D01*
X109890000Y-80750534D01*
X109865614Y-80752936D01*
X109842165Y-80760049D01*
X109820554Y-80771600D01*
X109801612Y-80787146D01*
X109786066Y-80806088D01*
X109781662Y-80812679D01*
X109781660Y-80812684D01*
X109767871Y-80833321D01*
X109750321Y-80850871D01*
X109729684Y-80864660D01*
X109706753Y-80874158D01*
X109682410Y-80879000D01*
X109657590Y-80879000D01*
X109633247Y-80874158D01*
X109610316Y-80864660D01*
X109589679Y-80850871D01*
X109572129Y-80833321D01*
X109558340Y-80812684D01*
X109548842Y-80789753D01*
X109544000Y-80765410D01*
X109544000Y-80740590D01*
X109548842Y-80716247D01*
X109558340Y-80693316D01*
X109558877Y-80692513D01*
X109570420Y-80670918D01*
X109577534Y-80647469D01*
X109579937Y-80623083D01*
X109577536Y-80598697D01*
X109570424Y-80575247D01*
X109558874Y-80553636D01*
X109543325Y-80534690D01*
X109465310Y-80456675D01*
X109446368Y-80441129D01*
X109424757Y-80429578D01*
X109401308Y-80422465D01*
X109376922Y-80420063D01*
X109352536Y-80422465D01*
X109329087Y-80429578D01*
X109307487Y-80441123D01*
X109306684Y-80441660D01*
X109283753Y-80451158D01*
X109259410Y-80456000D01*
X109234590Y-80456000D01*
X109210247Y-80451158D01*
X109187316Y-80441660D01*
X109166679Y-80427871D01*
X109149129Y-80410321D01*
X109135340Y-80389684D01*
X109125842Y-80366753D01*
X109121000Y-80342410D01*
X109121000Y-80317590D01*
X109125842Y-80293247D01*
X109135340Y-80270316D01*
X109149129Y-80249679D01*
X109166679Y-80232129D01*
X109187316Y-80218340D01*
X109187321Y-80218338D01*
X109193912Y-80213934D01*
X109212854Y-80198388D01*
X109228400Y-80179446D01*
X109239951Y-80157835D01*
X109247064Y-80134386D01*
X109249466Y-80110000D01*
X109247064Y-80085614D01*
X109239951Y-80062165D01*
X109228400Y-80040554D01*
X109212854Y-80021612D01*
X109193912Y-80006066D01*
X109187321Y-80001662D01*
X109187316Y-80001660D01*
X109166679Y-79987871D01*
X109149129Y-79970321D01*
X109135340Y-79949684D01*
X109125842Y-79926753D01*
X109121000Y-79902410D01*
X109121000Y-79877590D01*
X109125842Y-79853247D01*
X109135340Y-79830316D01*
X109149129Y-79809679D01*
X109166679Y-79792129D01*
X109187316Y-79778340D01*
X109187321Y-79778338D01*
X109193912Y-79773934D01*
X109212854Y-79758388D01*
X109228400Y-79739446D01*
X109239951Y-79717835D01*
X109247064Y-79694386D01*
X109249466Y-79670000D01*
X109247064Y-79645614D01*
X109239951Y-79622165D01*
X109228400Y-79600554D01*
X109212854Y-79581612D01*
X109193912Y-79566066D01*
X109187321Y-79561662D01*
X109187316Y-79561660D01*
X109166679Y-79547871D01*
X109149129Y-79530321D01*
X109135340Y-79509684D01*
X109125842Y-79486753D01*
X109121000Y-79462410D01*
X109121000Y-79437590D01*
X109125842Y-79413247D01*
X109135340Y-79390316D01*
X109149129Y-79369679D01*
X109166679Y-79352129D01*
X109187316Y-79338340D01*
X109210247Y-79328842D01*
X109234590Y-79324000D01*
X109259410Y-79324000D01*
X109283753Y-79328842D01*
X109306684Y-79338340D01*
X109327321Y-79352129D01*
X109330618Y-79355426D01*
X109349554Y-79370967D01*
X109371165Y-79382518D01*
X109394614Y-79389631D01*
X109419000Y-79392033D01*
X109443386Y-79389631D01*
X109466835Y-79382518D01*
X109488446Y-79370967D01*
X109507388Y-79355421D01*
X109522934Y-79336479D01*
X109534485Y-79314868D01*
X109541598Y-79291419D01*
X109544000Y-79267033D01*
X109544000Y-79234591D01*
X109545231Y-79228400D01*
X109548842Y-79210247D01*
X109558340Y-79187316D01*
X109572129Y-79166679D01*
X109589679Y-79149129D01*
X109610316Y-79135340D01*
X109633247Y-79125842D01*
X109657590Y-79121000D01*
X109682410Y-79121000D01*
X109706753Y-79125842D01*
X109706753Y-79125842D01*
G37*
M02*
