G04 #@! TF.GenerationSoftware,KiCad,Pcbnew,5.0.2-bee76a0~70~ubuntu18.04.1*
G04 #@! TF.CreationDate,2019-09-04T02:04:56+02:00*
G04 #@! TF.ProjectId,upper_Sensor,75707065-725f-4536-956e-736f722e6b69,rev?*
G04 #@! TF.SameCoordinates,Original*
G04 #@! TF.FileFunction,Paste,Top*
G04 #@! TF.FilePolarity,Positive*
%FSLAX46Y46*%
G04 Gerber Fmt 4.6, Leading zero omitted, Abs format (unit mm)*
G04 Created by KiCad (PCBNEW 5.0.2-bee76a0~70~ubuntu18.04.1) date Mi 04 Sep 2019 02:04:56 CEST*
%MOMM*%
%LPD*%
G01*
G04 APERTURE LIST*
%ADD10R,0.630000X0.230000*%
%ADD11C,0.150000*%
G04 APERTURE END LIST*
D10*
G04 #@! TO.C,J12*
X121675000Y-63300000D03*
X123325000Y-63300000D03*
X121675000Y-62900000D03*
X123325000Y-62900000D03*
X121675000Y-62500000D03*
X123325000Y-62500000D03*
X121675000Y-62100000D03*
X123325000Y-62100000D03*
X121675000Y-61700000D03*
X123325000Y-61700000D03*
G04 #@! TD*
G04 #@! TO.C,J11*
X135675000Y-63300000D03*
X137325000Y-63300000D03*
X135675000Y-62900000D03*
X137325000Y-62900000D03*
X135675000Y-62500000D03*
X137325000Y-62500000D03*
X135675000Y-62100000D03*
X137325000Y-62100000D03*
X135675000Y-61700000D03*
X137325000Y-61700000D03*
G04 #@! TD*
D11*
G04 #@! TO.C,REF\002A\002A*
X129610000Y-61747000D03*
X129830000Y-61747000D03*
X129170000Y-61747000D03*
X128747000Y-62830000D03*
X128747000Y-61950000D03*
X128747000Y-62390000D03*
X129610000Y-63253000D03*
X129170000Y-63253000D03*
X130050000Y-63253000D03*
X130253000Y-62390000D03*
X130253000Y-62830000D03*
X130253000Y-61950000D03*
G04 #@! TD*
D10*
G04 #@! TO.C,J12*
X103825000Y-79200000D03*
X102175000Y-79200000D03*
X103825000Y-79600000D03*
X102175000Y-79600000D03*
X103825000Y-80000000D03*
X102175000Y-80000000D03*
X103825000Y-80400000D03*
X102175000Y-80400000D03*
X103825000Y-80800000D03*
X102175000Y-80800000D03*
G04 #@! TD*
G04 #@! TO.C,J11*
X117825000Y-79200000D03*
X116175000Y-79200000D03*
X117825000Y-79600000D03*
X116175000Y-79600000D03*
X117825000Y-80000000D03*
X116175000Y-80000000D03*
X117825000Y-80400000D03*
X116175000Y-80400000D03*
X117825000Y-80800000D03*
X116175000Y-80800000D03*
G04 #@! TD*
D11*
G04 #@! TO.C,REF\002A\002A*
X110753000Y-79450000D03*
X110753000Y-80330000D03*
X110753000Y-79890000D03*
X110550000Y-80753000D03*
X109670000Y-80753000D03*
X110110000Y-80753000D03*
X109247000Y-79890000D03*
X109247000Y-79450000D03*
X109247000Y-80330000D03*
X109670000Y-79247000D03*
X110330000Y-79247000D03*
X110110000Y-79247000D03*
G04 #@! TD*
M02*
