G04 #@! TF.GenerationSoftware,KiCad,Pcbnew,5.0.2-bee76a0~70~ubuntu18.04.1*
G04 #@! TF.CreationDate,2019-09-04T02:04:56+02:00*
G04 #@! TF.ProjectId,upper_Sensor,75707065-725f-4536-956e-736f722e6b69,rev?*
G04 #@! TF.SameCoordinates,Original*
G04 #@! TF.FileFunction,Soldermask,Bot*
G04 #@! TF.FilePolarity,Negative*
%FSLAX46Y46*%
G04 Gerber Fmt 4.6, Leading zero omitted, Abs format (unit mm)*
G04 Created by KiCad (PCBNEW 5.0.2-bee76a0~70~ubuntu18.04.1) date Mi 04 Sep 2019 02:04:56 CEST*
%MOMM*%
%LPD*%
G01*
G04 APERTURE LIST*
%ADD10C,0.300000*%
%ADD11C,0.100000*%
G04 APERTURE END LIST*
D10*
X136150000Y-66403571D02*
X136150000Y-64903571D01*
X135292857Y-66403571D01*
X135292857Y-64903571D01*
X134578571Y-66403571D02*
X134578571Y-65403571D01*
X134578571Y-64903571D02*
X134650000Y-64975000D01*
X134578571Y-65046428D01*
X134507142Y-64975000D01*
X134578571Y-64903571D01*
X134578571Y-65046428D01*
X133864285Y-66403571D02*
X133864285Y-64903571D01*
X133721428Y-65832142D02*
X133292857Y-66403571D01*
X133292857Y-65403571D02*
X133864285Y-65975000D01*
X132435714Y-66403571D02*
X132578571Y-66332142D01*
X132650000Y-66189285D01*
X132650000Y-64903571D01*
X131221428Y-66403571D02*
X131221428Y-65617857D01*
X131292857Y-65475000D01*
X131435714Y-65403571D01*
X131721428Y-65403571D01*
X131864285Y-65475000D01*
X131221428Y-66332142D02*
X131364285Y-66403571D01*
X131721428Y-66403571D01*
X131864285Y-66332142D01*
X131935714Y-66189285D01*
X131935714Y-66046428D01*
X131864285Y-65903571D01*
X131721428Y-65832142D01*
X131364285Y-65832142D01*
X131221428Y-65760714D01*
X130578571Y-66332142D02*
X130435714Y-66403571D01*
X130150000Y-66403571D01*
X130007142Y-66332142D01*
X129935714Y-66189285D01*
X129935714Y-66117857D01*
X130007142Y-65975000D01*
X130150000Y-65903571D01*
X130364285Y-65903571D01*
X130507142Y-65832142D01*
X130578571Y-65689285D01*
X130578571Y-65617857D01*
X130507142Y-65475000D01*
X130364285Y-65403571D01*
X130150000Y-65403571D01*
X130007142Y-65475000D01*
X127650000Y-65617857D02*
X128150000Y-65617857D01*
X128150000Y-66403571D02*
X128150000Y-64903571D01*
X127435714Y-64903571D01*
X126221428Y-66403571D02*
X126221428Y-65617857D01*
X126292857Y-65475000D01*
X126435714Y-65403571D01*
X126721428Y-65403571D01*
X126864285Y-65475000D01*
X126221428Y-66332142D02*
X126364285Y-66403571D01*
X126721428Y-66403571D01*
X126864285Y-66332142D01*
X126935714Y-66189285D01*
X126935714Y-66046428D01*
X126864285Y-65903571D01*
X126721428Y-65832142D01*
X126364285Y-65832142D01*
X126221428Y-65760714D01*
X124864285Y-65403571D02*
X124864285Y-66403571D01*
X125507142Y-65403571D02*
X125507142Y-66189285D01*
X125435714Y-66332142D01*
X125292857Y-66403571D01*
X125078571Y-66403571D01*
X124935714Y-66332142D01*
X124864285Y-66260714D01*
X124364285Y-65403571D02*
X123792857Y-65403571D01*
X124150000Y-64903571D02*
X124150000Y-66189285D01*
X124078571Y-66332142D01*
X123935714Y-66403571D01*
X123792857Y-66403571D01*
X123292857Y-66403571D02*
X123292857Y-64903571D01*
X122650000Y-66403571D02*
X122650000Y-65617857D01*
X122721428Y-65475000D01*
X122864285Y-65403571D01*
X123078571Y-65403571D01*
X123221428Y-65475000D01*
X123292857Y-65546428D01*
X131971428Y-67596428D02*
X131900000Y-67525000D01*
X131757142Y-67453571D01*
X131400000Y-67453571D01*
X131257142Y-67525000D01*
X131185714Y-67596428D01*
X131114285Y-67739285D01*
X131114285Y-67882142D01*
X131185714Y-68096428D01*
X132042857Y-68953571D01*
X131114285Y-68953571D01*
X130185714Y-67453571D02*
X130042857Y-67453571D01*
X129900000Y-67525000D01*
X129828571Y-67596428D01*
X129757142Y-67739285D01*
X129685714Y-68025000D01*
X129685714Y-68382142D01*
X129757142Y-68667857D01*
X129828571Y-68810714D01*
X129900000Y-68882142D01*
X130042857Y-68953571D01*
X130185714Y-68953571D01*
X130328571Y-68882142D01*
X130400000Y-68810714D01*
X130471428Y-68667857D01*
X130542857Y-68382142D01*
X130542857Y-68025000D01*
X130471428Y-67739285D01*
X130400000Y-67596428D01*
X130328571Y-67525000D01*
X130185714Y-67453571D01*
X128257142Y-68953571D02*
X129114285Y-68953571D01*
X128685714Y-68953571D02*
X128685714Y-67453571D01*
X128828571Y-67667857D01*
X128971428Y-67810714D01*
X129114285Y-67882142D01*
X127542857Y-68953571D02*
X127257142Y-68953571D01*
X127114285Y-68882142D01*
X127042857Y-68810714D01*
X126900000Y-68596428D01*
X126828571Y-68310714D01*
X126828571Y-67739285D01*
X126900000Y-67596428D01*
X126971428Y-67525000D01*
X127114285Y-67453571D01*
X127400000Y-67453571D01*
X127542857Y-67525000D01*
X127614285Y-67596428D01*
X127685714Y-67739285D01*
X127685714Y-68096428D01*
X127614285Y-68239285D01*
X127542857Y-68310714D01*
X127400000Y-68382142D01*
X127114285Y-68382142D01*
X126971428Y-68310714D01*
X126900000Y-68239285D01*
X126828571Y-68096428D01*
X116650000Y-83903571D02*
X116650000Y-82403571D01*
X115792857Y-83903571D01*
X115792857Y-82403571D01*
X115078571Y-83903571D02*
X115078571Y-82903571D01*
X115078571Y-82403571D02*
X115150000Y-82475000D01*
X115078571Y-82546428D01*
X115007142Y-82475000D01*
X115078571Y-82403571D01*
X115078571Y-82546428D01*
X114364285Y-83903571D02*
X114364285Y-82403571D01*
X114221428Y-83332142D02*
X113792857Y-83903571D01*
X113792857Y-82903571D02*
X114364285Y-83475000D01*
X112935714Y-83903571D02*
X113078571Y-83832142D01*
X113150000Y-83689285D01*
X113150000Y-82403571D01*
X111721428Y-83903571D02*
X111721428Y-83117857D01*
X111792857Y-82975000D01*
X111935714Y-82903571D01*
X112221428Y-82903571D01*
X112364285Y-82975000D01*
X111721428Y-83832142D02*
X111864285Y-83903571D01*
X112221428Y-83903571D01*
X112364285Y-83832142D01*
X112435714Y-83689285D01*
X112435714Y-83546428D01*
X112364285Y-83403571D01*
X112221428Y-83332142D01*
X111864285Y-83332142D01*
X111721428Y-83260714D01*
X111078571Y-83832142D02*
X110935714Y-83903571D01*
X110650000Y-83903571D01*
X110507142Y-83832142D01*
X110435714Y-83689285D01*
X110435714Y-83617857D01*
X110507142Y-83475000D01*
X110650000Y-83403571D01*
X110864285Y-83403571D01*
X111007142Y-83332142D01*
X111078571Y-83189285D01*
X111078571Y-83117857D01*
X111007142Y-82975000D01*
X110864285Y-82903571D01*
X110650000Y-82903571D01*
X110507142Y-82975000D01*
X108150000Y-83117857D02*
X108650000Y-83117857D01*
X108650000Y-83903571D02*
X108650000Y-82403571D01*
X107935714Y-82403571D01*
X106721428Y-83903571D02*
X106721428Y-83117857D01*
X106792857Y-82975000D01*
X106935714Y-82903571D01*
X107221428Y-82903571D01*
X107364285Y-82975000D01*
X106721428Y-83832142D02*
X106864285Y-83903571D01*
X107221428Y-83903571D01*
X107364285Y-83832142D01*
X107435714Y-83689285D01*
X107435714Y-83546428D01*
X107364285Y-83403571D01*
X107221428Y-83332142D01*
X106864285Y-83332142D01*
X106721428Y-83260714D01*
X105364285Y-82903571D02*
X105364285Y-83903571D01*
X106007142Y-82903571D02*
X106007142Y-83689285D01*
X105935714Y-83832142D01*
X105792857Y-83903571D01*
X105578571Y-83903571D01*
X105435714Y-83832142D01*
X105364285Y-83760714D01*
X104864285Y-82903571D02*
X104292857Y-82903571D01*
X104650000Y-82403571D02*
X104650000Y-83689285D01*
X104578571Y-83832142D01*
X104435714Y-83903571D01*
X104292857Y-83903571D01*
X103792857Y-83903571D02*
X103792857Y-82403571D01*
X103150000Y-83903571D02*
X103150000Y-83117857D01*
X103221428Y-82975000D01*
X103364285Y-82903571D01*
X103578571Y-82903571D01*
X103721428Y-82975000D01*
X103792857Y-83046428D01*
X112471428Y-85096428D02*
X112400000Y-85025000D01*
X112257142Y-84953571D01*
X111900000Y-84953571D01*
X111757142Y-85025000D01*
X111685714Y-85096428D01*
X111614285Y-85239285D01*
X111614285Y-85382142D01*
X111685714Y-85596428D01*
X112542857Y-86453571D01*
X111614285Y-86453571D01*
X110685714Y-84953571D02*
X110542857Y-84953571D01*
X110400000Y-85025000D01*
X110328571Y-85096428D01*
X110257142Y-85239285D01*
X110185714Y-85525000D01*
X110185714Y-85882142D01*
X110257142Y-86167857D01*
X110328571Y-86310714D01*
X110400000Y-86382142D01*
X110542857Y-86453571D01*
X110685714Y-86453571D01*
X110828571Y-86382142D01*
X110900000Y-86310714D01*
X110971428Y-86167857D01*
X111042857Y-85882142D01*
X111042857Y-85525000D01*
X110971428Y-85239285D01*
X110900000Y-85096428D01*
X110828571Y-85025000D01*
X110685714Y-84953571D01*
X108757142Y-86453571D02*
X109614285Y-86453571D01*
X109185714Y-86453571D02*
X109185714Y-84953571D01*
X109328571Y-85167857D01*
X109471428Y-85310714D01*
X109614285Y-85382142D01*
X108042857Y-86453571D02*
X107757142Y-86453571D01*
X107614285Y-86382142D01*
X107542857Y-86310714D01*
X107400000Y-86096428D01*
X107328571Y-85810714D01*
X107328571Y-85239285D01*
X107400000Y-85096428D01*
X107471428Y-85025000D01*
X107614285Y-84953571D01*
X107900000Y-84953571D01*
X108042857Y-85025000D01*
X108114285Y-85096428D01*
X108185714Y-85239285D01*
X108185714Y-85596428D01*
X108114285Y-85739285D01*
X108042857Y-85810714D01*
X107900000Y-85882142D01*
X107614285Y-85882142D01*
X107471428Y-85810714D01*
X107400000Y-85739285D01*
X107328571Y-85596428D01*
D11*
G36*
X110160721Y-79470174D02*
X110260995Y-79511709D01*
X110351245Y-79572012D01*
X110427988Y-79648755D01*
X110488291Y-79739005D01*
X110529826Y-79839279D01*
X110551000Y-79945730D01*
X110551000Y-80054270D01*
X110529826Y-80160721D01*
X110488291Y-80260995D01*
X110427988Y-80351245D01*
X110351245Y-80427988D01*
X110260995Y-80488291D01*
X110160721Y-80529826D01*
X110054270Y-80551000D01*
X109945730Y-80551000D01*
X109839279Y-80529826D01*
X109739005Y-80488291D01*
X109648755Y-80427988D01*
X109572012Y-80351245D01*
X109511709Y-80260995D01*
X109470174Y-80160721D01*
X109449000Y-80054270D01*
X109449000Y-79945730D01*
X109470174Y-79839279D01*
X109511709Y-79739005D01*
X109572012Y-79648755D01*
X109648755Y-79572012D01*
X109739005Y-79511709D01*
X109839279Y-79470174D01*
X109945730Y-79449000D01*
X110054270Y-79449000D01*
X110160721Y-79470174D01*
X110160721Y-79470174D01*
G37*
G36*
X118598402Y-70627536D02*
X118633846Y-70634586D01*
X118670425Y-70649738D01*
X118670427Y-70649739D01*
X118703347Y-70671736D01*
X118731342Y-70699731D01*
X118749866Y-70727453D01*
X118753340Y-70732653D01*
X118768492Y-70769232D01*
X118776216Y-70808065D01*
X118776216Y-70847659D01*
X118770791Y-70874932D01*
X118768390Y-70899311D01*
X118770792Y-70923697D01*
X118777905Y-70947146D01*
X118789456Y-70968757D01*
X118805001Y-70987700D01*
X118823943Y-71003245D01*
X118845553Y-71014796D01*
X118869003Y-71021910D01*
X118893389Y-71024312D01*
X118917776Y-71021910D01*
X118947252Y-71016047D01*
X118986848Y-71016047D01*
X118996555Y-71017978D01*
X119025680Y-71023771D01*
X119062259Y-71038923D01*
X119062261Y-71038924D01*
X119077131Y-71048860D01*
X119095180Y-71060920D01*
X119123177Y-71088917D01*
X119134100Y-71105265D01*
X119144469Y-71120782D01*
X119145174Y-71121838D01*
X119160326Y-71158417D01*
X119164956Y-71181697D01*
X119168050Y-71197249D01*
X119168050Y-71236845D01*
X119158343Y-71285646D01*
X119157106Y-71289723D01*
X119154703Y-71314110D01*
X119157104Y-71338496D01*
X119164216Y-71361945D01*
X119175766Y-71383557D01*
X119191311Y-71402500D01*
X119210252Y-71418046D01*
X119231863Y-71429598D01*
X119255311Y-71436712D01*
X119279698Y-71439115D01*
X119297418Y-71437370D01*
X119340382Y-71437370D01*
X119349154Y-71439115D01*
X119379214Y-71445094D01*
X119415793Y-71460246D01*
X119415795Y-71460247D01*
X119421175Y-71463842D01*
X119435417Y-71473358D01*
X119448715Y-71482244D01*
X119476710Y-71510239D01*
X119497470Y-71541307D01*
X119498708Y-71543161D01*
X119513860Y-71579740D01*
X119516824Y-71594644D01*
X119521584Y-71618572D01*
X119521584Y-71658168D01*
X119511882Y-71706945D01*
X119510641Y-71711032D01*
X119508235Y-71735418D01*
X119510632Y-71759805D01*
X119517741Y-71783255D01*
X119529288Y-71804868D01*
X119544830Y-71823813D01*
X119563769Y-71839362D01*
X119585378Y-71850918D01*
X119608825Y-71858036D01*
X119633211Y-71860442D01*
X119650950Y-71858697D01*
X119693915Y-71858697D01*
X119697293Y-71859369D01*
X119732747Y-71866421D01*
X119769326Y-71881573D01*
X119769328Y-71881574D01*
X119802248Y-71903571D01*
X119830243Y-71931566D01*
X119851013Y-71962649D01*
X119852241Y-71964488D01*
X119867393Y-72001067D01*
X119875117Y-72039900D01*
X119875117Y-72079494D01*
X119867393Y-72118327D01*
X119858695Y-72139324D01*
X119851582Y-72162773D01*
X119849180Y-72187160D01*
X119851582Y-72211546D01*
X119858695Y-72234995D01*
X119870246Y-72256606D01*
X119885791Y-72275548D01*
X119904734Y-72291094D01*
X119926344Y-72302645D01*
X119949793Y-72309758D01*
X119974180Y-72312160D01*
X120009146Y-72312160D01*
X120018853Y-72314091D01*
X120047978Y-72319884D01*
X120084557Y-72335036D01*
X120084559Y-72335037D01*
X120101130Y-72346110D01*
X120117478Y-72357033D01*
X120145475Y-72385030D01*
X120156398Y-72401378D01*
X120162216Y-72410084D01*
X120167472Y-72417951D01*
X120182624Y-72454530D01*
X120190348Y-72493363D01*
X120190348Y-72532957D01*
X120182624Y-72571790D01*
X120167472Y-72608369D01*
X120167471Y-72608371D01*
X120145474Y-72641291D01*
X120117479Y-72669286D01*
X120084559Y-72691283D01*
X120084558Y-72691284D01*
X120084557Y-72691284D01*
X120047978Y-72706436D01*
X120018853Y-72712229D01*
X120009146Y-72714160D01*
X119969550Y-72714160D01*
X119959843Y-72712229D01*
X119930718Y-72706436D01*
X119894139Y-72691284D01*
X119894138Y-72691284D01*
X119894137Y-72691283D01*
X119861217Y-72669286D01*
X119833222Y-72641291D01*
X119811225Y-72608371D01*
X119811224Y-72608369D01*
X119796072Y-72571790D01*
X119788348Y-72532957D01*
X119788348Y-72493363D01*
X119796072Y-72454530D01*
X119804771Y-72433529D01*
X119811883Y-72410084D01*
X119814285Y-72385697D01*
X119811883Y-72361311D01*
X119804770Y-72337862D01*
X119793219Y-72316251D01*
X119777674Y-72297309D01*
X119758731Y-72281763D01*
X119737121Y-72270212D01*
X119713672Y-72263099D01*
X119689285Y-72260697D01*
X119654319Y-72260697D01*
X119644612Y-72258766D01*
X119615487Y-72252973D01*
X119578908Y-72237821D01*
X119578907Y-72237821D01*
X119578906Y-72237820D01*
X119545986Y-72215823D01*
X119517991Y-72187828D01*
X119517545Y-72187160D01*
X119507067Y-72171479D01*
X119495994Y-72154908D01*
X119489539Y-72139324D01*
X119480841Y-72118327D01*
X119473117Y-72079494D01*
X119473117Y-72039900D01*
X119480841Y-72001067D01*
X119482819Y-71991122D01*
X119484060Y-71987035D01*
X119486466Y-71962649D01*
X119484069Y-71938262D01*
X119476960Y-71914812D01*
X119465413Y-71893199D01*
X119449871Y-71874254D01*
X119430932Y-71858705D01*
X119409323Y-71847149D01*
X119385876Y-71840031D01*
X119361490Y-71837625D01*
X119343751Y-71839370D01*
X119300786Y-71839370D01*
X119291079Y-71837439D01*
X119261954Y-71831646D01*
X119225375Y-71816494D01*
X119225374Y-71816494D01*
X119225373Y-71816493D01*
X119192453Y-71794496D01*
X119164458Y-71766501D01*
X119142461Y-71733581D01*
X119138792Y-71724723D01*
X119127308Y-71697000D01*
X119119584Y-71658167D01*
X119119584Y-71618573D01*
X119127308Y-71579740D01*
X119129291Y-71569771D01*
X119130528Y-71565694D01*
X119132931Y-71541307D01*
X119130530Y-71516921D01*
X119123418Y-71493472D01*
X119111868Y-71471860D01*
X119096323Y-71452917D01*
X119077382Y-71437371D01*
X119055771Y-71425819D01*
X119032323Y-71418705D01*
X119007936Y-71416302D01*
X118990216Y-71418047D01*
X118947252Y-71418047D01*
X118937545Y-71416116D01*
X118908420Y-71410323D01*
X118871841Y-71395171D01*
X118871840Y-71395171D01*
X118871839Y-71395170D01*
X118838919Y-71373173D01*
X118810924Y-71345178D01*
X118804483Y-71335538D01*
X118796754Y-71323971D01*
X118788927Y-71312258D01*
X118782485Y-71296706D01*
X118773774Y-71275677D01*
X118766050Y-71236844D01*
X118766050Y-71197250D01*
X118771475Y-71169977D01*
X118773876Y-71145598D01*
X118771474Y-71121212D01*
X118764361Y-71097763D01*
X118752810Y-71076152D01*
X118737265Y-71057209D01*
X118718323Y-71041664D01*
X118696713Y-71030113D01*
X118673263Y-71022999D01*
X118648877Y-71020597D01*
X118624490Y-71022999D01*
X118595014Y-71028862D01*
X118555418Y-71028862D01*
X118545711Y-71026931D01*
X118516586Y-71021138D01*
X118480007Y-71005986D01*
X118480006Y-71005986D01*
X118480005Y-71005985D01*
X118447085Y-70983988D01*
X118419090Y-70955993D01*
X118416870Y-70952670D01*
X118408166Y-70939644D01*
X118397093Y-70923073D01*
X118397092Y-70923071D01*
X118381940Y-70886492D01*
X118374216Y-70847659D01*
X118374216Y-70808065D01*
X118381940Y-70769232D01*
X118397092Y-70732653D01*
X118400567Y-70727453D01*
X118419090Y-70699731D01*
X118447085Y-70671736D01*
X118480005Y-70649739D01*
X118480007Y-70649738D01*
X118516586Y-70634586D01*
X118552030Y-70627536D01*
X118555418Y-70626862D01*
X118595014Y-70626862D01*
X118598402Y-70627536D01*
X118598402Y-70627536D01*
G37*
G36*
X119477369Y-69781727D02*
X119506494Y-69787520D01*
X119543073Y-69802672D01*
X119543075Y-69802673D01*
X119559646Y-69813746D01*
X119575994Y-69824669D01*
X119603991Y-69852666D01*
X119625988Y-69885587D01*
X119641140Y-69922166D01*
X119648864Y-69960999D01*
X119648864Y-70000593D01*
X119641141Y-70039423D01*
X119641140Y-70039425D01*
X119632442Y-70060423D01*
X119625328Y-70083872D01*
X119622926Y-70108258D01*
X119625327Y-70132644D01*
X119632440Y-70156093D01*
X119643991Y-70177704D01*
X119659536Y-70196647D01*
X119678478Y-70212192D01*
X119700089Y-70223744D01*
X119723538Y-70230858D01*
X119747926Y-70233260D01*
X119782894Y-70233260D01*
X119792601Y-70235191D01*
X119821726Y-70240984D01*
X119858305Y-70256136D01*
X119858307Y-70256137D01*
X119891227Y-70278134D01*
X119919222Y-70306129D01*
X119935964Y-70331184D01*
X119941220Y-70339051D01*
X119956372Y-70375630D01*
X119962165Y-70404755D01*
X119964096Y-70414462D01*
X119964096Y-70454058D01*
X119954385Y-70502880D01*
X119953148Y-70506959D01*
X119950749Y-70531346D01*
X119953154Y-70555732D01*
X119960271Y-70579180D01*
X119971825Y-70600789D01*
X119987373Y-70619729D01*
X120006317Y-70635272D01*
X120027929Y-70646820D01*
X120051379Y-70653930D01*
X120075766Y-70656329D01*
X120093466Y-70654584D01*
X120136426Y-70654584D01*
X120145198Y-70656329D01*
X120175258Y-70662308D01*
X120211837Y-70677460D01*
X120211839Y-70677461D01*
X120228410Y-70688534D01*
X120244758Y-70699457D01*
X120272755Y-70727454D01*
X120294752Y-70760375D01*
X120309904Y-70796954D01*
X120312114Y-70808065D01*
X120317628Y-70835786D01*
X120317628Y-70875382D01*
X120307917Y-70924204D01*
X120306680Y-70928283D01*
X120304281Y-70952670D01*
X120306686Y-70977056D01*
X120313803Y-71000504D01*
X120325357Y-71022113D01*
X120340905Y-71041053D01*
X120359849Y-71056596D01*
X120381461Y-71068144D01*
X120404911Y-71075254D01*
X120429298Y-71077653D01*
X120447003Y-71075908D01*
X120489959Y-71075908D01*
X120498731Y-71077653D01*
X120528791Y-71083632D01*
X120562905Y-71097763D01*
X120565372Y-71098785D01*
X120581943Y-71109858D01*
X120598291Y-71120781D01*
X120626288Y-71148778D01*
X120648285Y-71181699D01*
X120663437Y-71218278D01*
X120671161Y-71257111D01*
X120671161Y-71296705D01*
X120665736Y-71323978D01*
X120663335Y-71348357D01*
X120665737Y-71372743D01*
X120672850Y-71396192D01*
X120684401Y-71417803D01*
X120699946Y-71436746D01*
X120718888Y-71452291D01*
X120740498Y-71463842D01*
X120763948Y-71470956D01*
X120788334Y-71473358D01*
X120812717Y-71470957D01*
X120842200Y-71465093D01*
X120881795Y-71465093D01*
X120891502Y-71467024D01*
X120920627Y-71472817D01*
X120957206Y-71487969D01*
X120957208Y-71487970D01*
X120990128Y-71509967D01*
X121018123Y-71537962D01*
X121039378Y-71569771D01*
X121040121Y-71570884D01*
X121055273Y-71607463D01*
X121062997Y-71646296D01*
X121062997Y-71685890D01*
X121055273Y-71724723D01*
X121040121Y-71761302D01*
X121018124Y-71794223D01*
X120990127Y-71822220D01*
X120976020Y-71831646D01*
X120957208Y-71844216D01*
X120957207Y-71844217D01*
X120957206Y-71844217D01*
X120920627Y-71859369D01*
X120891502Y-71865162D01*
X120881795Y-71867093D01*
X120842199Y-71867093D01*
X120832492Y-71865162D01*
X120803367Y-71859369D01*
X120766788Y-71844217D01*
X120766787Y-71844217D01*
X120766786Y-71844216D01*
X120747974Y-71831646D01*
X120733867Y-71822220D01*
X120705870Y-71794223D01*
X120683873Y-71761302D01*
X120668721Y-71724723D01*
X120660997Y-71685890D01*
X120660997Y-71646296D01*
X120666422Y-71619023D01*
X120668823Y-71594644D01*
X120666421Y-71570258D01*
X120659308Y-71546809D01*
X120647757Y-71525198D01*
X120632212Y-71506255D01*
X120613270Y-71490710D01*
X120591660Y-71479159D01*
X120568210Y-71472045D01*
X120543824Y-71469643D01*
X120519441Y-71472044D01*
X120489958Y-71477908D01*
X120450363Y-71477908D01*
X120440656Y-71475977D01*
X120411531Y-71470184D01*
X120374952Y-71455032D01*
X120374951Y-71455032D01*
X120374950Y-71455031D01*
X120358379Y-71443958D01*
X120342031Y-71433035D01*
X120314034Y-71405038D01*
X120292743Y-71373174D01*
X120292038Y-71372119D01*
X120292037Y-71372117D01*
X120276885Y-71335538D01*
X120269161Y-71296705D01*
X120269161Y-71257111D01*
X120276885Y-71218278D01*
X120278872Y-71208288D01*
X120280109Y-71204209D01*
X120282508Y-71179822D01*
X120280103Y-71155436D01*
X120272986Y-71131988D01*
X120261432Y-71110379D01*
X120245884Y-71091439D01*
X120226940Y-71075896D01*
X120205328Y-71064348D01*
X120181878Y-71057238D01*
X120157491Y-71054839D01*
X120139786Y-71056584D01*
X120096830Y-71056584D01*
X120087123Y-71054653D01*
X120057998Y-71048860D01*
X120021419Y-71033708D01*
X120021418Y-71033708D01*
X120021417Y-71033707D01*
X120001797Y-71020597D01*
X119988498Y-71011711D01*
X119960501Y-70983714D01*
X119949578Y-70967366D01*
X119938505Y-70950795D01*
X119938504Y-70950793D01*
X119923352Y-70914214D01*
X119915628Y-70875381D01*
X119915628Y-70835787D01*
X119923352Y-70796954D01*
X119925339Y-70786964D01*
X119926576Y-70782885D01*
X119928975Y-70758498D01*
X119926570Y-70734112D01*
X119919453Y-70710664D01*
X119907899Y-70689055D01*
X119892351Y-70670115D01*
X119873407Y-70654572D01*
X119851795Y-70643024D01*
X119828345Y-70635914D01*
X119803958Y-70633515D01*
X119786258Y-70635260D01*
X119743298Y-70635260D01*
X119733591Y-70633329D01*
X119704466Y-70627536D01*
X119667887Y-70612384D01*
X119667886Y-70612384D01*
X119667885Y-70612383D01*
X119634965Y-70590386D01*
X119606970Y-70562391D01*
X119584973Y-70529471D01*
X119584972Y-70529469D01*
X119569820Y-70492890D01*
X119562096Y-70454057D01*
X119562096Y-70414463D01*
X119569820Y-70375630D01*
X119578519Y-70354629D01*
X119585632Y-70331184D01*
X119588034Y-70306798D01*
X119585633Y-70282412D01*
X119578520Y-70258963D01*
X119566969Y-70237352D01*
X119551424Y-70218409D01*
X119532482Y-70202864D01*
X119510871Y-70191312D01*
X119487422Y-70184198D01*
X119463034Y-70181796D01*
X119428066Y-70181796D01*
X119418359Y-70179865D01*
X119389234Y-70174072D01*
X119352655Y-70158920D01*
X119352654Y-70158920D01*
X119352653Y-70158919D01*
X119319733Y-70136922D01*
X119291738Y-70108927D01*
X119269741Y-70076007D01*
X119263286Y-70060423D01*
X119254588Y-70039426D01*
X119246864Y-70000593D01*
X119246864Y-69960999D01*
X119254588Y-69922166D01*
X119269740Y-69885587D01*
X119291737Y-69852666D01*
X119319734Y-69824669D01*
X119336082Y-69813746D01*
X119352653Y-69802673D01*
X119352655Y-69802672D01*
X119389234Y-69787520D01*
X119418359Y-69781727D01*
X119428066Y-69779796D01*
X119467662Y-69779796D01*
X119477369Y-69781727D01*
X119477369Y-69781727D01*
G37*
G36*
X129660721Y-61970174D02*
X129760995Y-62011709D01*
X129851245Y-62072012D01*
X129927988Y-62148755D01*
X129988291Y-62239005D01*
X130029826Y-62339279D01*
X130051000Y-62445730D01*
X130051000Y-62554270D01*
X130029826Y-62660721D01*
X129988291Y-62760995D01*
X129927988Y-62851245D01*
X129851245Y-62927988D01*
X129760995Y-62988291D01*
X129660721Y-63029826D01*
X129554270Y-63051000D01*
X129445730Y-63051000D01*
X129339279Y-63029826D01*
X129239005Y-62988291D01*
X129148755Y-62927988D01*
X129072012Y-62851245D01*
X129011709Y-62760995D01*
X128970174Y-62660721D01*
X128949000Y-62554270D01*
X128949000Y-62445730D01*
X128970174Y-62339279D01*
X129011709Y-62239005D01*
X129072012Y-62148755D01*
X129148755Y-62072012D01*
X129239005Y-62011709D01*
X129339279Y-61970174D01*
X129445730Y-61949000D01*
X129554270Y-61949000D01*
X129660721Y-61970174D01*
X129660721Y-61970174D01*
G37*
M02*
