%
M48
METRIC,000.000
T01C0.50
%
T01
X025248Y012471
X025212Y013470
X025096Y014463
X024903Y015444
X024636Y016407
X026378Y017949
X026963Y017139
X027610Y016376
X028314Y015666
X029073Y015015
X024778Y034067
X025008Y035040
X025163Y036028
X025240Y037024
X029117Y035020
X028356Y034371
X027649Y033665
X026998Y032906
X004573Y027515
X005379Y026924
X006229Y026399
X007119Y025942
X007591Y024265
X006684Y023844
X005812Y023355
X004983Y022797
X004200Y022176
M30