%MOIN*%
%OFA0B0*%
%FSLAX46Y46*%
%IPPOS*%
%LPD*%
%ADD10C,0.01968503937007874*%
%ADD11C,0.017716535433070866*%
%ADD12C,0.0039370078740157488*%
%ADD13C,0.0035039370078740156*%
%ADD14C,0.0078740157480314977*%
%ADD25C,0.01968503937007874*%
%ADD26C,0.017716535433070866*%
%ADD27C,0.0039370078740157488*%
%ADD28C,0.0035039370078740156*%
%ADD29C,0.0078740157480314977*%
%ADD30C,0.01968503937007874*%
%ADD31C,0.017716535433070866*%
%ADD32C,0.0039370078740157488*%
%ADD33C,0.0035039370078740156*%
%ADD34C,0.0078740157480314977*%
G01*
D10*
X0000492125Y0001476377D02*
X0000399606Y0001297244D03*
X0000399606Y0001255905D03*
X0000399606Y0001214566D03*
X0000358267Y0001297244D03*
X0000358267Y0001255905D03*
X0000358267Y0001214566D03*
X0000316929Y0001297244D03*
X0000316929Y0001255905D03*
X0000316929Y0001214566D03*
D11*
X0000782964Y0001826890D03*
X0000693844Y0001739645D03*
X0000954017Y0001538284D03*
X0000888517Y0001266884D03*
X0000673268Y0001734619D03*
X0000923622Y0001623622D03*
X0000667700Y0001713501D03*
X0000893017Y0001710784D03*
X0000682217Y0001880884D03*
X0000717417Y0001880684D03*
X0000841732Y0001198425D03*
X0000509517Y0001739584D03*
X0000649606Y0001299212D03*
X0000629921Y0001299212D03*
X0000278026Y0001726046D03*
X0000501404Y0001853791D03*
X0000383223Y0001877778D03*
X0000224852Y0001867875D03*
X0000132632Y0001785359D03*
X0000048634Y0001643771D03*
X0000018128Y0001481993D03*
X0000019442Y0001440660D03*
X0000024354Y0001399599D03*
X0000044793Y0001319538D03*
X0000032826Y0001359122D03*
X0000060165Y0001281147D03*
X0000078824Y0001244242D03*
X0000100628Y0001209104D03*
X0000125413Y0001176000D03*
X0000152988Y0001145181D03*
X0000183144Y0001116884D03*
X0000215652Y0001091322D03*
X0000250263Y0001068691D03*
X0000324732Y0001032886D03*
X0000648965Y0001029045D03*
X0000687356Y0001044417D03*
X0000724261Y0001063076D03*
X0000759399Y0001084880D03*
X0000792503Y0001109665D03*
X0000851619Y0001167396D03*
X0000823322Y0001137240D03*
X0000191748Y0001843090D03*
X0000160929Y0001815515D03*
X0000084439Y0001718240D03*
X0000107070Y0001752851D03*
X0000259990Y0001889679D03*
X0000296895Y0001908338D03*
X0000620229Y0001932770D03*
X0000957947Y0001388538D03*
X0000964809Y0001512095D03*
X0000951425Y0001593633D03*
X0000659519Y0001919869D03*
X0000477117Y0001067984D03*
X0000411917Y0001116484D03*
X0000539370Y0001653543D03*
X0000696850Y0001637795D03*
X0000736220Y0001637795D03*
X0000736220Y0001610236D03*
X0000696850Y0001610236D03*
X0000873417Y0001404284D03*
X0000723917Y0001418484D03*
X0000618817Y0001126784D03*
X0000255920Y0001614314D03*
X0000180617Y0001646884D03*
X0000181817Y0001694984D03*
X0000736220Y0001667322D03*
X0000332317Y0001148984D03*
X0000435417Y0001174784D03*
X0000531117Y0001236684D03*
X0000578517Y0001236884D03*
X0000578817Y0001134684D03*
X0000078740Y0001480314D03*
X0000189917Y0001473884D03*
X0000190317Y0001454484D03*
X0000189517Y0001434584D03*
X0000170017Y0001425884D03*
X0000158917Y0001407284D03*
X0000159317Y0001386284D03*
X0000180517Y0001385684D03*
X0000191617Y0001314284D03*
X0000211317Y0001304184D03*
X0000211117Y0001323184D03*
X0000254417Y0001319384D03*
X0000259617Y0001365184D03*
X0000189617Y0001257784D03*
X0000164217Y0001257084D03*
X0000182317Y0001165084D03*
X0000151917Y0001191884D03*
X0000137417Y0001220084D03*
X0000109617Y0001257084D03*
X0000133617Y0001320584D03*
X0000051417Y0001388084D03*
X0000057417Y0001369084D03*
X0000064117Y0001351084D03*
X0000072217Y0001333184D03*
X0000090317Y0001295984D03*
X0000099917Y0001277884D03*
X0000080817Y0001314684D03*
X0000212017Y0001136484D03*
X0000234117Y0001121384D03*
X0000274717Y0001186384D03*
X0000369617Y0001058084D03*
X0000343217Y0001064784D03*
X0000475417Y0001151384D03*
X0000582517Y0001065284D03*
X0000719217Y0001188184D03*
X0000726717Y0001115184D03*
X0000765417Y0001226184D03*
X0000743717Y0001288884D03*
X0000486517Y0001354884D03*
X0000523717Y0001353584D03*
X0000703517Y0001311584D03*
X0000246138Y0001462905D03*
X0000326829Y0001700651D03*
X0000527709Y0001838102D03*
X0000040350Y0001403217D03*
X0000063809Y0001422484D03*
X0000063809Y0001450384D03*
X0000137617Y0001486684D03*
X0000149017Y0001427784D03*
X0000463217Y0001580984D03*
X0000223617Y0001807584D03*
X0000475017Y0001911184D03*
X0000326611Y0001618990D03*
X0000254317Y0001813084D03*
X0000840157Y0001257086D03*
X0000621936Y0001737320D03*
X0000590157Y0001653937D03*
X0000590551Y0001680708D03*
X0000771653Y0001857205D03*
X0000933070Y0001651968D03*
X0000757874Y0001505905D03*
X0000787401Y0001466535D03*
X0000931417Y0001297784D03*
X0000403543Y0001023622D03*
X0000364173Y0001023622D03*
X0000442913Y0001023622D03*
X0000482283Y0001023622D03*
X0000521653Y0001023622D03*
X0000561023Y0001023622D03*
X0000600393Y0001023622D03*
X0000584717Y0001844884D03*
X0000648217Y0001555384D03*
X0000465451Y0001800905D03*
X0000847917Y0001435984D03*
X0000666917Y0001583784D03*
X0000737717Y0001760484D03*
X0000678817Y0001101884D03*
X0000657117Y0001074384D03*
X0000239475Y0001627664D03*
X0000200617Y0001601384D03*
X0000540530Y0001725196D03*
X0000831889Y0001766929D03*
X0000669893Y0001808251D03*
X0000803082Y0001556983D03*
X0000443596Y0001799429D03*
X0000500432Y0001685584D03*
X0000815117Y0001293084D03*
X0000635717Y0001627284D03*
X0000782975Y0001696543D03*
X0000844132Y0001529698D03*
X0000561600Y0001745488D03*
X0000635826Y0001842913D03*
X0000871015Y0001738171D03*
X0000837117Y0001600684D03*
X0000592617Y0001806884D03*
X0000388794Y0001838499D03*
X0000894488Y0001498031D03*
X0000743407Y0001438683D03*
X0000776317Y0001744684D03*
X0000361401Y0001828035D03*
X0000929917Y0001529884D03*
X0000399054Y0001819968D03*
X0000636501Y0001648450D03*
X0000824217Y0001558384D03*
X0000762170Y0001692569D03*
X0000124117Y0001505384D03*
X0000293899Y0001752667D03*
X0000556717Y0001132084D03*
X0000321117Y0001125684D03*
X0000462754Y0001675134D03*
X0000396817Y0001358984D03*
X0000440812Y0001674505D03*
X0000375635Y0001358998D03*
X0000348717Y0001362784D03*
X0000355144Y0001636422D03*
X0000318417Y0001359784D03*
X0000329904Y0001679694D03*
X0000291117Y0001332084D03*
X0000341479Y0001652606D03*
X0000375401Y0001380179D03*
X0000478169Y0001689926D03*
X0000419217Y0001903684D03*
X0000497817Y0001894584D03*
X0000822411Y0001714578D03*
X0000513210Y0001603447D03*
X0000430834Y0001816335D03*
X0000166017Y0001756284D03*
X0000416944Y0001832326D03*
X0000183817Y0001539384D03*
X0000120526Y0001590075D03*
X0000182617Y0001575884D03*
X0000296417Y0001425684D03*
X0000544869Y0001779120D03*
X0000513917Y0001624624D03*
X0000764917Y0001590184D03*
X0000733317Y0001690984D03*
X0000122317Y0001561384D03*
X0000630017Y0001910084D03*
X0000346497Y0001812985D03*
X0000250317Y0001556484D03*
X0000539008Y0001949842D03*
X0000474015Y0001954330D03*
X0000673622Y0001133464D03*
X0000361552Y0001543857D03*
X0000681496Y0001153937D03*
X0000638064Y0001117942D03*
X0000536953Y0001916911D03*
X0000924219Y0001435924D03*
X0000813343Y0001805292D03*
X0000366141Y0001572440D03*
X0000383225Y0001544881D03*
X0000871025Y0001651184D03*
X0000371394Y0001651026D03*
X0000621777Y0001175984D03*
X0000392442Y0001653398D03*
X0000401299Y0001608183D03*
X0000733070Y0001253543D03*
X0000744212Y0001190957D03*
X0000126637Y0001657216D03*
X0000299117Y0001724084D03*
X0000157417Y0001650384D03*
X0000300840Y0001702973D03*
X0000337191Y0001550748D03*
X0000416481Y0001622954D03*
X0000331464Y0001771331D03*
X0000302755Y0001568503D03*
X0000462106Y0001703802D03*
X0000308608Y0001546784D03*
X0000489428Y0001775045D03*
X0000685817Y0001794284D03*
X0000485447Y0001754240D03*
X0000707717Y0001795584D03*
X0000500473Y0001707433D03*
X0000894598Y0001404395D03*
X0000490410Y0001726090D03*
X0000890151Y0001454126D03*
D12*
X0000945159Y0001547142D02*
X0000954017Y0001538284D01*
X0000829835Y0001737833D02*
X0000892719Y0001674950D01*
X0000729282Y0001775084D02*
X0000781469Y0001775084D01*
X0000693844Y0001739645D02*
X0000729282Y0001775084D01*
X0000892719Y0001674950D02*
X0000892719Y0001599582D01*
X0000818719Y0001737833D02*
X0000829835Y0001737833D01*
X0000781469Y0001775084D02*
X0000818719Y0001737833D01*
X0000892719Y0001599582D02*
X0000945159Y0001547142D01*
X0000910039Y0001637204D02*
X0000914763Y0001632480D01*
X0000673268Y0001734619D02*
X0000673268Y0001740035D01*
X0000726117Y0001782584D02*
X0000784437Y0001782584D01*
X0000698317Y0001754784D02*
X0000726117Y0001782584D01*
X0000910039Y0001668098D02*
X0000910039Y0001637204D01*
X0000821785Y0001745235D02*
X0000832901Y0001745235D01*
X0000832901Y0001745235D02*
X0000910039Y0001668098D01*
X0000914763Y0001632480D02*
X0000923622Y0001623622D01*
X0000784437Y0001782584D02*
X0000821785Y0001745235D01*
X0000688017Y0001754784D02*
X0000698317Y0001754784D01*
X0000673268Y0001740035D02*
X0000688017Y0001754784D01*
X0000787405Y0001790084D02*
X0000824851Y0001752637D01*
X0000824851Y0001752637D02*
X0000836338Y0001752637D01*
X0000712583Y0001779850D02*
X0000722817Y0001790084D01*
X0000878192Y0001710784D02*
X0000880489Y0001710784D01*
X0000722817Y0001790084D02*
X0000787405Y0001790084D01*
X0000698183Y0001779850D02*
X0000712583Y0001779850D01*
X0000880489Y0001710784D02*
X0000893017Y0001710784D01*
X0000667700Y0001713501D02*
X0000658841Y0001722359D01*
X0000658841Y0001722359D02*
X0000658841Y0001740508D01*
X0000658841Y0001740508D02*
X0000698183Y0001779850D01*
X0000836338Y0001752637D02*
X0000878192Y0001710784D01*
X0000469919Y0001796882D02*
X0000465617Y0001801184D01*
X0000465451Y0001800905D02*
X0000468396Y0001800905D01*
X0000472321Y0001796980D02*
X0000483521Y0001796980D01*
X0000468396Y0001800905D02*
X0000472321Y0001796980D01*
X0000483521Y0001796980D02*
X0000501421Y0001796980D01*
X0000501421Y0001796980D02*
X0000504717Y0001793684D01*
X0000551456Y0001793684D02*
X0000551728Y0001793412D01*
X0000504717Y0001793684D02*
X0000551456Y0001793684D01*
X0000551728Y0001793412D02*
X0000562223Y0001782917D01*
X0000562223Y0001782877D02*
X0000562117Y0001782984D01*
X0000648217Y0001555384D02*
X0000639359Y0001564242D01*
X0000639359Y0001564242D02*
X0000638759Y0001564242D01*
X0000562223Y0001782877D02*
X0000562223Y0001770847D01*
X0000562223Y0001770847D02*
X0000576771Y0001756299D01*
X0000576771Y0001756299D02*
X0000576771Y0001719685D01*
X0000577327Y0001719685D02*
X0000591338Y0001705673D01*
X0000576771Y0001719685D02*
X0000577327Y0001719685D01*
X0000591338Y0001705673D02*
X0000607164Y0001689847D01*
X0000607164Y0001689847D02*
X0000607164Y0001595590D01*
X0000607164Y0001595590D02*
X0000638582Y0001564173D01*
D13*
X0000686144Y0001811975D02*
X0000682420Y0001808251D01*
X0000700908Y0001811975D02*
X0000686144Y0001811975D01*
X0000682420Y0001808251D02*
X0000669893Y0001808251D01*
D12*
X0000569625Y0001784376D02*
X0000569517Y0001784484D01*
X0000652868Y0001571884D02*
X0000641585Y0001571884D01*
X0000803082Y0001556983D02*
X0000667769Y0001556983D01*
X0000667769Y0001556983D02*
X0000652868Y0001571884D01*
X0000614566Y0001598902D02*
X0000641774Y0001571695D01*
X0000614566Y0001692913D02*
X0000614566Y0001598902D01*
X0000591338Y0001716303D02*
X0000591338Y0001716141D01*
X0000591338Y0001716141D02*
X0000614566Y0001692913D01*
X0000458929Y0001815196D02*
X0000472311Y0001815196D01*
X0000483125Y0001804382D02*
X0000504487Y0001804382D01*
X0000569625Y0001785983D02*
X0000569625Y0001774075D01*
X0000443617Y0001799884D02*
X0000458929Y0001815196D01*
X0000584645Y0001722996D02*
X0000591338Y0001716303D01*
X0000504487Y0001804382D02*
X0000507685Y0001801184D01*
X0000507685Y0001801184D02*
X0000554424Y0001801184D01*
X0000569625Y0001774075D02*
X0000584645Y0001759055D01*
X0000472311Y0001815196D02*
X0000483125Y0001804382D01*
X0000554424Y0001801184D02*
X0000569625Y0001785983D01*
X0000584645Y0001759055D02*
X0000584645Y0001722996D01*
X0000806259Y0001301942D02*
X0000815117Y0001293084D01*
X0000500432Y0001685584D02*
X0000500432Y0001673056D01*
X0000500432Y0001673056D02*
X0000477419Y0001650043D01*
X0000680219Y0001481814D02*
X0000680219Y0001427982D01*
X0000680219Y0001427982D02*
X0000806259Y0001301942D01*
X0000588951Y0001573082D02*
X0000680219Y0001481814D01*
X0000501951Y0001573082D02*
X0000588951Y0001573082D01*
X0000477419Y0001597614D02*
X0000501951Y0001573082D01*
X0000477419Y0001650043D02*
X0000477419Y0001597614D01*
X0000722417Y0001713884D02*
X0000764417Y0001713884D01*
X0000721917Y0001713384D02*
X0000722417Y0001713884D01*
D13*
X0000765434Y0001714084D02*
X0000764417Y0001714084D01*
X0000782975Y0001696543D02*
X0000765434Y0001714084D01*
D12*
X0000783070Y0001626771D02*
X0000783070Y0001697244D01*
X0000844132Y0001529698D02*
X0000844132Y0001565709D01*
X0000844132Y0001565709D02*
X0000783070Y0001626771D01*
X0000635717Y0001627284D02*
X0000621968Y0001641032D01*
X0000683113Y0001674580D02*
X0000722517Y0001713984D01*
X0000621968Y0001641032D02*
X0000621968Y0001654135D01*
X0000642413Y0001674580D02*
X0000683113Y0001674580D01*
X0000621968Y0001654135D02*
X0000642413Y0001674580D01*
X0000837598Y0001617757D02*
X0000862167Y0001642326D01*
X0000837598Y0001600393D02*
X0000837598Y0001617757D01*
X0000862167Y0001642326D02*
X0000871025Y0001651184D01*
X0000575690Y0001823810D02*
X0000516462Y0001823810D01*
X0000592617Y0001806884D02*
X0000575690Y0001823810D01*
X0000516462Y0001823810D02*
X0000512389Y0001827884D01*
X0000512389Y0001827884D02*
X0000491027Y0001827884D01*
X0000465322Y0001853588D02*
X0000403700Y0001853588D01*
X0000491027Y0001827884D02*
X0000465322Y0001853588D01*
X0000403700Y0001853588D02*
X0000391396Y0001841284D01*
X0000391396Y0001841284D02*
X0000389117Y0001841284D01*
D13*
X0000908673Y0001397639D02*
X0000901354Y0001390320D01*
X0000894488Y0001498031D02*
X0000908673Y0001483846D01*
X0000908673Y0001483846D02*
X0000908673Y0001397639D01*
X0000880173Y0001390209D02*
X0000810577Y0001390209D01*
X0000901354Y0001390320D02*
X0000880284Y0001390320D01*
X0000880284Y0001390320D02*
X0000880173Y0001390209D01*
X0000810577Y0001390209D02*
X0000762104Y0001438683D01*
X0000762104Y0001438683D02*
X0000743407Y0001438683D01*
D12*
X0000672433Y0001697084D02*
X0000641961Y0001697084D01*
X0000776317Y0001744684D02*
X0000720033Y0001744684D01*
X0000555194Y0001831384D02*
X0000517394Y0001869184D01*
X0000517394Y0001869184D02*
X0000408828Y0001869184D01*
X0000607008Y0001813644D02*
X0000597068Y0001823584D01*
X0000586385Y0001823584D02*
X0000578585Y0001831384D01*
X0000379549Y0001852790D02*
X0000361017Y0001834258D01*
X0000720033Y0001744684D02*
X0000672433Y0001697084D01*
X0000607008Y0001732037D02*
X0000607008Y0001813644D01*
X0000408828Y0001869184D02*
X0000392434Y0001852790D01*
X0000597068Y0001823584D02*
X0000586385Y0001823584D01*
X0000361017Y0001834258D02*
X0000361017Y0001828184D01*
X0000392434Y0001852790D02*
X0000379549Y0001852790D01*
X0000578585Y0001831384D02*
X0000555194Y0001831384D01*
X0000641961Y0001697084D02*
X0000607008Y0001732037D01*
D13*
X0000423498Y0001846403D02*
X0000407036Y0001846403D01*
X0000402869Y0001823783D02*
X0000399054Y0001819968D01*
X0000402869Y0001842236D02*
X0000402869Y0001823783D01*
X0000407036Y0001846403D02*
X0000402869Y0001842236D01*
D12*
X0000513521Y0001816284D02*
X0000510619Y0001819186D01*
X0000584717Y0001781184D02*
X0000584717Y0001791827D01*
X0000510619Y0001819186D02*
X0000489615Y0001819186D01*
X0000489417Y0001819384D02*
X0000489059Y0001819384D01*
X0000560260Y0001816284D02*
X0000513521Y0001816284D01*
X0000489615Y0001819186D02*
X0000489417Y0001819384D01*
X0000584717Y0001791827D02*
X0000560260Y0001816284D01*
X0000489059Y0001819384D02*
X0000462259Y0001846184D01*
X0000462259Y0001846184D02*
X0000423217Y0001846184D01*
X0000921059Y0001538742D02*
X0000929917Y0001529884D01*
X0000885317Y0001574484D02*
X0000921059Y0001538742D01*
X0000716319Y0001729086D02*
X0000828115Y0001729086D01*
X0000676617Y0001689384D02*
X0000716319Y0001729086D01*
X0000599606Y0001728971D02*
X0000639193Y0001689384D01*
X0000639193Y0001689384D02*
X0000676617Y0001689384D01*
X0000599606Y0001766297D02*
X0000599606Y0001728971D01*
X0000584719Y0001781184D02*
X0000599606Y0001766297D01*
X0000828115Y0001729086D02*
X0000885317Y0001671884D01*
X0000885317Y0001671884D02*
X0000885317Y0001574484D01*
X0000824217Y0001558384D02*
X0000772517Y0001610084D01*
X0000772517Y0001610084D02*
X0000772517Y0001682222D01*
X0000771028Y0001683711D02*
X0000762170Y0001692569D01*
X0000772517Y0001682222D02*
X0000771028Y0001683711D01*
X0000748319Y0001706482D02*
X0000762417Y0001692384D01*
X0000636501Y0001648450D02*
X0000667451Y0001648450D01*
X0000725483Y0001706482D02*
X0000748319Y0001706482D01*
X0000667451Y0001648450D02*
X0000725483Y0001706482D01*
X0000281371Y0001752667D02*
X0000293899Y0001752667D01*
X0000239788Y0001711084D02*
X0000281371Y0001752667D01*
X0000158117Y0001711084D02*
X0000239788Y0001711084D01*
X0000124517Y0001504984D02*
X0000105117Y0001524384D01*
X0000105117Y0001658084D02*
X0000158117Y0001711084D01*
X0000105117Y0001524384D02*
X0000105117Y0001658084D01*
D14*
X0000397052Y0001125684D02*
X0000404452Y0001133084D01*
X0000321117Y0001125684D02*
X0000397052Y0001125684D01*
X0000404452Y0001133084D02*
X0000556117Y0001133084D01*
D12*
X0000354917Y0001631184D02*
X0000355144Y0001631410D01*
X0000355144Y0001631410D02*
X0000355144Y0001636422D01*
X0000329904Y0001667166D02*
X0000329904Y0001679694D01*
X0000326917Y0001662284D02*
X0000329904Y0001665271D01*
X0000329904Y0001665271D02*
X0000329904Y0001667166D01*
X0000364417Y0001391484D02*
X0000364417Y0001391163D01*
X0000366543Y0001389037D02*
X0000375401Y0001380179D01*
X0000364417Y0001391163D02*
X0000366543Y0001389037D01*
X0000585885Y0001565616D02*
X0000672817Y0001478684D01*
X0000478169Y0001661262D02*
X0000470017Y0001653109D01*
X0000478169Y0001689926D02*
X0000478169Y0001661262D01*
X0000470017Y0001653109D02*
X0000470017Y0001594548D01*
X0000470017Y0001594548D02*
X0000498885Y0001565680D01*
X0000498885Y0001565680D02*
X0000585885Y0001565680D01*
X0000585885Y0001565680D02*
X0000585885Y0001565616D01*
X0000672817Y0001478684D02*
X0000672817Y0001185884D01*
X0000577027Y0001789049D02*
X0000557292Y0001808784D01*
X0000486191Y0001811784D02*
X0000472782Y0001825193D01*
X0000472782Y0001825193D02*
X0000439692Y0001825193D01*
X0000557292Y0001808784D02*
X0000510553Y0001808784D01*
X0000510553Y0001808784D02*
X0000507553Y0001811784D01*
X0000577027Y0001786184D02*
X0000577027Y0001789049D01*
X0000507553Y0001811784D02*
X0000486191Y0001811784D01*
X0000439692Y0001825193D02*
X0000430834Y0001816335D01*
X0000499625Y0001636156D02*
X0000529527Y0001666058D01*
X0000524117Y0001720458D02*
X0000524117Y0001761507D01*
X0000436912Y0001785138D02*
X0000428917Y0001793132D01*
X0000496144Y0001789480D02*
X0000475177Y0001789480D01*
X0000470835Y0001785138D02*
X0000436912Y0001785138D01*
X0000529527Y0001666058D02*
X0000529527Y0001715047D01*
X0000529527Y0001715047D02*
X0000524117Y0001720458D01*
X0000513210Y0001603447D02*
X0000499625Y0001617032D01*
X0000499625Y0001617032D02*
X0000499625Y0001636156D01*
X0000475177Y0001789480D02*
X0000470835Y0001785138D01*
X0000428917Y0001793132D02*
X0000428917Y0001815684D01*
X0000524117Y0001761507D02*
X0000496144Y0001789480D01*
X0000577027Y0001786752D02*
X0000577027Y0001787007D01*
X0000577027Y0001777696D02*
X0000577027Y0001786752D01*
X0000592125Y0001762598D02*
X0000577027Y0001777696D01*
X0000817517Y0001721684D02*
X0000719385Y0001721684D01*
X0000592125Y0001725984D02*
X0000592125Y0001762598D01*
X0000719385Y0001721684D02*
X0000679683Y0001681982D01*
X0000679683Y0001681982D02*
X0000636127Y0001681982D01*
X0000824717Y0001714484D02*
X0000817517Y0001721684D01*
X0000636127Y0001681982D02*
X0000592125Y0001725984D01*
X0000166817Y0001757084D02*
X0000166817Y0001757284D01*
X0000280607Y0001760527D02*
X0000318364Y0001798284D01*
X0000318364Y0001798284D02*
X0000397676Y0001798284D01*
X0000397676Y0001798284D02*
X0000416317Y0001816924D01*
X0000166017Y0001756284D02*
X0000166817Y0001757084D01*
X0000170060Y0001760527D02*
X0000280607Y0001760527D01*
X0000166817Y0001757284D02*
X0000170060Y0001760527D01*
X0000416317Y0001830284D02*
X0000417217Y0001831184D01*
X0000416317Y0001816924D02*
X0000416317Y0001830284D01*
X0000170089Y0001575884D02*
X0000155889Y0001590084D01*
X0000182617Y0001575884D02*
X0000170089Y0001575884D01*
X0000155889Y0001590084D02*
X0000120517Y0001590084D01*
X0000298117Y0001423684D02*
X0000301517Y0001427084D01*
X0000182617Y0001575884D02*
X0000296117Y0001462384D01*
X0000296117Y0001425684D02*
X0000298117Y0001423684D01*
X0000296117Y0001462384D02*
X0000296117Y0001425684D01*
X0000516494Y0001622047D02*
X0000535433Y0001622047D01*
X0000554821Y0001732056D02*
X0000540157Y0001746720D01*
X0000540157Y0001773622D02*
X0000545669Y0001779133D01*
X0000540157Y0001746720D02*
X0000540157Y0001773622D01*
X0000513917Y0001624624D02*
X0000516494Y0001622047D01*
X0000554821Y0001641435D02*
X0000554821Y0001732056D01*
X0000535433Y0001622047D02*
X0000554821Y0001641435D01*
X0000764917Y0001659384D02*
X0000742175Y0001682126D01*
X0000764917Y0001590184D02*
X0000764917Y0001659384D01*
X0000742175Y0001682126D02*
X0000733317Y0001690984D01*
X0000638064Y0001123032D02*
X0000638064Y0001117942D01*
X0000681496Y0001153937D02*
X0000668968Y0001153937D01*
X0000668968Y0001153937D02*
X0000638064Y0001123032D01*
X0000585417Y0001868448D02*
X0000545811Y0001908053D01*
X0000585417Y0001845084D02*
X0000585417Y0001868448D01*
X0000545811Y0001908053D02*
X0000536953Y0001916911D01*
X0000713025Y0001811975D02*
X0000727417Y0001797584D01*
X0000700908Y0001811975D02*
X0000713025Y0001811975D01*
X0000727417Y0001797584D02*
X0000790372Y0001797584D01*
X0000823031Y0001775787D02*
X0000831889Y0001766929D01*
X0000812169Y0001775787D02*
X0000823031Y0001775787D01*
X0000790372Y0001797584D02*
X0000812169Y0001775787D01*
D13*
X0000870078Y0001739108D02*
X0000871015Y0001738171D01*
X0000870078Y0001749570D02*
X0000870078Y0001739108D01*
X0000831460Y0001788188D02*
X0000870078Y0001749570D01*
X0000821653Y0001788188D02*
X0000831460Y0001788188D01*
D12*
X0000810236Y0001788188D02*
X0000822440Y0001788188D01*
X0000793307Y0001805118D02*
X0000810236Y0001788188D01*
X0000730351Y0001805118D02*
X0000793307Y0001805118D01*
X0000635433Y0001842519D02*
X0000692949Y0001842519D01*
X0000692949Y0001842519D02*
X0000730351Y0001805118D01*
X0000462754Y0001675134D02*
X0000438917Y0001651297D01*
X0000438917Y0001651297D02*
X0000438917Y0001411884D01*
X0000393717Y0001358984D02*
X0000396817Y0001358984D01*
X0000393717Y0001366684D02*
X0000393717Y0001358984D01*
X0000438917Y0001411884D02*
X0000393717Y0001366684D01*
X0000440717Y0001674884D02*
X0000431515Y0001665682D01*
X0000431515Y0001665682D02*
X0000431515Y0001414950D01*
X0000431515Y0001414950D02*
X0000384494Y0001367928D01*
X0000384494Y0001367928D02*
X0000384494Y0001367856D01*
X0000384494Y0001367856D02*
X0000375635Y0001358998D01*
X0000299863Y0001597230D02*
X0000325063Y0001597230D01*
X0000281062Y0001578429D02*
X0000299863Y0001597230D01*
X0000325063Y0001597230D02*
X0000356017Y0001628184D01*
X0000348717Y0001362784D02*
X0000333119Y0001378382D01*
X0000281062Y0001532039D02*
X0000281062Y0001578429D01*
X0000333119Y0001479982D02*
X0000281062Y0001532039D01*
X0000333119Y0001378382D02*
X0000333119Y0001479982D01*
X0000356017Y0001628184D02*
X0000356017Y0001634484D01*
X0000318315Y0001372413D02*
X0000318315Y0001450654D01*
X0000264615Y0001504354D02*
X0000264615Y0001599882D01*
X0000318417Y0001359784D02*
X0000318417Y0001372311D01*
X0000318417Y0001372311D02*
X0000318315Y0001372413D01*
X0000318315Y0001450654D02*
X0000264615Y0001504354D01*
X0000264615Y0001599882D02*
X0000327017Y0001662284D01*
X0000332717Y0001352384D02*
X0000332717Y0001367284D01*
X0000312417Y0001332084D02*
X0000332717Y0001352384D01*
X0000291117Y0001332084D02*
X0000312417Y0001332084D01*
X0000332717Y0001367284D02*
X0000325717Y0001374284D01*
X0000325717Y0001374284D02*
X0000325717Y0001453720D01*
X0000325717Y0001453720D02*
X0000272017Y0001507420D01*
X0000272017Y0001507420D02*
X0000272017Y0001595884D01*
X0000272017Y0001595884D02*
X0000328317Y0001652184D01*
X0000328317Y0001652184D02*
X0000342217Y0001652184D01*
X0000340521Y0001483048D02*
X0000288464Y0001535105D01*
X0000371117Y0001650984D02*
X0000370717Y0001651384D01*
X0000371117Y0001632184D02*
X0000371117Y0001650984D01*
X0000328761Y0001589828D02*
X0000371117Y0001632184D01*
X0000288464Y0001574576D02*
X0000303716Y0001589828D01*
X0000303716Y0001589828D02*
X0000328761Y0001589828D01*
X0000364517Y0001391184D02*
X0000340521Y0001415180D01*
X0000288464Y0001535105D02*
X0000288464Y0001574576D01*
X0000340521Y0001415180D02*
X0000340521Y0001483048D01*
X0000672817Y0001185884D02*
X0000672817Y0001182659D01*
X0000672817Y0001182659D02*
X0000666141Y0001175984D01*
X0000666141Y0001175984D02*
X0000621777Y0001175984D01*
X0000733070Y0001253543D02*
X0000744212Y0001242401D01*
X0000744212Y0001242401D02*
X0000744212Y0001190957D01*
X0000569658Y0001910284D02*
X0000548686Y0001931256D01*
X0000630817Y0001910284D02*
X0000569658Y0001910284D01*
X0000346497Y0001825513D02*
X0000346497Y0001812985D01*
X0000346497Y0001834282D02*
X0000346497Y0001825513D01*
X0000507094Y0001878561D02*
X0000407345Y0001878561D01*
X0000517020Y0001888487D02*
X0000507094Y0001878561D01*
X0000407345Y0001878561D02*
X0000388977Y0001860192D01*
X0000517020Y0001918120D02*
X0000517020Y0001888487D01*
X0000388977Y0001860192D02*
X0000372407Y0001860192D01*
X0000372407Y0001860192D02*
X0000346497Y0001834282D01*
X0000548686Y0001931256D02*
X0000530156Y0001931256D01*
X0000530156Y0001931256D02*
X0000517020Y0001918120D01*
X0000255725Y0001680692D02*
X0000188677Y0001680692D01*
X0000299117Y0001724084D02*
X0000255725Y0001680692D01*
X0000188677Y0001680692D02*
X0000150125Y0001680692D01*
X0000150125Y0001680692D02*
X0000126617Y0001657184D01*
X0000279616Y0001694115D02*
X0000258791Y0001673290D01*
X0000300840Y0001702973D02*
X0000291982Y0001694115D01*
X0000291982Y0001694115D02*
X0000279616Y0001694115D01*
X0000258791Y0001673290D02*
X0000180423Y0001673290D01*
X0000180423Y0001673290D02*
X0000157117Y0001649984D01*
X0000337191Y0001566216D02*
X0000394858Y0001623884D01*
X0000337191Y0001550748D02*
X0000337191Y0001566216D01*
X0000394858Y0001623884D02*
X0000414917Y0001623884D01*
X0000399302Y0001639107D02*
X0000388940Y0001639107D01*
X0000388940Y0001639107D02*
X0000318337Y0001568503D01*
X0000406734Y0001646538D02*
X0000399302Y0001639107D01*
X0000315283Y0001568503D02*
X0000302755Y0001568503D01*
X0000331417Y0001736684D02*
X0000406734Y0001661367D01*
X0000406734Y0001661367D02*
X0000406734Y0001646538D01*
X0000331417Y0001771484D02*
X0000331417Y0001736684D01*
X0000318337Y0001568503D02*
X0000315283Y0001568503D01*
X0000314786Y0001553453D02*
X0000314986Y0001553453D01*
X0000308608Y0001546784D02*
X0000308608Y0001547275D01*
X0000308608Y0001547275D02*
X0000314786Y0001553453D01*
X0000415617Y0001671684D02*
X0000449017Y0001705084D01*
X0000414136Y0001643472D02*
X0000414405Y0001643472D01*
X0000414405Y0001643472D02*
X0000415617Y0001644684D01*
X0000392211Y0001631705D02*
X0000402368Y0001631705D01*
X0000402368Y0001631705D02*
X0000414136Y0001643472D01*
X0000314786Y0001553453D02*
X0000314786Y0001554279D01*
X0000449017Y0001705084D02*
X0000459817Y0001705084D01*
X0000314786Y0001554279D02*
X0000392211Y0001631705D01*
X0000415617Y0001644684D02*
X0000415617Y0001671684D01*
X0000484717Y0001751384D02*
X0000484717Y0001753184D01*
X0000484821Y0001642288D02*
X0000514723Y0001672190D01*
X0000484821Y0001600680D02*
X0000484821Y0001642288D01*
X0000778337Y0001533184D02*
X0000639317Y0001533184D01*
X0000505017Y0001580484D02*
X0000484821Y0001600680D01*
X0000514723Y0001672190D02*
X0000514723Y0001691877D01*
X0000592017Y0001580484D02*
X0000505017Y0001580484D01*
X0000639317Y0001533184D02*
X0000592017Y0001580484D01*
X0000894598Y0001416923D02*
X0000778337Y0001533184D01*
X0000894598Y0001404395D02*
X0000894598Y0001416923D01*
X0000514723Y0001691877D02*
X0000500217Y0001706384D01*
X0000492223Y0001603746D02*
X0000508083Y0001587886D01*
X0000867805Y0001454184D02*
X0000891317Y0001454184D01*
X0000642383Y0001540586D02*
X0000781403Y0001540586D01*
X0000490410Y0001726090D02*
X0000502938Y0001726090D01*
X0000522125Y0001669124D02*
X0000492223Y0001639222D01*
X0000508083Y0001587886D02*
X0000595083Y0001587886D01*
X0000522125Y0001706903D02*
X0000522125Y0001669124D01*
X0000502938Y0001726090D02*
X0000522125Y0001706903D01*
X0000595083Y0001587886D02*
X0000599419Y0001583550D01*
X0000492223Y0001639222D02*
X0000492223Y0001603746D01*
X0000599419Y0001583550D02*
X0000642383Y0001540586D01*
X0000781403Y0001540586D02*
X0000867805Y0001454184D01*
G04 next file*
G04 #@! TF.GenerationSoftware,KiCad,Pcbnew,5.0.2-bee76a0~70~ubuntu18.04.1*
G04 #@! TF.CreationDate,2019-07-22T04:32:19+02:00*
G04 #@! TF.ProjectId,mainboard,6d61696e-626f-4617-9264-2e6b69636164,rev?*
G04 #@! TF.SameCoordinates,Original*
G04 #@! TF.FileFunction,Copper,L3,Inr*
G04 #@! TF.FilePolarity,Positive*
G04 Gerber Fmt 4.6, Leading zero omitted, Abs format (unit mm)*
G04 Created by KiCad (PCBNEW 5.0.2-bee76a0~70~ubuntu18.04.1) date Mo 22 Jul 2019 04:32:19 CEST*
G01*
G04 APERTURE LIST*
G04 #@! TA.AperFunction,ViaPad*
G04 #@! TD*
G04 #@! TA.AperFunction,ViaPad*
G04 #@! TD*
G04 #@! TA.AperFunction,Conductor*
G04 #@! TD*
G04 #@! TA.AperFunction,Conductor*
G04 #@! TD*
G04 #@! TA.AperFunction,Conductor*
G04 #@! TD*
G04 APERTURE END LIST*
D25*
G04 #@! TO.N,GNDD*
G04 #@! TO.C,U1*
X0000492125Y0000492125D02*
X0000584645Y0000671259D03*
X0000584645Y0000712598D03*
X0000584645Y0000753937D03*
X0000625984Y0000671259D03*
X0000625984Y0000712598D03*
X0000625984Y0000753937D03*
X0000667322Y0000671259D03*
X0000667322Y0000712598D03*
X0000667322Y0000753937D03*
G04 #@! TD*
D26*
G04 #@! TO.N,REFFET2_D2*
X0000201287Y0000141613D03*
G04 #@! TO.N,ISFET2_D2*
X0000290407Y0000228858D03*
X0000030234Y0000430219D03*
G04 #@! TO.N,COIL*
X0000095734Y0000701619D03*
G04 #@! TO.N,ISFET2_D3*
X0000310983Y0000233884D03*
X0000060629Y0000344881D03*
G04 #@! TO.N,ISFET2_D4*
X0000316551Y0000255002D03*
X0000091234Y0000257719D03*
G04 #@! TO.N,REFFET2_D4*
X0000302034Y0000087619D03*
G04 #@! TO.N,REFFET2_D3*
X0000266834Y0000087819D03*
G04 #@! TO.N,+BATT*
X0000142519Y0000770078D03*
G04 #@! TO.N,VCC*
X0000474734Y0000228919D03*
X0000334645Y0000669291D03*
X0000354330Y0000669291D03*
X0000706225Y0000242457D03*
X0000482847Y0000114712D03*
X0000601028Y0000090725D03*
G04 #@! TO.N,GNDD*
X0000759399Y0000100628D03*
X0000851619Y0000183144D03*
X0000935617Y0000324732D03*
X0000966123Y0000486510D03*
X0000964809Y0000527843D03*
X0000959897Y0000568904D03*
X0000939458Y0000648965D03*
X0000951425Y0000609381D03*
X0000924086Y0000687356D03*
X0000905427Y0000724261D03*
X0000883623Y0000759399D03*
X0000858838Y0000792503D03*
X0000831263Y0000823322D03*
X0000801107Y0000851619D03*
X0000768599Y0000877181D03*
X0000733988Y0000899812D03*
X0000659519Y0000935617D03*
X0000335286Y0000939458D03*
X0000296895Y0000924086D03*
X0000259990Y0000905427D03*
X0000224852Y0000883623D03*
X0000191748Y0000858838D03*
X0000132632Y0000801107D03*
X0000160929Y0000831263D03*
X0000792503Y0000125413D03*
X0000823322Y0000152988D03*
X0000899812Y0000250263D03*
X0000877181Y0000215652D03*
X0000724261Y0000078824D03*
X0000687356Y0000060165D03*
X0000364022Y0000035732D03*
X0000026304Y0000579965D03*
X0000019442Y0000456408D03*
X0000032826Y0000374870D03*
X0000324732Y0000048634D03*
X0000507134Y0000900519D03*
X0000572334Y0000852019D03*
X0000444881Y0000314960D03*
X0000287401Y0000330708D03*
X0000248031Y0000330708D03*
X0000248031Y0000358267D03*
X0000287401Y0000358267D03*
X0000110834Y0000564219D03*
X0000260334Y0000550019D03*
X0000365434Y0000841719D03*
X0000728331Y0000354189D03*
X0000803634Y0000321619D03*
X0000802434Y0000273519D03*
X0000248031Y0000301181D03*
X0000651934Y0000819519D03*
X0000548834Y0000793719D03*
X0000453134Y0000731819D03*
X0000405734Y0000731619D03*
X0000405434Y0000833819D03*
X0000905511Y0000488188D03*
X0000794334Y0000494619D03*
X0000793934Y0000514019D03*
X0000794734Y0000533919D03*
X0000814234Y0000542619D03*
X0000825334Y0000561219D03*
X0000824934Y0000582219D03*
X0000803734Y0000582819D03*
X0000792634Y0000654219D03*
X0000772934Y0000664319D03*
X0000773134Y0000645319D03*
X0000729834Y0000649119D03*
X0000724634Y0000603319D03*
X0000794634Y0000710719D03*
X0000820034Y0000711419D03*
X0000801934Y0000803419D03*
X0000832334Y0000776619D03*
X0000846834Y0000748419D03*
X0000874634Y0000711419D03*
X0000850634Y0000647919D03*
X0000932834Y0000580419D03*
X0000926834Y0000599419D03*
X0000920134Y0000617419D03*
X0000912034Y0000635319D03*
X0000893934Y0000672519D03*
X0000884334Y0000690619D03*
X0000903434Y0000653819D03*
X0000772234Y0000832019D03*
X0000750134Y0000847119D03*
X0000709534Y0000782119D03*
X0000614634Y0000910419D03*
X0000641034Y0000903719D03*
X0000508834Y0000817119D03*
X0000401734Y0000903219D03*
X0000265034Y0000780319D03*
X0000257534Y0000853319D03*
X0000218834Y0000742319D03*
X0000240534Y0000679619D03*
X0000497734Y0000613619D03*
X0000460534Y0000614919D03*
X0000280734Y0000656919D03*
X0000738113Y0000505598D03*
X0000657422Y0000267852D03*
X0000456542Y0000130401D03*
X0000943901Y0000565286D03*
X0000920442Y0000546019D03*
X0000920442Y0000518119D03*
X0000846634Y0000481819D03*
X0000835234Y0000540719D03*
X0000521034Y0000387519D03*
X0000760634Y0000160919D03*
X0000509234Y0000057319D03*
X0000657640Y0000349513D03*
X0000729934Y0000155419D03*
X0000144094Y0000711417D03*
X0000362315Y0000231182D03*
X0000394094Y0000314566D03*
X0000393700Y0000287795D03*
X0000212598Y0000111298D03*
X0000051181Y0000316535D03*
X0000226377Y0000462598D03*
X0000196850Y0000501968D03*
X0000052834Y0000670719D03*
X0000580708Y0000944881D03*
X0000620078Y0000944881D03*
X0000541338Y0000944881D03*
X0000501968Y0000944881D03*
X0000462598Y0000944881D03*
X0000423228Y0000944881D03*
X0000383858Y0000944881D03*
G04 #@! TO.N,ISFET2_SHNT*
X0000399534Y0000123619D03*
G04 #@! TO.N,ADC_IN7*
X0000336034Y0000413119D03*
X0000518800Y0000167598D03*
G04 #@! TO.N,+5VA*
X0000136334Y0000532519D03*
X0000317334Y0000384719D03*
X0000246534Y0000208019D03*
X0000305434Y0000866619D03*
X0000327134Y0000894119D03*
X0000744776Y0000340839D03*
X0000783634Y0000367119D03*
X0000443721Y0000243307D03*
G04 #@! TO.N,REFFET2_D*
X0000152362Y0000201574D03*
X0000314358Y0000160252D03*
G04 #@! TO.N,ADC_IN6*
X0000181169Y0000411520D03*
X0000540655Y0000169074D03*
G04 #@! TO.N,TAG_EN*
X0000483819Y0000282919D03*
X0000169134Y0000675419D03*
G04 #@! TO.N,ISFET1_S*
X0000348534Y0000341219D03*
X0000201276Y0000271960D03*
X0000140119Y0000438805D03*
G04 #@! TO.N,ISFET2_S*
X0000422651Y0000223015D03*
X0000348425Y0000125590D03*
X0000113236Y0000230332D03*
G04 #@! TO.N,ISFET1_SHNT*
X0000147134Y0000367819D03*
G04 #@! TO.N,ADC_IN3*
X0000391634Y0000161619D03*
X0000595457Y0000130004D03*
G04 #@! TO.N,REFFET1_D*
X0000089763Y0000470472D03*
X0000240844Y0000529820D03*
G04 #@! TO.N,ADC_IN0*
X0000207934Y0000223819D03*
X0000622850Y0000140467D03*
G04 #@! TO.N,ADC_IN2*
X0000054334Y0000438619D03*
X0000585197Y0000148535D03*
G04 #@! TO.N,Net-(C27-Pad2)*
X0000347750Y0000320053D03*
X0000160034Y0000410119D03*
X0000222081Y0000275934D03*
G04 #@! TO.N,ANT_SW*
X0000860134Y0000463119D03*
X0000690352Y0000215836D03*
G04 #@! TO.N,Net-(C16-Pad1)*
X0000427534Y0000836419D03*
X0000663134Y0000842819D03*
G04 #@! TO.N,RF_BUSY*
X0000521497Y0000293369D03*
X0000587434Y0000609519D03*
G04 #@! TO.N,RF_RST*
X0000543439Y0000293998D03*
X0000608616Y0000609505D03*
G04 #@! TO.N,RF_MISO*
X0000635534Y0000605719D03*
X0000629107Y0000332081D03*
G04 #@! TO.N,RF_MOSI*
X0000665834Y0000608719D03*
X0000654347Y0000288809D03*
G04 #@! TO.N,RF_SCK*
X0000693134Y0000636419D03*
X0000642772Y0000315897D03*
G04 #@! TO.N,RF_CS*
X0000608850Y0000588324D03*
G04 #@! TO.N,AFE_EN*
X0000506082Y0000278577D03*
G04 #@! TO.N,SWCLK*
X0000565034Y0000064819D03*
G04 #@! TO.N,SWDIO*
X0000486434Y0000073919D03*
G04 #@! TO.N,DAC_OUT1*
X0000161840Y0000253925D03*
X0000471041Y0000365056D03*
X0000553417Y0000152168D03*
G04 #@! TO.N,DAC_OUT2*
X0000818234Y0000212219D03*
X0000567307Y0000136177D03*
G04 #@! TO.N,ELEC2*
X0000800434Y0000429119D03*
G04 #@! TO.N,ELEC_SNS1*
X0000863725Y0000378428D03*
X0000801634Y0000392619D03*
X0000687834Y0000542819D03*
G04 #@! TO.N,Net-(R3-Pad2)*
X0000439382Y0000189382D03*
X0000470334Y0000343879D03*
G04 #@! TO.N,Net-(R16-Pad2)*
X0000219334Y0000378319D03*
X0000250934Y0000277519D03*
G04 #@! TO.N,O2_ELEC2*
X0000861934Y0000407119D03*
G04 #@! TO.N,ADC_IN12*
X0000354234Y0000058419D03*
X0000637754Y0000155518D03*
G04 #@! TO.N,GNDD*
X0000733934Y0000412019D03*
X0000445243Y0000018660D03*
X0000510236Y0000014173D03*
X0000310629Y0000835039D03*
X0000622699Y0000424646D03*
G04 #@! TO.N,Net-(R34-Pad2)*
X0000302755Y0000814566D03*
X0000346187Y0000850561D03*
G04 #@! TO.N,ISFET2_SHNT*
X0000447298Y0000051592D03*
G04 #@! TO.N,+5VA*
X0000060032Y0000532579D03*
X0000170908Y0000163210D03*
X0000618110Y0000396062D03*
X0000601025Y0000423622D03*
G04 #@! TO.N,ISFET1_SHNT*
X0000113226Y0000317319D03*
G04 #@! TO.N,RF_CS*
X0000612857Y0000317477D03*
G04 #@! TO.N,AFE_EN*
X0000362474Y0000792519D03*
G04 #@! TO.N,SWCLK*
X0000591809Y0000315105D03*
G04 #@! TO.N,SWDIO*
X0000582952Y0000360320D03*
G04 #@! TO.N,Net-(Q3-PadA2)*
X0000251181Y0000714960D03*
X0000240038Y0000777546D03*
G04 #@! TO.N,MUX4IN0*
X0000857614Y0000311286D03*
X0000685134Y0000244419D03*
G04 #@! TO.N,MUX4IN1*
X0000826834Y0000318119D03*
X0000683411Y0000265530D03*
G04 #@! TO.N,MUX3IN1*
X0000647060Y0000417755D03*
X0000567770Y0000345549D03*
G04 #@! TO.N,MUX3IN0*
X0000652787Y0000197172D03*
X0000681496Y0000400000D03*
G04 #@! TO.N,MUX3EN*
X0000522145Y0000264700D03*
X0000675643Y0000421719D03*
G04 #@! TO.N,MUX2IN0*
X0000494822Y0000193458D03*
X0000298434Y0000174219D03*
G04 #@! TO.N,MUX2IN1*
X0000498804Y0000214262D03*
X0000276534Y0000172919D03*
G04 #@! TO.N,MUX1IN1*
X0000483778Y0000261070D03*
X0000089653Y0000564108D03*
G04 #@! TO.N,MUX1IN0*
X0000493841Y0000242413D03*
X0000094100Y0000514377D03*
G04 #@! TD*
D27*
G04 #@! TO.N,ISFET2_D2*
X0000039092Y0000421361D02*
X0000030234Y0000430219D01*
X0000154416Y0000230670D02*
X0000091532Y0000293553D01*
X0000254969Y0000193419D02*
X0000202782Y0000193419D01*
X0000290407Y0000228858D02*
X0000254969Y0000193419D01*
X0000091532Y0000293553D02*
X0000091532Y0000368921D01*
X0000165532Y0000230670D02*
X0000154416Y0000230670D01*
X0000202782Y0000193419D02*
X0000165532Y0000230670D01*
X0000091532Y0000368921D02*
X0000039092Y0000421361D01*
G04 #@! TO.N,ISFET2_D3*
X0000074212Y0000331299D02*
X0000069488Y0000336023D01*
X0000310983Y0000233884D02*
X0000310983Y0000228468D01*
X0000258134Y0000185919D02*
X0000199814Y0000185919D01*
X0000285934Y0000213719D02*
X0000258134Y0000185919D01*
X0000074212Y0000300405D02*
X0000074212Y0000331299D01*
X0000162466Y0000223268D02*
X0000151350Y0000223268D01*
X0000151350Y0000223268D02*
X0000074212Y0000300405D01*
X0000069488Y0000336023D02*
X0000060629Y0000344881D01*
X0000199814Y0000185919D02*
X0000162466Y0000223268D01*
X0000296234Y0000213719D02*
X0000285934Y0000213719D01*
X0000310983Y0000228468D02*
X0000296234Y0000213719D01*
G04 #@! TO.N,ISFET2_D4*
X0000196846Y0000178419D02*
X0000159400Y0000215866D01*
X0000159400Y0000215866D02*
X0000147913Y0000215866D01*
X0000271667Y0000188653D02*
X0000261434Y0000178419D01*
X0000106059Y0000257719D02*
X0000103762Y0000257719D01*
X0000261434Y0000178419D02*
X0000196846Y0000178419D01*
X0000286067Y0000188653D02*
X0000271667Y0000188653D01*
X0000103762Y0000257719D02*
X0000091234Y0000257719D01*
X0000316551Y0000255002D02*
X0000325410Y0000246144D01*
X0000325410Y0000246144D02*
X0000325410Y0000227995D01*
X0000325410Y0000227995D02*
X0000286067Y0000188653D01*
X0000147913Y0000215866D02*
X0000106059Y0000257719D01*
G04 #@! TO.N,ADC_IN7*
X0000514332Y0000171621D02*
X0000518634Y0000167319D01*
X0000518800Y0000167598D02*
X0000515855Y0000167598D01*
X0000511930Y0000171523D02*
X0000500730Y0000171523D01*
X0000515855Y0000167598D02*
X0000511930Y0000171523D01*
X0000500730Y0000171523D02*
X0000482830Y0000171523D01*
X0000482830Y0000171523D02*
X0000479534Y0000174819D01*
X0000432794Y0000174819D02*
X0000432523Y0000175091D01*
X0000479534Y0000174819D02*
X0000432794Y0000174819D01*
X0000432523Y0000175091D02*
X0000422028Y0000185586D01*
X0000422028Y0000185625D02*
X0000422134Y0000185519D01*
X0000336034Y0000413119D02*
X0000344892Y0000404261D01*
X0000344892Y0000404261D02*
X0000345492Y0000404261D01*
X0000422028Y0000185625D02*
X0000422028Y0000197656D01*
X0000422028Y0000197656D02*
X0000407480Y0000212204D01*
X0000407480Y0000212204D02*
X0000407480Y0000248818D01*
X0000406924Y0000248818D02*
X0000392913Y0000262830D01*
X0000407480Y0000248818D02*
X0000406924Y0000248818D01*
X0000392913Y0000262830D02*
X0000377086Y0000278656D01*
X0000377086Y0000278656D02*
X0000377086Y0000372912D01*
X0000377086Y0000372912D02*
X0000345669Y0000404330D01*
D28*
G04 #@! TO.N,REFFET2_D*
X0000298107Y0000156528D02*
X0000301830Y0000160252D01*
X0000283343Y0000156528D02*
X0000298107Y0000156528D01*
X0000301830Y0000160252D02*
X0000314358Y0000160252D01*
D27*
G04 #@! TO.N,ADC_IN6*
X0000414626Y0000184127D02*
X0000414734Y0000184019D01*
X0000331383Y0000396619D02*
X0000342666Y0000396619D01*
X0000181169Y0000411520D02*
X0000316482Y0000411520D01*
X0000316482Y0000411520D02*
X0000331383Y0000396619D01*
X0000369685Y0000369601D02*
X0000342477Y0000396808D01*
X0000369685Y0000275590D02*
X0000369685Y0000369601D01*
X0000392913Y0000252200D02*
X0000392913Y0000252362D01*
X0000392913Y0000252362D02*
X0000369685Y0000275590D01*
X0000525322Y0000153307D02*
X0000511940Y0000153307D01*
X0000501126Y0000164121D02*
X0000479764Y0000164121D01*
X0000414626Y0000182520D02*
X0000414626Y0000194428D01*
X0000540634Y0000168619D02*
X0000525322Y0000153307D01*
X0000399606Y0000245507D02*
X0000392913Y0000252200D01*
X0000479764Y0000164121D02*
X0000476566Y0000167319D01*
X0000476566Y0000167319D02*
X0000429827Y0000167319D01*
X0000414626Y0000194428D02*
X0000399606Y0000209448D01*
X0000511940Y0000153307D02*
X0000501126Y0000164121D01*
X0000429827Y0000167319D02*
X0000414626Y0000182520D01*
X0000399606Y0000209448D02*
X0000399606Y0000245507D01*
G04 #@! TO.N,TAG_EN*
X0000177992Y0000666561D02*
X0000169134Y0000675419D01*
X0000483819Y0000282919D02*
X0000483819Y0000295447D01*
X0000483819Y0000295447D02*
X0000506832Y0000318460D01*
X0000304032Y0000486689D02*
X0000304032Y0000540521D01*
X0000304032Y0000540521D02*
X0000177992Y0000666561D01*
X0000395300Y0000395421D02*
X0000304032Y0000486689D01*
X0000482300Y0000395421D02*
X0000395300Y0000395421D01*
X0000506832Y0000370889D02*
X0000482300Y0000395421D01*
X0000506832Y0000318460D02*
X0000506832Y0000370889D01*
G04 #@! TO.N,ISFET1_S*
X0000261834Y0000254619D02*
X0000219834Y0000254619D01*
X0000262334Y0000255119D02*
X0000261834Y0000254619D01*
D28*
X0000218817Y0000254419D02*
X0000219834Y0000254419D01*
X0000201276Y0000271960D02*
X0000218817Y0000254419D01*
D27*
X0000201181Y0000341732D02*
X0000201181Y0000271259D01*
X0000140119Y0000438805D02*
X0000140119Y0000402794D01*
X0000140119Y0000402794D02*
X0000201181Y0000341732D01*
X0000348534Y0000341219D02*
X0000362283Y0000327471D01*
X0000301138Y0000293923D02*
X0000261734Y0000254519D01*
X0000362283Y0000327471D02*
X0000362283Y0000314368D01*
X0000341838Y0000293923D02*
X0000301138Y0000293923D01*
X0000362283Y0000314368D02*
X0000341838Y0000293923D01*
G04 #@! TO.N,ISFET1_SHNT*
X0000146653Y0000350746D02*
X0000122084Y0000326177D01*
X0000146653Y0000368110D02*
X0000146653Y0000350746D01*
X0000122084Y0000326177D02*
X0000113226Y0000317319D01*
G04 #@! TO.N,ADC_IN3*
X0000408561Y0000144692D02*
X0000467789Y0000144692D01*
X0000391634Y0000161619D02*
X0000408561Y0000144692D01*
X0000467789Y0000144692D02*
X0000471862Y0000140619D01*
X0000471862Y0000140619D02*
X0000493224Y0000140619D01*
X0000518929Y0000114915D02*
X0000580551Y0000114915D01*
X0000493224Y0000140619D02*
X0000518929Y0000114915D01*
X0000580551Y0000114915D02*
X0000592855Y0000127219D01*
X0000592855Y0000127219D02*
X0000595134Y0000127219D01*
D28*
G04 #@! TO.N,REFFET1_D*
X0000075578Y0000570864D02*
X0000082897Y0000578183D01*
X0000089763Y0000470472D02*
X0000075578Y0000484657D01*
X0000075578Y0000484657D02*
X0000075578Y0000570864D01*
X0000104078Y0000578294D02*
X0000173673Y0000578294D01*
X0000082897Y0000578183D02*
X0000103967Y0000578183D01*
X0000103967Y0000578183D02*
X0000104078Y0000578294D01*
X0000173673Y0000578294D02*
X0000222147Y0000529820D01*
X0000222147Y0000529820D02*
X0000240844Y0000529820D01*
D27*
G04 #@! TO.N,ADC_IN0*
X0000311818Y0000271419D02*
X0000342290Y0000271419D01*
X0000207934Y0000223819D02*
X0000264218Y0000223819D01*
X0000429057Y0000137119D02*
X0000466857Y0000099319D01*
X0000466857Y0000099319D02*
X0000575423Y0000099319D01*
X0000377243Y0000154859D02*
X0000387183Y0000144919D01*
X0000397866Y0000144919D02*
X0000405666Y0000137119D01*
X0000604702Y0000115713D02*
X0000623234Y0000134245D01*
X0000264218Y0000223819D02*
X0000311818Y0000271419D01*
X0000377243Y0000236466D02*
X0000377243Y0000154859D01*
X0000575423Y0000099319D02*
X0000591817Y0000115713D01*
X0000387183Y0000144919D02*
X0000397866Y0000144919D01*
X0000623234Y0000134245D02*
X0000623234Y0000140319D01*
X0000591817Y0000115713D02*
X0000604702Y0000115713D01*
X0000405666Y0000137119D02*
X0000429057Y0000137119D01*
X0000342290Y0000271419D02*
X0000377243Y0000236466D01*
D28*
G04 #@! TO.N,ADC_IN2*
X0000560753Y0000122100D02*
X0000577215Y0000122100D01*
X0000581382Y0000144720D02*
X0000585197Y0000148535D01*
X0000581382Y0000126267D02*
X0000581382Y0000144720D01*
X0000577215Y0000122100D02*
X0000581382Y0000126267D01*
D27*
X0000470730Y0000152219D02*
X0000473632Y0000149317D01*
X0000399534Y0000187319D02*
X0000399534Y0000176676D01*
X0000473632Y0000149317D02*
X0000494636Y0000149317D01*
X0000494834Y0000149119D02*
X0000495192Y0000149119D01*
X0000423991Y0000152219D02*
X0000470730Y0000152219D01*
X0000494636Y0000149317D02*
X0000494834Y0000149119D01*
X0000399534Y0000176676D02*
X0000423991Y0000152219D01*
X0000495192Y0000149119D02*
X0000521992Y0000122319D01*
X0000521992Y0000122319D02*
X0000561034Y0000122319D01*
X0000063192Y0000429761D02*
X0000054334Y0000438619D01*
X0000098934Y0000394019D02*
X0000063192Y0000429761D01*
X0000267932Y0000239417D02*
X0000156136Y0000239417D01*
X0000307634Y0000279119D02*
X0000267932Y0000239417D01*
X0000384645Y0000239532D02*
X0000345058Y0000279119D01*
X0000345058Y0000279119D02*
X0000307634Y0000279119D01*
X0000384645Y0000202206D02*
X0000384645Y0000239532D01*
X0000399532Y0000187319D02*
X0000384645Y0000202206D01*
X0000156136Y0000239417D02*
X0000098934Y0000296619D01*
X0000098934Y0000296619D02*
X0000098934Y0000394019D01*
G04 #@! TO.N,Net-(C27-Pad2)*
X0000160034Y0000410119D02*
X0000211734Y0000358419D01*
X0000211734Y0000358419D02*
X0000211734Y0000286281D01*
X0000213223Y0000284792D02*
X0000222081Y0000275934D01*
X0000211734Y0000286281D02*
X0000213223Y0000284792D01*
X0000235932Y0000262021D02*
X0000221834Y0000276119D01*
X0000347750Y0000320053D02*
X0000316800Y0000320053D01*
X0000258768Y0000262021D02*
X0000235932Y0000262021D01*
X0000316800Y0000320053D02*
X0000258768Y0000262021D01*
G04 #@! TO.N,ANT_SW*
X0000702880Y0000215836D02*
X0000690352Y0000215836D01*
X0000744463Y0000257419D02*
X0000702880Y0000215836D01*
X0000826134Y0000257419D02*
X0000744463Y0000257419D01*
X0000859734Y0000463519D02*
X0000879134Y0000444119D01*
X0000879134Y0000310419D02*
X0000826134Y0000257419D01*
X0000879134Y0000444119D02*
X0000879134Y0000310419D01*
D29*
G04 #@! TO.N,Net-(C16-Pad1)*
X0000587199Y0000842819D02*
X0000579799Y0000835419D01*
X0000663134Y0000842819D02*
X0000587199Y0000842819D01*
X0000579799Y0000835419D02*
X0000428134Y0000835419D01*
D27*
G04 #@! TO.N,RF_MISO*
X0000629334Y0000337319D02*
X0000629107Y0000337092D01*
X0000629107Y0000337092D02*
X0000629107Y0000332081D01*
G04 #@! TO.N,RF_MOSI*
X0000654347Y0000301337D02*
X0000654347Y0000288809D01*
X0000657334Y0000306219D02*
X0000654347Y0000303232D01*
X0000654347Y0000303232D02*
X0000654347Y0000301337D01*
G04 #@! TO.N,RF_CS*
X0000619834Y0000577019D02*
X0000619834Y0000577340D01*
X0000617708Y0000579466D02*
X0000608850Y0000588324D01*
X0000619834Y0000577340D02*
X0000617708Y0000579466D01*
G04 #@! TO.N,AFE_EN*
X0000398366Y0000402887D02*
X0000311434Y0000489819D01*
X0000506082Y0000307241D02*
X0000514234Y0000315394D01*
X0000506082Y0000278577D02*
X0000506082Y0000307241D01*
X0000514234Y0000315394D02*
X0000514234Y0000373955D01*
X0000514234Y0000373955D02*
X0000485366Y0000402823D01*
X0000485366Y0000402823D02*
X0000398366Y0000402823D01*
X0000398366Y0000402823D02*
X0000398366Y0000402887D01*
X0000311434Y0000489819D02*
X0000311434Y0000782619D01*
G04 #@! TO.N,DAC_OUT1*
X0000407224Y0000179454D02*
X0000426959Y0000159719D01*
X0000498060Y0000156719D02*
X0000511469Y0000143310D01*
X0000511469Y0000143310D02*
X0000544559Y0000143310D01*
X0000426959Y0000159719D02*
X0000473698Y0000159719D01*
X0000473698Y0000159719D02*
X0000476698Y0000156719D01*
X0000407224Y0000182319D02*
X0000407224Y0000179454D01*
X0000476698Y0000156719D02*
X0000498060Y0000156719D01*
X0000544559Y0000143310D02*
X0000553417Y0000152168D01*
X0000484626Y0000332347D02*
X0000454724Y0000302445D01*
X0000460134Y0000248045D02*
X0000460134Y0000206996D01*
X0000547339Y0000183365D02*
X0000555334Y0000175370D01*
X0000488106Y0000179023D02*
X0000509074Y0000179023D01*
X0000513416Y0000183365D02*
X0000547339Y0000183365D01*
X0000454724Y0000302445D02*
X0000454724Y0000253456D01*
X0000454724Y0000253456D02*
X0000460134Y0000248045D01*
X0000471041Y0000365056D02*
X0000484626Y0000351471D01*
X0000484626Y0000351471D02*
X0000484626Y0000332347D01*
X0000509074Y0000179023D02*
X0000513416Y0000183365D01*
X0000555334Y0000175370D02*
X0000555334Y0000152819D01*
X0000460134Y0000206996D02*
X0000488106Y0000179023D01*
X0000407224Y0000181751D02*
X0000407224Y0000181496D01*
X0000407224Y0000190807D02*
X0000407224Y0000181751D01*
X0000392125Y0000205905D02*
X0000407224Y0000190807D01*
X0000166734Y0000246819D02*
X0000264866Y0000246819D01*
X0000392125Y0000242519D02*
X0000392125Y0000205905D01*
X0000264866Y0000246819D02*
X0000304568Y0000286521D01*
X0000304568Y0000286521D02*
X0000348123Y0000286521D01*
X0000159534Y0000254019D02*
X0000166734Y0000246819D01*
X0000348123Y0000286521D02*
X0000392125Y0000242519D01*
G04 #@! TO.N,DAC_OUT2*
X0000817434Y0000211419D02*
X0000817434Y0000211219D01*
X0000703644Y0000207976D02*
X0000665886Y0000170219D01*
X0000665886Y0000170219D02*
X0000586575Y0000170219D01*
X0000586575Y0000170219D02*
X0000567934Y0000151579D01*
X0000818234Y0000212219D02*
X0000817434Y0000211419D01*
X0000814191Y0000207976D02*
X0000703644Y0000207976D01*
X0000817434Y0000211219D02*
X0000814191Y0000207976D01*
X0000567934Y0000138219D02*
X0000567034Y0000137319D01*
X0000567934Y0000151579D02*
X0000567934Y0000138219D01*
G04 #@! TO.N,ELEC_SNS1*
X0000814162Y0000392619D02*
X0000828362Y0000378419D01*
X0000801634Y0000392619D02*
X0000814162Y0000392619D01*
X0000828362Y0000378419D02*
X0000863734Y0000378419D01*
X0000686134Y0000544819D02*
X0000682734Y0000541419D01*
X0000801634Y0000392619D02*
X0000688134Y0000506119D01*
X0000688134Y0000542819D02*
X0000686134Y0000544819D01*
X0000688134Y0000506119D02*
X0000688134Y0000542819D01*
G04 #@! TO.N,Net-(R3-Pad2)*
X0000467757Y0000346456D02*
X0000448818Y0000346456D01*
X0000429430Y0000236447D02*
X0000444094Y0000221783D01*
X0000444094Y0000194881D02*
X0000438582Y0000189370D01*
X0000444094Y0000221783D02*
X0000444094Y0000194881D01*
X0000470334Y0000343879D02*
X0000467757Y0000346456D01*
X0000429430Y0000327068D02*
X0000429430Y0000236447D01*
X0000448818Y0000346456D02*
X0000429430Y0000327068D01*
G04 #@! TO.N,Net-(R16-Pad2)*
X0000219334Y0000309119D02*
X0000242076Y0000286377D01*
X0000219334Y0000378319D02*
X0000219334Y0000309119D01*
X0000242076Y0000286377D02*
X0000250934Y0000277519D01*
G04 #@! TO.N,Net-(R34-Pad2)*
X0000346187Y0000845470D02*
X0000346187Y0000850561D01*
X0000302755Y0000814566D02*
X0000315283Y0000814566D01*
X0000315283Y0000814566D02*
X0000346187Y0000845470D01*
G04 #@! TO.N,ISFET2_SHNT*
X0000398834Y0000100055D02*
X0000438440Y0000060450D01*
X0000398834Y0000123419D02*
X0000398834Y0000100055D01*
X0000438440Y0000060450D02*
X0000447298Y0000051592D01*
G04 #@! TO.N,REFFET2_D*
X0000271226Y0000156528D02*
X0000256834Y0000170919D01*
X0000283343Y0000156528D02*
X0000271226Y0000156528D01*
X0000256834Y0000170919D02*
X0000193878Y0000170919D01*
X0000161220Y0000192716D02*
X0000152362Y0000201574D01*
X0000172082Y0000192716D02*
X0000161220Y0000192716D01*
X0000193878Y0000170919D02*
X0000172082Y0000192716D01*
D28*
G04 #@! TO.N,ISFET2_S*
X0000114173Y0000229395D02*
X0000113236Y0000230332D01*
X0000114173Y0000218932D02*
X0000114173Y0000229395D01*
X0000152791Y0000180314D02*
X0000114173Y0000218932D01*
X0000162598Y0000180314D02*
X0000152791Y0000180314D01*
D27*
X0000174015Y0000180314D02*
X0000161810Y0000180314D01*
X0000190944Y0000163385D02*
X0000174015Y0000180314D01*
X0000253900Y0000163385D02*
X0000190944Y0000163385D01*
X0000348818Y0000125984D02*
X0000291302Y0000125984D01*
X0000291302Y0000125984D02*
X0000253900Y0000163385D01*
G04 #@! TO.N,RF_BUSY*
X0000521497Y0000293369D02*
X0000545334Y0000317206D01*
X0000545334Y0000317206D02*
X0000545334Y0000556619D01*
X0000590534Y0000609519D02*
X0000587434Y0000609519D01*
X0000590534Y0000601819D02*
X0000590534Y0000609519D01*
X0000545334Y0000556619D02*
X0000590534Y0000601819D01*
G04 #@! TO.N,RF_RST*
X0000543534Y0000293619D02*
X0000552736Y0000302821D01*
X0000552736Y0000302821D02*
X0000552736Y0000553553D01*
X0000552736Y0000553553D02*
X0000599757Y0000600575D01*
X0000599757Y0000600575D02*
X0000599757Y0000600646D01*
X0000599757Y0000600646D02*
X0000608616Y0000609505D01*
G04 #@! TO.N,RF_MISO*
X0000684388Y0000371273D02*
X0000659188Y0000371273D01*
X0000703189Y0000390074D02*
X0000684388Y0000371273D01*
X0000659188Y0000371273D02*
X0000628234Y0000340319D01*
X0000635534Y0000605719D02*
X0000651132Y0000590121D01*
X0000703189Y0000436464D02*
X0000703189Y0000390074D01*
X0000651132Y0000488521D02*
X0000703189Y0000436464D01*
X0000651132Y0000590121D02*
X0000651132Y0000488521D01*
X0000628234Y0000340319D02*
X0000628234Y0000334019D01*
G04 #@! TO.N,RF_MOSI*
X0000665936Y0000596090D02*
X0000665936Y0000517849D01*
X0000719636Y0000464149D02*
X0000719636Y0000368621D01*
X0000665834Y0000608719D02*
X0000665834Y0000596192D01*
X0000665834Y0000596192D02*
X0000665936Y0000596090D01*
X0000665936Y0000517849D02*
X0000719636Y0000464149D01*
X0000719636Y0000368621D02*
X0000657234Y0000306219D01*
G04 #@! TO.N,RF_SCK*
X0000651534Y0000616119D02*
X0000651534Y0000601219D01*
X0000671834Y0000636419D02*
X0000651534Y0000616119D01*
X0000693134Y0000636419D02*
X0000671834Y0000636419D01*
X0000651534Y0000601219D02*
X0000658534Y0000594219D01*
X0000658534Y0000594219D02*
X0000658534Y0000514783D01*
X0000658534Y0000514783D02*
X0000712234Y0000461083D01*
X0000712234Y0000461083D02*
X0000712234Y0000372619D01*
X0000712234Y0000372619D02*
X0000655934Y0000316319D01*
X0000655934Y0000316319D02*
X0000642034Y0000316319D01*
G04 #@! TO.N,RF_CS*
X0000643730Y0000485455D02*
X0000695787Y0000433398D01*
X0000613134Y0000317519D02*
X0000613534Y0000317119D01*
X0000613134Y0000336319D02*
X0000613134Y0000317519D01*
X0000655490Y0000378675D02*
X0000613134Y0000336319D01*
X0000695787Y0000393927D02*
X0000680535Y0000378675D01*
X0000680535Y0000378675D02*
X0000655490Y0000378675D01*
X0000619734Y0000577319D02*
X0000643730Y0000553323D01*
X0000695787Y0000433398D02*
X0000695787Y0000393927D01*
X0000643730Y0000553323D02*
X0000643730Y0000485455D01*
G04 #@! TO.N,AFE_EN*
X0000311434Y0000782619D02*
X0000311434Y0000785844D01*
X0000311434Y0000785844D02*
X0000318110Y0000792519D01*
X0000318110Y0000792519D02*
X0000362474Y0000792519D01*
G04 #@! TO.N,Net-(Q3-PadA2)*
X0000251181Y0000714960D02*
X0000240038Y0000726102D01*
X0000240038Y0000726102D02*
X0000240038Y0000777546D01*
G04 #@! TO.N,ADC_IN12*
X0000414593Y0000058219D02*
X0000435565Y0000037247D01*
X0000353434Y0000058219D02*
X0000414593Y0000058219D01*
X0000637754Y0000142990D02*
X0000637754Y0000155518D01*
X0000637754Y0000134221D02*
X0000637754Y0000142990D01*
X0000477157Y0000089942D02*
X0000576905Y0000089942D01*
X0000467231Y0000080016D02*
X0000477157Y0000089942D01*
X0000576905Y0000089942D02*
X0000595274Y0000108311D01*
X0000467231Y0000050383D02*
X0000467231Y0000080016D01*
X0000595274Y0000108311D02*
X0000611844Y0000108311D01*
X0000611844Y0000108311D02*
X0000637754Y0000134221D01*
X0000435565Y0000037247D02*
X0000454095Y0000037247D01*
X0000454095Y0000037247D02*
X0000467231Y0000050383D01*
G04 #@! TO.N,MUX4IN0*
X0000728526Y0000287811D02*
X0000795574Y0000287811D01*
X0000685134Y0000244419D02*
X0000728526Y0000287811D01*
X0000795574Y0000287811D02*
X0000834126Y0000287811D01*
X0000834126Y0000287811D02*
X0000857634Y0000311319D01*
G04 #@! TO.N,MUX4IN1*
X0000704635Y0000274388D02*
X0000725460Y0000295212D01*
X0000683411Y0000265530D02*
X0000692269Y0000274388D01*
X0000692269Y0000274388D02*
X0000704635Y0000274388D01*
X0000725460Y0000295212D02*
X0000803827Y0000295212D01*
X0000803827Y0000295212D02*
X0000827134Y0000318519D01*
G04 #@! TO.N,MUX3IN1*
X0000647060Y0000402287D02*
X0000589392Y0000344619D01*
X0000647060Y0000417755D02*
X0000647060Y0000402287D01*
X0000589392Y0000344619D02*
X0000569334Y0000344619D01*
G04 #@! TO.N,MUX3IN0*
X0000584949Y0000329396D02*
X0000595311Y0000329396D01*
X0000595311Y0000329396D02*
X0000665914Y0000400000D01*
X0000577517Y0000321965D02*
X0000584949Y0000329396D01*
X0000668968Y0000400000D02*
X0000681496Y0000400000D01*
X0000652834Y0000231819D02*
X0000577517Y0000307136D01*
X0000577517Y0000307136D02*
X0000577517Y0000321965D01*
X0000652834Y0000197019D02*
X0000652834Y0000231819D01*
X0000665914Y0000400000D02*
X0000668968Y0000400000D01*
G04 #@! TO.N,MUX3EN*
X0000669465Y0000415050D02*
X0000669265Y0000415050D01*
X0000675643Y0000421719D02*
X0000675643Y0000421228D01*
X0000675643Y0000421228D02*
X0000669465Y0000415050D01*
X0000568634Y0000296819D02*
X0000535234Y0000263419D01*
X0000570115Y0000325031D02*
X0000569846Y0000325031D01*
X0000569846Y0000325031D02*
X0000568634Y0000323819D01*
X0000592040Y0000336798D02*
X0000581883Y0000336798D01*
X0000581883Y0000336798D02*
X0000570115Y0000325031D01*
X0000669465Y0000415050D02*
X0000669465Y0000414224D01*
X0000535234Y0000263419D02*
X0000524434Y0000263419D01*
X0000669465Y0000414224D02*
X0000592040Y0000336798D01*
X0000568634Y0000323819D02*
X0000568634Y0000296819D01*
G04 #@! TO.N,MUX2IN1*
X0000499534Y0000217119D02*
X0000499534Y0000215319D01*
G04 #@! TO.N,MUX1IN1*
X0000499430Y0000326215D02*
X0000469528Y0000296313D01*
X0000499430Y0000367823D02*
X0000499430Y0000326215D01*
X0000205914Y0000435319D02*
X0000344934Y0000435319D01*
X0000479234Y0000388019D02*
X0000499430Y0000367823D01*
X0000469528Y0000296313D02*
X0000469528Y0000276626D01*
X0000392234Y0000388019D02*
X0000479234Y0000388019D01*
X0000344934Y0000435319D02*
X0000392234Y0000388019D01*
X0000089653Y0000551580D02*
X0000205914Y0000435319D01*
X0000089653Y0000564108D02*
X0000089653Y0000551580D01*
X0000469528Y0000276626D02*
X0000484034Y0000262119D01*
G04 #@! TO.N,MUX1IN0*
X0000492028Y0000364757D02*
X0000476168Y0000380617D01*
X0000116446Y0000514319D02*
X0000092934Y0000514319D01*
X0000341868Y0000427917D02*
X0000202848Y0000427917D01*
X0000493841Y0000242413D02*
X0000481313Y0000242413D01*
X0000462125Y0000299379D02*
X0000492028Y0000329281D01*
X0000476168Y0000380617D02*
X0000389168Y0000380617D01*
X0000462125Y0000261600D02*
X0000462125Y0000299379D01*
X0000481313Y0000242413D02*
X0000462125Y0000261600D01*
X0000389168Y0000380617D02*
X0000384832Y0000384953D01*
X0000492028Y0000329281D02*
X0000492028Y0000364757D01*
X0000384832Y0000384953D02*
X0000341868Y0000427917D01*
X0000202848Y0000427917D02*
X0000116446Y0000514319D01*
G04 #@! TD*
G04 next file*
G04 #@! TF.GenerationSoftware,KiCad,Pcbnew,5.0.2-bee76a0~70~ubuntu18.04.1*
G04 #@! TF.CreationDate,2019-07-22T04:32:19+02:00*
G04 #@! TF.ProjectId,mainboard,6d61696e-626f-4617-9264-2e6b69636164,rev?*
G04 #@! TF.SameCoordinates,Original*
G04 #@! TF.FileFunction,Copper,L3,Inr*
G04 #@! TF.FilePolarity,Positive*
G04 Gerber Fmt 4.6, Leading zero omitted, Abs format (unit mm)*
G04 Created by KiCad (PCBNEW 5.0.2-bee76a0~70~ubuntu18.04.1) date Mo 22 Jul 2019 04:32:19 CEST*
G01*
G04 APERTURE LIST*
G04 #@! TA.AperFunction,ViaPad*
G04 #@! TD*
G04 #@! TA.AperFunction,ViaPad*
G04 #@! TD*
G04 #@! TA.AperFunction,Conductor*
G04 #@! TD*
G04 #@! TA.AperFunction,Conductor*
G04 #@! TD*
G04 #@! TA.AperFunction,Conductor*
G04 #@! TD*
G04 APERTURE END LIST*
D30*
G04 #@! TO.N,GNDD*
G04 #@! TO.C,U1*
X0001456692Y0000984251D02*
X0001364173Y0000805118D03*
X0001364173Y0000763779D03*
X0001364173Y0000722440D03*
X0001322834Y0000805118D03*
X0001322834Y0000763779D03*
X0001322834Y0000722440D03*
X0001281496Y0000805118D03*
X0001281496Y0000763779D03*
X0001281496Y0000722440D03*
G04 #@! TD*
D31*
G04 #@! TO.N,REFFET2_D2*
X0001747531Y0001334764D03*
G04 #@! TO.N,ISFET2_D2*
X0001658411Y0001247519D03*
X0001918584Y0001046158D03*
G04 #@! TO.N,COIL*
X0001853084Y0000774758D03*
G04 #@! TO.N,ISFET2_D3*
X0001637835Y0001242493D03*
X0001888188Y0001131496D03*
G04 #@! TO.N,ISFET2_D4*
X0001632266Y0001221375D03*
X0001857584Y0001218658D03*
G04 #@! TO.N,REFFET2_D4*
X0001646784Y0001388758D03*
G04 #@! TO.N,REFFET2_D3*
X0001681984Y0001388558D03*
G04 #@! TO.N,+BATT*
X0001806299Y0000706299D03*
G04 #@! TO.N,VCC*
X0001474084Y0001247458D03*
X0001614173Y0000807086D03*
X0001594488Y0000807086D03*
X0001242593Y0001233920D03*
X0001465971Y0001361665D03*
X0001347790Y0001385652D03*
G04 #@! TO.N,GNDD*
X0001189419Y0001375749D03*
X0001097199Y0001293233D03*
X0001013201Y0001151645D03*
X0000982695Y0000989867D03*
X0000984009Y0000948534D03*
X0000988921Y0000907473D03*
X0001009360Y0000827412D03*
X0000997392Y0000866996D03*
X0001024731Y0000789021D03*
X0001043391Y0000752116D03*
X0001065195Y0000716978D03*
X0001089980Y0000683874D03*
X0001117555Y0000653055D03*
X0001147711Y0000624758D03*
X0001180219Y0000599196D03*
X0001214830Y0000576565D03*
X0001289299Y0000540760D03*
X0001613532Y0000536919D03*
X0001651923Y0000552291D03*
X0001688828Y0000570950D03*
X0001723966Y0000592754D03*
X0001757070Y0000617539D03*
X0001816186Y0000675270D03*
X0001787888Y0000645114D03*
X0001156314Y0001350964D03*
X0001125496Y0001323389D03*
X0001049006Y0001226114D03*
X0001071637Y0001260725D03*
X0001224557Y0001397553D03*
X0001261462Y0001416212D03*
X0001584796Y0001440645D03*
X0001922514Y0000896412D03*
X0001929376Y0001019969D03*
X0001915992Y0001101507D03*
X0001624086Y0001427743D03*
X0001441684Y0000575858D03*
X0001376484Y0000624358D03*
X0001503937Y0001161417D03*
X0001661417Y0001145669D03*
X0001700787Y0001145669D03*
X0001700787Y0001118110D03*
X0001661417Y0001118110D03*
X0001837984Y0000912158D03*
X0001688484Y0000926358D03*
X0001583384Y0000634658D03*
X0001220487Y0001122188D03*
X0001145184Y0001154758D03*
X0001146384Y0001202858D03*
X0001700787Y0001175196D03*
X0001296884Y0000656858D03*
X0001399984Y0000682658D03*
X0001495684Y0000744558D03*
X0001543084Y0000744758D03*
X0001543384Y0000642558D03*
X0001043307Y0000988188D03*
X0001154484Y0000981758D03*
X0001154884Y0000962358D03*
X0001154084Y0000942458D03*
X0001134584Y0000933758D03*
X0001123484Y0000915158D03*
X0001123884Y0000894158D03*
X0001145084Y0000893558D03*
X0001156184Y0000822158D03*
X0001175884Y0000812058D03*
X0001175684Y0000831058D03*
X0001218984Y0000827258D03*
X0001224184Y0000873058D03*
X0001154184Y0000765658D03*
X0001128784Y0000764958D03*
X0001146884Y0000672958D03*
X0001116484Y0000699758D03*
X0001101984Y0000727958D03*
X0001074184Y0000764958D03*
X0001098184Y0000828458D03*
X0001015984Y0000895958D03*
X0001021984Y0000876958D03*
X0001028684Y0000858958D03*
X0001036784Y0000841058D03*
X0001054884Y0000803858D03*
X0001064484Y0000785758D03*
X0001045384Y0000822558D03*
X0001176584Y0000644358D03*
X0001198684Y0000629258D03*
X0001239284Y0000694258D03*
X0001334184Y0000565958D03*
X0001307784Y0000572658D03*
X0001439984Y0000659258D03*
X0001547084Y0000573158D03*
X0001683784Y0000696058D03*
X0001691284Y0000623058D03*
X0001729984Y0000734058D03*
X0001708284Y0000796758D03*
X0001451084Y0000862758D03*
X0001488284Y0000861458D03*
X0001668084Y0000819458D03*
X0001210705Y0000970779D03*
X0001291396Y0001208525D03*
X0001492275Y0001345976D03*
X0001004917Y0000911091D03*
X0001028375Y0000930358D03*
X0001028375Y0000958258D03*
X0001102184Y0000994558D03*
X0001113584Y0000935658D03*
X0001427784Y0001088858D03*
X0001188184Y0001315458D03*
X0001439584Y0001419058D03*
X0001291178Y0001126864D03*
X0001218884Y0001320958D03*
X0001804724Y0000764960D03*
X0001586503Y0001245194D03*
X0001554724Y0001161810D03*
X0001555118Y0001188582D03*
X0001736220Y0001365079D03*
X0001897637Y0001159842D03*
X0001722440Y0001013779D03*
X0001751968Y0000974409D03*
X0001895984Y0000805658D03*
X0001368110Y0000531496D03*
X0001328740Y0000531496D03*
X0001407480Y0000531496D03*
X0001446850Y0000531496D03*
X0001486220Y0000531496D03*
X0001525590Y0000531496D03*
X0001564960Y0000531496D03*
G04 #@! TO.N,ISFET2_SHNT*
X0001549284Y0001352758D03*
G04 #@! TO.N,ADC_IN7*
X0001612784Y0001063258D03*
X0001430018Y0001308779D03*
G04 #@! TO.N,+5VA*
X0001812484Y0000943858D03*
X0001631484Y0001091658D03*
X0001702284Y0001268358D03*
X0001643384Y0000609758D03*
X0001621684Y0000582258D03*
X0001204042Y0001135538D03*
X0001165184Y0001109258D03*
X0001505097Y0001233070D03*
G04 #@! TO.N,REFFET2_D*
X0001796456Y0001274803D03*
X0001634460Y0001316125D03*
G04 #@! TO.N,ADC_IN6*
X0001767649Y0001064857D03*
X0001408163Y0001307303D03*
G04 #@! TO.N,TAG_EN*
X0001464999Y0001193458D03*
X0001779684Y0000800958D03*
G04 #@! TO.N,ISFET1_S*
X0001600284Y0001135158D03*
X0001747542Y0001204417D03*
X0001808699Y0001037572D03*
G04 #@! TO.N,ISFET2_S*
X0001526167Y0001253362D03*
X0001600393Y0001350787D03*
X0001835582Y0001246045D03*
G04 #@! TO.N,ISFET1_SHNT*
X0001801684Y0001108558D03*
G04 #@! TO.N,ADC_IN3*
X0001557184Y0001314758D03*
X0001353361Y0001346373D03*
G04 #@! TO.N,REFFET1_D*
X0001859055Y0001005905D03*
X0001707974Y0000946557D03*
G04 #@! TO.N,ADC_IN0*
X0001740884Y0001252558D03*
X0001325968Y0001335910D03*
G04 #@! TO.N,ADC_IN2*
X0001894484Y0001037758D03*
X0001363621Y0001327842D03*
G04 #@! TO.N,Net-(C27-Pad2)*
X0001601068Y0001156324D03*
X0001788784Y0001066258D03*
X0001726737Y0001200443D03*
G04 #@! TO.N,ANT_SW*
X0001088684Y0001013258D03*
X0001258466Y0001260541D03*
G04 #@! TO.N,Net-(C16-Pad1)*
X0001521284Y0000639958D03*
X0001285684Y0000633558D03*
G04 #@! TO.N,RF_BUSY*
X0001427321Y0001183008D03*
X0001361384Y0000866858D03*
G04 #@! TO.N,RF_RST*
X0001405379Y0001182379D03*
X0001340202Y0000866872D03*
G04 #@! TO.N,RF_MISO*
X0001313284Y0000870658D03*
X0001319710Y0001144296D03*
G04 #@! TO.N,RF_MOSI*
X0001282984Y0000867658D03*
X0001294471Y0001187568D03*
G04 #@! TO.N,RF_SCK*
X0001255684Y0000839958D03*
X0001306045Y0001160480D03*
G04 #@! TO.N,RF_CS*
X0001339968Y0000888053D03*
G04 #@! TO.N,AFE_EN*
X0001442736Y0001197800D03*
G04 #@! TO.N,SWCLK*
X0001383784Y0001411558D03*
G04 #@! TO.N,SWDIO*
X0001462384Y0001402458D03*
G04 #@! TO.N,DAC_OUT1*
X0001786978Y0001222452D03*
X0001477777Y0001111321D03*
X0001395401Y0001324209D03*
G04 #@! TO.N,DAC_OUT2*
X0001130584Y0001264158D03*
X0001381511Y0001340200D03*
G04 #@! TO.N,ELEC2*
X0001148384Y0001047258D03*
G04 #@! TO.N,ELEC_SNS1*
X0001085093Y0001097949D03*
X0001147184Y0001083758D03*
X0001260984Y0000933558D03*
G04 #@! TO.N,Net-(R3-Pad2)*
X0001509435Y0001286995D03*
X0001478484Y0001132498D03*
G04 #@! TO.N,Net-(R16-Pad2)*
X0001729484Y0001098058D03*
X0001697884Y0001198858D03*
G04 #@! TO.N,O2_ELEC2*
X0001086884Y0001069258D03*
G04 #@! TO.N,ADC_IN12*
X0001594584Y0001417958D03*
X0001311064Y0001320859D03*
G04 #@! TO.N,GNDD*
X0001214884Y0001064358D03*
X0001503575Y0001457717D03*
X0001438582Y0001462204D03*
X0001638188Y0000641338D03*
X0001326119Y0001051731D03*
G04 #@! TO.N,Net-(R34-Pad2)*
X0001646062Y0000661811D03*
X0001602631Y0000625816D03*
G04 #@! TO.N,ISFET2_SHNT*
X0001501520Y0001424785D03*
G04 #@! TO.N,+5VA*
X0001888786Y0000943798D03*
X0001777910Y0001313166D03*
X0001330708Y0001080314D03*
X0001347792Y0001052755D03*
G04 #@! TO.N,ISFET1_SHNT*
X0001835592Y0001159058D03*
G04 #@! TO.N,RF_CS*
X0001335961Y0001158900D03*
G04 #@! TO.N,AFE_EN*
X0001586344Y0000683858D03*
G04 #@! TO.N,SWCLK*
X0001357009Y0001161272D03*
G04 #@! TO.N,SWDIO*
X0001365866Y0001116057D03*
G04 #@! TO.N,Net-(Q3-PadA2)*
X0001697637Y0000761417D03*
X0001708779Y0000698831D03*
G04 #@! TO.N,MUX4IN0*
X0001091204Y0001165090D03*
X0001263684Y0001231958D03*
G04 #@! TO.N,MUX4IN1*
X0001121984Y0001158258D03*
X0001265407Y0001210847D03*
G04 #@! TO.N,MUX3IN1*
X0001301758Y0001058622D03*
X0001381048Y0001130828D03*
G04 #@! TO.N,MUX3IN0*
X0001296031Y0001279205D03*
X0001267322Y0001076377D03*
G04 #@! TO.N,MUX3EN*
X0001426673Y0001211676D03*
X0001273175Y0001054658D03*
G04 #@! TO.N,MUX2IN0*
X0001453995Y0001282919D03*
X0001650384Y0001302158D03*
G04 #@! TO.N,MUX2IN1*
X0001450014Y0001262115D03*
X0001672284Y0001303458D03*
G04 #@! TO.N,MUX1IN1*
X0001465040Y0001215307D03*
X0001859165Y0000912269D03*
G04 #@! TO.N,MUX1IN0*
X0001454977Y0001233964D03*
X0001854718Y0000962000D03*
G04 #@! TD*
D32*
G04 #@! TO.N,ISFET2_D2*
X0001909726Y0001055016D02*
X0001918584Y0001046158D01*
X0001794402Y0001245707D02*
X0001857286Y0001182824D01*
X0001693849Y0001282958D02*
X0001746035Y0001282958D01*
X0001658411Y0001247519D02*
X0001693849Y0001282958D01*
X0001857286Y0001182824D02*
X0001857286Y0001107456D01*
X0001783286Y0001245707D02*
X0001794402Y0001245707D01*
X0001746035Y0001282958D02*
X0001783286Y0001245707D01*
X0001857286Y0001107456D02*
X0001909726Y0001055016D01*
G04 #@! TO.N,ISFET2_D3*
X0001874606Y0001145078D02*
X0001879330Y0001140354D01*
X0001637835Y0001242493D02*
X0001637835Y0001247909D01*
X0001690684Y0001290458D02*
X0001749003Y0001290458D01*
X0001662884Y0001262658D02*
X0001690684Y0001290458D01*
X0001874606Y0001175972D02*
X0001874606Y0001145078D01*
X0001786352Y0001253109D02*
X0001797468Y0001253109D01*
X0001797468Y0001253109D02*
X0001874606Y0001175972D01*
X0001879330Y0001140354D02*
X0001888188Y0001131496D01*
X0001749003Y0001290458D02*
X0001786352Y0001253109D01*
X0001652584Y0001262658D02*
X0001662884Y0001262658D01*
X0001637835Y0001247909D02*
X0001652584Y0001262658D01*
G04 #@! TO.N,ISFET2_D4*
X0001751971Y0001297958D02*
X0001789418Y0001260511D01*
X0001789418Y0001260511D02*
X0001800905Y0001260511D01*
X0001677150Y0001287724D02*
X0001687384Y0001297958D01*
X0001842759Y0001218658D02*
X0001845056Y0001218658D01*
X0001687384Y0001297958D02*
X0001751971Y0001297958D01*
X0001662750Y0001287724D02*
X0001677150Y0001287724D01*
X0001845056Y0001218658D02*
X0001857584Y0001218658D01*
X0001632266Y0001221375D02*
X0001623408Y0001230233D01*
X0001623408Y0001230233D02*
X0001623408Y0001248382D01*
X0001623408Y0001248382D02*
X0001662750Y0001287724D01*
X0001800905Y0001260511D02*
X0001842759Y0001218658D01*
G04 #@! TO.N,ADC_IN7*
X0001434486Y0001304756D02*
X0001430184Y0001309058D01*
X0001430018Y0001308779D02*
X0001432963Y0001308779D01*
X0001436888Y0001304854D02*
X0001448088Y0001304854D01*
X0001432963Y0001308779D02*
X0001436888Y0001304854D01*
X0001448088Y0001304854D02*
X0001465988Y0001304854D01*
X0001465988Y0001304854D02*
X0001469284Y0001301558D01*
X0001516023Y0001301558D02*
X0001516295Y0001301286D01*
X0001469284Y0001301558D02*
X0001516023Y0001301558D01*
X0001516295Y0001301286D02*
X0001526790Y0001290791D01*
X0001526790Y0001290751D02*
X0001526684Y0001290858D01*
X0001612784Y0001063258D02*
X0001603926Y0001072116D01*
X0001603926Y0001072116D02*
X0001603326Y0001072116D01*
X0001526790Y0001290751D02*
X0001526790Y0001278721D01*
X0001526790Y0001278721D02*
X0001541338Y0001264173D01*
X0001541338Y0001264173D02*
X0001541338Y0001227559D01*
X0001541894Y0001227559D02*
X0001555905Y0001213547D01*
X0001541338Y0001227559D02*
X0001541894Y0001227559D01*
X0001555905Y0001213547D02*
X0001571731Y0001197721D01*
X0001571731Y0001197721D02*
X0001571731Y0001103464D01*
X0001571731Y0001103464D02*
X0001603149Y0001072047D01*
D33*
G04 #@! TO.N,REFFET2_D*
X0001650711Y0001319849D02*
X0001646987Y0001316125D01*
X0001665475Y0001319849D02*
X0001650711Y0001319849D01*
X0001646987Y0001316125D02*
X0001634460Y0001316125D01*
D32*
G04 #@! TO.N,ADC_IN6*
X0001534192Y0001292250D02*
X0001534084Y0001292358D01*
X0001617435Y0001079758D02*
X0001606152Y0001079758D01*
X0001767649Y0001064857D02*
X0001632336Y0001064857D01*
X0001632336Y0001064857D02*
X0001617435Y0001079758D01*
X0001579133Y0001106776D02*
X0001606341Y0001079569D01*
X0001579133Y0001200787D02*
X0001579133Y0001106776D01*
X0001555905Y0001224177D02*
X0001555905Y0001224015D01*
X0001555905Y0001224015D02*
X0001579133Y0001200787D01*
X0001423496Y0001323070D02*
X0001436877Y0001323070D01*
X0001447692Y0001312256D02*
X0001469054Y0001312256D01*
X0001534192Y0001293857D02*
X0001534192Y0001281949D01*
X0001408184Y0001307758D02*
X0001423496Y0001323070D01*
X0001549212Y0001230870D02*
X0001555905Y0001224177D01*
X0001469054Y0001312256D02*
X0001472252Y0001309058D01*
X0001472252Y0001309058D02*
X0001518991Y0001309058D01*
X0001534192Y0001281949D02*
X0001549212Y0001266929D01*
X0001436877Y0001323070D02*
X0001447692Y0001312256D01*
X0001518991Y0001309058D02*
X0001534192Y0001293857D01*
X0001549212Y0001266929D02*
X0001549212Y0001230870D01*
G04 #@! TO.N,TAG_EN*
X0001770826Y0000809816D02*
X0001779684Y0000800958D01*
X0001464999Y0001193458D02*
X0001464999Y0001180930D01*
X0001464999Y0001180930D02*
X0001441986Y0001157917D01*
X0001644786Y0000989688D02*
X0001644786Y0000935856D01*
X0001644786Y0000935856D02*
X0001770826Y0000809816D01*
X0001553518Y0001080956D02*
X0001644786Y0000989688D01*
X0001466518Y0001080956D02*
X0001553518Y0001080956D01*
X0001441986Y0001105488D02*
X0001466518Y0001080956D01*
X0001441986Y0001157917D02*
X0001441986Y0001105488D01*
G04 #@! TO.N,ISFET1_S*
X0001686984Y0001221758D02*
X0001728984Y0001221758D01*
X0001686484Y0001221258D02*
X0001686984Y0001221758D01*
D33*
X0001730001Y0001221958D02*
X0001728984Y0001221958D01*
X0001747542Y0001204417D02*
X0001730001Y0001221958D01*
D32*
X0001747637Y0001134645D02*
X0001747637Y0001205118D01*
X0001808699Y0001037572D02*
X0001808699Y0001073583D01*
X0001808699Y0001073583D02*
X0001747637Y0001134645D01*
X0001600284Y0001135158D02*
X0001586535Y0001148906D01*
X0001647680Y0001182454D02*
X0001687084Y0001221858D01*
X0001586535Y0001148906D02*
X0001586535Y0001162009D01*
X0001606980Y0001182454D02*
X0001647680Y0001182454D01*
X0001586535Y0001162009D02*
X0001606980Y0001182454D01*
G04 #@! TO.N,ISFET1_SHNT*
X0001802165Y0001125631D02*
X0001826734Y0001150200D01*
X0001802165Y0001108267D02*
X0001802165Y0001125631D01*
X0001826734Y0001150200D02*
X0001835592Y0001159058D01*
G04 #@! TO.N,ADC_IN3*
X0001540257Y0001331685D02*
X0001481029Y0001331685D01*
X0001557184Y0001314758D02*
X0001540257Y0001331685D01*
X0001481029Y0001331685D02*
X0001476955Y0001335758D01*
X0001476955Y0001335758D02*
X0001455594Y0001335758D01*
X0001429889Y0001361462D02*
X0001368267Y0001361462D01*
X0001455594Y0001335758D02*
X0001429889Y0001361462D01*
X0001368267Y0001361462D02*
X0001355963Y0001349158D01*
X0001355963Y0001349158D02*
X0001353684Y0001349158D01*
D33*
G04 #@! TO.N,REFFET1_D*
X0001873240Y0000905513D02*
X0001865921Y0000898194D01*
X0001859055Y0001005905D02*
X0001873240Y0000991720D01*
X0001873240Y0000991720D02*
X0001873240Y0000905513D01*
X0001844740Y0000898083D02*
X0001775144Y0000898083D01*
X0001865921Y0000898194D02*
X0001844851Y0000898194D01*
X0001844851Y0000898194D02*
X0001844740Y0000898083D01*
X0001775144Y0000898083D02*
X0001726671Y0000946557D01*
X0001726671Y0000946557D02*
X0001707974Y0000946557D01*
D32*
G04 #@! TO.N,ADC_IN0*
X0001637000Y0001204958D02*
X0001606528Y0001204958D01*
X0001740884Y0001252558D02*
X0001684600Y0001252558D01*
X0001519761Y0001339258D02*
X0001481961Y0001377058D01*
X0001481961Y0001377058D02*
X0001373395Y0001377058D01*
X0001571575Y0001321518D02*
X0001561635Y0001331458D01*
X0001550952Y0001331458D02*
X0001543152Y0001339258D01*
X0001344116Y0001360664D02*
X0001325584Y0001342132D01*
X0001684600Y0001252558D02*
X0001637000Y0001204958D01*
X0001571575Y0001239911D02*
X0001571575Y0001321518D01*
X0001373395Y0001377058D02*
X0001357001Y0001360664D01*
X0001561635Y0001331458D02*
X0001550952Y0001331458D01*
X0001325584Y0001342132D02*
X0001325584Y0001336058D01*
X0001357001Y0001360664D02*
X0001344116Y0001360664D01*
X0001543152Y0001339258D02*
X0001519761Y0001339258D01*
X0001606528Y0001204958D02*
X0001571575Y0001239911D01*
D33*
G04 #@! TO.N,ADC_IN2*
X0001388065Y0001354277D02*
X0001371603Y0001354277D01*
X0001367436Y0001331657D02*
X0001363621Y0001327842D01*
X0001367436Y0001350110D02*
X0001367436Y0001331657D01*
X0001371603Y0001354277D02*
X0001367436Y0001350110D01*
D32*
X0001478088Y0001324158D02*
X0001475186Y0001327060D01*
X0001549284Y0001289058D02*
X0001549284Y0001299701D01*
X0001475186Y0001327060D02*
X0001454182Y0001327060D01*
X0001453984Y0001327258D02*
X0001453626Y0001327258D01*
X0001524827Y0001324158D02*
X0001478088Y0001324158D01*
X0001454182Y0001327060D02*
X0001453984Y0001327258D01*
X0001549284Y0001299701D02*
X0001524827Y0001324158D01*
X0001453626Y0001327258D02*
X0001426826Y0001354058D01*
X0001426826Y0001354058D02*
X0001387784Y0001354058D01*
X0001885626Y0001046616D02*
X0001894484Y0001037758D01*
X0001849884Y0001082358D02*
X0001885626Y0001046616D01*
X0001680886Y0001236960D02*
X0001792682Y0001236960D01*
X0001641184Y0001197258D02*
X0001680886Y0001236960D01*
X0001564173Y0001236845D02*
X0001603760Y0001197258D01*
X0001603760Y0001197258D02*
X0001641184Y0001197258D01*
X0001564173Y0001274171D02*
X0001564173Y0001236845D01*
X0001549286Y0001289058D02*
X0001564173Y0001274171D01*
X0001792682Y0001236960D02*
X0001849884Y0001179758D01*
X0001849884Y0001179758D02*
X0001849884Y0001082358D01*
G04 #@! TO.N,Net-(C27-Pad2)*
X0001788784Y0001066258D02*
X0001737084Y0001117958D01*
X0001737084Y0001117958D02*
X0001737084Y0001190096D01*
X0001735595Y0001191585D02*
X0001726737Y0001200443D01*
X0001737084Y0001190096D02*
X0001735595Y0001191585D01*
X0001712886Y0001214356D02*
X0001726984Y0001200258D01*
X0001601068Y0001156324D02*
X0001632018Y0001156324D01*
X0001690050Y0001214356D02*
X0001712886Y0001214356D01*
X0001632018Y0001156324D02*
X0001690050Y0001214356D01*
G04 #@! TO.N,ANT_SW*
X0001245938Y0001260541D02*
X0001258466Y0001260541D01*
X0001204355Y0001218958D02*
X0001245938Y0001260541D01*
X0001122684Y0001218958D02*
X0001204355Y0001218958D01*
X0001089084Y0001012858D02*
X0001069684Y0001032258D01*
X0001069684Y0001165958D02*
X0001122684Y0001218958D01*
X0001069684Y0001032258D02*
X0001069684Y0001165958D01*
D34*
G04 #@! TO.N,Net-(C16-Pad1)*
X0001361619Y0000633558D02*
X0001369019Y0000640958D01*
X0001285684Y0000633558D02*
X0001361619Y0000633558D01*
X0001369019Y0000640958D02*
X0001520684Y0000640958D01*
D32*
G04 #@! TO.N,RF_MISO*
X0001319484Y0001139058D02*
X0001319710Y0001139285D01*
X0001319710Y0001139285D02*
X0001319710Y0001144296D01*
G04 #@! TO.N,RF_MOSI*
X0001294471Y0001175040D02*
X0001294471Y0001187568D01*
X0001291484Y0001170158D02*
X0001294471Y0001173145D01*
X0001294471Y0001173145D02*
X0001294471Y0001175040D01*
G04 #@! TO.N,RF_CS*
X0001328984Y0000899358D02*
X0001328984Y0000899037D01*
X0001331110Y0000896911D02*
X0001339968Y0000888053D01*
X0001328984Y0000899037D02*
X0001331110Y0000896911D01*
G04 #@! TO.N,AFE_EN*
X0001550452Y0001073490D02*
X0001637384Y0000986558D01*
X0001442736Y0001169136D02*
X0001434584Y0001160983D01*
X0001442736Y0001197800D02*
X0001442736Y0001169136D01*
X0001434584Y0001160983D02*
X0001434584Y0001102422D01*
X0001434584Y0001102422D02*
X0001463452Y0001073554D01*
X0001463452Y0001073554D02*
X0001550452Y0001073554D01*
X0001550452Y0001073554D02*
X0001550452Y0001073490D01*
X0001637384Y0000986558D02*
X0001637384Y0000693758D01*
G04 #@! TO.N,DAC_OUT1*
X0001541594Y0001296923D02*
X0001521859Y0001316658D01*
X0001450758Y0001319658D02*
X0001437349Y0001333067D01*
X0001437349Y0001333067D02*
X0001404259Y0001333067D01*
X0001521859Y0001316658D02*
X0001475120Y0001316658D01*
X0001475120Y0001316658D02*
X0001472120Y0001319658D01*
X0001541594Y0001294058D02*
X0001541594Y0001296923D01*
X0001472120Y0001319658D02*
X0001450758Y0001319658D01*
X0001404259Y0001333067D02*
X0001395401Y0001324209D01*
X0001464192Y0001144030D02*
X0001494094Y0001173932D01*
X0001488684Y0001228332D02*
X0001488684Y0001269381D01*
X0001401479Y0001293012D02*
X0001393484Y0001301007D01*
X0001460711Y0001297354D02*
X0001439744Y0001297354D01*
X0001435402Y0001293012D02*
X0001401479Y0001293012D01*
X0001494094Y0001173932D02*
X0001494094Y0001222921D01*
X0001494094Y0001222921D02*
X0001488684Y0001228332D01*
X0001477777Y0001111321D02*
X0001464192Y0001124906D01*
X0001464192Y0001124906D02*
X0001464192Y0001144030D01*
X0001439744Y0001297354D02*
X0001435402Y0001293012D01*
X0001393484Y0001301007D02*
X0001393484Y0001323558D01*
X0001488684Y0001269381D02*
X0001460711Y0001297354D01*
X0001541594Y0001294626D02*
X0001541594Y0001294881D01*
X0001541594Y0001285570D02*
X0001541594Y0001294626D01*
X0001556692Y0001270472D02*
X0001541594Y0001285570D01*
X0001782084Y0001229558D02*
X0001683952Y0001229558D01*
X0001556692Y0001233858D02*
X0001556692Y0001270472D01*
X0001683952Y0001229558D02*
X0001644250Y0001189856D01*
X0001644250Y0001189856D02*
X0001600694Y0001189856D01*
X0001789284Y0001222358D02*
X0001782084Y0001229558D01*
X0001600694Y0001189856D02*
X0001556692Y0001233858D01*
G04 #@! TO.N,DAC_OUT2*
X0001131384Y0001264958D02*
X0001131384Y0001265158D01*
X0001245174Y0001268401D02*
X0001282931Y0001306158D01*
X0001282931Y0001306158D02*
X0001362243Y0001306158D01*
X0001362243Y0001306158D02*
X0001380884Y0001324798D01*
X0001130584Y0001264158D02*
X0001131384Y0001264958D01*
X0001134627Y0001268401D02*
X0001245174Y0001268401D01*
X0001131384Y0001265158D02*
X0001134627Y0001268401D01*
X0001380884Y0001338158D02*
X0001381784Y0001339058D01*
X0001380884Y0001324798D02*
X0001380884Y0001338158D01*
G04 #@! TO.N,ELEC_SNS1*
X0001134656Y0001083758D02*
X0001120456Y0001097958D01*
X0001147184Y0001083758D02*
X0001134656Y0001083758D01*
X0001120456Y0001097958D02*
X0001085084Y0001097958D01*
X0001262684Y0000931558D02*
X0001266084Y0000934958D01*
X0001147184Y0001083758D02*
X0001260684Y0000970258D01*
X0001260684Y0000933558D02*
X0001262684Y0000931558D01*
X0001260684Y0000970258D02*
X0001260684Y0000933558D01*
G04 #@! TO.N,Net-(R3-Pad2)*
X0001481061Y0001129921D02*
X0001500000Y0001129921D01*
X0001519388Y0001239930D02*
X0001504724Y0001254594D01*
X0001504724Y0001281496D02*
X0001510236Y0001287007D01*
X0001504724Y0001254594D02*
X0001504724Y0001281496D01*
X0001478484Y0001132498D02*
X0001481061Y0001129921D01*
X0001519388Y0001149309D02*
X0001519388Y0001239930D01*
X0001500000Y0001129921D02*
X0001519388Y0001149309D01*
G04 #@! TO.N,Net-(R16-Pad2)*
X0001729484Y0001167258D02*
X0001706742Y0001190000D01*
X0001729484Y0001098058D02*
X0001729484Y0001167258D01*
X0001706742Y0001190000D02*
X0001697884Y0001198858D01*
G04 #@! TO.N,Net-(R34-Pad2)*
X0001602631Y0000630907D02*
X0001602631Y0000625816D01*
X0001646062Y0000661811D02*
X0001633535Y0000661811D01*
X0001633535Y0000661811D02*
X0001602631Y0000630907D01*
G04 #@! TO.N,ISFET2_SHNT*
X0001549984Y0001376322D02*
X0001510378Y0001415927D01*
X0001549984Y0001352958D02*
X0001549984Y0001376322D01*
X0001510378Y0001415927D02*
X0001501520Y0001424785D01*
G04 #@! TO.N,REFFET2_D*
X0001677592Y0001319849D02*
X0001691984Y0001305458D01*
X0001665475Y0001319849D02*
X0001677592Y0001319849D01*
X0001691984Y0001305458D02*
X0001754939Y0001305458D01*
X0001787598Y0001283661D02*
X0001796456Y0001274803D01*
X0001776736Y0001283661D02*
X0001787598Y0001283661D01*
X0001754939Y0001305458D02*
X0001776736Y0001283661D01*
D33*
G04 #@! TO.N,ISFET2_S*
X0001834645Y0001246982D02*
X0001835582Y0001246045D01*
X0001834645Y0001257444D02*
X0001834645Y0001246982D01*
X0001796027Y0001296062D02*
X0001834645Y0001257444D01*
X0001786220Y0001296062D02*
X0001796027Y0001296062D01*
D32*
X0001774803Y0001296062D02*
X0001787007Y0001296062D01*
X0001757874Y0001312992D02*
X0001774803Y0001296062D01*
X0001694918Y0001312992D02*
X0001757874Y0001312992D01*
X0001600000Y0001350393D02*
X0001657516Y0001350393D01*
X0001657516Y0001350393D02*
X0001694918Y0001312992D01*
G04 #@! TO.N,RF_BUSY*
X0001427321Y0001183008D02*
X0001403484Y0001159171D01*
X0001403484Y0001159171D02*
X0001403484Y0000919758D01*
X0001358284Y0000866858D02*
X0001361384Y0000866858D01*
X0001358284Y0000874558D02*
X0001358284Y0000866858D01*
X0001403484Y0000919758D02*
X0001358284Y0000874558D01*
G04 #@! TO.N,RF_RST*
X0001405284Y0001182758D02*
X0001396082Y0001173556D01*
X0001396082Y0001173556D02*
X0001396082Y0000922824D01*
X0001396082Y0000922824D02*
X0001349060Y0000875802D01*
X0001349060Y0000875802D02*
X0001349060Y0000875731D01*
X0001349060Y0000875731D02*
X0001340202Y0000866872D01*
G04 #@! TO.N,RF_MISO*
X0001264430Y0001105104D02*
X0001289630Y0001105104D01*
X0001245629Y0001086303D02*
X0001264430Y0001105104D01*
X0001289630Y0001105104D02*
X0001320584Y0001136058D01*
X0001313284Y0000870658D02*
X0001297686Y0000886256D01*
X0001245629Y0001039913D02*
X0001245629Y0001086303D01*
X0001297686Y0000987856D02*
X0001245629Y0001039913D01*
X0001297686Y0000886256D02*
X0001297686Y0000987856D01*
X0001320584Y0001136058D02*
X0001320584Y0001142358D01*
G04 #@! TO.N,RF_MOSI*
X0001282882Y0000880287D02*
X0001282882Y0000958528D01*
X0001229182Y0001012228D02*
X0001229182Y0001107756D01*
X0001282984Y0000867658D02*
X0001282984Y0000880185D01*
X0001282984Y0000880185D02*
X0001282882Y0000880287D01*
X0001282882Y0000958528D02*
X0001229182Y0001012228D01*
X0001229182Y0001107756D02*
X0001291584Y0001170158D01*
G04 #@! TO.N,RF_SCK*
X0001297284Y0000860258D02*
X0001297284Y0000875158D01*
X0001276984Y0000839958D02*
X0001297284Y0000860258D01*
X0001255684Y0000839958D02*
X0001276984Y0000839958D01*
X0001297284Y0000875158D02*
X0001290284Y0000882158D01*
X0001290284Y0000882158D02*
X0001290284Y0000961594D01*
X0001290284Y0000961594D02*
X0001236584Y0001015294D01*
X0001236584Y0001015294D02*
X0001236584Y0001103758D01*
X0001236584Y0001103758D02*
X0001292884Y0001160058D01*
X0001292884Y0001160058D02*
X0001306784Y0001160058D01*
G04 #@! TO.N,RF_CS*
X0001305088Y0000990922D02*
X0001253031Y0001042979D01*
X0001335684Y0001158858D02*
X0001335284Y0001159258D01*
X0001335684Y0001140058D02*
X0001335684Y0001158858D01*
X0001293328Y0001097702D02*
X0001335684Y0001140058D01*
X0001253031Y0001082450D02*
X0001268283Y0001097702D01*
X0001268283Y0001097702D02*
X0001293328Y0001097702D01*
X0001329084Y0000899058D02*
X0001305088Y0000923054D01*
X0001253031Y0001042979D02*
X0001253031Y0001082450D01*
X0001305088Y0000923054D02*
X0001305088Y0000990922D01*
G04 #@! TO.N,AFE_EN*
X0001637384Y0000693758D02*
X0001637384Y0000690533D01*
X0001637384Y0000690533D02*
X0001630708Y0000683858D01*
X0001630708Y0000683858D02*
X0001586344Y0000683858D01*
G04 #@! TO.N,Net-(Q3-PadA2)*
X0001697637Y0000761417D02*
X0001708779Y0000750275D01*
X0001708779Y0000750275D02*
X0001708779Y0000698831D01*
G04 #@! TO.N,ADC_IN12*
X0001534225Y0001418158D02*
X0001513253Y0001439130D01*
X0001595384Y0001418158D02*
X0001534225Y0001418158D01*
X0001311064Y0001333387D02*
X0001311064Y0001320859D01*
X0001311064Y0001342156D02*
X0001311064Y0001333387D01*
X0001471661Y0001386435D02*
X0001371912Y0001386435D01*
X0001481587Y0001396361D02*
X0001471661Y0001386435D01*
X0001371912Y0001386435D02*
X0001353544Y0001368066D01*
X0001481587Y0001425994D02*
X0001481587Y0001396361D01*
X0001353544Y0001368066D02*
X0001336974Y0001368066D01*
X0001336974Y0001368066D02*
X0001311064Y0001342156D01*
X0001513253Y0001439130D02*
X0001494722Y0001439130D01*
X0001494722Y0001439130D02*
X0001481587Y0001425994D01*
G04 #@! TO.N,MUX4IN0*
X0001220292Y0001188566D02*
X0001153244Y0001188566D01*
X0001263684Y0001231958D02*
X0001220292Y0001188566D01*
X0001153244Y0001188566D02*
X0001114692Y0001188566D01*
X0001114692Y0001188566D02*
X0001091184Y0001165058D01*
G04 #@! TO.N,MUX4IN1*
X0001244183Y0001201989D02*
X0001223358Y0001181164D01*
X0001265407Y0001210847D02*
X0001256549Y0001201989D01*
X0001256549Y0001201989D02*
X0001244183Y0001201989D01*
X0001223358Y0001181164D02*
X0001144990Y0001181164D01*
X0001144990Y0001181164D02*
X0001121684Y0001157858D01*
G04 #@! TO.N,MUX3IN1*
X0001301758Y0001074090D02*
X0001359425Y0001131758D01*
X0001301758Y0001058622D02*
X0001301758Y0001074090D01*
X0001359425Y0001131758D02*
X0001379484Y0001131758D01*
G04 #@! TO.N,MUX3IN0*
X0001363869Y0001146981D02*
X0001353507Y0001146981D01*
X0001353507Y0001146981D02*
X0001282903Y0001076377D01*
X0001371301Y0001154412D02*
X0001363869Y0001146981D01*
X0001279850Y0001076377D02*
X0001267322Y0001076377D01*
X0001295984Y0001244558D02*
X0001371301Y0001169241D01*
X0001371301Y0001169241D02*
X0001371301Y0001154412D01*
X0001295984Y0001279358D02*
X0001295984Y0001244558D01*
X0001282903Y0001076377D02*
X0001279850Y0001076377D01*
G04 #@! TO.N,MUX3EN*
X0001279353Y0001061327D02*
X0001279553Y0001061327D01*
X0001273175Y0001054658D02*
X0001273175Y0001055149D01*
X0001273175Y0001055149D02*
X0001279353Y0001061327D01*
X0001380184Y0001179558D02*
X0001413584Y0001212958D01*
X0001378703Y0001151346D02*
X0001378972Y0001151346D01*
X0001378972Y0001151346D02*
X0001380184Y0001152558D01*
X0001356778Y0001139579D02*
X0001366935Y0001139579D01*
X0001366935Y0001139579D02*
X0001378703Y0001151346D01*
X0001279353Y0001061327D02*
X0001279353Y0001062153D01*
X0001413584Y0001212958D02*
X0001424384Y0001212958D01*
X0001279353Y0001062153D02*
X0001356778Y0001139579D01*
X0001380184Y0001152558D02*
X0001380184Y0001179558D01*
G04 #@! TO.N,MUX2IN1*
X0001449284Y0001259258D02*
X0001449284Y0001261058D01*
G04 #@! TO.N,MUX1IN1*
X0001449388Y0001150162D02*
X0001479290Y0001180064D01*
X0001449388Y0001108554D02*
X0001449388Y0001150162D01*
X0001742904Y0001041058D02*
X0001603884Y0001041058D01*
X0001469584Y0001088358D02*
X0001449388Y0001108554D01*
X0001479290Y0001180064D02*
X0001479290Y0001199751D01*
X0001556584Y0001088358D02*
X0001469584Y0001088358D01*
X0001603884Y0001041058D02*
X0001556584Y0001088358D01*
X0001859165Y0000924797D02*
X0001742904Y0001041058D01*
X0001859165Y0000912269D02*
X0001859165Y0000924797D01*
X0001479290Y0001199751D02*
X0001464784Y0001214258D01*
G04 #@! TO.N,MUX1IN0*
X0001456790Y0001111620D02*
X0001472650Y0001095760D01*
X0001832372Y0000962058D02*
X0001855884Y0000962058D01*
X0001606950Y0001048460D02*
X0001745970Y0001048460D01*
X0001454977Y0001233964D02*
X0001467505Y0001233964D01*
X0001486692Y0001176998D02*
X0001456790Y0001147096D01*
X0001472650Y0001095760D02*
X0001559650Y0001095760D01*
X0001486692Y0001214777D02*
X0001486692Y0001176998D01*
X0001467505Y0001233964D02*
X0001486692Y0001214777D01*
X0001559650Y0001095760D02*
X0001563986Y0001091424D01*
X0001456790Y0001147096D02*
X0001456790Y0001111620D01*
X0001563986Y0001091424D02*
X0001606950Y0001048460D01*
X0001745970Y0001048460D02*
X0001832372Y0000962058D01*
G04 #@! TD*
M02*