%MOIN*%
%OFA0B0*%
%FSLAX46Y46*%
%IPPOS*%
%LPD*%
%ADD10C,0.0047244094488188976*%
%ADD21C,0.0047244094488188976*%
%ADD22C,0.0047244094488188976*%
G01*
D10*
X0000083776Y0001574584D02*
G75*
G03X0000083776Y0001574584I-0000027559D01*
G01*
X0000317476Y0001076384D02*
G75*
G03X0000317476Y0001076384I-0000027559D01*
G01*
X0000819976Y0001144884D02*
G75*
G03X0000819976Y0001144884I-0000027559D01*
G01*
X0000110676Y0001656284D02*
G75*
G03X0000110676Y0001656284I-0000027559D01*
G01*
X0000873576Y0001201384D02*
G75*
G03X0000873576Y0001201384I-0000027559D01*
G01*
X0000919776Y0001675684D02*
G75*
G03X0000919776Y0001675684I-0000027559D01*
G01*
X0000889776Y0001728084D02*
G75*
G03X0000889776Y0001728084I-0000027559D01*
G01*
X0000852776Y0001774784D02*
G75*
G03X0000852776Y0001774784I-0000027559D01*
G01*
X0000810176Y0001816184D02*
G75*
G03X0000810176Y0001816184I-0000027559D01*
G01*
X0000916476Y0001267584D02*
G75*
G03X0000916476Y0001267584I-0000027559D01*
G01*
X0000762676Y0001851184D02*
G75*
G03X0000762676Y0001851184I-0000027559D01*
G01*
X0000710076Y0001880884D02*
G75*
G03X0000710076Y0001880884I-0000027559D01*
G01*
X0000958076Y0001564184D02*
G75*
G03X0000958076Y0001564184I-0000027559D01*
G01*
X0000942176Y0001621484D02*
G75*
G03X0000942176Y0001621484I-0000027559D01*
G01*
G04 next file*
G04 #@! TF.GenerationSoftware,KiCad,Pcbnew,5.0.2-bee76a0~70~ubuntu18.04.1*
G04 #@! TF.CreationDate,2019-07-22T04:32:19+02:00*
G04 #@! TF.ProjectId,mainboard,6d61696e-626f-4617-9264-2e6b69636164,rev?*
G04 #@! TF.SameCoordinates,Original*
G04 #@! TF.FileFunction,Legend,Bot*
G04 #@! TF.FilePolarity,Positive*
G04 Gerber Fmt 4.6, Leading zero omitted, Abs format (unit mm)*
G04 Created by KiCad (PCBNEW 5.0.2-bee76a0~70~ubuntu18.04.1) date Mo 22 Jul 2019 04:32:19 CEST*
G01*
G04 APERTURE LIST*
G04 APERTURE END LIST*
D21*
G04 #@! TO.C,J13*
X0000900475Y0000393919D02*
G75*
G03X0000900475Y0000393919I0000027559D01*
G01*
G04 #@! TO.C,J15*
X0000666775Y0000892119D02*
G75*
G03X0000666775Y0000892119I0000027559D01*
G01*
G04 #@! TO.C,J16*
X0000164275Y0000823619D02*
G75*
G03X0000164275Y0000823619I0000027559D01*
G01*
G04 #@! TO.C,J14*
X0000873575Y0000312219D02*
G75*
G03X0000873575Y0000312219I0000027559D01*
G01*
G04 #@! TO.C,J6*
X0000110675Y0000767119D02*
G75*
G03X0000110675Y0000767119I0000027559D01*
G01*
G04 #@! TO.C,J3*
X0000064475Y0000292819D02*
G75*
G03X0000064475Y0000292819I0000027559D01*
G01*
G04 #@! TO.C,J4*
X0000094475Y0000240419D02*
G75*
G03X0000094475Y0000240419I0000027559D01*
G01*
G04 #@! TO.C,J5*
X0000131475Y0000193719D02*
G75*
G03X0000131475Y0000193719I0000027559D01*
G01*
G04 #@! TO.C,J7*
X0000174075Y0000152319D02*
G75*
G03X0000174075Y0000152319I0000027559D01*
G01*
G04 #@! TO.C,J8*
X0000067775Y0000700919D02*
G75*
G03X0000067775Y0000700919I0000027559D01*
G01*
G04 #@! TO.C,J9*
X0000221575Y0000117319D02*
G75*
G03X0000221575Y0000117319I0000027559D01*
G01*
G04 #@! TO.C,J10*
X0000274175Y0000087619D02*
G75*
G03X0000274175Y0000087619I0000027559D01*
G01*
G04 #@! TO.C,J1*
X0000026175Y0000404319D02*
G75*
G03X0000026175Y0000404319I0000027559D01*
G01*
G04 #@! TO.C,J2*
X0000042075Y0000347019D02*
G75*
G03X0000042075Y0000347019I0000027559D01*
G01*
G04 #@! TD*
G04 next file*
G04 #@! TF.GenerationSoftware,KiCad,Pcbnew,5.0.2-bee76a0~70~ubuntu18.04.1*
G04 #@! TF.CreationDate,2019-07-22T04:32:19+02:00*
G04 #@! TF.ProjectId,mainboard,6d61696e-626f-4617-9264-2e6b69636164,rev?*
G04 #@! TF.SameCoordinates,Original*
G04 #@! TF.FileFunction,Legend,Bot*
G04 #@! TF.FilePolarity,Positive*
G04 Gerber Fmt 4.6, Leading zero omitted, Abs format (unit mm)*
G04 Created by KiCad (PCBNEW 5.0.2-bee76a0~70~ubuntu18.04.1) date Mo 22 Jul 2019 04:32:19 CEST*
G01*
G04 APERTURE LIST*
G04 APERTURE END LIST*
D22*
G04 #@! TO.C,J13*
X0001048343Y0001082458D02*
G75*
G03X0001048343Y0001082458I-0000027559D01*
G01*
G04 #@! TO.C,J15*
X0001282043Y0000584258D02*
G75*
G03X0001282043Y0000584258I-0000027559D01*
G01*
G04 #@! TO.C,J16*
X0001784543Y0000652758D02*
G75*
G03X0001784543Y0000652758I-0000027559D01*
G01*
G04 #@! TO.C,J14*
X0001075243Y0001164158D02*
G75*
G03X0001075243Y0001164158I-0000027559D01*
G01*
G04 #@! TO.C,J6*
X0001838143Y0000709258D02*
G75*
G03X0001838143Y0000709258I-0000027559D01*
G01*
G04 #@! TO.C,J3*
X0001884343Y0001183558D02*
G75*
G03X0001884343Y0001183558I-0000027559D01*
G01*
G04 #@! TO.C,J4*
X0001854343Y0001235958D02*
G75*
G03X0001854343Y0001235958I-0000027559D01*
G01*
G04 #@! TO.C,J5*
X0001817343Y0001282658D02*
G75*
G03X0001817343Y0001282658I-0000027559D01*
G01*
G04 #@! TO.C,J7*
X0001774743Y0001324058D02*
G75*
G03X0001774743Y0001324058I-0000027559D01*
G01*
G04 #@! TO.C,J8*
X0001881043Y0000775458D02*
G75*
G03X0001881043Y0000775458I-0000027559D01*
G01*
G04 #@! TO.C,J9*
X0001727243Y0001359058D02*
G75*
G03X0001727243Y0001359058I-0000027559D01*
G01*
G04 #@! TO.C,J10*
X0001674643Y0001388758D02*
G75*
G03X0001674643Y0001388758I-0000027559D01*
G01*
G04 #@! TO.C,J1*
X0001922643Y0001072058D02*
G75*
G03X0001922643Y0001072058I-0000027559D01*
G01*
G04 #@! TO.C,J2*
X0001906743Y0001129358D02*
G75*
G03X0001906743Y0001129358I-0000027559D01*
G01*
G04 #@! TD*
M02*