%MOIN*%
%OFA0B0*%
%FSLAX44Y44*%
%IPPOS*%
%LPD*%
%ADD10C,0*%
D10*
X00009842Y00004946D02*
X00009842Y00004946D01*
X00009842Y00004967D01*
X00009844Y00004988D01*
X00009847Y00005009D01*
X00009851Y00005030D01*
X00009857Y00005051D01*
X00009863Y00005071D01*
X00009871Y00005091D01*
X00009879Y00005110D01*
X00009889Y00005129D01*
X00009899Y00005148D01*
X00009911Y00005166D01*
X00009923Y00005183D01*
X00009937Y00005199D01*
X00009951Y00005215D01*
X00009966Y00005230D01*
X00009982Y00005244D01*
X00009999Y00005257D01*
X00010016Y00005270D01*
X00010034Y00005281D01*
X00010053Y00005292D01*
X00011235Y00005910D01*
X00011254Y00005920D01*
X00011275Y00005928D01*
X00011295Y00005936D01*
X00011317Y00005942D01*
X00011338Y00005947D01*
X00011360Y00005951D01*
X00011382Y00005953D01*
X00011403Y00005955D01*
X00011426Y00005955D01*
X00011448Y00005954D01*
X00011469Y00005952D01*
X00011491Y00005948D01*
X00011513Y00005943D01*
X00011534Y00005937D01*
X00011555Y00005930D01*
X00011575Y00005922D01*
X00011595Y00005913D01*
X00011614Y00005902D01*
X00011633Y00005891D01*
X00011651Y00005878D01*
X00011708Y00005836D01*
X00011845Y00005742D01*
X00011984Y00005653D01*
X00012126Y00005568D01*
X00012271Y00005489D01*
X00012419Y00005414D01*
X00012569Y00005344D01*
X00012721Y00005280D01*
X00012876Y00005220D01*
X00013032Y00005166D01*
X00013190Y00005117D01*
X00015944Y00005118D01*
X00015944Y00005118D01*
X00016102Y00005167D01*
X00016259Y00005221D01*
X00016413Y00005280D01*
X00016565Y00005345D01*
X00016715Y00005415D01*
X00016863Y00005490D01*
X00017008Y00005569D01*
X00017150Y00005654D01*
X00017290Y00005743D01*
X00017426Y00005837D01*
X00017559Y00005935D01*
X00017689Y00006038D01*
X00017815Y00006145D01*
X00017937Y00006256D01*
X00018056Y00006372D01*
X00018171Y00006491D01*
X00018281Y00006614D01*
X00018388Y00006741D01*
X00018490Y00006871D01*
X00018587Y00007005D01*
X00018680Y00007141D01*
X00018769Y00007281D01*
X00018853Y00007424D01*
X00018931Y00007569D01*
X00019005Y00007717D01*
X00019074Y00007868D01*
X00019138Y00008020D01*
X00019197Y00008175D01*
X00019250Y00008332D01*
X00019298Y00008490D01*
X00019341Y00008650D01*
X00019378Y00008811D01*
X00019410Y00008973D01*
X00019437Y00009137D01*
X00019458Y00009301D01*
X00019473Y00009466D01*
X00019483Y00009631D01*
X00019487Y00009796D01*
X00019486Y00009962D01*
X00019479Y00010127D01*
X00019467Y00010292D01*
X00019449Y00010456D01*
X00019426Y00010620D01*
X00019397Y00010783D01*
X00019362Y00010945D01*
X00019323Y00011106D01*
X00019278Y00011265D01*
X00019227Y00011422D01*
X00019171Y00011578D01*
X00019110Y00011732D01*
X00019044Y00011884D01*
X00018973Y00012033D01*
X00018897Y00012180D01*
X00018816Y00012324D01*
X00018730Y00012466D01*
X00018639Y00012604D01*
X00018544Y00012739D01*
X00018445Y00012872D01*
X00018341Y00013000D01*
X00018232Y00013125D01*
X00018120Y00013247D01*
X00018003Y00013364D01*
X00017883Y00013478D01*
X00017759Y00013587D01*
X00017631Y00013692D01*
X00017500Y00013793D01*
X00017366Y00013890D01*
X00017228Y00013981D01*
X00017087Y00014069D01*
X00016944Y00014151D01*
X00016798Y00014228D01*
X00016649Y00014301D01*
X00016498Y00014368D01*
X00016345Y00014431D01*
X00016189Y00014488D01*
X00016032Y00014540D01*
X00015873Y00014587D01*
X00015713Y00014628D01*
X00015552Y00014664D01*
X00015389Y00014694D01*
X00015225Y00014719D01*
X00015061Y00014738D01*
X00014896Y00014752D01*
X00014731Y00014761D01*
X00014566Y00014763D01*
X00014400Y00014760D01*
X00014235Y00014752D01*
X00014070Y00014738D01*
X00013906Y00014719D01*
X00013742Y00014694D01*
X00013579Y00014663D01*
X00013418Y00014627D01*
X00013258Y00014586D01*
X00013099Y00014539D01*
X00012942Y00014487D01*
X00012787Y00014430D01*
X00012633Y00014368D01*
X00012482Y00014300D01*
X00012334Y00014228D01*
X00012188Y00014150D01*
X00012044Y00014068D01*
X00011903Y00013981D01*
X00011766Y00013889D01*
X00011731Y00013864D01*
X00011714Y00013852D01*
X00011696Y00013841D01*
X00011678Y00013832D01*
X00011659Y00013823D01*
X00011640Y00013815D01*
X00011620Y00013808D01*
X00011600Y00013802D01*
X00011580Y00013798D01*
X00011560Y00013794D01*
X00011539Y00013792D01*
X00011518Y00013790D01*
X00011498Y00013790D01*
X00011477Y00013791D01*
X00011456Y00013792D01*
X00011436Y00013795D01*
X00011415Y00013799D01*
X00011395Y00013804D01*
X00011375Y00013811D01*
X00011356Y00013818D01*
X00011337Y00013826D01*
X00010071Y00014408D01*
X00010051Y00014418D01*
X00010031Y00014429D01*
X00010013Y00014441D01*
X00009995Y00014454D01*
X00009977Y00014468D01*
X00009961Y00014483D01*
X00009945Y00014499D01*
X00009931Y00014516D01*
X00009917Y00014534D01*
X00009904Y00014552D01*
X00009893Y00014571D01*
X00009882Y00014591D01*
X00009873Y00014611D01*
X00009865Y00014632D01*
X00009858Y00014653D01*
X00009852Y00014675D01*
X00009848Y00014696D01*
X00009844Y00014718D01*
X00009842Y00014741D01*
X00009841Y00014763D01*
X00009841Y00014883D01*
X00009834Y00015048D01*
X00009821Y00015213D01*
X00009804Y00015378D01*
X00009780Y00015541D01*
X00009751Y00015704D01*
X00009717Y00015866D01*
X00009677Y00016027D01*
X00009632Y00016186D01*
X00009581Y00016344D01*
X00009526Y00016499D01*
X00009465Y00016653D01*
X00009399Y00016805D01*
X00009327Y00016954D01*
X00009251Y00017101D01*
X00009170Y00017245D01*
X00009084Y00017387D01*
X00008994Y00017525D01*
X00008899Y00017661D01*
X00008799Y00017793D01*
X00008695Y00017921D01*
X00008587Y00018047D01*
X00008474Y00018168D01*
X00008358Y00018285D01*
X00008237Y00018399D01*
X00008113Y00018508D01*
X00007986Y00018614D01*
X00007854Y00018715D01*
X00007720Y00018811D01*
X00007582Y00018903D01*
X00007442Y00018990D01*
X00007298Y00019072D01*
X00007152Y00019150D01*
X00007003Y00019222D01*
X00006852Y00019290D01*
X00006699Y00019352D01*
X00006544Y00019409D01*
X00006387Y00019461D01*
X00006228Y00019508D01*
X00006068Y00019549D01*
X00005906Y00019585D01*
X00005743Y00019615D01*
X00005580Y00019640D01*
X00005415Y00019660D01*
X00005251Y00019673D01*
X00005085Y00019682D01*
X00004920Y00019685D01*
X00004754Y00019682D01*
X00004589Y00019673D01*
X00004424Y00019659D01*
X00004260Y00019640D01*
X00004096Y00019615D01*
X00003934Y00019585D01*
X00003772Y00019549D01*
X00003612Y00019507D01*
X00003453Y00019461D01*
X00003296Y00019409D01*
X00003141Y00019351D01*
X00002988Y00019289D01*
X00002837Y00019221D01*
X00002688Y00019149D01*
X00002542Y00019071D01*
X00002398Y00018989D01*
X00002258Y00018902D01*
X00002120Y00018810D01*
X00001986Y00018713D01*
X00001855Y00018613D01*
X00001727Y00018507D01*
X00001603Y00018398D01*
X00001483Y00018284D01*
X00001366Y00018167D01*
X00001254Y00018045D01*
X00001145Y00017920D01*
X00001041Y00017791D01*
X00000942Y00017659D01*
X00000847Y00017524D01*
X00000756Y00017385D01*
X00000670Y00017244D01*
X00000589Y00017100D01*
X00000513Y00016953D01*
X00000442Y00016803D01*
X00000376Y00016652D01*
X00000315Y00016498D01*
X00000260Y00016342D01*
X00000209Y00016184D01*
X00000164Y00016025D01*
X00000124Y00015865D01*
X00000090Y00015703D01*
X00000061Y00015540D01*
X00000038Y00015376D01*
X00000020Y00015211D01*
X00000008Y00015046D01*
X00000001Y00014881D01*
X00000000Y00014716D01*
X00000004Y00014550D01*
X00000014Y00014385D01*
X00000030Y00014220D01*
X00000051Y00014056D01*
X00000077Y00013893D01*
X00000109Y00013731D01*
X00000147Y00013569D01*
X00000189Y00013410D01*
X00000238Y00013251D01*
X00000291Y00013095D01*
X00000350Y00012940D01*
X00000414Y00012787D01*
X00000483Y00012637D01*
X00000557Y00012489D01*
X00000635Y00012344D01*
X00000719Y00012201D01*
X00000808Y00012061D01*
X00000901Y00011924D01*
X00000999Y00011791D01*
X00001101Y00011661D01*
X00001207Y00011534D01*
X00001318Y00011411D01*
X00001433Y00011292D01*
X00001551Y00011176D01*
X00001674Y00011065D01*
X00001730Y00011017D01*
X00001730Y00011017D01*
X00001743Y00011006D01*
X00001756Y00010994D01*
X00001767Y00010981D01*
X00001778Y00010969D01*
X00001789Y00010955D01*
X00001799Y00010941D01*
X00001809Y00010927D01*
X00001817Y00010913D01*
X00001826Y00010898D01*
X00001833Y00010882D01*
X00001840Y00010867D01*
X00001846Y00010851D01*
X00001851Y00010835D01*
X00001856Y00010818D01*
X00001860Y00010802D01*
X00001864Y00010785D01*
X00001866Y00010768D01*
X00001868Y00010751D01*
X00001869Y00010734D01*
X00001869Y00010717D01*
X00001869Y00008967D01*
X00001869Y00008950D01*
X00001868Y00008933D01*
X00001866Y00008916D01*
X00001863Y00008899D01*
X00001860Y00008882D01*
X00001856Y00008866D01*
X00001851Y00008849D01*
X00001846Y00008833D01*
X00001840Y00008817D01*
X00001833Y00008802D01*
X00001825Y00008786D01*
X00001817Y00008771D01*
X00001808Y00008757D01*
X00001799Y00008743D01*
X00001789Y00008729D01*
X00001778Y00008715D01*
X00001767Y00008703D01*
X00001755Y00008690D01*
X00001743Y00008678D01*
X00001730Y00008667D01*
X00001672Y00008618D01*
X00001550Y00008506D01*
X00001431Y00008391D01*
X00001317Y00008272D01*
X00001206Y00008149D01*
X00001100Y00008022D01*
X00000998Y00007892D01*
X00000900Y00007758D01*
X00000807Y00007621D01*
X00000718Y00007482D01*
X00000635Y00007339D01*
X00000556Y00007193D01*
X00000482Y00007045D01*
X00000413Y00006895D01*
X00000349Y00006742D01*
X00000290Y00006588D01*
X00000237Y00006431D01*
X00000189Y00006273D01*
X00000146Y00006113D01*
X00000109Y00005952D01*
X00000077Y00005789D01*
X00000050Y00005626D01*
X00000029Y00005462D01*
X00000014Y00005297D01*
X00000004Y00005132D01*
X00000000Y00004967D01*
X00000001Y00004801D01*
X00000008Y00004636D01*
X00000020Y00004471D01*
X00000038Y00004306D01*
X00000061Y00004143D01*
X00000090Y00003980D01*
X00000125Y00003818D01*
X00000164Y00003657D01*
X00000210Y00003498D01*
X00000260Y00003340D01*
X00000316Y00003185D01*
X00000377Y00003031D01*
X00000443Y00002879D01*
X00000514Y00002730D01*
X00000590Y00002583D01*
X00000671Y00002439D01*
X00000757Y00002297D01*
X00000848Y00002159D01*
X00000943Y00002023D01*
X00001043Y00001891D01*
X00001147Y00001763D01*
X00001255Y00001637D01*
X00001367Y00001516D01*
X00001484Y00001399D01*
X00001604Y00001285D01*
X00001728Y00001176D01*
X00001856Y00001070D01*
X00001987Y00000970D01*
X00002122Y00000873D01*
X00002259Y00000781D01*
X00002400Y00000694D01*
X00002543Y00000612D01*
X00002690Y00000534D01*
X00002838Y00000462D01*
X00002989Y00000394D01*
X00003143Y00000332D01*
X00003298Y00000275D01*
X00003455Y00000223D01*
X00003614Y00000176D01*
X00003774Y00000135D01*
X00003936Y00000099D01*
X00004098Y00000069D01*
X00004262Y00000044D01*
X00004426Y00000024D01*
X00004591Y00000011D01*
X00004756Y00000002D01*
X00004922Y00000000D01*
X00005087Y00000002D01*
X00005252Y00000011D01*
X00005417Y00000025D01*
X00005582Y00000044D01*
X00005745Y00000069D01*
X00005908Y00000099D01*
X00006069Y00000135D01*
X00006229Y00000177D01*
X00006388Y00000223D01*
X00006545Y00000275D01*
X00006701Y00000333D01*
X00006854Y00000395D01*
X00007005Y00000463D01*
X00007153Y00000535D01*
X00007300Y00000613D01*
X00007443Y00000695D01*
X00007584Y00000782D01*
X00007721Y00000874D01*
X00007856Y00000971D01*
X00007987Y00001071D01*
X00008115Y00001177D01*
X00008239Y00001286D01*
X00008359Y00001400D01*
X00008475Y00001517D01*
X00008588Y00001639D01*
X00008696Y00001764D01*
X00008800Y00001893D01*
X00008900Y00002025D01*
X00008995Y00002160D01*
X00009085Y00002299D01*
X00009171Y00002440D01*
X00009252Y00002584D01*
X00009328Y00002731D01*
X00009399Y00002881D01*
X00009465Y00003032D01*
X00009526Y00003186D01*
X00009582Y00003342D01*
X00009632Y00003500D01*
X00009677Y00003659D01*
X00009717Y00003819D01*
X00009752Y00003981D01*
X00009780Y00004144D01*
X00009804Y00004308D01*
X00009822Y00004473D01*
X00009834Y00004638D01*
X00009841Y00004803D01*
X00009842Y00004946D01*
X00010463Y00007125D02*
X00010463Y00007125D01*
X00010481Y00007096D01*
X00010497Y00007066D01*
X00010509Y00007034D01*
X00010519Y00007001D01*
X00010526Y00006968D01*
X00010530Y00006934D01*
X00010532Y00006900D01*
X00010530Y00006866D01*
X00010525Y00006832D01*
X00010517Y00006798D01*
X00010507Y00006766D01*
X00010493Y00006734D01*
X00010477Y00006704D01*
X00010459Y00006675D01*
X00010438Y00006648D01*
X00010414Y00006623D01*
X00010389Y00006600D01*
X00010362Y00006580D01*
X00010333Y00006562D01*
X00010302Y00006546D01*
X00010059Y00006434D01*
X00010029Y00006422D01*
X00009998Y00006412D01*
X00009967Y00006405D01*
X00009935Y00006400D01*
X00009903Y00006398D01*
X00009871Y00006399D01*
X00009839Y00006402D01*
X00009807Y00006408D01*
X00009776Y00006417D01*
X00009745Y00006428D01*
X00009716Y00006441D01*
X00009688Y00006457D01*
X00009661Y00006475D01*
X00009636Y00006495D01*
X00009613Y00006517D01*
X00009591Y00006541D01*
X00009572Y00006567D01*
X00009554Y00006594D01*
X00009539Y00006623D01*
X00009527Y00006652D01*
X00009492Y00006744D01*
X00009428Y00006897D01*
X00009359Y00007047D01*
X00009285Y00007195D01*
X00009206Y00007340D01*
X00009122Y00007483D01*
X00009034Y00007623D01*
X00008941Y00007760D01*
X00008843Y00007893D01*
X00008741Y00008023D01*
X00008634Y00008150D01*
X00008524Y00008273D01*
X00008409Y00008392D01*
X00008290Y00008508D01*
X00008168Y00008619D01*
X00008042Y00008726D01*
X00007912Y00008829D01*
X00007779Y00008927D01*
X00007643Y00009021D01*
X00007503Y00009110D01*
X00007361Y00009194D01*
X00007216Y00009274D01*
X00007068Y00009349D01*
X00006918Y00009418D01*
X00006766Y00009483D01*
X00006611Y00009542D01*
X00006455Y00009597D01*
X00006297Y00009646D01*
X00003543Y00009645D01*
X00003543Y00009645D01*
X00003385Y00009596D01*
X00003228Y00009542D01*
X00003074Y00009482D01*
X00002958Y00009433D01*
X00002958Y00009433D01*
X00002921Y00009420D01*
X00002884Y00009410D01*
X00002846Y00009404D01*
X00002807Y00009402D01*
X00002768Y00009403D01*
X00002729Y00009409D01*
X00002692Y00009418D01*
X00002655Y00009431D01*
X00002620Y00009448D01*
X00002587Y00009467D01*
X00002555Y00009490D01*
X00002526Y00009516D01*
X00002500Y00009545D01*
X00002477Y00009576D01*
X00002457Y00009610D01*
X00002440Y00009645D01*
X00002427Y00009681D01*
X00002418Y00009719D01*
X00002412Y00009757D01*
X00002410Y00009796D01*
X00002411Y00009889D01*
X00002413Y00009928D01*
X00002418Y00009966D01*
X00002428Y00010004D01*
X00002441Y00010040D01*
X00002458Y00010075D01*
X00002478Y00010108D01*
X00002501Y00010139D01*
X00002527Y00010168D01*
X00002556Y00010194D01*
X00002587Y00010217D01*
X00002620Y00010237D01*
X00002656Y00010253D01*
X00002692Y00010266D01*
X00002730Y00010275D01*
X00002768Y00010281D01*
X00002807Y00010282D01*
X00002846Y00010280D01*
X00002884Y00010274D01*
X00002922Y00010264D01*
X00002958Y00010251D01*
X00003076Y00010201D01*
X00003230Y00010142D01*
X00003386Y00010087D01*
X00003544Y00010038D01*
X00006299Y00010039D01*
X00006299Y00010039D01*
X00006457Y00010088D01*
X00006613Y00010142D01*
X00006767Y00010202D01*
X00006920Y00010266D01*
X00007070Y00010336D01*
X00007217Y00010411D01*
X00007362Y00010490D01*
X00007505Y00010575D01*
X00007644Y00010664D01*
X00007780Y00010758D01*
X00007913Y00010856D01*
X00008043Y00010959D01*
X00008169Y00011066D01*
X00008292Y00011178D01*
X00008410Y00011293D01*
X00008525Y00011412D01*
X00008635Y00011535D01*
X00008742Y00011662D01*
X00008844Y00011792D01*
X00008942Y00011926D01*
X00009035Y00012063D01*
X00009123Y00012202D01*
X00009207Y00012345D01*
X00009286Y00012491D01*
X00009360Y00012639D01*
X00009429Y00012789D01*
X00009492Y00012942D01*
X00009551Y00013096D01*
X00009572Y00013157D01*
X00009585Y00013191D01*
X00009601Y00013223D01*
X00009620Y00013253D01*
X00009642Y00013282D01*
X00009666Y00013309D01*
X00009693Y00013333D01*
X00009721Y00013355D01*
X00009752Y00013374D01*
X00009784Y00013390D01*
X00009818Y00013403D01*
X00009852Y00013413D01*
X00009888Y00013420D01*
X00009923Y00013423D01*
X00009959Y00013424D01*
X00009995Y00013421D01*
X00010031Y00013414D01*
X00010065Y00013405D01*
X00010099Y00013392D01*
X00010131Y00013377D01*
X00010162Y00013358D01*
X00010413Y00013192D01*
X00010438Y00013174D01*
X00010462Y00013153D01*
X00010484Y00013131D01*
X00010505Y00013107D01*
X00010523Y00013082D01*
X00010539Y00013055D01*
X00010553Y00013027D01*
X00010565Y00012998D01*
X00010575Y00012968D01*
X00010582Y00012937D01*
X00010586Y00012906D01*
X00010588Y00012875D01*
X00010588Y00012843D01*
X00010585Y00012812D01*
X00010580Y00012781D01*
X00010572Y00012750D01*
X00010562Y00012721D01*
X00010549Y00012692D01*
X00010534Y00012664D01*
X00010517Y00012638D01*
X00010492Y00012603D01*
X00010402Y00012464D01*
X00010316Y00012323D01*
X00010235Y00012178D01*
X00010159Y00012031D01*
X00010088Y00011882D01*
X00010022Y00011730D01*
X00009961Y00011576D01*
X00009905Y00011421D01*
X00009855Y00011263D01*
X00009810Y00011104D01*
X00009770Y00010943D01*
X00009736Y00010781D01*
X00009707Y00010618D01*
X00009683Y00010455D01*
X00009666Y00010290D01*
X00009653Y00010125D01*
X00009647Y00009960D01*
X00009645Y00009794D01*
X00009650Y00009629D01*
X00009660Y00009464D01*
X00009675Y00009299D01*
X00009696Y00009135D01*
X00009723Y00008972D01*
X00009755Y00008809D01*
X00009792Y00008648D01*
X00009835Y00008488D01*
X00009883Y00008330D01*
X00009937Y00008173D01*
X00009995Y00008019D01*
X00010059Y00007866D01*
X00010128Y00007716D01*
X00010202Y00007568D01*
X00010281Y00007422D01*
X00010365Y00007280D01*
X00010453Y00007140D01*
X00010463Y00007125D01*
M02*