G04 #@! TF.GenerationSoftware,KiCad,Pcbnew,5.0.2-bee76a0~70~ubuntu18.04.1*
G04 #@! TF.CreationDate,2019-08-12T15:33:48+02:00*
G04 #@! TF.ProjectId,upper_Sensor,75707065-725f-4536-956e-736f722e6b69,rev?*
G04 #@! TF.SameCoordinates,Original*
G04 #@! TF.FileFunction,Copper,L1,Top*
G04 #@! TF.FilePolarity,Positive*
%FSLAX46Y46*%
G04 Gerber Fmt 4.6, Leading zero omitted, Abs format (unit mm)*
G04 Created by KiCad (PCBNEW 5.0.2-bee76a0~70~ubuntu18.04.1) date Mo 12 Aug 2019 15:33:48 CEST*
%MOMM*%
%LPD*%
G01*
G04 APERTURE LIST*
G04 #@! TA.AperFunction,SMDPad,CuDef*
%ADD10R,0.630000X0.230000*%
G04 #@! TD*
G04 #@! TA.AperFunction,ViaPad*
%ADD11C,0.600000*%
G04 #@! TD*
G04 #@! TA.AperFunction,Conductor*
%ADD12C,0.130000*%
G04 #@! TD*
G04 #@! TA.AperFunction,Conductor*
%ADD13C,0.300000*%
G04 #@! TD*
G04 #@! TA.AperFunction,Conductor*
%ADD14C,0.100000*%
G04 #@! TD*
G04 APERTURE END LIST*
D10*
G04 #@! TO.P,J12,10*
G04 #@! TO.N,GNDD*
X104325000Y-79200000D03*
G04 #@! TO.P,J12,9*
G04 #@! TO.N,N/C*
X101675000Y-79200000D03*
G04 #@! TO.P,J12,8*
G04 #@! TO.N,REFFET1_D2*
X104325000Y-79600000D03*
G04 #@! TO.P,J12,7*
G04 #@! TO.N,ISFET1_D4*
X101675000Y-79600000D03*
G04 #@! TO.P,J12,6*
G04 #@! TO.N,REFFET1_D3*
X104325000Y-80000000D03*
G04 #@! TO.P,J12,5*
G04 #@! TO.N,ISFET1_D3*
X101675000Y-80000000D03*
G04 #@! TO.P,J12,4*
G04 #@! TO.N,REFFET1_D4*
X104325000Y-80400000D03*
G04 #@! TO.P,J12,3*
G04 #@! TO.N,ISFET1_D2*
X101675000Y-80400000D03*
G04 #@! TO.P,J12,2*
G04 #@! TO.N,N/C*
X104325000Y-80800000D03*
G04 #@! TO.P,J12,1*
G04 #@! TO.N,ISFET1_D1*
X101675000Y-80800000D03*
G04 #@! TD*
G04 #@! TO.P,J11,10*
G04 #@! TO.N,O2_ELEC1*
X118325000Y-79200000D03*
G04 #@! TO.P,J11,9*
G04 #@! TO.N,ELEC1*
X115675000Y-79200000D03*
G04 #@! TO.P,J11,8*
G04 #@! TO.N,Net-(J11-Pad8)*
X118325000Y-79600000D03*
G04 #@! TO.P,J11,7*
G04 #@! TO.N,Net-(J11-Pad7)*
X115675000Y-79600000D03*
G04 #@! TO.P,J11,6*
G04 #@! TO.N,GNDD*
X118325000Y-80000000D03*
G04 #@! TO.P,J11,5*
G04 #@! TO.N,Net-(J11-Pad5)*
X115675000Y-80000000D03*
G04 #@! TO.P,J11,4*
G04 #@! TO.N,RF_ANT*
X118325000Y-80400000D03*
G04 #@! TO.P,J11,3*
G04 #@! TO.N,GNDD*
X115675000Y-80400000D03*
G04 #@! TO.P,J11,2*
X118325000Y-80800000D03*
G04 #@! TO.P,J11,1*
G04 #@! TO.N,Net-(J11-Pad1)*
X115675000Y-80800000D03*
G04 #@! TD*
D11*
G04 #@! TO.N,*
X109250000Y-77500000D03*
X109250000Y-82500000D03*
G04 #@! TO.N,GNDD*
X110797475Y-89115181D03*
X111588881Y-89010990D03*
X112368194Y-88838220D03*
X113129484Y-88598186D03*
X114575000Y-87924131D03*
X113866957Y-88292715D03*
X117924130Y-84574999D03*
X118292714Y-83866956D03*
X118598185Y-83129483D03*
X118598183Y-76870516D03*
X118292712Y-76133044D03*
X117924128Y-75425001D03*
X118838217Y-77631806D03*
X119010987Y-78411119D03*
X114574998Y-72075871D03*
X112368193Y-71161782D03*
X111588880Y-70989012D03*
X113129483Y-71401816D03*
X113866955Y-71707287D03*
X110797474Y-70884822D03*
X108411119Y-70989014D03*
X107631806Y-71161784D03*
X109202524Y-70884823D03*
X109999999Y-70850004D03*
X106870516Y-71401818D03*
X105425002Y-72075873D03*
X106133044Y-71707289D03*
X102075872Y-75425003D03*
X101707288Y-76133046D03*
X102075875Y-84574997D03*
X101401820Y-83129483D03*
X101707291Y-83866955D03*
X105425005Y-87924127D03*
X106133047Y-88292710D03*
X106870519Y-88598181D03*
X107631808Y-88838215D03*
X108411121Y-89010984D03*
X109202526Y-89115174D03*
X118838219Y-82368193D03*
X119010989Y-81588880D03*
X119115178Y-79202524D03*
X101401817Y-76870518D03*
X101161783Y-77631808D03*
X100989014Y-78411121D03*
X100884824Y-79202526D03*
X110000000Y-89150000D03*
X118300000Y-81400000D03*
X117500000Y-80400000D03*
X117500000Y-80400000D03*
X117500000Y-80400000D03*
X117500000Y-81100000D03*
X118200000Y-78600000D03*
X116500000Y-79100000D03*
X114800000Y-80500000D03*
X105100000Y-79600000D03*
X106300000Y-80700000D03*
X117500025Y-79700025D03*
G04 #@! TO.N,REFFET1_D2*
X107500000Y-80750000D03*
G04 #@! TO.N,REFFET1_D3*
X107500000Y-79750000D03*
G04 #@! TO.N,REFFET1_D4*
X107500000Y-78750000D03*
G04 #@! TO.N,ISFET1_D4*
X112500000Y-78750000D03*
G04 #@! TO.N,ISFET1_D3*
X112500000Y-79750000D03*
G04 #@! TO.N,ISFET1_D2*
X112500000Y-80750000D03*
G04 #@! TO.N,ISFET1_D1*
X111250000Y-82500000D03*
G04 #@! TO.N,ELEC1*
X110250000Y-77500000D03*
G04 #@! TO.N,RF_ANT*
X119491760Y-80403700D03*
G04 #@! TO.N,O2_ELEC1*
X111250000Y-77500000D03*
G04 #@! TD*
D12*
G04 #@! TO.N,*
X104046980Y-82490000D02*
X109320000Y-82490000D01*
X102369620Y-80812640D02*
X104046980Y-82490000D01*
X102369620Y-79449620D02*
X102369620Y-80812640D01*
X101675000Y-79200000D02*
X102120000Y-79200000D01*
X102120000Y-79200000D02*
X102369620Y-79449620D01*
X103553180Y-78100000D02*
X108660000Y-78100000D01*
X103880000Y-80800000D02*
X102999540Y-79919540D01*
X108660000Y-78100000D02*
X109260000Y-77500000D01*
X104325000Y-80800000D02*
X103880000Y-80800000D01*
X102999540Y-78653640D02*
X103553180Y-78100000D01*
X102999540Y-79919540D02*
X102999540Y-78653640D01*
G04 #@! TO.N,REFFET1_D2*
X103866311Y-78889999D02*
X105303459Y-78889999D01*
X103880000Y-79600000D02*
X103814999Y-79534999D01*
X105303459Y-78889999D02*
X107173460Y-80760000D01*
X103814999Y-79534999D02*
X103814999Y-78941311D01*
X103814999Y-78941311D02*
X103866311Y-78889999D01*
X107520000Y-80760000D02*
X107530000Y-80770000D01*
X107173460Y-80760000D02*
X107520000Y-80760000D01*
X104325000Y-79600000D02*
X103880000Y-79600000D01*
G04 #@! TO.N,REFFET1_D3*
X103554988Y-79674988D02*
X103554988Y-78833612D01*
X103554988Y-78833612D02*
X103758612Y-78629988D01*
X106531168Y-79750000D02*
X107590000Y-79750000D01*
X105411156Y-78629988D02*
X106531168Y-79750000D01*
X103758612Y-78629988D02*
X105411156Y-78629988D01*
X104325000Y-80000000D02*
X103880000Y-80000000D01*
X103880000Y-80000000D02*
X103554988Y-79674988D01*
G04 #@! TO.N,REFFET1_D4*
X107490000Y-78750000D02*
X107520000Y-78720000D01*
X105898878Y-78750000D02*
X107490000Y-78750000D01*
X104325000Y-80400000D02*
X103880000Y-80400000D01*
X103880000Y-80400000D02*
X103294977Y-79814977D01*
X105518855Y-78369977D02*
X105898878Y-78750000D01*
X103294977Y-78725913D02*
X103650913Y-78369977D01*
X103650913Y-78369977D02*
X105518855Y-78369977D01*
X103294977Y-79814977D02*
X103294977Y-78725913D01*
G04 #@! TO.N,ISFET1_D4*
X100623710Y-80206290D02*
X100623710Y-81265779D01*
X100623710Y-81265779D02*
X103147951Y-83790020D01*
X103147951Y-83790020D02*
X111535401Y-83790020D01*
X111687711Y-83637709D02*
X113255012Y-82070407D01*
X101230000Y-79600000D02*
X100623710Y-80206290D01*
X113255011Y-79465011D02*
X112520000Y-78730000D01*
X113255012Y-82070407D02*
X113255011Y-79465011D01*
X101675000Y-79600000D02*
X101230000Y-79600000D01*
X111535401Y-83790020D02*
X111687711Y-83637709D01*
G04 #@! TO.N,ISFET1_D3*
X100883721Y-81157431D02*
X103256301Y-83530011D01*
X101675000Y-80000000D02*
X101230000Y-80000000D01*
X112995001Y-81962707D02*
X112995001Y-80205001D01*
X101230000Y-80000000D02*
X100883721Y-80346279D01*
X111580011Y-83377699D02*
X112995001Y-81962707D01*
X111427700Y-83530011D02*
X111580011Y-83377699D01*
X112995001Y-80205001D02*
X112500000Y-79710000D01*
X103256301Y-83530011D02*
X111427700Y-83530011D01*
X100883721Y-80346279D02*
X100883721Y-81157431D01*
G04 #@! TO.N,ISFET1_D2*
X112490000Y-82100000D02*
X112490000Y-80790000D01*
X101230000Y-80400000D02*
X101150420Y-80479580D01*
X101150420Y-81056422D02*
X103363998Y-83270000D01*
X101675000Y-80400000D02*
X101230000Y-80400000D01*
X101150420Y-80479580D02*
X101150420Y-81056422D01*
X103363998Y-83270000D02*
X111320000Y-83270000D01*
X111320000Y-83270000D02*
X112490000Y-82100000D01*
G04 #@! TO.N,ISFET1_D1*
X101675000Y-80800000D02*
X101675000Y-81187360D01*
X101675000Y-81187360D02*
X102034340Y-81546700D01*
X102034340Y-81546700D02*
X102034340Y-81572634D01*
X103456707Y-82995001D02*
X110754999Y-82995001D01*
X102034340Y-81572634D02*
X103456707Y-82995001D01*
X110754999Y-82995001D02*
X111240000Y-82510000D01*
G04 #@! TO.N,ELEC1*
X115675000Y-79200000D02*
X115475000Y-79200000D01*
X115475000Y-79200000D02*
X114867680Y-78592680D01*
X113245000Y-76970000D02*
X110740000Y-76970000D01*
X114867680Y-78592680D02*
X113245000Y-76970000D01*
X110740000Y-76970000D02*
X110230000Y-77480000D01*
D13*
G04 #@! TO.N,RF_ANT*
X118325000Y-80400000D02*
X119488060Y-80400000D01*
X119488060Y-80400000D02*
X119491760Y-80403700D01*
D12*
G04 #@! TO.N,O2_ELEC1*
X112690000Y-77500000D02*
X111280000Y-77500000D01*
X113960000Y-78770000D02*
X112690000Y-77500000D01*
X113960000Y-80392602D02*
X113960000Y-78770000D01*
X117300000Y-79200000D02*
X116600000Y-79900000D01*
X118325000Y-79200000D02*
X117300000Y-79200000D01*
X116600000Y-79900000D02*
X116600000Y-80656002D01*
X116600000Y-80656002D02*
X116146001Y-81110001D01*
X116146001Y-81110001D02*
X114677399Y-81110001D01*
X114677399Y-81110001D02*
X113960000Y-80392602D01*
G04 #@! TD*
D14*
G04 #@! TO.N,GNDD*
G36*
X111233460Y-70630953D02*
X112445808Y-70872104D01*
X113616320Y-71269438D01*
X114724952Y-71816156D01*
X115424441Y-72283539D01*
X115276484Y-72727022D01*
X115280984Y-73300016D01*
X115470845Y-73840660D01*
X115825593Y-74290656D01*
X116306977Y-74601482D01*
X116863089Y-74739621D01*
X117433964Y-74690178D01*
X117711163Y-74567630D01*
X118183844Y-75275048D01*
X118730562Y-76383680D01*
X119127896Y-77554192D01*
X119369047Y-78766540D01*
X119444892Y-79923700D01*
X119396282Y-79923700D01*
X119219862Y-79996775D01*
X119146637Y-80070000D01*
X118765000Y-80070000D01*
X118752500Y-80057500D01*
X118425000Y-80057500D01*
X118425000Y-80070000D01*
X118292498Y-80070000D01*
X118225000Y-80083426D01*
X118225000Y-80057500D01*
X117897500Y-80057500D01*
X117860000Y-80095000D01*
X117860000Y-80144837D01*
X117870398Y-80169940D01*
X117840444Y-80214768D01*
X117826474Y-80285000D01*
X117826474Y-80515000D01*
X117840444Y-80585232D01*
X117870398Y-80630060D01*
X117860000Y-80655163D01*
X117860000Y-80705000D01*
X117897500Y-80742500D01*
X118225000Y-80742500D01*
X118225000Y-80716574D01*
X118292498Y-80730000D01*
X118425000Y-80730000D01*
X118425000Y-80742500D01*
X118752500Y-80742500D01*
X118765000Y-80730000D01*
X119139237Y-80730000D01*
X119219862Y-80810625D01*
X119392086Y-80881962D01*
X119369047Y-81233460D01*
X119127896Y-82445808D01*
X118730562Y-83616320D01*
X118183844Y-84724952D01*
X117711430Y-85431970D01*
X117407362Y-85303214D01*
X116835781Y-85262744D01*
X116281907Y-85409601D01*
X115805465Y-85727950D01*
X115457829Y-86183462D01*
X115276484Y-86727022D01*
X115280984Y-87300016D01*
X115426699Y-87714952D01*
X114724952Y-88183844D01*
X113616320Y-88730562D01*
X112445808Y-89127896D01*
X111233460Y-89369047D01*
X110000000Y-89449893D01*
X108766540Y-89369047D01*
X107554192Y-89127896D01*
X106383680Y-88730562D01*
X105275048Y-88183844D01*
X104570975Y-87713398D01*
X104650919Y-87565236D01*
X104745000Y-87000000D01*
X104744785Y-86972591D01*
X104641837Y-86408902D01*
X104361851Y-85908952D01*
X104080390Y-85656854D01*
X106426572Y-85656854D01*
X106483282Y-85941954D01*
X106644778Y-86183649D01*
X106886473Y-86345145D01*
X107171573Y-86401855D01*
X107456673Y-86345145D01*
X107698368Y-86183649D01*
X107859864Y-85941954D01*
X107916574Y-85656854D01*
X107859864Y-85371754D01*
X107698368Y-85130059D01*
X107456673Y-84968563D01*
X107171573Y-84911853D01*
X106886473Y-84968563D01*
X106644778Y-85130059D01*
X106483282Y-85371754D01*
X106426572Y-85656854D01*
X104080390Y-85656854D01*
X103935018Y-85526648D01*
X103407362Y-85303214D01*
X102835781Y-85262744D01*
X102281907Y-85409601D01*
X102276180Y-85413428D01*
X101816156Y-84724952D01*
X101269438Y-83616320D01*
X100872104Y-82445808D01*
X100726809Y-81715359D01*
X102957648Y-83946199D01*
X102971316Y-83966655D01*
X103051859Y-84020471D01*
X103052357Y-84020804D01*
X103147951Y-84039819D01*
X103172077Y-84035020D01*
X111511275Y-84035020D01*
X111535401Y-84039819D01*
X111559526Y-84035020D01*
X111559527Y-84035020D01*
X111630995Y-84020804D01*
X111712036Y-83966655D01*
X111725705Y-83946198D01*
X111878012Y-83793889D01*
X112843474Y-82828427D01*
X114911853Y-82828427D01*
X114968563Y-83113527D01*
X115130059Y-83355222D01*
X115371754Y-83516718D01*
X115656854Y-83573428D01*
X115941954Y-83516718D01*
X116183649Y-83355222D01*
X116345145Y-83113527D01*
X116401855Y-82828427D01*
X116345145Y-82543327D01*
X116183649Y-82301632D01*
X115941954Y-82140136D01*
X115656854Y-82083426D01*
X115371754Y-82140136D01*
X115130059Y-82301632D01*
X114968563Y-82543327D01*
X114911853Y-82828427D01*
X112843474Y-82828427D01*
X113411194Y-82260707D01*
X113431647Y-82247041D01*
X113466023Y-82195593D01*
X113485796Y-82166001D01*
X113504811Y-82070407D01*
X113500012Y-82046281D01*
X113500010Y-79489142D01*
X113504810Y-79465011D01*
X113485795Y-79369417D01*
X113445312Y-79308829D01*
X113445309Y-79308826D01*
X113431645Y-79288376D01*
X113411195Y-79274712D01*
X112980000Y-78843518D01*
X112980000Y-78654522D01*
X112906925Y-78478102D01*
X112771898Y-78343075D01*
X112595478Y-78270000D01*
X112404522Y-78270000D01*
X112228102Y-78343075D01*
X112093075Y-78478102D01*
X112020000Y-78654522D01*
X112020000Y-78845478D01*
X112093075Y-79021898D01*
X112228102Y-79156925D01*
X112404522Y-79230000D01*
X112595478Y-79230000D01*
X112650661Y-79207143D01*
X113010011Y-79566494D01*
X113010011Y-79873530D01*
X112980000Y-79843518D01*
X112980000Y-79654522D01*
X112906925Y-79478102D01*
X112771898Y-79343075D01*
X112595478Y-79270000D01*
X112404522Y-79270000D01*
X112228102Y-79343075D01*
X112093075Y-79478102D01*
X112020000Y-79654522D01*
X112020000Y-79845478D01*
X112093075Y-80021898D01*
X112228102Y-80156925D01*
X112404522Y-80230000D01*
X112595478Y-80230000D01*
X112650661Y-80207143D01*
X112750002Y-80306484D01*
X112750002Y-80334005D01*
X112595478Y-80270000D01*
X112404522Y-80270000D01*
X112228102Y-80343075D01*
X112093075Y-80478102D01*
X112020000Y-80654522D01*
X112020000Y-80845478D01*
X112093075Y-81021898D01*
X112228102Y-81156925D01*
X112245001Y-81163925D01*
X112245000Y-81998518D01*
X111730000Y-82513519D01*
X111730000Y-82404522D01*
X111656925Y-82228102D01*
X111521898Y-82093075D01*
X111345478Y-82020000D01*
X111154522Y-82020000D01*
X110978102Y-82093075D01*
X110843075Y-82228102D01*
X110770000Y-82404522D01*
X110770000Y-82595478D01*
X110781142Y-82622377D01*
X110653518Y-82750001D01*
X109665995Y-82750001D01*
X109730000Y-82595478D01*
X109730000Y-82404522D01*
X109656925Y-82228102D01*
X109521898Y-82093075D01*
X109345478Y-82020000D01*
X109154522Y-82020000D01*
X108978102Y-82093075D01*
X108843075Y-82228102D01*
X108836076Y-82245000D01*
X104148462Y-82245000D01*
X102614620Y-80711159D01*
X102614620Y-79473746D01*
X102619419Y-79449620D01*
X102600404Y-79354026D01*
X102593087Y-79343075D01*
X102546255Y-79272985D01*
X102525799Y-79259317D01*
X102310305Y-79043824D01*
X102296635Y-79023365D01*
X102215594Y-78969216D01*
X102144126Y-78955000D01*
X102120000Y-78950201D01*
X102114027Y-78951389D01*
X102060232Y-78915444D01*
X101990000Y-78901474D01*
X101360000Y-78901474D01*
X101289768Y-78915444D01*
X101230228Y-78955228D01*
X101190444Y-79014768D01*
X101176474Y-79085000D01*
X101176474Y-79315000D01*
X101185247Y-79359103D01*
X101134406Y-79369216D01*
X101053365Y-79423365D01*
X101039699Y-79443818D01*
X100554778Y-79928741D01*
X100630953Y-78766540D01*
X100653410Y-78653640D01*
X102749741Y-78653640D01*
X102754541Y-78677771D01*
X102754540Y-79895414D01*
X102749741Y-79919540D01*
X102754540Y-79943665D01*
X102768756Y-80015133D01*
X102822905Y-80096175D01*
X102843364Y-80109845D01*
X103689697Y-80956179D01*
X103703365Y-80976635D01*
X103784406Y-81030784D01*
X103855874Y-81045000D01*
X103879999Y-81049799D01*
X103885973Y-81048611D01*
X103939768Y-81084556D01*
X104010000Y-81098526D01*
X104640000Y-81098526D01*
X104710232Y-81084556D01*
X104769772Y-81044772D01*
X104809556Y-80985232D01*
X104823526Y-80915000D01*
X104823526Y-80685000D01*
X104809556Y-80614768D01*
X104799688Y-80600000D01*
X104809556Y-80585232D01*
X104823526Y-80515000D01*
X104823526Y-80285000D01*
X104809556Y-80214768D01*
X104799688Y-80200000D01*
X104809556Y-80185232D01*
X104823526Y-80115000D01*
X104823526Y-79885000D01*
X104809556Y-79814768D01*
X104799688Y-79800000D01*
X104809556Y-79785232D01*
X104823526Y-79715000D01*
X104823526Y-79485000D01*
X104809556Y-79414768D01*
X104779602Y-79369940D01*
X104790000Y-79344837D01*
X104790000Y-79295000D01*
X104752500Y-79257500D01*
X104425000Y-79257500D01*
X104425000Y-79301474D01*
X104225000Y-79301474D01*
X104225000Y-79257500D01*
X104205000Y-79257500D01*
X104205000Y-79142500D01*
X104225000Y-79142500D01*
X104225000Y-79134999D01*
X104425000Y-79134999D01*
X104425000Y-79142500D01*
X104752500Y-79142500D01*
X104760001Y-79134999D01*
X105201978Y-79134999D01*
X106983157Y-80916179D01*
X106996825Y-80936635D01*
X107069557Y-80985232D01*
X107077866Y-80990784D01*
X107080396Y-80991287D01*
X107093075Y-81021898D01*
X107228102Y-81156925D01*
X107404522Y-81230000D01*
X107595478Y-81230000D01*
X107771898Y-81156925D01*
X107906925Y-81021898D01*
X107980000Y-80845478D01*
X107980000Y-80654522D01*
X107906925Y-80478102D01*
X107771898Y-80343075D01*
X107595478Y-80270000D01*
X107404522Y-80270000D01*
X107228102Y-80343075D01*
X107165559Y-80405618D01*
X106754942Y-79995000D01*
X107081934Y-79995000D01*
X107093075Y-80021898D01*
X107228102Y-80156925D01*
X107404522Y-80230000D01*
X107595478Y-80230000D01*
X107771898Y-80156925D01*
X107906925Y-80021898D01*
X107980000Y-79845478D01*
X107980000Y-79654522D01*
X107906925Y-79478102D01*
X107771898Y-79343075D01*
X107595478Y-79270000D01*
X107404522Y-79270000D01*
X107228102Y-79343075D01*
X107093075Y-79478102D01*
X107081934Y-79505000D01*
X106632650Y-79505000D01*
X106122649Y-78995000D01*
X107081934Y-78995000D01*
X107093075Y-79021898D01*
X107228102Y-79156925D01*
X107404522Y-79230000D01*
X107595478Y-79230000D01*
X107771898Y-79156925D01*
X107906925Y-79021898D01*
X107980000Y-78845478D01*
X107980000Y-78654522D01*
X107906925Y-78478102D01*
X107773823Y-78345000D01*
X108635874Y-78345000D01*
X108660000Y-78349799D01*
X108684126Y-78345000D01*
X108755594Y-78330784D01*
X108836635Y-78276635D01*
X108850305Y-78256176D01*
X109134694Y-77971787D01*
X109154522Y-77980000D01*
X109345478Y-77980000D01*
X109521898Y-77906925D01*
X109656925Y-77771898D01*
X109730000Y-77595478D01*
X109730000Y-77404522D01*
X109770000Y-77404522D01*
X109770000Y-77595478D01*
X109843075Y-77771898D01*
X109978102Y-77906925D01*
X110154522Y-77980000D01*
X110345478Y-77980000D01*
X110521898Y-77906925D01*
X110656925Y-77771898D01*
X110730000Y-77595478D01*
X110730000Y-77404522D01*
X110707143Y-77349339D01*
X110841482Y-77215000D01*
X110856177Y-77215000D01*
X110843075Y-77228102D01*
X110770000Y-77404522D01*
X110770000Y-77595478D01*
X110843075Y-77771898D01*
X110978102Y-77906925D01*
X111154522Y-77980000D01*
X111345478Y-77980000D01*
X111521898Y-77906925D01*
X111656925Y-77771898D01*
X111668066Y-77745000D01*
X112588519Y-77745000D01*
X113715001Y-78871483D01*
X113715000Y-80368476D01*
X113710201Y-80392602D01*
X113722781Y-80455845D01*
X113729216Y-80488195D01*
X113783365Y-80569237D01*
X113803824Y-80582907D01*
X114487096Y-81266180D01*
X114500764Y-81286636D01*
X114581805Y-81340785D01*
X114653273Y-81355001D01*
X114677398Y-81359800D01*
X114701523Y-81355001D01*
X116121875Y-81355001D01*
X116146001Y-81359800D01*
X116170127Y-81355001D01*
X116241595Y-81340785D01*
X116322636Y-81286636D01*
X116336306Y-81266177D01*
X116707483Y-80895000D01*
X117860000Y-80895000D01*
X117860000Y-80944837D01*
X117882836Y-80999968D01*
X117925032Y-81042164D01*
X117980163Y-81065000D01*
X118187500Y-81065000D01*
X118225000Y-81027500D01*
X118225000Y-80857500D01*
X118425000Y-80857500D01*
X118425000Y-81027500D01*
X118462500Y-81065000D01*
X118669837Y-81065000D01*
X118724968Y-81042164D01*
X118767164Y-80999968D01*
X118790000Y-80944837D01*
X118790000Y-80895000D01*
X118752500Y-80857500D01*
X118425000Y-80857500D01*
X118225000Y-80857500D01*
X117897500Y-80857500D01*
X117860000Y-80895000D01*
X116707483Y-80895000D01*
X116756181Y-80846303D01*
X116776635Y-80832637D01*
X116830784Y-80751596D01*
X116845000Y-80680128D01*
X116849799Y-80656002D01*
X116845000Y-80631876D01*
X116845000Y-80001481D01*
X117401482Y-79445000D01*
X117834430Y-79445000D01*
X117826474Y-79485000D01*
X117826474Y-79715000D01*
X117840444Y-79785232D01*
X117870398Y-79830060D01*
X117860000Y-79855163D01*
X117860000Y-79905000D01*
X117897500Y-79942500D01*
X118225000Y-79942500D01*
X118225000Y-79898526D01*
X118425000Y-79898526D01*
X118425000Y-79942500D01*
X118752500Y-79942500D01*
X118790000Y-79905000D01*
X118790000Y-79855163D01*
X118779602Y-79830060D01*
X118809556Y-79785232D01*
X118823526Y-79715000D01*
X118823526Y-79485000D01*
X118809556Y-79414768D01*
X118799688Y-79400000D01*
X118809556Y-79385232D01*
X118823526Y-79315000D01*
X118823526Y-79085000D01*
X118809556Y-79014768D01*
X118769772Y-78955228D01*
X118710232Y-78915444D01*
X118640000Y-78901474D01*
X118010000Y-78901474D01*
X117939768Y-78915444D01*
X117880569Y-78955000D01*
X117324124Y-78955000D01*
X117299999Y-78950201D01*
X117275874Y-78955000D01*
X117204406Y-78969216D01*
X117123365Y-79023365D01*
X117109697Y-79043821D01*
X116443824Y-79709695D01*
X116423365Y-79723365D01*
X116382635Y-79784324D01*
X116369216Y-79804407D01*
X116350201Y-79900000D01*
X116355000Y-79924126D01*
X116355001Y-80554519D01*
X116173526Y-80735994D01*
X116173526Y-80685000D01*
X116159556Y-80614768D01*
X116129602Y-80569940D01*
X116140000Y-80544837D01*
X116140000Y-80495000D01*
X116102500Y-80457500D01*
X115775000Y-80457500D01*
X115775000Y-80501474D01*
X115575000Y-80501474D01*
X115575000Y-80457500D01*
X115247500Y-80457500D01*
X115210000Y-80495000D01*
X115210000Y-80544837D01*
X115220398Y-80569940D01*
X115190444Y-80614768D01*
X115176474Y-80685000D01*
X115176474Y-80865001D01*
X114778881Y-80865001D01*
X114205000Y-80291121D01*
X114205000Y-78794124D01*
X114209799Y-78769999D01*
X114204081Y-78741255D01*
X114190784Y-78674406D01*
X114136635Y-78593365D01*
X114116179Y-78579697D01*
X112880305Y-77343824D01*
X112866635Y-77323365D01*
X112785594Y-77269216D01*
X112714126Y-77255000D01*
X112690000Y-77250201D01*
X112665874Y-77255000D01*
X111668066Y-77255000D01*
X111656925Y-77228102D01*
X111643823Y-77215000D01*
X113143519Y-77215000D01*
X114711498Y-78782980D01*
X114711501Y-78782982D01*
X115176474Y-79247956D01*
X115176474Y-79315000D01*
X115190444Y-79385232D01*
X115200312Y-79400000D01*
X115190444Y-79414768D01*
X115176474Y-79485000D01*
X115176474Y-79715000D01*
X115190444Y-79785232D01*
X115200312Y-79800000D01*
X115190444Y-79814768D01*
X115176474Y-79885000D01*
X115176474Y-80115000D01*
X115190444Y-80185232D01*
X115220398Y-80230060D01*
X115210000Y-80255163D01*
X115210000Y-80305000D01*
X115247500Y-80342500D01*
X115575000Y-80342500D01*
X115575000Y-80298526D01*
X115775000Y-80298526D01*
X115775000Y-80342500D01*
X116102500Y-80342500D01*
X116140000Y-80305000D01*
X116140000Y-80255163D01*
X116129602Y-80230060D01*
X116159556Y-80185232D01*
X116173526Y-80115000D01*
X116173526Y-79885000D01*
X116159556Y-79814768D01*
X116149688Y-79800000D01*
X116159556Y-79785232D01*
X116173526Y-79715000D01*
X116173526Y-79485000D01*
X116159556Y-79414768D01*
X116149688Y-79400000D01*
X116159556Y-79385232D01*
X116173526Y-79315000D01*
X116173526Y-79085000D01*
X116159556Y-79014768D01*
X116119772Y-78955228D01*
X116060232Y-78915444D01*
X115990000Y-78901474D01*
X115522956Y-78901474D01*
X115057982Y-78436501D01*
X115057980Y-78436498D01*
X113435305Y-76813824D01*
X113421635Y-76793365D01*
X113340594Y-76739216D01*
X113269126Y-76725000D01*
X113245000Y-76720201D01*
X113220874Y-76725000D01*
X110764126Y-76725000D01*
X110740000Y-76720201D01*
X110715874Y-76725000D01*
X110644406Y-76739216D01*
X110563365Y-76793365D01*
X110549697Y-76813821D01*
X110343518Y-77020000D01*
X110154522Y-77020000D01*
X109978102Y-77093075D01*
X109843075Y-77228102D01*
X109770000Y-77404522D01*
X109730000Y-77404522D01*
X109656925Y-77228102D01*
X109521898Y-77093075D01*
X109345478Y-77020000D01*
X109154522Y-77020000D01*
X108978102Y-77093075D01*
X108843075Y-77228102D01*
X108770000Y-77404522D01*
X108770000Y-77595478D01*
X108784071Y-77629448D01*
X108558519Y-77855000D01*
X104635525Y-77855000D01*
X104869941Y-77698368D01*
X105031437Y-77456673D01*
X105088147Y-77171573D01*
X105031437Y-76886473D01*
X104869941Y-76644778D01*
X104628246Y-76483282D01*
X104343146Y-76426572D01*
X104058046Y-76483282D01*
X103816351Y-76644778D01*
X103654855Y-76886473D01*
X103598145Y-77171573D01*
X103654855Y-77456673D01*
X103816351Y-77698368D01*
X104050767Y-77855000D01*
X103577304Y-77855000D01*
X103553179Y-77850201D01*
X103529055Y-77855000D01*
X103529054Y-77855000D01*
X103457586Y-77869216D01*
X103376545Y-77923365D01*
X103362877Y-77943821D01*
X102843362Y-78463337D01*
X102822906Y-78477005D01*
X102794702Y-78519216D01*
X102768756Y-78558047D01*
X102749741Y-78653640D01*
X100653410Y-78653640D01*
X100872104Y-77554192D01*
X101269438Y-76383680D01*
X101816156Y-75275048D01*
X102278503Y-74583096D01*
X102306977Y-74601482D01*
X102863089Y-74739621D01*
X103433964Y-74690178D01*
X103958045Y-74458484D01*
X104082816Y-74343146D01*
X112083426Y-74343146D01*
X112140136Y-74628246D01*
X112301632Y-74869941D01*
X112543327Y-75031437D01*
X112828427Y-75088147D01*
X113113527Y-75031437D01*
X113355222Y-74869941D01*
X113516718Y-74628246D01*
X113573428Y-74343146D01*
X113516718Y-74058046D01*
X113355222Y-73816351D01*
X113113527Y-73654855D01*
X112828427Y-73598145D01*
X112543327Y-73654855D01*
X112301632Y-73816351D01*
X112140136Y-74058046D01*
X112083426Y-74343146D01*
X104082816Y-74343146D01*
X104378820Y-74069523D01*
X104650919Y-73565236D01*
X104745000Y-73000000D01*
X104744785Y-72972591D01*
X104641837Y-72408902D01*
X104572700Y-72285449D01*
X105275048Y-71816156D01*
X106383680Y-71269438D01*
X107554192Y-70872104D01*
X108766540Y-70630953D01*
X110000000Y-70550107D01*
X111233460Y-70630953D01*
X111233460Y-70630953D01*
G37*
X111233460Y-70630953D02*
X112445808Y-70872104D01*
X113616320Y-71269438D01*
X114724952Y-71816156D01*
X115424441Y-72283539D01*
X115276484Y-72727022D01*
X115280984Y-73300016D01*
X115470845Y-73840660D01*
X115825593Y-74290656D01*
X116306977Y-74601482D01*
X116863089Y-74739621D01*
X117433964Y-74690178D01*
X117711163Y-74567630D01*
X118183844Y-75275048D01*
X118730562Y-76383680D01*
X119127896Y-77554192D01*
X119369047Y-78766540D01*
X119444892Y-79923700D01*
X119396282Y-79923700D01*
X119219862Y-79996775D01*
X119146637Y-80070000D01*
X118765000Y-80070000D01*
X118752500Y-80057500D01*
X118425000Y-80057500D01*
X118425000Y-80070000D01*
X118292498Y-80070000D01*
X118225000Y-80083426D01*
X118225000Y-80057500D01*
X117897500Y-80057500D01*
X117860000Y-80095000D01*
X117860000Y-80144837D01*
X117870398Y-80169940D01*
X117840444Y-80214768D01*
X117826474Y-80285000D01*
X117826474Y-80515000D01*
X117840444Y-80585232D01*
X117870398Y-80630060D01*
X117860000Y-80655163D01*
X117860000Y-80705000D01*
X117897500Y-80742500D01*
X118225000Y-80742500D01*
X118225000Y-80716574D01*
X118292498Y-80730000D01*
X118425000Y-80730000D01*
X118425000Y-80742500D01*
X118752500Y-80742500D01*
X118765000Y-80730000D01*
X119139237Y-80730000D01*
X119219862Y-80810625D01*
X119392086Y-80881962D01*
X119369047Y-81233460D01*
X119127896Y-82445808D01*
X118730562Y-83616320D01*
X118183844Y-84724952D01*
X117711430Y-85431970D01*
X117407362Y-85303214D01*
X116835781Y-85262744D01*
X116281907Y-85409601D01*
X115805465Y-85727950D01*
X115457829Y-86183462D01*
X115276484Y-86727022D01*
X115280984Y-87300016D01*
X115426699Y-87714952D01*
X114724952Y-88183844D01*
X113616320Y-88730562D01*
X112445808Y-89127896D01*
X111233460Y-89369047D01*
X110000000Y-89449893D01*
X108766540Y-89369047D01*
X107554192Y-89127896D01*
X106383680Y-88730562D01*
X105275048Y-88183844D01*
X104570975Y-87713398D01*
X104650919Y-87565236D01*
X104745000Y-87000000D01*
X104744785Y-86972591D01*
X104641837Y-86408902D01*
X104361851Y-85908952D01*
X104080390Y-85656854D01*
X106426572Y-85656854D01*
X106483282Y-85941954D01*
X106644778Y-86183649D01*
X106886473Y-86345145D01*
X107171573Y-86401855D01*
X107456673Y-86345145D01*
X107698368Y-86183649D01*
X107859864Y-85941954D01*
X107916574Y-85656854D01*
X107859864Y-85371754D01*
X107698368Y-85130059D01*
X107456673Y-84968563D01*
X107171573Y-84911853D01*
X106886473Y-84968563D01*
X106644778Y-85130059D01*
X106483282Y-85371754D01*
X106426572Y-85656854D01*
X104080390Y-85656854D01*
X103935018Y-85526648D01*
X103407362Y-85303214D01*
X102835781Y-85262744D01*
X102281907Y-85409601D01*
X102276180Y-85413428D01*
X101816156Y-84724952D01*
X101269438Y-83616320D01*
X100872104Y-82445808D01*
X100726809Y-81715359D01*
X102957648Y-83946199D01*
X102971316Y-83966655D01*
X103051859Y-84020471D01*
X103052357Y-84020804D01*
X103147951Y-84039819D01*
X103172077Y-84035020D01*
X111511275Y-84035020D01*
X111535401Y-84039819D01*
X111559526Y-84035020D01*
X111559527Y-84035020D01*
X111630995Y-84020804D01*
X111712036Y-83966655D01*
X111725705Y-83946198D01*
X111878012Y-83793889D01*
X112843474Y-82828427D01*
X114911853Y-82828427D01*
X114968563Y-83113527D01*
X115130059Y-83355222D01*
X115371754Y-83516718D01*
X115656854Y-83573428D01*
X115941954Y-83516718D01*
X116183649Y-83355222D01*
X116345145Y-83113527D01*
X116401855Y-82828427D01*
X116345145Y-82543327D01*
X116183649Y-82301632D01*
X115941954Y-82140136D01*
X115656854Y-82083426D01*
X115371754Y-82140136D01*
X115130059Y-82301632D01*
X114968563Y-82543327D01*
X114911853Y-82828427D01*
X112843474Y-82828427D01*
X113411194Y-82260707D01*
X113431647Y-82247041D01*
X113466023Y-82195593D01*
X113485796Y-82166001D01*
X113504811Y-82070407D01*
X113500012Y-82046281D01*
X113500010Y-79489142D01*
X113504810Y-79465011D01*
X113485795Y-79369417D01*
X113445312Y-79308829D01*
X113445309Y-79308826D01*
X113431645Y-79288376D01*
X113411195Y-79274712D01*
X112980000Y-78843518D01*
X112980000Y-78654522D01*
X112906925Y-78478102D01*
X112771898Y-78343075D01*
X112595478Y-78270000D01*
X112404522Y-78270000D01*
X112228102Y-78343075D01*
X112093075Y-78478102D01*
X112020000Y-78654522D01*
X112020000Y-78845478D01*
X112093075Y-79021898D01*
X112228102Y-79156925D01*
X112404522Y-79230000D01*
X112595478Y-79230000D01*
X112650661Y-79207143D01*
X113010011Y-79566494D01*
X113010011Y-79873530D01*
X112980000Y-79843518D01*
X112980000Y-79654522D01*
X112906925Y-79478102D01*
X112771898Y-79343075D01*
X112595478Y-79270000D01*
X112404522Y-79270000D01*
X112228102Y-79343075D01*
X112093075Y-79478102D01*
X112020000Y-79654522D01*
X112020000Y-79845478D01*
X112093075Y-80021898D01*
X112228102Y-80156925D01*
X112404522Y-80230000D01*
X112595478Y-80230000D01*
X112650661Y-80207143D01*
X112750002Y-80306484D01*
X112750002Y-80334005D01*
X112595478Y-80270000D01*
X112404522Y-80270000D01*
X112228102Y-80343075D01*
X112093075Y-80478102D01*
X112020000Y-80654522D01*
X112020000Y-80845478D01*
X112093075Y-81021898D01*
X112228102Y-81156925D01*
X112245001Y-81163925D01*
X112245000Y-81998518D01*
X111730000Y-82513519D01*
X111730000Y-82404522D01*
X111656925Y-82228102D01*
X111521898Y-82093075D01*
X111345478Y-82020000D01*
X111154522Y-82020000D01*
X110978102Y-82093075D01*
X110843075Y-82228102D01*
X110770000Y-82404522D01*
X110770000Y-82595478D01*
X110781142Y-82622377D01*
X110653518Y-82750001D01*
X109665995Y-82750001D01*
X109730000Y-82595478D01*
X109730000Y-82404522D01*
X109656925Y-82228102D01*
X109521898Y-82093075D01*
X109345478Y-82020000D01*
X109154522Y-82020000D01*
X108978102Y-82093075D01*
X108843075Y-82228102D01*
X108836076Y-82245000D01*
X104148462Y-82245000D01*
X102614620Y-80711159D01*
X102614620Y-79473746D01*
X102619419Y-79449620D01*
X102600404Y-79354026D01*
X102593087Y-79343075D01*
X102546255Y-79272985D01*
X102525799Y-79259317D01*
X102310305Y-79043824D01*
X102296635Y-79023365D01*
X102215594Y-78969216D01*
X102144126Y-78955000D01*
X102120000Y-78950201D01*
X102114027Y-78951389D01*
X102060232Y-78915444D01*
X101990000Y-78901474D01*
X101360000Y-78901474D01*
X101289768Y-78915444D01*
X101230228Y-78955228D01*
X101190444Y-79014768D01*
X101176474Y-79085000D01*
X101176474Y-79315000D01*
X101185247Y-79359103D01*
X101134406Y-79369216D01*
X101053365Y-79423365D01*
X101039699Y-79443818D01*
X100554778Y-79928741D01*
X100630953Y-78766540D01*
X100653410Y-78653640D01*
X102749741Y-78653640D01*
X102754541Y-78677771D01*
X102754540Y-79895414D01*
X102749741Y-79919540D01*
X102754540Y-79943665D01*
X102768756Y-80015133D01*
X102822905Y-80096175D01*
X102843364Y-80109845D01*
X103689697Y-80956179D01*
X103703365Y-80976635D01*
X103784406Y-81030784D01*
X103855874Y-81045000D01*
X103879999Y-81049799D01*
X103885973Y-81048611D01*
X103939768Y-81084556D01*
X104010000Y-81098526D01*
X104640000Y-81098526D01*
X104710232Y-81084556D01*
X104769772Y-81044772D01*
X104809556Y-80985232D01*
X104823526Y-80915000D01*
X104823526Y-80685000D01*
X104809556Y-80614768D01*
X104799688Y-80600000D01*
X104809556Y-80585232D01*
X104823526Y-80515000D01*
X104823526Y-80285000D01*
X104809556Y-80214768D01*
X104799688Y-80200000D01*
X104809556Y-80185232D01*
X104823526Y-80115000D01*
X104823526Y-79885000D01*
X104809556Y-79814768D01*
X104799688Y-79800000D01*
X104809556Y-79785232D01*
X104823526Y-79715000D01*
X104823526Y-79485000D01*
X104809556Y-79414768D01*
X104779602Y-79369940D01*
X104790000Y-79344837D01*
X104790000Y-79295000D01*
X104752500Y-79257500D01*
X104425000Y-79257500D01*
X104425000Y-79301474D01*
X104225000Y-79301474D01*
X104225000Y-79257500D01*
X104205000Y-79257500D01*
X104205000Y-79142500D01*
X104225000Y-79142500D01*
X104225000Y-79134999D01*
X104425000Y-79134999D01*
X104425000Y-79142500D01*
X104752500Y-79142500D01*
X104760001Y-79134999D01*
X105201978Y-79134999D01*
X106983157Y-80916179D01*
X106996825Y-80936635D01*
X107069557Y-80985232D01*
X107077866Y-80990784D01*
X107080396Y-80991287D01*
X107093075Y-81021898D01*
X107228102Y-81156925D01*
X107404522Y-81230000D01*
X107595478Y-81230000D01*
X107771898Y-81156925D01*
X107906925Y-81021898D01*
X107980000Y-80845478D01*
X107980000Y-80654522D01*
X107906925Y-80478102D01*
X107771898Y-80343075D01*
X107595478Y-80270000D01*
X107404522Y-80270000D01*
X107228102Y-80343075D01*
X107165559Y-80405618D01*
X106754942Y-79995000D01*
X107081934Y-79995000D01*
X107093075Y-80021898D01*
X107228102Y-80156925D01*
X107404522Y-80230000D01*
X107595478Y-80230000D01*
X107771898Y-80156925D01*
X107906925Y-80021898D01*
X107980000Y-79845478D01*
X107980000Y-79654522D01*
X107906925Y-79478102D01*
X107771898Y-79343075D01*
X107595478Y-79270000D01*
X107404522Y-79270000D01*
X107228102Y-79343075D01*
X107093075Y-79478102D01*
X107081934Y-79505000D01*
X106632650Y-79505000D01*
X106122649Y-78995000D01*
X107081934Y-78995000D01*
X107093075Y-79021898D01*
X107228102Y-79156925D01*
X107404522Y-79230000D01*
X107595478Y-79230000D01*
X107771898Y-79156925D01*
X107906925Y-79021898D01*
X107980000Y-78845478D01*
X107980000Y-78654522D01*
X107906925Y-78478102D01*
X107773823Y-78345000D01*
X108635874Y-78345000D01*
X108660000Y-78349799D01*
X108684126Y-78345000D01*
X108755594Y-78330784D01*
X108836635Y-78276635D01*
X108850305Y-78256176D01*
X109134694Y-77971787D01*
X109154522Y-77980000D01*
X109345478Y-77980000D01*
X109521898Y-77906925D01*
X109656925Y-77771898D01*
X109730000Y-77595478D01*
X109730000Y-77404522D01*
X109770000Y-77404522D01*
X109770000Y-77595478D01*
X109843075Y-77771898D01*
X109978102Y-77906925D01*
X110154522Y-77980000D01*
X110345478Y-77980000D01*
X110521898Y-77906925D01*
X110656925Y-77771898D01*
X110730000Y-77595478D01*
X110730000Y-77404522D01*
X110707143Y-77349339D01*
X110841482Y-77215000D01*
X110856177Y-77215000D01*
X110843075Y-77228102D01*
X110770000Y-77404522D01*
X110770000Y-77595478D01*
X110843075Y-77771898D01*
X110978102Y-77906925D01*
X111154522Y-77980000D01*
X111345478Y-77980000D01*
X111521898Y-77906925D01*
X111656925Y-77771898D01*
X111668066Y-77745000D01*
X112588519Y-77745000D01*
X113715001Y-78871483D01*
X113715000Y-80368476D01*
X113710201Y-80392602D01*
X113722781Y-80455845D01*
X113729216Y-80488195D01*
X113783365Y-80569237D01*
X113803824Y-80582907D01*
X114487096Y-81266180D01*
X114500764Y-81286636D01*
X114581805Y-81340785D01*
X114653273Y-81355001D01*
X114677398Y-81359800D01*
X114701523Y-81355001D01*
X116121875Y-81355001D01*
X116146001Y-81359800D01*
X116170127Y-81355001D01*
X116241595Y-81340785D01*
X116322636Y-81286636D01*
X116336306Y-81266177D01*
X116707483Y-80895000D01*
X117860000Y-80895000D01*
X117860000Y-80944837D01*
X117882836Y-80999968D01*
X117925032Y-81042164D01*
X117980163Y-81065000D01*
X118187500Y-81065000D01*
X118225000Y-81027500D01*
X118225000Y-80857500D01*
X118425000Y-80857500D01*
X118425000Y-81027500D01*
X118462500Y-81065000D01*
X118669837Y-81065000D01*
X118724968Y-81042164D01*
X118767164Y-80999968D01*
X118790000Y-80944837D01*
X118790000Y-80895000D01*
X118752500Y-80857500D01*
X118425000Y-80857500D01*
X118225000Y-80857500D01*
X117897500Y-80857500D01*
X117860000Y-80895000D01*
X116707483Y-80895000D01*
X116756181Y-80846303D01*
X116776635Y-80832637D01*
X116830784Y-80751596D01*
X116845000Y-80680128D01*
X116849799Y-80656002D01*
X116845000Y-80631876D01*
X116845000Y-80001481D01*
X117401482Y-79445000D01*
X117834430Y-79445000D01*
X117826474Y-79485000D01*
X117826474Y-79715000D01*
X117840444Y-79785232D01*
X117870398Y-79830060D01*
X117860000Y-79855163D01*
X117860000Y-79905000D01*
X117897500Y-79942500D01*
X118225000Y-79942500D01*
X118225000Y-79898526D01*
X118425000Y-79898526D01*
X118425000Y-79942500D01*
X118752500Y-79942500D01*
X118790000Y-79905000D01*
X118790000Y-79855163D01*
X118779602Y-79830060D01*
X118809556Y-79785232D01*
X118823526Y-79715000D01*
X118823526Y-79485000D01*
X118809556Y-79414768D01*
X118799688Y-79400000D01*
X118809556Y-79385232D01*
X118823526Y-79315000D01*
X118823526Y-79085000D01*
X118809556Y-79014768D01*
X118769772Y-78955228D01*
X118710232Y-78915444D01*
X118640000Y-78901474D01*
X118010000Y-78901474D01*
X117939768Y-78915444D01*
X117880569Y-78955000D01*
X117324124Y-78955000D01*
X117299999Y-78950201D01*
X117275874Y-78955000D01*
X117204406Y-78969216D01*
X117123365Y-79023365D01*
X117109697Y-79043821D01*
X116443824Y-79709695D01*
X116423365Y-79723365D01*
X116382635Y-79784324D01*
X116369216Y-79804407D01*
X116350201Y-79900000D01*
X116355000Y-79924126D01*
X116355001Y-80554519D01*
X116173526Y-80735994D01*
X116173526Y-80685000D01*
X116159556Y-80614768D01*
X116129602Y-80569940D01*
X116140000Y-80544837D01*
X116140000Y-80495000D01*
X116102500Y-80457500D01*
X115775000Y-80457500D01*
X115775000Y-80501474D01*
X115575000Y-80501474D01*
X115575000Y-80457500D01*
X115247500Y-80457500D01*
X115210000Y-80495000D01*
X115210000Y-80544837D01*
X115220398Y-80569940D01*
X115190444Y-80614768D01*
X115176474Y-80685000D01*
X115176474Y-80865001D01*
X114778881Y-80865001D01*
X114205000Y-80291121D01*
X114205000Y-78794124D01*
X114209799Y-78769999D01*
X114204081Y-78741255D01*
X114190784Y-78674406D01*
X114136635Y-78593365D01*
X114116179Y-78579697D01*
X112880305Y-77343824D01*
X112866635Y-77323365D01*
X112785594Y-77269216D01*
X112714126Y-77255000D01*
X112690000Y-77250201D01*
X112665874Y-77255000D01*
X111668066Y-77255000D01*
X111656925Y-77228102D01*
X111643823Y-77215000D01*
X113143519Y-77215000D01*
X114711498Y-78782980D01*
X114711501Y-78782982D01*
X115176474Y-79247956D01*
X115176474Y-79315000D01*
X115190444Y-79385232D01*
X115200312Y-79400000D01*
X115190444Y-79414768D01*
X115176474Y-79485000D01*
X115176474Y-79715000D01*
X115190444Y-79785232D01*
X115200312Y-79800000D01*
X115190444Y-79814768D01*
X115176474Y-79885000D01*
X115176474Y-80115000D01*
X115190444Y-80185232D01*
X115220398Y-80230060D01*
X115210000Y-80255163D01*
X115210000Y-80305000D01*
X115247500Y-80342500D01*
X115575000Y-80342500D01*
X115575000Y-80298526D01*
X115775000Y-80298526D01*
X115775000Y-80342500D01*
X116102500Y-80342500D01*
X116140000Y-80305000D01*
X116140000Y-80255163D01*
X116129602Y-80230060D01*
X116159556Y-80185232D01*
X116173526Y-80115000D01*
X116173526Y-79885000D01*
X116159556Y-79814768D01*
X116149688Y-79800000D01*
X116159556Y-79785232D01*
X116173526Y-79715000D01*
X116173526Y-79485000D01*
X116159556Y-79414768D01*
X116149688Y-79400000D01*
X116159556Y-79385232D01*
X116173526Y-79315000D01*
X116173526Y-79085000D01*
X116159556Y-79014768D01*
X116119772Y-78955228D01*
X116060232Y-78915444D01*
X115990000Y-78901474D01*
X115522956Y-78901474D01*
X115057982Y-78436501D01*
X115057980Y-78436498D01*
X113435305Y-76813824D01*
X113421635Y-76793365D01*
X113340594Y-76739216D01*
X113269126Y-76725000D01*
X113245000Y-76720201D01*
X113220874Y-76725000D01*
X110764126Y-76725000D01*
X110740000Y-76720201D01*
X110715874Y-76725000D01*
X110644406Y-76739216D01*
X110563365Y-76793365D01*
X110549697Y-76813821D01*
X110343518Y-77020000D01*
X110154522Y-77020000D01*
X109978102Y-77093075D01*
X109843075Y-77228102D01*
X109770000Y-77404522D01*
X109730000Y-77404522D01*
X109656925Y-77228102D01*
X109521898Y-77093075D01*
X109345478Y-77020000D01*
X109154522Y-77020000D01*
X108978102Y-77093075D01*
X108843075Y-77228102D01*
X108770000Y-77404522D01*
X108770000Y-77595478D01*
X108784071Y-77629448D01*
X108558519Y-77855000D01*
X104635525Y-77855000D01*
X104869941Y-77698368D01*
X105031437Y-77456673D01*
X105088147Y-77171573D01*
X105031437Y-76886473D01*
X104869941Y-76644778D01*
X104628246Y-76483282D01*
X104343146Y-76426572D01*
X104058046Y-76483282D01*
X103816351Y-76644778D01*
X103654855Y-76886473D01*
X103598145Y-77171573D01*
X103654855Y-77456673D01*
X103816351Y-77698368D01*
X104050767Y-77855000D01*
X103577304Y-77855000D01*
X103553179Y-77850201D01*
X103529055Y-77855000D01*
X103529054Y-77855000D01*
X103457586Y-77869216D01*
X103376545Y-77923365D01*
X103362877Y-77943821D01*
X102843362Y-78463337D01*
X102822906Y-78477005D01*
X102794702Y-78519216D01*
X102768756Y-78558047D01*
X102749741Y-78653640D01*
X100653410Y-78653640D01*
X100872104Y-77554192D01*
X101269438Y-76383680D01*
X101816156Y-75275048D01*
X102278503Y-74583096D01*
X102306977Y-74601482D01*
X102863089Y-74739621D01*
X103433964Y-74690178D01*
X103958045Y-74458484D01*
X104082816Y-74343146D01*
X112083426Y-74343146D01*
X112140136Y-74628246D01*
X112301632Y-74869941D01*
X112543327Y-75031437D01*
X112828427Y-75088147D01*
X113113527Y-75031437D01*
X113355222Y-74869941D01*
X113516718Y-74628246D01*
X113573428Y-74343146D01*
X113516718Y-74058046D01*
X113355222Y-73816351D01*
X113113527Y-73654855D01*
X112828427Y-73598145D01*
X112543327Y-73654855D01*
X112301632Y-73816351D01*
X112140136Y-74058046D01*
X112083426Y-74343146D01*
X104082816Y-74343146D01*
X104378820Y-74069523D01*
X104650919Y-73565236D01*
X104745000Y-73000000D01*
X104744785Y-72972591D01*
X104641837Y-72408902D01*
X104572700Y-72285449D01*
X105275048Y-71816156D01*
X106383680Y-71269438D01*
X107554192Y-70872104D01*
X108766540Y-70630953D01*
X110000000Y-70550107D01*
X111233460Y-70630953D01*
G04 #@! TD*
M02*
