M48
;DRILL file {KiCad 5.0.2-bee76a0~70~ubuntu18.04.1} date Mo 27 Mai 2019 20:40:20 CEST
;FORMAT={-:-/ absolute / inch / decimal}
FMAT,2
INCH,TZ
T1C0.0079
%
G90
G05
T1
X3.9665Y-3.1496
X3.9679Y-3.1179
X3.9679Y-3.1813
X3.9721Y-3.0864
X3.9721Y-3.2128
X3.9789Y-3.0554
X3.9789Y-3.2439
X3.9885Y-3.0251
X3.9885Y-3.2742
X4.0007Y-2.9957
X4.0007Y-3.3035
X4.0088Y-3.2141
X4.0153Y-2.9675
X4.0153Y-3.3317
X4.0293Y-3.1859
X4.03Y-3.1647
X4.03Y-3.2141
X4.0307Y-3.1436
X4.0324Y-2.9407
X4.0324Y-3.3585
X4.0517Y-2.9155
X4.0517Y-3.3837
X4.0582Y-3.2303
X4.0583Y-3.1859
X4.0732Y-2.8921
X4.0732Y-3.4071
X4.0791Y-3.2372
X4.0966Y-2.8706
X4.0966Y-3.4286
X4.1218Y-2.8513
X4.1218Y-3.4479
X4.1398Y-3.1312
X4.1402Y-3.1594
X4.1486Y-2.8342
X4.1486Y-3.465
X4.1768Y-2.8196
X4.1768Y-3.4797
X4.2062Y-2.8074
X4.2062Y-3.4918
X4.2323Y-3.1811
X4.2365Y-2.7978
X4.2365Y-3.5014
X4.2388Y-3.1023
X4.2542Y-3.0801
X4.2675Y-2.791
X4.2675Y-3.5082
X4.2748Y-3.0627
X4.299Y-2.7868
X4.299Y-3.5124
X4.2992Y-3.0512
X4.3001Y-3.2483
X4.3258Y-3.0464
X4.3266Y-3.2529
X4.3307Y-2.7854
X4.3307Y-3.5138
X4.3526Y-3.0486
X4.3535Y-3.2504
X4.3624Y-2.7868
X4.3624Y-3.5124
X4.378Y-3.0577
X4.3788Y-3.2411
X4.3939Y-2.791
X4.3939Y-3.5082
X4.4002Y-3.0731
X4.4009Y-3.2255
X4.4176Y-3.0937
X4.4181Y-3.2048
X4.425Y-2.7978
X4.425Y-3.5014
X4.4294Y-3.1803
X4.434Y-3.1537
X4.4553Y-2.8074
X4.4553Y-3.4918
X4.4846Y-2.8196
X4.4846Y-3.4797
X4.5128Y-2.8342
X4.5128Y-3.465
X4.5283Y-3.126
X4.5396Y-2.8513
X4.5396Y-3.4479
X4.5648Y-2.8706
X4.5648Y-3.4286
X4.5882Y-2.8921
X4.5882Y-3.4071
X4.5933Y-3.1224
X4.6097Y-2.9155
X4.6097Y-3.3837
X4.626Y-3.1496
X4.626Y-3.1693
X4.629Y-2.9407
X4.629Y-3.3585
X4.6358Y-3.189
X4.6461Y-2.9675
X4.6461Y-3.3317
X4.6555Y-3.1988
X4.6608Y-2.9957
X4.6608Y-3.3035
X4.6729Y-3.0251
X4.6729Y-3.2742
X4.6825Y-3.0554
X4.6825Y-3.2439
X4.685Y-3.1398
X4.685Y-3.189
X4.6893Y-3.0864
X4.6893Y-3.2128
X4.6935Y-3.1179
X4.7043Y-3.1654
X4.7343Y-2.4606
X4.7356Y-2.4289
X4.7356Y-2.4924
X4.7398Y-2.3974
X4.7398Y-2.5239
X4.7467Y-2.3664
X4.7467Y-2.5549
X4.7562Y-2.3361
X4.7562Y-2.5852
X4.7684Y-2.3067
X4.7684Y-2.6145
X4.7766Y-2.5251
X4.783Y-2.2785
X4.783Y-2.6427
X4.797Y-2.4969
X4.7977Y-2.4758
X4.7977Y-2.5251
X4.7984Y-2.4546
X4.8001Y-2.2517
X4.8001Y-2.6695
X4.8195Y-2.2265
X4.8195Y-2.6947
X4.8259Y-2.5413
X4.826Y-2.4969
X4.8409Y-2.2031
X4.8409Y-2.7181
X4.8468Y-2.5483
X4.8643Y-2.1817
X4.8643Y-2.7396
X4.8895Y-2.1623
X4.8895Y-2.7589
X4.9075Y-2.4422
X4.9079Y-2.4704
X4.9163Y-2.1452
X4.9163Y-2.776
X4.9445Y-2.1306
X4.9445Y-2.7907
X4.9739Y-2.1184
X4.9739Y-2.8028
X5.Y-2.4921
X5.0042Y-2.1089
X5.0042Y-2.8124
X5.0066Y-2.4133
X5.0219Y-2.3911
X5.0352Y-2.102
X5.0352Y-2.8193
X5.0425Y-2.3737
X5.0667Y-2.0978
X5.0667Y-2.8234
X5.0669Y-2.3622
X5.0678Y-2.5593
X5.0935Y-2.3574
X5.0944Y-2.5639
X5.0984Y-2.0965
X5.0984Y-2.8248
X5.1204Y-2.3596
X5.1212Y-2.5614
X5.1302Y-2.0978
X5.1302Y-2.8234
X5.1458Y-2.3688
X5.1465Y-2.5521
X5.1617Y-2.102
X5.1617Y-2.8193
X5.1679Y-2.3841
X5.1686Y-2.5365
X5.1853Y-2.4047
X5.1858Y-2.5158
X5.1927Y-2.1089
X5.1927Y-2.8124
X5.1971Y-2.4913
X5.2017Y-2.4647
X5.223Y-2.1184
X5.223Y-2.8028
X5.2523Y-2.1306
X5.2523Y-2.7907
X5.2805Y-2.1452
X5.2805Y-2.776
X5.2961Y-2.437
X5.3073Y-2.1623
X5.3073Y-2.7589
X5.3325Y-2.1817
X5.3325Y-2.7396
X5.3559Y-2.2031
X5.3559Y-2.7181
X5.361Y-2.4335
X5.3774Y-2.2265
X5.3774Y-2.6947
X5.3937Y-2.4606
X5.3937Y-2.4803
X5.3967Y-2.2517
X5.3967Y-2.6695
X5.4035Y-2.5
X5.4138Y-2.2785
X5.4138Y-2.6427
X5.4232Y-2.5098
X5.4285Y-2.3067
X5.4285Y-2.6145
X5.4406Y-2.3361
X5.4406Y-2.5852
X5.4502Y-2.3664
X5.4502Y-2.5549
X5.4528Y-2.4508
X5.4528Y-2.5
X5.4571Y-2.3974
X5.4571Y-2.5239
X5.4612Y-2.4289
X5.472Y-2.4764
T0
M30
