G04 #@! TF.GenerationSoftware,KiCad,Pcbnew,5.0.2-bee76a0~70~ubuntu18.04.1*
G04 #@! TF.CreationDate,2019-06-05T01:10:18+02:00*
G04 #@! TF.ProjectId,mainboard,6d61696e-626f-4617-9264-2e6b69636164,rev?*
G04 #@! TF.SameCoordinates,Original*
G04 #@! TF.FileFunction,Copper,L2,Inr*
G04 #@! TF.FilePolarity,Positive*
%FSLAX46Y46*%
G04 Gerber Fmt 4.6, Leading zero omitted, Abs format (unit mm)*
G04 Created by KiCad (PCBNEW 5.0.2-bee76a0~70~ubuntu18.04.1) date Mi 05 Jun 2019 01:10:18 CEST*
%MOMM*%
%LPD*%
G01*
G04 APERTURE LIST*
G04 #@! TA.AperFunction,ViaPad*
%ADD10C,0.500000*%
G04 #@! TD*
G04 #@! TA.AperFunction,ViaPad*
%ADD11C,0.450000*%
G04 #@! TD*
G04 #@! TA.AperFunction,Conductor*
%ADD12C,0.500000*%
G04 #@! TD*
G04 #@! TA.AperFunction,Conductor*
%ADD13C,0.100000*%
G04 #@! TD*
G04 #@! TA.AperFunction,Conductor*
%ADD14C,0.150000*%
G04 #@! TD*
G04 APERTURE END LIST*
D10*
G04 #@! TO.N,GNDD*
G04 #@! TO.C,U1*
X-2350000Y-4550000D03*
X-2350000Y-5600000D03*
X-2350000Y-6650000D03*
X-3400000Y-4550000D03*
X-3400000Y-5600000D03*
X-3400000Y-6650000D03*
X-4450000Y-4550000D03*
X-4450000Y-5600000D03*
X-4450000Y-6650000D03*
G04 #@! TD*
D11*
G04 #@! TO.N,REFFET2_D2*
X7420467Y8662907D03*
G04 #@! TO.N,REFFET2_D1*
X8330000Y8500000D03*
G04 #@! TO.N,ISFET2_D2*
X5123642Y6687003D03*
X11732040Y1572420D03*
G04 #@! TO.N,COIL*
X10068340Y-5321140D03*
G04 #@! TO.N,ISFET2_D3*
X4601010Y6559331D03*
X10736360Y3688240D03*
G04 #@! TO.N,ISFET2_D4*
X4459580Y6022940D03*
X10182640Y5953920D03*
G04 #@! TO.N,REFFET2_D4*
X4828320Y10274460D03*
G04 #@! TO.N,REFFET2_D3*
X5722400Y10269380D03*
G04 #@! TO.N,+BATT*
X8880000Y-7060000D03*
G04 #@! TO.N,VCC*
X441740Y6685440D03*
X4000000Y-4500000D03*
X3500000Y-4500000D03*
X-5438118Y6341577D03*
X235674Y9586314D03*
X-2766133Y10195573D03*
G04 #@! TO.N,GNDD*
X1191409Y11981292D03*
X-6788754Y9944025D03*
X-9131136Y7848132D03*
X-11264680Y4251800D03*
X-12039538Y142637D03*
X-12006156Y-907221D03*
X-11881399Y-1950174D03*
X-11362250Y-3983730D03*
X-11666218Y-2978285D03*
X-10971808Y-4958856D03*
X-10497864Y-5896242D03*
X-9944025Y-6788754D03*
X-9314506Y-7629600D03*
X-8614098Y-8412380D03*
X-7848132Y-9131136D03*
X-7022437Y-9780399D03*
X-6143297Y-10355227D03*
X-4251800Y-11264680D03*
X3983730Y-11362250D03*
X4958856Y-10971808D03*
X5896242Y-10497864D03*
X6788754Y-9944025D03*
X7629600Y-9314506D03*
X9131136Y-7848132D03*
X8412380Y-8614098D03*
X-7629600Y9314506D03*
X-8412380Y8614098D03*
X-10355227Y6143297D03*
X-9780399Y7022437D03*
X-5896242Y10497864D03*
X-4958856Y10971808D03*
X3253839Y11592383D03*
X2231114Y11831861D03*
X11831861Y-2231114D03*
X12006156Y907221D03*
X11666218Y2978285D03*
X4251800Y11264680D03*
X-381220Y-10373200D03*
X-2037300Y-9141300D03*
X1200000Y4500000D03*
X5200000Y4100000D03*
X6200000Y4100000D03*
X6200000Y3400000D03*
X5200000Y3400000D03*
X9684800Y-1831180D03*
X5887500Y-1470500D03*
X3217960Y-8879680D03*
X-5999629Y3503596D03*
X-6141940Y2034700D03*
X-7912320Y4330860D03*
X-7881840Y5552600D03*
X6200000Y4850000D03*
X-4059140Y-8315800D03*
X-1440400Y-7660480D03*
X990380Y-6088220D03*
X2194340Y-6083140D03*
X2201960Y-8679020D03*
X-10500000Y100000D03*
X-7676100Y-63340D03*
X-7665940Y-556100D03*
X-7686260Y-1061560D03*
X-8181560Y-1282540D03*
X-8463500Y-1754980D03*
X-8453340Y-2288380D03*
X-7914860Y-2303620D03*
X-7632920Y-4117180D03*
X-7132540Y-4373720D03*
X-7137620Y-3891120D03*
X-6037800Y-3987640D03*
X-5905720Y-2824320D03*
X-7683720Y-5552280D03*
X-8328880Y-5570060D03*
X-7869140Y-7906860D03*
X-8641300Y-7226140D03*
X-9009600Y-6509860D03*
X-9715720Y-5570060D03*
X-9106120Y-3957160D03*
X-11194000Y-2242660D03*
X-11041600Y-2725260D03*
X-10871420Y-3182460D03*
X-10665680Y-3637120D03*
X-10205940Y-4582000D03*
X-9962100Y-5041740D03*
X-10447240Y-4107020D03*
X-7114760Y-8633300D03*
X-6553420Y-9016840D03*
X-5522180Y-7365840D03*
X-3111720Y-10624660D03*
X-3782280Y-10454480D03*
X-424400Y-8254840D03*
X2295940Y-10441780D03*
X5768120Y-7320120D03*
X5958620Y-9174320D03*
X6941600Y-6354920D03*
X6390420Y-4762340D03*
X-142460Y-3085940D03*
X802420Y-3118960D03*
X5369340Y-4185760D03*
X-6248073Y-342193D03*
X-3391120Y2047400D03*
X-4198528Y5696547D03*
X903810Y9187800D03*
X-11475097Y-1858277D03*
X-10879250Y-1368900D03*
X-10879250Y-660240D03*
X-9004520Y261780D03*
X-8714960Y-1234280D03*
X-734280Y2657000D03*
X-6820120Y8412640D03*
X-434560Y11044080D03*
X-4204067Y3622347D03*
X-2696725Y2967320D03*
X-6040340Y8552340D03*
X8840000Y-5570000D03*
X3297194Y6627953D03*
X2490000Y4510000D03*
X2500000Y5190000D03*
X7100000Y9673010D03*
X11200000Y4460000D03*
X6750000Y750000D03*
X7500000Y-250000D03*
X11158000Y-4536280D03*
X-2250000Y-11500000D03*
X-3250000Y-11500000D03*
X-1250000Y-11500000D03*
X-250000Y-11500000D03*
X750000Y-11500000D03*
X1750000Y-11500000D03*
X2750000Y-11500000D03*
G04 #@! TO.N,ISFET2_SHNT*
X2351820Y9360060D03*
X1490760Y11105040D03*
G04 #@! TO.N,ADC_IN7*
X3964720Y2006760D03*
X-677540Y8242992D03*
G04 #@! TO.N,+5VA*
X9037100Y-1026000D03*
X4439700Y2728120D03*
X6238020Y7216300D03*
X4741960Y-9512140D03*
X4190780Y-10210640D03*
X-6417318Y3842685D03*
X-7404320Y3175160D03*
X-3068540Y2527460D03*
X1229464Y6320000D03*
G04 #@! TO.N,REFFET2_D*
X8630000Y7380000D03*
X4515295Y8429595D03*
G04 #@! TO.N,ADC_IN6*
X7898297Y2047370D03*
X-1232656Y8205508D03*
G04 #@! TO.N,TAG_EN*
X210988Y5313840D03*
X8203980Y-4655660D03*
G04 #@! TO.N,ISFET1_S*
X3647220Y3833020D03*
X7387570Y5592208D03*
X8940974Y1354335D03*
G04 #@! TO.N,ISFET2_S*
X1764651Y6835416D03*
X3650000Y9310000D03*
X9623798Y6649562D03*
G04 #@! TO.N,ISFET1_SHNT*
X8762780Y3157380D03*
X9624050Y4440080D03*
G04 #@! TO.N,ADC_IN3*
X2552480Y8394860D03*
X-2624626Y9197878D03*
G04 #@! TO.N,REFFET1_D*
X10220000Y550000D03*
X6382550Y-957450D03*
G04 #@! TO.N,ADC_IN0*
X7218460Y6814980D03*
X-3320391Y8932115D03*
G04 #@! TO.N,ADC_IN2*
X11119900Y1359060D03*
X-2364024Y8727194D03*
G04 #@! TO.N,Net-(C27-Pad2)*
X3667132Y4370653D03*
X8435120Y2082960D03*
X6859122Y5491266D03*
G04 #@! TO.N,ANT_SW*
X-9347420Y736760D03*
X-5034956Y7017752D03*
G04 #@! TO.N,Net-(C16-Pad1)*
X1640620Y-8745060D03*
X-4343620Y-8907620D03*
G04 #@! TO.N,RF_BUSY*
X-746041Y5048408D03*
X-2420840Y-2981800D03*
G04 #@! TO.N,RF_RST*
X-1303359Y5032434D03*
X-2958851Y-2981431D03*
G04 #@! TO.N,RF_MISO*
X-3642582Y-2885280D03*
X-3479341Y4065134D03*
G04 #@! TO.N,RF_MOSI*
X-4412200Y-2961480D03*
X-4120434Y5164233D03*
G04 #@! TO.N,RF_SCK*
X-5105620Y-3665060D03*
X-3826432Y4476211D03*
G04 #@! TO.N,RF_CS*
X-3066580Y4436073D03*
X-2964806Y-2443452D03*
G04 #@! TO.N,AFE_EN*
X-354485Y5424137D03*
X4589560Y-7477600D03*
G04 #@! TO.N,SWCLK*
X-2531952Y4496322D03*
X-1851880Y10853580D03*
G04 #@! TO.N,SWDIO*
X144560Y10622440D03*
X-2316414Y3347872D03*
G04 #@! TO.N,DAC_OUT1*
X8389252Y6050292D03*
X535550Y3227570D03*
X-1556799Y8634912D03*
G04 #@! TO.N,DAC_OUT2*
X-8283160Y7109620D03*
X-1909615Y9041085D03*
G04 #@! TO.N,ELEC2*
X-7831040Y1600360D03*
G04 #@! TO.N,ELEC_SNS1*
X-9438617Y2887920D03*
X-7861520Y2527460D03*
X-4970998Y-1287620D03*
G04 #@! TO.N,Net-(R3-Pad2)*
X1339673Y7689673D03*
X553494Y3765473D03*
G04 #@! TO.N,Net-(R16-Pad2)*
X6928900Y2890680D03*
X6126260Y5451000D03*
G04 #@! TO.N,O2_ELEC2*
X-9393140Y2159160D03*
G04 #@! TO.N,ADC_IN12*
X3502440Y11016140D03*
X-3698973Y8549842D03*
G04 #@! TO.N,MUX4IN0*
X-9283411Y4593311D03*
X-4902420Y6291740D03*
G04 #@! TO.N,MUX4IN1*
X-8501600Y4419760D03*
X-4858648Y5755522D03*
G04 #@! TO.N,MUX3IN1*
X-3935339Y1889020D03*
X-1922209Y3722209D03*
G04 #@! TO.N,MUX3IN0*
X-4616814Y2353620D03*
X-4080798Y7491822D03*
G04 #@! TO.N,MUX3EN*
X-762487Y5776596D03*
X-4661340Y1788320D03*
G04 #@! TO.N,MUX2IN0*
X-68505Y7586143D03*
X4919760Y8074820D03*
G04 #@! TO.N,MUX2IN1*
X-169630Y7057721D03*
X5476020Y8107840D03*
G04 #@! TO.N,MUX1IN1*
X212037Y5868800D03*
X10222795Y-1828349D03*
G04 #@! TO.N,MUX1IN0*
X-43568Y6342709D03*
X10109851Y-565186D03*
G04 #@! TD*
D12*
G04 #@! TO.N,VCC*
X4000000Y-4500000D02*
X202335Y-4500000D01*
X-1900000Y4600000D02*
X-1900000Y5400000D01*
X-1359208Y-2938457D02*
X-1359208Y4059208D01*
X202335Y-4500000D02*
X-1359208Y-2938457D01*
X-1359208Y4059208D02*
X-1900000Y4600000D01*
D13*
G04 #@! TO.N,ISFET2_S*
X1764651Y6835416D02*
X1764651Y8144273D01*
X3640000Y9300000D02*
X3650000Y9310000D01*
X2920378Y9300000D02*
X3640000Y9300000D01*
X1764651Y8144273D02*
X2920378Y9300000D01*
G04 #@! TO.N,SWCLK*
X-2531952Y4496322D02*
X-2531952Y4178124D01*
X-5801118Y5849669D02*
X-5801118Y7673962D01*
X-5801118Y7673962D02*
X-2857771Y10617309D01*
X-2531952Y4178124D02*
X-3007943Y3702133D01*
X-2085611Y10617309D02*
X-1867120Y10835800D01*
X-3653582Y3702133D02*
X-5801118Y5849669D01*
X-3007943Y3702133D02*
X-3653582Y3702133D01*
X-2857771Y10617309D02*
X-2085611Y10617309D01*
G04 #@! TO.N,SWDIO*
X149640Y10622440D02*
X152180Y10624980D01*
X-1084800Y10622440D02*
X149640Y10622440D01*
X-1684240Y11221880D02*
X-1084800Y10622440D01*
X-2428460Y10805320D02*
X-2011900Y11221880D01*
X-2939000Y10805320D02*
X-2428460Y10805320D01*
X-5989129Y7755191D02*
X-2939000Y10805320D01*
X-5989129Y5757929D02*
X-5989129Y7755191D01*
X-3941300Y3347872D02*
X-4029826Y3259346D01*
X-4387166Y3259346D02*
X-4567068Y3439248D01*
X-2316414Y3347872D02*
X-3941300Y3347872D01*
X-4567068Y3439248D02*
X-4567068Y4335868D01*
X-4567068Y4335868D02*
X-5989129Y5757929D01*
X-2011900Y11221880D02*
X-1689320Y11221880D01*
X-4029826Y3259346D02*
X-4387166Y3259346D01*
G04 #@! TD*
D14*
G04 #@! TO.N,VCC*
G36*
X-1298406Y10447137D02*
X-1283064Y10424176D01*
X-1241227Y10396222D01*
X-1192101Y10363397D01*
X-1192100Y10363397D01*
X-1192099Y10363396D01*
X-1111882Y10347440D01*
X-1084801Y10342053D01*
X-1057720Y10347440D01*
X-338234Y10347440D01*
X577100Y9497487D01*
X522318Y9442705D01*
X453810Y9277311D01*
X453810Y9098289D01*
X522318Y8932895D01*
X648905Y8806308D01*
X814299Y8737800D01*
X825000Y8737800D01*
X825000Y6519445D01*
X779464Y6409511D01*
X779464Y6230489D01*
X825000Y6120555D01*
X825000Y4831066D01*
X-231066Y3775000D01*
X-1368934Y3775000D01*
X-1519270Y3925336D01*
X-1540717Y3977114D01*
X-1667304Y4103701D01*
X-1719082Y4125148D01*
X-2081952Y4488018D01*
X-2081952Y4585833D01*
X-2150460Y4751227D01*
X-2277047Y4877814D01*
X-2442441Y4946322D01*
X-2540256Y4946322D01*
X-2546967Y4953033D01*
X-2571299Y4969291D01*
X-2600000Y4975000D01*
X-3711740Y4975000D01*
X-3670434Y5074722D01*
X-3670434Y5253744D01*
X-3738942Y5419138D01*
X-3800754Y5480950D01*
X-3748528Y5607036D01*
X-3748528Y5786058D01*
X-3817036Y5951452D01*
X-3943623Y6078039D01*
X-4109017Y6146547D01*
X-4288039Y6146547D01*
X-4453433Y6078039D01*
X-4499101Y6032372D01*
X-4515842Y6049113D01*
X-4452420Y6202229D01*
X-4452420Y6381251D01*
X-4520928Y6546645D01*
X-4647515Y6673232D01*
X-4715089Y6701222D01*
X-4653464Y6762847D01*
X-4584956Y6928241D01*
X-4584956Y7107263D01*
X-4653464Y7272657D01*
X-4780051Y7399244D01*
X-4945445Y7467752D01*
X-5124467Y7467752D01*
X-5289861Y7399244D01*
X-5416448Y7272657D01*
X-5484956Y7107263D01*
X-5484956Y6928241D01*
X-5416448Y6762847D01*
X-5289861Y6636260D01*
X-5222287Y6608270D01*
X-5283912Y6546645D01*
X-5352420Y6381251D01*
X-5352420Y6202229D01*
X-5283912Y6036835D01*
X-5245226Y5998149D01*
X-5288239Y5894305D01*
X-5526118Y6132184D01*
X-5526118Y7560054D01*
X-5504839Y7581333D01*
X-4530798Y7581333D01*
X-4530798Y7402311D01*
X-4462290Y7236917D01*
X-4335703Y7110330D01*
X-4170309Y7041822D01*
X-3991287Y7041822D01*
X-3825893Y7110330D01*
X-3699306Y7236917D01*
X-3630798Y7402311D01*
X-3630798Y7581333D01*
X-3699306Y7746727D01*
X-3825893Y7873314D01*
X-3991287Y7941822D01*
X-4170309Y7941822D01*
X-4335703Y7873314D01*
X-4462290Y7746727D01*
X-4530798Y7581333D01*
X-5504839Y7581333D01*
X-4446819Y8639353D01*
X-4148973Y8639353D01*
X-4148973Y8460331D01*
X-4080465Y8294937D01*
X-3953878Y8168350D01*
X-3788484Y8099842D01*
X-3609462Y8099842D01*
X-3444068Y8168350D01*
X-3317481Y8294937D01*
X-3248973Y8460331D01*
X-3248973Y8482115D01*
X-3230880Y8482115D01*
X-3065486Y8550623D01*
X-2938899Y8677210D01*
X-2880747Y8817602D01*
X-2879531Y8816386D01*
X-2814024Y8789252D01*
X-2814024Y8637683D01*
X-2745516Y8472289D01*
X-2618929Y8345702D01*
X-2453535Y8277194D01*
X-2274513Y8277194D01*
X-2109119Y8345702D01*
X-1982532Y8472289D01*
X-1979524Y8479552D01*
X-1938291Y8380007D01*
X-1811704Y8253420D01*
X-1682656Y8199967D01*
X-1682656Y8115997D01*
X-1614148Y7950603D01*
X-1487561Y7824016D01*
X-1322167Y7755508D01*
X-1143145Y7755508D01*
X-977751Y7824016D01*
X-936356Y7865411D01*
X-932445Y7861500D01*
X-767051Y7792992D01*
X-588029Y7792992D01*
X-434431Y7856614D01*
X-449997Y7841048D01*
X-518505Y7675654D01*
X-518505Y7496632D01*
X-474164Y7389584D01*
X-551122Y7312626D01*
X-619630Y7147232D01*
X-619630Y6968210D01*
X-551122Y6802816D01*
X-424535Y6676229D01*
X-369317Y6653357D01*
X-425060Y6597614D01*
X-493568Y6432220D01*
X-493568Y6253198D01*
X-425060Y6087804D01*
X-298473Y5961217D01*
X-237963Y5936153D01*
X-237963Y5862949D01*
X-264974Y5874137D01*
X-315813Y5874137D01*
X-380995Y6031501D01*
X-507582Y6158088D01*
X-672976Y6226596D01*
X-851998Y6226596D01*
X-1017392Y6158088D01*
X-1143979Y6031501D01*
X-1212487Y5866107D01*
X-1212487Y5687085D01*
X-1143979Y5521691D01*
X-1026567Y5404279D01*
X-1032687Y5398159D01*
X-1048454Y5413926D01*
X-1213848Y5482434D01*
X-1392870Y5482434D01*
X-1558264Y5413926D01*
X-1684851Y5287339D01*
X-1753359Y5121945D01*
X-1753359Y4942923D01*
X-1684851Y4777529D01*
X-1558264Y4650942D01*
X-1392870Y4582434D01*
X-1213848Y4582434D01*
X-1048454Y4650942D01*
X-1016713Y4682683D01*
X-1000946Y4666916D01*
X-835552Y4598408D01*
X-656530Y4598408D01*
X-491136Y4666916D01*
X-364549Y4793503D01*
X-296041Y4958897D01*
X-296041Y4974137D01*
X-264974Y4974137D01*
X-138212Y5026643D01*
X-43917Y4932348D01*
X121477Y4863840D01*
X300499Y4863840D01*
X465893Y4932348D01*
X592480Y5058935D01*
X660988Y5224329D01*
X660988Y5403351D01*
X592480Y5568745D01*
X570430Y5590796D01*
X593529Y5613895D01*
X662037Y5779289D01*
X662037Y5958311D01*
X593529Y6123705D01*
X466942Y6250292D01*
X406432Y6275356D01*
X406432Y6432220D01*
X337924Y6597614D01*
X211337Y6724201D01*
X156119Y6747073D01*
X211862Y6802816D01*
X280370Y6968210D01*
X280370Y7147232D01*
X236029Y7254280D01*
X312987Y7331238D01*
X381495Y7496632D01*
X381495Y7675654D01*
X312987Y7841048D01*
X186400Y7967635D01*
X21006Y8036143D01*
X-158016Y8036143D01*
X-311614Y7972521D01*
X-296048Y7988087D01*
X-227540Y8153481D01*
X-227540Y8332503D01*
X-296048Y8497897D01*
X-422635Y8624484D01*
X-588029Y8692992D01*
X-767051Y8692992D01*
X-932445Y8624484D01*
X-973840Y8583089D01*
X-977751Y8587000D01*
X-1106799Y8640453D01*
X-1106799Y8724423D01*
X-1175307Y8889817D01*
X-1301894Y9016404D01*
X-1459615Y9081734D01*
X-1459615Y9130596D01*
X-1528123Y9295990D01*
X-1654710Y9422577D01*
X-1820104Y9491085D01*
X-1999126Y9491085D01*
X-2164520Y9422577D01*
X-2211262Y9375835D01*
X-2243134Y9452783D01*
X-2369721Y9579370D01*
X-2535115Y9647878D01*
X-2714137Y9647878D01*
X-2879531Y9579370D01*
X-3006118Y9452783D01*
X-3064270Y9312391D01*
X-3065486Y9313607D01*
X-3230880Y9382115D01*
X-3409902Y9382115D01*
X-3575296Y9313607D01*
X-3701883Y9187020D01*
X-3770391Y9021626D01*
X-3770391Y8999842D01*
X-3788484Y8999842D01*
X-3953878Y8931334D01*
X-4080465Y8804747D01*
X-4148973Y8639353D01*
X-4446819Y8639353D01*
X-2743862Y10342309D01*
X-2112692Y10342309D01*
X-2085611Y10336922D01*
X-2058530Y10342309D01*
X-2058529Y10342309D01*
X-1978312Y10358265D01*
X-1910492Y10403580D01*
X-1762369Y10403580D01*
X-1596975Y10472088D01*
X-1544063Y10525000D01*
X-1376269Y10525000D01*
X-1298406Y10447137D01*
X-1298406Y10447137D01*
G37*
X-1298406Y10447137D02*
X-1283064Y10424176D01*
X-1241227Y10396222D01*
X-1192101Y10363397D01*
X-1192100Y10363397D01*
X-1192099Y10363396D01*
X-1111882Y10347440D01*
X-1084801Y10342053D01*
X-1057720Y10347440D01*
X-338234Y10347440D01*
X577100Y9497487D01*
X522318Y9442705D01*
X453810Y9277311D01*
X453810Y9098289D01*
X522318Y8932895D01*
X648905Y8806308D01*
X814299Y8737800D01*
X825000Y8737800D01*
X825000Y6519445D01*
X779464Y6409511D01*
X779464Y6230489D01*
X825000Y6120555D01*
X825000Y4831066D01*
X-231066Y3775000D01*
X-1368934Y3775000D01*
X-1519270Y3925336D01*
X-1540717Y3977114D01*
X-1667304Y4103701D01*
X-1719082Y4125148D01*
X-2081952Y4488018D01*
X-2081952Y4585833D01*
X-2150460Y4751227D01*
X-2277047Y4877814D01*
X-2442441Y4946322D01*
X-2540256Y4946322D01*
X-2546967Y4953033D01*
X-2571299Y4969291D01*
X-2600000Y4975000D01*
X-3711740Y4975000D01*
X-3670434Y5074722D01*
X-3670434Y5253744D01*
X-3738942Y5419138D01*
X-3800754Y5480950D01*
X-3748528Y5607036D01*
X-3748528Y5786058D01*
X-3817036Y5951452D01*
X-3943623Y6078039D01*
X-4109017Y6146547D01*
X-4288039Y6146547D01*
X-4453433Y6078039D01*
X-4499101Y6032372D01*
X-4515842Y6049113D01*
X-4452420Y6202229D01*
X-4452420Y6381251D01*
X-4520928Y6546645D01*
X-4647515Y6673232D01*
X-4715089Y6701222D01*
X-4653464Y6762847D01*
X-4584956Y6928241D01*
X-4584956Y7107263D01*
X-4653464Y7272657D01*
X-4780051Y7399244D01*
X-4945445Y7467752D01*
X-5124467Y7467752D01*
X-5289861Y7399244D01*
X-5416448Y7272657D01*
X-5484956Y7107263D01*
X-5484956Y6928241D01*
X-5416448Y6762847D01*
X-5289861Y6636260D01*
X-5222287Y6608270D01*
X-5283912Y6546645D01*
X-5352420Y6381251D01*
X-5352420Y6202229D01*
X-5283912Y6036835D01*
X-5245226Y5998149D01*
X-5288239Y5894305D01*
X-5526118Y6132184D01*
X-5526118Y7560054D01*
X-5504839Y7581333D01*
X-4530798Y7581333D01*
X-4530798Y7402311D01*
X-4462290Y7236917D01*
X-4335703Y7110330D01*
X-4170309Y7041822D01*
X-3991287Y7041822D01*
X-3825893Y7110330D01*
X-3699306Y7236917D01*
X-3630798Y7402311D01*
X-3630798Y7581333D01*
X-3699306Y7746727D01*
X-3825893Y7873314D01*
X-3991287Y7941822D01*
X-4170309Y7941822D01*
X-4335703Y7873314D01*
X-4462290Y7746727D01*
X-4530798Y7581333D01*
X-5504839Y7581333D01*
X-4446819Y8639353D01*
X-4148973Y8639353D01*
X-4148973Y8460331D01*
X-4080465Y8294937D01*
X-3953878Y8168350D01*
X-3788484Y8099842D01*
X-3609462Y8099842D01*
X-3444068Y8168350D01*
X-3317481Y8294937D01*
X-3248973Y8460331D01*
X-3248973Y8482115D01*
X-3230880Y8482115D01*
X-3065486Y8550623D01*
X-2938899Y8677210D01*
X-2880747Y8817602D01*
X-2879531Y8816386D01*
X-2814024Y8789252D01*
X-2814024Y8637683D01*
X-2745516Y8472289D01*
X-2618929Y8345702D01*
X-2453535Y8277194D01*
X-2274513Y8277194D01*
X-2109119Y8345702D01*
X-1982532Y8472289D01*
X-1979524Y8479552D01*
X-1938291Y8380007D01*
X-1811704Y8253420D01*
X-1682656Y8199967D01*
X-1682656Y8115997D01*
X-1614148Y7950603D01*
X-1487561Y7824016D01*
X-1322167Y7755508D01*
X-1143145Y7755508D01*
X-977751Y7824016D01*
X-936356Y7865411D01*
X-932445Y7861500D01*
X-767051Y7792992D01*
X-588029Y7792992D01*
X-434431Y7856614D01*
X-449997Y7841048D01*
X-518505Y7675654D01*
X-518505Y7496632D01*
X-474164Y7389584D01*
X-551122Y7312626D01*
X-619630Y7147232D01*
X-619630Y6968210D01*
X-551122Y6802816D01*
X-424535Y6676229D01*
X-369317Y6653357D01*
X-425060Y6597614D01*
X-493568Y6432220D01*
X-493568Y6253198D01*
X-425060Y6087804D01*
X-298473Y5961217D01*
X-237963Y5936153D01*
X-237963Y5862949D01*
X-264974Y5874137D01*
X-315813Y5874137D01*
X-380995Y6031501D01*
X-507582Y6158088D01*
X-672976Y6226596D01*
X-851998Y6226596D01*
X-1017392Y6158088D01*
X-1143979Y6031501D01*
X-1212487Y5866107D01*
X-1212487Y5687085D01*
X-1143979Y5521691D01*
X-1026567Y5404279D01*
X-1032687Y5398159D01*
X-1048454Y5413926D01*
X-1213848Y5482434D01*
X-1392870Y5482434D01*
X-1558264Y5413926D01*
X-1684851Y5287339D01*
X-1753359Y5121945D01*
X-1753359Y4942923D01*
X-1684851Y4777529D01*
X-1558264Y4650942D01*
X-1392870Y4582434D01*
X-1213848Y4582434D01*
X-1048454Y4650942D01*
X-1016713Y4682683D01*
X-1000946Y4666916D01*
X-835552Y4598408D01*
X-656530Y4598408D01*
X-491136Y4666916D01*
X-364549Y4793503D01*
X-296041Y4958897D01*
X-296041Y4974137D01*
X-264974Y4974137D01*
X-138212Y5026643D01*
X-43917Y4932348D01*
X121477Y4863840D01*
X300499Y4863840D01*
X465893Y4932348D01*
X592480Y5058935D01*
X660988Y5224329D01*
X660988Y5403351D01*
X592480Y5568745D01*
X570430Y5590796D01*
X593529Y5613895D01*
X662037Y5779289D01*
X662037Y5958311D01*
X593529Y6123705D01*
X466942Y6250292D01*
X406432Y6275356D01*
X406432Y6432220D01*
X337924Y6597614D01*
X211337Y6724201D01*
X156119Y6747073D01*
X211862Y6802816D01*
X280370Y6968210D01*
X280370Y7147232D01*
X236029Y7254280D01*
X312987Y7331238D01*
X381495Y7496632D01*
X381495Y7675654D01*
X312987Y7841048D01*
X186400Y7967635D01*
X21006Y8036143D01*
X-158016Y8036143D01*
X-311614Y7972521D01*
X-296048Y7988087D01*
X-227540Y8153481D01*
X-227540Y8332503D01*
X-296048Y8497897D01*
X-422635Y8624484D01*
X-588029Y8692992D01*
X-767051Y8692992D01*
X-932445Y8624484D01*
X-973840Y8583089D01*
X-977751Y8587000D01*
X-1106799Y8640453D01*
X-1106799Y8724423D01*
X-1175307Y8889817D01*
X-1301894Y9016404D01*
X-1459615Y9081734D01*
X-1459615Y9130596D01*
X-1528123Y9295990D01*
X-1654710Y9422577D01*
X-1820104Y9491085D01*
X-1999126Y9491085D01*
X-2164520Y9422577D01*
X-2211262Y9375835D01*
X-2243134Y9452783D01*
X-2369721Y9579370D01*
X-2535115Y9647878D01*
X-2714137Y9647878D01*
X-2879531Y9579370D01*
X-3006118Y9452783D01*
X-3064270Y9312391D01*
X-3065486Y9313607D01*
X-3230880Y9382115D01*
X-3409902Y9382115D01*
X-3575296Y9313607D01*
X-3701883Y9187020D01*
X-3770391Y9021626D01*
X-3770391Y8999842D01*
X-3788484Y8999842D01*
X-3953878Y8931334D01*
X-4080465Y8804747D01*
X-4148973Y8639353D01*
X-4446819Y8639353D01*
X-2743862Y10342309D01*
X-2112692Y10342309D01*
X-2085611Y10336922D01*
X-2058530Y10342309D01*
X-2058529Y10342309D01*
X-1978312Y10358265D01*
X-1910492Y10403580D01*
X-1762369Y10403580D01*
X-1596975Y10472088D01*
X-1544063Y10525000D01*
X-1376269Y10525000D01*
X-1298406Y10447137D01*
G04 #@! TO.N,+5VA*
G36*
X780121Y12164263D02*
X741409Y12070803D01*
X741409Y11891781D01*
X809917Y11726387D01*
X936504Y11599800D01*
X1101898Y11531292D01*
X1280920Y11531292D01*
X1446314Y11599800D01*
X1572901Y11726387D01*
X1641409Y11891781D01*
X1641409Y12070803D01*
X1639087Y12076410D01*
X1836950Y12056173D01*
X1781114Y11921372D01*
X1781114Y11742350D01*
X1849622Y11576956D01*
X1976209Y11450369D01*
X2141603Y11381861D01*
X2320625Y11381861D01*
X2486019Y11450369D01*
X2612606Y11576956D01*
X2681114Y11742350D01*
X2681114Y11882199D01*
X2869848Y11841256D01*
X2803839Y11681894D01*
X2803839Y11502872D01*
X2872347Y11337478D01*
X2998934Y11210891D01*
X3081812Y11176562D01*
X3052440Y11105651D01*
X3052440Y10926629D01*
X3120948Y10761235D01*
X3247535Y10634648D01*
X3412929Y10566140D01*
X3591951Y10566140D01*
X3757345Y10634648D01*
X3883932Y10761235D01*
X3952440Y10926629D01*
X3952440Y10927643D01*
X3996895Y10883188D01*
X4162289Y10814680D01*
X4341311Y10814680D01*
X4506705Y10883188D01*
X4633292Y11009775D01*
X4701800Y11175169D01*
X4701800Y11247601D01*
X5772357Y10747486D01*
X5831818Y10711134D01*
X5811911Y10719380D01*
X5632889Y10719380D01*
X5467495Y10650872D01*
X5340908Y10524285D01*
X5276412Y10368577D01*
X5209812Y10529365D01*
X5083225Y10655952D01*
X4917831Y10724460D01*
X4738809Y10724460D01*
X4573415Y10655952D01*
X4446828Y10529365D01*
X4378320Y10363971D01*
X4378320Y10184949D01*
X4446828Y10019555D01*
X4573415Y9892968D01*
X4738809Y9824460D01*
X4917831Y9824460D01*
X5083225Y9892968D01*
X5209812Y10019555D01*
X5274308Y10175263D01*
X5340908Y10014475D01*
X5467495Y9887888D01*
X5632889Y9819380D01*
X5811911Y9819380D01*
X5977305Y9887888D01*
X6103892Y10014475D01*
X6172400Y10179869D01*
X6172400Y10358891D01*
X6103892Y10524285D01*
X6051106Y10577071D01*
X6881327Y10069510D01*
X6845095Y10054502D01*
X6718508Y9927915D01*
X6650000Y9762521D01*
X6650000Y9583499D01*
X6718508Y9418105D01*
X6845095Y9291518D01*
X7010489Y9223010D01*
X7189511Y9223010D01*
X7354905Y9291518D01*
X7481492Y9418105D01*
X7542282Y9564866D01*
X8010003Y9201545D01*
X8268313Y8950000D01*
X8240489Y8950000D01*
X8075095Y8881492D01*
X7948508Y8754905D01*
X7880000Y8589511D01*
X7880000Y8410489D01*
X7948508Y8245095D01*
X8075095Y8118508D01*
X8240489Y8050000D01*
X8419511Y8050000D01*
X8584905Y8118508D01*
X8711492Y8245095D01*
X8780000Y8410489D01*
X8780000Y8451714D01*
X8985776Y8251328D01*
X9849536Y7198278D01*
X10398568Y6351557D01*
X10272151Y6403920D01*
X10093129Y6403920D01*
X9958992Y6348359D01*
X10005290Y6394657D01*
X10073798Y6560051D01*
X10073798Y6739073D01*
X10005290Y6904467D01*
X9878703Y7031054D01*
X9713309Y7099562D01*
X9534287Y7099562D01*
X9368893Y7031054D01*
X9242306Y6904467D01*
X9173798Y6739073D01*
X9173798Y6560051D01*
X9242306Y6394657D01*
X9368893Y6268070D01*
X9534287Y6199562D01*
X9713309Y6199562D01*
X9847446Y6255123D01*
X9801148Y6208825D01*
X9732640Y6043431D01*
X9732640Y5864409D01*
X9801148Y5699015D01*
X9927735Y5572428D01*
X10093129Y5503920D01*
X10272151Y5503920D01*
X10437545Y5572428D01*
X10564132Y5699015D01*
X10632640Y5864409D01*
X10632640Y5971279D01*
X11163167Y4910000D01*
X11110489Y4910000D01*
X10945095Y4841492D01*
X10818508Y4714905D01*
X10750000Y4549511D01*
X10750000Y4370489D01*
X10818508Y4205095D01*
X10927430Y4096173D01*
X10825871Y4138240D01*
X10646849Y4138240D01*
X10481455Y4069732D01*
X10354868Y3943145D01*
X10286360Y3777751D01*
X10286360Y3598729D01*
X10354868Y3433335D01*
X10481455Y3306748D01*
X10646849Y3238240D01*
X10825871Y3238240D01*
X10991265Y3306748D01*
X11117852Y3433335D01*
X11186360Y3598729D01*
X11186360Y3777751D01*
X11117852Y3943145D01*
X11008930Y4052067D01*
X11110489Y4010000D01*
X11289511Y4010000D01*
X11454905Y4078508D01*
X11471871Y4095474D01*
X11668945Y3558693D01*
X11700880Y3428285D01*
X11576707Y3428285D01*
X11411313Y3359777D01*
X11284726Y3233190D01*
X11216218Y3067796D01*
X11216218Y2888774D01*
X11284726Y2723380D01*
X11411313Y2596793D01*
X11576707Y2528285D01*
X11755729Y2528285D01*
X11906033Y2590542D01*
X11992907Y2235791D01*
X12035603Y1905254D01*
X11986945Y1953912D01*
X11821551Y2022420D01*
X11642529Y2022420D01*
X11477135Y1953912D01*
X11350548Y1827325D01*
X11323422Y1761836D01*
X11209411Y1809060D01*
X11030389Y1809060D01*
X10864995Y1740552D01*
X10738408Y1613965D01*
X10669900Y1448571D01*
X10669900Y1269549D01*
X10738408Y1104155D01*
X10864995Y977568D01*
X11030389Y909060D01*
X11209411Y909060D01*
X11374805Y977568D01*
X11501392Y1104155D01*
X11528518Y1169644D01*
X11613242Y1134551D01*
X11556156Y996732D01*
X11556156Y817710D01*
X11624664Y652316D01*
X11751251Y525729D01*
X11916645Y457221D01*
X12095667Y457221D01*
X12174013Y489673D01*
X12190211Y-476780D01*
X12061095Y-1832634D01*
X12059870Y-1838481D01*
X11921372Y-1781114D01*
X11742350Y-1781114D01*
X11576956Y-1849622D01*
X11450369Y-1976209D01*
X11381861Y-2141603D01*
X11381861Y-2320625D01*
X11450369Y-2486019D01*
X11576956Y-2612606D01*
X11742350Y-2681114D01*
X11883223Y-2681114D01*
X11781644Y-3165664D01*
X11445074Y-4186957D01*
X11412905Y-4154788D01*
X11247511Y-4086280D01*
X11068489Y-4086280D01*
X10903095Y-4154788D01*
X10776508Y-4281375D01*
X10708000Y-4446769D01*
X10708000Y-4625791D01*
X10776508Y-4791185D01*
X10903095Y-4917772D01*
X11068489Y-4986280D01*
X11113597Y-4986280D01*
X10787519Y-5697191D01*
X10085230Y-6864161D01*
X9517678Y-7605420D01*
X9512628Y-7593227D01*
X9386041Y-7466640D01*
X9220647Y-7398132D01*
X9178265Y-7398132D01*
X9261492Y-7314905D01*
X9330000Y-7149511D01*
X9330000Y-6970489D01*
X9261492Y-6805095D01*
X9134905Y-6678508D01*
X8969511Y-6610000D01*
X8790489Y-6610000D01*
X8625095Y-6678508D01*
X8498508Y-6805095D01*
X8430000Y-6970489D01*
X8430000Y-7149511D01*
X8498508Y-7314905D01*
X8625095Y-7441492D01*
X8790489Y-7510000D01*
X8832871Y-7510000D01*
X8749644Y-7593227D01*
X8681136Y-7758621D01*
X8681136Y-7937643D01*
X8749644Y-8103037D01*
X8876231Y-8229624D01*
X8953663Y-8261697D01*
X8813811Y-8407331D01*
X8793872Y-8359193D01*
X8667285Y-8232606D01*
X8501891Y-8164098D01*
X8322869Y-8164098D01*
X8157475Y-8232606D01*
X8030888Y-8359193D01*
X7962380Y-8524587D01*
X7962380Y-8703609D01*
X8030888Y-8869003D01*
X8157475Y-8995590D01*
X8207604Y-9016354D01*
X8048135Y-9149031D01*
X8011092Y-9059601D01*
X7884505Y-8933014D01*
X7719111Y-8864506D01*
X7540089Y-8864506D01*
X7374695Y-8933014D01*
X7248108Y-9059601D01*
X7179600Y-9224995D01*
X7179600Y-9404017D01*
X7248108Y-9569411D01*
X7374695Y-9695998D01*
X7385392Y-9700429D01*
X7266860Y-9799046D01*
X7226724Y-9825471D01*
X7170246Y-9689120D01*
X7043659Y-9562533D01*
X6878265Y-9494025D01*
X6699243Y-9494025D01*
X6533849Y-9562533D01*
X6407262Y-9689120D01*
X6338754Y-9854514D01*
X6338754Y-10033536D01*
X6407262Y-10198930D01*
X6507396Y-10299064D01*
X6345204Y-10405848D01*
X6277734Y-10242959D01*
X6151147Y-10116372D01*
X5985753Y-10047864D01*
X5806731Y-10047864D01*
X5641337Y-10116372D01*
X5514750Y-10242959D01*
X5446242Y-10408353D01*
X5446242Y-10587375D01*
X5514750Y-10752769D01*
X5586219Y-10824238D01*
X5408856Y-10914453D01*
X5408856Y-10882297D01*
X5340348Y-10716903D01*
X5213761Y-10590316D01*
X5048367Y-10521808D01*
X4869345Y-10521808D01*
X4703951Y-10590316D01*
X4577364Y-10716903D01*
X4508856Y-10882297D01*
X4508856Y-11061319D01*
X4577364Y-11226713D01*
X4625027Y-11274376D01*
X4433730Y-11346129D01*
X4433730Y-11272739D01*
X4365222Y-11107345D01*
X4238635Y-10980758D01*
X4073241Y-10912250D01*
X3894219Y-10912250D01*
X3728825Y-10980758D01*
X3602238Y-11107345D01*
X3553312Y-11225464D01*
X4291468Y-9084809D01*
X5508620Y-9084809D01*
X5508620Y-9263831D01*
X5577128Y-9429225D01*
X5703715Y-9555812D01*
X5869109Y-9624320D01*
X6048131Y-9624320D01*
X6213525Y-9555812D01*
X6340112Y-9429225D01*
X6408620Y-9263831D01*
X6408620Y-9084809D01*
X6340112Y-8919415D01*
X6213525Y-8792828D01*
X6048131Y-8724320D01*
X5869109Y-8724320D01*
X5703715Y-8792828D01*
X5577128Y-8919415D01*
X5508620Y-9084809D01*
X4291468Y-9084809D01*
X4692412Y-7922074D01*
X4844465Y-7859092D01*
X4971052Y-7732505D01*
X5039560Y-7567111D01*
X5039560Y-7388089D01*
X4974331Y-7230609D01*
X5318120Y-7230609D01*
X5318120Y-7409631D01*
X5386628Y-7575025D01*
X5513215Y-7701612D01*
X5678609Y-7770120D01*
X5857631Y-7770120D01*
X6023025Y-7701612D01*
X6149612Y-7575025D01*
X6218120Y-7409631D01*
X6218120Y-7230609D01*
X6149612Y-7065215D01*
X6023025Y-6938628D01*
X5857631Y-6870120D01*
X5678609Y-6870120D01*
X5513215Y-6938628D01*
X5386628Y-7065215D01*
X5318120Y-7230609D01*
X4974331Y-7230609D01*
X4971052Y-7222695D01*
X4943186Y-7194829D01*
X5070903Y-6824449D01*
X5075000Y-6800000D01*
X5075000Y-6265409D01*
X6491600Y-6265409D01*
X6491600Y-6444431D01*
X6560108Y-6609825D01*
X6686695Y-6736412D01*
X6852089Y-6804920D01*
X7031111Y-6804920D01*
X7196505Y-6736412D01*
X7323092Y-6609825D01*
X7391600Y-6444431D01*
X7391600Y-6265409D01*
X7323092Y-6100015D01*
X7196505Y-5973428D01*
X7031111Y-5904920D01*
X6852089Y-5904920D01*
X6686695Y-5973428D01*
X6560108Y-6100015D01*
X6491600Y-6265409D01*
X5075000Y-6265409D01*
X5075000Y-5480489D01*
X8390000Y-5480489D01*
X8390000Y-5659511D01*
X8458508Y-5824905D01*
X8585095Y-5951492D01*
X8750489Y-6020000D01*
X8929511Y-6020000D01*
X9094905Y-5951492D01*
X9221492Y-5824905D01*
X9290000Y-5659511D01*
X9290000Y-5480489D01*
X9221492Y-5315095D01*
X9138026Y-5231629D01*
X9618340Y-5231629D01*
X9618340Y-5410651D01*
X9686848Y-5576045D01*
X9813435Y-5702632D01*
X9978829Y-5771140D01*
X10157851Y-5771140D01*
X10323245Y-5702632D01*
X10449832Y-5576045D01*
X10518340Y-5410651D01*
X10518340Y-5231629D01*
X10449832Y-5066235D01*
X10323245Y-4939648D01*
X10157851Y-4871140D01*
X9978829Y-4871140D01*
X9813435Y-4939648D01*
X9686848Y-5066235D01*
X9618340Y-5231629D01*
X9138026Y-5231629D01*
X9094905Y-5188508D01*
X8929511Y-5120000D01*
X8750489Y-5120000D01*
X8585095Y-5188508D01*
X8458508Y-5315095D01*
X8390000Y-5480489D01*
X5075000Y-5480489D01*
X5075000Y-4672829D01*
X5940420Y-4672829D01*
X5940420Y-4851851D01*
X6008928Y-5017245D01*
X6135515Y-5143832D01*
X6300909Y-5212340D01*
X6479931Y-5212340D01*
X6645325Y-5143832D01*
X6771912Y-5017245D01*
X6840420Y-4851851D01*
X6840420Y-4672829D01*
X6796232Y-4566149D01*
X7753980Y-4566149D01*
X7753980Y-4745171D01*
X7822488Y-4910565D01*
X7949075Y-5037152D01*
X8114469Y-5105660D01*
X8293491Y-5105660D01*
X8458885Y-5037152D01*
X8585472Y-4910565D01*
X8653980Y-4745171D01*
X8653980Y-4566149D01*
X8585472Y-4400755D01*
X8458885Y-4274168D01*
X8293491Y-4205660D01*
X8114469Y-4205660D01*
X7949075Y-4274168D01*
X7822488Y-4400755D01*
X7753980Y-4566149D01*
X6796232Y-4566149D01*
X6771912Y-4507435D01*
X6645325Y-4380848D01*
X6479931Y-4312340D01*
X6300909Y-4312340D01*
X6135515Y-4380848D01*
X6008928Y-4507435D01*
X5940420Y-4672829D01*
X5075000Y-4672829D01*
X5075000Y-4527817D01*
X5114435Y-4567252D01*
X5279829Y-4635760D01*
X5458851Y-4635760D01*
X5624245Y-4567252D01*
X5750832Y-4440665D01*
X5819340Y-4275271D01*
X5819340Y-4096249D01*
X5750832Y-3930855D01*
X5624245Y-3804268D01*
X5458851Y-3735760D01*
X5279829Y-3735760D01*
X5114435Y-3804268D01*
X5075000Y-3843703D01*
X5075000Y-1380989D01*
X5437500Y-1380989D01*
X5437500Y-1560011D01*
X5506008Y-1725405D01*
X5632595Y-1851992D01*
X5797989Y-1920500D01*
X5977011Y-1920500D01*
X6142405Y-1851992D01*
X6252728Y-1741669D01*
X9234800Y-1741669D01*
X9234800Y-1920691D01*
X9303308Y-2086085D01*
X9429895Y-2212672D01*
X9595289Y-2281180D01*
X9774311Y-2281180D01*
X9939705Y-2212672D01*
X9955213Y-2197164D01*
X9967890Y-2209841D01*
X10133284Y-2278349D01*
X10312306Y-2278349D01*
X10477700Y-2209841D01*
X10604287Y-2083254D01*
X10672795Y-1917860D01*
X10672795Y-1738838D01*
X10604287Y-1573444D01*
X10477700Y-1446857D01*
X10312306Y-1378349D01*
X10133284Y-1378349D01*
X9967890Y-1446857D01*
X9952382Y-1462365D01*
X9939705Y-1449688D01*
X9774311Y-1381180D01*
X9595289Y-1381180D01*
X9429895Y-1449688D01*
X9303308Y-1576275D01*
X9234800Y-1741669D01*
X6252728Y-1741669D01*
X6268992Y-1725405D01*
X6337500Y-1560011D01*
X6337500Y-1407450D01*
X6472061Y-1407450D01*
X6637455Y-1338942D01*
X6764042Y-1212355D01*
X6832550Y-1046961D01*
X6832550Y-867939D01*
X6764042Y-702545D01*
X6637455Y-575958D01*
X6472061Y-507450D01*
X6293039Y-507450D01*
X6127645Y-575958D01*
X6001058Y-702545D01*
X5932550Y-867939D01*
X5932550Y-1020500D01*
X5797989Y-1020500D01*
X5632595Y-1089008D01*
X5506008Y-1215595D01*
X5437500Y-1380989D01*
X5075000Y-1380989D01*
X5075000Y-160489D01*
X7050000Y-160489D01*
X7050000Y-339511D01*
X7118508Y-504905D01*
X7245095Y-631492D01*
X7410489Y-700000D01*
X7589511Y-700000D01*
X7754905Y-631492D01*
X7881492Y-504905D01*
X7893599Y-475675D01*
X9659851Y-475675D01*
X9659851Y-654697D01*
X9728359Y-820091D01*
X9854946Y-946678D01*
X10020340Y-1015186D01*
X10199362Y-1015186D01*
X10364756Y-946678D01*
X10491343Y-820091D01*
X10559851Y-654697D01*
X10559851Y-475675D01*
X10491343Y-310281D01*
X10364756Y-183694D01*
X10199362Y-115186D01*
X10020340Y-115186D01*
X9854946Y-183694D01*
X9728359Y-310281D01*
X9659851Y-475675D01*
X7893599Y-475675D01*
X7950000Y-339511D01*
X7950000Y-160489D01*
X7881492Y4905D01*
X7754905Y131492D01*
X7589511Y200000D01*
X7410489Y200000D01*
X7245095Y131492D01*
X7118508Y4905D01*
X7050000Y-160489D01*
X5075000Y-160489D01*
X5075000Y450000D01*
X5069291Y478701D01*
X5049388Y506443D01*
X4668739Y839511D01*
X6300000Y839511D01*
X6300000Y660489D01*
X6368508Y495095D01*
X6495095Y368508D01*
X6660489Y300000D01*
X6839511Y300000D01*
X7004905Y368508D01*
X7131492Y495095D01*
X7191310Y639511D01*
X9770000Y639511D01*
X9770000Y460489D01*
X9838508Y295095D01*
X9965095Y168508D01*
X10130489Y100000D01*
X10309511Y100000D01*
X10474905Y168508D01*
X10601492Y295095D01*
X10670000Y460489D01*
X10670000Y639511D01*
X10601492Y804905D01*
X10474905Y931492D01*
X10309511Y1000000D01*
X10130489Y1000000D01*
X9965095Y931492D01*
X9838508Y804905D01*
X9770000Y639511D01*
X7191310Y639511D01*
X7200000Y660489D01*
X7200000Y839511D01*
X7131492Y1004905D01*
X7004905Y1131492D01*
X6839511Y1200000D01*
X6660489Y1200000D01*
X6495095Y1131492D01*
X6368508Y1004905D01*
X6300000Y839511D01*
X4668739Y839511D01*
X3825489Y1577355D01*
X3875209Y1556760D01*
X4054231Y1556760D01*
X4219625Y1625268D01*
X4346212Y1751855D01*
X4414720Y1917249D01*
X4414720Y2096271D01*
X4397899Y2136881D01*
X7448297Y2136881D01*
X7448297Y1957859D01*
X7516805Y1792465D01*
X7643392Y1665878D01*
X7808786Y1597370D01*
X7987808Y1597370D01*
X8153202Y1665878D01*
X8186280Y1698956D01*
X8345609Y1632960D01*
X8524631Y1632960D01*
X8624617Y1674375D01*
X8559482Y1609240D01*
X8490974Y1443846D01*
X8490974Y1264824D01*
X8559482Y1099430D01*
X8686069Y972843D01*
X8851463Y904335D01*
X9030485Y904335D01*
X9195879Y972843D01*
X9322466Y1099430D01*
X9390974Y1264824D01*
X9390974Y1443846D01*
X9322466Y1609240D01*
X9195879Y1735827D01*
X9030485Y1804335D01*
X8851463Y1804335D01*
X8751477Y1762920D01*
X8816612Y1828055D01*
X8885120Y1993449D01*
X8885120Y2172471D01*
X8816612Y2337865D01*
X8690025Y2464452D01*
X8524631Y2532960D01*
X8345609Y2532960D01*
X8180215Y2464452D01*
X8147137Y2431374D01*
X7987808Y2497370D01*
X7808786Y2497370D01*
X7643392Y2428862D01*
X7516805Y2302275D01*
X7448297Y2136881D01*
X4397899Y2136881D01*
X4346212Y2261665D01*
X4219625Y2388252D01*
X4054231Y2456760D01*
X3875209Y2456760D01*
X3709815Y2388252D01*
X3583228Y2261665D01*
X3514720Y2096271D01*
X3514720Y1917249D01*
X3558879Y1810638D01*
X3049388Y2256443D01*
X3024029Y2271047D01*
X3000000Y2275000D01*
X-480601Y2275000D01*
X-479375Y2275508D01*
X-352788Y2402095D01*
X-284280Y2567489D01*
X-284280Y2746511D01*
X-352788Y2911905D01*
X-479375Y3038492D01*
X-644769Y3107000D01*
X-823791Y3107000D01*
X-884208Y3081975D01*
X-884208Y3475000D01*
X-200000Y3475000D01*
X-113896Y3492127D01*
X-40901Y3540901D01*
X103494Y3685296D01*
X103494Y3675962D01*
X172002Y3510568D01*
X177077Y3505494D01*
X154058Y3482475D01*
X85550Y3317081D01*
X85550Y3138059D01*
X154058Y2972665D01*
X280645Y2846078D01*
X446039Y2777570D01*
X625061Y2777570D01*
X790455Y2846078D01*
X917042Y2972665D01*
X985550Y3138059D01*
X985550Y3317081D01*
X917042Y3482475D01*
X911968Y3487550D01*
X934986Y3510568D01*
X1003494Y3675962D01*
X1003494Y3854984D01*
X975516Y3922531D01*
X3197220Y3922531D01*
X3197220Y3743509D01*
X3265728Y3578115D01*
X3392315Y3451528D01*
X3557709Y3383020D01*
X3736731Y3383020D01*
X3902125Y3451528D01*
X4028712Y3578115D01*
X4097220Y3743509D01*
X4097220Y3922531D01*
X4028712Y4087925D01*
X4024757Y4091881D01*
X4048624Y4115748D01*
X4079177Y4189511D01*
X4750000Y4189511D01*
X4750000Y4010489D01*
X4818508Y3845095D01*
X4913603Y3750000D01*
X4818508Y3654905D01*
X4750000Y3489511D01*
X4750000Y3310489D01*
X4818508Y3145095D01*
X4945095Y3018508D01*
X5110489Y2950000D01*
X5289511Y2950000D01*
X5454905Y3018508D01*
X5581492Y3145095D01*
X5650000Y3310489D01*
X5650000Y3489511D01*
X5581492Y3654905D01*
X5486397Y3750000D01*
X5581492Y3845095D01*
X5650000Y4010489D01*
X5650000Y4189511D01*
X5581492Y4354905D01*
X5454905Y4481492D01*
X5289511Y4550000D01*
X5110489Y4550000D01*
X4945095Y4481492D01*
X4818508Y4354905D01*
X4750000Y4189511D01*
X4079177Y4189511D01*
X4117132Y4281142D01*
X4117132Y4460164D01*
X4048624Y4625558D01*
X3922037Y4752145D01*
X3756643Y4820653D01*
X3577621Y4820653D01*
X3412227Y4752145D01*
X3285640Y4625558D01*
X3217132Y4460164D01*
X3217132Y4281142D01*
X3285640Y4115748D01*
X3289596Y4111793D01*
X3265728Y4087925D01*
X3197220Y3922531D01*
X975516Y3922531D01*
X934986Y4020378D01*
X808399Y4146965D01*
X643005Y4215473D01*
X633671Y4215473D01*
X773047Y4354849D01*
X818508Y4245095D01*
X945095Y4118508D01*
X1110489Y4050000D01*
X1289511Y4050000D01*
X1454905Y4118508D01*
X1581492Y4245095D01*
X1650000Y4410489D01*
X1650000Y4589511D01*
X1645858Y4599511D01*
X2040000Y4599511D01*
X2040000Y4420489D01*
X2108508Y4255095D01*
X2235095Y4128508D01*
X2400489Y4060000D01*
X2579511Y4060000D01*
X2744905Y4128508D01*
X2871492Y4255095D01*
X2940000Y4420489D01*
X2940000Y4599511D01*
X2871492Y4764905D01*
X2791397Y4845000D01*
X2881492Y4935095D01*
X2950000Y5100489D01*
X2950000Y5279511D01*
X2881492Y5444905D01*
X2785886Y5540511D01*
X5676260Y5540511D01*
X5676260Y5361489D01*
X5744768Y5196095D01*
X5827233Y5113630D01*
X5818508Y5104905D01*
X5750000Y4939511D01*
X5750000Y4760489D01*
X5818508Y4595095D01*
X5938603Y4475000D01*
X5818508Y4354905D01*
X5750000Y4189511D01*
X5750000Y4010489D01*
X5818508Y3845095D01*
X5913603Y3750000D01*
X5818508Y3654905D01*
X5750000Y3489511D01*
X5750000Y3310489D01*
X5818508Y3145095D01*
X5945095Y3018508D01*
X6110489Y2950000D01*
X6289511Y2950000D01*
X6454905Y3018508D01*
X6522961Y3086564D01*
X6478900Y2980191D01*
X6478900Y2801169D01*
X6547408Y2635775D01*
X6673995Y2509188D01*
X6839389Y2440680D01*
X7018411Y2440680D01*
X7183805Y2509188D01*
X7310392Y2635775D01*
X7378900Y2801169D01*
X7378900Y2980191D01*
X7310392Y3145585D01*
X7209086Y3246891D01*
X8312780Y3246891D01*
X8312780Y3067869D01*
X8381288Y2902475D01*
X8507875Y2775888D01*
X8673269Y2707380D01*
X8852291Y2707380D01*
X9017685Y2775888D01*
X9144272Y2902475D01*
X9212780Y3067869D01*
X9212780Y3246891D01*
X9144272Y3412285D01*
X9017685Y3538872D01*
X8852291Y3607380D01*
X8673269Y3607380D01*
X8507875Y3538872D01*
X8381288Y3412285D01*
X8312780Y3246891D01*
X7209086Y3246891D01*
X7183805Y3272172D01*
X7018411Y3340680D01*
X6839389Y3340680D01*
X6673995Y3272172D01*
X6605939Y3204116D01*
X6650000Y3310489D01*
X6650000Y3489511D01*
X6581492Y3654905D01*
X6486397Y3750000D01*
X6581492Y3845095D01*
X6650000Y4010489D01*
X6650000Y4189511D01*
X6581492Y4354905D01*
X6461397Y4475000D01*
X6515988Y4529591D01*
X9174050Y4529591D01*
X9174050Y4350569D01*
X9242558Y4185175D01*
X9369145Y4058588D01*
X9534539Y3990080D01*
X9713561Y3990080D01*
X9878955Y4058588D01*
X10005542Y4185175D01*
X10074050Y4350569D01*
X10074050Y4529591D01*
X10005542Y4694985D01*
X9878955Y4821572D01*
X9713561Y4890080D01*
X9534539Y4890080D01*
X9369145Y4821572D01*
X9242558Y4694985D01*
X9174050Y4529591D01*
X6515988Y4529591D01*
X6581492Y4595095D01*
X6650000Y4760489D01*
X6650000Y4939511D01*
X6581492Y5104905D01*
X6499027Y5187370D01*
X6507752Y5196095D01*
X6510723Y5203268D01*
X6604217Y5109774D01*
X6769611Y5041266D01*
X6948633Y5041266D01*
X7114027Y5109774D01*
X7190863Y5186610D01*
X7298059Y5142208D01*
X7477081Y5142208D01*
X7642475Y5210716D01*
X7769062Y5337303D01*
X7837570Y5502697D01*
X7837570Y5681719D01*
X7769062Y5847113D01*
X7642475Y5973700D01*
X7477081Y6042208D01*
X7298059Y6042208D01*
X7132665Y5973700D01*
X7055829Y5896864D01*
X6948633Y5941266D01*
X6769611Y5941266D01*
X6604217Y5872758D01*
X6477630Y5746171D01*
X6474659Y5738998D01*
X6381165Y5832492D01*
X6215771Y5901000D01*
X6036749Y5901000D01*
X5871355Y5832492D01*
X5744768Y5705905D01*
X5676260Y5540511D01*
X2785886Y5540511D01*
X2754905Y5571492D01*
X2589511Y5640000D01*
X2410489Y5640000D01*
X2245095Y5571492D01*
X2118508Y5444905D01*
X2050000Y5279511D01*
X2050000Y5100489D01*
X2118508Y4935095D01*
X2198603Y4855000D01*
X2108508Y4764905D01*
X2040000Y4599511D01*
X1645858Y4599511D01*
X1581492Y4754905D01*
X1454905Y4881492D01*
X1289511Y4950000D01*
X1125000Y4950000D01*
X1125000Y6112451D01*
X4009580Y6112451D01*
X4009580Y5933429D01*
X4078088Y5768035D01*
X4204675Y5641448D01*
X4370069Y5572940D01*
X4549091Y5572940D01*
X4714485Y5641448D01*
X4841072Y5768035D01*
X4909580Y5933429D01*
X4909580Y6112451D01*
X4898251Y6139803D01*
X7939252Y6139803D01*
X7939252Y5960781D01*
X8007760Y5795387D01*
X8134347Y5668800D01*
X8299741Y5600292D01*
X8478763Y5600292D01*
X8644157Y5668800D01*
X8770744Y5795387D01*
X8839252Y5960781D01*
X8839252Y6139803D01*
X8770744Y6305197D01*
X8644157Y6431784D01*
X8478763Y6500292D01*
X8299741Y6500292D01*
X8134347Y6431784D01*
X8007760Y6305197D01*
X7939252Y6139803D01*
X4898251Y6139803D01*
X4874710Y6196634D01*
X4949948Y6271872D01*
X5034131Y6237003D01*
X5213153Y6237003D01*
X5378547Y6305511D01*
X5505134Y6432098D01*
X5573642Y6597492D01*
X5573642Y6776514D01*
X5520633Y6904491D01*
X6768460Y6904491D01*
X6768460Y6725469D01*
X6836968Y6560075D01*
X6963555Y6433488D01*
X7128949Y6364980D01*
X7307971Y6364980D01*
X7473365Y6433488D01*
X7599952Y6560075D01*
X7668460Y6725469D01*
X7668460Y6904491D01*
X7599952Y7069885D01*
X7473365Y7196472D01*
X7307971Y7264980D01*
X7128949Y7264980D01*
X6963555Y7196472D01*
X6836968Y7069885D01*
X6768460Y6904491D01*
X5520633Y6904491D01*
X5505134Y6941908D01*
X5378547Y7068495D01*
X5213153Y7137003D01*
X5034131Y7137003D01*
X4868737Y7068495D01*
X4774704Y6974462D01*
X4690521Y7009331D01*
X4511499Y7009331D01*
X4346105Y6940823D01*
X4219518Y6814236D01*
X4151010Y6648842D01*
X4151010Y6469820D01*
X4185880Y6385637D01*
X4078088Y6277845D01*
X4009580Y6112451D01*
X1125000Y6112451D01*
X1125000Y7291516D01*
X1250162Y7239673D01*
X1429184Y7239673D01*
X1489651Y7264719D01*
X1489651Y7196813D01*
X1383159Y7090321D01*
X1314651Y6924927D01*
X1314651Y6745905D01*
X1383159Y6580511D01*
X1509746Y6453924D01*
X1675140Y6385416D01*
X1854162Y6385416D01*
X2019556Y6453924D01*
X2146143Y6580511D01*
X2202870Y6717464D01*
X2847194Y6717464D01*
X2847194Y6538442D01*
X2915702Y6373048D01*
X3042289Y6246461D01*
X3207683Y6177953D01*
X3386705Y6177953D01*
X3552099Y6246461D01*
X3678686Y6373048D01*
X3747194Y6538442D01*
X3747194Y6717464D01*
X3678686Y6882858D01*
X3552099Y7009445D01*
X3386705Y7077953D01*
X3207683Y7077953D01*
X3042289Y7009445D01*
X2915702Y6882858D01*
X2847194Y6717464D01*
X2202870Y6717464D01*
X2214651Y6745905D01*
X2214651Y6924927D01*
X2146143Y7090321D01*
X2039651Y7196813D01*
X2039651Y7469511D01*
X8180000Y7469511D01*
X8180000Y7290489D01*
X8248508Y7125095D01*
X8375095Y6998508D01*
X8540489Y6930000D01*
X8719511Y6930000D01*
X8884905Y6998508D01*
X9011492Y7125095D01*
X9080000Y7290489D01*
X9080000Y7469511D01*
X9011492Y7634905D01*
X8884905Y7761492D01*
X8719511Y7830000D01*
X8540489Y7830000D01*
X8375095Y7761492D01*
X8248508Y7634905D01*
X8180000Y7469511D01*
X2039651Y7469511D01*
X2039651Y8030365D01*
X2164619Y8155332D01*
X2170988Y8139955D01*
X2297575Y8013368D01*
X2462969Y7944860D01*
X2641991Y7944860D01*
X2807385Y8013368D01*
X2933972Y8139955D01*
X3002480Y8305349D01*
X3002480Y8484371D01*
X2988093Y8519106D01*
X4065295Y8519106D01*
X4065295Y8340084D01*
X4133803Y8174690D01*
X4260390Y8048103D01*
X4425784Y7979595D01*
X4472127Y7979595D01*
X4538268Y7819915D01*
X4664855Y7693328D01*
X4830249Y7624820D01*
X5009271Y7624820D01*
X5174665Y7693328D01*
X5214400Y7733063D01*
X5221115Y7726348D01*
X5386509Y7657840D01*
X5565531Y7657840D01*
X5730925Y7726348D01*
X5857512Y7852935D01*
X5926020Y8018329D01*
X5926020Y8197351D01*
X5857512Y8362745D01*
X5730925Y8489332D01*
X5565531Y8557840D01*
X5386509Y8557840D01*
X5221115Y8489332D01*
X5181380Y8449597D01*
X5174665Y8456312D01*
X5009271Y8524820D01*
X4962928Y8524820D01*
X4896787Y8684500D01*
X4828869Y8752418D01*
X6970467Y8752418D01*
X6970467Y8573396D01*
X7038975Y8408002D01*
X7165562Y8281415D01*
X7330956Y8212907D01*
X7509978Y8212907D01*
X7675372Y8281415D01*
X7801959Y8408002D01*
X7870467Y8573396D01*
X7870467Y8752418D01*
X7801959Y8917812D01*
X7675372Y9044399D01*
X7509978Y9112907D01*
X7330956Y9112907D01*
X7165562Y9044399D01*
X7038975Y8917812D01*
X6970467Y8752418D01*
X4828869Y8752418D01*
X4770200Y8811087D01*
X4604806Y8879595D01*
X4425784Y8879595D01*
X4260390Y8811087D01*
X4133803Y8684500D01*
X4065295Y8519106D01*
X2988093Y8519106D01*
X2933972Y8649765D01*
X2807385Y8776352D01*
X2792008Y8782721D01*
X3034287Y9025000D01*
X3298603Y9025000D01*
X3395095Y8928508D01*
X3560489Y8860000D01*
X3739511Y8860000D01*
X3904905Y8928508D01*
X4031492Y9055095D01*
X4100000Y9220489D01*
X4100000Y9399511D01*
X4031492Y9564905D01*
X3904905Y9691492D01*
X3739511Y9760000D01*
X3560489Y9760000D01*
X3395095Y9691492D01*
X3278603Y9575000D01*
X2947459Y9575000D01*
X2920378Y9580387D01*
X2893297Y9575000D01*
X2893296Y9575000D01*
X2813079Y9559044D01*
X2768745Y9529421D01*
X2733312Y9614965D01*
X2606725Y9741552D01*
X2441331Y9810060D01*
X2262309Y9810060D01*
X2096915Y9741552D01*
X1970328Y9614965D01*
X1901820Y9449571D01*
X1901820Y9270549D01*
X1970328Y9105155D01*
X2096915Y8978568D01*
X2176905Y8945435D01*
X1589348Y8357878D01*
X1566388Y8342537D01*
X1551047Y8319577D01*
X1505608Y8251572D01*
X1484264Y8144273D01*
X1489652Y8117187D01*
X1489652Y8114627D01*
X1429184Y8139673D01*
X1250162Y8139673D01*
X1125000Y8087830D01*
X1125000Y8792343D01*
X1158715Y8806308D01*
X1285302Y8932895D01*
X1353810Y9098289D01*
X1353810Y9277311D01*
X1285302Y9442705D01*
X1158715Y9569292D01*
X993321Y9637800D01*
X866878Y9637800D01*
X273517Y10188779D01*
X399465Y10240948D01*
X526052Y10367535D01*
X594560Y10532929D01*
X594560Y10711951D01*
X526052Y10877345D01*
X399465Y11003932D01*
X234071Y11072440D01*
X55049Y11072440D01*
X15440Y11056034D01*
X15440Y11133591D01*
X-9810Y11194551D01*
X1040760Y11194551D01*
X1040760Y11015529D01*
X1109268Y10850135D01*
X1235855Y10723548D01*
X1401249Y10655040D01*
X1580271Y10655040D01*
X1745665Y10723548D01*
X1872252Y10850135D01*
X1940760Y11015529D01*
X1940760Y11194551D01*
X1872252Y11359945D01*
X1745665Y11486532D01*
X1580271Y11555040D01*
X1401249Y11555040D01*
X1235855Y11486532D01*
X1109268Y11359945D01*
X1040760Y11194551D01*
X-9810Y11194551D01*
X-53068Y11298985D01*
X-179655Y11425572D01*
X-345049Y11494080D01*
X-524071Y11494080D01*
X-689465Y11425572D01*
X-816052Y11298985D01*
X-884560Y11133591D01*
X-884560Y10954569D01*
X-860897Y10897440D01*
X-970891Y10897440D01*
X-1485942Y11412490D01*
X-1491056Y11420144D01*
X-1498710Y11425258D01*
X-1508936Y11435484D01*
X-1576941Y11480923D01*
X-1684240Y11502267D01*
X-1711321Y11496880D01*
X-1984819Y11496880D01*
X-2011900Y11502267D01*
X-2038981Y11496880D01*
X-2038982Y11496880D01*
X-2119199Y11480924D01*
X-2210164Y11420144D01*
X-2225506Y11397183D01*
X-2542368Y11080320D01*
X-2911919Y11080320D01*
X-2939000Y11085707D01*
X-2966081Y11080320D01*
X-2966082Y11080320D01*
X-3046299Y11064364D01*
X-3137264Y11003584D01*
X-3152605Y10980624D01*
X-5590340Y8542888D01*
X-5590340Y8641851D01*
X-5658848Y8807245D01*
X-5785435Y8933832D01*
X-5950829Y9002340D01*
X-6129851Y9002340D01*
X-6295245Y8933832D01*
X-6421832Y8807245D01*
X-6467668Y8696585D01*
X-6565215Y8794132D01*
X-6730609Y8862640D01*
X-6909631Y8862640D01*
X-7075025Y8794132D01*
X-7201612Y8667545D01*
X-7270120Y8502151D01*
X-7270120Y8323129D01*
X-7201612Y8157735D01*
X-7075025Y8031148D01*
X-6909631Y7962640D01*
X-6730609Y7962640D01*
X-6565215Y8031148D01*
X-6438628Y8157735D01*
X-6392792Y8268395D01*
X-6295245Y8170848D01*
X-6129851Y8102340D01*
X-6030888Y8102340D01*
X-6164432Y7968796D01*
X-6187392Y7953455D01*
X-6202733Y7930495D01*
X-6248172Y7862490D01*
X-6269516Y7755191D01*
X-6264128Y7728105D01*
X-6264129Y5785010D01*
X-6269516Y5757929D01*
X-6264129Y5730848D01*
X-6248173Y5650631D01*
X-6187393Y5559665D01*
X-6164430Y5544322D01*
X-4842067Y4221958D01*
X-4842068Y3466329D01*
X-4847455Y3439248D01*
X-4842068Y3412167D01*
X-4826112Y3331950D01*
X-4765332Y3240984D01*
X-4742369Y3225641D01*
X-4600772Y3084043D01*
X-4585430Y3061082D01*
X-4494465Y3000302D01*
X-4414248Y2984346D01*
X-4414247Y2984346D01*
X-4387166Y2978959D01*
X-4360085Y2984346D01*
X-4056907Y2984346D01*
X-4029826Y2978959D01*
X-4002745Y2984346D01*
X-4002744Y2984346D01*
X-3922527Y3000302D01*
X-3831562Y3061082D01*
X-3823684Y3072872D01*
X-3140081Y3072872D01*
X-3146725Y3056831D01*
X-3146725Y2877809D01*
X-3078217Y2712415D01*
X-2951630Y2585828D01*
X-2786236Y2517320D01*
X-2607214Y2517320D01*
X-2441820Y2585828D01*
X-2315233Y2712415D01*
X-2246725Y2877809D01*
X-2246725Y2897872D01*
X-2226903Y2897872D01*
X-2061509Y2966380D01*
X-1934922Y3092967D01*
X-1866414Y3258361D01*
X-1866414Y3272209D01*
X-1834207Y3272209D01*
X-1834207Y2275000D01*
X-2998318Y2275000D01*
X-3009628Y2302305D01*
X-3136215Y2428892D01*
X-3301609Y2497400D01*
X-3480631Y2497400D01*
X-3646025Y2428892D01*
X-3768095Y2306822D01*
X-3845828Y2339020D01*
X-4024850Y2339020D01*
X-4166814Y2280217D01*
X-4166814Y2443131D01*
X-4235322Y2608525D01*
X-4361909Y2735112D01*
X-4527303Y2803620D01*
X-4706325Y2803620D01*
X-4871719Y2735112D01*
X-4998306Y2608525D01*
X-5066814Y2443131D01*
X-5066814Y2275000D01*
X-5754398Y2275000D01*
X-5760448Y2289605D01*
X-5887035Y2416192D01*
X-6052429Y2484700D01*
X-6231451Y2484700D01*
X-6396845Y2416192D01*
X-6523432Y2289605D01*
X-6529482Y2275000D01*
X-7479015Y2275000D01*
X-7411520Y2437949D01*
X-7411520Y2616971D01*
X-7480028Y2782365D01*
X-7606615Y2908952D01*
X-7772009Y2977460D01*
X-7951031Y2977460D01*
X-8116425Y2908952D01*
X-8243012Y2782365D01*
X-8311520Y2616971D01*
X-8311520Y2437949D01*
X-8244025Y2275000D01*
X-8954046Y2275000D01*
X-9011648Y2414065D01*
X-9138235Y2540652D01*
X-9146192Y2543948D01*
X-9057125Y2633015D01*
X-8988617Y2798409D01*
X-8988617Y2977431D01*
X-9057125Y3142825D01*
X-9183712Y3269412D01*
X-9349106Y3337920D01*
X-9528128Y3337920D01*
X-9693522Y3269412D01*
X-9820109Y3142825D01*
X-9888617Y2977431D01*
X-9888617Y2798409D01*
X-9820109Y2633015D01*
X-9693522Y2506428D01*
X-9685565Y2503132D01*
X-9774632Y2414065D01*
X-9832234Y2275000D01*
X-11972853Y2275000D01*
X-11736298Y3329846D01*
X-11645446Y3593107D01*
X-6449629Y3593107D01*
X-6449629Y3414085D01*
X-6381121Y3248691D01*
X-6254534Y3122104D01*
X-6089140Y3053596D01*
X-5910118Y3053596D01*
X-5744724Y3122104D01*
X-5618137Y3248691D01*
X-5549629Y3414085D01*
X-5549629Y3593107D01*
X-5618137Y3758501D01*
X-5744724Y3885088D01*
X-5910118Y3953596D01*
X-6089140Y3953596D01*
X-6254534Y3885088D01*
X-6381121Y3758501D01*
X-6449629Y3593107D01*
X-11645446Y3593107D01*
X-11542034Y3892757D01*
X-11519585Y3870308D01*
X-11354191Y3801800D01*
X-11175169Y3801800D01*
X-11009775Y3870308D01*
X-10883188Y3996895D01*
X-10814680Y4162289D01*
X-10814680Y4341311D01*
X-10883188Y4506705D01*
X-11009775Y4633292D01*
X-11129351Y4682822D01*
X-9733411Y4682822D01*
X-9733411Y4503800D01*
X-9664903Y4338406D01*
X-9538316Y4211819D01*
X-9372922Y4143311D01*
X-9193900Y4143311D01*
X-9028506Y4211819D01*
X-8939438Y4300887D01*
X-8883092Y4164855D01*
X-8756505Y4038268D01*
X-8591111Y3969760D01*
X-8412089Y3969760D01*
X-8253363Y4035506D01*
X-8167225Y3949368D01*
X-8001831Y3880860D01*
X-7822809Y3880860D01*
X-7657415Y3949368D01*
X-7530828Y4075955D01*
X-7462320Y4241349D01*
X-7462320Y4420371D01*
X-7530828Y4585765D01*
X-7657415Y4712352D01*
X-7822809Y4780860D01*
X-8001831Y4780860D01*
X-8160557Y4715114D01*
X-8246695Y4801252D01*
X-8412089Y4869760D01*
X-8591111Y4869760D01*
X-8756505Y4801252D01*
X-8845573Y4712184D01*
X-8901919Y4848216D01*
X-9028506Y4974803D01*
X-9193900Y5043311D01*
X-9372922Y5043311D01*
X-9538316Y4974803D01*
X-9664903Y4848216D01*
X-9733411Y4682822D01*
X-11129351Y4682822D01*
X-11175169Y4701800D01*
X-11251799Y4701800D01*
X-10804507Y5642111D01*
X-8331840Y5642111D01*
X-8331840Y5463089D01*
X-8263332Y5297695D01*
X-8136745Y5171108D01*
X-7971351Y5102600D01*
X-7792329Y5102600D01*
X-7626935Y5171108D01*
X-7500348Y5297695D01*
X-7431840Y5463089D01*
X-7431840Y5642111D01*
X-7500348Y5807505D01*
X-7626935Y5934092D01*
X-7792329Y6002600D01*
X-7971351Y6002600D01*
X-8136745Y5934092D01*
X-8263332Y5807505D01*
X-8331840Y5642111D01*
X-10804507Y5642111D01*
X-10706923Y5847253D01*
X-10702578Y5854251D01*
X-10610132Y5761805D01*
X-10444738Y5693297D01*
X-10265716Y5693297D01*
X-10100322Y5761805D01*
X-9973735Y5888392D01*
X-9905227Y6053786D01*
X-9905227Y6232808D01*
X-9973735Y6398202D01*
X-10100322Y6524789D01*
X-10248155Y6586023D01*
X-10145573Y6751214D01*
X-10035304Y6640945D01*
X-9869910Y6572437D01*
X-9690888Y6572437D01*
X-9525494Y6640945D01*
X-9398907Y6767532D01*
X-9330399Y6932926D01*
X-9330399Y7111948D01*
X-9366511Y7199131D01*
X-8733160Y7199131D01*
X-8733160Y7020109D01*
X-8664652Y6854715D01*
X-8538065Y6728128D01*
X-8372671Y6659620D01*
X-8193649Y6659620D01*
X-8028255Y6728128D01*
X-7901668Y6854715D01*
X-7833160Y7020109D01*
X-7833160Y7199131D01*
X-7901668Y7364525D01*
X-8028255Y7491112D01*
X-8193649Y7559620D01*
X-8372671Y7559620D01*
X-8538065Y7491112D01*
X-8664652Y7364525D01*
X-8733160Y7199131D01*
X-9366511Y7199131D01*
X-9398907Y7277342D01*
X-9525494Y7403929D01*
X-9637066Y7450143D01*
X-9516652Y7602943D01*
X-9512628Y7593227D01*
X-9386041Y7466640D01*
X-9220647Y7398132D01*
X-9041625Y7398132D01*
X-8876231Y7466640D01*
X-8749644Y7593227D01*
X-8681136Y7758621D01*
X-8681136Y7937643D01*
X-8749644Y8103037D01*
X-8876231Y8229624D01*
X-8958228Y8263588D01*
X-8814541Y8409093D01*
X-8793872Y8359193D01*
X-8667285Y8232606D01*
X-8501891Y8164098D01*
X-8322869Y8164098D01*
X-8157475Y8232606D01*
X-8030888Y8359193D01*
X-7962380Y8524587D01*
X-7962380Y8703609D01*
X-8030888Y8869003D01*
X-8157475Y8995590D01*
X-8212759Y9018489D01*
X-8188396Y9043159D01*
X-8050477Y9154686D01*
X-8011092Y9059601D01*
X-7884505Y8933014D01*
X-7719111Y8864506D01*
X-7540089Y8864506D01*
X-7374695Y8933014D01*
X-7248108Y9059601D01*
X-7179600Y9224995D01*
X-7179600Y9404017D01*
X-7248108Y9569411D01*
X-7374695Y9695998D01*
X-7378906Y9697742D01*
X-7225275Y9821973D01*
X-7170246Y9689120D01*
X-7043659Y9562533D01*
X-6878265Y9494025D01*
X-6699243Y9494025D01*
X-6533849Y9562533D01*
X-6407262Y9689120D01*
X-6338754Y9854514D01*
X-6338754Y10033536D01*
X-6407262Y10198930D01*
X-6505948Y10297616D01*
X-6343373Y10401428D01*
X-6277734Y10242959D01*
X-6151147Y10116372D01*
X-5985753Y10047864D01*
X-5806731Y10047864D01*
X-5641337Y10116372D01*
X-5514750Y10242959D01*
X-5446242Y10408353D01*
X-5446242Y10587375D01*
X-5514750Y10752769D01*
X-5587854Y10825873D01*
X-5408856Y10913796D01*
X-5408856Y10882297D01*
X-5340348Y10716903D01*
X-5213761Y10590316D01*
X-5048367Y10521808D01*
X-4869345Y10521808D01*
X-4703951Y10590316D01*
X-4577364Y10716903D01*
X-4508856Y10882297D01*
X-4508856Y11061319D01*
X-4577364Y11226713D01*
X-4630004Y11279353D01*
X-3477141Y11693505D01*
X-2152009Y12008223D01*
X-800060Y12173269D01*
X561875Y12186585D01*
X780121Y12164263D01*
X780121Y12164263D01*
G37*
X780121Y12164263D02*
X741409Y12070803D01*
X741409Y11891781D01*
X809917Y11726387D01*
X936504Y11599800D01*
X1101898Y11531292D01*
X1280920Y11531292D01*
X1446314Y11599800D01*
X1572901Y11726387D01*
X1641409Y11891781D01*
X1641409Y12070803D01*
X1639087Y12076410D01*
X1836950Y12056173D01*
X1781114Y11921372D01*
X1781114Y11742350D01*
X1849622Y11576956D01*
X1976209Y11450369D01*
X2141603Y11381861D01*
X2320625Y11381861D01*
X2486019Y11450369D01*
X2612606Y11576956D01*
X2681114Y11742350D01*
X2681114Y11882199D01*
X2869848Y11841256D01*
X2803839Y11681894D01*
X2803839Y11502872D01*
X2872347Y11337478D01*
X2998934Y11210891D01*
X3081812Y11176562D01*
X3052440Y11105651D01*
X3052440Y10926629D01*
X3120948Y10761235D01*
X3247535Y10634648D01*
X3412929Y10566140D01*
X3591951Y10566140D01*
X3757345Y10634648D01*
X3883932Y10761235D01*
X3952440Y10926629D01*
X3952440Y10927643D01*
X3996895Y10883188D01*
X4162289Y10814680D01*
X4341311Y10814680D01*
X4506705Y10883188D01*
X4633292Y11009775D01*
X4701800Y11175169D01*
X4701800Y11247601D01*
X5772357Y10747486D01*
X5831818Y10711134D01*
X5811911Y10719380D01*
X5632889Y10719380D01*
X5467495Y10650872D01*
X5340908Y10524285D01*
X5276412Y10368577D01*
X5209812Y10529365D01*
X5083225Y10655952D01*
X4917831Y10724460D01*
X4738809Y10724460D01*
X4573415Y10655952D01*
X4446828Y10529365D01*
X4378320Y10363971D01*
X4378320Y10184949D01*
X4446828Y10019555D01*
X4573415Y9892968D01*
X4738809Y9824460D01*
X4917831Y9824460D01*
X5083225Y9892968D01*
X5209812Y10019555D01*
X5274308Y10175263D01*
X5340908Y10014475D01*
X5467495Y9887888D01*
X5632889Y9819380D01*
X5811911Y9819380D01*
X5977305Y9887888D01*
X6103892Y10014475D01*
X6172400Y10179869D01*
X6172400Y10358891D01*
X6103892Y10524285D01*
X6051106Y10577071D01*
X6881327Y10069510D01*
X6845095Y10054502D01*
X6718508Y9927915D01*
X6650000Y9762521D01*
X6650000Y9583499D01*
X6718508Y9418105D01*
X6845095Y9291518D01*
X7010489Y9223010D01*
X7189511Y9223010D01*
X7354905Y9291518D01*
X7481492Y9418105D01*
X7542282Y9564866D01*
X8010003Y9201545D01*
X8268313Y8950000D01*
X8240489Y8950000D01*
X8075095Y8881492D01*
X7948508Y8754905D01*
X7880000Y8589511D01*
X7880000Y8410489D01*
X7948508Y8245095D01*
X8075095Y8118508D01*
X8240489Y8050000D01*
X8419511Y8050000D01*
X8584905Y8118508D01*
X8711492Y8245095D01*
X8780000Y8410489D01*
X8780000Y8451714D01*
X8985776Y8251328D01*
X9849536Y7198278D01*
X10398568Y6351557D01*
X10272151Y6403920D01*
X10093129Y6403920D01*
X9958992Y6348359D01*
X10005290Y6394657D01*
X10073798Y6560051D01*
X10073798Y6739073D01*
X10005290Y6904467D01*
X9878703Y7031054D01*
X9713309Y7099562D01*
X9534287Y7099562D01*
X9368893Y7031054D01*
X9242306Y6904467D01*
X9173798Y6739073D01*
X9173798Y6560051D01*
X9242306Y6394657D01*
X9368893Y6268070D01*
X9534287Y6199562D01*
X9713309Y6199562D01*
X9847446Y6255123D01*
X9801148Y6208825D01*
X9732640Y6043431D01*
X9732640Y5864409D01*
X9801148Y5699015D01*
X9927735Y5572428D01*
X10093129Y5503920D01*
X10272151Y5503920D01*
X10437545Y5572428D01*
X10564132Y5699015D01*
X10632640Y5864409D01*
X10632640Y5971279D01*
X11163167Y4910000D01*
X11110489Y4910000D01*
X10945095Y4841492D01*
X10818508Y4714905D01*
X10750000Y4549511D01*
X10750000Y4370489D01*
X10818508Y4205095D01*
X10927430Y4096173D01*
X10825871Y4138240D01*
X10646849Y4138240D01*
X10481455Y4069732D01*
X10354868Y3943145D01*
X10286360Y3777751D01*
X10286360Y3598729D01*
X10354868Y3433335D01*
X10481455Y3306748D01*
X10646849Y3238240D01*
X10825871Y3238240D01*
X10991265Y3306748D01*
X11117852Y3433335D01*
X11186360Y3598729D01*
X11186360Y3777751D01*
X11117852Y3943145D01*
X11008930Y4052067D01*
X11110489Y4010000D01*
X11289511Y4010000D01*
X11454905Y4078508D01*
X11471871Y4095474D01*
X11668945Y3558693D01*
X11700880Y3428285D01*
X11576707Y3428285D01*
X11411313Y3359777D01*
X11284726Y3233190D01*
X11216218Y3067796D01*
X11216218Y2888774D01*
X11284726Y2723380D01*
X11411313Y2596793D01*
X11576707Y2528285D01*
X11755729Y2528285D01*
X11906033Y2590542D01*
X11992907Y2235791D01*
X12035603Y1905254D01*
X11986945Y1953912D01*
X11821551Y2022420D01*
X11642529Y2022420D01*
X11477135Y1953912D01*
X11350548Y1827325D01*
X11323422Y1761836D01*
X11209411Y1809060D01*
X11030389Y1809060D01*
X10864995Y1740552D01*
X10738408Y1613965D01*
X10669900Y1448571D01*
X10669900Y1269549D01*
X10738408Y1104155D01*
X10864995Y977568D01*
X11030389Y909060D01*
X11209411Y909060D01*
X11374805Y977568D01*
X11501392Y1104155D01*
X11528518Y1169644D01*
X11613242Y1134551D01*
X11556156Y996732D01*
X11556156Y817710D01*
X11624664Y652316D01*
X11751251Y525729D01*
X11916645Y457221D01*
X12095667Y457221D01*
X12174013Y489673D01*
X12190211Y-476780D01*
X12061095Y-1832634D01*
X12059870Y-1838481D01*
X11921372Y-1781114D01*
X11742350Y-1781114D01*
X11576956Y-1849622D01*
X11450369Y-1976209D01*
X11381861Y-2141603D01*
X11381861Y-2320625D01*
X11450369Y-2486019D01*
X11576956Y-2612606D01*
X11742350Y-2681114D01*
X11883223Y-2681114D01*
X11781644Y-3165664D01*
X11445074Y-4186957D01*
X11412905Y-4154788D01*
X11247511Y-4086280D01*
X11068489Y-4086280D01*
X10903095Y-4154788D01*
X10776508Y-4281375D01*
X10708000Y-4446769D01*
X10708000Y-4625791D01*
X10776508Y-4791185D01*
X10903095Y-4917772D01*
X11068489Y-4986280D01*
X11113597Y-4986280D01*
X10787519Y-5697191D01*
X10085230Y-6864161D01*
X9517678Y-7605420D01*
X9512628Y-7593227D01*
X9386041Y-7466640D01*
X9220647Y-7398132D01*
X9178265Y-7398132D01*
X9261492Y-7314905D01*
X9330000Y-7149511D01*
X9330000Y-6970489D01*
X9261492Y-6805095D01*
X9134905Y-6678508D01*
X8969511Y-6610000D01*
X8790489Y-6610000D01*
X8625095Y-6678508D01*
X8498508Y-6805095D01*
X8430000Y-6970489D01*
X8430000Y-7149511D01*
X8498508Y-7314905D01*
X8625095Y-7441492D01*
X8790489Y-7510000D01*
X8832871Y-7510000D01*
X8749644Y-7593227D01*
X8681136Y-7758621D01*
X8681136Y-7937643D01*
X8749644Y-8103037D01*
X8876231Y-8229624D01*
X8953663Y-8261697D01*
X8813811Y-8407331D01*
X8793872Y-8359193D01*
X8667285Y-8232606D01*
X8501891Y-8164098D01*
X8322869Y-8164098D01*
X8157475Y-8232606D01*
X8030888Y-8359193D01*
X7962380Y-8524587D01*
X7962380Y-8703609D01*
X8030888Y-8869003D01*
X8157475Y-8995590D01*
X8207604Y-9016354D01*
X8048135Y-9149031D01*
X8011092Y-9059601D01*
X7884505Y-8933014D01*
X7719111Y-8864506D01*
X7540089Y-8864506D01*
X7374695Y-8933014D01*
X7248108Y-9059601D01*
X7179600Y-9224995D01*
X7179600Y-9404017D01*
X7248108Y-9569411D01*
X7374695Y-9695998D01*
X7385392Y-9700429D01*
X7266860Y-9799046D01*
X7226724Y-9825471D01*
X7170246Y-9689120D01*
X7043659Y-9562533D01*
X6878265Y-9494025D01*
X6699243Y-9494025D01*
X6533849Y-9562533D01*
X6407262Y-9689120D01*
X6338754Y-9854514D01*
X6338754Y-10033536D01*
X6407262Y-10198930D01*
X6507396Y-10299064D01*
X6345204Y-10405848D01*
X6277734Y-10242959D01*
X6151147Y-10116372D01*
X5985753Y-10047864D01*
X5806731Y-10047864D01*
X5641337Y-10116372D01*
X5514750Y-10242959D01*
X5446242Y-10408353D01*
X5446242Y-10587375D01*
X5514750Y-10752769D01*
X5586219Y-10824238D01*
X5408856Y-10914453D01*
X5408856Y-10882297D01*
X5340348Y-10716903D01*
X5213761Y-10590316D01*
X5048367Y-10521808D01*
X4869345Y-10521808D01*
X4703951Y-10590316D01*
X4577364Y-10716903D01*
X4508856Y-10882297D01*
X4508856Y-11061319D01*
X4577364Y-11226713D01*
X4625027Y-11274376D01*
X4433730Y-11346129D01*
X4433730Y-11272739D01*
X4365222Y-11107345D01*
X4238635Y-10980758D01*
X4073241Y-10912250D01*
X3894219Y-10912250D01*
X3728825Y-10980758D01*
X3602238Y-11107345D01*
X3553312Y-11225464D01*
X4291468Y-9084809D01*
X5508620Y-9084809D01*
X5508620Y-9263831D01*
X5577128Y-9429225D01*
X5703715Y-9555812D01*
X5869109Y-9624320D01*
X6048131Y-9624320D01*
X6213525Y-9555812D01*
X6340112Y-9429225D01*
X6408620Y-9263831D01*
X6408620Y-9084809D01*
X6340112Y-8919415D01*
X6213525Y-8792828D01*
X6048131Y-8724320D01*
X5869109Y-8724320D01*
X5703715Y-8792828D01*
X5577128Y-8919415D01*
X5508620Y-9084809D01*
X4291468Y-9084809D01*
X4692412Y-7922074D01*
X4844465Y-7859092D01*
X4971052Y-7732505D01*
X5039560Y-7567111D01*
X5039560Y-7388089D01*
X4974331Y-7230609D01*
X5318120Y-7230609D01*
X5318120Y-7409631D01*
X5386628Y-7575025D01*
X5513215Y-7701612D01*
X5678609Y-7770120D01*
X5857631Y-7770120D01*
X6023025Y-7701612D01*
X6149612Y-7575025D01*
X6218120Y-7409631D01*
X6218120Y-7230609D01*
X6149612Y-7065215D01*
X6023025Y-6938628D01*
X5857631Y-6870120D01*
X5678609Y-6870120D01*
X5513215Y-6938628D01*
X5386628Y-7065215D01*
X5318120Y-7230609D01*
X4974331Y-7230609D01*
X4971052Y-7222695D01*
X4943186Y-7194829D01*
X5070903Y-6824449D01*
X5075000Y-6800000D01*
X5075000Y-6265409D01*
X6491600Y-6265409D01*
X6491600Y-6444431D01*
X6560108Y-6609825D01*
X6686695Y-6736412D01*
X6852089Y-6804920D01*
X7031111Y-6804920D01*
X7196505Y-6736412D01*
X7323092Y-6609825D01*
X7391600Y-6444431D01*
X7391600Y-6265409D01*
X7323092Y-6100015D01*
X7196505Y-5973428D01*
X7031111Y-5904920D01*
X6852089Y-5904920D01*
X6686695Y-5973428D01*
X6560108Y-6100015D01*
X6491600Y-6265409D01*
X5075000Y-6265409D01*
X5075000Y-5480489D01*
X8390000Y-5480489D01*
X8390000Y-5659511D01*
X8458508Y-5824905D01*
X8585095Y-5951492D01*
X8750489Y-6020000D01*
X8929511Y-6020000D01*
X9094905Y-5951492D01*
X9221492Y-5824905D01*
X9290000Y-5659511D01*
X9290000Y-5480489D01*
X9221492Y-5315095D01*
X9138026Y-5231629D01*
X9618340Y-5231629D01*
X9618340Y-5410651D01*
X9686848Y-5576045D01*
X9813435Y-5702632D01*
X9978829Y-5771140D01*
X10157851Y-5771140D01*
X10323245Y-5702632D01*
X10449832Y-5576045D01*
X10518340Y-5410651D01*
X10518340Y-5231629D01*
X10449832Y-5066235D01*
X10323245Y-4939648D01*
X10157851Y-4871140D01*
X9978829Y-4871140D01*
X9813435Y-4939648D01*
X9686848Y-5066235D01*
X9618340Y-5231629D01*
X9138026Y-5231629D01*
X9094905Y-5188508D01*
X8929511Y-5120000D01*
X8750489Y-5120000D01*
X8585095Y-5188508D01*
X8458508Y-5315095D01*
X8390000Y-5480489D01*
X5075000Y-5480489D01*
X5075000Y-4672829D01*
X5940420Y-4672829D01*
X5940420Y-4851851D01*
X6008928Y-5017245D01*
X6135515Y-5143832D01*
X6300909Y-5212340D01*
X6479931Y-5212340D01*
X6645325Y-5143832D01*
X6771912Y-5017245D01*
X6840420Y-4851851D01*
X6840420Y-4672829D01*
X6796232Y-4566149D01*
X7753980Y-4566149D01*
X7753980Y-4745171D01*
X7822488Y-4910565D01*
X7949075Y-5037152D01*
X8114469Y-5105660D01*
X8293491Y-5105660D01*
X8458885Y-5037152D01*
X8585472Y-4910565D01*
X8653980Y-4745171D01*
X8653980Y-4566149D01*
X8585472Y-4400755D01*
X8458885Y-4274168D01*
X8293491Y-4205660D01*
X8114469Y-4205660D01*
X7949075Y-4274168D01*
X7822488Y-4400755D01*
X7753980Y-4566149D01*
X6796232Y-4566149D01*
X6771912Y-4507435D01*
X6645325Y-4380848D01*
X6479931Y-4312340D01*
X6300909Y-4312340D01*
X6135515Y-4380848D01*
X6008928Y-4507435D01*
X5940420Y-4672829D01*
X5075000Y-4672829D01*
X5075000Y-4527817D01*
X5114435Y-4567252D01*
X5279829Y-4635760D01*
X5458851Y-4635760D01*
X5624245Y-4567252D01*
X5750832Y-4440665D01*
X5819340Y-4275271D01*
X5819340Y-4096249D01*
X5750832Y-3930855D01*
X5624245Y-3804268D01*
X5458851Y-3735760D01*
X5279829Y-3735760D01*
X5114435Y-3804268D01*
X5075000Y-3843703D01*
X5075000Y-1380989D01*
X5437500Y-1380989D01*
X5437500Y-1560011D01*
X5506008Y-1725405D01*
X5632595Y-1851992D01*
X5797989Y-1920500D01*
X5977011Y-1920500D01*
X6142405Y-1851992D01*
X6252728Y-1741669D01*
X9234800Y-1741669D01*
X9234800Y-1920691D01*
X9303308Y-2086085D01*
X9429895Y-2212672D01*
X9595289Y-2281180D01*
X9774311Y-2281180D01*
X9939705Y-2212672D01*
X9955213Y-2197164D01*
X9967890Y-2209841D01*
X10133284Y-2278349D01*
X10312306Y-2278349D01*
X10477700Y-2209841D01*
X10604287Y-2083254D01*
X10672795Y-1917860D01*
X10672795Y-1738838D01*
X10604287Y-1573444D01*
X10477700Y-1446857D01*
X10312306Y-1378349D01*
X10133284Y-1378349D01*
X9967890Y-1446857D01*
X9952382Y-1462365D01*
X9939705Y-1449688D01*
X9774311Y-1381180D01*
X9595289Y-1381180D01*
X9429895Y-1449688D01*
X9303308Y-1576275D01*
X9234800Y-1741669D01*
X6252728Y-1741669D01*
X6268992Y-1725405D01*
X6337500Y-1560011D01*
X6337500Y-1407450D01*
X6472061Y-1407450D01*
X6637455Y-1338942D01*
X6764042Y-1212355D01*
X6832550Y-1046961D01*
X6832550Y-867939D01*
X6764042Y-702545D01*
X6637455Y-575958D01*
X6472061Y-507450D01*
X6293039Y-507450D01*
X6127645Y-575958D01*
X6001058Y-702545D01*
X5932550Y-867939D01*
X5932550Y-1020500D01*
X5797989Y-1020500D01*
X5632595Y-1089008D01*
X5506008Y-1215595D01*
X5437500Y-1380989D01*
X5075000Y-1380989D01*
X5075000Y-160489D01*
X7050000Y-160489D01*
X7050000Y-339511D01*
X7118508Y-504905D01*
X7245095Y-631492D01*
X7410489Y-700000D01*
X7589511Y-700000D01*
X7754905Y-631492D01*
X7881492Y-504905D01*
X7893599Y-475675D01*
X9659851Y-475675D01*
X9659851Y-654697D01*
X9728359Y-820091D01*
X9854946Y-946678D01*
X10020340Y-1015186D01*
X10199362Y-1015186D01*
X10364756Y-946678D01*
X10491343Y-820091D01*
X10559851Y-654697D01*
X10559851Y-475675D01*
X10491343Y-310281D01*
X10364756Y-183694D01*
X10199362Y-115186D01*
X10020340Y-115186D01*
X9854946Y-183694D01*
X9728359Y-310281D01*
X9659851Y-475675D01*
X7893599Y-475675D01*
X7950000Y-339511D01*
X7950000Y-160489D01*
X7881492Y4905D01*
X7754905Y131492D01*
X7589511Y200000D01*
X7410489Y200000D01*
X7245095Y131492D01*
X7118508Y4905D01*
X7050000Y-160489D01*
X5075000Y-160489D01*
X5075000Y450000D01*
X5069291Y478701D01*
X5049388Y506443D01*
X4668739Y839511D01*
X6300000Y839511D01*
X6300000Y660489D01*
X6368508Y495095D01*
X6495095Y368508D01*
X6660489Y300000D01*
X6839511Y300000D01*
X7004905Y368508D01*
X7131492Y495095D01*
X7191310Y639511D01*
X9770000Y639511D01*
X9770000Y460489D01*
X9838508Y295095D01*
X9965095Y168508D01*
X10130489Y100000D01*
X10309511Y100000D01*
X10474905Y168508D01*
X10601492Y295095D01*
X10670000Y460489D01*
X10670000Y639511D01*
X10601492Y804905D01*
X10474905Y931492D01*
X10309511Y1000000D01*
X10130489Y1000000D01*
X9965095Y931492D01*
X9838508Y804905D01*
X9770000Y639511D01*
X7191310Y639511D01*
X7200000Y660489D01*
X7200000Y839511D01*
X7131492Y1004905D01*
X7004905Y1131492D01*
X6839511Y1200000D01*
X6660489Y1200000D01*
X6495095Y1131492D01*
X6368508Y1004905D01*
X6300000Y839511D01*
X4668739Y839511D01*
X3825489Y1577355D01*
X3875209Y1556760D01*
X4054231Y1556760D01*
X4219625Y1625268D01*
X4346212Y1751855D01*
X4414720Y1917249D01*
X4414720Y2096271D01*
X4397899Y2136881D01*
X7448297Y2136881D01*
X7448297Y1957859D01*
X7516805Y1792465D01*
X7643392Y1665878D01*
X7808786Y1597370D01*
X7987808Y1597370D01*
X8153202Y1665878D01*
X8186280Y1698956D01*
X8345609Y1632960D01*
X8524631Y1632960D01*
X8624617Y1674375D01*
X8559482Y1609240D01*
X8490974Y1443846D01*
X8490974Y1264824D01*
X8559482Y1099430D01*
X8686069Y972843D01*
X8851463Y904335D01*
X9030485Y904335D01*
X9195879Y972843D01*
X9322466Y1099430D01*
X9390974Y1264824D01*
X9390974Y1443846D01*
X9322466Y1609240D01*
X9195879Y1735827D01*
X9030485Y1804335D01*
X8851463Y1804335D01*
X8751477Y1762920D01*
X8816612Y1828055D01*
X8885120Y1993449D01*
X8885120Y2172471D01*
X8816612Y2337865D01*
X8690025Y2464452D01*
X8524631Y2532960D01*
X8345609Y2532960D01*
X8180215Y2464452D01*
X8147137Y2431374D01*
X7987808Y2497370D01*
X7808786Y2497370D01*
X7643392Y2428862D01*
X7516805Y2302275D01*
X7448297Y2136881D01*
X4397899Y2136881D01*
X4346212Y2261665D01*
X4219625Y2388252D01*
X4054231Y2456760D01*
X3875209Y2456760D01*
X3709815Y2388252D01*
X3583228Y2261665D01*
X3514720Y2096271D01*
X3514720Y1917249D01*
X3558879Y1810638D01*
X3049388Y2256443D01*
X3024029Y2271047D01*
X3000000Y2275000D01*
X-480601Y2275000D01*
X-479375Y2275508D01*
X-352788Y2402095D01*
X-284280Y2567489D01*
X-284280Y2746511D01*
X-352788Y2911905D01*
X-479375Y3038492D01*
X-644769Y3107000D01*
X-823791Y3107000D01*
X-884208Y3081975D01*
X-884208Y3475000D01*
X-200000Y3475000D01*
X-113896Y3492127D01*
X-40901Y3540901D01*
X103494Y3685296D01*
X103494Y3675962D01*
X172002Y3510568D01*
X177077Y3505494D01*
X154058Y3482475D01*
X85550Y3317081D01*
X85550Y3138059D01*
X154058Y2972665D01*
X280645Y2846078D01*
X446039Y2777570D01*
X625061Y2777570D01*
X790455Y2846078D01*
X917042Y2972665D01*
X985550Y3138059D01*
X985550Y3317081D01*
X917042Y3482475D01*
X911968Y3487550D01*
X934986Y3510568D01*
X1003494Y3675962D01*
X1003494Y3854984D01*
X975516Y3922531D01*
X3197220Y3922531D01*
X3197220Y3743509D01*
X3265728Y3578115D01*
X3392315Y3451528D01*
X3557709Y3383020D01*
X3736731Y3383020D01*
X3902125Y3451528D01*
X4028712Y3578115D01*
X4097220Y3743509D01*
X4097220Y3922531D01*
X4028712Y4087925D01*
X4024757Y4091881D01*
X4048624Y4115748D01*
X4079177Y4189511D01*
X4750000Y4189511D01*
X4750000Y4010489D01*
X4818508Y3845095D01*
X4913603Y3750000D01*
X4818508Y3654905D01*
X4750000Y3489511D01*
X4750000Y3310489D01*
X4818508Y3145095D01*
X4945095Y3018508D01*
X5110489Y2950000D01*
X5289511Y2950000D01*
X5454905Y3018508D01*
X5581492Y3145095D01*
X5650000Y3310489D01*
X5650000Y3489511D01*
X5581492Y3654905D01*
X5486397Y3750000D01*
X5581492Y3845095D01*
X5650000Y4010489D01*
X5650000Y4189511D01*
X5581492Y4354905D01*
X5454905Y4481492D01*
X5289511Y4550000D01*
X5110489Y4550000D01*
X4945095Y4481492D01*
X4818508Y4354905D01*
X4750000Y4189511D01*
X4079177Y4189511D01*
X4117132Y4281142D01*
X4117132Y4460164D01*
X4048624Y4625558D01*
X3922037Y4752145D01*
X3756643Y4820653D01*
X3577621Y4820653D01*
X3412227Y4752145D01*
X3285640Y4625558D01*
X3217132Y4460164D01*
X3217132Y4281142D01*
X3285640Y4115748D01*
X3289596Y4111793D01*
X3265728Y4087925D01*
X3197220Y3922531D01*
X975516Y3922531D01*
X934986Y4020378D01*
X808399Y4146965D01*
X643005Y4215473D01*
X633671Y4215473D01*
X773047Y4354849D01*
X818508Y4245095D01*
X945095Y4118508D01*
X1110489Y4050000D01*
X1289511Y4050000D01*
X1454905Y4118508D01*
X1581492Y4245095D01*
X1650000Y4410489D01*
X1650000Y4589511D01*
X1645858Y4599511D01*
X2040000Y4599511D01*
X2040000Y4420489D01*
X2108508Y4255095D01*
X2235095Y4128508D01*
X2400489Y4060000D01*
X2579511Y4060000D01*
X2744905Y4128508D01*
X2871492Y4255095D01*
X2940000Y4420489D01*
X2940000Y4599511D01*
X2871492Y4764905D01*
X2791397Y4845000D01*
X2881492Y4935095D01*
X2950000Y5100489D01*
X2950000Y5279511D01*
X2881492Y5444905D01*
X2785886Y5540511D01*
X5676260Y5540511D01*
X5676260Y5361489D01*
X5744768Y5196095D01*
X5827233Y5113630D01*
X5818508Y5104905D01*
X5750000Y4939511D01*
X5750000Y4760489D01*
X5818508Y4595095D01*
X5938603Y4475000D01*
X5818508Y4354905D01*
X5750000Y4189511D01*
X5750000Y4010489D01*
X5818508Y3845095D01*
X5913603Y3750000D01*
X5818508Y3654905D01*
X5750000Y3489511D01*
X5750000Y3310489D01*
X5818508Y3145095D01*
X5945095Y3018508D01*
X6110489Y2950000D01*
X6289511Y2950000D01*
X6454905Y3018508D01*
X6522961Y3086564D01*
X6478900Y2980191D01*
X6478900Y2801169D01*
X6547408Y2635775D01*
X6673995Y2509188D01*
X6839389Y2440680D01*
X7018411Y2440680D01*
X7183805Y2509188D01*
X7310392Y2635775D01*
X7378900Y2801169D01*
X7378900Y2980191D01*
X7310392Y3145585D01*
X7209086Y3246891D01*
X8312780Y3246891D01*
X8312780Y3067869D01*
X8381288Y2902475D01*
X8507875Y2775888D01*
X8673269Y2707380D01*
X8852291Y2707380D01*
X9017685Y2775888D01*
X9144272Y2902475D01*
X9212780Y3067869D01*
X9212780Y3246891D01*
X9144272Y3412285D01*
X9017685Y3538872D01*
X8852291Y3607380D01*
X8673269Y3607380D01*
X8507875Y3538872D01*
X8381288Y3412285D01*
X8312780Y3246891D01*
X7209086Y3246891D01*
X7183805Y3272172D01*
X7018411Y3340680D01*
X6839389Y3340680D01*
X6673995Y3272172D01*
X6605939Y3204116D01*
X6650000Y3310489D01*
X6650000Y3489511D01*
X6581492Y3654905D01*
X6486397Y3750000D01*
X6581492Y3845095D01*
X6650000Y4010489D01*
X6650000Y4189511D01*
X6581492Y4354905D01*
X6461397Y4475000D01*
X6515988Y4529591D01*
X9174050Y4529591D01*
X9174050Y4350569D01*
X9242558Y4185175D01*
X9369145Y4058588D01*
X9534539Y3990080D01*
X9713561Y3990080D01*
X9878955Y4058588D01*
X10005542Y4185175D01*
X10074050Y4350569D01*
X10074050Y4529591D01*
X10005542Y4694985D01*
X9878955Y4821572D01*
X9713561Y4890080D01*
X9534539Y4890080D01*
X9369145Y4821572D01*
X9242558Y4694985D01*
X9174050Y4529591D01*
X6515988Y4529591D01*
X6581492Y4595095D01*
X6650000Y4760489D01*
X6650000Y4939511D01*
X6581492Y5104905D01*
X6499027Y5187370D01*
X6507752Y5196095D01*
X6510723Y5203268D01*
X6604217Y5109774D01*
X6769611Y5041266D01*
X6948633Y5041266D01*
X7114027Y5109774D01*
X7190863Y5186610D01*
X7298059Y5142208D01*
X7477081Y5142208D01*
X7642475Y5210716D01*
X7769062Y5337303D01*
X7837570Y5502697D01*
X7837570Y5681719D01*
X7769062Y5847113D01*
X7642475Y5973700D01*
X7477081Y6042208D01*
X7298059Y6042208D01*
X7132665Y5973700D01*
X7055829Y5896864D01*
X6948633Y5941266D01*
X6769611Y5941266D01*
X6604217Y5872758D01*
X6477630Y5746171D01*
X6474659Y5738998D01*
X6381165Y5832492D01*
X6215771Y5901000D01*
X6036749Y5901000D01*
X5871355Y5832492D01*
X5744768Y5705905D01*
X5676260Y5540511D01*
X2785886Y5540511D01*
X2754905Y5571492D01*
X2589511Y5640000D01*
X2410489Y5640000D01*
X2245095Y5571492D01*
X2118508Y5444905D01*
X2050000Y5279511D01*
X2050000Y5100489D01*
X2118508Y4935095D01*
X2198603Y4855000D01*
X2108508Y4764905D01*
X2040000Y4599511D01*
X1645858Y4599511D01*
X1581492Y4754905D01*
X1454905Y4881492D01*
X1289511Y4950000D01*
X1125000Y4950000D01*
X1125000Y6112451D01*
X4009580Y6112451D01*
X4009580Y5933429D01*
X4078088Y5768035D01*
X4204675Y5641448D01*
X4370069Y5572940D01*
X4549091Y5572940D01*
X4714485Y5641448D01*
X4841072Y5768035D01*
X4909580Y5933429D01*
X4909580Y6112451D01*
X4898251Y6139803D01*
X7939252Y6139803D01*
X7939252Y5960781D01*
X8007760Y5795387D01*
X8134347Y5668800D01*
X8299741Y5600292D01*
X8478763Y5600292D01*
X8644157Y5668800D01*
X8770744Y5795387D01*
X8839252Y5960781D01*
X8839252Y6139803D01*
X8770744Y6305197D01*
X8644157Y6431784D01*
X8478763Y6500292D01*
X8299741Y6500292D01*
X8134347Y6431784D01*
X8007760Y6305197D01*
X7939252Y6139803D01*
X4898251Y6139803D01*
X4874710Y6196634D01*
X4949948Y6271872D01*
X5034131Y6237003D01*
X5213153Y6237003D01*
X5378547Y6305511D01*
X5505134Y6432098D01*
X5573642Y6597492D01*
X5573642Y6776514D01*
X5520633Y6904491D01*
X6768460Y6904491D01*
X6768460Y6725469D01*
X6836968Y6560075D01*
X6963555Y6433488D01*
X7128949Y6364980D01*
X7307971Y6364980D01*
X7473365Y6433488D01*
X7599952Y6560075D01*
X7668460Y6725469D01*
X7668460Y6904491D01*
X7599952Y7069885D01*
X7473365Y7196472D01*
X7307971Y7264980D01*
X7128949Y7264980D01*
X6963555Y7196472D01*
X6836968Y7069885D01*
X6768460Y6904491D01*
X5520633Y6904491D01*
X5505134Y6941908D01*
X5378547Y7068495D01*
X5213153Y7137003D01*
X5034131Y7137003D01*
X4868737Y7068495D01*
X4774704Y6974462D01*
X4690521Y7009331D01*
X4511499Y7009331D01*
X4346105Y6940823D01*
X4219518Y6814236D01*
X4151010Y6648842D01*
X4151010Y6469820D01*
X4185880Y6385637D01*
X4078088Y6277845D01*
X4009580Y6112451D01*
X1125000Y6112451D01*
X1125000Y7291516D01*
X1250162Y7239673D01*
X1429184Y7239673D01*
X1489651Y7264719D01*
X1489651Y7196813D01*
X1383159Y7090321D01*
X1314651Y6924927D01*
X1314651Y6745905D01*
X1383159Y6580511D01*
X1509746Y6453924D01*
X1675140Y6385416D01*
X1854162Y6385416D01*
X2019556Y6453924D01*
X2146143Y6580511D01*
X2202870Y6717464D01*
X2847194Y6717464D01*
X2847194Y6538442D01*
X2915702Y6373048D01*
X3042289Y6246461D01*
X3207683Y6177953D01*
X3386705Y6177953D01*
X3552099Y6246461D01*
X3678686Y6373048D01*
X3747194Y6538442D01*
X3747194Y6717464D01*
X3678686Y6882858D01*
X3552099Y7009445D01*
X3386705Y7077953D01*
X3207683Y7077953D01*
X3042289Y7009445D01*
X2915702Y6882858D01*
X2847194Y6717464D01*
X2202870Y6717464D01*
X2214651Y6745905D01*
X2214651Y6924927D01*
X2146143Y7090321D01*
X2039651Y7196813D01*
X2039651Y7469511D01*
X8180000Y7469511D01*
X8180000Y7290489D01*
X8248508Y7125095D01*
X8375095Y6998508D01*
X8540489Y6930000D01*
X8719511Y6930000D01*
X8884905Y6998508D01*
X9011492Y7125095D01*
X9080000Y7290489D01*
X9080000Y7469511D01*
X9011492Y7634905D01*
X8884905Y7761492D01*
X8719511Y7830000D01*
X8540489Y7830000D01*
X8375095Y7761492D01*
X8248508Y7634905D01*
X8180000Y7469511D01*
X2039651Y7469511D01*
X2039651Y8030365D01*
X2164619Y8155332D01*
X2170988Y8139955D01*
X2297575Y8013368D01*
X2462969Y7944860D01*
X2641991Y7944860D01*
X2807385Y8013368D01*
X2933972Y8139955D01*
X3002480Y8305349D01*
X3002480Y8484371D01*
X2988093Y8519106D01*
X4065295Y8519106D01*
X4065295Y8340084D01*
X4133803Y8174690D01*
X4260390Y8048103D01*
X4425784Y7979595D01*
X4472127Y7979595D01*
X4538268Y7819915D01*
X4664855Y7693328D01*
X4830249Y7624820D01*
X5009271Y7624820D01*
X5174665Y7693328D01*
X5214400Y7733063D01*
X5221115Y7726348D01*
X5386509Y7657840D01*
X5565531Y7657840D01*
X5730925Y7726348D01*
X5857512Y7852935D01*
X5926020Y8018329D01*
X5926020Y8197351D01*
X5857512Y8362745D01*
X5730925Y8489332D01*
X5565531Y8557840D01*
X5386509Y8557840D01*
X5221115Y8489332D01*
X5181380Y8449597D01*
X5174665Y8456312D01*
X5009271Y8524820D01*
X4962928Y8524820D01*
X4896787Y8684500D01*
X4828869Y8752418D01*
X6970467Y8752418D01*
X6970467Y8573396D01*
X7038975Y8408002D01*
X7165562Y8281415D01*
X7330956Y8212907D01*
X7509978Y8212907D01*
X7675372Y8281415D01*
X7801959Y8408002D01*
X7870467Y8573396D01*
X7870467Y8752418D01*
X7801959Y8917812D01*
X7675372Y9044399D01*
X7509978Y9112907D01*
X7330956Y9112907D01*
X7165562Y9044399D01*
X7038975Y8917812D01*
X6970467Y8752418D01*
X4828869Y8752418D01*
X4770200Y8811087D01*
X4604806Y8879595D01*
X4425784Y8879595D01*
X4260390Y8811087D01*
X4133803Y8684500D01*
X4065295Y8519106D01*
X2988093Y8519106D01*
X2933972Y8649765D01*
X2807385Y8776352D01*
X2792008Y8782721D01*
X3034287Y9025000D01*
X3298603Y9025000D01*
X3395095Y8928508D01*
X3560489Y8860000D01*
X3739511Y8860000D01*
X3904905Y8928508D01*
X4031492Y9055095D01*
X4100000Y9220489D01*
X4100000Y9399511D01*
X4031492Y9564905D01*
X3904905Y9691492D01*
X3739511Y9760000D01*
X3560489Y9760000D01*
X3395095Y9691492D01*
X3278603Y9575000D01*
X2947459Y9575000D01*
X2920378Y9580387D01*
X2893297Y9575000D01*
X2893296Y9575000D01*
X2813079Y9559044D01*
X2768745Y9529421D01*
X2733312Y9614965D01*
X2606725Y9741552D01*
X2441331Y9810060D01*
X2262309Y9810060D01*
X2096915Y9741552D01*
X1970328Y9614965D01*
X1901820Y9449571D01*
X1901820Y9270549D01*
X1970328Y9105155D01*
X2096915Y8978568D01*
X2176905Y8945435D01*
X1589348Y8357878D01*
X1566388Y8342537D01*
X1551047Y8319577D01*
X1505608Y8251572D01*
X1484264Y8144273D01*
X1489652Y8117187D01*
X1489652Y8114627D01*
X1429184Y8139673D01*
X1250162Y8139673D01*
X1125000Y8087830D01*
X1125000Y8792343D01*
X1158715Y8806308D01*
X1285302Y8932895D01*
X1353810Y9098289D01*
X1353810Y9277311D01*
X1285302Y9442705D01*
X1158715Y9569292D01*
X993321Y9637800D01*
X866878Y9637800D01*
X273517Y10188779D01*
X399465Y10240948D01*
X526052Y10367535D01*
X594560Y10532929D01*
X594560Y10711951D01*
X526052Y10877345D01*
X399465Y11003932D01*
X234071Y11072440D01*
X55049Y11072440D01*
X15440Y11056034D01*
X15440Y11133591D01*
X-9810Y11194551D01*
X1040760Y11194551D01*
X1040760Y11015529D01*
X1109268Y10850135D01*
X1235855Y10723548D01*
X1401249Y10655040D01*
X1580271Y10655040D01*
X1745665Y10723548D01*
X1872252Y10850135D01*
X1940760Y11015529D01*
X1940760Y11194551D01*
X1872252Y11359945D01*
X1745665Y11486532D01*
X1580271Y11555040D01*
X1401249Y11555040D01*
X1235855Y11486532D01*
X1109268Y11359945D01*
X1040760Y11194551D01*
X-9810Y11194551D01*
X-53068Y11298985D01*
X-179655Y11425572D01*
X-345049Y11494080D01*
X-524071Y11494080D01*
X-689465Y11425572D01*
X-816052Y11298985D01*
X-884560Y11133591D01*
X-884560Y10954569D01*
X-860897Y10897440D01*
X-970891Y10897440D01*
X-1485942Y11412490D01*
X-1491056Y11420144D01*
X-1498710Y11425258D01*
X-1508936Y11435484D01*
X-1576941Y11480923D01*
X-1684240Y11502267D01*
X-1711321Y11496880D01*
X-1984819Y11496880D01*
X-2011900Y11502267D01*
X-2038981Y11496880D01*
X-2038982Y11496880D01*
X-2119199Y11480924D01*
X-2210164Y11420144D01*
X-2225506Y11397183D01*
X-2542368Y11080320D01*
X-2911919Y11080320D01*
X-2939000Y11085707D01*
X-2966081Y11080320D01*
X-2966082Y11080320D01*
X-3046299Y11064364D01*
X-3137264Y11003584D01*
X-3152605Y10980624D01*
X-5590340Y8542888D01*
X-5590340Y8641851D01*
X-5658848Y8807245D01*
X-5785435Y8933832D01*
X-5950829Y9002340D01*
X-6129851Y9002340D01*
X-6295245Y8933832D01*
X-6421832Y8807245D01*
X-6467668Y8696585D01*
X-6565215Y8794132D01*
X-6730609Y8862640D01*
X-6909631Y8862640D01*
X-7075025Y8794132D01*
X-7201612Y8667545D01*
X-7270120Y8502151D01*
X-7270120Y8323129D01*
X-7201612Y8157735D01*
X-7075025Y8031148D01*
X-6909631Y7962640D01*
X-6730609Y7962640D01*
X-6565215Y8031148D01*
X-6438628Y8157735D01*
X-6392792Y8268395D01*
X-6295245Y8170848D01*
X-6129851Y8102340D01*
X-6030888Y8102340D01*
X-6164432Y7968796D01*
X-6187392Y7953455D01*
X-6202733Y7930495D01*
X-6248172Y7862490D01*
X-6269516Y7755191D01*
X-6264128Y7728105D01*
X-6264129Y5785010D01*
X-6269516Y5757929D01*
X-6264129Y5730848D01*
X-6248173Y5650631D01*
X-6187393Y5559665D01*
X-6164430Y5544322D01*
X-4842067Y4221958D01*
X-4842068Y3466329D01*
X-4847455Y3439248D01*
X-4842068Y3412167D01*
X-4826112Y3331950D01*
X-4765332Y3240984D01*
X-4742369Y3225641D01*
X-4600772Y3084043D01*
X-4585430Y3061082D01*
X-4494465Y3000302D01*
X-4414248Y2984346D01*
X-4414247Y2984346D01*
X-4387166Y2978959D01*
X-4360085Y2984346D01*
X-4056907Y2984346D01*
X-4029826Y2978959D01*
X-4002745Y2984346D01*
X-4002744Y2984346D01*
X-3922527Y3000302D01*
X-3831562Y3061082D01*
X-3823684Y3072872D01*
X-3140081Y3072872D01*
X-3146725Y3056831D01*
X-3146725Y2877809D01*
X-3078217Y2712415D01*
X-2951630Y2585828D01*
X-2786236Y2517320D01*
X-2607214Y2517320D01*
X-2441820Y2585828D01*
X-2315233Y2712415D01*
X-2246725Y2877809D01*
X-2246725Y2897872D01*
X-2226903Y2897872D01*
X-2061509Y2966380D01*
X-1934922Y3092967D01*
X-1866414Y3258361D01*
X-1866414Y3272209D01*
X-1834207Y3272209D01*
X-1834207Y2275000D01*
X-2998318Y2275000D01*
X-3009628Y2302305D01*
X-3136215Y2428892D01*
X-3301609Y2497400D01*
X-3480631Y2497400D01*
X-3646025Y2428892D01*
X-3768095Y2306822D01*
X-3845828Y2339020D01*
X-4024850Y2339020D01*
X-4166814Y2280217D01*
X-4166814Y2443131D01*
X-4235322Y2608525D01*
X-4361909Y2735112D01*
X-4527303Y2803620D01*
X-4706325Y2803620D01*
X-4871719Y2735112D01*
X-4998306Y2608525D01*
X-5066814Y2443131D01*
X-5066814Y2275000D01*
X-5754398Y2275000D01*
X-5760448Y2289605D01*
X-5887035Y2416192D01*
X-6052429Y2484700D01*
X-6231451Y2484700D01*
X-6396845Y2416192D01*
X-6523432Y2289605D01*
X-6529482Y2275000D01*
X-7479015Y2275000D01*
X-7411520Y2437949D01*
X-7411520Y2616971D01*
X-7480028Y2782365D01*
X-7606615Y2908952D01*
X-7772009Y2977460D01*
X-7951031Y2977460D01*
X-8116425Y2908952D01*
X-8243012Y2782365D01*
X-8311520Y2616971D01*
X-8311520Y2437949D01*
X-8244025Y2275000D01*
X-8954046Y2275000D01*
X-9011648Y2414065D01*
X-9138235Y2540652D01*
X-9146192Y2543948D01*
X-9057125Y2633015D01*
X-8988617Y2798409D01*
X-8988617Y2977431D01*
X-9057125Y3142825D01*
X-9183712Y3269412D01*
X-9349106Y3337920D01*
X-9528128Y3337920D01*
X-9693522Y3269412D01*
X-9820109Y3142825D01*
X-9888617Y2977431D01*
X-9888617Y2798409D01*
X-9820109Y2633015D01*
X-9693522Y2506428D01*
X-9685565Y2503132D01*
X-9774632Y2414065D01*
X-9832234Y2275000D01*
X-11972853Y2275000D01*
X-11736298Y3329846D01*
X-11645446Y3593107D01*
X-6449629Y3593107D01*
X-6449629Y3414085D01*
X-6381121Y3248691D01*
X-6254534Y3122104D01*
X-6089140Y3053596D01*
X-5910118Y3053596D01*
X-5744724Y3122104D01*
X-5618137Y3248691D01*
X-5549629Y3414085D01*
X-5549629Y3593107D01*
X-5618137Y3758501D01*
X-5744724Y3885088D01*
X-5910118Y3953596D01*
X-6089140Y3953596D01*
X-6254534Y3885088D01*
X-6381121Y3758501D01*
X-6449629Y3593107D01*
X-11645446Y3593107D01*
X-11542034Y3892757D01*
X-11519585Y3870308D01*
X-11354191Y3801800D01*
X-11175169Y3801800D01*
X-11009775Y3870308D01*
X-10883188Y3996895D01*
X-10814680Y4162289D01*
X-10814680Y4341311D01*
X-10883188Y4506705D01*
X-11009775Y4633292D01*
X-11129351Y4682822D01*
X-9733411Y4682822D01*
X-9733411Y4503800D01*
X-9664903Y4338406D01*
X-9538316Y4211819D01*
X-9372922Y4143311D01*
X-9193900Y4143311D01*
X-9028506Y4211819D01*
X-8939438Y4300887D01*
X-8883092Y4164855D01*
X-8756505Y4038268D01*
X-8591111Y3969760D01*
X-8412089Y3969760D01*
X-8253363Y4035506D01*
X-8167225Y3949368D01*
X-8001831Y3880860D01*
X-7822809Y3880860D01*
X-7657415Y3949368D01*
X-7530828Y4075955D01*
X-7462320Y4241349D01*
X-7462320Y4420371D01*
X-7530828Y4585765D01*
X-7657415Y4712352D01*
X-7822809Y4780860D01*
X-8001831Y4780860D01*
X-8160557Y4715114D01*
X-8246695Y4801252D01*
X-8412089Y4869760D01*
X-8591111Y4869760D01*
X-8756505Y4801252D01*
X-8845573Y4712184D01*
X-8901919Y4848216D01*
X-9028506Y4974803D01*
X-9193900Y5043311D01*
X-9372922Y5043311D01*
X-9538316Y4974803D01*
X-9664903Y4848216D01*
X-9733411Y4682822D01*
X-11129351Y4682822D01*
X-11175169Y4701800D01*
X-11251799Y4701800D01*
X-10804507Y5642111D01*
X-8331840Y5642111D01*
X-8331840Y5463089D01*
X-8263332Y5297695D01*
X-8136745Y5171108D01*
X-7971351Y5102600D01*
X-7792329Y5102600D01*
X-7626935Y5171108D01*
X-7500348Y5297695D01*
X-7431840Y5463089D01*
X-7431840Y5642111D01*
X-7500348Y5807505D01*
X-7626935Y5934092D01*
X-7792329Y6002600D01*
X-7971351Y6002600D01*
X-8136745Y5934092D01*
X-8263332Y5807505D01*
X-8331840Y5642111D01*
X-10804507Y5642111D01*
X-10706923Y5847253D01*
X-10702578Y5854251D01*
X-10610132Y5761805D01*
X-10444738Y5693297D01*
X-10265716Y5693297D01*
X-10100322Y5761805D01*
X-9973735Y5888392D01*
X-9905227Y6053786D01*
X-9905227Y6232808D01*
X-9973735Y6398202D01*
X-10100322Y6524789D01*
X-10248155Y6586023D01*
X-10145573Y6751214D01*
X-10035304Y6640945D01*
X-9869910Y6572437D01*
X-9690888Y6572437D01*
X-9525494Y6640945D01*
X-9398907Y6767532D01*
X-9330399Y6932926D01*
X-9330399Y7111948D01*
X-9366511Y7199131D01*
X-8733160Y7199131D01*
X-8733160Y7020109D01*
X-8664652Y6854715D01*
X-8538065Y6728128D01*
X-8372671Y6659620D01*
X-8193649Y6659620D01*
X-8028255Y6728128D01*
X-7901668Y6854715D01*
X-7833160Y7020109D01*
X-7833160Y7199131D01*
X-7901668Y7364525D01*
X-8028255Y7491112D01*
X-8193649Y7559620D01*
X-8372671Y7559620D01*
X-8538065Y7491112D01*
X-8664652Y7364525D01*
X-8733160Y7199131D01*
X-9366511Y7199131D01*
X-9398907Y7277342D01*
X-9525494Y7403929D01*
X-9637066Y7450143D01*
X-9516652Y7602943D01*
X-9512628Y7593227D01*
X-9386041Y7466640D01*
X-9220647Y7398132D01*
X-9041625Y7398132D01*
X-8876231Y7466640D01*
X-8749644Y7593227D01*
X-8681136Y7758621D01*
X-8681136Y7937643D01*
X-8749644Y8103037D01*
X-8876231Y8229624D01*
X-8958228Y8263588D01*
X-8814541Y8409093D01*
X-8793872Y8359193D01*
X-8667285Y8232606D01*
X-8501891Y8164098D01*
X-8322869Y8164098D01*
X-8157475Y8232606D01*
X-8030888Y8359193D01*
X-7962380Y8524587D01*
X-7962380Y8703609D01*
X-8030888Y8869003D01*
X-8157475Y8995590D01*
X-8212759Y9018489D01*
X-8188396Y9043159D01*
X-8050477Y9154686D01*
X-8011092Y9059601D01*
X-7884505Y8933014D01*
X-7719111Y8864506D01*
X-7540089Y8864506D01*
X-7374695Y8933014D01*
X-7248108Y9059601D01*
X-7179600Y9224995D01*
X-7179600Y9404017D01*
X-7248108Y9569411D01*
X-7374695Y9695998D01*
X-7378906Y9697742D01*
X-7225275Y9821973D01*
X-7170246Y9689120D01*
X-7043659Y9562533D01*
X-6878265Y9494025D01*
X-6699243Y9494025D01*
X-6533849Y9562533D01*
X-6407262Y9689120D01*
X-6338754Y9854514D01*
X-6338754Y10033536D01*
X-6407262Y10198930D01*
X-6505948Y10297616D01*
X-6343373Y10401428D01*
X-6277734Y10242959D01*
X-6151147Y10116372D01*
X-5985753Y10047864D01*
X-5806731Y10047864D01*
X-5641337Y10116372D01*
X-5514750Y10242959D01*
X-5446242Y10408353D01*
X-5446242Y10587375D01*
X-5514750Y10752769D01*
X-5587854Y10825873D01*
X-5408856Y10913796D01*
X-5408856Y10882297D01*
X-5340348Y10716903D01*
X-5213761Y10590316D01*
X-5048367Y10521808D01*
X-4869345Y10521808D01*
X-4703951Y10590316D01*
X-4577364Y10716903D01*
X-4508856Y10882297D01*
X-4508856Y11061319D01*
X-4577364Y11226713D01*
X-4630004Y11279353D01*
X-3477141Y11693505D01*
X-2152009Y12008223D01*
X-800060Y12173269D01*
X561875Y12186585D01*
X780121Y12164263D01*
G04 #@! TD*
M02*
