G04 #@! TF.GenerationSoftware,KiCad,Pcbnew,5.0.2-bee76a0~70~ubuntu18.04.1*
G04 #@! TF.CreationDate,2019-06-05T01:10:18+02:00*
G04 #@! TF.ProjectId,mainboard,6d61696e-626f-4617-9264-2e6b69636164,rev?*
G04 #@! TF.SameCoordinates,Original*
G04 #@! TF.FileFunction,Copper,L4,Bot*
G04 #@! TF.FilePolarity,Positive*
%FSLAX46Y46*%
G04 Gerber Fmt 4.6, Leading zero omitted, Abs format (unit mm)*
G04 Created by KiCad (PCBNEW 5.0.2-bee76a0~70~ubuntu18.04.1) date Mi 05 Jun 2019 01:10:18 CEST*
%MOMM*%
%LPD*%
G01*
G04 APERTURE LIST*
G04 #@! TA.AperFunction,Conductor*
%ADD10C,0.100000*%
G04 #@! TD*
G04 #@! TA.AperFunction,Conductor*
%ADD11C,2.600000*%
G04 #@! TD*
G04 #@! TA.AperFunction,ViaPad*
%ADD12C,0.500000*%
G04 #@! TD*
G04 #@! TA.AperFunction,BGAPad,CuDef*
%ADD13C,1.000000*%
G04 #@! TD*
G04 #@! TA.AperFunction,ViaPad*
%ADD14C,0.450000*%
G04 #@! TD*
G04 #@! TA.AperFunction,Conductor*
%ADD15C,0.026000*%
G04 #@! TD*
G04 APERTURE END LIST*
D10*
G04 #@! TO.N,GNDD*
G04 #@! TO.C,U1*
G36*
X-2325496Y-4301204D02*
X-2301227Y-4304804D01*
X-2277429Y-4310765D01*
X-2254329Y-4319030D01*
X-2232151Y-4329520D01*
X-2211107Y-4342133D01*
X-2191402Y-4356747D01*
X-2173223Y-4373223D01*
X-2156747Y-4391402D01*
X-2142133Y-4411107D01*
X-2129520Y-4432151D01*
X-2119030Y-4454329D01*
X-2110765Y-4477429D01*
X-2104804Y-4501227D01*
X-2101204Y-4525496D01*
X-2100000Y-4550000D01*
X-2100000Y-6650000D01*
X-2101204Y-6674504D01*
X-2104804Y-6698773D01*
X-2110765Y-6722571D01*
X-2119030Y-6745671D01*
X-2129520Y-6767849D01*
X-2142133Y-6788893D01*
X-2156747Y-6808598D01*
X-2173223Y-6826777D01*
X-2191402Y-6843253D01*
X-2211107Y-6857867D01*
X-2232151Y-6870480D01*
X-2254329Y-6880970D01*
X-2277429Y-6889235D01*
X-2301227Y-6895196D01*
X-2325496Y-6898796D01*
X-2350000Y-6900000D01*
X-4450000Y-6900000D01*
X-4474504Y-6898796D01*
X-4498773Y-6895196D01*
X-4522571Y-6889235D01*
X-4545671Y-6880970D01*
X-4567849Y-6870480D01*
X-4588893Y-6857867D01*
X-4608598Y-6843253D01*
X-4626777Y-6826777D01*
X-4643253Y-6808598D01*
X-4657867Y-6788893D01*
X-4670480Y-6767849D01*
X-4680970Y-6745671D01*
X-4689235Y-6722571D01*
X-4695196Y-6698773D01*
X-4698796Y-6674504D01*
X-4700000Y-6650000D01*
X-4700000Y-4550000D01*
X-4698796Y-4525496D01*
X-4695196Y-4501227D01*
X-4689235Y-4477429D01*
X-4680970Y-4454329D01*
X-4670480Y-4432151D01*
X-4657867Y-4411107D01*
X-4643253Y-4391402D01*
X-4626777Y-4373223D01*
X-4608598Y-4356747D01*
X-4588893Y-4342133D01*
X-4567849Y-4329520D01*
X-4545671Y-4319030D01*
X-4522571Y-4310765D01*
X-4498773Y-4304804D01*
X-4474504Y-4301204D01*
X-4450000Y-4300000D01*
X-2350000Y-4300000D01*
X-2325496Y-4301204D01*
X-2325496Y-4301204D01*
G37*
D11*
X-3400000Y-5600000D03*
D12*
X-2350000Y-4550000D03*
X-2350000Y-5600000D03*
X-2350000Y-6650000D03*
X-3400000Y-4550000D03*
X-3400000Y-5600000D03*
X-3400000Y-6650000D03*
X-4450000Y-4550000D03*
X-4450000Y-5600000D03*
X-4450000Y-6650000D03*
G04 #@! TD*
D13*
G04 #@! TO.P,J13,1*
G04 #@! TO.N,ELEC2*
X-11072080Y2494440D03*
G04 #@! TD*
G04 #@! TO.P,J15,1*
G04 #@! TO.N,Net-(J15-Pad1)*
X-5136100Y-10159840D03*
G04 #@! TD*
G04 #@! TO.P,J16,1*
G04 #@! TO.N,GNDD*
X7627400Y-8419940D03*
G04 #@! TD*
G04 #@! TO.P,J14,1*
G04 #@! TO.N,O2_ELEC2*
X-10388820Y4569620D03*
G04 #@! TD*
G04 #@! TO.P,J6,1*
G04 #@! TO.N,+BATT*
X8988840Y-6984840D03*
G04 #@! TD*
G04 #@! TO.P,J3,1*
G04 #@! TO.N,ISFET2_D4*
X10162320Y5062380D03*
G04 #@! TD*
G04 #@! TO.P,J4,1*
G04 #@! TO.N,ISFET2_S*
X9400320Y6393340D03*
G04 #@! TD*
G04 #@! TO.P,J5,1*
G04 #@! TO.N,REFFET2_D*
X8460520Y7579520D03*
G04 #@! TD*
G04 #@! TO.P,J7,1*
G04 #@! TO.N,REFFET2_D2*
X7378480Y8631080D03*
G04 #@! TD*
G04 #@! TO.P,J8,1*
G04 #@! TO.N,COIL*
X10078500Y-5303360D03*
G04 #@! TD*
G04 #@! TO.P,J9,1*
G04 #@! TO.N,REFFET2_D3*
X6171980Y9520080D03*
G04 #@! TD*
G04 #@! TO.P,J10,1*
G04 #@! TO.N,REFFET2_D4*
X4835940Y10274460D03*
G04 #@! TD*
G04 #@! TO.P,J1,1*
G04 #@! TO.N,ISFET2_D2*
X11135140Y2230280D03*
G04 #@! TD*
G04 #@! TO.P,J2,1*
G04 #@! TO.N,ISFET2_D3*
X10731280Y3685700D03*
G04 #@! TD*
D14*
G04 #@! TO.N,REFFET2_D2*
X7420467Y8662907D03*
G04 #@! TO.N,REFFET2_D1*
X8330000Y8500000D03*
G04 #@! TO.N,ISFET2_D2*
X5123642Y6687003D03*
X11732040Y1572420D03*
G04 #@! TO.N,COIL*
X10068340Y-5321140D03*
G04 #@! TO.N,ISFET2_D3*
X4601010Y6559331D03*
X10736360Y3688240D03*
G04 #@! TO.N,ISFET2_D4*
X4459580Y6022940D03*
X10182640Y5953920D03*
G04 #@! TO.N,REFFET2_D4*
X4828320Y10274460D03*
G04 #@! TO.N,REFFET2_D3*
X5722400Y10269380D03*
G04 #@! TO.N,+BATT*
X8880000Y-7060000D03*
G04 #@! TO.N,VCC*
X441740Y6685440D03*
X4000000Y-4500000D03*
X3500000Y-4500000D03*
X-5438118Y6341577D03*
X235674Y9586314D03*
X-2766133Y10195573D03*
G04 #@! TO.N,GNDD*
X1191409Y11981292D03*
X-6788754Y9944025D03*
X-9131136Y7848132D03*
X-11264680Y4251800D03*
X-12039538Y142637D03*
X-12006156Y-907221D03*
X-11881399Y-1950174D03*
X-11362250Y-3983730D03*
X-11666218Y-2978285D03*
X-10971808Y-4958856D03*
X-10497864Y-5896242D03*
X-9944025Y-6788754D03*
X-9314506Y-7629600D03*
X-8614098Y-8412380D03*
X-7848132Y-9131136D03*
X-7022437Y-9780399D03*
X-6143297Y-10355227D03*
X-4251800Y-11264680D03*
X3983730Y-11362250D03*
X4958856Y-10971808D03*
X5896242Y-10497864D03*
X6788754Y-9944025D03*
X7629600Y-9314506D03*
X9131136Y-7848132D03*
X8412380Y-8614098D03*
X-7629600Y9314506D03*
X-8412380Y8614098D03*
X-10355227Y6143297D03*
X-9780399Y7022437D03*
X-5896242Y10497864D03*
X-4958856Y10971808D03*
X3253839Y11592383D03*
X2231114Y11831861D03*
X11831861Y-2231114D03*
X12006156Y907221D03*
X11666218Y2978285D03*
X4251800Y11264680D03*
X-381220Y-10373200D03*
X-2037300Y-9141300D03*
X1200000Y4500000D03*
X5200000Y4100000D03*
X6200000Y4100000D03*
X6200000Y3400000D03*
X5200000Y3400000D03*
X9684800Y-1831180D03*
X5887500Y-1470500D03*
X3217960Y-8879680D03*
X-5999629Y3503596D03*
X-6141940Y2034700D03*
X-7912320Y4330860D03*
X-7881840Y5552600D03*
X6200000Y4850000D03*
X-4059140Y-8315800D03*
X-1440400Y-7660480D03*
X990380Y-6088220D03*
X2194340Y-6083140D03*
X2201960Y-8679020D03*
X-10500000Y100000D03*
X-7676100Y-63340D03*
X-7665940Y-556100D03*
X-7686260Y-1061560D03*
X-8181560Y-1282540D03*
X-8463500Y-1754980D03*
X-8453340Y-2288380D03*
X-7914860Y-2303620D03*
X-7632920Y-4117180D03*
X-7132540Y-4373720D03*
X-7137620Y-3891120D03*
X-6037800Y-3987640D03*
X-5905720Y-2824320D03*
X-7683720Y-5552280D03*
X-8328880Y-5570060D03*
X-7869140Y-7906860D03*
X-8641300Y-7226140D03*
X-9009600Y-6509860D03*
X-9715720Y-5570060D03*
X-9106120Y-3957160D03*
X-11194000Y-2242660D03*
X-11041600Y-2725260D03*
X-10871420Y-3182460D03*
X-10665680Y-3637120D03*
X-10205940Y-4582000D03*
X-9962100Y-5041740D03*
X-10447240Y-4107020D03*
X-7114760Y-8633300D03*
X-6553420Y-9016840D03*
X-5522180Y-7365840D03*
X-3111720Y-10624660D03*
X-3782280Y-10454480D03*
X-424400Y-8254840D03*
X2295940Y-10441780D03*
X5768120Y-7320120D03*
X5958620Y-9174320D03*
X6941600Y-6354920D03*
X6390420Y-4762340D03*
X-142460Y-3085940D03*
X802420Y-3118960D03*
X5369340Y-4185760D03*
X-6248073Y-342193D03*
X-3391120Y2047400D03*
X-4198528Y5696547D03*
X903810Y9187800D03*
X-11475097Y-1858277D03*
X-10879250Y-1368900D03*
X-10879250Y-660240D03*
X-9004520Y261780D03*
X-8714960Y-1234280D03*
X-734280Y2657000D03*
X-6820120Y8412640D03*
X-434560Y11044080D03*
X-4204067Y3622347D03*
X-2696725Y2967320D03*
X-6040340Y8552340D03*
X8840000Y-5570000D03*
X3297194Y6627953D03*
X2490000Y4510000D03*
X2500000Y5190000D03*
X7100000Y9673010D03*
X11200000Y4460000D03*
X6750000Y750000D03*
X7500000Y-250000D03*
X11158000Y-4536280D03*
X-2250000Y-11500000D03*
X-3250000Y-11500000D03*
X-1250000Y-11500000D03*
X-250000Y-11500000D03*
X750000Y-11500000D03*
X1750000Y-11500000D03*
X2750000Y-11500000D03*
G04 #@! TO.N,ISFET2_SHNT*
X2351820Y9360060D03*
X1490760Y11105040D03*
G04 #@! TO.N,ADC_IN7*
X3964720Y2006760D03*
X-677540Y8242992D03*
G04 #@! TO.N,+5VA*
X9037100Y-1026000D03*
X4439700Y2728120D03*
X6238020Y7216300D03*
X4741960Y-9512140D03*
X4190780Y-10210640D03*
X-6417318Y3842685D03*
X-7404320Y3175160D03*
X-3068540Y2527460D03*
X1229464Y6320000D03*
G04 #@! TO.N,REFFET2_D*
X8630000Y7380000D03*
X4515295Y8429595D03*
G04 #@! TO.N,ADC_IN6*
X7898297Y2047370D03*
X-1232656Y8205508D03*
G04 #@! TO.N,TAG_EN*
X210988Y5313840D03*
X8203980Y-4655660D03*
G04 #@! TO.N,ISFET1_S*
X3647220Y3833020D03*
X7387570Y5592208D03*
X8940974Y1354335D03*
G04 #@! TO.N,ISFET2_S*
X1764651Y6835416D03*
X3650000Y9310000D03*
X9623798Y6649562D03*
G04 #@! TO.N,ISFET1_SHNT*
X8762780Y3157380D03*
X9624050Y4440080D03*
G04 #@! TO.N,ADC_IN3*
X2552480Y8394860D03*
X-2624626Y9197878D03*
G04 #@! TO.N,REFFET1_D*
X10220000Y550000D03*
X6382550Y-957450D03*
G04 #@! TO.N,ADC_IN0*
X7218460Y6814980D03*
X-3320391Y8932115D03*
G04 #@! TO.N,ADC_IN2*
X11119900Y1359060D03*
X-2364024Y8727194D03*
G04 #@! TO.N,Net-(C27-Pad2)*
X3667132Y4370653D03*
X8435120Y2082960D03*
X6859122Y5491266D03*
G04 #@! TO.N,ANT_SW*
X-9347420Y736760D03*
X-5034956Y7017752D03*
G04 #@! TO.N,Net-(C16-Pad1)*
X1640620Y-8745060D03*
X-4343620Y-8907620D03*
G04 #@! TO.N,RF_BUSY*
X-746041Y5048408D03*
X-2420840Y-2981800D03*
G04 #@! TO.N,RF_RST*
X-1303359Y5032434D03*
X-2958851Y-2981431D03*
G04 #@! TO.N,RF_MISO*
X-3642582Y-2885280D03*
X-3479341Y4065134D03*
G04 #@! TO.N,RF_MOSI*
X-4412200Y-2961480D03*
X-4120434Y5164233D03*
G04 #@! TO.N,RF_SCK*
X-5105620Y-3665060D03*
X-3826432Y4476211D03*
G04 #@! TO.N,RF_CS*
X-3066580Y4436073D03*
X-2964806Y-2443452D03*
G04 #@! TO.N,AFE_EN*
X-354485Y5424137D03*
X4589560Y-7477600D03*
G04 #@! TO.N,SWCLK*
X-2531952Y4496322D03*
X-1851880Y10853580D03*
G04 #@! TO.N,SWDIO*
X144560Y10622440D03*
X-2316414Y3347872D03*
G04 #@! TO.N,DAC_OUT1*
X8389252Y6050292D03*
X535550Y3227570D03*
X-1556799Y8634912D03*
G04 #@! TO.N,DAC_OUT2*
X-8283160Y7109620D03*
X-1909615Y9041085D03*
G04 #@! TO.N,ELEC2*
X-7831040Y1600360D03*
G04 #@! TO.N,ELEC_SNS1*
X-9438617Y2887920D03*
X-7861520Y2527460D03*
X-4970998Y-1287620D03*
G04 #@! TO.N,Net-(R3-Pad2)*
X1339673Y7689673D03*
X553494Y3765473D03*
G04 #@! TO.N,Net-(R16-Pad2)*
X6928900Y2890680D03*
X6126260Y5451000D03*
G04 #@! TO.N,O2_ELEC2*
X-9393140Y2159160D03*
G04 #@! TO.N,ADC_IN12*
X3502440Y11016140D03*
X-3698973Y8549842D03*
G04 #@! TO.N,MUX4IN0*
X-9283411Y4593311D03*
X-4902420Y6291740D03*
G04 #@! TO.N,MUX4IN1*
X-8501600Y4419760D03*
X-4858648Y5755522D03*
G04 #@! TO.N,MUX3IN1*
X-3935339Y1889020D03*
X-1922209Y3722209D03*
G04 #@! TO.N,MUX3IN0*
X-4616814Y2353620D03*
X-4080798Y7491822D03*
G04 #@! TO.N,MUX3EN*
X-762487Y5776596D03*
X-4661340Y1788320D03*
G04 #@! TO.N,MUX2IN0*
X-68505Y7586143D03*
X4919760Y8074820D03*
G04 #@! TO.N,MUX2IN1*
X-169630Y7057721D03*
X5476020Y8107840D03*
G04 #@! TO.N,MUX1IN1*
X212037Y5868800D03*
X10222795Y-1828349D03*
G04 #@! TO.N,MUX1IN0*
X-43568Y6342709D03*
X10109851Y-565186D03*
G04 #@! TD*
D10*
G04 #@! TO.N,ISFET2_D2*
X11732040Y1572420D02*
X11297700Y2006760D01*
G04 #@! TO.N,ISFET2_D4*
X10182640Y5953920D02*
X10182640Y5176680D01*
G04 #@! TO.N,REFFET2_D3*
X6171980Y9520080D02*
X6171980Y9771540D01*
X6171980Y9771540D02*
X5724940Y10218580D01*
X5724940Y10218580D02*
X5724940Y10243980D01*
G04 #@! TO.N,ELEC2*
X-7831040Y1600360D02*
X-10190700Y1600360D01*
X-10190700Y1600360D02*
X-10218640Y1600360D01*
X-10218640Y1600360D02*
X-11059380Y2441100D01*
X-11059380Y2441100D02*
X-11069540Y2441100D01*
G04 #@! TO.N,O2_ELEC2*
X-10391360Y4584860D02*
X-10391360Y3157380D01*
X-10391360Y3157380D02*
X-9618139Y2384159D01*
X-9618139Y2384159D02*
X-9393140Y2159160D01*
G04 #@! TO.N,MUX2IN0*
X4601562Y8074820D02*
X4919760Y8074820D01*
X1576306Y8247540D02*
X1938845Y7885001D01*
X1938845Y7885001D02*
X4411743Y7885001D01*
X-76420Y7574440D02*
X596680Y8247540D01*
X596680Y8247540D02*
X1576306Y8247540D01*
X4411743Y7885001D02*
X4601562Y8074820D01*
G04 #@! TO.N,MUX2IN1*
X5463320Y7951598D02*
X5463320Y8123080D01*
X1866730Y7691229D02*
X4844849Y7691229D01*
X148568Y7057721D02*
X1143521Y8052674D01*
X1143521Y8052674D02*
X1505286Y8052674D01*
X1505286Y8052674D02*
X1866730Y7691229D01*
X4844849Y7691229D02*
X4849659Y7686419D01*
X4849659Y7686419D02*
X5198141Y7686419D01*
X-169630Y7057721D02*
X148568Y7057721D01*
X5198141Y7686419D02*
X5463320Y7951598D01*
G04 #@! TD*
G04 #@! TO.N,GNDD*
G36*
X1928591Y12122192D02*
X3267823Y11831667D01*
X4566322Y11393670D01*
X5807907Y10813659D01*
X6977102Y10098863D01*
X8059324Y9258202D01*
X8488539Y8840229D01*
X8404592Y8875000D01*
X8255408Y8875000D01*
X8117579Y8817910D01*
X8028480Y8728811D01*
X8028480Y8760373D01*
X7929523Y8999275D01*
X7746675Y9182123D01*
X7507773Y9281080D01*
X7249187Y9281080D01*
X7010285Y9182123D01*
X6827437Y8999275D01*
X6728480Y8760373D01*
X6728480Y8501787D01*
X6827437Y8262885D01*
X7010285Y8080037D01*
X7249187Y7981080D01*
X7507773Y7981080D01*
X7746675Y8080037D01*
X7929523Y8262885D01*
X7975921Y8374899D01*
X8012090Y8287579D01*
X8117579Y8182090D01*
X8167151Y8161557D01*
X8092325Y8130563D01*
X7909477Y7947715D01*
X7810520Y7708813D01*
X7810520Y7450227D01*
X7909477Y7211325D01*
X8092325Y7028477D01*
X8331227Y6929520D01*
X8589813Y6929520D01*
X8828715Y7028477D01*
X9011563Y7211325D01*
X9110520Y7450227D01*
X9110520Y7708813D01*
X9011563Y7947715D01*
X8828715Y8130563D01*
X8589840Y8229509D01*
X8647910Y8287579D01*
X8705000Y8425408D01*
X8705000Y8574592D01*
X8666925Y8666514D01*
X9041101Y8302138D01*
X9910186Y7242596D01*
X10655749Y6092782D01*
X11268500Y4867023D01*
X11740796Y3580602D01*
X12066752Y2249553D01*
X12242307Y890468D01*
X12265271Y-479709D01*
X12135359Y-1843926D01*
X11903486Y-2950000D01*
X4620710Y-2950000D01*
X3424467Y-1753757D01*
X9847795Y-1753757D01*
X9847795Y-1902941D01*
X9904885Y-2040770D01*
X10010374Y-2146259D01*
X10148203Y-2203349D01*
X10297387Y-2203349D01*
X10435216Y-2146259D01*
X10540705Y-2040770D01*
X10597795Y-1902941D01*
X10597795Y-1753757D01*
X10540705Y-1615928D01*
X10435216Y-1510439D01*
X10297387Y-1453349D01*
X10148203Y-1453349D01*
X10010374Y-1510439D01*
X9904885Y-1615928D01*
X9847795Y-1753757D01*
X3424467Y-1753757D01*
X3350000Y-1679290D01*
X3350000Y-882858D01*
X6007550Y-882858D01*
X6007550Y-1032042D01*
X6064640Y-1169871D01*
X6170129Y-1275360D01*
X6307958Y-1332450D01*
X6457142Y-1332450D01*
X6594971Y-1275360D01*
X6700460Y-1169871D01*
X6757550Y-1032042D01*
X6757550Y-951408D01*
X8662100Y-951408D01*
X8662100Y-1100592D01*
X8719190Y-1238421D01*
X8824679Y-1343910D01*
X8962508Y-1401000D01*
X9111692Y-1401000D01*
X9249521Y-1343910D01*
X9355010Y-1238421D01*
X9412100Y-1100592D01*
X9412100Y-951408D01*
X9355010Y-813579D01*
X9249521Y-708090D01*
X9111692Y-651000D01*
X8962508Y-651000D01*
X8824679Y-708090D01*
X8719190Y-813579D01*
X8662100Y-951408D01*
X6757550Y-951408D01*
X6757550Y-882858D01*
X6700460Y-745029D01*
X6594971Y-639540D01*
X6457142Y-582450D01*
X6307958Y-582450D01*
X6170129Y-639540D01*
X6064640Y-745029D01*
X6007550Y-882858D01*
X3350000Y-882858D01*
X3350000Y-490594D01*
X9734851Y-490594D01*
X9734851Y-639778D01*
X9791941Y-777607D01*
X9897430Y-883096D01*
X10035259Y-940186D01*
X10184443Y-940186D01*
X10322272Y-883096D01*
X10427761Y-777607D01*
X10484851Y-639778D01*
X10484851Y-490594D01*
X10427761Y-352765D01*
X10322272Y-247276D01*
X10184443Y-190186D01*
X10035259Y-190186D01*
X9897430Y-247276D01*
X9791941Y-352765D01*
X9734851Y-490594D01*
X3350000Y-490594D01*
X3350000Y624592D01*
X9845000Y624592D01*
X9845000Y475408D01*
X9902090Y337579D01*
X10007579Y232090D01*
X10145408Y175000D01*
X10294592Y175000D01*
X10432421Y232090D01*
X10537910Y337579D01*
X10595000Y475408D01*
X10595000Y624592D01*
X10537910Y762421D01*
X10432421Y867910D01*
X10294592Y925000D01*
X10145408Y925000D01*
X10007579Y867910D01*
X9902090Y762421D01*
X9845000Y624592D01*
X3350000Y624592D01*
X3350000Y1428927D01*
X8565974Y1428927D01*
X8565974Y1279743D01*
X8623064Y1141914D01*
X8728553Y1036425D01*
X8866382Y979335D01*
X9015566Y979335D01*
X9153395Y1036425D01*
X9258884Y1141914D01*
X9315974Y1279743D01*
X9315974Y1428927D01*
X9258884Y1566756D01*
X9153395Y1672245D01*
X9015566Y1729335D01*
X8866382Y1729335D01*
X8728553Y1672245D01*
X8623064Y1566756D01*
X8565974Y1428927D01*
X3350000Y1428927D01*
X3350000Y1600000D01*
X3345392Y1620965D01*
X3333914Y1636740D01*
X2852251Y2081352D01*
X3589720Y2081352D01*
X3589720Y1932168D01*
X3646810Y1794339D01*
X3752299Y1688850D01*
X3890128Y1631760D01*
X4039312Y1631760D01*
X4177141Y1688850D01*
X4282630Y1794339D01*
X4339720Y1932168D01*
X4339720Y2081352D01*
X4322899Y2121962D01*
X7523297Y2121962D01*
X7523297Y1972778D01*
X7580387Y1834949D01*
X7685876Y1729460D01*
X7823705Y1672370D01*
X7972889Y1672370D01*
X8110718Y1729460D01*
X8184504Y1803246D01*
X8222699Y1765050D01*
X8360528Y1707960D01*
X8509712Y1707960D01*
X8647541Y1765050D01*
X8753030Y1870539D01*
X8810120Y2008368D01*
X8810120Y2157552D01*
X8753030Y2295381D01*
X8688838Y2359573D01*
X10485140Y2359573D01*
X10485140Y2100987D01*
X10584097Y1862085D01*
X10766945Y1679237D01*
X10867920Y1637411D01*
X10801990Y1571481D01*
X10744900Y1433652D01*
X10744900Y1284468D01*
X10801990Y1146639D01*
X10907479Y1041150D01*
X11045308Y984060D01*
X11194492Y984060D01*
X11332321Y1041150D01*
X11437810Y1146639D01*
X11493366Y1280763D01*
X11519619Y1254510D01*
X11657448Y1197420D01*
X11806632Y1197420D01*
X11944461Y1254510D01*
X12049950Y1359999D01*
X12107040Y1497828D01*
X12107040Y1647012D01*
X12049950Y1784841D01*
X11944461Y1890330D01*
X11806632Y1947420D01*
X11721530Y1947420D01*
X11785140Y2100987D01*
X11785140Y2359573D01*
X11686183Y2598475D01*
X11503335Y2781323D01*
X11264433Y2880280D01*
X11005847Y2880280D01*
X10766945Y2781323D01*
X10584097Y2598475D01*
X10485140Y2359573D01*
X8688838Y2359573D01*
X8647541Y2400870D01*
X8509712Y2457960D01*
X8360528Y2457960D01*
X8222699Y2400870D01*
X8148914Y2327085D01*
X8110718Y2365280D01*
X7972889Y2422370D01*
X7823705Y2422370D01*
X7685876Y2365280D01*
X7580387Y2259791D01*
X7523297Y2121962D01*
X4322899Y2121962D01*
X4282630Y2219181D01*
X4177141Y2324670D01*
X4039312Y2381760D01*
X3890128Y2381760D01*
X3752299Y2324670D01*
X3646810Y2219181D01*
X3589720Y2081352D01*
X2852251Y2081352D01*
X2070778Y2802712D01*
X4064700Y2802712D01*
X4064700Y2653528D01*
X4121790Y2515699D01*
X4227279Y2410210D01*
X4365108Y2353120D01*
X4514292Y2353120D01*
X4652121Y2410210D01*
X4757610Y2515699D01*
X4814700Y2653528D01*
X4814700Y2802712D01*
X4757610Y2940541D01*
X4732879Y2965272D01*
X6553900Y2965272D01*
X6553900Y2816088D01*
X6610990Y2678259D01*
X6716479Y2572770D01*
X6854308Y2515680D01*
X7003492Y2515680D01*
X7141321Y2572770D01*
X7246810Y2678259D01*
X7303900Y2816088D01*
X7303900Y2965272D01*
X7246810Y3103101D01*
X7141321Y3208590D01*
X7084872Y3231972D01*
X8387780Y3231972D01*
X8387780Y3082788D01*
X8444870Y2944959D01*
X8550359Y2839470D01*
X8688188Y2782380D01*
X8837372Y2782380D01*
X8975201Y2839470D01*
X9080690Y2944959D01*
X9137780Y3082788D01*
X9137780Y3231972D01*
X9080690Y3369801D01*
X8975201Y3475290D01*
X8837372Y3532380D01*
X8688188Y3532380D01*
X8550359Y3475290D01*
X8444870Y3369801D01*
X8387780Y3231972D01*
X7084872Y3231972D01*
X7003492Y3265680D01*
X6854308Y3265680D01*
X6716479Y3208590D01*
X6610990Y3103101D01*
X6553900Y2965272D01*
X4732879Y2965272D01*
X4652121Y3046030D01*
X4514292Y3103120D01*
X4365108Y3103120D01*
X4227279Y3046030D01*
X4121790Y2940541D01*
X4064700Y2802712D01*
X2070778Y2802712D01*
X917051Y3867690D01*
X900516Y3907612D01*
X3272220Y3907612D01*
X3272220Y3758428D01*
X3329310Y3620599D01*
X3434799Y3515110D01*
X3572628Y3458020D01*
X3721812Y3458020D01*
X3859641Y3515110D01*
X3965130Y3620599D01*
X4022220Y3758428D01*
X4022220Y3814993D01*
X10081280Y3814993D01*
X10081280Y3556407D01*
X10180237Y3317505D01*
X10363085Y3134657D01*
X10601987Y3035700D01*
X10860573Y3035700D01*
X11099475Y3134657D01*
X11282323Y3317505D01*
X11381280Y3556407D01*
X11381280Y3814993D01*
X11282323Y4053895D01*
X11099475Y4236743D01*
X10860573Y4335700D01*
X10601987Y4335700D01*
X10363085Y4236743D01*
X10180237Y4053895D01*
X10081280Y3814993D01*
X4022220Y3814993D01*
X4022220Y3907612D01*
X3965130Y4045441D01*
X3918691Y4091881D01*
X3985042Y4158232D01*
X4042132Y4296061D01*
X4042132Y4445245D01*
X3985042Y4583074D01*
X3879553Y4688563D01*
X3741724Y4745653D01*
X3592540Y4745653D01*
X3454711Y4688563D01*
X3349222Y4583074D01*
X3292132Y4445245D01*
X3292132Y4296061D01*
X3349222Y4158232D01*
X3395662Y4111793D01*
X3329310Y4045441D01*
X3272220Y3907612D01*
X900516Y3907612D01*
X871404Y3977894D01*
X765915Y4083383D01*
X628086Y4140473D01*
X478902Y4140473D01*
X341073Y4083383D01*
X235584Y3977894D01*
X178494Y3840065D01*
X178494Y3690881D01*
X235584Y3553052D01*
X283143Y3505494D01*
X217640Y3439991D01*
X160550Y3302162D01*
X160550Y3152978D01*
X217640Y3015149D01*
X323129Y2909660D01*
X460958Y2852570D01*
X610142Y2852570D01*
X747971Y2909660D01*
X853460Y3015149D01*
X910550Y3152978D01*
X910550Y3302162D01*
X853460Y3439991D01*
X805902Y3487550D01*
X827349Y3508997D01*
X2950000Y1478636D01*
X2950000Y-1900000D01*
X2953331Y-1917944D01*
X2963750Y-1934437D01*
X4863750Y-3934437D01*
X4880866Y-3946194D01*
X4900000Y-3950000D01*
X11602131Y-3950000D01*
X11425268Y-4486673D01*
X10853943Y-5732269D01*
X10147328Y-6906428D01*
X9807703Y-7350000D01*
X9541140Y-7350000D01*
X9638840Y-7114133D01*
X9638840Y-6855547D01*
X9539883Y-6616645D01*
X9357035Y-6433797D01*
X9118133Y-6334840D01*
X8859547Y-6334840D01*
X8620645Y-6433797D01*
X8437797Y-6616645D01*
X8338840Y-6855547D01*
X8338840Y-7114133D01*
X8436540Y-7350000D01*
X6500000Y-7350000D01*
X6480866Y-7353806D01*
X6464645Y-7364645D01*
X6453806Y-7380866D01*
X6450000Y-7400000D01*
X6450000Y-10426648D01*
X6167019Y-10612957D01*
X4945574Y-11234247D01*
X3657606Y-11717341D01*
X3466755Y-11775000D01*
X-3460715Y-11775000D01*
X-4724955Y-11328804D01*
X-5958329Y-10731511D01*
X-7069727Y-10030547D01*
X-5786100Y-10030547D01*
X-5786100Y-10289133D01*
X-5687143Y-10528035D01*
X-5504295Y-10710883D01*
X-5265393Y-10809840D01*
X-5006807Y-10809840D01*
X-4767905Y-10710883D01*
X-4585057Y-10528035D01*
X-4486100Y-10289133D01*
X-4486100Y-10136048D01*
X3815780Y-10136048D01*
X3815780Y-10285232D01*
X3872870Y-10423061D01*
X3978359Y-10528550D01*
X4116188Y-10585640D01*
X4265372Y-10585640D01*
X4403201Y-10528550D01*
X4508690Y-10423061D01*
X4565780Y-10285232D01*
X4565780Y-10136048D01*
X4508690Y-9998219D01*
X4403201Y-9892730D01*
X4265372Y-9835640D01*
X4116188Y-9835640D01*
X3978359Y-9892730D01*
X3872870Y-9998219D01*
X3815780Y-10136048D01*
X-4486100Y-10136048D01*
X-4486100Y-10030547D01*
X-4585057Y-9791645D01*
X-4767905Y-9608797D01*
X-5006807Y-9509840D01*
X-5265393Y-9509840D01*
X-5504295Y-9608797D01*
X-5687143Y-9791645D01*
X-5786100Y-10030547D01*
X-7069727Y-10030547D01*
X-7117422Y-10000466D01*
X-7821571Y-9437548D01*
X4366960Y-9437548D01*
X4366960Y-9586732D01*
X4424050Y-9724561D01*
X4529539Y-9830050D01*
X4667368Y-9887140D01*
X4816552Y-9887140D01*
X4954381Y-9830050D01*
X5059870Y-9724561D01*
X5116960Y-9586732D01*
X5116960Y-9437548D01*
X5059870Y-9299719D01*
X4954381Y-9194230D01*
X4816552Y-9137140D01*
X4667368Y-9137140D01*
X4529539Y-9194230D01*
X4424050Y-9299719D01*
X4366960Y-9437548D01*
X-7821571Y-9437548D01*
X-8187807Y-9144769D01*
X-8499115Y-8833028D01*
X-4718620Y-8833028D01*
X-4718620Y-8982212D01*
X-4661530Y-9120041D01*
X-4556041Y-9225530D01*
X-4418212Y-9282620D01*
X-4269028Y-9282620D01*
X-4131199Y-9225530D01*
X-4025710Y-9120041D01*
X-3968620Y-8982212D01*
X-3968620Y-8833028D01*
X-4025710Y-8695199D01*
X-4050441Y-8670468D01*
X1265620Y-8670468D01*
X1265620Y-8819652D01*
X1322710Y-8957481D01*
X1428199Y-9062970D01*
X1566028Y-9120060D01*
X1715212Y-9120060D01*
X1853041Y-9062970D01*
X1958530Y-8957481D01*
X2015620Y-8819652D01*
X2015620Y-8670468D01*
X1958530Y-8532639D01*
X1853041Y-8427150D01*
X1715212Y-8370060D01*
X1566028Y-8370060D01*
X1428199Y-8427150D01*
X1322710Y-8532639D01*
X1265620Y-8670468D01*
X-4050441Y-8670468D01*
X-4131199Y-8589710D01*
X-4269028Y-8532620D01*
X-4418212Y-8532620D01*
X-4556041Y-8589710D01*
X-4661530Y-8695199D01*
X-4718620Y-8833028D01*
X-8499115Y-8833028D01*
X-9156133Y-8175098D01*
X-9771606Y-7403008D01*
X4214560Y-7403008D01*
X4214560Y-7552192D01*
X4271650Y-7690021D01*
X4377139Y-7795510D01*
X4514968Y-7852600D01*
X4664152Y-7852600D01*
X4801981Y-7795510D01*
X4907470Y-7690021D01*
X4964560Y-7552192D01*
X4964560Y-7403008D01*
X4907470Y-7265179D01*
X4801981Y-7159690D01*
X4664152Y-7102600D01*
X4514968Y-7102600D01*
X4377139Y-7159690D01*
X4271650Y-7265179D01*
X4214560Y-7403008D01*
X-9771606Y-7403008D01*
X-10010349Y-7103514D01*
X-10739781Y-5943409D01*
X-11111035Y-5174067D01*
X9428500Y-5174067D01*
X9428500Y-5432653D01*
X9527457Y-5671555D01*
X9710305Y-5854403D01*
X9949207Y-5953360D01*
X10207793Y-5953360D01*
X10446695Y-5854403D01*
X10629543Y-5671555D01*
X10728500Y-5432653D01*
X10728500Y-5174067D01*
X10629543Y-4935165D01*
X10446695Y-4752317D01*
X10207793Y-4653360D01*
X9949207Y-4653360D01*
X9710305Y-4752317D01*
X9527457Y-4935165D01*
X9428500Y-5174067D01*
X-11111035Y-5174067D01*
X-11335354Y-4709218D01*
X-11435077Y-4425408D01*
X3125000Y-4425408D01*
X3125000Y-4574592D01*
X3182090Y-4712421D01*
X3287579Y-4817910D01*
X3425408Y-4875000D01*
X3574592Y-4875000D01*
X3712421Y-4817910D01*
X3750000Y-4780331D01*
X3787579Y-4817910D01*
X3925408Y-4875000D01*
X4074592Y-4875000D01*
X4212421Y-4817910D01*
X4317910Y-4712421D01*
X4372317Y-4581068D01*
X7828980Y-4581068D01*
X7828980Y-4730252D01*
X7886070Y-4868081D01*
X7991559Y-4973570D01*
X8129388Y-5030660D01*
X8278572Y-5030660D01*
X8416401Y-4973570D01*
X8521890Y-4868081D01*
X8578980Y-4730252D01*
X8578980Y-4581068D01*
X8521890Y-4443239D01*
X8416401Y-4337750D01*
X8278572Y-4280660D01*
X8129388Y-4280660D01*
X7991559Y-4337750D01*
X7886070Y-4443239D01*
X7828980Y-4581068D01*
X4372317Y-4581068D01*
X4375000Y-4574592D01*
X4375000Y-4425408D01*
X4317910Y-4287579D01*
X4212421Y-4182090D01*
X4074592Y-4125000D01*
X3925408Y-4125000D01*
X3787579Y-4182090D01*
X3750000Y-4219669D01*
X3712421Y-4182090D01*
X3574592Y-4125000D01*
X3425408Y-4125000D01*
X3287579Y-4182090D01*
X3182090Y-4287579D01*
X3125000Y-4425408D01*
X-11435077Y-4425408D01*
X-11728455Y-3590468D01*
X-5480620Y-3590468D01*
X-5480620Y-3739652D01*
X-5423530Y-3877481D01*
X-5318041Y-3982970D01*
X-5180212Y-4040060D01*
X-5031028Y-4040060D01*
X-4893199Y-3982970D01*
X-4787710Y-3877481D01*
X-4730620Y-3739652D01*
X-4730620Y-3590468D01*
X-4787710Y-3452639D01*
X-4893199Y-3347150D01*
X-5031028Y-3290060D01*
X-5180212Y-3290060D01*
X-5318041Y-3347150D01*
X-5423530Y-3452639D01*
X-5480620Y-3590468D01*
X-11728455Y-3590468D01*
X-11789645Y-3416325D01*
X-11911487Y-2886888D01*
X-4787200Y-2886888D01*
X-4787200Y-3036072D01*
X-4730110Y-3173901D01*
X-4624621Y-3279390D01*
X-4486792Y-3336480D01*
X-4337608Y-3336480D01*
X-4199779Y-3279390D01*
X-4094290Y-3173901D01*
X-4037200Y-3036072D01*
X-4037200Y-2886888D01*
X-4068762Y-2810688D01*
X-4017582Y-2810688D01*
X-4017582Y-2959872D01*
X-3960492Y-3097701D01*
X-3855003Y-3203190D01*
X-3717174Y-3260280D01*
X-3567990Y-3260280D01*
X-3430161Y-3203190D01*
X-3324672Y-3097701D01*
X-3320630Y-3087942D01*
X-3276761Y-3193852D01*
X-3171272Y-3299341D01*
X-3033443Y-3356431D01*
X-2884259Y-3356431D01*
X-2746430Y-3299341D01*
X-2690030Y-3242941D01*
X-2633261Y-3299710D01*
X-2495432Y-3356800D01*
X-2346248Y-3356800D01*
X-2208419Y-3299710D01*
X-2102930Y-3194221D01*
X-2045840Y-3056392D01*
X-2045840Y-2907208D01*
X-2102930Y-2769379D01*
X-2208419Y-2663890D01*
X-2346248Y-2606800D01*
X-2495432Y-2606800D01*
X-2633261Y-2663890D01*
X-2689661Y-2720290D01*
X-2700487Y-2709464D01*
X-2646896Y-2655873D01*
X-2589806Y-2518044D01*
X-2589806Y-2368860D01*
X-2646896Y-2231031D01*
X-2752385Y-2125542D01*
X-2890214Y-2068452D01*
X-3039398Y-2068452D01*
X-3177227Y-2125542D01*
X-3282716Y-2231031D01*
X-3339806Y-2368860D01*
X-3339806Y-2518044D01*
X-3282716Y-2655873D01*
X-3223170Y-2715419D01*
X-3276761Y-2769010D01*
X-3280803Y-2778769D01*
X-3324672Y-2672859D01*
X-3430161Y-2567370D01*
X-3567990Y-2510280D01*
X-3717174Y-2510280D01*
X-3855003Y-2567370D01*
X-3960492Y-2672859D01*
X-4017582Y-2810688D01*
X-4068762Y-2810688D01*
X-4094290Y-2749059D01*
X-4199779Y-2643570D01*
X-4337608Y-2586480D01*
X-4486792Y-2586480D01*
X-4624621Y-2643570D01*
X-4730110Y-2749059D01*
X-4787200Y-2886888D01*
X-11911487Y-2886888D01*
X-12096983Y-2080864D01*
X-12196784Y-1213028D01*
X-5345998Y-1213028D01*
X-5345998Y-1362212D01*
X-5288908Y-1500041D01*
X-5183419Y-1605530D01*
X-5045590Y-1662620D01*
X-4896406Y-1662620D01*
X-4758577Y-1605530D01*
X-4653088Y-1500041D01*
X-4595998Y-1362212D01*
X-4595998Y-1213028D01*
X-4653088Y-1075199D01*
X-4758577Y-969710D01*
X-4896406Y-912620D01*
X-5045590Y-912620D01*
X-5183419Y-969710D01*
X-5288908Y-1075199D01*
X-5345998Y-1213028D01*
X-12196784Y-1213028D01*
X-12253546Y-719451D01*
X-12257378Y650918D01*
X-12239837Y811352D01*
X-9722420Y811352D01*
X-9722420Y662168D01*
X-9665330Y524339D01*
X-9559841Y418850D01*
X-9422012Y361760D01*
X-9272828Y361760D01*
X-9134999Y418850D01*
X-9029510Y524339D01*
X-8972420Y662168D01*
X-8972420Y811352D01*
X-9029510Y949181D01*
X-9134999Y1054670D01*
X-9272828Y1111760D01*
X-9422012Y1111760D01*
X-9559841Y1054670D01*
X-9665330Y949181D01*
X-9722420Y811352D01*
X-12239837Y811352D01*
X-12108431Y2013179D01*
X-11971511Y2623733D01*
X-11722080Y2623733D01*
X-11722080Y2365147D01*
X-11623123Y2126245D01*
X-11440275Y1943397D01*
X-11201373Y1844440D01*
X-10942787Y1844440D01*
X-10803328Y1902206D01*
X-10373990Y1472867D01*
X-10362832Y1456168D01*
X-10296676Y1411964D01*
X-10238338Y1400360D01*
X-10238337Y1400360D01*
X-10218640Y1396442D01*
X-10198944Y1400360D01*
X-8154095Y1400360D01*
X-8148950Y1387939D01*
X-8043461Y1282450D01*
X-7905632Y1225360D01*
X-7756448Y1225360D01*
X-7618619Y1282450D01*
X-7513130Y1387939D01*
X-7456040Y1525768D01*
X-7456040Y1674952D01*
X-7513130Y1812781D01*
X-7563261Y1862912D01*
X-5036340Y1862912D01*
X-5036340Y1713728D01*
X-4979250Y1575899D01*
X-4873761Y1470410D01*
X-4735932Y1413320D01*
X-4586748Y1413320D01*
X-4448919Y1470410D01*
X-4343430Y1575899D01*
X-4286340Y1713728D01*
X-4286340Y1756489D01*
X-4253249Y1676599D01*
X-4147760Y1571110D01*
X-4009931Y1514020D01*
X-3860747Y1514020D01*
X-3722918Y1571110D01*
X-3617429Y1676599D01*
X-3560339Y1814428D01*
X-3560339Y1963612D01*
X-3617429Y2101441D01*
X-3722918Y2206930D01*
X-3860747Y2264020D01*
X-4009931Y2264020D01*
X-4147760Y2206930D01*
X-4253249Y2101441D01*
X-4310339Y1963612D01*
X-4310339Y1920851D01*
X-4343430Y2000741D01*
X-4391396Y2048707D01*
X-4298904Y2141199D01*
X-4241814Y2279028D01*
X-4241814Y2428212D01*
X-4298904Y2566041D01*
X-4334915Y2602052D01*
X-3443540Y2602052D01*
X-3443540Y2452868D01*
X-3386450Y2315039D01*
X-3280961Y2209550D01*
X-3143132Y2152460D01*
X-2993948Y2152460D01*
X-2856119Y2209550D01*
X-2750630Y2315039D01*
X-2693540Y2452868D01*
X-2693540Y2602052D01*
X-2750630Y2739881D01*
X-2856119Y2845370D01*
X-2993948Y2902460D01*
X-3143132Y2902460D01*
X-3280961Y2845370D01*
X-3386450Y2739881D01*
X-3443540Y2602052D01*
X-4334915Y2602052D01*
X-4404393Y2671530D01*
X-4542222Y2728620D01*
X-4691406Y2728620D01*
X-4829235Y2671530D01*
X-4934724Y2566041D01*
X-4991814Y2428212D01*
X-4991814Y2279028D01*
X-4934724Y2141199D01*
X-4886758Y2093233D01*
X-4979250Y2000741D01*
X-5036340Y1862912D01*
X-7563261Y1862912D01*
X-7618619Y1918270D01*
X-7756448Y1975360D01*
X-7905632Y1975360D01*
X-8043461Y1918270D01*
X-8148950Y1812781D01*
X-8154095Y1800360D01*
X-9279437Y1800360D01*
X-9180719Y1841250D01*
X-9075230Y1946739D01*
X-9018140Y2084568D01*
X-9018140Y2233752D01*
X-9075230Y2371581D01*
X-9180719Y2477070D01*
X-9315647Y2532958D01*
X-9226196Y2570010D01*
X-9194154Y2602052D01*
X-8236520Y2602052D01*
X-8236520Y2452868D01*
X-8179430Y2315039D01*
X-8073941Y2209550D01*
X-7936112Y2152460D01*
X-7786928Y2152460D01*
X-7649099Y2209550D01*
X-7543610Y2315039D01*
X-7486520Y2452868D01*
X-7486520Y2602052D01*
X-7543610Y2739881D01*
X-7649099Y2845370D01*
X-7786928Y2902460D01*
X-7936112Y2902460D01*
X-8073941Y2845370D01*
X-8179430Y2739881D01*
X-8236520Y2602052D01*
X-9194154Y2602052D01*
X-9120707Y2675499D01*
X-9063617Y2813328D01*
X-9063617Y2962512D01*
X-9120707Y3100341D01*
X-9226196Y3205830D01*
X-9332234Y3249752D01*
X-7779320Y3249752D01*
X-7779320Y3100568D01*
X-7722230Y2962739D01*
X-7616741Y2857250D01*
X-7478912Y2800160D01*
X-7329728Y2800160D01*
X-7191899Y2857250D01*
X-7086410Y2962739D01*
X-7029320Y3100568D01*
X-7029320Y3249752D01*
X-7086410Y3387581D01*
X-7121293Y3422464D01*
X-2691414Y3422464D01*
X-2691414Y3273280D01*
X-2634324Y3135451D01*
X-2528835Y3029962D01*
X-2391006Y2972872D01*
X-2241822Y2972872D01*
X-2103993Y3029962D01*
X-1998504Y3135451D01*
X-1941414Y3273280D01*
X-1941414Y3347209D01*
X-1847617Y3347209D01*
X-1709788Y3404299D01*
X-1604299Y3509788D01*
X-1547209Y3647617D01*
X-1547209Y3796801D01*
X-1604299Y3934630D01*
X-1709788Y4040119D01*
X-1847617Y4097209D01*
X-1996801Y4097209D01*
X-2134630Y4040119D01*
X-2240119Y3934630D01*
X-2297209Y3796801D01*
X-2297209Y3722872D01*
X-2391006Y3722872D01*
X-2528835Y3665782D01*
X-2634324Y3560293D01*
X-2691414Y3422464D01*
X-7121293Y3422464D01*
X-7191899Y3493070D01*
X-7329728Y3550160D01*
X-7478912Y3550160D01*
X-7616741Y3493070D01*
X-7722230Y3387581D01*
X-7779320Y3249752D01*
X-9332234Y3249752D01*
X-9364025Y3262920D01*
X-9513209Y3262920D01*
X-9651038Y3205830D01*
X-9756527Y3100341D01*
X-9813617Y2962512D01*
X-9813617Y2862479D01*
X-10191360Y3240221D01*
X-10191360Y3917277D01*
X-6792318Y3917277D01*
X-6792318Y3768093D01*
X-6735228Y3630264D01*
X-6629739Y3524775D01*
X-6491910Y3467685D01*
X-6342726Y3467685D01*
X-6204897Y3524775D01*
X-6099408Y3630264D01*
X-6042318Y3768093D01*
X-6042318Y3917277D01*
X-6099408Y4055106D01*
X-6204897Y4160595D01*
X-6342726Y4217685D01*
X-6491910Y4217685D01*
X-6629739Y4160595D01*
X-6735228Y4055106D01*
X-6792318Y3917277D01*
X-10191360Y3917277D01*
X-10191360Y3947856D01*
X-10020625Y4018577D01*
X-9837777Y4201425D01*
X-9738820Y4440327D01*
X-9738820Y4667903D01*
X-9658411Y4667903D01*
X-9658411Y4518719D01*
X-9601321Y4380890D01*
X-9495832Y4275401D01*
X-9358003Y4218311D01*
X-9208819Y4218311D01*
X-9070990Y4275401D01*
X-8965501Y4380890D01*
X-8918505Y4494352D01*
X-8876600Y4494352D01*
X-8876600Y4345168D01*
X-8819510Y4207339D01*
X-8714021Y4101850D01*
X-8576192Y4044760D01*
X-8427008Y4044760D01*
X-8289179Y4101850D01*
X-8183690Y4207339D01*
X-8126600Y4345168D01*
X-8126600Y4494352D01*
X-8183690Y4632181D01*
X-8289179Y4737670D01*
X-8427008Y4794760D01*
X-8576192Y4794760D01*
X-8714021Y4737670D01*
X-8819510Y4632181D01*
X-8876600Y4494352D01*
X-8918505Y4494352D01*
X-8908411Y4518719D01*
X-8908411Y4667903D01*
X-8965501Y4805732D01*
X-9070990Y4911221D01*
X-9208819Y4968311D01*
X-9358003Y4968311D01*
X-9495832Y4911221D01*
X-9601321Y4805732D01*
X-9658411Y4667903D01*
X-9738820Y4667903D01*
X-9738820Y4698913D01*
X-9837777Y4937815D01*
X-10020625Y5120663D01*
X-10259527Y5219620D01*
X-10518113Y5219620D01*
X-10757015Y5120663D01*
X-10939863Y4937815D01*
X-11038820Y4698913D01*
X-11038820Y4440327D01*
X-10939863Y4201425D01*
X-10757015Y4018577D01*
X-10591360Y3949960D01*
X-10591359Y3177081D01*
X-10595278Y3157380D01*
X-10584481Y3103101D01*
X-10579755Y3079344D01*
X-10535551Y3013188D01*
X-10518849Y3002028D01*
X-9762995Y2246172D01*
X-9768140Y2233752D01*
X-9768140Y2084568D01*
X-9711050Y1946739D01*
X-9605561Y1841250D01*
X-9506843Y1800360D01*
X-10135797Y1800360D01*
X-10503653Y2168215D01*
X-10422080Y2365147D01*
X-10422080Y2623733D01*
X-10521037Y2862635D01*
X-10703885Y3045483D01*
X-10942787Y3144440D01*
X-11201373Y3144440D01*
X-11440275Y3045483D01*
X-11623123Y2862635D01*
X-11722080Y2623733D01*
X-11971511Y2623733D01*
X-11808564Y3350343D01*
X-11361510Y4645760D01*
X-11079398Y5238825D01*
X-4495434Y5238825D01*
X-4495434Y5089641D01*
X-4438344Y4951812D01*
X-4332855Y4846323D01*
X-4195026Y4789233D01*
X-4045842Y4789233D01*
X-4042255Y4790719D01*
X-4144342Y4688632D01*
X-4201432Y4550803D01*
X-4201432Y4401619D01*
X-4144342Y4263790D01*
X-4038853Y4158301D01*
X-3901024Y4101211D01*
X-3854341Y4101211D01*
X-3854341Y3990542D01*
X-3797251Y3852713D01*
X-3691762Y3747224D01*
X-3553933Y3690134D01*
X-3404749Y3690134D01*
X-3266920Y3747224D01*
X-3161431Y3852713D01*
X-3104341Y3990542D01*
X-3104341Y4061073D01*
X-2991988Y4061073D01*
X-2854159Y4118163D01*
X-2769142Y4203181D01*
X-2744373Y4178412D01*
X-2606544Y4121322D01*
X-2457360Y4121322D01*
X-2319531Y4178412D01*
X-2214042Y4283901D01*
X-2156952Y4421730D01*
X-2156952Y4570914D01*
X-2214042Y4708743D01*
X-2319531Y4814232D01*
X-2457360Y4871322D01*
X-2606544Y4871322D01*
X-2744373Y4814232D01*
X-2829391Y4729215D01*
X-2854159Y4753983D01*
X-2991988Y4811073D01*
X-3141172Y4811073D01*
X-3279001Y4753983D01*
X-3384490Y4648494D01*
X-3441580Y4510665D01*
X-3441580Y4440134D01*
X-3451432Y4440134D01*
X-3451432Y4550803D01*
X-3508522Y4688632D01*
X-3614011Y4794121D01*
X-3751840Y4851211D01*
X-3901024Y4851211D01*
X-3904611Y4849725D01*
X-3802524Y4951812D01*
X-3745434Y5089641D01*
X-3745434Y5107026D01*
X-1678359Y5107026D01*
X-1678359Y4957842D01*
X-1621269Y4820013D01*
X-1515780Y4714524D01*
X-1377951Y4657434D01*
X-1228767Y4657434D01*
X-1090938Y4714524D01*
X-1016713Y4788749D01*
X-958462Y4730498D01*
X-820633Y4673408D01*
X-671449Y4673408D01*
X-533620Y4730498D01*
X-428131Y4835987D01*
X-371041Y4973816D01*
X-371041Y5049137D01*
X-279893Y5049137D01*
X-142064Y5106227D01*
X-118623Y5129668D01*
X-106922Y5101419D01*
X-1433Y4995930D01*
X136396Y4938840D01*
X285580Y4938840D01*
X423409Y4995930D01*
X528898Y5101419D01*
X585988Y5239248D01*
X585988Y5388432D01*
X529176Y5525592D01*
X5751260Y5525592D01*
X5751260Y5376408D01*
X5808350Y5238579D01*
X5913839Y5133090D01*
X6051668Y5076000D01*
X6200852Y5076000D01*
X6338681Y5133090D01*
X6444170Y5238579D01*
X6501030Y5375853D01*
X6541212Y5278845D01*
X6646701Y5173356D01*
X6784530Y5116266D01*
X6933714Y5116266D01*
X7071543Y5173356D01*
X7173817Y5275630D01*
X7175149Y5274298D01*
X7312978Y5217208D01*
X7462162Y5217208D01*
X7599991Y5274298D01*
X7705480Y5379787D01*
X7762570Y5517616D01*
X7762570Y5666800D01*
X7705480Y5804629D01*
X7599991Y5910118D01*
X7462162Y5967208D01*
X7312978Y5967208D01*
X7175149Y5910118D01*
X7072875Y5807844D01*
X7071543Y5809176D01*
X6933714Y5866266D01*
X6784530Y5866266D01*
X6646701Y5809176D01*
X6541212Y5703687D01*
X6484352Y5566413D01*
X6444170Y5663421D01*
X6338681Y5768910D01*
X6200852Y5826000D01*
X6051668Y5826000D01*
X5913839Y5768910D01*
X5808350Y5663421D01*
X5751260Y5525592D01*
X529176Y5525592D01*
X528898Y5526261D01*
X464364Y5590796D01*
X529947Y5656379D01*
X587037Y5794208D01*
X587037Y5943392D01*
X529947Y6081221D01*
X424458Y6186710D01*
X316274Y6231521D01*
X331432Y6268117D01*
X331432Y6325234D01*
X367148Y6310440D01*
X516332Y6310440D01*
X654161Y6367530D01*
X681223Y6394592D01*
X854464Y6394592D01*
X854464Y6245408D01*
X911554Y6107579D01*
X1017043Y6002090D01*
X1154872Y5945000D01*
X1304056Y5945000D01*
X1441885Y6002090D01*
X1537327Y6097532D01*
X4084580Y6097532D01*
X4084580Y5948348D01*
X4141670Y5810519D01*
X4247159Y5705030D01*
X4384988Y5647940D01*
X4534172Y5647940D01*
X4672001Y5705030D01*
X4777490Y5810519D01*
X4834580Y5948348D01*
X4834580Y6097532D01*
X4823251Y6124884D01*
X8014252Y6124884D01*
X8014252Y5975700D01*
X8071342Y5837871D01*
X8176831Y5732382D01*
X8314660Y5675292D01*
X8463844Y5675292D01*
X8601673Y5732382D01*
X8707162Y5837871D01*
X8764252Y5975700D01*
X8764252Y6124884D01*
X8707162Y6262713D01*
X8601673Y6368202D01*
X8463844Y6425292D01*
X8314660Y6425292D01*
X8176831Y6368202D01*
X8071342Y6262713D01*
X8014252Y6124884D01*
X4823251Y6124884D01*
X4780611Y6227827D01*
X4813431Y6241421D01*
X4918920Y6346910D01*
X4925635Y6363122D01*
X5049050Y6312003D01*
X5198234Y6312003D01*
X5336063Y6369093D01*
X5441552Y6474582D01*
X5498642Y6612411D01*
X5498642Y6761595D01*
X5441552Y6899424D01*
X5336063Y7004913D01*
X5198234Y7062003D01*
X5049050Y7062003D01*
X4911221Y7004913D01*
X4805732Y6899424D01*
X4799017Y6883212D01*
X4675602Y6934331D01*
X4526418Y6934331D01*
X4388589Y6877241D01*
X4283100Y6771752D01*
X4226010Y6633923D01*
X4226010Y6484739D01*
X4279979Y6354444D01*
X4247159Y6340850D01*
X4141670Y6235361D01*
X4084580Y6097532D01*
X1537327Y6097532D01*
X1547374Y6107579D01*
X1604464Y6245408D01*
X1604464Y6394592D01*
X1553826Y6516845D01*
X1690059Y6460416D01*
X1839243Y6460416D01*
X1977072Y6517506D01*
X2082561Y6622995D01*
X2139651Y6760824D01*
X2139651Y6910008D01*
X2082561Y7047837D01*
X1977072Y7153326D01*
X1839243Y7210416D01*
X1690059Y7210416D01*
X1552230Y7153326D01*
X1446741Y7047837D01*
X1389651Y6910008D01*
X1389651Y6760824D01*
X1440289Y6638571D01*
X1304056Y6695000D01*
X1154872Y6695000D01*
X1017043Y6637910D01*
X911554Y6532421D01*
X854464Y6394592D01*
X681223Y6394592D01*
X759650Y6473019D01*
X816740Y6610848D01*
X816740Y6760032D01*
X759650Y6897861D01*
X654161Y7003350D01*
X516332Y7060440D01*
X434128Y7060440D01*
X664580Y7290892D01*
X5863020Y7290892D01*
X5863020Y7141708D01*
X5920110Y7003879D01*
X6025599Y6898390D01*
X6163428Y6841300D01*
X6312612Y6841300D01*
X6429152Y6889572D01*
X6843460Y6889572D01*
X6843460Y6740388D01*
X6900550Y6602559D01*
X7006039Y6497070D01*
X7143868Y6439980D01*
X7293052Y6439980D01*
X7430881Y6497070D01*
X7456444Y6522633D01*
X8750320Y6522633D01*
X8750320Y6264047D01*
X8849277Y6025145D01*
X9032125Y5842297D01*
X9271027Y5743340D01*
X9529613Y5743340D01*
X9768515Y5842297D01*
X9807640Y5881422D01*
X9807640Y5879328D01*
X9864730Y5741499D01*
X9934613Y5671616D01*
X9794125Y5613423D01*
X9611277Y5430575D01*
X9512320Y5191673D01*
X9512320Y4933087D01*
X9561200Y4815080D01*
X9549458Y4815080D01*
X9411629Y4757990D01*
X9306140Y4652501D01*
X9249050Y4514672D01*
X9249050Y4365488D01*
X9306140Y4227659D01*
X9411629Y4122170D01*
X9549458Y4065080D01*
X9698642Y4065080D01*
X9836471Y4122170D01*
X9941960Y4227659D01*
X9999050Y4365488D01*
X9999050Y4426454D01*
X10033027Y4412380D01*
X10291613Y4412380D01*
X10530515Y4511337D01*
X10713363Y4694185D01*
X10812320Y4933087D01*
X10812320Y5191673D01*
X10713363Y5430575D01*
X10530515Y5613423D01*
X10418763Y5659712D01*
X10500550Y5741499D01*
X10557640Y5879328D01*
X10557640Y6028512D01*
X10500550Y6166341D01*
X10395061Y6271830D01*
X10257232Y6328920D01*
X10108048Y6328920D01*
X10050320Y6305009D01*
X10050320Y6522633D01*
X9998798Y6647017D01*
X9998798Y6724154D01*
X9941708Y6861983D01*
X9836219Y6967472D01*
X9698390Y7024562D01*
X9574947Y7024562D01*
X9529613Y7043340D01*
X9271027Y7043340D01*
X9032125Y6944383D01*
X8849277Y6761535D01*
X8750320Y6522633D01*
X7456444Y6522633D01*
X7536370Y6602559D01*
X7593460Y6740388D01*
X7593460Y6889572D01*
X7536370Y7027401D01*
X7430881Y7132890D01*
X7293052Y7189980D01*
X7143868Y7189980D01*
X7006039Y7132890D01*
X6900550Y7027401D01*
X6843460Y6889572D01*
X6429152Y6889572D01*
X6450441Y6898390D01*
X6555930Y7003879D01*
X6613020Y7141708D01*
X6613020Y7290892D01*
X6555930Y7428721D01*
X6450441Y7534210D01*
X6312612Y7591300D01*
X6163428Y7591300D01*
X6025599Y7534210D01*
X5920110Y7428721D01*
X5863020Y7290892D01*
X664580Y7290892D01*
X971731Y7598042D01*
X1021763Y7477252D01*
X1127252Y7371763D01*
X1265081Y7314673D01*
X1414265Y7314673D01*
X1552094Y7371763D01*
X1657583Y7477252D01*
X1698670Y7576447D01*
X1711378Y7563739D01*
X1722538Y7547037D01*
X1788694Y7502833D01*
X1847032Y7491229D01*
X1847033Y7491229D01*
X1866729Y7487311D01*
X1886427Y7491229D01*
X4805779Y7491229D01*
X4829961Y7486419D01*
X4829962Y7486419D01*
X4849658Y7482501D01*
X4869355Y7486419D01*
X5178445Y7486419D01*
X5198141Y7482501D01*
X5217837Y7486419D01*
X5217839Y7486419D01*
X5276177Y7498023D01*
X5342333Y7542227D01*
X5353494Y7558931D01*
X5527404Y7732840D01*
X5550612Y7732840D01*
X5688441Y7789930D01*
X5793930Y7895419D01*
X5851020Y8033248D01*
X5851020Y8182432D01*
X5793930Y8320261D01*
X5688441Y8425750D01*
X5550612Y8482840D01*
X5401428Y8482840D01*
X5263599Y8425750D01*
X5181380Y8343531D01*
X5132181Y8392730D01*
X4994352Y8449820D01*
X4890295Y8449820D01*
X4890295Y8504187D01*
X4833205Y8642016D01*
X4727716Y8747505D01*
X4589887Y8804595D01*
X4440703Y8804595D01*
X4302874Y8747505D01*
X4197385Y8642016D01*
X4140295Y8504187D01*
X4140295Y8355003D01*
X4197385Y8217174D01*
X4302874Y8111685D01*
X4340147Y8096246D01*
X4328901Y8085001D01*
X2772952Y8085001D01*
X2870390Y8182439D01*
X2927480Y8320268D01*
X2927480Y8469452D01*
X2870390Y8607281D01*
X2764901Y8712770D01*
X2627072Y8769860D01*
X2477888Y8769860D01*
X2340059Y8712770D01*
X2234570Y8607281D01*
X2177480Y8469452D01*
X2177480Y8320268D01*
X2234570Y8182439D01*
X2332008Y8085001D01*
X2021688Y8085001D01*
X1731659Y8375028D01*
X1720498Y8391732D01*
X1654342Y8435936D01*
X1596004Y8447540D01*
X1596002Y8447540D01*
X1576306Y8451458D01*
X1556610Y8447540D01*
X616376Y8447540D01*
X596679Y8451458D01*
X576983Y8447540D01*
X576982Y8447540D01*
X518644Y8435936D01*
X452488Y8391732D01*
X441328Y8375030D01*
X21187Y7954888D01*
X6087Y7961143D01*
X-143097Y7961143D01*
X-280926Y7904053D01*
X-386415Y7798564D01*
X-443505Y7660735D01*
X-443505Y7511551D01*
X-386415Y7373722D01*
X-385188Y7372495D01*
X-487540Y7270142D01*
X-544630Y7132313D01*
X-544630Y6983129D01*
X-487540Y6845300D01*
X-382051Y6739811D01*
X-244222Y6682721D01*
X-202629Y6682721D01*
X-255989Y6660619D01*
X-361478Y6555130D01*
X-418568Y6417301D01*
X-418568Y6268117D01*
X-361478Y6130288D01*
X-255989Y6024799D01*
X-147805Y5979988D01*
X-162963Y5943392D01*
X-162963Y5794208D01*
X-140858Y5740841D01*
X-142064Y5742047D01*
X-279893Y5799137D01*
X-387487Y5799137D01*
X-387487Y5851188D01*
X-444577Y5989017D01*
X-550066Y6094506D01*
X-687895Y6151596D01*
X-837079Y6151596D01*
X-974908Y6094506D01*
X-1080397Y5989017D01*
X-1137487Y5851188D01*
X-1137487Y5702004D01*
X-1080397Y5564175D01*
X-974908Y5458686D01*
X-855186Y5409096D01*
X-958462Y5366318D01*
X-1032687Y5292093D01*
X-1090938Y5350344D01*
X-1228767Y5407434D01*
X-1377951Y5407434D01*
X-1515780Y5350344D01*
X-1621269Y5244855D01*
X-1678359Y5107026D01*
X-3745434Y5107026D01*
X-3745434Y5238825D01*
X-3802524Y5376654D01*
X-3908013Y5482143D01*
X-4045842Y5539233D01*
X-4195026Y5539233D01*
X-4332855Y5482143D01*
X-4438344Y5376654D01*
X-4495434Y5238825D01*
X-11079398Y5238825D01*
X-10772849Y5883259D01*
X-10441918Y6416169D01*
X-5813118Y6416169D01*
X-5813118Y6266985D01*
X-5756028Y6129156D01*
X-5650539Y6023667D01*
X-5512710Y5966577D01*
X-5363526Y5966577D01*
X-5225697Y6023667D01*
X-5195188Y6054177D01*
X-5142756Y6001745D01*
X-5176558Y5967943D01*
X-5233648Y5830114D01*
X-5233648Y5680930D01*
X-5176558Y5543101D01*
X-5071069Y5437612D01*
X-4933240Y5380522D01*
X-4784056Y5380522D01*
X-4646227Y5437612D01*
X-4540738Y5543101D01*
X-4483648Y5680930D01*
X-4483648Y5830114D01*
X-4540738Y5967943D01*
X-4618312Y6045517D01*
X-4584510Y6079319D01*
X-4527420Y6217148D01*
X-4527420Y6366332D01*
X-4584510Y6504161D01*
X-4689999Y6609650D01*
X-4827828Y6666740D01*
X-4902451Y6666740D01*
X-4822535Y6699842D01*
X-4717046Y6805331D01*
X-4659956Y6943160D01*
X-4659956Y7092344D01*
X-4717046Y7230173D01*
X-4822535Y7335662D01*
X-4960364Y7392752D01*
X-5109548Y7392752D01*
X-5247377Y7335662D01*
X-5352866Y7230173D01*
X-5409956Y7092344D01*
X-5409956Y6943160D01*
X-5352866Y6805331D01*
X-5247377Y6699842D01*
X-5109548Y6642752D01*
X-5034925Y6642752D01*
X-5114841Y6609650D01*
X-5145351Y6579141D01*
X-5225697Y6659487D01*
X-5363526Y6716577D01*
X-5512710Y6716577D01*
X-5650539Y6659487D01*
X-5756028Y6553998D01*
X-5813118Y6416169D01*
X-10441918Y6416169D01*
X-10049913Y7047428D01*
X-9942121Y7184212D01*
X-8658160Y7184212D01*
X-8658160Y7035028D01*
X-8601070Y6897199D01*
X-8495581Y6791710D01*
X-8357752Y6734620D01*
X-8208568Y6734620D01*
X-8070739Y6791710D01*
X-7965250Y6897199D01*
X-7908160Y7035028D01*
X-7908160Y7184212D01*
X-7965250Y7322041D01*
X-8070739Y7427530D01*
X-8208568Y7484620D01*
X-8357752Y7484620D01*
X-8495581Y7427530D01*
X-8601070Y7322041D01*
X-8658160Y7184212D01*
X-9942121Y7184212D01*
X-9640929Y7566414D01*
X-4455798Y7566414D01*
X-4455798Y7417230D01*
X-4398708Y7279401D01*
X-4293219Y7173912D01*
X-4155390Y7116822D01*
X-4006206Y7116822D01*
X-3868377Y7173912D01*
X-3762888Y7279401D01*
X-3705798Y7417230D01*
X-3705798Y7566414D01*
X-3762888Y7704243D01*
X-3868377Y7809732D01*
X-4006206Y7866822D01*
X-4155390Y7866822D01*
X-4293219Y7809732D01*
X-4398708Y7704243D01*
X-4455798Y7566414D01*
X-9640929Y7566414D01*
X-9201714Y8123760D01*
X-8707297Y8624434D01*
X-4073973Y8624434D01*
X-4073973Y8475250D01*
X-4016883Y8337421D01*
X-3911394Y8231932D01*
X-3773565Y8174842D01*
X-3624381Y8174842D01*
X-3486552Y8231932D01*
X-3381063Y8337421D01*
X-3323973Y8475250D01*
X-3323973Y8557115D01*
X-3245799Y8557115D01*
X-3107970Y8614205D01*
X-3002481Y8719694D01*
X-2945391Y8857523D01*
X-2945391Y8992350D01*
X-2942536Y8985457D01*
X-2837047Y8879968D01*
X-2725738Y8833863D01*
X-2739024Y8801786D01*
X-2739024Y8652602D01*
X-2681934Y8514773D01*
X-2576445Y8409284D01*
X-2438616Y8352194D01*
X-2289432Y8352194D01*
X-2151603Y8409284D01*
X-2046114Y8514773D01*
X-1989024Y8652602D01*
X-1989024Y8668080D01*
X-1984207Y8666085D01*
X-1931799Y8666085D01*
X-1931799Y8560320D01*
X-1874709Y8422491D01*
X-1769220Y8317002D01*
X-1631391Y8259912D01*
X-1607656Y8259912D01*
X-1607656Y8130916D01*
X-1550566Y7993087D01*
X-1445077Y7887598D01*
X-1307248Y7830508D01*
X-1158064Y7830508D01*
X-1020235Y7887598D01*
X-936356Y7971477D01*
X-889961Y7925082D01*
X-752132Y7867992D01*
X-602948Y7867992D01*
X-465119Y7925082D01*
X-359630Y8030571D01*
X-302540Y8168400D01*
X-302540Y8317584D01*
X-359630Y8455413D01*
X-465119Y8560902D01*
X-602948Y8617992D01*
X-752132Y8617992D01*
X-889961Y8560902D01*
X-973840Y8477023D01*
X-1020235Y8523418D01*
X-1158064Y8580508D01*
X-1181799Y8580508D01*
X-1181799Y8709504D01*
X-1238889Y8847333D01*
X-1344378Y8952822D01*
X-1482207Y9009912D01*
X-1534615Y9009912D01*
X-1534615Y9115677D01*
X-1591705Y9253506D01*
X-1697194Y9358995D01*
X-1835023Y9416085D01*
X-1984207Y9416085D01*
X-2122036Y9358995D01*
X-2227525Y9253506D01*
X-2249626Y9200149D01*
X-2249626Y9272470D01*
X-2306716Y9410299D01*
X-2412205Y9515788D01*
X-2550034Y9572878D01*
X-2699218Y9572878D01*
X-2837047Y9515788D01*
X-2942536Y9410299D01*
X-2999626Y9272470D01*
X-2999626Y9137643D01*
X-3002481Y9144536D01*
X-3107970Y9250025D01*
X-3245799Y9307115D01*
X-3394983Y9307115D01*
X-3532812Y9250025D01*
X-3638301Y9144536D01*
X-3695391Y9006707D01*
X-3695391Y8924842D01*
X-3773565Y8924842D01*
X-3911394Y8867752D01*
X-4016883Y8762263D01*
X-4073973Y8624434D01*
X-8707297Y8624434D01*
X-8238817Y9098841D01*
X-7543738Y9660906D01*
X-139326Y9660906D01*
X-139326Y9511722D01*
X-82236Y9373893D01*
X23253Y9268404D01*
X161082Y9211314D01*
X310266Y9211314D01*
X448095Y9268404D01*
X553584Y9373893D01*
X578750Y9434652D01*
X1976820Y9434652D01*
X1976820Y9285468D01*
X2033910Y9147639D01*
X2139399Y9042150D01*
X2277228Y8985060D01*
X2426412Y8985060D01*
X2564241Y9042150D01*
X2669730Y9147639D01*
X2726820Y9285468D01*
X2726820Y9384592D01*
X3275000Y9384592D01*
X3275000Y9235408D01*
X3332090Y9097579D01*
X3437579Y8992090D01*
X3575408Y8935000D01*
X3724592Y8935000D01*
X3862421Y8992090D01*
X3967910Y9097579D01*
X4025000Y9235408D01*
X4025000Y9384592D01*
X3967910Y9522421D01*
X3862421Y9627910D01*
X3724592Y9685000D01*
X3575408Y9685000D01*
X3437579Y9627910D01*
X3332090Y9522421D01*
X3275000Y9384592D01*
X2726820Y9384592D01*
X2726820Y9434652D01*
X2669730Y9572481D01*
X2564241Y9677970D01*
X2426412Y9735060D01*
X2277228Y9735060D01*
X2139399Y9677970D01*
X2033910Y9572481D01*
X1976820Y9434652D01*
X578750Y9434652D01*
X610674Y9511722D01*
X610674Y9660906D01*
X553584Y9798735D01*
X448095Y9904224D01*
X310266Y9961314D01*
X161082Y9961314D01*
X23253Y9904224D01*
X-82236Y9798735D01*
X-139326Y9660906D01*
X-7543738Y9660906D01*
X-7173234Y9960508D01*
X-6688295Y10270165D01*
X-3141133Y10270165D01*
X-3141133Y10120981D01*
X-3084043Y9983152D01*
X-2978554Y9877663D01*
X-2840725Y9820573D01*
X-2691541Y9820573D01*
X-2553712Y9877663D01*
X-2448223Y9983152D01*
X-2391133Y10120981D01*
X-2391133Y10270165D01*
X-2448223Y10407994D01*
X-2553712Y10513483D01*
X-2691541Y10570573D01*
X-2840725Y10570573D01*
X-2978554Y10513483D01*
X-3084043Y10407994D01*
X-3141133Y10270165D01*
X-6688295Y10270165D01*
X-6018242Y10698026D01*
X-5549703Y10928172D01*
X-2226880Y10928172D01*
X-2226880Y10778988D01*
X-2169790Y10641159D01*
X-2064301Y10535670D01*
X-1926472Y10478580D01*
X-1777288Y10478580D01*
X-1639459Y10535670D01*
X-1533970Y10641159D01*
X-1510827Y10697032D01*
X-230440Y10697032D01*
X-230440Y10547848D01*
X-173350Y10410019D01*
X-67861Y10304530D01*
X69968Y10247440D01*
X219152Y10247440D01*
X356981Y10304530D01*
X456204Y10403753D01*
X4185940Y10403753D01*
X4185940Y10145167D01*
X4284897Y9906265D01*
X4467745Y9723417D01*
X4706647Y9624460D01*
X4965233Y9624460D01*
X5204135Y9723417D01*
X5386983Y9906265D01*
X5436248Y10025201D01*
X5509979Y9951470D01*
X5633124Y9900462D01*
X5620937Y9888275D01*
X5521980Y9649373D01*
X5521980Y9390787D01*
X5620937Y9151885D01*
X5803785Y8969037D01*
X6042687Y8870080D01*
X6301273Y8870080D01*
X6540175Y8969037D01*
X6723023Y9151885D01*
X6821980Y9390787D01*
X6821980Y9649373D01*
X6723023Y9888275D01*
X6540175Y10071123D01*
X6301273Y10170080D01*
X6087166Y10170080D01*
X6097400Y10194788D01*
X6097400Y10343972D01*
X6040310Y10481801D01*
X5934821Y10587290D01*
X5796992Y10644380D01*
X5647808Y10644380D01*
X5509979Y10587290D01*
X5439224Y10516535D01*
X5386983Y10642655D01*
X5204135Y10825503D01*
X4965233Y10924460D01*
X4706647Y10924460D01*
X4467745Y10825503D01*
X4284897Y10642655D01*
X4185940Y10403753D01*
X456204Y10403753D01*
X462470Y10410019D01*
X519560Y10547848D01*
X519560Y10697032D01*
X462470Y10834861D01*
X356981Y10940350D01*
X219152Y10997440D01*
X69968Y10997440D01*
X-67861Y10940350D01*
X-173350Y10834861D01*
X-230440Y10697032D01*
X-1510827Y10697032D01*
X-1476880Y10778988D01*
X-1476880Y10928172D01*
X-1533970Y11066001D01*
X-1639459Y11171490D01*
X-1659115Y11179632D01*
X1115760Y11179632D01*
X1115760Y11030448D01*
X1172850Y10892619D01*
X1278339Y10787130D01*
X1416168Y10730040D01*
X1565352Y10730040D01*
X1703181Y10787130D01*
X1808670Y10892619D01*
X1865760Y11030448D01*
X1865760Y11090732D01*
X3127440Y11090732D01*
X3127440Y10941548D01*
X3184530Y10803719D01*
X3290019Y10698230D01*
X3427848Y10641140D01*
X3577032Y10641140D01*
X3714861Y10698230D01*
X3820350Y10803719D01*
X3877440Y10941548D01*
X3877440Y11090732D01*
X3820350Y11228561D01*
X3714861Y11334050D01*
X3577032Y11391140D01*
X3427848Y11391140D01*
X3290019Y11334050D01*
X3184530Y11228561D01*
X3127440Y11090732D01*
X1865760Y11090732D01*
X1865760Y11179632D01*
X1808670Y11317461D01*
X1703181Y11422950D01*
X1565352Y11480040D01*
X1416168Y11480040D01*
X1278339Y11422950D01*
X1172850Y11317461D01*
X1115760Y11179632D01*
X-1659115Y11179632D01*
X-1777288Y11228580D01*
X-1926472Y11228580D01*
X-2064301Y11171490D01*
X-2169790Y11066001D01*
X-2226880Y10928172D01*
X-5549703Y10928172D01*
X-4788241Y11302201D01*
X-3498556Y11765505D01*
X-2165262Y12082161D01*
X-804979Y12248225D01*
X565332Y12261623D01*
X1928591Y12122192D01*
X1928591Y12122192D01*
G37*
X1928591Y12122192D02*
X3267823Y11831667D01*
X4566322Y11393670D01*
X5807907Y10813659D01*
X6977102Y10098863D01*
X8059324Y9258202D01*
X8488539Y8840229D01*
X8404592Y8875000D01*
X8255408Y8875000D01*
X8117579Y8817910D01*
X8028480Y8728811D01*
X8028480Y8760373D01*
X7929523Y8999275D01*
X7746675Y9182123D01*
X7507773Y9281080D01*
X7249187Y9281080D01*
X7010285Y9182123D01*
X6827437Y8999275D01*
X6728480Y8760373D01*
X6728480Y8501787D01*
X6827437Y8262885D01*
X7010285Y8080037D01*
X7249187Y7981080D01*
X7507773Y7981080D01*
X7746675Y8080037D01*
X7929523Y8262885D01*
X7975921Y8374899D01*
X8012090Y8287579D01*
X8117579Y8182090D01*
X8167151Y8161557D01*
X8092325Y8130563D01*
X7909477Y7947715D01*
X7810520Y7708813D01*
X7810520Y7450227D01*
X7909477Y7211325D01*
X8092325Y7028477D01*
X8331227Y6929520D01*
X8589813Y6929520D01*
X8828715Y7028477D01*
X9011563Y7211325D01*
X9110520Y7450227D01*
X9110520Y7708813D01*
X9011563Y7947715D01*
X8828715Y8130563D01*
X8589840Y8229509D01*
X8647910Y8287579D01*
X8705000Y8425408D01*
X8705000Y8574592D01*
X8666925Y8666514D01*
X9041101Y8302138D01*
X9910186Y7242596D01*
X10655749Y6092782D01*
X11268500Y4867023D01*
X11740796Y3580602D01*
X12066752Y2249553D01*
X12242307Y890468D01*
X12265271Y-479709D01*
X12135359Y-1843926D01*
X11903486Y-2950000D01*
X4620710Y-2950000D01*
X3424467Y-1753757D01*
X9847795Y-1753757D01*
X9847795Y-1902941D01*
X9904885Y-2040770D01*
X10010374Y-2146259D01*
X10148203Y-2203349D01*
X10297387Y-2203349D01*
X10435216Y-2146259D01*
X10540705Y-2040770D01*
X10597795Y-1902941D01*
X10597795Y-1753757D01*
X10540705Y-1615928D01*
X10435216Y-1510439D01*
X10297387Y-1453349D01*
X10148203Y-1453349D01*
X10010374Y-1510439D01*
X9904885Y-1615928D01*
X9847795Y-1753757D01*
X3424467Y-1753757D01*
X3350000Y-1679290D01*
X3350000Y-882858D01*
X6007550Y-882858D01*
X6007550Y-1032042D01*
X6064640Y-1169871D01*
X6170129Y-1275360D01*
X6307958Y-1332450D01*
X6457142Y-1332450D01*
X6594971Y-1275360D01*
X6700460Y-1169871D01*
X6757550Y-1032042D01*
X6757550Y-951408D01*
X8662100Y-951408D01*
X8662100Y-1100592D01*
X8719190Y-1238421D01*
X8824679Y-1343910D01*
X8962508Y-1401000D01*
X9111692Y-1401000D01*
X9249521Y-1343910D01*
X9355010Y-1238421D01*
X9412100Y-1100592D01*
X9412100Y-951408D01*
X9355010Y-813579D01*
X9249521Y-708090D01*
X9111692Y-651000D01*
X8962508Y-651000D01*
X8824679Y-708090D01*
X8719190Y-813579D01*
X8662100Y-951408D01*
X6757550Y-951408D01*
X6757550Y-882858D01*
X6700460Y-745029D01*
X6594971Y-639540D01*
X6457142Y-582450D01*
X6307958Y-582450D01*
X6170129Y-639540D01*
X6064640Y-745029D01*
X6007550Y-882858D01*
X3350000Y-882858D01*
X3350000Y-490594D01*
X9734851Y-490594D01*
X9734851Y-639778D01*
X9791941Y-777607D01*
X9897430Y-883096D01*
X10035259Y-940186D01*
X10184443Y-940186D01*
X10322272Y-883096D01*
X10427761Y-777607D01*
X10484851Y-639778D01*
X10484851Y-490594D01*
X10427761Y-352765D01*
X10322272Y-247276D01*
X10184443Y-190186D01*
X10035259Y-190186D01*
X9897430Y-247276D01*
X9791941Y-352765D01*
X9734851Y-490594D01*
X3350000Y-490594D01*
X3350000Y624592D01*
X9845000Y624592D01*
X9845000Y475408D01*
X9902090Y337579D01*
X10007579Y232090D01*
X10145408Y175000D01*
X10294592Y175000D01*
X10432421Y232090D01*
X10537910Y337579D01*
X10595000Y475408D01*
X10595000Y624592D01*
X10537910Y762421D01*
X10432421Y867910D01*
X10294592Y925000D01*
X10145408Y925000D01*
X10007579Y867910D01*
X9902090Y762421D01*
X9845000Y624592D01*
X3350000Y624592D01*
X3350000Y1428927D01*
X8565974Y1428927D01*
X8565974Y1279743D01*
X8623064Y1141914D01*
X8728553Y1036425D01*
X8866382Y979335D01*
X9015566Y979335D01*
X9153395Y1036425D01*
X9258884Y1141914D01*
X9315974Y1279743D01*
X9315974Y1428927D01*
X9258884Y1566756D01*
X9153395Y1672245D01*
X9015566Y1729335D01*
X8866382Y1729335D01*
X8728553Y1672245D01*
X8623064Y1566756D01*
X8565974Y1428927D01*
X3350000Y1428927D01*
X3350000Y1600000D01*
X3345392Y1620965D01*
X3333914Y1636740D01*
X2852251Y2081352D01*
X3589720Y2081352D01*
X3589720Y1932168D01*
X3646810Y1794339D01*
X3752299Y1688850D01*
X3890128Y1631760D01*
X4039312Y1631760D01*
X4177141Y1688850D01*
X4282630Y1794339D01*
X4339720Y1932168D01*
X4339720Y2081352D01*
X4322899Y2121962D01*
X7523297Y2121962D01*
X7523297Y1972778D01*
X7580387Y1834949D01*
X7685876Y1729460D01*
X7823705Y1672370D01*
X7972889Y1672370D01*
X8110718Y1729460D01*
X8184504Y1803246D01*
X8222699Y1765050D01*
X8360528Y1707960D01*
X8509712Y1707960D01*
X8647541Y1765050D01*
X8753030Y1870539D01*
X8810120Y2008368D01*
X8810120Y2157552D01*
X8753030Y2295381D01*
X8688838Y2359573D01*
X10485140Y2359573D01*
X10485140Y2100987D01*
X10584097Y1862085D01*
X10766945Y1679237D01*
X10867920Y1637411D01*
X10801990Y1571481D01*
X10744900Y1433652D01*
X10744900Y1284468D01*
X10801990Y1146639D01*
X10907479Y1041150D01*
X11045308Y984060D01*
X11194492Y984060D01*
X11332321Y1041150D01*
X11437810Y1146639D01*
X11493366Y1280763D01*
X11519619Y1254510D01*
X11657448Y1197420D01*
X11806632Y1197420D01*
X11944461Y1254510D01*
X12049950Y1359999D01*
X12107040Y1497828D01*
X12107040Y1647012D01*
X12049950Y1784841D01*
X11944461Y1890330D01*
X11806632Y1947420D01*
X11721530Y1947420D01*
X11785140Y2100987D01*
X11785140Y2359573D01*
X11686183Y2598475D01*
X11503335Y2781323D01*
X11264433Y2880280D01*
X11005847Y2880280D01*
X10766945Y2781323D01*
X10584097Y2598475D01*
X10485140Y2359573D01*
X8688838Y2359573D01*
X8647541Y2400870D01*
X8509712Y2457960D01*
X8360528Y2457960D01*
X8222699Y2400870D01*
X8148914Y2327085D01*
X8110718Y2365280D01*
X7972889Y2422370D01*
X7823705Y2422370D01*
X7685876Y2365280D01*
X7580387Y2259791D01*
X7523297Y2121962D01*
X4322899Y2121962D01*
X4282630Y2219181D01*
X4177141Y2324670D01*
X4039312Y2381760D01*
X3890128Y2381760D01*
X3752299Y2324670D01*
X3646810Y2219181D01*
X3589720Y2081352D01*
X2852251Y2081352D01*
X2070778Y2802712D01*
X4064700Y2802712D01*
X4064700Y2653528D01*
X4121790Y2515699D01*
X4227279Y2410210D01*
X4365108Y2353120D01*
X4514292Y2353120D01*
X4652121Y2410210D01*
X4757610Y2515699D01*
X4814700Y2653528D01*
X4814700Y2802712D01*
X4757610Y2940541D01*
X4732879Y2965272D01*
X6553900Y2965272D01*
X6553900Y2816088D01*
X6610990Y2678259D01*
X6716479Y2572770D01*
X6854308Y2515680D01*
X7003492Y2515680D01*
X7141321Y2572770D01*
X7246810Y2678259D01*
X7303900Y2816088D01*
X7303900Y2965272D01*
X7246810Y3103101D01*
X7141321Y3208590D01*
X7084872Y3231972D01*
X8387780Y3231972D01*
X8387780Y3082788D01*
X8444870Y2944959D01*
X8550359Y2839470D01*
X8688188Y2782380D01*
X8837372Y2782380D01*
X8975201Y2839470D01*
X9080690Y2944959D01*
X9137780Y3082788D01*
X9137780Y3231972D01*
X9080690Y3369801D01*
X8975201Y3475290D01*
X8837372Y3532380D01*
X8688188Y3532380D01*
X8550359Y3475290D01*
X8444870Y3369801D01*
X8387780Y3231972D01*
X7084872Y3231972D01*
X7003492Y3265680D01*
X6854308Y3265680D01*
X6716479Y3208590D01*
X6610990Y3103101D01*
X6553900Y2965272D01*
X4732879Y2965272D01*
X4652121Y3046030D01*
X4514292Y3103120D01*
X4365108Y3103120D01*
X4227279Y3046030D01*
X4121790Y2940541D01*
X4064700Y2802712D01*
X2070778Y2802712D01*
X917051Y3867690D01*
X900516Y3907612D01*
X3272220Y3907612D01*
X3272220Y3758428D01*
X3329310Y3620599D01*
X3434799Y3515110D01*
X3572628Y3458020D01*
X3721812Y3458020D01*
X3859641Y3515110D01*
X3965130Y3620599D01*
X4022220Y3758428D01*
X4022220Y3814993D01*
X10081280Y3814993D01*
X10081280Y3556407D01*
X10180237Y3317505D01*
X10363085Y3134657D01*
X10601987Y3035700D01*
X10860573Y3035700D01*
X11099475Y3134657D01*
X11282323Y3317505D01*
X11381280Y3556407D01*
X11381280Y3814993D01*
X11282323Y4053895D01*
X11099475Y4236743D01*
X10860573Y4335700D01*
X10601987Y4335700D01*
X10363085Y4236743D01*
X10180237Y4053895D01*
X10081280Y3814993D01*
X4022220Y3814993D01*
X4022220Y3907612D01*
X3965130Y4045441D01*
X3918691Y4091881D01*
X3985042Y4158232D01*
X4042132Y4296061D01*
X4042132Y4445245D01*
X3985042Y4583074D01*
X3879553Y4688563D01*
X3741724Y4745653D01*
X3592540Y4745653D01*
X3454711Y4688563D01*
X3349222Y4583074D01*
X3292132Y4445245D01*
X3292132Y4296061D01*
X3349222Y4158232D01*
X3395662Y4111793D01*
X3329310Y4045441D01*
X3272220Y3907612D01*
X900516Y3907612D01*
X871404Y3977894D01*
X765915Y4083383D01*
X628086Y4140473D01*
X478902Y4140473D01*
X341073Y4083383D01*
X235584Y3977894D01*
X178494Y3840065D01*
X178494Y3690881D01*
X235584Y3553052D01*
X283143Y3505494D01*
X217640Y3439991D01*
X160550Y3302162D01*
X160550Y3152978D01*
X217640Y3015149D01*
X323129Y2909660D01*
X460958Y2852570D01*
X610142Y2852570D01*
X747971Y2909660D01*
X853460Y3015149D01*
X910550Y3152978D01*
X910550Y3302162D01*
X853460Y3439991D01*
X805902Y3487550D01*
X827349Y3508997D01*
X2950000Y1478636D01*
X2950000Y-1900000D01*
X2953331Y-1917944D01*
X2963750Y-1934437D01*
X4863750Y-3934437D01*
X4880866Y-3946194D01*
X4900000Y-3950000D01*
X11602131Y-3950000D01*
X11425268Y-4486673D01*
X10853943Y-5732269D01*
X10147328Y-6906428D01*
X9807703Y-7350000D01*
X9541140Y-7350000D01*
X9638840Y-7114133D01*
X9638840Y-6855547D01*
X9539883Y-6616645D01*
X9357035Y-6433797D01*
X9118133Y-6334840D01*
X8859547Y-6334840D01*
X8620645Y-6433797D01*
X8437797Y-6616645D01*
X8338840Y-6855547D01*
X8338840Y-7114133D01*
X8436540Y-7350000D01*
X6500000Y-7350000D01*
X6480866Y-7353806D01*
X6464645Y-7364645D01*
X6453806Y-7380866D01*
X6450000Y-7400000D01*
X6450000Y-10426648D01*
X6167019Y-10612957D01*
X4945574Y-11234247D01*
X3657606Y-11717341D01*
X3466755Y-11775000D01*
X-3460715Y-11775000D01*
X-4724955Y-11328804D01*
X-5958329Y-10731511D01*
X-7069727Y-10030547D01*
X-5786100Y-10030547D01*
X-5786100Y-10289133D01*
X-5687143Y-10528035D01*
X-5504295Y-10710883D01*
X-5265393Y-10809840D01*
X-5006807Y-10809840D01*
X-4767905Y-10710883D01*
X-4585057Y-10528035D01*
X-4486100Y-10289133D01*
X-4486100Y-10136048D01*
X3815780Y-10136048D01*
X3815780Y-10285232D01*
X3872870Y-10423061D01*
X3978359Y-10528550D01*
X4116188Y-10585640D01*
X4265372Y-10585640D01*
X4403201Y-10528550D01*
X4508690Y-10423061D01*
X4565780Y-10285232D01*
X4565780Y-10136048D01*
X4508690Y-9998219D01*
X4403201Y-9892730D01*
X4265372Y-9835640D01*
X4116188Y-9835640D01*
X3978359Y-9892730D01*
X3872870Y-9998219D01*
X3815780Y-10136048D01*
X-4486100Y-10136048D01*
X-4486100Y-10030547D01*
X-4585057Y-9791645D01*
X-4767905Y-9608797D01*
X-5006807Y-9509840D01*
X-5265393Y-9509840D01*
X-5504295Y-9608797D01*
X-5687143Y-9791645D01*
X-5786100Y-10030547D01*
X-7069727Y-10030547D01*
X-7117422Y-10000466D01*
X-7821571Y-9437548D01*
X4366960Y-9437548D01*
X4366960Y-9586732D01*
X4424050Y-9724561D01*
X4529539Y-9830050D01*
X4667368Y-9887140D01*
X4816552Y-9887140D01*
X4954381Y-9830050D01*
X5059870Y-9724561D01*
X5116960Y-9586732D01*
X5116960Y-9437548D01*
X5059870Y-9299719D01*
X4954381Y-9194230D01*
X4816552Y-9137140D01*
X4667368Y-9137140D01*
X4529539Y-9194230D01*
X4424050Y-9299719D01*
X4366960Y-9437548D01*
X-7821571Y-9437548D01*
X-8187807Y-9144769D01*
X-8499115Y-8833028D01*
X-4718620Y-8833028D01*
X-4718620Y-8982212D01*
X-4661530Y-9120041D01*
X-4556041Y-9225530D01*
X-4418212Y-9282620D01*
X-4269028Y-9282620D01*
X-4131199Y-9225530D01*
X-4025710Y-9120041D01*
X-3968620Y-8982212D01*
X-3968620Y-8833028D01*
X-4025710Y-8695199D01*
X-4050441Y-8670468D01*
X1265620Y-8670468D01*
X1265620Y-8819652D01*
X1322710Y-8957481D01*
X1428199Y-9062970D01*
X1566028Y-9120060D01*
X1715212Y-9120060D01*
X1853041Y-9062970D01*
X1958530Y-8957481D01*
X2015620Y-8819652D01*
X2015620Y-8670468D01*
X1958530Y-8532639D01*
X1853041Y-8427150D01*
X1715212Y-8370060D01*
X1566028Y-8370060D01*
X1428199Y-8427150D01*
X1322710Y-8532639D01*
X1265620Y-8670468D01*
X-4050441Y-8670468D01*
X-4131199Y-8589710D01*
X-4269028Y-8532620D01*
X-4418212Y-8532620D01*
X-4556041Y-8589710D01*
X-4661530Y-8695199D01*
X-4718620Y-8833028D01*
X-8499115Y-8833028D01*
X-9156133Y-8175098D01*
X-9771606Y-7403008D01*
X4214560Y-7403008D01*
X4214560Y-7552192D01*
X4271650Y-7690021D01*
X4377139Y-7795510D01*
X4514968Y-7852600D01*
X4664152Y-7852600D01*
X4801981Y-7795510D01*
X4907470Y-7690021D01*
X4964560Y-7552192D01*
X4964560Y-7403008D01*
X4907470Y-7265179D01*
X4801981Y-7159690D01*
X4664152Y-7102600D01*
X4514968Y-7102600D01*
X4377139Y-7159690D01*
X4271650Y-7265179D01*
X4214560Y-7403008D01*
X-9771606Y-7403008D01*
X-10010349Y-7103514D01*
X-10739781Y-5943409D01*
X-11111035Y-5174067D01*
X9428500Y-5174067D01*
X9428500Y-5432653D01*
X9527457Y-5671555D01*
X9710305Y-5854403D01*
X9949207Y-5953360D01*
X10207793Y-5953360D01*
X10446695Y-5854403D01*
X10629543Y-5671555D01*
X10728500Y-5432653D01*
X10728500Y-5174067D01*
X10629543Y-4935165D01*
X10446695Y-4752317D01*
X10207793Y-4653360D01*
X9949207Y-4653360D01*
X9710305Y-4752317D01*
X9527457Y-4935165D01*
X9428500Y-5174067D01*
X-11111035Y-5174067D01*
X-11335354Y-4709218D01*
X-11435077Y-4425408D01*
X3125000Y-4425408D01*
X3125000Y-4574592D01*
X3182090Y-4712421D01*
X3287579Y-4817910D01*
X3425408Y-4875000D01*
X3574592Y-4875000D01*
X3712421Y-4817910D01*
X3750000Y-4780331D01*
X3787579Y-4817910D01*
X3925408Y-4875000D01*
X4074592Y-4875000D01*
X4212421Y-4817910D01*
X4317910Y-4712421D01*
X4372317Y-4581068D01*
X7828980Y-4581068D01*
X7828980Y-4730252D01*
X7886070Y-4868081D01*
X7991559Y-4973570D01*
X8129388Y-5030660D01*
X8278572Y-5030660D01*
X8416401Y-4973570D01*
X8521890Y-4868081D01*
X8578980Y-4730252D01*
X8578980Y-4581068D01*
X8521890Y-4443239D01*
X8416401Y-4337750D01*
X8278572Y-4280660D01*
X8129388Y-4280660D01*
X7991559Y-4337750D01*
X7886070Y-4443239D01*
X7828980Y-4581068D01*
X4372317Y-4581068D01*
X4375000Y-4574592D01*
X4375000Y-4425408D01*
X4317910Y-4287579D01*
X4212421Y-4182090D01*
X4074592Y-4125000D01*
X3925408Y-4125000D01*
X3787579Y-4182090D01*
X3750000Y-4219669D01*
X3712421Y-4182090D01*
X3574592Y-4125000D01*
X3425408Y-4125000D01*
X3287579Y-4182090D01*
X3182090Y-4287579D01*
X3125000Y-4425408D01*
X-11435077Y-4425408D01*
X-11728455Y-3590468D01*
X-5480620Y-3590468D01*
X-5480620Y-3739652D01*
X-5423530Y-3877481D01*
X-5318041Y-3982970D01*
X-5180212Y-4040060D01*
X-5031028Y-4040060D01*
X-4893199Y-3982970D01*
X-4787710Y-3877481D01*
X-4730620Y-3739652D01*
X-4730620Y-3590468D01*
X-4787710Y-3452639D01*
X-4893199Y-3347150D01*
X-5031028Y-3290060D01*
X-5180212Y-3290060D01*
X-5318041Y-3347150D01*
X-5423530Y-3452639D01*
X-5480620Y-3590468D01*
X-11728455Y-3590468D01*
X-11789645Y-3416325D01*
X-11911487Y-2886888D01*
X-4787200Y-2886888D01*
X-4787200Y-3036072D01*
X-4730110Y-3173901D01*
X-4624621Y-3279390D01*
X-4486792Y-3336480D01*
X-4337608Y-3336480D01*
X-4199779Y-3279390D01*
X-4094290Y-3173901D01*
X-4037200Y-3036072D01*
X-4037200Y-2886888D01*
X-4068762Y-2810688D01*
X-4017582Y-2810688D01*
X-4017582Y-2959872D01*
X-3960492Y-3097701D01*
X-3855003Y-3203190D01*
X-3717174Y-3260280D01*
X-3567990Y-3260280D01*
X-3430161Y-3203190D01*
X-3324672Y-3097701D01*
X-3320630Y-3087942D01*
X-3276761Y-3193852D01*
X-3171272Y-3299341D01*
X-3033443Y-3356431D01*
X-2884259Y-3356431D01*
X-2746430Y-3299341D01*
X-2690030Y-3242941D01*
X-2633261Y-3299710D01*
X-2495432Y-3356800D01*
X-2346248Y-3356800D01*
X-2208419Y-3299710D01*
X-2102930Y-3194221D01*
X-2045840Y-3056392D01*
X-2045840Y-2907208D01*
X-2102930Y-2769379D01*
X-2208419Y-2663890D01*
X-2346248Y-2606800D01*
X-2495432Y-2606800D01*
X-2633261Y-2663890D01*
X-2689661Y-2720290D01*
X-2700487Y-2709464D01*
X-2646896Y-2655873D01*
X-2589806Y-2518044D01*
X-2589806Y-2368860D01*
X-2646896Y-2231031D01*
X-2752385Y-2125542D01*
X-2890214Y-2068452D01*
X-3039398Y-2068452D01*
X-3177227Y-2125542D01*
X-3282716Y-2231031D01*
X-3339806Y-2368860D01*
X-3339806Y-2518044D01*
X-3282716Y-2655873D01*
X-3223170Y-2715419D01*
X-3276761Y-2769010D01*
X-3280803Y-2778769D01*
X-3324672Y-2672859D01*
X-3430161Y-2567370D01*
X-3567990Y-2510280D01*
X-3717174Y-2510280D01*
X-3855003Y-2567370D01*
X-3960492Y-2672859D01*
X-4017582Y-2810688D01*
X-4068762Y-2810688D01*
X-4094290Y-2749059D01*
X-4199779Y-2643570D01*
X-4337608Y-2586480D01*
X-4486792Y-2586480D01*
X-4624621Y-2643570D01*
X-4730110Y-2749059D01*
X-4787200Y-2886888D01*
X-11911487Y-2886888D01*
X-12096983Y-2080864D01*
X-12196784Y-1213028D01*
X-5345998Y-1213028D01*
X-5345998Y-1362212D01*
X-5288908Y-1500041D01*
X-5183419Y-1605530D01*
X-5045590Y-1662620D01*
X-4896406Y-1662620D01*
X-4758577Y-1605530D01*
X-4653088Y-1500041D01*
X-4595998Y-1362212D01*
X-4595998Y-1213028D01*
X-4653088Y-1075199D01*
X-4758577Y-969710D01*
X-4896406Y-912620D01*
X-5045590Y-912620D01*
X-5183419Y-969710D01*
X-5288908Y-1075199D01*
X-5345998Y-1213028D01*
X-12196784Y-1213028D01*
X-12253546Y-719451D01*
X-12257378Y650918D01*
X-12239837Y811352D01*
X-9722420Y811352D01*
X-9722420Y662168D01*
X-9665330Y524339D01*
X-9559841Y418850D01*
X-9422012Y361760D01*
X-9272828Y361760D01*
X-9134999Y418850D01*
X-9029510Y524339D01*
X-8972420Y662168D01*
X-8972420Y811352D01*
X-9029510Y949181D01*
X-9134999Y1054670D01*
X-9272828Y1111760D01*
X-9422012Y1111760D01*
X-9559841Y1054670D01*
X-9665330Y949181D01*
X-9722420Y811352D01*
X-12239837Y811352D01*
X-12108431Y2013179D01*
X-11971511Y2623733D01*
X-11722080Y2623733D01*
X-11722080Y2365147D01*
X-11623123Y2126245D01*
X-11440275Y1943397D01*
X-11201373Y1844440D01*
X-10942787Y1844440D01*
X-10803328Y1902206D01*
X-10373990Y1472867D01*
X-10362832Y1456168D01*
X-10296676Y1411964D01*
X-10238338Y1400360D01*
X-10238337Y1400360D01*
X-10218640Y1396442D01*
X-10198944Y1400360D01*
X-8154095Y1400360D01*
X-8148950Y1387939D01*
X-8043461Y1282450D01*
X-7905632Y1225360D01*
X-7756448Y1225360D01*
X-7618619Y1282450D01*
X-7513130Y1387939D01*
X-7456040Y1525768D01*
X-7456040Y1674952D01*
X-7513130Y1812781D01*
X-7563261Y1862912D01*
X-5036340Y1862912D01*
X-5036340Y1713728D01*
X-4979250Y1575899D01*
X-4873761Y1470410D01*
X-4735932Y1413320D01*
X-4586748Y1413320D01*
X-4448919Y1470410D01*
X-4343430Y1575899D01*
X-4286340Y1713728D01*
X-4286340Y1756489D01*
X-4253249Y1676599D01*
X-4147760Y1571110D01*
X-4009931Y1514020D01*
X-3860747Y1514020D01*
X-3722918Y1571110D01*
X-3617429Y1676599D01*
X-3560339Y1814428D01*
X-3560339Y1963612D01*
X-3617429Y2101441D01*
X-3722918Y2206930D01*
X-3860747Y2264020D01*
X-4009931Y2264020D01*
X-4147760Y2206930D01*
X-4253249Y2101441D01*
X-4310339Y1963612D01*
X-4310339Y1920851D01*
X-4343430Y2000741D01*
X-4391396Y2048707D01*
X-4298904Y2141199D01*
X-4241814Y2279028D01*
X-4241814Y2428212D01*
X-4298904Y2566041D01*
X-4334915Y2602052D01*
X-3443540Y2602052D01*
X-3443540Y2452868D01*
X-3386450Y2315039D01*
X-3280961Y2209550D01*
X-3143132Y2152460D01*
X-2993948Y2152460D01*
X-2856119Y2209550D01*
X-2750630Y2315039D01*
X-2693540Y2452868D01*
X-2693540Y2602052D01*
X-2750630Y2739881D01*
X-2856119Y2845370D01*
X-2993948Y2902460D01*
X-3143132Y2902460D01*
X-3280961Y2845370D01*
X-3386450Y2739881D01*
X-3443540Y2602052D01*
X-4334915Y2602052D01*
X-4404393Y2671530D01*
X-4542222Y2728620D01*
X-4691406Y2728620D01*
X-4829235Y2671530D01*
X-4934724Y2566041D01*
X-4991814Y2428212D01*
X-4991814Y2279028D01*
X-4934724Y2141199D01*
X-4886758Y2093233D01*
X-4979250Y2000741D01*
X-5036340Y1862912D01*
X-7563261Y1862912D01*
X-7618619Y1918270D01*
X-7756448Y1975360D01*
X-7905632Y1975360D01*
X-8043461Y1918270D01*
X-8148950Y1812781D01*
X-8154095Y1800360D01*
X-9279437Y1800360D01*
X-9180719Y1841250D01*
X-9075230Y1946739D01*
X-9018140Y2084568D01*
X-9018140Y2233752D01*
X-9075230Y2371581D01*
X-9180719Y2477070D01*
X-9315647Y2532958D01*
X-9226196Y2570010D01*
X-9194154Y2602052D01*
X-8236520Y2602052D01*
X-8236520Y2452868D01*
X-8179430Y2315039D01*
X-8073941Y2209550D01*
X-7936112Y2152460D01*
X-7786928Y2152460D01*
X-7649099Y2209550D01*
X-7543610Y2315039D01*
X-7486520Y2452868D01*
X-7486520Y2602052D01*
X-7543610Y2739881D01*
X-7649099Y2845370D01*
X-7786928Y2902460D01*
X-7936112Y2902460D01*
X-8073941Y2845370D01*
X-8179430Y2739881D01*
X-8236520Y2602052D01*
X-9194154Y2602052D01*
X-9120707Y2675499D01*
X-9063617Y2813328D01*
X-9063617Y2962512D01*
X-9120707Y3100341D01*
X-9226196Y3205830D01*
X-9332234Y3249752D01*
X-7779320Y3249752D01*
X-7779320Y3100568D01*
X-7722230Y2962739D01*
X-7616741Y2857250D01*
X-7478912Y2800160D01*
X-7329728Y2800160D01*
X-7191899Y2857250D01*
X-7086410Y2962739D01*
X-7029320Y3100568D01*
X-7029320Y3249752D01*
X-7086410Y3387581D01*
X-7121293Y3422464D01*
X-2691414Y3422464D01*
X-2691414Y3273280D01*
X-2634324Y3135451D01*
X-2528835Y3029962D01*
X-2391006Y2972872D01*
X-2241822Y2972872D01*
X-2103993Y3029962D01*
X-1998504Y3135451D01*
X-1941414Y3273280D01*
X-1941414Y3347209D01*
X-1847617Y3347209D01*
X-1709788Y3404299D01*
X-1604299Y3509788D01*
X-1547209Y3647617D01*
X-1547209Y3796801D01*
X-1604299Y3934630D01*
X-1709788Y4040119D01*
X-1847617Y4097209D01*
X-1996801Y4097209D01*
X-2134630Y4040119D01*
X-2240119Y3934630D01*
X-2297209Y3796801D01*
X-2297209Y3722872D01*
X-2391006Y3722872D01*
X-2528835Y3665782D01*
X-2634324Y3560293D01*
X-2691414Y3422464D01*
X-7121293Y3422464D01*
X-7191899Y3493070D01*
X-7329728Y3550160D01*
X-7478912Y3550160D01*
X-7616741Y3493070D01*
X-7722230Y3387581D01*
X-7779320Y3249752D01*
X-9332234Y3249752D01*
X-9364025Y3262920D01*
X-9513209Y3262920D01*
X-9651038Y3205830D01*
X-9756527Y3100341D01*
X-9813617Y2962512D01*
X-9813617Y2862479D01*
X-10191360Y3240221D01*
X-10191360Y3917277D01*
X-6792318Y3917277D01*
X-6792318Y3768093D01*
X-6735228Y3630264D01*
X-6629739Y3524775D01*
X-6491910Y3467685D01*
X-6342726Y3467685D01*
X-6204897Y3524775D01*
X-6099408Y3630264D01*
X-6042318Y3768093D01*
X-6042318Y3917277D01*
X-6099408Y4055106D01*
X-6204897Y4160595D01*
X-6342726Y4217685D01*
X-6491910Y4217685D01*
X-6629739Y4160595D01*
X-6735228Y4055106D01*
X-6792318Y3917277D01*
X-10191360Y3917277D01*
X-10191360Y3947856D01*
X-10020625Y4018577D01*
X-9837777Y4201425D01*
X-9738820Y4440327D01*
X-9738820Y4667903D01*
X-9658411Y4667903D01*
X-9658411Y4518719D01*
X-9601321Y4380890D01*
X-9495832Y4275401D01*
X-9358003Y4218311D01*
X-9208819Y4218311D01*
X-9070990Y4275401D01*
X-8965501Y4380890D01*
X-8918505Y4494352D01*
X-8876600Y4494352D01*
X-8876600Y4345168D01*
X-8819510Y4207339D01*
X-8714021Y4101850D01*
X-8576192Y4044760D01*
X-8427008Y4044760D01*
X-8289179Y4101850D01*
X-8183690Y4207339D01*
X-8126600Y4345168D01*
X-8126600Y4494352D01*
X-8183690Y4632181D01*
X-8289179Y4737670D01*
X-8427008Y4794760D01*
X-8576192Y4794760D01*
X-8714021Y4737670D01*
X-8819510Y4632181D01*
X-8876600Y4494352D01*
X-8918505Y4494352D01*
X-8908411Y4518719D01*
X-8908411Y4667903D01*
X-8965501Y4805732D01*
X-9070990Y4911221D01*
X-9208819Y4968311D01*
X-9358003Y4968311D01*
X-9495832Y4911221D01*
X-9601321Y4805732D01*
X-9658411Y4667903D01*
X-9738820Y4667903D01*
X-9738820Y4698913D01*
X-9837777Y4937815D01*
X-10020625Y5120663D01*
X-10259527Y5219620D01*
X-10518113Y5219620D01*
X-10757015Y5120663D01*
X-10939863Y4937815D01*
X-11038820Y4698913D01*
X-11038820Y4440327D01*
X-10939863Y4201425D01*
X-10757015Y4018577D01*
X-10591360Y3949960D01*
X-10591359Y3177081D01*
X-10595278Y3157380D01*
X-10584481Y3103101D01*
X-10579755Y3079344D01*
X-10535551Y3013188D01*
X-10518849Y3002028D01*
X-9762995Y2246172D01*
X-9768140Y2233752D01*
X-9768140Y2084568D01*
X-9711050Y1946739D01*
X-9605561Y1841250D01*
X-9506843Y1800360D01*
X-10135797Y1800360D01*
X-10503653Y2168215D01*
X-10422080Y2365147D01*
X-10422080Y2623733D01*
X-10521037Y2862635D01*
X-10703885Y3045483D01*
X-10942787Y3144440D01*
X-11201373Y3144440D01*
X-11440275Y3045483D01*
X-11623123Y2862635D01*
X-11722080Y2623733D01*
X-11971511Y2623733D01*
X-11808564Y3350343D01*
X-11361510Y4645760D01*
X-11079398Y5238825D01*
X-4495434Y5238825D01*
X-4495434Y5089641D01*
X-4438344Y4951812D01*
X-4332855Y4846323D01*
X-4195026Y4789233D01*
X-4045842Y4789233D01*
X-4042255Y4790719D01*
X-4144342Y4688632D01*
X-4201432Y4550803D01*
X-4201432Y4401619D01*
X-4144342Y4263790D01*
X-4038853Y4158301D01*
X-3901024Y4101211D01*
X-3854341Y4101211D01*
X-3854341Y3990542D01*
X-3797251Y3852713D01*
X-3691762Y3747224D01*
X-3553933Y3690134D01*
X-3404749Y3690134D01*
X-3266920Y3747224D01*
X-3161431Y3852713D01*
X-3104341Y3990542D01*
X-3104341Y4061073D01*
X-2991988Y4061073D01*
X-2854159Y4118163D01*
X-2769142Y4203181D01*
X-2744373Y4178412D01*
X-2606544Y4121322D01*
X-2457360Y4121322D01*
X-2319531Y4178412D01*
X-2214042Y4283901D01*
X-2156952Y4421730D01*
X-2156952Y4570914D01*
X-2214042Y4708743D01*
X-2319531Y4814232D01*
X-2457360Y4871322D01*
X-2606544Y4871322D01*
X-2744373Y4814232D01*
X-2829391Y4729215D01*
X-2854159Y4753983D01*
X-2991988Y4811073D01*
X-3141172Y4811073D01*
X-3279001Y4753983D01*
X-3384490Y4648494D01*
X-3441580Y4510665D01*
X-3441580Y4440134D01*
X-3451432Y4440134D01*
X-3451432Y4550803D01*
X-3508522Y4688632D01*
X-3614011Y4794121D01*
X-3751840Y4851211D01*
X-3901024Y4851211D01*
X-3904611Y4849725D01*
X-3802524Y4951812D01*
X-3745434Y5089641D01*
X-3745434Y5107026D01*
X-1678359Y5107026D01*
X-1678359Y4957842D01*
X-1621269Y4820013D01*
X-1515780Y4714524D01*
X-1377951Y4657434D01*
X-1228767Y4657434D01*
X-1090938Y4714524D01*
X-1016713Y4788749D01*
X-958462Y4730498D01*
X-820633Y4673408D01*
X-671449Y4673408D01*
X-533620Y4730498D01*
X-428131Y4835987D01*
X-371041Y4973816D01*
X-371041Y5049137D01*
X-279893Y5049137D01*
X-142064Y5106227D01*
X-118623Y5129668D01*
X-106922Y5101419D01*
X-1433Y4995930D01*
X136396Y4938840D01*
X285580Y4938840D01*
X423409Y4995930D01*
X528898Y5101419D01*
X585988Y5239248D01*
X585988Y5388432D01*
X529176Y5525592D01*
X5751260Y5525592D01*
X5751260Y5376408D01*
X5808350Y5238579D01*
X5913839Y5133090D01*
X6051668Y5076000D01*
X6200852Y5076000D01*
X6338681Y5133090D01*
X6444170Y5238579D01*
X6501030Y5375853D01*
X6541212Y5278845D01*
X6646701Y5173356D01*
X6784530Y5116266D01*
X6933714Y5116266D01*
X7071543Y5173356D01*
X7173817Y5275630D01*
X7175149Y5274298D01*
X7312978Y5217208D01*
X7462162Y5217208D01*
X7599991Y5274298D01*
X7705480Y5379787D01*
X7762570Y5517616D01*
X7762570Y5666800D01*
X7705480Y5804629D01*
X7599991Y5910118D01*
X7462162Y5967208D01*
X7312978Y5967208D01*
X7175149Y5910118D01*
X7072875Y5807844D01*
X7071543Y5809176D01*
X6933714Y5866266D01*
X6784530Y5866266D01*
X6646701Y5809176D01*
X6541212Y5703687D01*
X6484352Y5566413D01*
X6444170Y5663421D01*
X6338681Y5768910D01*
X6200852Y5826000D01*
X6051668Y5826000D01*
X5913839Y5768910D01*
X5808350Y5663421D01*
X5751260Y5525592D01*
X529176Y5525592D01*
X528898Y5526261D01*
X464364Y5590796D01*
X529947Y5656379D01*
X587037Y5794208D01*
X587037Y5943392D01*
X529947Y6081221D01*
X424458Y6186710D01*
X316274Y6231521D01*
X331432Y6268117D01*
X331432Y6325234D01*
X367148Y6310440D01*
X516332Y6310440D01*
X654161Y6367530D01*
X681223Y6394592D01*
X854464Y6394592D01*
X854464Y6245408D01*
X911554Y6107579D01*
X1017043Y6002090D01*
X1154872Y5945000D01*
X1304056Y5945000D01*
X1441885Y6002090D01*
X1537327Y6097532D01*
X4084580Y6097532D01*
X4084580Y5948348D01*
X4141670Y5810519D01*
X4247159Y5705030D01*
X4384988Y5647940D01*
X4534172Y5647940D01*
X4672001Y5705030D01*
X4777490Y5810519D01*
X4834580Y5948348D01*
X4834580Y6097532D01*
X4823251Y6124884D01*
X8014252Y6124884D01*
X8014252Y5975700D01*
X8071342Y5837871D01*
X8176831Y5732382D01*
X8314660Y5675292D01*
X8463844Y5675292D01*
X8601673Y5732382D01*
X8707162Y5837871D01*
X8764252Y5975700D01*
X8764252Y6124884D01*
X8707162Y6262713D01*
X8601673Y6368202D01*
X8463844Y6425292D01*
X8314660Y6425292D01*
X8176831Y6368202D01*
X8071342Y6262713D01*
X8014252Y6124884D01*
X4823251Y6124884D01*
X4780611Y6227827D01*
X4813431Y6241421D01*
X4918920Y6346910D01*
X4925635Y6363122D01*
X5049050Y6312003D01*
X5198234Y6312003D01*
X5336063Y6369093D01*
X5441552Y6474582D01*
X5498642Y6612411D01*
X5498642Y6761595D01*
X5441552Y6899424D01*
X5336063Y7004913D01*
X5198234Y7062003D01*
X5049050Y7062003D01*
X4911221Y7004913D01*
X4805732Y6899424D01*
X4799017Y6883212D01*
X4675602Y6934331D01*
X4526418Y6934331D01*
X4388589Y6877241D01*
X4283100Y6771752D01*
X4226010Y6633923D01*
X4226010Y6484739D01*
X4279979Y6354444D01*
X4247159Y6340850D01*
X4141670Y6235361D01*
X4084580Y6097532D01*
X1537327Y6097532D01*
X1547374Y6107579D01*
X1604464Y6245408D01*
X1604464Y6394592D01*
X1553826Y6516845D01*
X1690059Y6460416D01*
X1839243Y6460416D01*
X1977072Y6517506D01*
X2082561Y6622995D01*
X2139651Y6760824D01*
X2139651Y6910008D01*
X2082561Y7047837D01*
X1977072Y7153326D01*
X1839243Y7210416D01*
X1690059Y7210416D01*
X1552230Y7153326D01*
X1446741Y7047837D01*
X1389651Y6910008D01*
X1389651Y6760824D01*
X1440289Y6638571D01*
X1304056Y6695000D01*
X1154872Y6695000D01*
X1017043Y6637910D01*
X911554Y6532421D01*
X854464Y6394592D01*
X681223Y6394592D01*
X759650Y6473019D01*
X816740Y6610848D01*
X816740Y6760032D01*
X759650Y6897861D01*
X654161Y7003350D01*
X516332Y7060440D01*
X434128Y7060440D01*
X664580Y7290892D01*
X5863020Y7290892D01*
X5863020Y7141708D01*
X5920110Y7003879D01*
X6025599Y6898390D01*
X6163428Y6841300D01*
X6312612Y6841300D01*
X6429152Y6889572D01*
X6843460Y6889572D01*
X6843460Y6740388D01*
X6900550Y6602559D01*
X7006039Y6497070D01*
X7143868Y6439980D01*
X7293052Y6439980D01*
X7430881Y6497070D01*
X7456444Y6522633D01*
X8750320Y6522633D01*
X8750320Y6264047D01*
X8849277Y6025145D01*
X9032125Y5842297D01*
X9271027Y5743340D01*
X9529613Y5743340D01*
X9768515Y5842297D01*
X9807640Y5881422D01*
X9807640Y5879328D01*
X9864730Y5741499D01*
X9934613Y5671616D01*
X9794125Y5613423D01*
X9611277Y5430575D01*
X9512320Y5191673D01*
X9512320Y4933087D01*
X9561200Y4815080D01*
X9549458Y4815080D01*
X9411629Y4757990D01*
X9306140Y4652501D01*
X9249050Y4514672D01*
X9249050Y4365488D01*
X9306140Y4227659D01*
X9411629Y4122170D01*
X9549458Y4065080D01*
X9698642Y4065080D01*
X9836471Y4122170D01*
X9941960Y4227659D01*
X9999050Y4365488D01*
X9999050Y4426454D01*
X10033027Y4412380D01*
X10291613Y4412380D01*
X10530515Y4511337D01*
X10713363Y4694185D01*
X10812320Y4933087D01*
X10812320Y5191673D01*
X10713363Y5430575D01*
X10530515Y5613423D01*
X10418763Y5659712D01*
X10500550Y5741499D01*
X10557640Y5879328D01*
X10557640Y6028512D01*
X10500550Y6166341D01*
X10395061Y6271830D01*
X10257232Y6328920D01*
X10108048Y6328920D01*
X10050320Y6305009D01*
X10050320Y6522633D01*
X9998798Y6647017D01*
X9998798Y6724154D01*
X9941708Y6861983D01*
X9836219Y6967472D01*
X9698390Y7024562D01*
X9574947Y7024562D01*
X9529613Y7043340D01*
X9271027Y7043340D01*
X9032125Y6944383D01*
X8849277Y6761535D01*
X8750320Y6522633D01*
X7456444Y6522633D01*
X7536370Y6602559D01*
X7593460Y6740388D01*
X7593460Y6889572D01*
X7536370Y7027401D01*
X7430881Y7132890D01*
X7293052Y7189980D01*
X7143868Y7189980D01*
X7006039Y7132890D01*
X6900550Y7027401D01*
X6843460Y6889572D01*
X6429152Y6889572D01*
X6450441Y6898390D01*
X6555930Y7003879D01*
X6613020Y7141708D01*
X6613020Y7290892D01*
X6555930Y7428721D01*
X6450441Y7534210D01*
X6312612Y7591300D01*
X6163428Y7591300D01*
X6025599Y7534210D01*
X5920110Y7428721D01*
X5863020Y7290892D01*
X664580Y7290892D01*
X971731Y7598042D01*
X1021763Y7477252D01*
X1127252Y7371763D01*
X1265081Y7314673D01*
X1414265Y7314673D01*
X1552094Y7371763D01*
X1657583Y7477252D01*
X1698670Y7576447D01*
X1711378Y7563739D01*
X1722538Y7547037D01*
X1788694Y7502833D01*
X1847032Y7491229D01*
X1847033Y7491229D01*
X1866729Y7487311D01*
X1886427Y7491229D01*
X4805779Y7491229D01*
X4829961Y7486419D01*
X4829962Y7486419D01*
X4849658Y7482501D01*
X4869355Y7486419D01*
X5178445Y7486419D01*
X5198141Y7482501D01*
X5217837Y7486419D01*
X5217839Y7486419D01*
X5276177Y7498023D01*
X5342333Y7542227D01*
X5353494Y7558931D01*
X5527404Y7732840D01*
X5550612Y7732840D01*
X5688441Y7789930D01*
X5793930Y7895419D01*
X5851020Y8033248D01*
X5851020Y8182432D01*
X5793930Y8320261D01*
X5688441Y8425750D01*
X5550612Y8482840D01*
X5401428Y8482840D01*
X5263599Y8425750D01*
X5181380Y8343531D01*
X5132181Y8392730D01*
X4994352Y8449820D01*
X4890295Y8449820D01*
X4890295Y8504187D01*
X4833205Y8642016D01*
X4727716Y8747505D01*
X4589887Y8804595D01*
X4440703Y8804595D01*
X4302874Y8747505D01*
X4197385Y8642016D01*
X4140295Y8504187D01*
X4140295Y8355003D01*
X4197385Y8217174D01*
X4302874Y8111685D01*
X4340147Y8096246D01*
X4328901Y8085001D01*
X2772952Y8085001D01*
X2870390Y8182439D01*
X2927480Y8320268D01*
X2927480Y8469452D01*
X2870390Y8607281D01*
X2764901Y8712770D01*
X2627072Y8769860D01*
X2477888Y8769860D01*
X2340059Y8712770D01*
X2234570Y8607281D01*
X2177480Y8469452D01*
X2177480Y8320268D01*
X2234570Y8182439D01*
X2332008Y8085001D01*
X2021688Y8085001D01*
X1731659Y8375028D01*
X1720498Y8391732D01*
X1654342Y8435936D01*
X1596004Y8447540D01*
X1596002Y8447540D01*
X1576306Y8451458D01*
X1556610Y8447540D01*
X616376Y8447540D01*
X596679Y8451458D01*
X576983Y8447540D01*
X576982Y8447540D01*
X518644Y8435936D01*
X452488Y8391732D01*
X441328Y8375030D01*
X21187Y7954888D01*
X6087Y7961143D01*
X-143097Y7961143D01*
X-280926Y7904053D01*
X-386415Y7798564D01*
X-443505Y7660735D01*
X-443505Y7511551D01*
X-386415Y7373722D01*
X-385188Y7372495D01*
X-487540Y7270142D01*
X-544630Y7132313D01*
X-544630Y6983129D01*
X-487540Y6845300D01*
X-382051Y6739811D01*
X-244222Y6682721D01*
X-202629Y6682721D01*
X-255989Y6660619D01*
X-361478Y6555130D01*
X-418568Y6417301D01*
X-418568Y6268117D01*
X-361478Y6130288D01*
X-255989Y6024799D01*
X-147805Y5979988D01*
X-162963Y5943392D01*
X-162963Y5794208D01*
X-140858Y5740841D01*
X-142064Y5742047D01*
X-279893Y5799137D01*
X-387487Y5799137D01*
X-387487Y5851188D01*
X-444577Y5989017D01*
X-550066Y6094506D01*
X-687895Y6151596D01*
X-837079Y6151596D01*
X-974908Y6094506D01*
X-1080397Y5989017D01*
X-1137487Y5851188D01*
X-1137487Y5702004D01*
X-1080397Y5564175D01*
X-974908Y5458686D01*
X-855186Y5409096D01*
X-958462Y5366318D01*
X-1032687Y5292093D01*
X-1090938Y5350344D01*
X-1228767Y5407434D01*
X-1377951Y5407434D01*
X-1515780Y5350344D01*
X-1621269Y5244855D01*
X-1678359Y5107026D01*
X-3745434Y5107026D01*
X-3745434Y5238825D01*
X-3802524Y5376654D01*
X-3908013Y5482143D01*
X-4045842Y5539233D01*
X-4195026Y5539233D01*
X-4332855Y5482143D01*
X-4438344Y5376654D01*
X-4495434Y5238825D01*
X-11079398Y5238825D01*
X-10772849Y5883259D01*
X-10441918Y6416169D01*
X-5813118Y6416169D01*
X-5813118Y6266985D01*
X-5756028Y6129156D01*
X-5650539Y6023667D01*
X-5512710Y5966577D01*
X-5363526Y5966577D01*
X-5225697Y6023667D01*
X-5195188Y6054177D01*
X-5142756Y6001745D01*
X-5176558Y5967943D01*
X-5233648Y5830114D01*
X-5233648Y5680930D01*
X-5176558Y5543101D01*
X-5071069Y5437612D01*
X-4933240Y5380522D01*
X-4784056Y5380522D01*
X-4646227Y5437612D01*
X-4540738Y5543101D01*
X-4483648Y5680930D01*
X-4483648Y5830114D01*
X-4540738Y5967943D01*
X-4618312Y6045517D01*
X-4584510Y6079319D01*
X-4527420Y6217148D01*
X-4527420Y6366332D01*
X-4584510Y6504161D01*
X-4689999Y6609650D01*
X-4827828Y6666740D01*
X-4902451Y6666740D01*
X-4822535Y6699842D01*
X-4717046Y6805331D01*
X-4659956Y6943160D01*
X-4659956Y7092344D01*
X-4717046Y7230173D01*
X-4822535Y7335662D01*
X-4960364Y7392752D01*
X-5109548Y7392752D01*
X-5247377Y7335662D01*
X-5352866Y7230173D01*
X-5409956Y7092344D01*
X-5409956Y6943160D01*
X-5352866Y6805331D01*
X-5247377Y6699842D01*
X-5109548Y6642752D01*
X-5034925Y6642752D01*
X-5114841Y6609650D01*
X-5145351Y6579141D01*
X-5225697Y6659487D01*
X-5363526Y6716577D01*
X-5512710Y6716577D01*
X-5650539Y6659487D01*
X-5756028Y6553998D01*
X-5813118Y6416169D01*
X-10441918Y6416169D01*
X-10049913Y7047428D01*
X-9942121Y7184212D01*
X-8658160Y7184212D01*
X-8658160Y7035028D01*
X-8601070Y6897199D01*
X-8495581Y6791710D01*
X-8357752Y6734620D01*
X-8208568Y6734620D01*
X-8070739Y6791710D01*
X-7965250Y6897199D01*
X-7908160Y7035028D01*
X-7908160Y7184212D01*
X-7965250Y7322041D01*
X-8070739Y7427530D01*
X-8208568Y7484620D01*
X-8357752Y7484620D01*
X-8495581Y7427530D01*
X-8601070Y7322041D01*
X-8658160Y7184212D01*
X-9942121Y7184212D01*
X-9640929Y7566414D01*
X-4455798Y7566414D01*
X-4455798Y7417230D01*
X-4398708Y7279401D01*
X-4293219Y7173912D01*
X-4155390Y7116822D01*
X-4006206Y7116822D01*
X-3868377Y7173912D01*
X-3762888Y7279401D01*
X-3705798Y7417230D01*
X-3705798Y7566414D01*
X-3762888Y7704243D01*
X-3868377Y7809732D01*
X-4006206Y7866822D01*
X-4155390Y7866822D01*
X-4293219Y7809732D01*
X-4398708Y7704243D01*
X-4455798Y7566414D01*
X-9640929Y7566414D01*
X-9201714Y8123760D01*
X-8707297Y8624434D01*
X-4073973Y8624434D01*
X-4073973Y8475250D01*
X-4016883Y8337421D01*
X-3911394Y8231932D01*
X-3773565Y8174842D01*
X-3624381Y8174842D01*
X-3486552Y8231932D01*
X-3381063Y8337421D01*
X-3323973Y8475250D01*
X-3323973Y8557115D01*
X-3245799Y8557115D01*
X-3107970Y8614205D01*
X-3002481Y8719694D01*
X-2945391Y8857523D01*
X-2945391Y8992350D01*
X-2942536Y8985457D01*
X-2837047Y8879968D01*
X-2725738Y8833863D01*
X-2739024Y8801786D01*
X-2739024Y8652602D01*
X-2681934Y8514773D01*
X-2576445Y8409284D01*
X-2438616Y8352194D01*
X-2289432Y8352194D01*
X-2151603Y8409284D01*
X-2046114Y8514773D01*
X-1989024Y8652602D01*
X-1989024Y8668080D01*
X-1984207Y8666085D01*
X-1931799Y8666085D01*
X-1931799Y8560320D01*
X-1874709Y8422491D01*
X-1769220Y8317002D01*
X-1631391Y8259912D01*
X-1607656Y8259912D01*
X-1607656Y8130916D01*
X-1550566Y7993087D01*
X-1445077Y7887598D01*
X-1307248Y7830508D01*
X-1158064Y7830508D01*
X-1020235Y7887598D01*
X-936356Y7971477D01*
X-889961Y7925082D01*
X-752132Y7867992D01*
X-602948Y7867992D01*
X-465119Y7925082D01*
X-359630Y8030571D01*
X-302540Y8168400D01*
X-302540Y8317584D01*
X-359630Y8455413D01*
X-465119Y8560902D01*
X-602948Y8617992D01*
X-752132Y8617992D01*
X-889961Y8560902D01*
X-973840Y8477023D01*
X-1020235Y8523418D01*
X-1158064Y8580508D01*
X-1181799Y8580508D01*
X-1181799Y8709504D01*
X-1238889Y8847333D01*
X-1344378Y8952822D01*
X-1482207Y9009912D01*
X-1534615Y9009912D01*
X-1534615Y9115677D01*
X-1591705Y9253506D01*
X-1697194Y9358995D01*
X-1835023Y9416085D01*
X-1984207Y9416085D01*
X-2122036Y9358995D01*
X-2227525Y9253506D01*
X-2249626Y9200149D01*
X-2249626Y9272470D01*
X-2306716Y9410299D01*
X-2412205Y9515788D01*
X-2550034Y9572878D01*
X-2699218Y9572878D01*
X-2837047Y9515788D01*
X-2942536Y9410299D01*
X-2999626Y9272470D01*
X-2999626Y9137643D01*
X-3002481Y9144536D01*
X-3107970Y9250025D01*
X-3245799Y9307115D01*
X-3394983Y9307115D01*
X-3532812Y9250025D01*
X-3638301Y9144536D01*
X-3695391Y9006707D01*
X-3695391Y8924842D01*
X-3773565Y8924842D01*
X-3911394Y8867752D01*
X-4016883Y8762263D01*
X-4073973Y8624434D01*
X-8707297Y8624434D01*
X-8238817Y9098841D01*
X-7543738Y9660906D01*
X-139326Y9660906D01*
X-139326Y9511722D01*
X-82236Y9373893D01*
X23253Y9268404D01*
X161082Y9211314D01*
X310266Y9211314D01*
X448095Y9268404D01*
X553584Y9373893D01*
X578750Y9434652D01*
X1976820Y9434652D01*
X1976820Y9285468D01*
X2033910Y9147639D01*
X2139399Y9042150D01*
X2277228Y8985060D01*
X2426412Y8985060D01*
X2564241Y9042150D01*
X2669730Y9147639D01*
X2726820Y9285468D01*
X2726820Y9384592D01*
X3275000Y9384592D01*
X3275000Y9235408D01*
X3332090Y9097579D01*
X3437579Y8992090D01*
X3575408Y8935000D01*
X3724592Y8935000D01*
X3862421Y8992090D01*
X3967910Y9097579D01*
X4025000Y9235408D01*
X4025000Y9384592D01*
X3967910Y9522421D01*
X3862421Y9627910D01*
X3724592Y9685000D01*
X3575408Y9685000D01*
X3437579Y9627910D01*
X3332090Y9522421D01*
X3275000Y9384592D01*
X2726820Y9384592D01*
X2726820Y9434652D01*
X2669730Y9572481D01*
X2564241Y9677970D01*
X2426412Y9735060D01*
X2277228Y9735060D01*
X2139399Y9677970D01*
X2033910Y9572481D01*
X1976820Y9434652D01*
X578750Y9434652D01*
X610674Y9511722D01*
X610674Y9660906D01*
X553584Y9798735D01*
X448095Y9904224D01*
X310266Y9961314D01*
X161082Y9961314D01*
X23253Y9904224D01*
X-82236Y9798735D01*
X-139326Y9660906D01*
X-7543738Y9660906D01*
X-7173234Y9960508D01*
X-6688295Y10270165D01*
X-3141133Y10270165D01*
X-3141133Y10120981D01*
X-3084043Y9983152D01*
X-2978554Y9877663D01*
X-2840725Y9820573D01*
X-2691541Y9820573D01*
X-2553712Y9877663D01*
X-2448223Y9983152D01*
X-2391133Y10120981D01*
X-2391133Y10270165D01*
X-2448223Y10407994D01*
X-2553712Y10513483D01*
X-2691541Y10570573D01*
X-2840725Y10570573D01*
X-2978554Y10513483D01*
X-3084043Y10407994D01*
X-3141133Y10270165D01*
X-6688295Y10270165D01*
X-6018242Y10698026D01*
X-5549703Y10928172D01*
X-2226880Y10928172D01*
X-2226880Y10778988D01*
X-2169790Y10641159D01*
X-2064301Y10535670D01*
X-1926472Y10478580D01*
X-1777288Y10478580D01*
X-1639459Y10535670D01*
X-1533970Y10641159D01*
X-1510827Y10697032D01*
X-230440Y10697032D01*
X-230440Y10547848D01*
X-173350Y10410019D01*
X-67861Y10304530D01*
X69968Y10247440D01*
X219152Y10247440D01*
X356981Y10304530D01*
X456204Y10403753D01*
X4185940Y10403753D01*
X4185940Y10145167D01*
X4284897Y9906265D01*
X4467745Y9723417D01*
X4706647Y9624460D01*
X4965233Y9624460D01*
X5204135Y9723417D01*
X5386983Y9906265D01*
X5436248Y10025201D01*
X5509979Y9951470D01*
X5633124Y9900462D01*
X5620937Y9888275D01*
X5521980Y9649373D01*
X5521980Y9390787D01*
X5620937Y9151885D01*
X5803785Y8969037D01*
X6042687Y8870080D01*
X6301273Y8870080D01*
X6540175Y8969037D01*
X6723023Y9151885D01*
X6821980Y9390787D01*
X6821980Y9649373D01*
X6723023Y9888275D01*
X6540175Y10071123D01*
X6301273Y10170080D01*
X6087166Y10170080D01*
X6097400Y10194788D01*
X6097400Y10343972D01*
X6040310Y10481801D01*
X5934821Y10587290D01*
X5796992Y10644380D01*
X5647808Y10644380D01*
X5509979Y10587290D01*
X5439224Y10516535D01*
X5386983Y10642655D01*
X5204135Y10825503D01*
X4965233Y10924460D01*
X4706647Y10924460D01*
X4467745Y10825503D01*
X4284897Y10642655D01*
X4185940Y10403753D01*
X456204Y10403753D01*
X462470Y10410019D01*
X519560Y10547848D01*
X519560Y10697032D01*
X462470Y10834861D01*
X356981Y10940350D01*
X219152Y10997440D01*
X69968Y10997440D01*
X-67861Y10940350D01*
X-173350Y10834861D01*
X-230440Y10697032D01*
X-1510827Y10697032D01*
X-1476880Y10778988D01*
X-1476880Y10928172D01*
X-1533970Y11066001D01*
X-1639459Y11171490D01*
X-1659115Y11179632D01*
X1115760Y11179632D01*
X1115760Y11030448D01*
X1172850Y10892619D01*
X1278339Y10787130D01*
X1416168Y10730040D01*
X1565352Y10730040D01*
X1703181Y10787130D01*
X1808670Y10892619D01*
X1865760Y11030448D01*
X1865760Y11090732D01*
X3127440Y11090732D01*
X3127440Y10941548D01*
X3184530Y10803719D01*
X3290019Y10698230D01*
X3427848Y10641140D01*
X3577032Y10641140D01*
X3714861Y10698230D01*
X3820350Y10803719D01*
X3877440Y10941548D01*
X3877440Y11090732D01*
X3820350Y11228561D01*
X3714861Y11334050D01*
X3577032Y11391140D01*
X3427848Y11391140D01*
X3290019Y11334050D01*
X3184530Y11228561D01*
X3127440Y11090732D01*
X1865760Y11090732D01*
X1865760Y11179632D01*
X1808670Y11317461D01*
X1703181Y11422950D01*
X1565352Y11480040D01*
X1416168Y11480040D01*
X1278339Y11422950D01*
X1172850Y11317461D01*
X1115760Y11179632D01*
X-1659115Y11179632D01*
X-1777288Y11228580D01*
X-1926472Y11228580D01*
X-2064301Y11171490D01*
X-2169790Y11066001D01*
X-2226880Y10928172D01*
X-5549703Y10928172D01*
X-4788241Y11302201D01*
X-3498556Y11765505D01*
X-2165262Y12082161D01*
X-804979Y12248225D01*
X565332Y12261623D01*
X1928591Y12122192D01*
D15*
G36*
X8641604Y-7504516D02*
X8866907Y-7597840D01*
X9110773Y-7597840D01*
X9336076Y-7504516D01*
X9427592Y-7413000D01*
X9806066Y-7413000D01*
X9342359Y-8018631D01*
X8390311Y-9010039D01*
X7333677Y-9889151D01*
X6513000Y-10429470D01*
X6513000Y-9033465D01*
X7349043Y-9033465D01*
X7415181Y-9115243D01*
X7697416Y-9143529D01*
X7839619Y-9115243D01*
X7905757Y-9033465D01*
X7627400Y-8755109D01*
X7349043Y-9033465D01*
X6513000Y-9033465D01*
X6513000Y-8489956D01*
X6903811Y-8489956D01*
X6932097Y-8632159D01*
X7013875Y-8698297D01*
X7292231Y-8419940D01*
X7962569Y-8419940D01*
X8240925Y-8698297D01*
X8322703Y-8632159D01*
X8350989Y-8349924D01*
X8322703Y-8207721D01*
X8240925Y-8141583D01*
X7962569Y-8419940D01*
X7292231Y-8419940D01*
X7013875Y-8141583D01*
X6932097Y-8207721D01*
X6903811Y-8489956D01*
X6513000Y-8489956D01*
X6513000Y-7806415D01*
X7349043Y-7806415D01*
X7627400Y-8084771D01*
X7905757Y-7806415D01*
X7839619Y-7724637D01*
X7557384Y-7696351D01*
X7415181Y-7724637D01*
X7349043Y-7806415D01*
X6513000Y-7806415D01*
X6513000Y-7413000D01*
X8550088Y-7413000D01*
X8641604Y-7504516D01*
X8641604Y-7504516D01*
G37*
X8641604Y-7504516D02*
X8866907Y-7597840D01*
X9110773Y-7597840D01*
X9336076Y-7504516D01*
X9427592Y-7413000D01*
X9806066Y-7413000D01*
X9342359Y-8018631D01*
X8390311Y-9010039D01*
X7333677Y-9889151D01*
X6513000Y-10429470D01*
X6513000Y-9033465D01*
X7349043Y-9033465D01*
X7415181Y-9115243D01*
X7697416Y-9143529D01*
X7839619Y-9115243D01*
X7905757Y-9033465D01*
X7627400Y-8755109D01*
X7349043Y-9033465D01*
X6513000Y-9033465D01*
X6513000Y-8489956D01*
X6903811Y-8489956D01*
X6932097Y-8632159D01*
X7013875Y-8698297D01*
X7292231Y-8419940D01*
X7962569Y-8419940D01*
X8240925Y-8698297D01*
X8322703Y-8632159D01*
X8350989Y-8349924D01*
X8322703Y-8207721D01*
X8240925Y-8141583D01*
X7962569Y-8419940D01*
X7292231Y-8419940D01*
X7013875Y-8141583D01*
X6932097Y-8207721D01*
X6903811Y-8489956D01*
X6513000Y-8489956D01*
X6513000Y-7806415D01*
X7349043Y-7806415D01*
X7627400Y-8084771D01*
X7905757Y-7806415D01*
X7839619Y-7724637D01*
X7557384Y-7696351D01*
X7415181Y-7724637D01*
X7349043Y-7806415D01*
X6513000Y-7806415D01*
X6513000Y-7413000D01*
X8550088Y-7413000D01*
X8641604Y-7504516D01*
G04 #@! TD*
M02*
