G04 #@! TF.GenerationSoftware,KiCad,Pcbnew,5.0.2-bee76a0~70~ubuntu18.04.1*
G04 #@! TF.CreationDate,2019-06-05T01:10:19+02:00*
G04 #@! TF.ProjectId,mainboard,6d61696e-626f-4617-9264-2e6b69636164,rev?*
G04 #@! TF.SameCoordinates,Original*
G04 #@! TF.FileFunction,Soldermask,Bot*
G04 #@! TF.FilePolarity,Negative*
%FSLAX46Y46*%
G04 Gerber Fmt 4.6, Leading zero omitted, Abs format (unit mm)*
G04 Created by KiCad (PCBNEW 5.0.2-bee76a0~70~ubuntu18.04.1) date Mi 05 Jun 2019 01:10:19 CEST*
%MOMM*%
%LPD*%
G01*
G04 APERTURE LIST*
%ADD10C,0.100000*%
G04 APERTURE END LIST*
D10*
G36*
X-4987340Y-9669438D02*
X-4894523Y-9707884D01*
X-4810993Y-9763697D01*
X-4739957Y-9834733D01*
X-4684144Y-9918263D01*
X-4645698Y-10011080D01*
X-4626100Y-10109608D01*
X-4626100Y-10210072D01*
X-4645698Y-10308600D01*
X-4684144Y-10401417D01*
X-4739957Y-10484947D01*
X-4810993Y-10555983D01*
X-4894523Y-10611796D01*
X-4987340Y-10650242D01*
X-5085868Y-10669840D01*
X-5186332Y-10669840D01*
X-5284860Y-10650242D01*
X-5377677Y-10611796D01*
X-5461207Y-10555983D01*
X-5532243Y-10484947D01*
X-5588056Y-10401417D01*
X-5626502Y-10308600D01*
X-5646100Y-10210072D01*
X-5646100Y-10109608D01*
X-5626502Y-10011080D01*
X-5588056Y-9918263D01*
X-5532243Y-9834733D01*
X-5461207Y-9763697D01*
X-5377677Y-9707884D01*
X-5284860Y-9669438D01*
X-5186332Y-9649840D01*
X-5085868Y-9649840D01*
X-4987340Y-9669438D01*
X-4987340Y-9669438D01*
G37*
G36*
X7776160Y-7929538D02*
X7868977Y-7967984D01*
X7952507Y-8023797D01*
X8023543Y-8094833D01*
X8079356Y-8178363D01*
X8117802Y-8271180D01*
X8137400Y-8369708D01*
X8137400Y-8470172D01*
X8117802Y-8568700D01*
X8079356Y-8661517D01*
X8023543Y-8745047D01*
X7952507Y-8816083D01*
X7868977Y-8871896D01*
X7776160Y-8910342D01*
X7677632Y-8929940D01*
X7577168Y-8929940D01*
X7478640Y-8910342D01*
X7385823Y-8871896D01*
X7302293Y-8816083D01*
X7231257Y-8745047D01*
X7175444Y-8661517D01*
X7136998Y-8568700D01*
X7117400Y-8470172D01*
X7117400Y-8369708D01*
X7136998Y-8271180D01*
X7175444Y-8178363D01*
X7231257Y-8094833D01*
X7302293Y-8023797D01*
X7385823Y-7967984D01*
X7478640Y-7929538D01*
X7577168Y-7909940D01*
X7677632Y-7909940D01*
X7776160Y-7929538D01*
X7776160Y-7929538D01*
G37*
G36*
X9137600Y-6494438D02*
X9230417Y-6532884D01*
X9313947Y-6588697D01*
X9384983Y-6659733D01*
X9440796Y-6743263D01*
X9479242Y-6836080D01*
X9498840Y-6934608D01*
X9498840Y-7035072D01*
X9479242Y-7133600D01*
X9440796Y-7226417D01*
X9384983Y-7309947D01*
X9313947Y-7380983D01*
X9230417Y-7436796D01*
X9137600Y-7475242D01*
X9039072Y-7494840D01*
X8938608Y-7494840D01*
X8840080Y-7475242D01*
X8747263Y-7436796D01*
X8663733Y-7380983D01*
X8592697Y-7309947D01*
X8536884Y-7226417D01*
X8498438Y-7133600D01*
X8478840Y-7035072D01*
X8478840Y-6934608D01*
X8498438Y-6836080D01*
X8536884Y-6743263D01*
X8592697Y-6659733D01*
X8663733Y-6588697D01*
X8747263Y-6532884D01*
X8840080Y-6494438D01*
X8938608Y-6474840D01*
X9039072Y-6474840D01*
X9137600Y-6494438D01*
X9137600Y-6494438D01*
G37*
G36*
X10227260Y-4812958D02*
X10320077Y-4851404D01*
X10403607Y-4907217D01*
X10474643Y-4978253D01*
X10530456Y-5061783D01*
X10568902Y-5154600D01*
X10588500Y-5253128D01*
X10588500Y-5353592D01*
X10568902Y-5452120D01*
X10530456Y-5544937D01*
X10474643Y-5628467D01*
X10403607Y-5699503D01*
X10320077Y-5755316D01*
X10227260Y-5793762D01*
X10128732Y-5813360D01*
X10028268Y-5813360D01*
X9929740Y-5793762D01*
X9836923Y-5755316D01*
X9753393Y-5699503D01*
X9682357Y-5628467D01*
X9626544Y-5544937D01*
X9588098Y-5452120D01*
X9568500Y-5353592D01*
X9568500Y-5253128D01*
X9588098Y-5154600D01*
X9626544Y-5061783D01*
X9682357Y-4978253D01*
X9753393Y-4907217D01*
X9836923Y-4851404D01*
X9929740Y-4812958D01*
X10028268Y-4793360D01*
X10128732Y-4793360D01*
X10227260Y-4812958D01*
X10227260Y-4812958D01*
G37*
G36*
X2962055Y1454180D02*
X2962055Y-1545820D01*
X1462055Y-3045820D01*
X-1537945Y-3045820D01*
X-3037945Y-1545820D01*
X-3037945Y1454180D01*
X-1537945Y2954180D01*
X1462055Y2954180D01*
X2962055Y1454180D01*
X2962055Y1454180D01*
G37*
G36*
X11283900Y2720682D02*
X11376717Y2682236D01*
X11460247Y2626423D01*
X11531283Y2555387D01*
X11587096Y2471857D01*
X11625542Y2379040D01*
X11645140Y2280512D01*
X11645140Y2180048D01*
X11625542Y2081520D01*
X11587096Y1988703D01*
X11531283Y1905173D01*
X11460247Y1834137D01*
X11376717Y1778324D01*
X11283900Y1739878D01*
X11185372Y1720280D01*
X11084908Y1720280D01*
X10986380Y1739878D01*
X10893563Y1778324D01*
X10810033Y1834137D01*
X10738997Y1905173D01*
X10683184Y1988703D01*
X10644738Y2081520D01*
X10625140Y2180048D01*
X10625140Y2280512D01*
X10644738Y2379040D01*
X10683184Y2471857D01*
X10738997Y2555387D01*
X10810033Y2626423D01*
X10893563Y2682236D01*
X10986380Y2720682D01*
X11084908Y2740280D01*
X11185372Y2740280D01*
X11283900Y2720682D01*
X11283900Y2720682D01*
G37*
G36*
X-10923320Y2984842D02*
X-10830503Y2946396D01*
X-10746973Y2890583D01*
X-10675937Y2819547D01*
X-10620124Y2736017D01*
X-10581678Y2643200D01*
X-10562080Y2544672D01*
X-10562080Y2444208D01*
X-10581678Y2345680D01*
X-10620124Y2252863D01*
X-10675937Y2169333D01*
X-10746973Y2098297D01*
X-10830503Y2042484D01*
X-10923320Y2004038D01*
X-11021848Y1984440D01*
X-11122312Y1984440D01*
X-11220840Y2004038D01*
X-11313657Y2042484D01*
X-11397187Y2098297D01*
X-11468223Y2169333D01*
X-11524036Y2252863D01*
X-11562482Y2345680D01*
X-11582080Y2444208D01*
X-11582080Y2544672D01*
X-11562482Y2643200D01*
X-11524036Y2736017D01*
X-11468223Y2819547D01*
X-11397187Y2890583D01*
X-11313657Y2946396D01*
X-11220840Y2984842D01*
X-11122312Y3004440D01*
X-11021848Y3004440D01*
X-10923320Y2984842D01*
X-10923320Y2984842D01*
G37*
G36*
X10880040Y4176102D02*
X10972857Y4137656D01*
X11056387Y4081843D01*
X11127423Y4010807D01*
X11183236Y3927277D01*
X11221682Y3834460D01*
X11241280Y3735932D01*
X11241280Y3635468D01*
X11221682Y3536940D01*
X11183236Y3444123D01*
X11127423Y3360593D01*
X11056387Y3289557D01*
X10972857Y3233744D01*
X10880040Y3195298D01*
X10781512Y3175700D01*
X10681048Y3175700D01*
X10582520Y3195298D01*
X10489703Y3233744D01*
X10406173Y3289557D01*
X10335137Y3360593D01*
X10279324Y3444123D01*
X10240878Y3536940D01*
X10221280Y3635468D01*
X10221280Y3735932D01*
X10240878Y3834460D01*
X10279324Y3927277D01*
X10335137Y4010807D01*
X10406173Y4081843D01*
X10489703Y4137656D01*
X10582520Y4176102D01*
X10681048Y4195700D01*
X10781512Y4195700D01*
X10880040Y4176102D01*
X10880040Y4176102D01*
G37*
G36*
X-10240060Y5060022D02*
X-10147243Y5021576D01*
X-10063713Y4965763D01*
X-9992677Y4894727D01*
X-9936864Y4811197D01*
X-9898418Y4718380D01*
X-9878820Y4619852D01*
X-9878820Y4519388D01*
X-9898418Y4420860D01*
X-9936864Y4328043D01*
X-9992677Y4244513D01*
X-10063713Y4173477D01*
X-10147243Y4117664D01*
X-10240060Y4079218D01*
X-10338588Y4059620D01*
X-10439052Y4059620D01*
X-10537580Y4079218D01*
X-10630397Y4117664D01*
X-10713927Y4173477D01*
X-10784963Y4244513D01*
X-10840776Y4328043D01*
X-10879222Y4420860D01*
X-10898820Y4519388D01*
X-10898820Y4619852D01*
X-10879222Y4718380D01*
X-10840776Y4811197D01*
X-10784963Y4894727D01*
X-10713927Y4965763D01*
X-10630397Y5021576D01*
X-10537580Y5060022D01*
X-10439052Y5079620D01*
X-10338588Y5079620D01*
X-10240060Y5060022D01*
X-10240060Y5060022D01*
G37*
G36*
X10311080Y5552782D02*
X10403897Y5514336D01*
X10487427Y5458523D01*
X10558463Y5387487D01*
X10614276Y5303957D01*
X10652722Y5211140D01*
X10672320Y5112612D01*
X10672320Y5012148D01*
X10652722Y4913620D01*
X10614276Y4820803D01*
X10558463Y4737273D01*
X10487427Y4666237D01*
X10403897Y4610424D01*
X10311080Y4571978D01*
X10212552Y4552380D01*
X10112088Y4552380D01*
X10013560Y4571978D01*
X9920743Y4610424D01*
X9837213Y4666237D01*
X9766177Y4737273D01*
X9710364Y4820803D01*
X9671918Y4913620D01*
X9652320Y5012148D01*
X9652320Y5112612D01*
X9671918Y5211140D01*
X9710364Y5303957D01*
X9766177Y5387487D01*
X9837213Y5458523D01*
X9920743Y5514336D01*
X10013560Y5552782D01*
X10112088Y5572380D01*
X10212552Y5572380D01*
X10311080Y5552782D01*
X10311080Y5552782D01*
G37*
G36*
X9549080Y6883742D02*
X9641897Y6845296D01*
X9725427Y6789483D01*
X9796463Y6718447D01*
X9852276Y6634917D01*
X9890722Y6542100D01*
X9910320Y6443572D01*
X9910320Y6343108D01*
X9890722Y6244580D01*
X9852276Y6151763D01*
X9796463Y6068233D01*
X9725427Y5997197D01*
X9641897Y5941384D01*
X9549080Y5902938D01*
X9450552Y5883340D01*
X9350088Y5883340D01*
X9251560Y5902938D01*
X9158743Y5941384D01*
X9075213Y5997197D01*
X9004177Y6068233D01*
X8948364Y6151763D01*
X8909918Y6244580D01*
X8890320Y6343108D01*
X8890320Y6443572D01*
X8909918Y6542100D01*
X8948364Y6634917D01*
X9004177Y6718447D01*
X9075213Y6789483D01*
X9158743Y6845296D01*
X9251560Y6883742D01*
X9350088Y6903340D01*
X9450552Y6903340D01*
X9549080Y6883742D01*
X9549080Y6883742D01*
G37*
G36*
X8609280Y8069922D02*
X8702097Y8031476D01*
X8785627Y7975663D01*
X8856663Y7904627D01*
X8912476Y7821097D01*
X8950922Y7728280D01*
X8970520Y7629752D01*
X8970520Y7529288D01*
X8950922Y7430760D01*
X8912476Y7337943D01*
X8856663Y7254413D01*
X8785627Y7183377D01*
X8702097Y7127564D01*
X8609280Y7089118D01*
X8510752Y7069520D01*
X8410288Y7069520D01*
X8311760Y7089118D01*
X8218943Y7127564D01*
X8135413Y7183377D01*
X8064377Y7254413D01*
X8008564Y7337943D01*
X7970118Y7430760D01*
X7950520Y7529288D01*
X7950520Y7629752D01*
X7970118Y7728280D01*
X8008564Y7821097D01*
X8064377Y7904627D01*
X8135413Y7975663D01*
X8218943Y8031476D01*
X8311760Y8069922D01*
X8410288Y8089520D01*
X8510752Y8089520D01*
X8609280Y8069922D01*
X8609280Y8069922D01*
G37*
G36*
X7527240Y9121482D02*
X7620057Y9083036D01*
X7703587Y9027223D01*
X7774623Y8956187D01*
X7830436Y8872657D01*
X7868882Y8779840D01*
X7888480Y8681312D01*
X7888480Y8580848D01*
X7868882Y8482320D01*
X7830436Y8389503D01*
X7774623Y8305973D01*
X7703587Y8234937D01*
X7620057Y8179124D01*
X7527240Y8140678D01*
X7428712Y8121080D01*
X7328248Y8121080D01*
X7229720Y8140678D01*
X7136903Y8179124D01*
X7053373Y8234937D01*
X6982337Y8305973D01*
X6926524Y8389503D01*
X6888078Y8482320D01*
X6868480Y8580848D01*
X6868480Y8681312D01*
X6888078Y8779840D01*
X6926524Y8872657D01*
X6982337Y8956187D01*
X7053373Y9027223D01*
X7136903Y9083036D01*
X7229720Y9121482D01*
X7328248Y9141080D01*
X7428712Y9141080D01*
X7527240Y9121482D01*
X7527240Y9121482D01*
G37*
G36*
X6320740Y10010482D02*
X6413557Y9972036D01*
X6497087Y9916223D01*
X6568123Y9845187D01*
X6623936Y9761657D01*
X6662382Y9668840D01*
X6681980Y9570312D01*
X6681980Y9469848D01*
X6662382Y9371320D01*
X6623936Y9278503D01*
X6568123Y9194973D01*
X6497087Y9123937D01*
X6413557Y9068124D01*
X6320740Y9029678D01*
X6222212Y9010080D01*
X6121748Y9010080D01*
X6023220Y9029678D01*
X5930403Y9068124D01*
X5846873Y9123937D01*
X5775837Y9194973D01*
X5720024Y9278503D01*
X5681578Y9371320D01*
X5661980Y9469848D01*
X5661980Y9570312D01*
X5681578Y9668840D01*
X5720024Y9761657D01*
X5775837Y9845187D01*
X5846873Y9916223D01*
X5930403Y9972036D01*
X6023220Y10010482D01*
X6121748Y10030080D01*
X6222212Y10030080D01*
X6320740Y10010482D01*
X6320740Y10010482D01*
G37*
G36*
X4984700Y10764862D02*
X5077517Y10726416D01*
X5161047Y10670603D01*
X5232083Y10599567D01*
X5287896Y10516037D01*
X5326342Y10423220D01*
X5345940Y10324692D01*
X5345940Y10224228D01*
X5326342Y10125700D01*
X5287896Y10032883D01*
X5232083Y9949353D01*
X5161047Y9878317D01*
X5077517Y9822504D01*
X4984700Y9784058D01*
X4886172Y9764460D01*
X4785708Y9764460D01*
X4687180Y9784058D01*
X4594363Y9822504D01*
X4510833Y9878317D01*
X4439797Y9949353D01*
X4383984Y10032883D01*
X4345538Y10125700D01*
X4325940Y10224228D01*
X4325940Y10324692D01*
X4345538Y10423220D01*
X4383984Y10516037D01*
X4439797Y10599567D01*
X4510833Y10670603D01*
X4594363Y10726416D01*
X4687180Y10764862D01*
X4785708Y10784460D01*
X4886172Y10784460D01*
X4984700Y10764862D01*
X4984700Y10764862D01*
G37*
M02*
