%
M48
METRIC,000.000
T01C0.50
%
T01
X018016Y072720
X017083Y073078
X016123Y073359
X015145Y073566
X016573Y077664
X017179Y076869
X017847Y076125
X018571Y075435
X019345Y074803
X039611Y086863
X039426Y087846
X039166Y088811
X038829Y089752
X042931Y090108
X042645Y089150
X042438Y088172
X042306Y087181
X067611Y087863
X067426Y088846
X067166Y089811
X066829Y090752
X071290Y091041
X070931Y090108
X070645Y089150
X070438Y088172
X078785Y069171
X078115Y069913
X077388Y070599
X076610Y071227
X077933Y074300
X078866Y073940
X079824Y073653
X080801Y073441
X046016Y072720
X045083Y073078
X044123Y073359
X043145Y073566
X045179Y077869
X045847Y077125
X046571Y076435
X047345Y075803
X025426Y063846
X025166Y064811
X024829Y065752
X024420Y066664
X029720Y066943
X029290Y066041
X028931Y065108
X028645Y064150
X018849Y046802
X018106Y046133
X017417Y045409
X016788Y044632
X013896Y048283
X014889Y048392
X015872Y048577
X016836Y048842
X017777Y049180
X074849Y046802
X074106Y046133
X073417Y045409
X072788Y044632
X069896Y048283
X070889Y048392
X071872Y048577
X072836Y048842
X073777Y049180
X079395Y020379
X078785Y021171
X078115Y021913
X077388Y022599
X078866Y024940
X079824Y024653
X080801Y024441
X081792Y024309
X061641Y023411
X060849Y022802
X060106Y022133
X059417Y021409
X058788Y020632
X056889Y024392
X057872Y024577
X058836Y024842
X059777Y025180
X032849Y022802
X032106Y022133
X031417Y021409
X030788Y020632
X027896Y024283
X028889Y024392
X029872Y024577
X030836Y024842
X031777Y025180
X024303Y007104
X024731Y008007
X025085Y008942
X025366Y009901
X028560Y010205
X028818Y009240
X029150Y008297
X029554Y007382
X052303Y007104
X052731Y008007
X053085Y008942
X053366Y009901
X056560Y010205
X056818Y009240
X057150Y008297
X057554Y007382
X017083Y025078
X016123Y025359
X015145Y025566
X014154Y025697
X016573Y029664
X017179Y028869
X017847Y028125
X018571Y027435
X054156Y049720
X053162Y049616
X052180Y049432
X051214Y049173
X049192Y051230
X049931Y051903
X050617Y052631
X051244Y053409
X051806Y054236
M30