%MOIN*%
%OFA0B0*%
%FSLAX46Y46*%
%IPPOS*%
%LPD*%
%ADD10R,0.053149606299212608X0.053149606299212608*%
%ADD11C,0.047244094488188976*%
%ADD12C,0.017716535433070866*%
%ADD23R,0.053149606299212608X0.053149606299212608*%
%ADD24C,0.047244094488188976*%
%ADD25C,0.017716535433070866*%
%ADD26R,0.053149606299212608X0.053149606299212608*%
%ADD27C,0.047244094488188976*%
%ADD28C,0.017716535433070866*%
%ADD29R,0.053149606299212608X0.053149606299212608*%
%ADD30C,0.047244094488188976*%
%ADD31C,0.017716535433070866*%
%ADD32R,0.053149606299212608X0.053149606299212608*%
%ADD33C,0.047244094488188976*%
%ADD34C,0.017716535433070866*%
%ADD35R,0.053149606299212608X0.053149606299212608*%
%ADD36C,0.047244094488188976*%
%ADD37C,0.017716535433070866*%
%ADD38R,0.053149606299212608X0.053149606299212608*%
%ADD39C,0.047244094488188976*%
%ADD40C,0.017716535433070866*%
%ADD41R,0.053149606299212608X0.053149606299212608*%
%ADD42C,0.047244094488188976*%
%ADD43C,0.017716535433070866*%
%ADD44R,0.053149606299212608X0.053149606299212608*%
%ADD45C,0.047244094488188976*%
%ADD46C,0.017716535433070866*%
%ADD47R,0.053149606299212608X0.053149606299212608*%
%ADD48C,0.047244094488188976*%
%ADD49C,0.017716535433070866*%
%ADD50R,0.053149606299212608X0.053149606299212608*%
%ADD51C,0.047244094488188976*%
%ADD52C,0.017716535433070866*%
%ADD53R,0.053149606299212608X0.053149606299212608*%
%ADD54C,0.047244094488188976*%
%ADD55C,0.017716535433070866*%
G01*
D10*
X-0003818897Y0003661417D02*
X0000511811Y0000064960D03*
D11*
X0000950393Y0000599999D03*
X0000075590Y0000611023D03*
X0000309842Y0000112598D03*
X0000812204Y0000180708D03*
X0000102755Y0000692913D03*
X0000865354Y0000237795D03*
X0000911810Y0000712204D03*
X0000881496Y0000763779D03*
X0000844881Y0000811023D03*
X0000802362Y0000852362D03*
X0000907874Y0000303936D03*
X0000754330Y0000887795D03*
X0000702362Y0000916929D03*
X0000934645Y0000657480D03*
D10*
X0000511811Y0000958661D03*
D12*
X0000702362Y0000916929D03*
X0000754330Y0000887795D03*
X0000802362Y0000852362D03*
X0000844881Y0000811023D03*
X0000881496Y0000763779D03*
X0000911810Y0000712204D03*
X0000934645Y0000657480D03*
X0000950393Y0000599999D03*
X0000907874Y0000303936D03*
X0000865354Y0000237795D03*
X0000812204Y0000180708D03*
X0000309842Y0000112598D03*
X0000075590Y0000611023D03*
X0000102755Y0000692913D03*
G04 next file*
G04 #@! TF.GenerationSoftware,KiCad,Pcbnew,5.0.2-bee76a0~70~ubuntu18.04.1*
G04 #@! TF.CreationDate,2019-05-15T03:21:57+02:00*
G04 #@! TF.ProjectId,ring,72696e67-2e6b-4696-9361-645f70636258,rev?*
G04 #@! TF.SameCoordinates,Original*
G04 #@! TF.FileFunction,Copper,L2,Bot*
G04 #@! TF.FilePolarity,Positive*
G04 Gerber Fmt 4.6, Leading zero omitted, Abs format (unit mm)*
G04 Created by KiCad (PCBNEW 5.0.2-bee76a0~70~ubuntu18.04.1) date Mi 15 Mai 2019 03:21:57 CEST*
G01*
G04 APERTURE LIST*
G04 #@! TA.AperFunction,ComponentPad*
G04 #@! TD*
G04 #@! TA.AperFunction,BGAPad,CuDef*
G04 #@! TD*
G04 #@! TA.AperFunction,ViaPad*
G04 #@! TD*
G04 APERTURE END LIST*
D23*
G04 #@! TO.P,REF\002A\002A,1*
G04 #@! TO.N,N/C*
X-0002716535Y0003661417D02*
X0001614173Y0000064960D03*
G04 #@! TD*
D24*
G04 #@! TO.P,J1,1*
G04 #@! TO.N,REFFET2_D1*
X0002052755Y0000599999D03*
G04 #@! TD*
G04 #@! TO.P,J13,1*
G04 #@! TO.N,ELEC2*
X0001177952Y0000611023D03*
G04 #@! TD*
G04 #@! TO.P,J15,1*
G04 #@! TO.N,Net-(J15-Pad1)*
X0001412204Y0000112598D03*
G04 #@! TD*
G04 #@! TO.P,J16,1*
G04 #@! TO.N,GNDD*
X0001914566Y0000180708D03*
G04 #@! TD*
G04 #@! TO.P,J14,1*
G04 #@! TO.N,O2_ELEC2*
X0001205118Y0000692913D03*
G04 #@! TD*
G04 #@! TO.P,J6,1*
G04 #@! TO.N,+BATT*
X0001967716Y0000237795D03*
G04 #@! TD*
G04 #@! TO.P,J3,1*
G04 #@! TO.N,REFFET2_D3*
X0002014173Y0000712204D03*
G04 #@! TD*
G04 #@! TO.P,J4,1*
G04 #@! TO.N,REFFET2_D4*
X0001983858Y0000763779D03*
G04 #@! TD*
G04 #@! TO.P,J5,1*
G04 #@! TO.N,ISFET2_D4*
X0001947244Y0000811023D03*
G04 #@! TD*
G04 #@! TO.P,J7,1*
G04 #@! TO.N,ISFET2_D3*
X0001904724Y0000852362D03*
G04 #@! TD*
G04 #@! TO.P,J8,1*
G04 #@! TO.N,COIL*
X0002010236Y0000303936D03*
G04 #@! TD*
G04 #@! TO.P,J9,1*
G04 #@! TO.N,ISFET2_D2*
X0001856692Y0000887795D03*
G04 #@! TD*
G04 #@! TO.P,J10,1*
G04 #@! TO.N,ISFET2_D1*
X0001804724Y0000916929D03*
G04 #@! TD*
G04 #@! TO.P,J2,1*
G04 #@! TO.N,REFFET2_D2*
X0002037007Y0000657480D03*
G04 #@! TD*
D23*
G04 #@! TO.P,REF\002A\002A,1*
G04 #@! TO.N,N/C*
X0001614173Y0000958661D03*
G04 #@! TD*
D25*
G04 #@! TO.N,*
X0001804724Y0000916929D03*
X0001856692Y0000887795D03*
X0001904724Y0000852362D03*
X0001947244Y0000811023D03*
X0001983858Y0000763779D03*
X0002014173Y0000712204D03*
X0002037007Y0000657480D03*
X0002052755Y0000599999D03*
X0002010236Y0000303936D03*
X0001967716Y0000237795D03*
X0001914566Y0000180708D03*
X0001412204Y0000112598D03*
X0001177952Y0000611023D03*
X0001205118Y0000692913D03*
G04 #@! TD*
G04 next file*
G04 #@! TF.GenerationSoftware,KiCad,Pcbnew,5.0.2-bee76a0~70~ubuntu18.04.1*
G04 #@! TF.CreationDate,2019-05-15T03:21:57+02:00*
G04 #@! TF.ProjectId,ring,72696e67-2e6b-4696-9361-645f70636258,rev?*
G04 #@! TF.SameCoordinates,Original*
G04 #@! TF.FileFunction,Copper,L2,Bot*
G04 #@! TF.FilePolarity,Positive*
G04 Gerber Fmt 4.6, Leading zero omitted, Abs format (unit mm)*
G04 Created by KiCad (PCBNEW 5.0.2-bee76a0~70~ubuntu18.04.1) date Mi 15 Mai 2019 03:21:57 CEST*
G01*
G04 APERTURE LIST*
G04 #@! TA.AperFunction,ComponentPad*
G04 #@! TD*
G04 #@! TA.AperFunction,BGAPad,CuDef*
G04 #@! TD*
G04 #@! TA.AperFunction,ViaPad*
G04 #@! TD*
G04 APERTURE END LIST*
D26*
G04 #@! TO.P,REF\002A\002A,1*
G04 #@! TO.N,N/C*
X-0001614173Y0003661417D02*
X0002716535Y0000064960D03*
G04 #@! TD*
D27*
G04 #@! TO.P,J1,1*
G04 #@! TO.N,REFFET2_D1*
X0003155118Y0000599999D03*
G04 #@! TD*
G04 #@! TO.P,J13,1*
G04 #@! TO.N,ELEC2*
X0002280314Y0000611023D03*
G04 #@! TD*
G04 #@! TO.P,J15,1*
G04 #@! TO.N,Net-(J15-Pad1)*
X0002514566Y0000112598D03*
G04 #@! TD*
G04 #@! TO.P,J16,1*
G04 #@! TO.N,GNDD*
X0003016929Y0000180708D03*
G04 #@! TD*
G04 #@! TO.P,J14,1*
G04 #@! TO.N,O2_ELEC2*
X0002307480Y0000692913D03*
G04 #@! TD*
G04 #@! TO.P,J6,1*
G04 #@! TO.N,+BATT*
X0003070078Y0000237795D03*
G04 #@! TD*
G04 #@! TO.P,J3,1*
G04 #@! TO.N,REFFET2_D3*
X0003116535Y0000712204D03*
G04 #@! TD*
G04 #@! TO.P,J4,1*
G04 #@! TO.N,REFFET2_D4*
X0003086220Y0000763779D03*
G04 #@! TD*
G04 #@! TO.P,J5,1*
G04 #@! TO.N,ISFET2_D4*
X0003049606Y0000811023D03*
G04 #@! TD*
G04 #@! TO.P,J7,1*
G04 #@! TO.N,ISFET2_D3*
X0003007086Y0000852362D03*
G04 #@! TD*
G04 #@! TO.P,J8,1*
G04 #@! TO.N,COIL*
X0003112598Y0000303936D03*
G04 #@! TD*
G04 #@! TO.P,J9,1*
G04 #@! TO.N,ISFET2_D2*
X0002959055Y0000887795D03*
G04 #@! TD*
G04 #@! TO.P,J10,1*
G04 #@! TO.N,ISFET2_D1*
X0002907086Y0000916929D03*
G04 #@! TD*
G04 #@! TO.P,J2,1*
G04 #@! TO.N,REFFET2_D2*
X0003139370Y0000657480D03*
G04 #@! TD*
D26*
G04 #@! TO.P,REF\002A\002A,1*
G04 #@! TO.N,N/C*
X0002716535Y0000958661D03*
G04 #@! TD*
D28*
G04 #@! TO.N,*
X0002907086Y0000916929D03*
X0002959055Y0000887795D03*
X0003007086Y0000852362D03*
X0003049606Y0000811023D03*
X0003086220Y0000763779D03*
X0003116535Y0000712204D03*
X0003139370Y0000657480D03*
X0003155118Y0000599999D03*
X0003112598Y0000303936D03*
X0003070078Y0000237795D03*
X0003016929Y0000180708D03*
X0002514566Y0000112598D03*
X0002280314Y0000611023D03*
X0002307480Y0000692913D03*
G04 #@! TD*
G04 next file*
G04 #@! TF.GenerationSoftware,KiCad,Pcbnew,5.0.2-bee76a0~70~ubuntu18.04.1*
G04 #@! TF.CreationDate,2019-05-15T03:21:57+02:00*
G04 #@! TF.ProjectId,ring,72696e67-2e6b-4696-9361-645f70636258,rev?*
G04 #@! TF.SameCoordinates,Original*
G04 #@! TF.FileFunction,Copper,L2,Bot*
G04 #@! TF.FilePolarity,Positive*
G04 Gerber Fmt 4.6, Leading zero omitted, Abs format (unit mm)*
G04 Created by KiCad (PCBNEW 5.0.2-bee76a0~70~ubuntu18.04.1) date Mi 15 Mai 2019 03:21:57 CEST*
G01*
G04 APERTURE LIST*
G04 #@! TA.AperFunction,ComponentPad*
G04 #@! TD*
G04 #@! TA.AperFunction,BGAPad,CuDef*
G04 #@! TD*
G04 #@! TA.AperFunction,ViaPad*
G04 #@! TD*
G04 APERTURE END LIST*
D29*
G04 #@! TO.P,REF\002A\002A,1*
G04 #@! TO.N,N/C*
X-0001062992Y0004606299D02*
X0003267716Y0001009842D03*
G04 #@! TD*
D30*
G04 #@! TO.P,J1,1*
G04 #@! TO.N,REFFET2_D1*
X0003706299Y0001544881D03*
G04 #@! TD*
G04 #@! TO.P,J13,1*
G04 #@! TO.N,ELEC2*
X0002831496Y0001555905D03*
G04 #@! TD*
G04 #@! TO.P,J15,1*
G04 #@! TO.N,Net-(J15-Pad1)*
X0003065748Y0001057480D03*
G04 #@! TD*
G04 #@! TO.P,J16,1*
G04 #@! TO.N,GNDD*
X0003568110Y0001125590D03*
G04 #@! TD*
G04 #@! TO.P,J14,1*
G04 #@! TO.N,O2_ELEC2*
X0002858661Y0001637795D03*
G04 #@! TD*
G04 #@! TO.P,J6,1*
G04 #@! TO.N,+BATT*
X0003621259Y0001182677D03*
G04 #@! TD*
G04 #@! TO.P,J3,1*
G04 #@! TO.N,REFFET2_D3*
X0003667716Y0001657086D03*
G04 #@! TD*
G04 #@! TO.P,J4,1*
G04 #@! TO.N,REFFET2_D4*
X0003637401Y0001708661D03*
G04 #@! TD*
G04 #@! TO.P,J5,1*
G04 #@! TO.N,ISFET2_D4*
X0003600787Y0001755905D03*
G04 #@! TD*
G04 #@! TO.P,J7,1*
G04 #@! TO.N,ISFET2_D3*
X0003558267Y0001797244D03*
G04 #@! TD*
G04 #@! TO.P,J8,1*
G04 #@! TO.N,COIL*
X0003663779Y0001248818D03*
G04 #@! TD*
G04 #@! TO.P,J9,1*
G04 #@! TO.N,ISFET2_D2*
X0003510236Y0001832677D03*
G04 #@! TD*
G04 #@! TO.P,J10,1*
G04 #@! TO.N,ISFET2_D1*
X0003458267Y0001861811D03*
G04 #@! TD*
G04 #@! TO.P,J2,1*
G04 #@! TO.N,REFFET2_D2*
X0003690551Y0001602362D03*
G04 #@! TD*
D29*
G04 #@! TO.P,REF\002A\002A,1*
G04 #@! TO.N,N/C*
X0003267716Y0001903543D03*
G04 #@! TD*
D31*
G04 #@! TO.N,*
X0003458267Y0001861811D03*
X0003510236Y0001832677D03*
X0003558267Y0001797244D03*
X0003600787Y0001755905D03*
X0003637401Y0001708661D03*
X0003667716Y0001657086D03*
X0003690551Y0001602362D03*
X0003706299Y0001544881D03*
X0003663779Y0001248818D03*
X0003621259Y0001182677D03*
X0003568110Y0001125590D03*
X0003065748Y0001057480D03*
X0002831496Y0001555905D03*
X0002858661Y0001637795D03*
G04 #@! TD*
G04 next file*
G04 #@! TF.GenerationSoftware,KiCad,Pcbnew,5.0.2-bee76a0~70~ubuntu18.04.1*
G04 #@! TF.CreationDate,2019-05-15T03:21:57+02:00*
G04 #@! TF.ProjectId,ring,72696e67-2e6b-4696-9361-645f70636258,rev?*
G04 #@! TF.SameCoordinates,Original*
G04 #@! TF.FileFunction,Copper,L2,Bot*
G04 #@! TF.FilePolarity,Positive*
G04 Gerber Fmt 4.6, Leading zero omitted, Abs format (unit mm)*
G04 Created by KiCad (PCBNEW 5.0.2-bee76a0~70~ubuntu18.04.1) date Mi 15 Mai 2019 03:21:57 CEST*
G01*
G04 APERTURE LIST*
G04 #@! TA.AperFunction,ComponentPad*
G04 #@! TD*
G04 #@! TA.AperFunction,BGAPad,CuDef*
G04 #@! TD*
G04 #@! TA.AperFunction,ViaPad*
G04 #@! TD*
G04 APERTURE END LIST*
D32*
G04 #@! TO.P,REF\002A\002A,1*
G04 #@! TO.N,N/C*
X-0002165354Y0004606299D02*
X0002165354Y0001009842D03*
G04 #@! TD*
D33*
G04 #@! TO.P,J1,1*
G04 #@! TO.N,REFFET2_D1*
X0002603937Y0001544881D03*
G04 #@! TD*
G04 #@! TO.P,J13,1*
G04 #@! TO.N,ELEC2*
X0001729133Y0001555905D03*
G04 #@! TD*
G04 #@! TO.P,J15,1*
G04 #@! TO.N,Net-(J15-Pad1)*
X0001963385Y0001057480D03*
G04 #@! TD*
G04 #@! TO.P,J16,1*
G04 #@! TO.N,GNDD*
X0002465747Y0001125590D03*
G04 #@! TD*
G04 #@! TO.P,J14,1*
G04 #@! TO.N,O2_ELEC2*
X0001756299Y0001637795D03*
G04 #@! TD*
G04 #@! TO.P,J6,1*
G04 #@! TO.N,+BATT*
X0002518897Y0001182677D03*
G04 #@! TD*
G04 #@! TO.P,J3,1*
G04 #@! TO.N,REFFET2_D3*
X0002565354Y0001657086D03*
G04 #@! TD*
G04 #@! TO.P,J4,1*
G04 #@! TO.N,REFFET2_D4*
X0002535039Y0001708661D03*
G04 #@! TD*
G04 #@! TO.P,J5,1*
G04 #@! TO.N,ISFET2_D4*
X0002498425Y0001755905D03*
G04 #@! TD*
G04 #@! TO.P,J7,1*
G04 #@! TO.N,ISFET2_D3*
X0002455905Y0001797244D03*
G04 #@! TD*
G04 #@! TO.P,J8,1*
G04 #@! TO.N,COIL*
X0002561417Y0001248818D03*
G04 #@! TD*
G04 #@! TO.P,J9,1*
G04 #@! TO.N,ISFET2_D2*
X0002407874Y0001832677D03*
G04 #@! TD*
G04 #@! TO.P,J10,1*
G04 #@! TO.N,ISFET2_D1*
X0002355905Y0001861811D03*
G04 #@! TD*
G04 #@! TO.P,J2,1*
G04 #@! TO.N,REFFET2_D2*
X0002588188Y0001602362D03*
G04 #@! TD*
D32*
G04 #@! TO.P,REF\002A\002A,1*
G04 #@! TO.N,N/C*
X0002165354Y0001903543D03*
G04 #@! TD*
D34*
G04 #@! TO.N,*
X0002355905Y0001861811D03*
X0002407874Y0001832677D03*
X0002455905Y0001797244D03*
X0002498425Y0001755905D03*
X0002535039Y0001708661D03*
X0002565354Y0001657086D03*
X0002588188Y0001602362D03*
X0002603937Y0001544881D03*
X0002561417Y0001248818D03*
X0002518897Y0001182677D03*
X0002465747Y0001125590D03*
X0001963385Y0001057480D03*
X0001729133Y0001555905D03*
X0001756299Y0001637795D03*
G04 #@! TD*
G04 next file*
G04 #@! TF.GenerationSoftware,KiCad,Pcbnew,5.0.2-bee76a0~70~ubuntu18.04.1*
G04 #@! TF.CreationDate,2019-05-15T03:21:57+02:00*
G04 #@! TF.ProjectId,ring,72696e67-2e6b-4696-9361-645f70636258,rev?*
G04 #@! TF.SameCoordinates,Original*
G04 #@! TF.FileFunction,Copper,L2,Bot*
G04 #@! TF.FilePolarity,Positive*
G04 Gerber Fmt 4.6, Leading zero omitted, Abs format (unit mm)*
G04 Created by KiCad (PCBNEW 5.0.2-bee76a0~70~ubuntu18.04.1) date Mi 15 Mai 2019 03:21:57 CEST*
G01*
G04 APERTURE LIST*
G04 #@! TA.AperFunction,ComponentPad*
G04 #@! TD*
G04 #@! TA.AperFunction,BGAPad,CuDef*
G04 #@! TD*
G04 #@! TA.AperFunction,ViaPad*
G04 #@! TD*
G04 APERTURE END LIST*
D35*
G04 #@! TO.P,REF\002A\002A,1*
G04 #@! TO.N,N/C*
X-0003267716Y0004606299D02*
X0001062992Y0001009842D03*
G04 #@! TD*
D36*
G04 #@! TO.P,J1,1*
G04 #@! TO.N,REFFET2_D1*
X0001501574Y0001544881D03*
G04 #@! TD*
G04 #@! TO.P,J13,1*
G04 #@! TO.N,ELEC2*
X0000626771Y0001555905D03*
G04 #@! TD*
G04 #@! TO.P,J15,1*
G04 #@! TO.N,Net-(J15-Pad1)*
X0000861023Y0001057480D03*
G04 #@! TD*
G04 #@! TO.P,J16,1*
G04 #@! TO.N,GNDD*
X0001363385Y0001125590D03*
G04 #@! TD*
G04 #@! TO.P,J14,1*
G04 #@! TO.N,O2_ELEC2*
X0000653937Y0001637795D03*
G04 #@! TD*
G04 #@! TO.P,J6,1*
G04 #@! TO.N,+BATT*
X0001416535Y0001182677D03*
G04 #@! TD*
G04 #@! TO.P,J3,1*
G04 #@! TO.N,REFFET2_D3*
X0001462992Y0001657086D03*
G04 #@! TD*
G04 #@! TO.P,J4,1*
G04 #@! TO.N,REFFET2_D4*
X0001432677Y0001708661D03*
G04 #@! TD*
G04 #@! TO.P,J5,1*
G04 #@! TO.N,ISFET2_D4*
X0001396062Y0001755905D03*
G04 #@! TD*
G04 #@! TO.P,J7,1*
G04 #@! TO.N,ISFET2_D3*
X0001353543Y0001797244D03*
G04 #@! TD*
G04 #@! TO.P,J8,1*
G04 #@! TO.N,COIL*
X0001459055Y0001248818D03*
G04 #@! TD*
G04 #@! TO.P,J9,1*
G04 #@! TO.N,ISFET2_D2*
X0001305511Y0001832677D03*
G04 #@! TD*
G04 #@! TO.P,J10,1*
G04 #@! TO.N,ISFET2_D1*
X0001253543Y0001861811D03*
G04 #@! TD*
G04 #@! TO.P,J2,1*
G04 #@! TO.N,REFFET2_D2*
X0001485826Y0001602362D03*
G04 #@! TD*
D35*
G04 #@! TO.P,REF\002A\002A,1*
G04 #@! TO.N,N/C*
X0001062992Y0001903543D03*
G04 #@! TD*
D37*
G04 #@! TO.N,*
X0001253543Y0001861811D03*
X0001305511Y0001832677D03*
X0001353543Y0001797244D03*
X0001396062Y0001755905D03*
X0001432677Y0001708661D03*
X0001462992Y0001657086D03*
X0001485826Y0001602362D03*
X0001501574Y0001544881D03*
X0001459055Y0001248818D03*
X0001416535Y0001182677D03*
X0001363385Y0001125590D03*
X0000861023Y0001057480D03*
X0000626771Y0001555905D03*
X0000653937Y0001637795D03*
G04 #@! TD*
G04 next file*
G04 #@! TF.GenerationSoftware,KiCad,Pcbnew,5.0.2-bee76a0~70~ubuntu18.04.1*
G04 #@! TF.CreationDate,2019-05-15T03:21:57+02:00*
G04 #@! TF.ProjectId,ring,72696e67-2e6b-4696-9361-645f70636258,rev?*
G04 #@! TF.SameCoordinates,Original*
G04 #@! TF.FileFunction,Copper,L2,Bot*
G04 #@! TF.FilePolarity,Positive*
G04 Gerber Fmt 4.6, Leading zero omitted, Abs format (unit mm)*
G04 Created by KiCad (PCBNEW 5.0.2-bee76a0~70~ubuntu18.04.1) date Mi 15 Mai 2019 03:21:57 CEST*
G01*
G04 APERTURE LIST*
G04 #@! TA.AperFunction,ComponentPad*
G04 #@! TD*
G04 #@! TA.AperFunction,BGAPad,CuDef*
G04 #@! TD*
G04 #@! TA.AperFunction,ViaPad*
G04 #@! TD*
G04 APERTURE END LIST*
D38*
G04 #@! TO.P,REF\002A\002A,1*
G04 #@! TO.N,N/C*
X-0003818897Y0005551181D02*
X0000511811Y0001954724D03*
G04 #@! TD*
D39*
G04 #@! TO.P,J1,1*
G04 #@! TO.N,REFFET2_D1*
X0000950393Y0002489763D03*
G04 #@! TD*
G04 #@! TO.P,J13,1*
G04 #@! TO.N,ELEC2*
X0000075590Y0002500787D03*
G04 #@! TD*
G04 #@! TO.P,J15,1*
G04 #@! TO.N,Net-(J15-Pad1)*
X0000309842Y0002002362D03*
G04 #@! TD*
G04 #@! TO.P,J16,1*
G04 #@! TO.N,GNDD*
X0000812204Y0002070472D03*
G04 #@! TD*
G04 #@! TO.P,J14,1*
G04 #@! TO.N,O2_ELEC2*
X0000102755Y0002582677D03*
G04 #@! TD*
G04 #@! TO.P,J6,1*
G04 #@! TO.N,+BATT*
X0000865354Y0002127559D03*
G04 #@! TD*
G04 #@! TO.P,J3,1*
G04 #@! TO.N,REFFET2_D3*
X0000911810Y0002601968D03*
G04 #@! TD*
G04 #@! TO.P,J4,1*
G04 #@! TO.N,REFFET2_D4*
X0000881496Y0002653543D03*
G04 #@! TD*
G04 #@! TO.P,J5,1*
G04 #@! TO.N,ISFET2_D4*
X0000844881Y0002700787D03*
G04 #@! TD*
G04 #@! TO.P,J7,1*
G04 #@! TO.N,ISFET2_D3*
X0000802362Y0002742125D03*
G04 #@! TD*
G04 #@! TO.P,J8,1*
G04 #@! TO.N,COIL*
X0000907874Y0002193700D03*
G04 #@! TD*
G04 #@! TO.P,J9,1*
G04 #@! TO.N,ISFET2_D2*
X0000754330Y0002777559D03*
G04 #@! TD*
G04 #@! TO.P,J10,1*
G04 #@! TO.N,ISFET2_D1*
X0000702362Y0002806692D03*
G04 #@! TD*
G04 #@! TO.P,J2,1*
G04 #@! TO.N,REFFET2_D2*
X0000934645Y0002547244D03*
G04 #@! TD*
D38*
G04 #@! TO.P,REF\002A\002A,1*
G04 #@! TO.N,N/C*
X0000511811Y0002848425D03*
G04 #@! TD*
D40*
G04 #@! TO.N,*
X0000702362Y0002806692D03*
X0000754330Y0002777559D03*
X0000802362Y0002742125D03*
X0000844881Y0002700787D03*
X0000881496Y0002653543D03*
X0000911810Y0002601968D03*
X0000934645Y0002547244D03*
X0000950393Y0002489763D03*
X0000907874Y0002193700D03*
X0000865354Y0002127559D03*
X0000812204Y0002070472D03*
X0000309842Y0002002362D03*
X0000075590Y0002500787D03*
X0000102755Y0002582677D03*
G04 #@! TD*
G04 next file*
G04 #@! TF.GenerationSoftware,KiCad,Pcbnew,5.0.2-bee76a0~70~ubuntu18.04.1*
G04 #@! TF.CreationDate,2019-05-15T03:21:57+02:00*
G04 #@! TF.ProjectId,ring,72696e67-2e6b-4696-9361-645f70636258,rev?*
G04 #@! TF.SameCoordinates,Original*
G04 #@! TF.FileFunction,Copper,L2,Bot*
G04 #@! TF.FilePolarity,Positive*
G04 Gerber Fmt 4.6, Leading zero omitted, Abs format (unit mm)*
G04 Created by KiCad (PCBNEW 5.0.2-bee76a0~70~ubuntu18.04.1) date Mi 15 Mai 2019 03:21:57 CEST*
G01*
G04 APERTURE LIST*
G04 #@! TA.AperFunction,ComponentPad*
G04 #@! TD*
G04 #@! TA.AperFunction,BGAPad,CuDef*
G04 #@! TD*
G04 #@! TA.AperFunction,ViaPad*
G04 #@! TD*
G04 APERTURE END LIST*
D41*
G04 #@! TO.P,REF\002A\002A,1*
G04 #@! TO.N,N/C*
X-0002716535Y0005551181D02*
X0001614173Y0001954724D03*
G04 #@! TD*
D42*
G04 #@! TO.P,J1,1*
G04 #@! TO.N,REFFET2_D1*
X0002052755Y0002489763D03*
G04 #@! TD*
G04 #@! TO.P,J13,1*
G04 #@! TO.N,ELEC2*
X0001177952Y0002500787D03*
G04 #@! TD*
G04 #@! TO.P,J15,1*
G04 #@! TO.N,Net-(J15-Pad1)*
X0001412204Y0002002362D03*
G04 #@! TD*
G04 #@! TO.P,J16,1*
G04 #@! TO.N,GNDD*
X0001914566Y0002070472D03*
G04 #@! TD*
G04 #@! TO.P,J14,1*
G04 #@! TO.N,O2_ELEC2*
X0001205118Y0002582677D03*
G04 #@! TD*
G04 #@! TO.P,J6,1*
G04 #@! TO.N,+BATT*
X0001967716Y0002127559D03*
G04 #@! TD*
G04 #@! TO.P,J3,1*
G04 #@! TO.N,REFFET2_D3*
X0002014173Y0002601968D03*
G04 #@! TD*
G04 #@! TO.P,J4,1*
G04 #@! TO.N,REFFET2_D4*
X0001983858Y0002653543D03*
G04 #@! TD*
G04 #@! TO.P,J5,1*
G04 #@! TO.N,ISFET2_D4*
X0001947244Y0002700787D03*
G04 #@! TD*
G04 #@! TO.P,J7,1*
G04 #@! TO.N,ISFET2_D3*
X0001904724Y0002742125D03*
G04 #@! TD*
G04 #@! TO.P,J8,1*
G04 #@! TO.N,COIL*
X0002010236Y0002193700D03*
G04 #@! TD*
G04 #@! TO.P,J9,1*
G04 #@! TO.N,ISFET2_D2*
X0001856692Y0002777559D03*
G04 #@! TD*
G04 #@! TO.P,J10,1*
G04 #@! TO.N,ISFET2_D1*
X0001804724Y0002806692D03*
G04 #@! TD*
G04 #@! TO.P,J2,1*
G04 #@! TO.N,REFFET2_D2*
X0002037007Y0002547244D03*
G04 #@! TD*
D41*
G04 #@! TO.P,REF\002A\002A,1*
G04 #@! TO.N,N/C*
X0001614173Y0002848425D03*
G04 #@! TD*
D43*
G04 #@! TO.N,*
X0001804724Y0002806692D03*
X0001856692Y0002777559D03*
X0001904724Y0002742125D03*
X0001947244Y0002700787D03*
X0001983858Y0002653543D03*
X0002014173Y0002601968D03*
X0002037007Y0002547244D03*
X0002052755Y0002489763D03*
X0002010236Y0002193700D03*
X0001967716Y0002127559D03*
X0001914566Y0002070472D03*
X0001412204Y0002002362D03*
X0001177952Y0002500787D03*
X0001205118Y0002582677D03*
G04 #@! TD*
G04 next file*
G04 #@! TF.GenerationSoftware,KiCad,Pcbnew,5.0.2-bee76a0~70~ubuntu18.04.1*
G04 #@! TF.CreationDate,2019-05-15T03:21:57+02:00*
G04 #@! TF.ProjectId,ring,72696e67-2e6b-4696-9361-645f70636258,rev?*
G04 #@! TF.SameCoordinates,Original*
G04 #@! TF.FileFunction,Copper,L2,Bot*
G04 #@! TF.FilePolarity,Positive*
G04 Gerber Fmt 4.6, Leading zero omitted, Abs format (unit mm)*
G04 Created by KiCad (PCBNEW 5.0.2-bee76a0~70~ubuntu18.04.1) date Mi 15 Mai 2019 03:21:57 CEST*
G01*
G04 APERTURE LIST*
G04 #@! TA.AperFunction,ComponentPad*
G04 #@! TD*
G04 #@! TA.AperFunction,BGAPad,CuDef*
G04 #@! TD*
G04 #@! TA.AperFunction,ViaPad*
G04 #@! TD*
G04 APERTURE END LIST*
D44*
G04 #@! TO.P,REF\002A\002A,1*
G04 #@! TO.N,N/C*
X-0001614173Y0005551181D02*
X0002716535Y0001954724D03*
G04 #@! TD*
D45*
G04 #@! TO.P,J1,1*
G04 #@! TO.N,REFFET2_D1*
X0003155118Y0002489763D03*
G04 #@! TD*
G04 #@! TO.P,J13,1*
G04 #@! TO.N,ELEC2*
X0002280314Y0002500787D03*
G04 #@! TD*
G04 #@! TO.P,J15,1*
G04 #@! TO.N,Net-(J15-Pad1)*
X0002514566Y0002002362D03*
G04 #@! TD*
G04 #@! TO.P,J16,1*
G04 #@! TO.N,GNDD*
X0003016929Y0002070472D03*
G04 #@! TD*
G04 #@! TO.P,J14,1*
G04 #@! TO.N,O2_ELEC2*
X0002307480Y0002582677D03*
G04 #@! TD*
G04 #@! TO.P,J6,1*
G04 #@! TO.N,+BATT*
X0003070078Y0002127559D03*
G04 #@! TD*
G04 #@! TO.P,J3,1*
G04 #@! TO.N,REFFET2_D3*
X0003116535Y0002601968D03*
G04 #@! TD*
G04 #@! TO.P,J4,1*
G04 #@! TO.N,REFFET2_D4*
X0003086220Y0002653543D03*
G04 #@! TD*
G04 #@! TO.P,J5,1*
G04 #@! TO.N,ISFET2_D4*
X0003049606Y0002700787D03*
G04 #@! TD*
G04 #@! TO.P,J7,1*
G04 #@! TO.N,ISFET2_D3*
X0003007086Y0002742125D03*
G04 #@! TD*
G04 #@! TO.P,J8,1*
G04 #@! TO.N,COIL*
X0003112598Y0002193700D03*
G04 #@! TD*
G04 #@! TO.P,J9,1*
G04 #@! TO.N,ISFET2_D2*
X0002959055Y0002777559D03*
G04 #@! TD*
G04 #@! TO.P,J10,1*
G04 #@! TO.N,ISFET2_D1*
X0002907086Y0002806692D03*
G04 #@! TD*
G04 #@! TO.P,J2,1*
G04 #@! TO.N,REFFET2_D2*
X0003139370Y0002547244D03*
G04 #@! TD*
D44*
G04 #@! TO.P,REF\002A\002A,1*
G04 #@! TO.N,N/C*
X0002716535Y0002848425D03*
G04 #@! TD*
D46*
G04 #@! TO.N,*
X0002907086Y0002806692D03*
X0002959055Y0002777559D03*
X0003007086Y0002742125D03*
X0003049606Y0002700787D03*
X0003086220Y0002653543D03*
X0003116535Y0002601968D03*
X0003139370Y0002547244D03*
X0003155118Y0002489763D03*
X0003112598Y0002193700D03*
X0003070078Y0002127559D03*
X0003016929Y0002070472D03*
X0002514566Y0002002362D03*
X0002280314Y0002500787D03*
X0002307480Y0002582677D03*
G04 #@! TD*
G04 next file*
G04 #@! TF.GenerationSoftware,KiCad,Pcbnew,5.0.2-bee76a0~70~ubuntu18.04.1*
G04 #@! TF.CreationDate,2019-05-15T03:21:57+02:00*
G04 #@! TF.ProjectId,ring,72696e67-2e6b-4696-9361-645f70636258,rev?*
G04 #@! TF.SameCoordinates,Original*
G04 #@! TF.FileFunction,Copper,L2,Bot*
G04 #@! TF.FilePolarity,Positive*
G04 Gerber Fmt 4.6, Leading zero omitted, Abs format (unit mm)*
G04 Created by KiCad (PCBNEW 5.0.2-bee76a0~70~ubuntu18.04.1) date Mi 15 Mai 2019 03:21:57 CEST*
G01*
G04 APERTURE LIST*
G04 #@! TA.AperFunction,ComponentPad*
G04 #@! TD*
G04 #@! TA.AperFunction,BGAPad,CuDef*
G04 #@! TD*
G04 #@! TA.AperFunction,ViaPad*
G04 #@! TD*
G04 APERTURE END LIST*
D47*
G04 #@! TO.P,REF\002A\002A,1*
G04 #@! TO.N,N/C*
X-0003267716Y0006496062D02*
X0001062992Y0002899606D03*
G04 #@! TD*
D48*
G04 #@! TO.P,J1,1*
G04 #@! TO.N,REFFET2_D1*
X0001501574Y0003434645D03*
G04 #@! TD*
G04 #@! TO.P,J13,1*
G04 #@! TO.N,ELEC2*
X0000626771Y0003445669D03*
G04 #@! TD*
G04 #@! TO.P,J15,1*
G04 #@! TO.N,Net-(J15-Pad1)*
X0000861023Y0002947244D03*
G04 #@! TD*
G04 #@! TO.P,J16,1*
G04 #@! TO.N,GNDD*
X0001363385Y0003015354D03*
G04 #@! TD*
G04 #@! TO.P,J14,1*
G04 #@! TO.N,O2_ELEC2*
X0000653937Y0003527559D03*
G04 #@! TD*
G04 #@! TO.P,J6,1*
G04 #@! TO.N,+BATT*
X0001416535Y0003072440D03*
G04 #@! TD*
G04 #@! TO.P,J3,1*
G04 #@! TO.N,REFFET2_D3*
X0001462992Y0003546850D03*
G04 #@! TD*
G04 #@! TO.P,J4,1*
G04 #@! TO.N,REFFET2_D4*
X0001432677Y0003598425D03*
G04 #@! TD*
G04 #@! TO.P,J5,1*
G04 #@! TO.N,ISFET2_D4*
X0001396062Y0003645669D03*
G04 #@! TD*
G04 #@! TO.P,J7,1*
G04 #@! TO.N,ISFET2_D3*
X0001353543Y0003687007D03*
G04 #@! TD*
G04 #@! TO.P,J8,1*
G04 #@! TO.N,COIL*
X0001459055Y0003138582D03*
G04 #@! TD*
G04 #@! TO.P,J9,1*
G04 #@! TO.N,ISFET2_D2*
X0001305511Y0003722440D03*
G04 #@! TD*
G04 #@! TO.P,J10,1*
G04 #@! TO.N,ISFET2_D1*
X0001253543Y0003751574D03*
G04 #@! TD*
G04 #@! TO.P,J2,1*
G04 #@! TO.N,REFFET2_D2*
X0001485826Y0003492125D03*
G04 #@! TD*
D47*
G04 #@! TO.P,REF\002A\002A,1*
G04 #@! TO.N,N/C*
X0001062992Y0003793307D03*
G04 #@! TD*
D49*
G04 #@! TO.N,*
X0001253543Y0003751574D03*
X0001305511Y0003722440D03*
X0001353543Y0003687007D03*
X0001396062Y0003645669D03*
X0001432677Y0003598425D03*
X0001462992Y0003546850D03*
X0001485826Y0003492125D03*
X0001501574Y0003434645D03*
X0001459055Y0003138582D03*
X0001416535Y0003072440D03*
X0001363385Y0003015354D03*
X0000861023Y0002947244D03*
X0000626771Y0003445669D03*
X0000653937Y0003527559D03*
G04 #@! TD*
G04 next file*
G04 #@! TF.GenerationSoftware,KiCad,Pcbnew,5.0.2-bee76a0~70~ubuntu18.04.1*
G04 #@! TF.CreationDate,2019-05-15T03:21:57+02:00*
G04 #@! TF.ProjectId,ring,72696e67-2e6b-4696-9361-645f70636258,rev?*
G04 #@! TF.SameCoordinates,Original*
G04 #@! TF.FileFunction,Copper,L2,Bot*
G04 #@! TF.FilePolarity,Positive*
G04 Gerber Fmt 4.6, Leading zero omitted, Abs format (unit mm)*
G04 Created by KiCad (PCBNEW 5.0.2-bee76a0~70~ubuntu18.04.1) date Mi 15 Mai 2019 03:21:57 CEST*
G01*
G04 APERTURE LIST*
G04 #@! TA.AperFunction,ComponentPad*
G04 #@! TD*
G04 #@! TA.AperFunction,BGAPad,CuDef*
G04 #@! TD*
G04 #@! TA.AperFunction,ViaPad*
G04 #@! TD*
G04 APERTURE END LIST*
D50*
G04 #@! TO.P,REF\002A\002A,1*
G04 #@! TO.N,N/C*
X-0002165354Y0006535433D02*
X0002165354Y0002938976D03*
G04 #@! TD*
D51*
G04 #@! TO.P,J1,1*
G04 #@! TO.N,REFFET2_D1*
X0002603937Y0003474015D03*
G04 #@! TD*
G04 #@! TO.P,J13,1*
G04 #@! TO.N,ELEC2*
X0001729133Y0003485039D03*
G04 #@! TD*
G04 #@! TO.P,J15,1*
G04 #@! TO.N,Net-(J15-Pad1)*
X0001963385Y0002986614D03*
G04 #@! TD*
G04 #@! TO.P,J16,1*
G04 #@! TO.N,GNDD*
X0002465747Y0003054724D03*
G04 #@! TD*
G04 #@! TO.P,J14,1*
G04 #@! TO.N,O2_ELEC2*
X0001756299Y0003566929D03*
G04 #@! TD*
G04 #@! TO.P,J6,1*
G04 #@! TO.N,+BATT*
X0002518897Y0003111811D03*
G04 #@! TD*
G04 #@! TO.P,J3,1*
G04 #@! TO.N,REFFET2_D3*
X0002565354Y0003586220D03*
G04 #@! TD*
G04 #@! TO.P,J4,1*
G04 #@! TO.N,REFFET2_D4*
X0002535039Y0003637795D03*
G04 #@! TD*
G04 #@! TO.P,J5,1*
G04 #@! TO.N,ISFET2_D4*
X0002498425Y0003685039D03*
G04 #@! TD*
G04 #@! TO.P,J7,1*
G04 #@! TO.N,ISFET2_D3*
X0002455905Y0003726377D03*
G04 #@! TD*
G04 #@! TO.P,J8,1*
G04 #@! TO.N,COIL*
X0002561417Y0003177952D03*
G04 #@! TD*
G04 #@! TO.P,J9,1*
G04 #@! TO.N,ISFET2_D2*
X0002407874Y0003761811D03*
G04 #@! TD*
G04 #@! TO.P,J10,1*
G04 #@! TO.N,ISFET2_D1*
X0002355905Y0003790944D03*
G04 #@! TD*
G04 #@! TO.P,J2,1*
G04 #@! TO.N,REFFET2_D2*
X0002588188Y0003531496D03*
G04 #@! TD*
D50*
G04 #@! TO.P,REF\002A\002A,1*
G04 #@! TO.N,N/C*
X0002165354Y0003832677D03*
G04 #@! TD*
D52*
G04 #@! TO.N,*
X0002355905Y0003790944D03*
X0002407874Y0003761811D03*
X0002455905Y0003726377D03*
X0002498425Y0003685039D03*
X0002535039Y0003637795D03*
X0002565354Y0003586220D03*
X0002588188Y0003531496D03*
X0002603937Y0003474015D03*
X0002561417Y0003177952D03*
X0002518897Y0003111811D03*
X0002465747Y0003054724D03*
X0001963385Y0002986614D03*
X0001729133Y0003485039D03*
X0001756299Y0003566929D03*
G04 #@! TD*
G04 next file*
G04 #@! TF.GenerationSoftware,KiCad,Pcbnew,5.0.2-bee76a0~70~ubuntu18.04.1*
G04 #@! TF.CreationDate,2019-05-15T03:21:57+02:00*
G04 #@! TF.ProjectId,ring,72696e67-2e6b-4696-9361-645f70636258,rev?*
G04 #@! TF.SameCoordinates,Original*
G04 #@! TF.FileFunction,Copper,L2,Bot*
G04 #@! TF.FilePolarity,Positive*
G04 Gerber Fmt 4.6, Leading zero omitted, Abs format (unit mm)*
G04 Created by KiCad (PCBNEW 5.0.2-bee76a0~70~ubuntu18.04.1) date Mi 15 Mai 2019 03:21:57 CEST*
G01*
G04 APERTURE LIST*
G04 #@! TA.AperFunction,ComponentPad*
G04 #@! TD*
G04 #@! TA.AperFunction,BGAPad,CuDef*
G04 #@! TD*
G04 #@! TA.AperFunction,ViaPad*
G04 #@! TD*
G04 APERTURE END LIST*
D53*
G04 #@! TO.P,REF\002A\002A,1*
G04 #@! TO.N,N/C*
X-0001062992Y0006535433D02*
X0003267716Y0002938976D03*
G04 #@! TD*
D54*
G04 #@! TO.P,J1,1*
G04 #@! TO.N,REFFET2_D1*
X0003706299Y0003474015D03*
G04 #@! TD*
G04 #@! TO.P,J13,1*
G04 #@! TO.N,ELEC2*
X0002831496Y0003485039D03*
G04 #@! TD*
G04 #@! TO.P,J15,1*
G04 #@! TO.N,Net-(J15-Pad1)*
X0003065748Y0002986614D03*
G04 #@! TD*
G04 #@! TO.P,J16,1*
G04 #@! TO.N,GNDD*
X0003568110Y0003054724D03*
G04 #@! TD*
G04 #@! TO.P,J14,1*
G04 #@! TO.N,O2_ELEC2*
X0002858661Y0003566929D03*
G04 #@! TD*
G04 #@! TO.P,J6,1*
G04 #@! TO.N,+BATT*
X0003621259Y0003111811D03*
G04 #@! TD*
G04 #@! TO.P,J3,1*
G04 #@! TO.N,REFFET2_D3*
X0003667716Y0003586220D03*
G04 #@! TD*
G04 #@! TO.P,J4,1*
G04 #@! TO.N,REFFET2_D4*
X0003637401Y0003637795D03*
G04 #@! TD*
G04 #@! TO.P,J5,1*
G04 #@! TO.N,ISFET2_D4*
X0003600787Y0003685039D03*
G04 #@! TD*
G04 #@! TO.P,J7,1*
G04 #@! TO.N,ISFET2_D3*
X0003558267Y0003726377D03*
G04 #@! TD*
G04 #@! TO.P,J8,1*
G04 #@! TO.N,COIL*
X0003663779Y0003177952D03*
G04 #@! TD*
G04 #@! TO.P,J9,1*
G04 #@! TO.N,ISFET2_D2*
X0003510236Y0003761811D03*
G04 #@! TD*
G04 #@! TO.P,J10,1*
G04 #@! TO.N,ISFET2_D1*
X0003458267Y0003790944D03*
G04 #@! TD*
G04 #@! TO.P,J2,1*
G04 #@! TO.N,REFFET2_D2*
X0003690551Y0003531496D03*
G04 #@! TD*
D53*
G04 #@! TO.P,REF\002A\002A,1*
G04 #@! TO.N,N/C*
X0003267716Y0003832677D03*
G04 #@! TD*
D55*
G04 #@! TO.N,*
X0003458267Y0003790944D03*
X0003510236Y0003761811D03*
X0003558267Y0003726377D03*
X0003600787Y0003685039D03*
X0003637401Y0003637795D03*
X0003667716Y0003586220D03*
X0003690551Y0003531496D03*
X0003706299Y0003474015D03*
X0003663779Y0003177952D03*
X0003621259Y0003111811D03*
X0003568110Y0003054724D03*
X0003065748Y0002986614D03*
X0002831496Y0003485039D03*
X0002858661Y0003566929D03*
G04 #@! TD*
M02*