%
M48
METRIC,000.000
T10C0.30
T11C0.80
%
T10
X001920Y015519
X002611Y017600
X007868Y002860
X017841Y023289
X019159Y022550
X020381Y021648
X020629Y004590
X021460Y020599
X021981Y006040
X022390Y019400
X023060Y007719
X023159Y018090
X023738Y016700
X024140Y015240
X029920Y015519
X030611Y017600
X035868Y002860
X045841Y023289
X047159Y022550
X048381Y021648
X048629Y004590
X049460Y020599
X049981Y006040
X050390Y019400
X051060Y007719
X051159Y018090
X051738Y016700
X052140Y015240
X057920Y015519
X058611Y017600
X063868Y002860
X073841Y023289
X075159Y022550
X076381Y021648
X076629Y004590
X077460Y020599
X077981Y006040
X078390Y019400
X079060Y007719
X079159Y018090
X079738Y016700
X080140Y015240
X071920Y039519
X072611Y041600
X077868Y026860
X087841Y047289
X089159Y046550
X090381Y045648
X090629Y028590
X091460Y044599
X091981Y030040
X092390Y043400
X093060Y031719
X093159Y042090
X093738Y040700
X094140Y039240
X043920Y039519
X044611Y041600
X049868Y026860
X059841Y047289
X061159Y046550
X062381Y045648
X062629Y028590
X063460Y044599
X063981Y030040
X064390Y043400
X065060Y031719
X065159Y042090
X065738Y040700
X066140Y039240
X015920Y039519
X016611Y041600
X021868Y026860
X031841Y047289
X033159Y046550
X034381Y045648
X034629Y028590
X035460Y044599
X035981Y030040
X036390Y043400
X037060Y031719
X037159Y042090
X037738Y040700
X038140Y039240
X001920Y063519
X002611Y065600
X007868Y050860
X017841Y071289
X019159Y070550
X020381Y069648
X020629Y052590
X021460Y068599
X021981Y054040
X022390Y067400
X023060Y055719
X023159Y066090
X023738Y064700
X024140Y063240
X029920Y063519
X030611Y065600
X035868Y050860
X045841Y071289
X047159Y070550
X048381Y069648
X048629Y052590
X049460Y068599
X049981Y054040
X050390Y067400
X051060Y055719
X051159Y066090
X051738Y064700
X052140Y063240
X057920Y063519
X058611Y065600
X063868Y050860
X073841Y071289
X075159Y070550
X076381Y069648
X076629Y052590
X077460Y068599
X077981Y054040
X078390Y067400
X079060Y055719
X079159Y066090
X079738Y064700
X080140Y063240
X015920Y087519
X016611Y089600
X021868Y074860
X031841Y095289
X033159Y094550
X034381Y093648
X034629Y076590
X035460Y092599
X035981Y078040
X036390Y091400
X037060Y079719
X037159Y090090
X037738Y088700
X038140Y087240
X043920Y088519
X044611Y090600
X049868Y075860
X059841Y096289
X061159Y095550
X062381Y094648
X062629Y077590
X063460Y093599
X063981Y079040
X064390Y092400
X065060Y080719
X065159Y091090
X065738Y089700
X066140Y088240
X071920Y088519
X072611Y090600
X077868Y075860
X087841Y096289
X089159Y095550
X090381Y094648
X090629Y077590
X091460Y093599
X091981Y079040
X092390Y092400
X093060Y080719
X093159Y091090
X093738Y089700
X094140Y088240
T11
X012999Y024348
X012999Y001648
X040999Y024348
X040999Y001648
X068999Y024348
X068999Y001648
X082999Y048348
X082999Y025648
X054999Y048348
X054999Y025648
X026999Y048348
X026999Y025648
X012999Y072348
X012999Y049648
X040999Y072348
X040999Y049648
X068999Y072348
X068999Y049648
X026999Y096348
X026999Y073648
X054999Y097348
X054999Y074648
X082999Y097348
X082999Y074648
M30