%
M48
METRIC,000.000
T10C0.20
%
T10
X000460Y037642
X000493Y036593
X000617Y035549
X000833Y034520
X001024Y035640
X001138Y033517
X001235Y041751
X001306Y035257
X001458Y034774
X001527Y032540
X001621Y036839
X001621Y036130
X001628Y034317
X001834Y033862
X001999Y037599
X002001Y031604
X002052Y033392
X002144Y043644
X002294Y032917
X002538Y032458
X002555Y030710
X002718Y044523
X002784Y031929
X003061Y040387
X003107Y039659
X003152Y038236
X003185Y029869
X003216Y042092
X003368Y045348
X003394Y033542
X003490Y030989
X003495Y037761
X003785Y036265
X003858Y030273
X003886Y029087
X003998Y041919
X004035Y035744
X004046Y035211
X004086Y046113
X004171Y031929
X004217Y044609
X004318Y036217
X004585Y035196
X004587Y041830
X004618Y043052
X004631Y029592
X004638Y040027
X004651Y028368
X004669Y039100
X004813Y036438
X004816Y031947
X004824Y037436
X004834Y036943
X004867Y033382
X004869Y046814
X005095Y040675
X005362Y033608
X005367Y033126
X005385Y028866
X005476Y027718
X005680Y045912
X005710Y047444
X005946Y028483
X006081Y041343
X006251Y037157
X006355Y027144
X006358Y039534
X006459Y046052
X006462Y033512
X006500Y041002
X006594Y034675
X006604Y047997
X006978Y030134
X007061Y043842
X007394Y033834
X007465Y044518
X007529Y036212
X007541Y048472
X007597Y043791
X007640Y043255
X007839Y039288
X007882Y039854
X008087Y034538
X008156Y028592
X008248Y026235
X008296Y041122
X008301Y043197
X008380Y042663
X008418Y044993
X008441Y029184
X008565Y039389
X008674Y041975
X008717Y027045
X008801Y046049
X008857Y034614
X009020Y041564
X009109Y039547
X009180Y046433
X009248Y025998
X009388Y026875
X009431Y040027
X009434Y041934
X009535Y035056
X009540Y034518
X009733Y047695
X009802Y040466
X009876Y046697
X009967Y041995
X010079Y034518
X010135Y046227
X010183Y040847
X010249Y025998
X010462Y028358
X010577Y041221
X010589Y046539
X010648Y048353
X010942Y046136
X011059Y029839
X011196Y042531
X011250Y025998
X011268Y045706
X011738Y043275
X011753Y042549
X011765Y040156
X011821Y045742
X012065Y048543
X012075Y029245
X012119Y027126
X012144Y042922
X012251Y025998
X012329Y044558
X012357Y034413
X012431Y045086
X012456Y043842
X012644Y048122
X012710Y042813
X012710Y043369
X012736Y047085
X012941Y044185
X013035Y040728
X013053Y041264
X013249Y025998
X013302Y034380
X013404Y046687
X013490Y031411
X013691Y049481
X013698Y042000
X013729Y043819
X013838Y045188
X013990Y048604
X014140Y028754
X014250Y025998
X014265Y044335
X014694Y031416
X014702Y028820
X014730Y049331
X014796Y027058
X014852Y046859
X014989Y042011
X014999Y042689
X015052Y045894
X015250Y025998
X015718Y028620
X015753Y049092
X015796Y044126
X016000Y032999
X016001Y048515
X016146Y041332
X016149Y046809
X016167Y041871
X016464Y039506
X016482Y026138
X016500Y032999
X016691Y027289
X016751Y048764
X016939Y040227
X016960Y043522
X017016Y045930
X017089Y030022
X017099Y044058
X017242Y027987
X017328Y047774
X017419Y045574
X017458Y026527
X017623Y044187
X017699Y041599
X017699Y040901
X017869Y033314
X017976Y045607
X018222Y047769
X018268Y030179
X018387Y036029
X018395Y027002
X018458Y028325
X018626Y042950
X018700Y042348
X018700Y041599
X018700Y040901
X018738Y044716
X018883Y036542
X018890Y032737
X019248Y038249
X019289Y027555
X019358Y042991
X019429Y040390
X019441Y031144
X019599Y047172
X019718Y044314
X019886Y043093
X019919Y046163
X020000Y037251
X020130Y028185
X020399Y039547
X020704Y032844
X020831Y045998
X020889Y043550
X020912Y028886
X020935Y039582
X021130Y044881
X021262Y040657
X021339Y031929
X021379Y030438
X021440Y038853
X021537Y036473
X021631Y029651
X022124Y044149
X022124Y041939
X022185Y035668
X022568Y032177
X022609Y036933
X022682Y043453
X022720Y038051
X022723Y035671
X023236Y041188
X023620Y038858
X023658Y032963
X023698Y041960
X024166Y040479
X024232Y039072
X024331Y035269
X024506Y038406
X008048Y032950
X008048Y031899
X008048Y030850
X009098Y032950
X009098Y031899
X009098Y030850
X010150Y032950
X010150Y031899
X010150Y030850
X024539Y012357
X024506Y013406
X024382Y014450
X024166Y015479
X023975Y014359
X023861Y016482
X023764Y008248
X023693Y014742
X023541Y015225
X023472Y017458
X023378Y013160
X023378Y013869
X023371Y015682
X023165Y016137
X023000Y012400
X022997Y018395
X022947Y016607
X022855Y006355
X022705Y017082
X022461Y017541
X022444Y019289
X022281Y005476
X022215Y018070
X021938Y009612
X021892Y010341
X021847Y011763
X021814Y020130
X021783Y007907
X021631Y004651
X021605Y016457
X021509Y019010
X021504Y012238
X021214Y013734
X021141Y019726
X021113Y020912
X021001Y008080
X020963Y014255
X020953Y014788
X020912Y003886
X020828Y018070
X020782Y005390
X020681Y013782
X020414Y014803
X020412Y008169
X020381Y006947
X020368Y020407
X020361Y009972
X020348Y021631
X020330Y010899
X020186Y013561
X020183Y018052
X020175Y012563
X020165Y013056
X020132Y016617
X020130Y003185
X019904Y009325
X019637Y016391
X019632Y016873
X019614Y021133
X019523Y022281
X019319Y004086
X019289Y002555
X019053Y021517
X018918Y008656
X018748Y012842
X018644Y022855
X018641Y010465
X018540Y003947
X018537Y016487
X018499Y008997
X018405Y015324
X018395Y002001
X018021Y019866
X017938Y006157
X017605Y016165
X017534Y005481
X017470Y013787
X017458Y001527
X017402Y006208
X017359Y006744
X017160Y010711
X017117Y010145
X016911Y015461
X016843Y021407
X016751Y023764
X016703Y008877
X016698Y006802
X016619Y007336
X016581Y005007
X016558Y020815
X016434Y010610
X016325Y008023
X016282Y022954
X016198Y003950
X016142Y015385
X015979Y008436
X015890Y010452
X015819Y003566
X015751Y024001
X015611Y023124
X015568Y009972
X015565Y008064
X015464Y014943
X015459Y015481
X015266Y002304
X015197Y009533
X015123Y003302
X015032Y008004
X014920Y015481
X014864Y003772
X014816Y009152
X014750Y024001
X014537Y021641
X014422Y008778
X014410Y003460
X014351Y001646
X014057Y003863
X013940Y020160
X013803Y007468
X013749Y024001
X013731Y004293
X013262Y006724
X013246Y007450
X013234Y009843
X013178Y004257
X012934Y001456
X012924Y020755
X012880Y022873
X012855Y007077
X012748Y024001
X012670Y005441
X012642Y015586
X012568Y004913
X012543Y006157
X012355Y001877
X012289Y007186
X012289Y006630
X012263Y002914
X012058Y005814
X011964Y009271
X011946Y008735
X011750Y024001
X011697Y015619
X011595Y003312
X011509Y018588
X011308Y000518
X011301Y007999
X011270Y006180
X011161Y004811
X011009Y001395
X010859Y021245
X010749Y024001
X010734Y005664
X010305Y018583
X010297Y021179
X010269Y000668
X010203Y022941
X010147Y003140
X010010Y007988
X010000Y007310
X009947Y004105
X009749Y024001
X009281Y021379
X009246Y000907
X009203Y005873
X008999Y017000
X008997Y001484
X008852Y008667
X008850Y003190
X008832Y008128
X008535Y010493
X008517Y023861
X008499Y017000
X008309Y022710
X008248Y001235
X008060Y009772
X008039Y006477
X007983Y004069
X007910Y019977
X007900Y005941
X007757Y022012
X007671Y002225
X007580Y004425
X007541Y023472
X007376Y005812
X007300Y008400
X007300Y009098
X007130Y016685
X007023Y004392
X006777Y002230
X006731Y019820
X006612Y013970
X006604Y022997
X006541Y021674
X006373Y007049
X006299Y007651
X006299Y008400
X006299Y009098
X006261Y005283
X006116Y013457
X006109Y017262
X005751Y011750
X005710Y022444
X005642Y007008
X005570Y009609
X005558Y018855
X005400Y002827
X005281Y005685
X005113Y006906
X005080Y003836
X004999Y012748
X004869Y021814
X004600Y010452
X004295Y017155
X004168Y004001
X004110Y006449
X004086Y021113
X004064Y010417
X003869Y005118
X003737Y009342
X003660Y018070
X003620Y019561
X003559Y011146
X003462Y013526
X003368Y020348
X002875Y005850
X002875Y008060
X002814Y014331
X002431Y017821
X002390Y013066
X002317Y006546
X002279Y011948
X002276Y014328
X001763Y008811
X001379Y011141
X001341Y017036
X001301Y008039
X000833Y009520
X000767Y010927
X000668Y014730
X000493Y011593
X016950Y017049
X016950Y018100
X016950Y019149
X015901Y017049
X015901Y018100
X015901Y019149
X014849Y017049
X014849Y018100
X014849Y019149
X024960Y025142
X024993Y024093
X025117Y023049
X025333Y022020
X025524Y023140
X025638Y021017
X025735Y029251
X025806Y022757
X025958Y022274
X026027Y020041
X026121Y024339
X026121Y023630
X026128Y021817
X026334Y021362
X026499Y025099
X026502Y019104
X026552Y020892
X026644Y031144
X026794Y020417
X027038Y019958
X027055Y018210
X027218Y032023
X027284Y019429
X027561Y027887
X027607Y027159
X027652Y025736
X027685Y017369
X027716Y029592
X027868Y032848
X027894Y021042
X027990Y018489
X027995Y025261
X028285Y023765
X028358Y017773
X028386Y016587
X028498Y029419
X028536Y023244
X028546Y022711
X028587Y033613
X028671Y019429
X028717Y032109
X028818Y023717
X029085Y022696
X029087Y029330
X029118Y030552
X029131Y017092
X029138Y027527
X029151Y015868
X029169Y026600
X029313Y023938
X029316Y019447
X029324Y024936
X029334Y024443
X029367Y020882
X029369Y034314
X029595Y028175
X029862Y021108
X029867Y020626
X029885Y016366
X029976Y015218
X030180Y033412
X030210Y034944
X030446Y015983
X030581Y028843
X030751Y024657
X030855Y014644
X030858Y027034
X030959Y033552
X030962Y021012
X031000Y028502
X031094Y022175
X031104Y035497
X031478Y017634
X031561Y031342
X031894Y021334
X031965Y032018
X032029Y023712
X032040Y035972
X032097Y031291
X032140Y030755
X032339Y026788
X032381Y027354
X032588Y022038
X032656Y016091
X032747Y013735
X032796Y028622
X032801Y030697
X032880Y030163
X032918Y032493
X032941Y016684
X033065Y026889
X033174Y029475
X033217Y014545
X033301Y033549
X033357Y022114
X033520Y029064
X033609Y027047
X033680Y033933
X033748Y013498
X033888Y014375
X033931Y027527
X033934Y029434
X034035Y022556
X034040Y022018
X034233Y035195
X034302Y027966
X034376Y034197
X034467Y029495
X034579Y022018
X034635Y033727
X034683Y028347
X034749Y013498
X034962Y015858
X035077Y028721
X035089Y034039
X035148Y035853
X035442Y033636
X035559Y017339
X035696Y030031
X035750Y013498
X035768Y033206
X036238Y030775
X036253Y030049
X036265Y027656
X036321Y033242
X036565Y036043
X036575Y016745
X036619Y014626
X036644Y030422
X036751Y013498
X036829Y032058
X036857Y021913
X036931Y032586
X036956Y031342
X037144Y035622
X037210Y030313
X037210Y030869
X037236Y034585
X037441Y031685
X037535Y028228
X037553Y028764
X037749Y013498
X037802Y021880
X037904Y034187
X037990Y018911
X038191Y036981
X038198Y029500
X038229Y031319
X038338Y032688
X038490Y036104
X038640Y016254
X038750Y013498
X038765Y031835
X039194Y018916
X039202Y016320
X039230Y036831
X039296Y014558
X039352Y034359
X039489Y029511
X039499Y030189
X039552Y033394
X039750Y013498
X040218Y016120
X040253Y036592
X040296Y031626
X040500Y020499
X040502Y036015
X040647Y028832
X040649Y034309
X040667Y029371
X040964Y027006
X040982Y013638
X041000Y020499
X041191Y014789
X041251Y036264
X041439Y027727
X041460Y031022
X041516Y033430
X041589Y017522
X041599Y031558
X041742Y015487
X041828Y035274
X041919Y033074
X041958Y014027
X042123Y031687
X042199Y029099
X042199Y028401
X042369Y020814
X042476Y033107
X042722Y035269
X042768Y017679
X042887Y023529
X042895Y014502
X042958Y015825
X043126Y030450
X043200Y029848
X043200Y029099
X043200Y028401
X043238Y032216
X043383Y024042
X043390Y020237
X043748Y025749
X043789Y015055
X043858Y030491
X043929Y027890
X043941Y018644
X044099Y034672
X044218Y031814
X044386Y030593
X044419Y033663
X044500Y024751
X044630Y015685
X044899Y027047
X045204Y020344
X045331Y033498
X045389Y031050
X045412Y016386
X045435Y027082
X045630Y032381
X045763Y028157
X045839Y019429
X045879Y017938
X045940Y026353
X046037Y023973
X046131Y017151
X046624Y031649
X046624Y029439
X046685Y023168
X047068Y019678
X047109Y024433
X047182Y030953
X047220Y025551
X047223Y023171
X047736Y028688
X048120Y026358
X048158Y020463
X048198Y029460
X048666Y027979
X048732Y026572
X048831Y022769
X049006Y025906
X032549Y020450
X032549Y019399
X032549Y018350
X033598Y020450
X033598Y019399
X033598Y018350
X034650Y020450
X034650Y019399
X034650Y018350
M30