%MOIN*%
%OFA0B0*%
%FSLAX44Y44*%
%IPPOS*%
%LPD*%
%ADD10C,0*%
D10*
X00002911Y00009413D02*
X00002911Y00009413D01*
X00002874Y00009398D01*
X00002836Y00009387D01*
X00002798Y00009380D01*
X00002758Y00009376D01*
X00002719Y00009377D01*
X00002679Y00009381D01*
X00002641Y00009390D01*
X00002603Y00009402D01*
X00002567Y00009418D01*
X00002533Y00009438D01*
X00002501Y00009461D01*
X00002471Y00009487D01*
X00002444Y00009516D01*
X00002420Y00009547D01*
X00002400Y00009581D01*
X00002382Y00009616D01*
X00002369Y00009653D01*
X00002359Y00009691D01*
X00002353Y00009731D01*
X00002351Y00009770D01*
X00002351Y00009915D01*
X00002353Y00009954D01*
X00002359Y00009993D01*
X00002369Y00010031D01*
X00002383Y00010068D01*
X00002400Y00010104D01*
X00002421Y00010137D01*
X00002444Y00010169D01*
X00002471Y00010198D01*
X00002501Y00010223D01*
X00002533Y00010246D01*
X00002568Y00010266D01*
X00002604Y00010282D01*
X00002641Y00010294D01*
X00002680Y00010303D01*
X00002719Y00010307D01*
X00002758Y00010308D01*
X00002798Y00010305D01*
X00002836Y00010297D01*
X00002874Y00010286D01*
X00002911Y00010271D01*
X00002923Y00010266D01*
X00003076Y00010201D01*
X00003230Y00010142D01*
X00003386Y00010087D01*
X00003544Y00010038D01*
X00006299Y00010039D01*
X00006299Y00010039D01*
X00006457Y00010088D01*
X00006613Y00010142D01*
X00006767Y00010202D01*
X00006920Y00010266D01*
X00007070Y00010336D01*
X00007217Y00010411D01*
X00007362Y00010490D01*
X00007505Y00010575D01*
X00007644Y00010664D01*
X00007780Y00010758D01*
X00007913Y00010856D01*
X00008043Y00010959D01*
X00008169Y00011066D01*
X00008292Y00011178D01*
X00008410Y00011293D01*
X00008525Y00011412D01*
X00008635Y00011535D01*
X00008742Y00011662D01*
X00008844Y00011792D01*
X00008942Y00011926D01*
X00009035Y00012063D01*
X00009123Y00012202D01*
X00009207Y00012345D01*
X00009286Y00012491D01*
X00009360Y00012639D01*
X00009429Y00012789D01*
X00009492Y00012942D01*
X00009551Y00013096D01*
X00009605Y00013253D01*
X00009653Y00013411D01*
X00009683Y00013523D01*
X00009693Y00013555D01*
X00009705Y00013586D01*
X00009721Y00013616D01*
X00009738Y00013644D01*
X00009759Y00013671D01*
X00009781Y00013696D01*
X00009805Y00013719D01*
X00009832Y00013740D01*
X00009860Y00013758D01*
X00009889Y00013774D01*
X00009920Y00013788D01*
X00009952Y00013799D01*
X00009984Y00013807D01*
X00010017Y00013812D01*
X00010051Y00013815D01*
X00010084Y00013814D01*
X00010118Y00013811D01*
X00010151Y00013805D01*
X00010183Y00013796D01*
X00010214Y00013784D01*
X00010636Y00013609D01*
X00010669Y00013593D01*
X00010700Y00013574D01*
X00010730Y00013553D01*
X00010757Y00013529D01*
X00010782Y00013502D01*
X00010805Y00013474D01*
X00010825Y00013443D01*
X00010841Y00013411D01*
X00010855Y00013377D01*
X00010866Y00013342D01*
X00010873Y00013306D01*
X00010877Y00013270D01*
X00010878Y00013233D01*
X00010875Y00013197D01*
X00010869Y00013161D01*
X00010859Y00013126D01*
X00010847Y00013092D01*
X00010831Y00013059D01*
X00010812Y00013027D01*
X00010790Y00012998D01*
X00010687Y00012870D01*
X00010588Y00012738D01*
X00010492Y00012603D01*
X00010402Y00012464D01*
X00010316Y00012323D01*
X00010235Y00012178D01*
X00010159Y00012031D01*
X00010088Y00011882D01*
X00010022Y00011730D01*
X00009961Y00011576D01*
X00009905Y00011421D01*
X00009855Y00011263D01*
X00009810Y00011104D01*
X00009770Y00010943D01*
X00009736Y00010781D01*
X00009707Y00010618D01*
X00009683Y00010455D01*
X00009666Y00010290D01*
X00009653Y00010125D01*
X00009647Y00009960D01*
X00009645Y00009794D01*
X00009650Y00009629D01*
X00009660Y00009464D01*
X00009675Y00009299D01*
X00009696Y00009135D01*
X00009723Y00008972D01*
X00009755Y00008809D01*
X00009792Y00008648D01*
X00009835Y00008488D01*
X00009883Y00008330D01*
X00009937Y00008173D01*
X00009995Y00008019D01*
X00010059Y00007866D01*
X00010128Y00007716D01*
X00010202Y00007568D01*
X00010281Y00007422D01*
X00010365Y00007280D01*
X00010453Y00007140D01*
X00010547Y00007003D01*
X00010644Y00006870D01*
X00010746Y00006739D01*
X00010759Y00006725D01*
X00010782Y00006694D01*
X00010802Y00006662D01*
X00010819Y00006627D01*
X00010832Y00006591D01*
X00010842Y00006554D01*
X00010849Y00006517D01*
X00010851Y00006478D01*
X00010850Y00006440D01*
X00010845Y00006402D01*
X00010836Y00006365D01*
X00010824Y00006328D01*
X00010809Y00006293D01*
X00010790Y00006260D01*
X00010768Y00006229D01*
X00010743Y00006200D01*
X00010715Y00006173D01*
X00010685Y00006150D01*
X00010652Y00006129D01*
X00010618Y00006112D01*
X00010583Y00006098D01*
X00010169Y00005960D01*
X00010138Y00005951D01*
X00010107Y00005944D01*
X00010075Y00005940D01*
X00010043Y00005939D01*
X00010011Y00005941D01*
X00009979Y00005945D01*
X00009948Y00005951D01*
X00009917Y00005960D01*
X00009887Y00005972D01*
X00009858Y00005986D01*
X00009830Y00006002D01*
X00009804Y00006021D01*
X00009779Y00006041D01*
X00009756Y00006064D01*
X00009736Y00006088D01*
X00009717Y00006114D01*
X00009700Y00006142D01*
X00009685Y00006170D01*
X00009673Y00006200D01*
X00009664Y00006231D01*
X00009652Y00006274D01*
X00009604Y00006433D01*
X00009551Y00006589D01*
X00009492Y00006744D01*
X00009428Y00006897D01*
X00009359Y00007047D01*
X00009285Y00007195D01*
X00009206Y00007340D01*
X00009122Y00007483D01*
X00009034Y00007623D01*
X00008941Y00007760D01*
X00008843Y00007893D01*
X00008741Y00008023D01*
X00008634Y00008150D01*
X00008524Y00008273D01*
X00008409Y00008392D01*
X00008290Y00008508D01*
X00008168Y00008619D01*
X00008042Y00008726D01*
X00007912Y00008829D01*
X00007779Y00008927D01*
X00007643Y00009021D01*
X00007503Y00009110D01*
X00007361Y00009194D01*
X00007216Y00009274D01*
X00007068Y00009349D01*
X00006918Y00009418D01*
X00006766Y00009483D01*
X00006611Y00009542D01*
X00006455Y00009597D01*
X00006297Y00009646D01*
X00003543Y00009645D01*
X00003543Y00009645D01*
X00003385Y00009596D01*
X00003228Y00009542D01*
X00003074Y00009482D01*
X00002922Y00009418D01*
X00002911Y00009413D01*
X00001727Y00011020D02*
X00001727Y00011020D01*
X00001727Y00011020D01*
X00001740Y00011009D01*
X00001752Y00010997D01*
X00001764Y00010985D01*
X00001775Y00010972D01*
X00001785Y00010958D01*
X00001795Y00010945D01*
X00001805Y00010930D01*
X00001814Y00010916D01*
X00001822Y00010901D01*
X00001829Y00010885D01*
X00001836Y00010870D01*
X00001842Y00010854D01*
X00001848Y00010838D01*
X00001853Y00010821D01*
X00001857Y00010805D01*
X00001860Y00010788D01*
X00001862Y00010771D01*
X00001864Y00010754D01*
X00001865Y00010737D01*
X00001866Y00010720D01*
X00001866Y00008964D01*
X00001865Y00008947D01*
X00001864Y00008930D01*
X00001862Y00008913D01*
X00001860Y00008896D01*
X00001856Y00008879D01*
X00001852Y00008863D01*
X00001848Y00008846D01*
X00001842Y00008830D01*
X00001836Y00008814D01*
X00001829Y00008799D01*
X00001822Y00008783D01*
X00001814Y00008768D01*
X00001805Y00008754D01*
X00001795Y00008739D01*
X00001785Y00008726D01*
X00001775Y00008712D01*
X00001764Y00008699D01*
X00001752Y00008687D01*
X00001740Y00008675D01*
X00001727Y00008664D01*
X00001727Y00008664D01*
X00001672Y00008618D01*
X00001550Y00008506D01*
X00001431Y00008391D01*
X00001317Y00008272D01*
X00001206Y00008149D01*
X00001100Y00008022D01*
X00000998Y00007892D01*
X00000900Y00007758D01*
X00000807Y00007621D01*
X00000718Y00007482D01*
X00000635Y00007339D01*
X00000556Y00007193D01*
X00000482Y00007045D01*
X00000413Y00006895D01*
X00000349Y00006742D01*
X00000290Y00006588D01*
X00000237Y00006431D01*
X00000189Y00006273D01*
X00000146Y00006113D01*
X00000109Y00005952D01*
X00000077Y00005789D01*
X00000050Y00005626D01*
X00000029Y00005462D01*
X00000014Y00005297D01*
X00000004Y00005132D01*
X00000000Y00004967D01*
X00000001Y00004801D01*
X00000008Y00004636D01*
X00000020Y00004471D01*
X00000038Y00004306D01*
X00000061Y00004143D01*
X00000090Y00003980D01*
X00000125Y00003818D01*
X00000164Y00003657D01*
X00000210Y00003498D01*
X00000260Y00003340D01*
X00000316Y00003185D01*
X00000377Y00003031D01*
X00000443Y00002879D01*
X00000514Y00002730D01*
X00000590Y00002583D01*
X00000671Y00002439D01*
X00000757Y00002297D01*
X00000848Y00002159D01*
X00000943Y00002023D01*
X00001043Y00001891D01*
X00001147Y00001763D01*
X00001255Y00001637D01*
X00001367Y00001516D01*
X00001484Y00001399D01*
X00001604Y00001285D01*
X00001728Y00001176D01*
X00001856Y00001070D01*
X00001987Y00000970D01*
X00002122Y00000873D01*
X00002259Y00000781D01*
X00002400Y00000694D01*
X00002543Y00000612D01*
X00002690Y00000534D01*
X00002838Y00000462D01*
X00002989Y00000394D01*
X00003143Y00000332D01*
X00003298Y00000275D01*
X00003455Y00000223D01*
X00003614Y00000176D01*
X00003774Y00000135D01*
X00003936Y00000099D01*
X00004098Y00000069D01*
X00004262Y00000044D01*
X00004426Y00000024D01*
X00004591Y00000011D01*
X00004756Y00000002D01*
X00004922Y00000000D01*
X00005087Y00000002D01*
X00005252Y00000011D01*
X00005417Y00000025D01*
X00005582Y00000044D01*
X00005745Y00000069D01*
X00005908Y00000099D01*
X00006069Y00000135D01*
X00006229Y00000177D01*
X00006388Y00000223D01*
X00006545Y00000275D01*
X00006701Y00000333D01*
X00006854Y00000395D01*
X00007005Y00000463D01*
X00007153Y00000535D01*
X00007300Y00000613D01*
X00007443Y00000695D01*
X00007584Y00000782D01*
X00007721Y00000874D01*
X00007856Y00000971D01*
X00007987Y00001071D01*
X00008115Y00001177D01*
X00008239Y00001286D01*
X00008359Y00001400D01*
X00008475Y00001517D01*
X00008588Y00001639D01*
X00008696Y00001764D01*
X00008800Y00001893D01*
X00008900Y00002025D01*
X00008995Y00002160D01*
X00009085Y00002299D01*
X00009171Y00002440D01*
X00009252Y00002584D01*
X00009328Y00002731D01*
X00009399Y00002881D01*
X00009465Y00003032D01*
X00009526Y00003186D01*
X00009582Y00003342D01*
X00009632Y00003500D01*
X00009677Y00003659D01*
X00009717Y00003819D01*
X00009752Y00003981D01*
X00009780Y00004144D01*
X00009804Y00004308D01*
X00009822Y00004473D01*
X00009834Y00004638D01*
X00009835Y00004676D01*
X00009837Y00004696D01*
X00009839Y00004715D01*
X00009842Y00004734D01*
X00009846Y00004754D01*
X00009851Y00004772D01*
X00009857Y00004791D01*
X00009864Y00004809D01*
X00009872Y00004827D01*
X00009881Y00004845D01*
X00009891Y00004862D01*
X00009901Y00004878D01*
X00009912Y00004894D01*
X00009924Y00004910D01*
X00009937Y00004924D01*
X00009950Y00004939D01*
X00009964Y00004952D01*
X00009979Y00004965D01*
X00009995Y00004977D01*
X00010011Y00004988D01*
X00010027Y00004998D01*
X00011363Y00005795D01*
X00011383Y00005806D01*
X00011403Y00005816D01*
X00011423Y00005824D01*
X00011445Y00005832D01*
X00011466Y00005838D01*
X00011488Y00005843D01*
X00011510Y00005847D01*
X00011533Y00005849D01*
X00011555Y00005850D01*
X00011577Y00005850D01*
X00011600Y00005849D01*
X00011622Y00005846D01*
X00011644Y00005842D01*
X00011666Y00005837D01*
X00011688Y00005831D01*
X00011709Y00005823D01*
X00011729Y00005814D01*
X00011749Y00005804D01*
X00011769Y00005793D01*
X00011788Y00005781D01*
X00011845Y00005742D01*
X00011984Y00005653D01*
X00012126Y00005568D01*
X00012271Y00005489D01*
X00012419Y00005414D01*
X00012569Y00005344D01*
X00012721Y00005280D01*
X00012876Y00005220D01*
X00013032Y00005166D01*
X00013190Y00005117D01*
X00015944Y00005118D01*
X00015944Y00005118D01*
X00016102Y00005167D01*
X00016259Y00005221D01*
X00016413Y00005280D01*
X00016565Y00005345D01*
X00016715Y00005415D01*
X00016863Y00005490D01*
X00017008Y00005569D01*
X00017150Y00005654D01*
X00017290Y00005743D01*
X00017426Y00005837D01*
X00017559Y00005935D01*
X00017689Y00006038D01*
X00017815Y00006145D01*
X00017937Y00006256D01*
X00018056Y00006372D01*
X00018171Y00006491D01*
X00018281Y00006614D01*
X00018388Y00006741D01*
X00018490Y00006871D01*
X00018587Y00007005D01*
X00018680Y00007141D01*
X00018769Y00007281D01*
X00018853Y00007424D01*
X00018931Y00007569D01*
X00019005Y00007717D01*
X00019074Y00007868D01*
X00019138Y00008020D01*
X00019197Y00008175D01*
X00019250Y00008332D01*
X00019298Y00008490D01*
X00019341Y00008650D01*
X00019378Y00008811D01*
X00019410Y00008973D01*
X00019437Y00009137D01*
X00019458Y00009301D01*
X00019473Y00009466D01*
X00019483Y00009631D01*
X00019487Y00009796D01*
X00019486Y00009962D01*
X00019479Y00010127D01*
X00019467Y00010292D01*
X00019449Y00010456D01*
X00019426Y00010620D01*
X00019397Y00010783D01*
X00019362Y00010945D01*
X00019323Y00011106D01*
X00019278Y00011265D01*
X00019227Y00011422D01*
X00019171Y00011578D01*
X00019110Y00011732D01*
X00019044Y00011884D01*
X00018973Y00012033D01*
X00018897Y00012180D01*
X00018816Y00012324D01*
X00018730Y00012466D01*
X00018639Y00012604D01*
X00018544Y00012739D01*
X00018445Y00012872D01*
X00018341Y00013000D01*
X00018232Y00013125D01*
X00018120Y00013247D01*
X00018003Y00013364D01*
X00017883Y00013478D01*
X00017759Y00013587D01*
X00017631Y00013692D01*
X00017500Y00013793D01*
X00017366Y00013890D01*
X00017228Y00013981D01*
X00017087Y00014069D01*
X00016944Y00014151D01*
X00016798Y00014228D01*
X00016649Y00014301D01*
X00016498Y00014368D01*
X00016345Y00014431D01*
X00016189Y00014488D01*
X00016032Y00014540D01*
X00015873Y00014587D01*
X00015713Y00014628D01*
X00015552Y00014664D01*
X00015389Y00014694D01*
X00015225Y00014719D01*
X00015061Y00014738D01*
X00014896Y00014752D01*
X00014731Y00014761D01*
X00014566Y00014763D01*
X00014400Y00014760D01*
X00014235Y00014752D01*
X00014070Y00014738D01*
X00013906Y00014719D01*
X00013742Y00014694D01*
X00013579Y00014663D01*
X00013418Y00014627D01*
X00013258Y00014586D01*
X00013099Y00014539D01*
X00012942Y00014487D01*
X00012787Y00014430D01*
X00012633Y00014368D01*
X00012482Y00014300D01*
X00012334Y00014228D01*
X00012188Y00014150D01*
X00012044Y00014068D01*
X00011903Y00013981D01*
X00011824Y00013928D01*
X00011806Y00013916D01*
X00011787Y00013906D01*
X00011767Y00013896D01*
X00011748Y00013888D01*
X00011727Y00013881D01*
X00011706Y00013874D01*
X00011685Y00013870D01*
X00011664Y00013866D01*
X00011643Y00013863D01*
X00011621Y00013862D01*
X00011599Y00013861D01*
X00011578Y00013862D01*
X00011556Y00013864D01*
X00011535Y00013868D01*
X00011514Y00013872D01*
X00011493Y00013878D01*
X00011472Y00013885D01*
X00011452Y00013893D01*
X00011432Y00013901D01*
X00011413Y00013912D01*
X00010036Y00014682D01*
X00010019Y00014692D01*
X00010002Y00014704D01*
X00009986Y00014716D01*
X00009971Y00014728D01*
X00009956Y00014742D01*
X00009942Y00014756D01*
X00009929Y00014771D01*
X00009916Y00014787D01*
X00009904Y00014803D01*
X00009893Y00014820D01*
X00009883Y00014837D01*
X00009874Y00014855D01*
X00009866Y00014873D01*
X00009858Y00014892D01*
X00009852Y00014911D01*
X00009847Y00014930D01*
X00009842Y00014950D01*
X00009839Y00014970D01*
X00009837Y00014990D01*
X00009835Y00015010D01*
X00009834Y00015048D01*
X00009821Y00015213D01*
X00009804Y00015378D01*
X00009780Y00015541D01*
X00009751Y00015704D01*
X00009717Y00015866D01*
X00009677Y00016027D01*
X00009632Y00016186D01*
X00009581Y00016344D01*
X00009526Y00016499D01*
X00009465Y00016653D01*
X00009399Y00016805D01*
X00009327Y00016954D01*
X00009251Y00017101D01*
X00009170Y00017245D01*
X00009084Y00017387D01*
X00008994Y00017525D01*
X00008899Y00017661D01*
X00008799Y00017793D01*
X00008695Y00017921D01*
X00008587Y00018047D01*
X00008474Y00018168D01*
X00008358Y00018285D01*
X00008237Y00018399D01*
X00008113Y00018508D01*
X00007986Y00018614D01*
X00007854Y00018715D01*
X00007720Y00018811D01*
X00007582Y00018903D01*
X00007442Y00018990D01*
X00007298Y00019072D01*
X00007152Y00019150D01*
X00007003Y00019222D01*
X00006852Y00019290D01*
X00006699Y00019352D01*
X00006544Y00019409D01*
X00006387Y00019461D01*
X00006228Y00019508D01*
X00006068Y00019549D01*
X00005906Y00019585D01*
X00005743Y00019615D01*
X00005580Y00019640D01*
X00005415Y00019660D01*
X00005251Y00019673D01*
X00005085Y00019682D01*
X00004920Y00019685D01*
X00004754Y00019682D01*
X00004589Y00019673D01*
X00004424Y00019659D01*
X00004260Y00019640D01*
X00004096Y00019615D01*
X00003934Y00019585D01*
X00003772Y00019549D01*
X00003612Y00019507D01*
X00003453Y00019461D01*
X00003296Y00019409D01*
X00003141Y00019351D01*
X00002988Y00019289D01*
X00002837Y00019221D01*
X00002688Y00019149D01*
X00002542Y00019071D01*
X00002398Y00018989D01*
X00002258Y00018902D01*
X00002120Y00018810D01*
X00001986Y00018713D01*
X00001855Y00018613D01*
X00001727Y00018507D01*
X00001603Y00018398D01*
X00001483Y00018284D01*
X00001366Y00018167D01*
X00001254Y00018045D01*
X00001145Y00017920D01*
X00001041Y00017791D01*
X00000942Y00017659D01*
X00000847Y00017524D01*
X00000756Y00017385D01*
X00000670Y00017244D01*
X00000589Y00017100D01*
X00000513Y00016953D01*
X00000442Y00016803D01*
X00000376Y00016652D01*
X00000315Y00016498D01*
X00000260Y00016342D01*
X00000209Y00016184D01*
X00000164Y00016025D01*
X00000124Y00015865D01*
X00000090Y00015703D01*
X00000061Y00015540D01*
X00000038Y00015376D01*
X00000020Y00015211D01*
X00000008Y00015046D01*
X00000001Y00014881D01*
X00000000Y00014716D01*
X00000004Y00014550D01*
X00000014Y00014385D01*
X00000030Y00014220D01*
X00000051Y00014056D01*
X00000077Y00013893D01*
X00000109Y00013731D01*
X00000147Y00013569D01*
X00000189Y00013410D01*
X00000238Y00013251D01*
X00000291Y00013095D01*
X00000350Y00012940D01*
X00000414Y00012787D01*
X00000483Y00012637D01*
X00000557Y00012489D01*
X00000635Y00012344D01*
X00000719Y00012201D01*
X00000808Y00012061D01*
X00000901Y00011924D01*
X00000999Y00011791D01*
X00001101Y00011661D01*
X00001207Y00011534D01*
X00001318Y00011411D01*
X00001433Y00011292D01*
X00001551Y00011176D01*
X00001674Y00011065D01*
X00001727Y00011020D01*
M02*