G04 #@! TF.GenerationSoftware,KiCad,Pcbnew,5.0.2-bee76a0~70~ubuntu18.04.1*
G04 #@! TF.CreationDate,2019-07-08T07:54:46+02:00*
G04 #@! TF.ProjectId,lower_Sensor,6c6f7765-725f-4536-956e-736f722e6b69,rev?*
G04 #@! TF.SameCoordinates,Original*
G04 #@! TF.FileFunction,Copper,L2,Bot*
G04 #@! TF.FilePolarity,Positive*
%FSLAX46Y46*%
G04 Gerber Fmt 4.6, Leading zero omitted, Abs format (unit mm)*
G04 Created by KiCad (PCBNEW 5.0.2-bee76a0~70~ubuntu18.04.1) date Mo 08 Jul 2019 07:54:46 CEST*
%MOMM*%
%LPD*%
G01*
G04 APERTURE LIST*
G04 #@! TA.AperFunction,ComponentPad*
%ADD10C,1.300000*%
G04 #@! TD*
G04 #@! TA.AperFunction,ViaPad*
%ADD11C,0.450000*%
G04 #@! TD*
G04 #@! TA.AperFunction,Conductor*
%ADD12C,0.130000*%
G04 #@! TD*
G04 APERTURE END LIST*
D10*
G04 #@! TO.P,J3,1*
G04 #@! TO.N,N/C*
X139662320Y-57437620D03*
G04 #@! TD*
G04 #@! TO.P,J10,1*
G04 #@! TO.N,N/C*
X134335940Y-52225540D03*
G04 #@! TD*
G04 #@! TO.P,J14,1*
G04 #@! TO.N,N/C*
X119111180Y-57930380D03*
G04 #@! TD*
G04 #@! TO.P,J7,1*
G04 #@! TO.N,N/C*
X136878480Y-53868920D03*
G04 #@! TD*
G04 #@! TO.P,J16,1*
G04 #@! TO.N,N/C*
X137127400Y-70919940D03*
G04 #@! TD*
G04 #@! TO.P,J9,1*
G04 #@! TO.N,N/C*
X135671980Y-52979920D03*
G04 #@! TD*
G04 #@! TO.P,J13,1*
G04 #@! TO.N,N/C*
X118427920Y-60005560D03*
G04 #@! TD*
G04 #@! TO.P,J2,1*
G04 #@! TO.N,N/C*
X140231280Y-58814300D03*
G04 #@! TD*
G04 #@! TO.P,J15,1*
G04 #@! TO.N,N/C*
X124363900Y-72659840D03*
G04 #@! TD*
G04 #@! TO.P,J8,1*
G04 #@! TO.N,N/C*
X139578500Y-67803360D03*
G04 #@! TD*
G04 #@! TO.P,J5,1*
G04 #@! TO.N,N/C*
X137960520Y-54920480D03*
G04 #@! TD*
G04 #@! TO.P,J4,1*
G04 #@! TO.N,N/C*
X138900320Y-56106660D03*
G04 #@! TD*
G04 #@! TO.P,J6,1*
G04 #@! TO.N,GNDD*
X138488840Y-69484840D03*
G04 #@! TD*
G04 #@! TO.P,J1,1*
G04 #@! TO.N,N/C*
X140635140Y-60269720D03*
G04 #@! TD*
G04 #@! TO.P,J14,1*
G04 #@! TO.N,O2_ELEC1*
X99611180Y-75430380D03*
G04 #@! TD*
G04 #@! TO.P,J16,1*
G04 #@! TO.N,GNDD*
X117627400Y-88419940D03*
G04 #@! TD*
G04 #@! TO.P,J15,1*
G04 #@! TO.N,N/C*
X104863900Y-90159840D03*
G04 #@! TD*
G04 #@! TO.P,J13,1*
G04 #@! TO.N,ELEC1*
X98927920Y-77505560D03*
G04 #@! TD*
G04 #@! TO.P,J2,1*
G04 #@! TO.N,ISFET1_D3*
X120731280Y-76314300D03*
G04 #@! TD*
G04 #@! TO.P,J1,1*
G04 #@! TO.N,ISFET1_D2*
X121135140Y-77769720D03*
G04 #@! TD*
G04 #@! TO.P,J10,1*
G04 #@! TO.N,REFFET1_D2*
X114835940Y-69725540D03*
G04 #@! TD*
G04 #@! TO.P,J9,1*
G04 #@! TO.N,REFFET1_D3*
X116171980Y-70479920D03*
G04 #@! TD*
G04 #@! TO.P,J8,1*
G04 #@! TO.N,N/C*
X120078500Y-85303360D03*
G04 #@! TD*
G04 #@! TO.P,J7,1*
G04 #@! TO.N,REFFET1_D4*
X117378480Y-71368920D03*
G04 #@! TD*
G04 #@! TO.P,J5,1*
G04 #@! TO.N,N/C*
X118460520Y-72420480D03*
G04 #@! TD*
G04 #@! TO.P,J4,1*
G04 #@! TO.N,N/C*
X119400320Y-73606660D03*
G04 #@! TD*
G04 #@! TO.P,J3,1*
G04 #@! TO.N,ISFET1_D4*
X120162320Y-74937620D03*
G04 #@! TD*
G04 #@! TO.P,J6,1*
G04 #@! TO.N,GNDD*
X118988840Y-86984840D03*
G04 #@! TD*
D11*
G04 #@! TO.N,*
X115650000Y-85990000D03*
X114448408Y-75400635D03*
X116083482Y-75460889D03*
X116130192Y-77782223D03*
X116109996Y-74820000D03*
X135630192Y-60282223D03*
X135609996Y-57320000D03*
X133948408Y-57900635D03*
X135150000Y-68490000D03*
X135583482Y-57960889D03*
X135583482Y-58541746D03*
X133963439Y-58480452D03*
X135580043Y-59124375D03*
X133960000Y-59120000D03*
X133960000Y-59700000D03*
X135580044Y-59704393D03*
G04 #@! TO.N,ISFET1_D4*
X114463439Y-75980452D03*
X116083482Y-76041746D03*
G04 #@! TO.N,ISFET1_D3*
X116080043Y-76624375D03*
X114460000Y-76620000D03*
G04 #@! TO.N,ISFET1_D2*
X116080044Y-77204393D03*
X114460000Y-77200000D03*
G04 #@! TD*
D12*
G04 #@! TO.N,*
X119204237Y-83595763D02*
X119550000Y-82531613D01*
X114677858Y-88100000D02*
X114854425Y-88007885D01*
X114854425Y-88007885D02*
X115722978Y-87402021D01*
X114675000Y-88100000D02*
X114677858Y-88100000D01*
X117504743Y-85600937D02*
X118159361Y-84595267D01*
X115722978Y-87402021D02*
X117394124Y-85730876D01*
X118159361Y-84595267D02*
X118175000Y-84562794D01*
X117394124Y-85730876D02*
X117504743Y-85600937D01*
X113790542Y-88562912D02*
X114671880Y-88103119D01*
X102151822Y-85108601D02*
X102869522Y-86070252D01*
X100808303Y-78209923D02*
X100654857Y-79400015D01*
X107916233Y-89129599D02*
X109100808Y-89321111D01*
X101562980Y-84063052D02*
X102151822Y-85108601D01*
X101112676Y-77049210D02*
X100808303Y-78209923D01*
X101112675Y-82950788D02*
X101562980Y-84063052D01*
X101562981Y-75936946D02*
X101112676Y-77049210D01*
X100808302Y-81790076D02*
X101112675Y-82950788D01*
X102151822Y-74891399D02*
X101562981Y-75936946D01*
X100654857Y-80599984D02*
X100808302Y-81790076D01*
X110300146Y-70640428D02*
X109100810Y-70678887D01*
X110300146Y-89359571D02*
X111494545Y-89244351D01*
X102869523Y-73929746D02*
X102151822Y-74891399D01*
X104642480Y-72319593D02*
X103718790Y-73056210D01*
X105668614Y-71697543D02*
X104642480Y-72319593D01*
X106765871Y-71211821D02*
X105668614Y-71697543D01*
X107916233Y-70870399D02*
X106765871Y-71211821D01*
X109100810Y-70678887D02*
X107916233Y-70870399D01*
X119364384Y-80000000D02*
X119287503Y-78802516D01*
X119287502Y-81197484D02*
X119364384Y-80000000D01*
X113790543Y-71437088D02*
X112664419Y-71022665D01*
X103614367Y-73160633D02*
X102869523Y-73929746D01*
X119058121Y-82375313D02*
X119287502Y-81197484D01*
X119058122Y-77624687D02*
X118680005Y-76485858D01*
X103718790Y-73056210D02*
X103614367Y-73160633D01*
X118680003Y-83514143D02*
X119058121Y-82375313D01*
X118680005Y-76485858D02*
X118159364Y-75404736D01*
X119287503Y-78802516D02*
X119058122Y-77624687D01*
X118159364Y-75404736D02*
X117504744Y-74399064D01*
X111494546Y-70755649D02*
X110300146Y-70640428D01*
X117504744Y-74399064D02*
X116726901Y-73485365D01*
X116726901Y-73485365D02*
X115838593Y-72678626D01*
X100654857Y-79400015D02*
X100654857Y-80599984D01*
X102869522Y-86070252D02*
X103704317Y-86932247D01*
X109100808Y-89321111D02*
X110300146Y-89359571D01*
X112664419Y-71022665D02*
X111494546Y-70755649D01*
X115838593Y-72678626D02*
X114854424Y-71992113D01*
X118558451Y-83766549D02*
X118680003Y-83514143D01*
X114854424Y-71992113D02*
X113790543Y-71437088D01*
X103704317Y-86932247D02*
X104642479Y-87680405D01*
X104642479Y-87680405D02*
X105668614Y-88302455D01*
X105668614Y-88302455D02*
X106765870Y-88788177D01*
X106765870Y-88788177D02*
X107916233Y-89129599D01*
X111494545Y-89244351D02*
X112664418Y-88977335D01*
X112664418Y-88977335D02*
X113790542Y-88562912D01*
X119063502Y-85086498D02*
X119275000Y-84075000D01*
X119063502Y-85088503D02*
X119063502Y-85086498D01*
X117688968Y-87009416D02*
X118492062Y-86011408D01*
X116769314Y-87901173D02*
X117688968Y-87009416D01*
X115747042Y-88673157D02*
X116769314Y-87901173D01*
X113457954Y-89812987D02*
X114637643Y-89313669D01*
X112225835Y-90163554D02*
X113457954Y-89812987D01*
X110959998Y-90360046D02*
X112225835Y-90163554D01*
X109679596Y-90399495D02*
X110959998Y-90360046D01*
X108404061Y-90281299D02*
X109679596Y-90399495D01*
X114637643Y-89313669D02*
X115747042Y-88673157D01*
X107152698Y-90007248D02*
X108404061Y-90281299D01*
X105944508Y-89581500D02*
X107152698Y-90007248D01*
X102757122Y-87469464D02*
X103729928Y-88302912D01*
X101894113Y-86522787D02*
X102757122Y-87469464D01*
X119166429Y-75077728D02*
X118492063Y-73988592D01*
X113457959Y-70187014D02*
X112225837Y-69836446D01*
X119701842Y-76241488D02*
X119166429Y-75077728D01*
X117688972Y-72990586D02*
X116769315Y-72098827D01*
X118492063Y-73988592D02*
X117688972Y-72990586D01*
X118492062Y-86011408D02*
X119063502Y-85088503D01*
X120090187Y-77462227D02*
X119701842Y-76241488D01*
X120090186Y-85059814D02*
X120090186Y-82537773D01*
X120325569Y-81278579D02*
X120404430Y-80000000D01*
X120090186Y-82537773D02*
X120325569Y-81278579D01*
X119975000Y-85175000D02*
X120090186Y-85059814D01*
X104797789Y-89010502D02*
X105944508Y-89581500D01*
X99772722Y-81911799D02*
X100085179Y-83154125D01*
X120404430Y-80000000D02*
X120325570Y-78721421D01*
X114637648Y-70686333D02*
X113457959Y-70187014D01*
X116769315Y-72098827D02*
X115747043Y-71326843D01*
X115747043Y-71326843D02*
X114637648Y-70686333D01*
X120325570Y-78721421D02*
X120090187Y-77462227D01*
X100085180Y-76845874D02*
X99772723Y-78088199D01*
X109679596Y-69600504D02*
X108404070Y-69718697D01*
X108404070Y-69718697D02*
X107152699Y-69992750D01*
X107152699Y-69992750D02*
X105944509Y-70418498D01*
X112225837Y-69836446D02*
X110960000Y-69639954D01*
X105944509Y-70418498D02*
X104797790Y-70989496D01*
X104797790Y-70989496D02*
X103729929Y-71697086D01*
X103729929Y-71697086D02*
X102757125Y-72530533D01*
X99615304Y-80640510D02*
X99635082Y-80800240D01*
X110960000Y-69639954D02*
X109679596Y-69600504D01*
X102757125Y-72530533D02*
X101894114Y-73477211D01*
X100547933Y-75651368D02*
X100085180Y-76845874D01*
X101153973Y-74522776D02*
X100547933Y-75651368D01*
X99772723Y-78088199D02*
X99615304Y-79359488D01*
X99615304Y-79359488D02*
X99615304Y-80640510D01*
X103729928Y-88302912D02*
X104797789Y-89010502D01*
X101894114Y-73477211D02*
X101153973Y-74522776D01*
X99635082Y-80800240D02*
X99772722Y-81911799D01*
X100547931Y-84348629D02*
X101153972Y-85477223D01*
X100085179Y-83154125D02*
X100547931Y-84348629D01*
X101153972Y-85477223D02*
X101894113Y-86522787D01*
X119044720Y-84005420D02*
X119199660Y-83601560D01*
X118859300Y-84896960D02*
X118912640Y-84632800D01*
X118750000Y-85101871D02*
X118859300Y-84896960D01*
X118279851Y-85861187D02*
X118750000Y-85101871D01*
X117496826Y-86834255D02*
X118279851Y-85861187D01*
X116600154Y-87703727D02*
X117496826Y-86834255D01*
X115603427Y-88456420D02*
X116600154Y-87703727D01*
X118912640Y-84632800D02*
X119044720Y-84005420D01*
X114521755Y-89080924D02*
X115603427Y-88456420D01*
X113371542Y-89567767D02*
X114521755Y-89080924D01*
X112170214Y-89909573D02*
X113371542Y-89567767D01*
X110936008Y-90101155D02*
X112170214Y-89909573D01*
X109687603Y-90139618D02*
X110936008Y-90101155D01*
X108443943Y-90024376D02*
X109687603Y-90139618D01*
X107223843Y-89757172D02*
X108443943Y-90024376D01*
X106045858Y-89342067D02*
X107223843Y-89757172D01*
X104927789Y-88785336D02*
X106045858Y-89342067D01*
X120067541Y-78753372D02*
X119838040Y-77525644D01*
X115603429Y-71543580D02*
X114521756Y-70919076D01*
X116600155Y-72296272D02*
X115603429Y-71543580D01*
X119838039Y-82474356D02*
X120067540Y-81246628D01*
X117496827Y-73165745D02*
X116600155Y-72296272D01*
X119459399Y-83664589D02*
X119838039Y-82474356D01*
X114521756Y-70919076D02*
X113371547Y-70432234D01*
X119459400Y-76335412D02*
X119459125Y-76334813D01*
X119273320Y-84084160D02*
X119459399Y-83664589D01*
X118279851Y-74138812D02*
X117496827Y-73165745D01*
X118937366Y-75200734D02*
X118279851Y-74138812D01*
X120067540Y-81246628D02*
X120144430Y-80000000D01*
X119459125Y-76334813D02*
X118937366Y-75200734D01*
X102938119Y-87282808D02*
X103886613Y-88095427D01*
X119838040Y-77525644D02*
X119459400Y-76335412D01*
X120144430Y-80000000D02*
X120067541Y-78753372D01*
X112170215Y-70090427D02*
X110936010Y-69898845D01*
X110936010Y-69898845D02*
X109687607Y-69860381D01*
X107223844Y-70242826D02*
X106045860Y-70657931D01*
X108443944Y-69975622D02*
X107223844Y-70242826D01*
X109687607Y-69860381D02*
X108443944Y-69975622D01*
X102096671Y-86359784D02*
X102938119Y-87282808D01*
X101375031Y-85340354D02*
X102096671Y-86359784D01*
X100784132Y-84239960D02*
X101375031Y-85340354D01*
X100332944Y-83075305D02*
X100784132Y-84239960D01*
X113371547Y-70432234D02*
X112170215Y-70090427D01*
X106045860Y-70657931D02*
X104927790Y-71214662D01*
X104927790Y-71214662D02*
X103886614Y-71904571D01*
X102938119Y-72717190D02*
X102096674Y-73640211D01*
X102096674Y-73640211D02*
X101375032Y-74659644D01*
X101375032Y-74659644D02*
X100784133Y-75760038D01*
X100784133Y-75760038D02*
X100332945Y-76924693D01*
X100332945Y-76924693D02*
X100028296Y-78135973D01*
X100028296Y-78135973D02*
X99874811Y-79375494D01*
X103886614Y-71904571D02*
X102938119Y-72717190D01*
X99874811Y-79375494D02*
X99874811Y-80624504D01*
X99874811Y-80624504D02*
X99887570Y-80727549D01*
X103886613Y-88095427D02*
X104927789Y-88785336D01*
X99887570Y-80727549D02*
X100028295Y-81864025D01*
X100028295Y-81864025D02*
X100332944Y-83075305D01*
X118450000Y-85095548D02*
X118618000Y-84808060D01*
X117996653Y-85809908D02*
X118450000Y-85095548D01*
X117205423Y-86766340D02*
X117996653Y-85809908D01*
X116300555Y-87616068D02*
X117205423Y-86766340D01*
X114208567Y-88943683D02*
X115296326Y-88345683D01*
X113054444Y-89400632D02*
X114208567Y-88943683D01*
X111852152Y-89709328D02*
X113054444Y-89400632D01*
X110620651Y-89864902D02*
X111852152Y-89709328D01*
X109379348Y-89864902D02*
X110620651Y-89864902D01*
X108147849Y-89709327D02*
X109379348Y-89864902D01*
X106945554Y-89400631D02*
X108147849Y-89709327D01*
X105791431Y-88943682D02*
X106945554Y-89400631D01*
X104703674Y-88345683D02*
X105791431Y-88943682D01*
X103699443Y-87616067D02*
X104703674Y-88345683D01*
X111852153Y-70290672D02*
X110738621Y-70150000D01*
X100193532Y-81238835D02*
X100426126Y-82458141D01*
X110738621Y-70150000D02*
X109261379Y-70150000D01*
X117205426Y-73233662D02*
X116300556Y-72383932D01*
X117996654Y-74190092D02*
X117205426Y-73233662D01*
X115296326Y-88345683D02*
X116300555Y-87616068D01*
X118661776Y-75238157D02*
X117996654Y-74190092D01*
X119190291Y-76361311D02*
X118661776Y-75238157D01*
X118808500Y-83906360D02*
X118874540Y-83705700D01*
X118618000Y-84808060D02*
X118808500Y-83906360D01*
X119529117Y-82595883D02*
X119573871Y-82458146D01*
X119884407Y-80000000D02*
X119806467Y-78761164D01*
X100426126Y-82458141D02*
X100809707Y-83638684D01*
X113054445Y-70599368D02*
X111852153Y-70290672D01*
X115296325Y-71654316D02*
X114208568Y-71056317D01*
X116300556Y-72383932D02*
X115296325Y-71654316D01*
X114208568Y-71056317D02*
X113054445Y-70599368D01*
X100809707Y-83638684D02*
X101338223Y-84761842D01*
X119806466Y-81238835D02*
X119884407Y-80000000D01*
X119573871Y-82458146D02*
X119806466Y-81238835D01*
X119806467Y-78761164D02*
X119573873Y-77541858D01*
X119573873Y-77541858D02*
X119190291Y-76361311D01*
X106945555Y-70599367D02*
X105791432Y-71056316D01*
X108147847Y-70290671D02*
X106945555Y-70599367D01*
X105791432Y-71056316D02*
X104703675Y-71654315D01*
X104703675Y-71654315D02*
X103699441Y-72383933D01*
X103699441Y-72383933D02*
X102794576Y-73233658D01*
X102794576Y-73233658D02*
X102003346Y-74190091D01*
X109261379Y-70150000D02*
X108147847Y-70290671D01*
X102003346Y-74190091D02*
X101338224Y-75238156D01*
X100193533Y-78761163D02*
X100150000Y-79453104D01*
X100150000Y-79453104D02*
X100150000Y-80546894D01*
X100150000Y-80546894D02*
X100193532Y-81238835D01*
X101338224Y-75238156D02*
X100809708Y-76361314D01*
X102794576Y-86766340D02*
X103699443Y-87616067D01*
X100809708Y-76361314D02*
X100426127Y-77541858D01*
X100426127Y-77541858D02*
X100193533Y-78761163D01*
X101338223Y-84761842D02*
X102003345Y-85809907D01*
X102003345Y-85809907D02*
X102794576Y-86766340D01*
X118402100Y-84653120D02*
X118562120Y-83764120D01*
X118300000Y-84854826D02*
X118402100Y-84653120D01*
X117713113Y-85756442D02*
X118300000Y-84854826D01*
X117393661Y-86131689D02*
X117713113Y-85756442D01*
X116000702Y-87524648D02*
X117393661Y-86131689D01*
X110308479Y-89619438D02*
X111536035Y-89501019D01*
X109075843Y-89579909D02*
X110308479Y-89619438D01*
X107858377Y-89383080D02*
X109075843Y-89579909D01*
X114989204Y-88230224D02*
X116000702Y-87524648D01*
X106676074Y-89032179D02*
X107858377Y-89383080D01*
X112738397Y-70773411D02*
X111536042Y-70498982D01*
X118921003Y-76388288D02*
X118385907Y-75277149D01*
X104493729Y-72106348D02*
X103529521Y-72875278D01*
X113895786Y-71199340D02*
X112738397Y-70773411D01*
X114989205Y-71769776D02*
X113895786Y-71199340D01*
X116000702Y-72475352D02*
X114989205Y-71769776D01*
X118385907Y-75277149D02*
X117713113Y-74243556D01*
X112738395Y-89226589D02*
X113895781Y-88800662D01*
X111536035Y-89501019D02*
X112738395Y-89226589D01*
X117713113Y-74243556D02*
X116913675Y-73304491D01*
X119309619Y-77558736D02*
X118921003Y-76388288D01*
X119545369Y-78769274D02*
X119309619Y-77558736D01*
X119624384Y-80000000D02*
X119545369Y-78769274D01*
X118875000Y-83700000D02*
X118881722Y-83693278D01*
X118921003Y-83611711D02*
X119309618Y-82441264D01*
X119309618Y-82441264D02*
X119545367Y-81230732D01*
X116913675Y-73304491D02*
X116000702Y-72475352D01*
X102671546Y-86238791D02*
X103529519Y-87124719D01*
X118881722Y-83693278D02*
X118921003Y-83611711D01*
X119545367Y-81230732D02*
X119624384Y-80000000D01*
X107858385Y-70616916D02*
X106676075Y-70967819D01*
X110308479Y-70380561D02*
X109075844Y-70420089D01*
X111536042Y-70498982D02*
X110308479Y-70380561D01*
X109075844Y-70420089D02*
X107858385Y-70616916D01*
X106676075Y-70967819D02*
X105548354Y-71467027D01*
X101933918Y-85250438D02*
X102671546Y-86238791D01*
X105548354Y-71467027D02*
X104493729Y-72106348D01*
X104493728Y-87893650D02*
X105548353Y-88532971D01*
X103529519Y-87124719D02*
X104493728Y-87893650D01*
X100553097Y-81839777D02*
X100563421Y-81879150D01*
X100865921Y-76967282D02*
X100553098Y-78160221D01*
X101328729Y-75824136D02*
X100865921Y-76967282D01*
X102671547Y-73761207D02*
X101933919Y-74749560D01*
X101933919Y-74749560D02*
X101328729Y-75824136D01*
X100553098Y-78160221D02*
X100395391Y-79383357D01*
X100395391Y-80616642D02*
X100553097Y-81839777D01*
X103529521Y-72875278D02*
X102671547Y-73761207D01*
X100395391Y-79383357D02*
X100395391Y-80616642D01*
X113895781Y-88800662D02*
X114989204Y-88230224D01*
X105548353Y-88532971D02*
X106676074Y-89032179D01*
X100563421Y-81879150D02*
X100865920Y-83032716D01*
X100865920Y-83032716D02*
X101328728Y-84175861D01*
X101328728Y-84175861D02*
X101933918Y-85250438D01*
X118303040Y-83784440D02*
X118346220Y-83588860D01*
X118181120Y-84561680D02*
X118303040Y-83784440D01*
X117975380Y-84368105D02*
X118082060Y-83601560D01*
X117884603Y-84552182D02*
X117975380Y-84368105D01*
X115512682Y-87242817D02*
X117242815Y-85512685D01*
X114552180Y-87884604D02*
X115512682Y-87242817D01*
X113484077Y-88411334D02*
X114552180Y-87884604D01*
X112356376Y-88794135D02*
X113484077Y-88411334D01*
X111188354Y-89026469D02*
X112356376Y-88794135D01*
X117242815Y-85512685D02*
X117884603Y-84552182D01*
X108811646Y-89026468D02*
X109999999Y-89104358D01*
X112356377Y-71205865D02*
X111188356Y-70973532D01*
X113484077Y-71588666D02*
X112356377Y-71205865D01*
X116437756Y-73562250D02*
X115542380Y-72777026D01*
X115542380Y-72777026D02*
X114552181Y-72115396D01*
X119104358Y-80000000D02*
X119026469Y-78811645D01*
X118794135Y-77643623D02*
X118411337Y-76515928D01*
X118525393Y-83148067D02*
X118794134Y-82356377D01*
X111188356Y-70973532D02*
X110000005Y-70895642D01*
X117222977Y-74457623D02*
X116437756Y-73562250D01*
X117884606Y-75447824D02*
X117222977Y-74457623D01*
X118338600Y-83596480D02*
X118525393Y-83148067D01*
X107643623Y-71205864D02*
X106515923Y-71588665D01*
X118794134Y-82356377D02*
X119026467Y-81188355D01*
X110000005Y-70895642D02*
X108811644Y-70973531D01*
X108811644Y-70973531D02*
X107643623Y-71205864D01*
X114552181Y-72115396D02*
X113484077Y-71588666D01*
X119026467Y-81188355D02*
X119104358Y-80000000D01*
X109999999Y-89104358D02*
X111188354Y-89026469D01*
X118411337Y-76515928D02*
X117884606Y-75447824D01*
X119026469Y-78811645D02*
X118794135Y-77643623D01*
X105447824Y-72115393D02*
X104457623Y-72777022D01*
X104457623Y-72777022D02*
X103562250Y-73562243D01*
X103562250Y-73562243D02*
X102777023Y-74457622D01*
X106515923Y-71588665D02*
X105447824Y-72115393D01*
X107643622Y-88794134D02*
X108811646Y-89026468D01*
X106515922Y-88411333D02*
X107643622Y-88794134D01*
X105447823Y-87884605D02*
X106515922Y-88411333D01*
X101588665Y-83484076D02*
X102115395Y-84552181D01*
X102115394Y-75447823D02*
X101588666Y-76515922D01*
X101588666Y-76515922D02*
X101205865Y-77643622D01*
X101205865Y-77643622D02*
X100973532Y-78811643D01*
X102777023Y-74457622D02*
X102115394Y-75447823D01*
X101205864Y-82356377D02*
X101588665Y-83484076D01*
X100973531Y-81188354D02*
X101205864Y-82356377D01*
X100895642Y-80000000D02*
X100973531Y-81188354D01*
X100973532Y-78811643D02*
X100895642Y-80000000D01*
X102115395Y-84552181D02*
X102777026Y-85542380D01*
X104457622Y-87222976D02*
X105447823Y-87884605D01*
X102777026Y-85542380D02*
X103562247Y-86437752D01*
X103562247Y-86437752D02*
X104457622Y-87222976D01*
X115480647Y-86909093D02*
X115650000Y-85990000D01*
X115240349Y-87112252D02*
X115480647Y-86909093D01*
X114245615Y-87747267D02*
X115240349Y-87112252D01*
X113175126Y-88244025D02*
X114245615Y-87747267D01*
X112047971Y-88593673D02*
X113175126Y-88244025D01*
X110884274Y-88789963D02*
X112047971Y-88593673D01*
X109522932Y-88811100D02*
X110252037Y-88811100D01*
X108530595Y-88711270D02*
X109522932Y-88811100D01*
X107382605Y-88437691D02*
X108530595Y-88711270D01*
X106281323Y-88013541D02*
X107382605Y-88437691D01*
X110884275Y-71210037D02*
X109862637Y-71175880D01*
X112047972Y-71406327D02*
X110884275Y-71210037D01*
X113175127Y-71755975D02*
X112047972Y-71406327D01*
X114245617Y-72252733D02*
X113175127Y-71755975D01*
X118737380Y-81266672D02*
X118737380Y-78733328D01*
X115240351Y-72887748D02*
X114245617Y-72252733D01*
X118133326Y-76551173D02*
X117601073Y-75497879D01*
X109862637Y-71175880D02*
X109652346Y-71175880D01*
X118084600Y-83606640D02*
X118536720Y-82283300D01*
X107382606Y-71562307D02*
X106281324Y-71986457D01*
X116933179Y-74524927D02*
X116141558Y-73649672D01*
X116141558Y-73649672D02*
X115240351Y-72887748D01*
X110252037Y-88811100D02*
X110884274Y-88789963D01*
X117601073Y-75497879D02*
X116933179Y-74524927D01*
X118520441Y-77666014D02*
X118133326Y-76551173D01*
X118536720Y-82283300D02*
X118608271Y-81901869D01*
X118608271Y-81901869D02*
X118737380Y-81266672D01*
X101654482Y-77102118D02*
X101342692Y-78240336D01*
X118737380Y-78733328D02*
X118520441Y-77666014D01*
X109652346Y-71175880D02*
X108530594Y-71288728D01*
X108530594Y-71288728D02*
X107382606Y-71562307D01*
X105246407Y-72553607D02*
X104296319Y-73253635D01*
X104296319Y-73253635D02*
X103447998Y-74074067D01*
X106281324Y-71986457D02*
X105246407Y-72553607D01*
X103447998Y-74074067D02*
X102716610Y-75000238D01*
X102716610Y-75000238D02*
X102115191Y-76015633D01*
X102115191Y-76015633D02*
X101654482Y-77102118D01*
X102115190Y-83984365D02*
X102716609Y-84999760D01*
X101342692Y-78240336D02*
X101185398Y-79409925D01*
X101185398Y-79409925D02*
X101185398Y-80590073D01*
X101185398Y-80590073D02*
X101342691Y-81759663D01*
X101342691Y-81759663D02*
X101654480Y-82897880D01*
X101654480Y-82897880D02*
X102115190Y-83984365D01*
X102716609Y-84999760D02*
X103447998Y-85925932D01*
X103447998Y-85925932D02*
X104296315Y-86746360D01*
X104296315Y-86746360D02*
X105246406Y-87446391D01*
X105246406Y-87446391D02*
X106281323Y-88013541D01*
X115650000Y-85990000D02*
X115650000Y-85990000D01*
X115650000Y-85990000D02*
X115650000Y-85990000D01*
X119400320Y-73606660D02*
X119400320Y-73621900D01*
X114448408Y-75400635D02*
X116023228Y-75400635D01*
X116023228Y-75400635D02*
X116083482Y-75460889D01*
X116503483Y-77408932D02*
X116503483Y-75213487D01*
X116334995Y-75044999D02*
X116109996Y-74820000D01*
X116130192Y-77782223D02*
X116503483Y-77408932D01*
X116503483Y-75213487D02*
X116334995Y-75044999D01*
X138180005Y-58985858D02*
X137659364Y-57904736D01*
X119374811Y-61875494D02*
X119374811Y-63124504D01*
X119374811Y-63124504D02*
X119387570Y-63227549D01*
X120308303Y-60709923D02*
X120154857Y-61900015D01*
X123957622Y-69722976D02*
X124947823Y-70384605D01*
X132675126Y-70744025D02*
X133745615Y-70247267D01*
X120875032Y-57159644D02*
X120284133Y-58260038D01*
X120284133Y-58260038D02*
X119832945Y-59424693D01*
X119832945Y-59424693D02*
X119528296Y-60635973D01*
X139201842Y-58741488D02*
X138666429Y-57577728D01*
X137188972Y-55490586D02*
X136269315Y-54598827D01*
X137681120Y-67061680D02*
X137803040Y-66284440D01*
X137475380Y-66868105D02*
X137582060Y-66101560D01*
X132957954Y-72312987D02*
X134137643Y-71813669D01*
X123386613Y-70595427D02*
X124427789Y-71285336D01*
X119387570Y-63227549D02*
X119528295Y-64364025D01*
X128575843Y-72079909D02*
X129808479Y-72119438D01*
X127358377Y-71883080D02*
X128575843Y-72079909D01*
X132238397Y-53273411D02*
X131036042Y-52998982D01*
X129187603Y-72639618D02*
X130436008Y-72601155D01*
X138900320Y-56106660D02*
X138900320Y-56121900D01*
X138558122Y-60124687D02*
X138180005Y-58985858D01*
X139904430Y-62500000D02*
X139825570Y-61221421D01*
X129022932Y-71311100D02*
X129752037Y-71311100D01*
X139029117Y-65095883D02*
X139073871Y-64958146D01*
X139384407Y-62500000D02*
X139306467Y-61261164D01*
X134354425Y-70507885D02*
X135222978Y-69902021D01*
X127143622Y-71294134D02*
X128311646Y-71526468D01*
X137004744Y-56899064D02*
X136226901Y-55985365D01*
X119832944Y-65575305D02*
X120284132Y-66739960D01*
X132871547Y-52932234D02*
X131670215Y-52590427D01*
X120685398Y-63090073D02*
X120842691Y-64259663D01*
X125048354Y-53967027D02*
X123993729Y-54606348D01*
X123993728Y-70393650D02*
X125048353Y-71032971D01*
X128030595Y-71211270D02*
X129022932Y-71311100D01*
X126882605Y-70937691D02*
X128030595Y-71211270D01*
X129179596Y-72899495D02*
X130459998Y-72860046D01*
X120473531Y-63688354D02*
X120705864Y-64856377D01*
X120395642Y-62500000D02*
X120473531Y-63688354D01*
X139306467Y-61261164D02*
X139073873Y-60041858D01*
X120705864Y-64856377D02*
X121088665Y-65984076D01*
X121433919Y-57249560D02*
X120828729Y-58324136D01*
X120309707Y-66138684D02*
X120838223Y-67261842D01*
X139306466Y-63738835D02*
X139384407Y-62500000D01*
X128030594Y-53788728D02*
X126882606Y-54062307D01*
X124746407Y-55053607D02*
X123796319Y-55753635D01*
X136705426Y-55733662D02*
X135800556Y-54883932D01*
X138237380Y-63766672D02*
X138237380Y-61233328D01*
X134740351Y-55387748D02*
X133745617Y-54752733D01*
X134489204Y-70730224D02*
X135500702Y-70024648D01*
X139567541Y-61253372D02*
X139338040Y-60025644D01*
X135103429Y-54043580D02*
X134021756Y-53419076D01*
X120154857Y-61900015D02*
X120154857Y-63099984D01*
X139045369Y-61269274D02*
X138809619Y-60058736D01*
X134021756Y-53419076D02*
X132871547Y-52932234D01*
X120309708Y-58861314D02*
X119926127Y-60041858D01*
X136269314Y-70401173D02*
X137188968Y-69509416D01*
X139590186Y-65037773D02*
X139825569Y-63778579D01*
X139475000Y-67675000D02*
X139590186Y-67559814D01*
X119926127Y-60041858D02*
X119693533Y-61261163D01*
X120838223Y-67261842D02*
X121503345Y-68309907D01*
X120053097Y-64339777D02*
X120063421Y-64379150D01*
X120365921Y-59467282D02*
X120053098Y-60660221D01*
X129808479Y-72119438D02*
X131036035Y-72001019D01*
X134354424Y-54492113D02*
X133290543Y-53937088D01*
X127904061Y-72781299D02*
X129179596Y-72899495D01*
X126652698Y-72507248D02*
X127904061Y-72781299D01*
X129362637Y-53675880D02*
X129152346Y-53675880D01*
X137584600Y-66106640D02*
X138036720Y-64783300D01*
X139124384Y-62500000D02*
X139045369Y-61269274D01*
X138375000Y-66200000D02*
X138381722Y-66193278D01*
X120875031Y-67840354D02*
X121596671Y-68859784D01*
X120284132Y-66739960D02*
X120875031Y-67840354D01*
X138412640Y-67132800D02*
X138544720Y-66505420D01*
X134021755Y-71580924D02*
X135103427Y-70956420D01*
X134052180Y-70384604D02*
X135012682Y-69742817D01*
X119272723Y-60588199D02*
X119115304Y-61859488D01*
X136226901Y-55985365D02*
X135338593Y-55178626D01*
X129752037Y-71311100D02*
X130384274Y-71289963D01*
X137101073Y-57997879D02*
X136433179Y-57024927D01*
X133290543Y-53937088D02*
X132164419Y-53522665D01*
X134489205Y-54269776D02*
X133395786Y-53699340D01*
X139644430Y-62500000D02*
X139567541Y-61253372D01*
X131670215Y-52590427D02*
X130436010Y-52398845D01*
X127943943Y-72524376D02*
X129187603Y-72639618D01*
X126723843Y-72257172D02*
X127943943Y-72524376D01*
X123062247Y-68937752D02*
X123957622Y-69722976D01*
X120653972Y-67977223D02*
X121394113Y-69022787D01*
X120047933Y-58151368D02*
X119585180Y-59345874D01*
X120653973Y-57022776D02*
X120047933Y-58151368D01*
X124297790Y-53489496D02*
X123229929Y-54197086D01*
X138036720Y-64783300D02*
X138108271Y-64401869D01*
X138108271Y-64401869D02*
X138237380Y-63766672D01*
X122277026Y-68042380D02*
X123062247Y-68937752D01*
X136996827Y-55665745D02*
X136100155Y-54796272D01*
X138959399Y-66164589D02*
X139338039Y-64974356D01*
X136705423Y-69266340D02*
X137496653Y-68309908D01*
X134740349Y-69612252D02*
X134980647Y-69409093D01*
X133745615Y-70247267D02*
X134740349Y-69612252D01*
X137779851Y-56638812D02*
X136996827Y-55665745D01*
X138437366Y-57700734D02*
X137779851Y-56638812D01*
X125545860Y-53157931D02*
X124427790Y-53714662D01*
X124427790Y-53714662D02*
X123386614Y-54404571D01*
X121062980Y-66563052D02*
X121651822Y-67608601D01*
X139567540Y-63746628D02*
X139644430Y-62500000D01*
X138959125Y-58834813D02*
X138437366Y-57700734D01*
X138563502Y-67588503D02*
X138563502Y-67586498D01*
X128575844Y-52920089D02*
X127358385Y-53116916D01*
X126015922Y-70911333D02*
X127143622Y-71294134D01*
X124947823Y-70384605D02*
X126015922Y-70911333D01*
X120612676Y-59549210D02*
X120308303Y-60709923D01*
X138180003Y-66014143D02*
X138558121Y-64875313D01*
X125291431Y-71443682D02*
X126445554Y-71900631D01*
X124203674Y-70845683D02*
X125291431Y-71443682D01*
X130688356Y-53473532D02*
X129500005Y-53395642D01*
X123204317Y-69432247D02*
X124142479Y-70180405D01*
X121503346Y-56690091D02*
X120838224Y-57738156D01*
X119693533Y-61261163D02*
X119650000Y-61953104D01*
X122369522Y-68570252D02*
X123204317Y-69432247D01*
X137496654Y-56690092D02*
X136705426Y-55733662D01*
X137659361Y-67095267D02*
X137675000Y-67062794D01*
X125168614Y-70802455D02*
X126265870Y-71288177D01*
X123796319Y-55753635D02*
X122947998Y-56574067D01*
X125781324Y-54486457D02*
X124746407Y-55053607D01*
X136893661Y-68631689D02*
X137213113Y-68256442D01*
X135500702Y-70024648D02*
X136893661Y-68631689D01*
X137902100Y-67153120D02*
X138062120Y-66264120D01*
X132554444Y-71900632D02*
X133708567Y-71443683D01*
X131352152Y-72209328D02*
X132554444Y-71900632D01*
X137800000Y-67354826D02*
X137902100Y-67153120D01*
X137213113Y-68256442D02*
X137800000Y-67354826D01*
X128600808Y-71821111D02*
X129800146Y-71859571D01*
X138809618Y-64941264D02*
X139045367Y-63730732D01*
X136413675Y-55804491D02*
X135500702Y-54975352D01*
X124746406Y-69946391D02*
X125781323Y-70513541D01*
X135150000Y-68490000D02*
X135150000Y-68490000D01*
X119650000Y-61953104D02*
X119650000Y-63046894D01*
X119650000Y-63046894D02*
X119693532Y-63738835D01*
X134052181Y-54615396D02*
X132984077Y-54088666D01*
X122294576Y-69266340D02*
X123199443Y-70116067D01*
X124142480Y-54819593D02*
X123218790Y-55556210D01*
X127416233Y-71629599D02*
X128600808Y-71821111D01*
X138787503Y-61302516D02*
X138558122Y-60124687D01*
X137659364Y-57904736D02*
X137004744Y-56899064D01*
X123218790Y-55556210D02*
X123114367Y-55660633D01*
X132984077Y-70911334D02*
X134052180Y-70384604D01*
X130688354Y-71526469D02*
X131856376Y-71294135D01*
X126265871Y-53711821D02*
X125168614Y-54197543D01*
X120154857Y-63099984D02*
X120308302Y-64290076D01*
X119926126Y-64958141D02*
X120309707Y-66138684D01*
X132554445Y-53099368D02*
X131352153Y-52790672D01*
X134796325Y-54154316D02*
X133708568Y-53556317D01*
X121154482Y-59602118D02*
X120842692Y-60740336D01*
X123029519Y-69624719D02*
X123993728Y-70393650D01*
X125168614Y-54197543D02*
X124142480Y-54819593D01*
X134796326Y-70845683D02*
X135800555Y-70116068D01*
X138161776Y-57738157D02*
X137496654Y-56690092D01*
X138704237Y-66095763D02*
X139050000Y-65031613D01*
X127143623Y-53705864D02*
X126015923Y-54088665D01*
X138294134Y-64856377D02*
X138526467Y-63688355D01*
X120842692Y-60740336D02*
X120685398Y-61909925D01*
X120685398Y-61909925D02*
X120685398Y-63090073D01*
X131856376Y-71294135D02*
X132984077Y-70911334D01*
X129499999Y-71604358D02*
X130688354Y-71526469D01*
X129187607Y-52360381D02*
X127943944Y-52475622D01*
X121596671Y-68859784D02*
X122438119Y-69782808D01*
X119115304Y-61859488D02*
X119115304Y-63140510D01*
X123229928Y-70802912D02*
X124297789Y-71510502D01*
X122947998Y-68425932D02*
X123796315Y-69246360D01*
X123796315Y-69246360D02*
X124746406Y-69946391D01*
X137950000Y-67595548D02*
X138118000Y-67308060D01*
X137496653Y-68309908D02*
X137950000Y-67595548D01*
X126176074Y-71532179D02*
X127358377Y-71883080D01*
X137004743Y-68100937D02*
X137659361Y-67095267D01*
X120828729Y-58324136D02*
X120365921Y-59467282D01*
X122171547Y-56261207D02*
X121433919Y-57249560D01*
X132164419Y-53522665D02*
X130994546Y-53255649D01*
X134177858Y-70600000D02*
X134354425Y-70507885D01*
X138381722Y-66193278D02*
X138421003Y-66111711D01*
X139045367Y-63730732D02*
X139124384Y-62500000D01*
X119528296Y-60635973D02*
X119374811Y-61875494D01*
X123386614Y-54404571D02*
X122438119Y-55217190D01*
X119528295Y-64364025D02*
X119832944Y-65575305D01*
X122947998Y-56574067D02*
X122216610Y-57500238D01*
X122216610Y-57500238D02*
X121615191Y-58515633D01*
X129179596Y-52100504D02*
X127904070Y-52218697D01*
X136003483Y-59908932D02*
X136003483Y-57713487D01*
X135834995Y-57544999D02*
X135609996Y-57320000D01*
X135630192Y-60282223D02*
X136003483Y-59908932D01*
X136003483Y-57713487D02*
X135834995Y-57544999D01*
X130120651Y-72364902D02*
X131352152Y-72209328D01*
X128879348Y-72364902D02*
X130120651Y-72364902D01*
X139073871Y-64958146D02*
X139306466Y-63738835D01*
X131036042Y-52998982D02*
X129808479Y-52880561D01*
X138526467Y-63688355D02*
X138604358Y-62500000D01*
X136742815Y-68012685D02*
X137384603Y-67052182D01*
X123199441Y-54883933D02*
X122294576Y-55733658D01*
X133290542Y-71062912D02*
X134171880Y-70603119D01*
X120063421Y-64379150D02*
X120365920Y-65532716D01*
X120365920Y-65532716D02*
X120828728Y-66675861D01*
X135641558Y-56149672D02*
X134740351Y-55387748D01*
X137992062Y-68511408D02*
X138563502Y-67588503D01*
X139590187Y-59962227D02*
X139201842Y-58741488D01*
X123229929Y-54197086D02*
X122257125Y-55030533D01*
X119115304Y-63140510D02*
X119135082Y-63300240D01*
X135500702Y-54975352D02*
X134489205Y-54269776D01*
X138544720Y-66505420D02*
X138699660Y-66101560D01*
X138359300Y-67396960D02*
X138412640Y-67132800D01*
X127904070Y-52218697D02*
X126652699Y-52492750D01*
X126652699Y-52492750D02*
X125444509Y-52918498D01*
X131725837Y-52336446D02*
X130460000Y-52139954D01*
X125444509Y-52918498D02*
X124297790Y-53489496D01*
X127647849Y-72209327D02*
X128879348Y-72364902D01*
X126445554Y-71900631D02*
X127647849Y-72209327D01*
X132164418Y-71477335D02*
X133290542Y-71062912D01*
X121394114Y-55977211D02*
X120653973Y-57022776D01*
X119135082Y-63300240D02*
X119272722Y-64411799D01*
X135222978Y-69902021D02*
X136894124Y-68230876D01*
X134137643Y-71813669D02*
X135247042Y-71173157D01*
X135247043Y-53826843D02*
X134137648Y-53186333D01*
X127943944Y-52475622D02*
X126723844Y-52742826D01*
X124297789Y-71510502D02*
X125444508Y-72081500D01*
X121062981Y-58436946D02*
X120612676Y-59549210D01*
X130994545Y-71744351D02*
X132164418Y-71477335D01*
X121615191Y-58515633D02*
X121154482Y-59602118D01*
X121615190Y-66484365D02*
X122216609Y-67499760D01*
X139825570Y-61221421D02*
X139590187Y-59962227D01*
X119585180Y-59345874D02*
X119272723Y-60588199D01*
X138308500Y-66406360D02*
X138374540Y-66205700D01*
X138118000Y-67308060D02*
X138308500Y-66406360D01*
X120053098Y-60660221D02*
X119895391Y-61883357D01*
X138250000Y-67601871D02*
X138359300Y-67396960D01*
X137779851Y-68361187D02*
X138250000Y-67601871D01*
X127358385Y-53116916D02*
X126176075Y-53467819D01*
X129808479Y-52880561D02*
X128575844Y-52920089D01*
X138563502Y-67586498D02*
X138775000Y-66575000D01*
X120308302Y-64290076D02*
X120612675Y-65450788D01*
X135247042Y-71173157D02*
X136269314Y-70401173D01*
X122216609Y-67499760D02*
X122947998Y-68425932D01*
X131725835Y-72663554D02*
X132957954Y-72312987D01*
X136722977Y-56957623D02*
X135937756Y-56062250D01*
X137384606Y-57947824D02*
X136722977Y-56957623D01*
X135338593Y-55178626D02*
X134354424Y-54492113D01*
X129500005Y-53395642D02*
X128311644Y-53473531D01*
X128311644Y-53473531D02*
X127143623Y-53705864D01*
X125048353Y-71032971D02*
X126176074Y-71532179D01*
X139073873Y-60041858D02*
X138690291Y-58861311D01*
X126445555Y-53099367D02*
X125291432Y-53556316D01*
X138864384Y-62500000D02*
X138787503Y-61302516D01*
X122369523Y-56429746D02*
X121651822Y-57391399D01*
X135800555Y-70116068D02*
X136705423Y-69266340D01*
X133708567Y-71443683D02*
X134796326Y-70845683D01*
X131547971Y-71093673D02*
X132675126Y-70744025D01*
X130384274Y-71289963D02*
X131547971Y-71093673D01*
X121088665Y-65984076D02*
X121615395Y-67052181D01*
X127647847Y-52790671D02*
X126445555Y-53099367D01*
X125291432Y-53556316D02*
X124203675Y-54154315D01*
X138809619Y-60058736D02*
X138421003Y-58888288D01*
X132675127Y-54255975D02*
X131547972Y-53906327D01*
X133745617Y-54752733D02*
X132675127Y-54255975D01*
X138058451Y-66266549D02*
X138180003Y-66014143D01*
X125545858Y-71842067D02*
X126723843Y-72257172D01*
X124427789Y-71285336D02*
X125545858Y-71842067D01*
X139825569Y-63778579D02*
X139904430Y-62500000D01*
X130436010Y-52398845D02*
X129187607Y-52360381D01*
X126723844Y-52742826D02*
X125545860Y-53157931D01*
X127416233Y-53370399D02*
X126265871Y-53711821D01*
X121651822Y-67608601D02*
X122369522Y-68570252D01*
X123114367Y-55660633D02*
X122369523Y-56429746D01*
X129800146Y-53140428D02*
X128600810Y-53178887D01*
X121615394Y-57947823D02*
X121088666Y-59015922D01*
X121088666Y-59015922D02*
X120705865Y-60143622D01*
X125444508Y-72081500D02*
X126652698Y-72507248D01*
X131036035Y-72001019D02*
X132238395Y-71726589D01*
X137213113Y-56743556D02*
X136413675Y-55804491D01*
X121651822Y-57391399D02*
X121062981Y-58436946D01*
X128600810Y-53178887D02*
X127416233Y-53370399D01*
X138558121Y-64875313D02*
X138787502Y-63697484D01*
X131856377Y-53705865D02*
X130688356Y-53473532D01*
X137633326Y-59051173D02*
X137101073Y-57997879D01*
X120842691Y-64259663D02*
X121154480Y-65397880D01*
X121154480Y-65397880D02*
X121615190Y-66484365D01*
X137384603Y-67052182D02*
X137475380Y-66868105D01*
X135012682Y-69742817D02*
X136742815Y-68012685D01*
X123993729Y-54606348D02*
X123029521Y-55375278D01*
X133395786Y-53699340D02*
X132238397Y-53273411D01*
X122294576Y-55733658D02*
X121503346Y-56690091D01*
X128761379Y-52650000D02*
X127647847Y-52790671D01*
X136996826Y-69334255D02*
X137779851Y-68361187D01*
X136100154Y-70203727D02*
X136996826Y-69334255D01*
X130994546Y-53255649D02*
X129800146Y-53140428D01*
X120473532Y-61311643D02*
X120395642Y-62500000D01*
X121615395Y-67052181D02*
X122277026Y-68042380D01*
X120838224Y-57738156D02*
X120309708Y-58861314D01*
X119895391Y-61883357D02*
X119895391Y-63116642D01*
X133395781Y-71300662D02*
X134489204Y-70730224D01*
X138421003Y-58888288D02*
X137885907Y-57777149D01*
X138666429Y-57577728D02*
X137992063Y-56488592D01*
X120828728Y-66675861D02*
X121433918Y-67750438D01*
X137803040Y-66284440D02*
X137846220Y-66088860D01*
X119895391Y-63116642D02*
X120053097Y-64339777D01*
X123029521Y-55375278D02*
X122171547Y-56261207D01*
X129800146Y-71859571D02*
X130994545Y-71744351D01*
X126176075Y-53467819D02*
X125048354Y-53967027D01*
X121433918Y-67750438D02*
X122171546Y-68738791D01*
X120705865Y-60143622D02*
X120473532Y-61311643D01*
X122277023Y-56957622D02*
X121615394Y-57947823D01*
X124203675Y-54154315D02*
X123199441Y-54883933D01*
X123062250Y-56062243D02*
X122277023Y-56957622D01*
X126015923Y-54088665D02*
X124947824Y-54615393D01*
X138294135Y-60143623D02*
X137911337Y-59015928D01*
X138025393Y-65648067D02*
X138294134Y-64856377D01*
X135150000Y-68490000D02*
X135150000Y-68490000D01*
X122438119Y-55217190D02*
X121596674Y-56140211D01*
X121596674Y-56140211D02*
X120875032Y-57159644D01*
X124142479Y-70180405D02*
X125168614Y-70802455D01*
X137992063Y-56488592D02*
X137188972Y-55490586D01*
X138421003Y-66111711D02*
X138809618Y-64941264D01*
X138690291Y-58861311D02*
X138161776Y-57738157D01*
X135042380Y-55277026D02*
X134052181Y-54615396D01*
X138604358Y-62500000D02*
X138526469Y-61311645D01*
X130436008Y-72601155D02*
X131670214Y-72409573D01*
X132957959Y-52687014D02*
X131725837Y-52336446D01*
X135103427Y-70956420D02*
X136100154Y-70203727D01*
X119693532Y-63738835D02*
X119926126Y-64958141D01*
X130238621Y-52650000D02*
X128761379Y-52650000D01*
X138237380Y-61233328D02*
X138020441Y-60166014D01*
X129152346Y-53675880D02*
X128030594Y-53788728D01*
X139590186Y-67559814D02*
X139590186Y-65037773D01*
X125781323Y-70513541D02*
X126882605Y-70937691D01*
X130384275Y-53710037D02*
X129362637Y-53675880D01*
X131547972Y-53906327D02*
X130384275Y-53710037D01*
X128311646Y-71526468D02*
X129499999Y-71604358D01*
X122438119Y-69782808D02*
X123386613Y-70595427D01*
X139338040Y-60025644D02*
X138959400Y-58835412D01*
X132984077Y-54088666D02*
X131856377Y-53705865D01*
X135937756Y-56062250D02*
X135042380Y-55277026D01*
X137838600Y-66096480D02*
X138025393Y-65648067D01*
X134980647Y-69409093D02*
X135150000Y-68490000D01*
X119272722Y-64411799D02*
X119585179Y-65654125D01*
X130460000Y-52139954D02*
X129179596Y-52100504D01*
X122257125Y-55030533D02*
X121394114Y-55977211D01*
X133948408Y-57900635D02*
X135523228Y-57900635D01*
X120047931Y-66848629D02*
X120653972Y-67977223D01*
X119585179Y-65654125D02*
X120047931Y-66848629D01*
X132871542Y-72067767D02*
X134021755Y-71580924D01*
X131670214Y-72409573D02*
X132871542Y-72067767D01*
X136894124Y-68230876D02*
X137004743Y-68100937D01*
X138959400Y-58835412D02*
X138959125Y-58834813D01*
X138773320Y-66584160D02*
X138959399Y-66164589D01*
X122257122Y-69969464D02*
X123229928Y-70802912D01*
X121394113Y-69022787D02*
X122257122Y-69969464D01*
X135800556Y-54883932D02*
X134796325Y-54154316D01*
X133708568Y-53556317D02*
X132554445Y-53099368D01*
X134175000Y-70600000D02*
X134177858Y-70600000D01*
X138787502Y-63697484D02*
X138864384Y-62500000D01*
X126882606Y-54062307D02*
X125781324Y-54486457D01*
X136433179Y-57024927D02*
X135641558Y-56149672D01*
X136100155Y-54796272D02*
X135103429Y-54043580D01*
X139338039Y-64974356D02*
X139567540Y-63746628D01*
X138020441Y-60166014D02*
X137633326Y-59051173D01*
X124947824Y-54615393D02*
X123957623Y-55277022D01*
X123957623Y-55277022D02*
X123062250Y-56062243D01*
X130459998Y-72860046D02*
X131725835Y-72663554D01*
X123199443Y-70116067D02*
X124203674Y-70845683D01*
X131352153Y-52790672D02*
X130238621Y-52650000D01*
X134137648Y-53186333D02*
X132957959Y-52687014D01*
X136269315Y-54598827D02*
X135247043Y-53826843D01*
X137885907Y-57777149D02*
X137213113Y-56743556D01*
X132238395Y-71726589D02*
X133395781Y-71300662D01*
X122171546Y-68738791D02*
X123029519Y-69624719D01*
X121503345Y-68309907D02*
X122294576Y-69266340D01*
X137911337Y-59015928D02*
X137384606Y-57947824D01*
X138526469Y-61311645D02*
X138294135Y-60143623D01*
X137188968Y-69509416D02*
X137992062Y-68511408D01*
X120612675Y-65450788D02*
X121062980Y-66563052D01*
X126265870Y-71288177D02*
X127416233Y-71629599D01*
X135523228Y-57900635D02*
X135583482Y-57960889D01*
X135522188Y-58480452D02*
X135583482Y-58541746D01*
X133963439Y-58480452D02*
X135522188Y-58480452D01*
X135580043Y-59124375D02*
X134009388Y-59124375D01*
X134009388Y-59124375D02*
X133945190Y-59060177D01*
X140635140Y-60269720D02*
X140485280Y-60119860D01*
X140485280Y-60119860D02*
X140203340Y-60119860D01*
X133964393Y-59704393D02*
X133960000Y-59700000D01*
X135580044Y-59704393D02*
X133964393Y-59704393D01*
G04 #@! TO.N,ISFET1_D4*
X114463439Y-75980452D02*
X116022188Y-75980452D01*
X116022188Y-75980452D02*
X116083482Y-76041746D01*
G04 #@! TO.N,ISFET1_D3*
X114509388Y-76624375D02*
X114445190Y-76560177D01*
X116080043Y-76624375D02*
X114509388Y-76624375D01*
G04 #@! TO.N,ISFET1_D2*
X120985280Y-77619860D02*
X120703340Y-77619860D01*
X121135140Y-77769720D02*
X120985280Y-77619860D01*
X116080044Y-77204393D02*
X114464393Y-77204393D01*
X114464393Y-77204393D02*
X114460000Y-77200000D01*
G04 #@! TD*
M02*
