G04 #@! TF.GenerationSoftware,KiCad,Pcbnew,5.0.2-bee76a0~70~ubuntu18.04.1*
G04 #@! TF.CreationDate,2019-07-08T07:54:46+02:00*
G04 #@! TF.ProjectId,lower_Sensor,6c6f7765-725f-4536-956e-736f722e6b69,rev?*
G04 #@! TF.SameCoordinates,Original*
G04 #@! TF.FileFunction,Copper,L1,Top*
G04 #@! TF.FilePolarity,Positive*
%FSLAX46Y46*%
G04 Gerber Fmt 4.6, Leading zero omitted, Abs format (unit mm)*
G04 Created by KiCad (PCBNEW 5.0.2-bee76a0~70~ubuntu18.04.1) date Mo 08 Jul 2019 07:54:46 CEST*
%MOMM*%
%LPD*%
G01*
G04 APERTURE LIST*
G04 #@! TA.AperFunction,ComponentPad*
%ADD10C,1.300000*%
G04 #@! TD*
G04 #@! TA.AperFunction,Conductor*
%ADD11C,0.100000*%
G04 #@! TD*
G04 #@! TA.AperFunction,SMDPad,CuDef*
%ADD12C,0.875000*%
G04 #@! TD*
G04 #@! TA.AperFunction,BGAPad,CuDef*
%ADD13C,0.150000*%
G04 #@! TD*
G04 #@! TA.AperFunction,ViaPad*
%ADD14C,0.450000*%
G04 #@! TD*
G04 #@! TA.AperFunction,Conductor*
%ADD15C,0.130000*%
G04 #@! TD*
G04 #@! TA.AperFunction,Conductor*
%ADD16C,0.200000*%
G04 #@! TD*
G04 #@! TA.AperFunction,Conductor*
%ADD17C,0.300000*%
G04 #@! TD*
G04 APERTURE END LIST*
D10*
G04 #@! TO.P,J3,1*
G04 #@! TO.N,N/C*
X139662320Y-57437620D03*
G04 #@! TD*
G04 #@! TO.P,J10,1*
G04 #@! TO.N,N/C*
X134335940Y-52225540D03*
G04 #@! TD*
G04 #@! TO.P,J14,1*
G04 #@! TO.N,N/C*
X119111180Y-57930380D03*
G04 #@! TD*
G04 #@! TO.P,J7,1*
G04 #@! TO.N,N/C*
X136878480Y-53868920D03*
G04 #@! TD*
G04 #@! TO.P,J16,1*
G04 #@! TO.N,N/C*
X137127400Y-70919940D03*
G04 #@! TD*
D11*
G04 #@! TO.N,GNDD*
G04 #@! TO.C,REF\002A\002A*
G36*
X135005911Y-64283558D02*
X135027031Y-64287401D01*
X135047673Y-64293296D01*
X135067638Y-64301186D01*
X135086733Y-64310994D01*
X135530571Y-64567244D01*
X135548613Y-64578877D01*
X135565428Y-64592222D01*
X135580854Y-64607151D01*
X135594742Y-64623520D01*
X135606959Y-64641172D01*
X135617387Y-64659936D01*
X135625925Y-64679632D01*
X135632492Y-64700070D01*
X135637024Y-64721054D01*
X135639478Y-64742380D01*
X135639829Y-64763844D01*
X135638075Y-64785240D01*
X135634232Y-64806360D01*
X135628337Y-64827002D01*
X135620447Y-64846967D01*
X135610639Y-64866062D01*
X135391889Y-65244948D01*
X135380256Y-65262990D01*
X135366911Y-65279805D01*
X135351982Y-65295231D01*
X135335613Y-65309119D01*
X135317961Y-65321336D01*
X135299197Y-65331764D01*
X135279501Y-65340302D01*
X135259063Y-65346869D01*
X135238079Y-65351401D01*
X135216753Y-65353855D01*
X135195289Y-65354206D01*
X135173893Y-65352452D01*
X135152773Y-65348609D01*
X135132131Y-65342714D01*
X135112166Y-65334824D01*
X135093071Y-65325016D01*
X134649233Y-65068766D01*
X134631191Y-65057133D01*
X134614376Y-65043788D01*
X134598950Y-65028859D01*
X134585062Y-65012490D01*
X134572845Y-64994838D01*
X134562417Y-64976074D01*
X134553879Y-64956378D01*
X134547312Y-64935940D01*
X134542780Y-64914956D01*
X134540326Y-64893630D01*
X134539975Y-64872166D01*
X134541729Y-64850770D01*
X134545572Y-64829650D01*
X134551467Y-64809008D01*
X134559357Y-64789043D01*
X134569165Y-64769948D01*
X134787915Y-64391062D01*
X134799548Y-64373020D01*
X134812893Y-64356205D01*
X134827822Y-64340779D01*
X134844191Y-64326891D01*
X134861843Y-64314674D01*
X134880607Y-64304246D01*
X134900303Y-64295708D01*
X134920741Y-64289141D01*
X134941725Y-64284609D01*
X134963051Y-64282155D01*
X134984515Y-64281804D01*
X135005911Y-64283558D01*
X135005911Y-64283558D01*
G37*
D12*
G04 #@! TD*
G04 #@! TO.P,REF\002A\002A,2*
G04 #@! TO.N,GNDD*
X135089902Y-64818005D03*
D11*
G04 #@! TO.N,GNDD*
G04 #@! TO.C,REF\002A\002A*
G36*
X134218411Y-65647548D02*
X134239531Y-65651391D01*
X134260173Y-65657286D01*
X134280138Y-65665176D01*
X134299233Y-65674984D01*
X134743071Y-65931234D01*
X134761113Y-65942867D01*
X134777928Y-65956212D01*
X134793354Y-65971141D01*
X134807242Y-65987510D01*
X134819459Y-66005162D01*
X134829887Y-66023926D01*
X134838425Y-66043622D01*
X134844992Y-66064060D01*
X134849524Y-66085044D01*
X134851978Y-66106370D01*
X134852329Y-66127834D01*
X134850575Y-66149230D01*
X134846732Y-66170350D01*
X134840837Y-66190992D01*
X134832947Y-66210957D01*
X134823139Y-66230052D01*
X134604389Y-66608938D01*
X134592756Y-66626980D01*
X134579411Y-66643795D01*
X134564482Y-66659221D01*
X134548113Y-66673109D01*
X134530461Y-66685326D01*
X134511697Y-66695754D01*
X134492001Y-66704292D01*
X134471563Y-66710859D01*
X134450579Y-66715391D01*
X134429253Y-66717845D01*
X134407789Y-66718196D01*
X134386393Y-66716442D01*
X134365273Y-66712599D01*
X134344631Y-66706704D01*
X134324666Y-66698814D01*
X134305571Y-66689006D01*
X133861733Y-66432756D01*
X133843691Y-66421123D01*
X133826876Y-66407778D01*
X133811450Y-66392849D01*
X133797562Y-66376480D01*
X133785345Y-66358828D01*
X133774917Y-66340064D01*
X133766379Y-66320368D01*
X133759812Y-66299930D01*
X133755280Y-66278946D01*
X133752826Y-66257620D01*
X133752475Y-66236156D01*
X133754229Y-66214760D01*
X133758072Y-66193640D01*
X133763967Y-66172998D01*
X133771857Y-66153033D01*
X133781665Y-66133938D01*
X134000415Y-65755052D01*
X134012048Y-65737010D01*
X134025393Y-65720195D01*
X134040322Y-65704769D01*
X134056691Y-65690881D01*
X134074343Y-65678664D01*
X134093107Y-65668236D01*
X134112803Y-65659698D01*
X134133241Y-65653131D01*
X134154225Y-65648599D01*
X134175551Y-65646145D01*
X134197015Y-65645794D01*
X134218411Y-65647548D01*
X134218411Y-65647548D01*
G37*
D12*
G04 #@! TD*
G04 #@! TO.P,REF\002A\002A,1*
G04 #@! TO.N,GNDD*
X134302402Y-66181995D03*
D10*
G04 #@! TO.P,J9,1*
G04 #@! TO.N,N/C*
X135671980Y-52979920D03*
G04 #@! TD*
D11*
G04 #@! TO.N,GNDD*
G04 #@! TO.C,REF\002A\002A*
G36*
X128952691Y-56026053D02*
X128973926Y-56029203D01*
X128994750Y-56034419D01*
X129014962Y-56041651D01*
X129034368Y-56050830D01*
X129052781Y-56061866D01*
X129070024Y-56074654D01*
X129085930Y-56089070D01*
X129100346Y-56104976D01*
X129113134Y-56122219D01*
X129124170Y-56140632D01*
X129133349Y-56160038D01*
X129140581Y-56180250D01*
X129145797Y-56201074D01*
X129148947Y-56222309D01*
X129150000Y-56243750D01*
X129150000Y-56756250D01*
X129148947Y-56777691D01*
X129145797Y-56798926D01*
X129140581Y-56819750D01*
X129133349Y-56839962D01*
X129124170Y-56859368D01*
X129113134Y-56877781D01*
X129100346Y-56895024D01*
X129085930Y-56910930D01*
X129070024Y-56925346D01*
X129052781Y-56938134D01*
X129034368Y-56949170D01*
X129014962Y-56958349D01*
X128994750Y-56965581D01*
X128973926Y-56970797D01*
X128952691Y-56973947D01*
X128931250Y-56975000D01*
X128493750Y-56975000D01*
X128472309Y-56973947D01*
X128451074Y-56970797D01*
X128430250Y-56965581D01*
X128410038Y-56958349D01*
X128390632Y-56949170D01*
X128372219Y-56938134D01*
X128354976Y-56925346D01*
X128339070Y-56910930D01*
X128324654Y-56895024D01*
X128311866Y-56877781D01*
X128300830Y-56859368D01*
X128291651Y-56839962D01*
X128284419Y-56819750D01*
X128279203Y-56798926D01*
X128276053Y-56777691D01*
X128275000Y-56756250D01*
X128275000Y-56243750D01*
X128276053Y-56222309D01*
X128279203Y-56201074D01*
X128284419Y-56180250D01*
X128291651Y-56160038D01*
X128300830Y-56140632D01*
X128311866Y-56122219D01*
X128324654Y-56104976D01*
X128339070Y-56089070D01*
X128354976Y-56074654D01*
X128372219Y-56061866D01*
X128390632Y-56050830D01*
X128410038Y-56041651D01*
X128430250Y-56034419D01*
X128451074Y-56029203D01*
X128472309Y-56026053D01*
X128493750Y-56025000D01*
X128931250Y-56025000D01*
X128952691Y-56026053D01*
X128952691Y-56026053D01*
G37*
D12*
G04 #@! TD*
G04 #@! TO.P,REF\002A\002A,2*
G04 #@! TO.N,GNDD*
X128712500Y-56500000D03*
D11*
G04 #@! TO.N,GNDD*
G04 #@! TO.C,REF\002A\002A*
G36*
X130527691Y-56026053D02*
X130548926Y-56029203D01*
X130569750Y-56034419D01*
X130589962Y-56041651D01*
X130609368Y-56050830D01*
X130627781Y-56061866D01*
X130645024Y-56074654D01*
X130660930Y-56089070D01*
X130675346Y-56104976D01*
X130688134Y-56122219D01*
X130699170Y-56140632D01*
X130708349Y-56160038D01*
X130715581Y-56180250D01*
X130720797Y-56201074D01*
X130723947Y-56222309D01*
X130725000Y-56243750D01*
X130725000Y-56756250D01*
X130723947Y-56777691D01*
X130720797Y-56798926D01*
X130715581Y-56819750D01*
X130708349Y-56839962D01*
X130699170Y-56859368D01*
X130688134Y-56877781D01*
X130675346Y-56895024D01*
X130660930Y-56910930D01*
X130645024Y-56925346D01*
X130627781Y-56938134D01*
X130609368Y-56949170D01*
X130589962Y-56958349D01*
X130569750Y-56965581D01*
X130548926Y-56970797D01*
X130527691Y-56973947D01*
X130506250Y-56975000D01*
X130068750Y-56975000D01*
X130047309Y-56973947D01*
X130026074Y-56970797D01*
X130005250Y-56965581D01*
X129985038Y-56958349D01*
X129965632Y-56949170D01*
X129947219Y-56938134D01*
X129929976Y-56925346D01*
X129914070Y-56910930D01*
X129899654Y-56895024D01*
X129886866Y-56877781D01*
X129875830Y-56859368D01*
X129866651Y-56839962D01*
X129859419Y-56819750D01*
X129854203Y-56798926D01*
X129851053Y-56777691D01*
X129850000Y-56756250D01*
X129850000Y-56243750D01*
X129851053Y-56222309D01*
X129854203Y-56201074D01*
X129859419Y-56180250D01*
X129866651Y-56160038D01*
X129875830Y-56140632D01*
X129886866Y-56122219D01*
X129899654Y-56104976D01*
X129914070Y-56089070D01*
X129929976Y-56074654D01*
X129947219Y-56061866D01*
X129965632Y-56050830D01*
X129985038Y-56041651D01*
X130005250Y-56034419D01*
X130026074Y-56029203D01*
X130047309Y-56026053D01*
X130068750Y-56025000D01*
X130506250Y-56025000D01*
X130527691Y-56026053D01*
X130527691Y-56026053D01*
G37*
D12*
G04 #@! TD*
G04 #@! TO.P,REF\002A\002A,1*
G04 #@! TO.N,GNDD*
X130287500Y-56500000D03*
D10*
G04 #@! TO.P,J13,1*
G04 #@! TO.N,N/C*
X118427920Y-60005560D03*
G04 #@! TD*
D11*
G04 #@! TO.N,GNDD*
G04 #@! TO.C,REF\002A\002A*
G36*
X124824449Y-65646145D02*
X124845775Y-65648599D01*
X124866759Y-65653131D01*
X124887197Y-65659698D01*
X124906893Y-65668236D01*
X124925657Y-65678664D01*
X124943309Y-65690881D01*
X124959678Y-65704769D01*
X124974607Y-65720195D01*
X124987952Y-65737010D01*
X124999585Y-65755052D01*
X125218335Y-66133938D01*
X125228143Y-66153033D01*
X125236033Y-66172998D01*
X125241928Y-66193640D01*
X125245771Y-66214760D01*
X125247525Y-66236156D01*
X125247174Y-66257620D01*
X125244720Y-66278946D01*
X125240188Y-66299930D01*
X125233621Y-66320368D01*
X125225083Y-66340064D01*
X125214655Y-66358828D01*
X125202438Y-66376480D01*
X125188550Y-66392849D01*
X125173124Y-66407778D01*
X125156309Y-66421123D01*
X125138267Y-66432756D01*
X124694429Y-66689006D01*
X124675334Y-66698814D01*
X124655369Y-66706704D01*
X124634727Y-66712599D01*
X124613607Y-66716442D01*
X124592211Y-66718196D01*
X124570747Y-66717845D01*
X124549421Y-66715391D01*
X124528437Y-66710859D01*
X124507999Y-66704292D01*
X124488303Y-66695754D01*
X124469539Y-66685326D01*
X124451887Y-66673109D01*
X124435518Y-66659221D01*
X124420589Y-66643795D01*
X124407244Y-66626980D01*
X124395611Y-66608938D01*
X124176861Y-66230052D01*
X124167053Y-66210957D01*
X124159163Y-66190992D01*
X124153268Y-66170350D01*
X124149425Y-66149230D01*
X124147671Y-66127834D01*
X124148022Y-66106370D01*
X124150476Y-66085044D01*
X124155008Y-66064060D01*
X124161575Y-66043622D01*
X124170113Y-66023926D01*
X124180541Y-66005162D01*
X124192758Y-65987510D01*
X124206646Y-65971141D01*
X124222072Y-65956212D01*
X124238887Y-65942867D01*
X124256929Y-65931234D01*
X124700767Y-65674984D01*
X124719862Y-65665176D01*
X124739827Y-65657286D01*
X124760469Y-65651391D01*
X124781589Y-65647548D01*
X124802985Y-65645794D01*
X124824449Y-65646145D01*
X124824449Y-65646145D01*
G37*
D12*
G04 #@! TD*
G04 #@! TO.P,REF\002A\002A,2*
G04 #@! TO.N,GNDD*
X124697598Y-66181995D03*
D11*
G04 #@! TO.N,GNDD*
G04 #@! TO.C,REF\002A\002A*
G36*
X124036949Y-64282155D02*
X124058275Y-64284609D01*
X124079259Y-64289141D01*
X124099697Y-64295708D01*
X124119393Y-64304246D01*
X124138157Y-64314674D01*
X124155809Y-64326891D01*
X124172178Y-64340779D01*
X124187107Y-64356205D01*
X124200452Y-64373020D01*
X124212085Y-64391062D01*
X124430835Y-64769948D01*
X124440643Y-64789043D01*
X124448533Y-64809008D01*
X124454428Y-64829650D01*
X124458271Y-64850770D01*
X124460025Y-64872166D01*
X124459674Y-64893630D01*
X124457220Y-64914956D01*
X124452688Y-64935940D01*
X124446121Y-64956378D01*
X124437583Y-64976074D01*
X124427155Y-64994838D01*
X124414938Y-65012490D01*
X124401050Y-65028859D01*
X124385624Y-65043788D01*
X124368809Y-65057133D01*
X124350767Y-65068766D01*
X123906929Y-65325016D01*
X123887834Y-65334824D01*
X123867869Y-65342714D01*
X123847227Y-65348609D01*
X123826107Y-65352452D01*
X123804711Y-65354206D01*
X123783247Y-65353855D01*
X123761921Y-65351401D01*
X123740937Y-65346869D01*
X123720499Y-65340302D01*
X123700803Y-65331764D01*
X123682039Y-65321336D01*
X123664387Y-65309119D01*
X123648018Y-65295231D01*
X123633089Y-65279805D01*
X123619744Y-65262990D01*
X123608111Y-65244948D01*
X123389361Y-64866062D01*
X123379553Y-64846967D01*
X123371663Y-64827002D01*
X123365768Y-64806360D01*
X123361925Y-64785240D01*
X123360171Y-64763844D01*
X123360522Y-64742380D01*
X123362976Y-64721054D01*
X123367508Y-64700070D01*
X123374075Y-64679632D01*
X123382613Y-64659936D01*
X123393041Y-64641172D01*
X123405258Y-64623520D01*
X123419146Y-64607151D01*
X123434572Y-64592222D01*
X123451387Y-64578877D01*
X123469429Y-64567244D01*
X123913267Y-64310994D01*
X123932362Y-64301186D01*
X123952327Y-64293296D01*
X123972969Y-64287401D01*
X123994089Y-64283558D01*
X124015485Y-64281804D01*
X124036949Y-64282155D01*
X124036949Y-64282155D01*
G37*
D12*
G04 #@! TD*
G04 #@! TO.P,REF\002A\002A,1*
G04 #@! TO.N,GNDD*
X123910098Y-64818005D03*
D10*
G04 #@! TO.P,J2,1*
G04 #@! TO.N,N/C*
X140231280Y-58814300D03*
G04 #@! TD*
G04 #@! TO.P,J15,1*
G04 #@! TO.N,N/C*
X124363900Y-72659840D03*
G04 #@! TD*
G04 #@! TO.P,J8,1*
G04 #@! TO.N,N/C*
X139578500Y-67803360D03*
G04 #@! TD*
G04 #@! TO.P,J5,1*
G04 #@! TO.N,N/C*
X137960520Y-54920480D03*
G04 #@! TD*
G04 #@! TO.P,J4,1*
G04 #@! TO.N,N/C*
X138900320Y-56106660D03*
G04 #@! TD*
G04 #@! TO.P,J6,1*
G04 #@! TO.N,GNDD*
X138488840Y-69484840D03*
G04 #@! TD*
D13*
G04 #@! TO.P,REF\002A\002A,ELEC*
G04 #@! TO.N,N/C*
X128747000Y-62390000D03*
G04 #@! TO.P,REF\002A\002A,O2*
X128747000Y-62170000D03*
G04 #@! TO.P,REF\002A\002A,G*
X128747000Y-62830000D03*
G04 #@! TO.P,REF\002A\002A,D2m*
X129830000Y-63253000D03*
G04 #@! TO.P,REF\002A\002A,D4m*
X128950000Y-63253000D03*
G04 #@! TO.P,REF\002A\002A,D3m*
X129390000Y-63253000D03*
G04 #@! TO.P,REF\002A\002A,S*
X130253000Y-62390000D03*
G04 #@! TO.P,REF\002A\002A,SUB*
X130253000Y-62830000D03*
G04 #@! TO.P,REF\002A\002A,D1i*
X130253000Y-61950000D03*
G04 #@! TO.P,REF\002A\002A,D3i*
X129390000Y-61747000D03*
G04 #@! TO.P,REF\002A\002A,D2i*
X129830000Y-61747000D03*
G04 #@! TO.P,REF\002A\002A,D4i*
X128950000Y-61747000D03*
G04 #@! TD*
D10*
G04 #@! TO.P,J1,1*
G04 #@! TO.N,N/C*
X140635140Y-60269720D03*
G04 #@! TD*
D11*
G04 #@! TO.N,GNDD*
G04 #@! TO.C,REF\002A\002A*
G36*
X104536949Y-81782155D02*
X104558275Y-81784609D01*
X104579259Y-81789141D01*
X104599697Y-81795708D01*
X104619393Y-81804246D01*
X104638157Y-81814674D01*
X104655809Y-81826891D01*
X104672178Y-81840779D01*
X104687107Y-81856205D01*
X104700452Y-81873020D01*
X104712085Y-81891062D01*
X104930835Y-82269948D01*
X104940643Y-82289043D01*
X104948533Y-82309008D01*
X104954428Y-82329650D01*
X104958271Y-82350770D01*
X104960025Y-82372166D01*
X104959674Y-82393630D01*
X104957220Y-82414956D01*
X104952688Y-82435940D01*
X104946121Y-82456378D01*
X104937583Y-82476074D01*
X104927155Y-82494838D01*
X104914938Y-82512490D01*
X104901050Y-82528859D01*
X104885624Y-82543788D01*
X104868809Y-82557133D01*
X104850767Y-82568766D01*
X104406929Y-82825016D01*
X104387834Y-82834824D01*
X104367869Y-82842714D01*
X104347227Y-82848609D01*
X104326107Y-82852452D01*
X104304711Y-82854206D01*
X104283247Y-82853855D01*
X104261921Y-82851401D01*
X104240937Y-82846869D01*
X104220499Y-82840302D01*
X104200803Y-82831764D01*
X104182039Y-82821336D01*
X104164387Y-82809119D01*
X104148018Y-82795231D01*
X104133089Y-82779805D01*
X104119744Y-82762990D01*
X104108111Y-82744948D01*
X103889361Y-82366062D01*
X103879553Y-82346967D01*
X103871663Y-82327002D01*
X103865768Y-82306360D01*
X103861925Y-82285240D01*
X103860171Y-82263844D01*
X103860522Y-82242380D01*
X103862976Y-82221054D01*
X103867508Y-82200070D01*
X103874075Y-82179632D01*
X103882613Y-82159936D01*
X103893041Y-82141172D01*
X103905258Y-82123520D01*
X103919146Y-82107151D01*
X103934572Y-82092222D01*
X103951387Y-82078877D01*
X103969429Y-82067244D01*
X104413267Y-81810994D01*
X104432362Y-81801186D01*
X104452327Y-81793296D01*
X104472969Y-81787401D01*
X104494089Y-81783558D01*
X104515485Y-81781804D01*
X104536949Y-81782155D01*
X104536949Y-81782155D01*
G37*
D12*
G04 #@! TD*
G04 #@! TO.P,REF\002A\002A,1*
G04 #@! TO.N,GNDD*
X104410098Y-82318005D03*
D11*
G04 #@! TO.N,GNDD*
G04 #@! TO.C,REF\002A\002A*
G36*
X105324449Y-83146145D02*
X105345775Y-83148599D01*
X105366759Y-83153131D01*
X105387197Y-83159698D01*
X105406893Y-83168236D01*
X105425657Y-83178664D01*
X105443309Y-83190881D01*
X105459678Y-83204769D01*
X105474607Y-83220195D01*
X105487952Y-83237010D01*
X105499585Y-83255052D01*
X105718335Y-83633938D01*
X105728143Y-83653033D01*
X105736033Y-83672998D01*
X105741928Y-83693640D01*
X105745771Y-83714760D01*
X105747525Y-83736156D01*
X105747174Y-83757620D01*
X105744720Y-83778946D01*
X105740188Y-83799930D01*
X105733621Y-83820368D01*
X105725083Y-83840064D01*
X105714655Y-83858828D01*
X105702438Y-83876480D01*
X105688550Y-83892849D01*
X105673124Y-83907778D01*
X105656309Y-83921123D01*
X105638267Y-83932756D01*
X105194429Y-84189006D01*
X105175334Y-84198814D01*
X105155369Y-84206704D01*
X105134727Y-84212599D01*
X105113607Y-84216442D01*
X105092211Y-84218196D01*
X105070747Y-84217845D01*
X105049421Y-84215391D01*
X105028437Y-84210859D01*
X105007999Y-84204292D01*
X104988303Y-84195754D01*
X104969539Y-84185326D01*
X104951887Y-84173109D01*
X104935518Y-84159221D01*
X104920589Y-84143795D01*
X104907244Y-84126980D01*
X104895611Y-84108938D01*
X104676861Y-83730052D01*
X104667053Y-83710957D01*
X104659163Y-83690992D01*
X104653268Y-83670350D01*
X104649425Y-83649230D01*
X104647671Y-83627834D01*
X104648022Y-83606370D01*
X104650476Y-83585044D01*
X104655008Y-83564060D01*
X104661575Y-83543622D01*
X104670113Y-83523926D01*
X104680541Y-83505162D01*
X104692758Y-83487510D01*
X104706646Y-83471141D01*
X104722072Y-83456212D01*
X104738887Y-83442867D01*
X104756929Y-83431234D01*
X105200767Y-83174984D01*
X105219862Y-83165176D01*
X105239827Y-83157286D01*
X105260469Y-83151391D01*
X105281589Y-83147548D01*
X105302985Y-83145794D01*
X105324449Y-83146145D01*
X105324449Y-83146145D01*
G37*
D12*
G04 #@! TD*
G04 #@! TO.P,REF\002A\002A,2*
G04 #@! TO.N,GNDD*
X105197598Y-83681995D03*
D11*
G04 #@! TO.N,GNDD*
G04 #@! TO.C,REF\002A\002A*
G36*
X114718411Y-83147548D02*
X114739531Y-83151391D01*
X114760173Y-83157286D01*
X114780138Y-83165176D01*
X114799233Y-83174984D01*
X115243071Y-83431234D01*
X115261113Y-83442867D01*
X115277928Y-83456212D01*
X115293354Y-83471141D01*
X115307242Y-83487510D01*
X115319459Y-83505162D01*
X115329887Y-83523926D01*
X115338425Y-83543622D01*
X115344992Y-83564060D01*
X115349524Y-83585044D01*
X115351978Y-83606370D01*
X115352329Y-83627834D01*
X115350575Y-83649230D01*
X115346732Y-83670350D01*
X115340837Y-83690992D01*
X115332947Y-83710957D01*
X115323139Y-83730052D01*
X115104389Y-84108938D01*
X115092756Y-84126980D01*
X115079411Y-84143795D01*
X115064482Y-84159221D01*
X115048113Y-84173109D01*
X115030461Y-84185326D01*
X115011697Y-84195754D01*
X114992001Y-84204292D01*
X114971563Y-84210859D01*
X114950579Y-84215391D01*
X114929253Y-84217845D01*
X114907789Y-84218196D01*
X114886393Y-84216442D01*
X114865273Y-84212599D01*
X114844631Y-84206704D01*
X114824666Y-84198814D01*
X114805571Y-84189006D01*
X114361733Y-83932756D01*
X114343691Y-83921123D01*
X114326876Y-83907778D01*
X114311450Y-83892849D01*
X114297562Y-83876480D01*
X114285345Y-83858828D01*
X114274917Y-83840064D01*
X114266379Y-83820368D01*
X114259812Y-83799930D01*
X114255280Y-83778946D01*
X114252826Y-83757620D01*
X114252475Y-83736156D01*
X114254229Y-83714760D01*
X114258072Y-83693640D01*
X114263967Y-83672998D01*
X114271857Y-83653033D01*
X114281665Y-83633938D01*
X114500415Y-83255052D01*
X114512048Y-83237010D01*
X114525393Y-83220195D01*
X114540322Y-83204769D01*
X114556691Y-83190881D01*
X114574343Y-83178664D01*
X114593107Y-83168236D01*
X114612803Y-83159698D01*
X114633241Y-83153131D01*
X114654225Y-83148599D01*
X114675551Y-83146145D01*
X114697015Y-83145794D01*
X114718411Y-83147548D01*
X114718411Y-83147548D01*
G37*
D12*
G04 #@! TD*
G04 #@! TO.P,REF\002A\002A,1*
G04 #@! TO.N,GNDD*
X114802402Y-83681995D03*
D11*
G04 #@! TO.N,GNDD*
G04 #@! TO.C,REF\002A\002A*
G36*
X115505911Y-81783558D02*
X115527031Y-81787401D01*
X115547673Y-81793296D01*
X115567638Y-81801186D01*
X115586733Y-81810994D01*
X116030571Y-82067244D01*
X116048613Y-82078877D01*
X116065428Y-82092222D01*
X116080854Y-82107151D01*
X116094742Y-82123520D01*
X116106959Y-82141172D01*
X116117387Y-82159936D01*
X116125925Y-82179632D01*
X116132492Y-82200070D01*
X116137024Y-82221054D01*
X116139478Y-82242380D01*
X116139829Y-82263844D01*
X116138075Y-82285240D01*
X116134232Y-82306360D01*
X116128337Y-82327002D01*
X116120447Y-82346967D01*
X116110639Y-82366062D01*
X115891889Y-82744948D01*
X115880256Y-82762990D01*
X115866911Y-82779805D01*
X115851982Y-82795231D01*
X115835613Y-82809119D01*
X115817961Y-82821336D01*
X115799197Y-82831764D01*
X115779501Y-82840302D01*
X115759063Y-82846869D01*
X115738079Y-82851401D01*
X115716753Y-82853855D01*
X115695289Y-82854206D01*
X115673893Y-82852452D01*
X115652773Y-82848609D01*
X115632131Y-82842714D01*
X115612166Y-82834824D01*
X115593071Y-82825016D01*
X115149233Y-82568766D01*
X115131191Y-82557133D01*
X115114376Y-82543788D01*
X115098950Y-82528859D01*
X115085062Y-82512490D01*
X115072845Y-82494838D01*
X115062417Y-82476074D01*
X115053879Y-82456378D01*
X115047312Y-82435940D01*
X115042780Y-82414956D01*
X115040326Y-82393630D01*
X115039975Y-82372166D01*
X115041729Y-82350770D01*
X115045572Y-82329650D01*
X115051467Y-82309008D01*
X115059357Y-82289043D01*
X115069165Y-82269948D01*
X115287915Y-81891062D01*
X115299548Y-81873020D01*
X115312893Y-81856205D01*
X115327822Y-81840779D01*
X115344191Y-81826891D01*
X115361843Y-81814674D01*
X115380607Y-81804246D01*
X115400303Y-81795708D01*
X115420741Y-81789141D01*
X115441725Y-81784609D01*
X115463051Y-81782155D01*
X115484515Y-81781804D01*
X115505911Y-81783558D01*
X115505911Y-81783558D01*
G37*
D12*
G04 #@! TD*
G04 #@! TO.P,REF\002A\002A,2*
G04 #@! TO.N,GNDD*
X115589902Y-82318005D03*
D11*
G04 #@! TO.N,GNDD*
G04 #@! TO.C,REF\002A\002A*
G36*
X111027691Y-73526053D02*
X111048926Y-73529203D01*
X111069750Y-73534419D01*
X111089962Y-73541651D01*
X111109368Y-73550830D01*
X111127781Y-73561866D01*
X111145024Y-73574654D01*
X111160930Y-73589070D01*
X111175346Y-73604976D01*
X111188134Y-73622219D01*
X111199170Y-73640632D01*
X111208349Y-73660038D01*
X111215581Y-73680250D01*
X111220797Y-73701074D01*
X111223947Y-73722309D01*
X111225000Y-73743750D01*
X111225000Y-74256250D01*
X111223947Y-74277691D01*
X111220797Y-74298926D01*
X111215581Y-74319750D01*
X111208349Y-74339962D01*
X111199170Y-74359368D01*
X111188134Y-74377781D01*
X111175346Y-74395024D01*
X111160930Y-74410930D01*
X111145024Y-74425346D01*
X111127781Y-74438134D01*
X111109368Y-74449170D01*
X111089962Y-74458349D01*
X111069750Y-74465581D01*
X111048926Y-74470797D01*
X111027691Y-74473947D01*
X111006250Y-74475000D01*
X110568750Y-74475000D01*
X110547309Y-74473947D01*
X110526074Y-74470797D01*
X110505250Y-74465581D01*
X110485038Y-74458349D01*
X110465632Y-74449170D01*
X110447219Y-74438134D01*
X110429976Y-74425346D01*
X110414070Y-74410930D01*
X110399654Y-74395024D01*
X110386866Y-74377781D01*
X110375830Y-74359368D01*
X110366651Y-74339962D01*
X110359419Y-74319750D01*
X110354203Y-74298926D01*
X110351053Y-74277691D01*
X110350000Y-74256250D01*
X110350000Y-73743750D01*
X110351053Y-73722309D01*
X110354203Y-73701074D01*
X110359419Y-73680250D01*
X110366651Y-73660038D01*
X110375830Y-73640632D01*
X110386866Y-73622219D01*
X110399654Y-73604976D01*
X110414070Y-73589070D01*
X110429976Y-73574654D01*
X110447219Y-73561866D01*
X110465632Y-73550830D01*
X110485038Y-73541651D01*
X110505250Y-73534419D01*
X110526074Y-73529203D01*
X110547309Y-73526053D01*
X110568750Y-73525000D01*
X111006250Y-73525000D01*
X111027691Y-73526053D01*
X111027691Y-73526053D01*
G37*
D12*
G04 #@! TD*
G04 #@! TO.P,REF\002A\002A,1*
G04 #@! TO.N,GNDD*
X110787500Y-74000000D03*
D11*
G04 #@! TO.N,GNDD*
G04 #@! TO.C,REF\002A\002A*
G36*
X109452691Y-73526053D02*
X109473926Y-73529203D01*
X109494750Y-73534419D01*
X109514962Y-73541651D01*
X109534368Y-73550830D01*
X109552781Y-73561866D01*
X109570024Y-73574654D01*
X109585930Y-73589070D01*
X109600346Y-73604976D01*
X109613134Y-73622219D01*
X109624170Y-73640632D01*
X109633349Y-73660038D01*
X109640581Y-73680250D01*
X109645797Y-73701074D01*
X109648947Y-73722309D01*
X109650000Y-73743750D01*
X109650000Y-74256250D01*
X109648947Y-74277691D01*
X109645797Y-74298926D01*
X109640581Y-74319750D01*
X109633349Y-74339962D01*
X109624170Y-74359368D01*
X109613134Y-74377781D01*
X109600346Y-74395024D01*
X109585930Y-74410930D01*
X109570024Y-74425346D01*
X109552781Y-74438134D01*
X109534368Y-74449170D01*
X109514962Y-74458349D01*
X109494750Y-74465581D01*
X109473926Y-74470797D01*
X109452691Y-74473947D01*
X109431250Y-74475000D01*
X108993750Y-74475000D01*
X108972309Y-74473947D01*
X108951074Y-74470797D01*
X108930250Y-74465581D01*
X108910038Y-74458349D01*
X108890632Y-74449170D01*
X108872219Y-74438134D01*
X108854976Y-74425346D01*
X108839070Y-74410930D01*
X108824654Y-74395024D01*
X108811866Y-74377781D01*
X108800830Y-74359368D01*
X108791651Y-74339962D01*
X108784419Y-74319750D01*
X108779203Y-74298926D01*
X108776053Y-74277691D01*
X108775000Y-74256250D01*
X108775000Y-73743750D01*
X108776053Y-73722309D01*
X108779203Y-73701074D01*
X108784419Y-73680250D01*
X108791651Y-73660038D01*
X108800830Y-73640632D01*
X108811866Y-73622219D01*
X108824654Y-73604976D01*
X108839070Y-73589070D01*
X108854976Y-73574654D01*
X108872219Y-73561866D01*
X108890632Y-73550830D01*
X108910038Y-73541651D01*
X108930250Y-73534419D01*
X108951074Y-73529203D01*
X108972309Y-73526053D01*
X108993750Y-73525000D01*
X109431250Y-73525000D01*
X109452691Y-73526053D01*
X109452691Y-73526053D01*
G37*
D12*
G04 #@! TD*
G04 #@! TO.P,REF\002A\002A,2*
G04 #@! TO.N,GNDD*
X109212500Y-74000000D03*
D10*
G04 #@! TO.P,J14,1*
G04 #@! TO.N,O2_ELEC1*
X99611180Y-75430380D03*
G04 #@! TD*
G04 #@! TO.P,J16,1*
G04 #@! TO.N,GNDD*
X117627400Y-88419940D03*
G04 #@! TD*
G04 #@! TO.P,J15,1*
G04 #@! TO.N,N/C*
X104863900Y-90159840D03*
G04 #@! TD*
G04 #@! TO.P,J13,1*
G04 #@! TO.N,ELEC1*
X98927920Y-77505560D03*
G04 #@! TD*
G04 #@! TO.P,J2,1*
G04 #@! TO.N,ISFET1_D3*
X120731280Y-76314300D03*
G04 #@! TD*
G04 #@! TO.P,J1,1*
G04 #@! TO.N,ISFET1_D2*
X121135140Y-77769720D03*
G04 #@! TD*
G04 #@! TO.P,J10,1*
G04 #@! TO.N,REFFET1_D2*
X114835940Y-69725540D03*
G04 #@! TD*
G04 #@! TO.P,J9,1*
G04 #@! TO.N,REFFET1_D3*
X116171980Y-70479920D03*
G04 #@! TD*
G04 #@! TO.P,J8,1*
G04 #@! TO.N,N/C*
X120078500Y-85303360D03*
G04 #@! TD*
G04 #@! TO.P,J7,1*
G04 #@! TO.N,REFFET1_D4*
X117378480Y-71368920D03*
G04 #@! TD*
G04 #@! TO.P,J5,1*
G04 #@! TO.N,N/C*
X118460520Y-72420480D03*
G04 #@! TD*
G04 #@! TO.P,J4,1*
G04 #@! TO.N,N/C*
X119400320Y-73606660D03*
G04 #@! TD*
G04 #@! TO.P,J3,1*
G04 #@! TO.N,ISFET1_D4*
X120162320Y-74937620D03*
G04 #@! TD*
G04 #@! TO.P,J6,1*
G04 #@! TO.N,GNDD*
X118988840Y-86984840D03*
G04 #@! TD*
D13*
G04 #@! TO.P,REF\002A\002A,D4i*
G04 #@! TO.N,ISFET1_D4*
X109450000Y-79247000D03*
G04 #@! TO.P,REF\002A\002A,D2i*
G04 #@! TO.N,ISFET1_D2*
X110330000Y-79247000D03*
G04 #@! TO.P,REF\002A\002A,D3i*
G04 #@! TO.N,ISFET1_D3*
X109890000Y-79247000D03*
G04 #@! TO.P,REF\002A\002A,D1i*
G04 #@! TO.N,ISFET1_D1*
X110753000Y-79450000D03*
G04 #@! TO.P,REF\002A\002A,SUB*
G04 #@! TO.N,N/C*
X110753000Y-80330000D03*
G04 #@! TO.P,REF\002A\002A,S*
X110753000Y-79890000D03*
G04 #@! TO.P,REF\002A\002A,D3m*
G04 #@! TO.N,REFFET1_D3*
X109890000Y-80753000D03*
G04 #@! TO.P,REF\002A\002A,D4m*
G04 #@! TO.N,REFFET1_D4*
X109450000Y-80753000D03*
G04 #@! TO.P,REF\002A\002A,D2m*
G04 #@! TO.N,REFFET1_D2*
X110330000Y-80753000D03*
G04 #@! TO.P,REF\002A\002A,G*
G04 #@! TO.N,N/C*
X109247000Y-80330000D03*
G04 #@! TO.P,REF\002A\002A,O2*
G04 #@! TO.N,O2_ELEC1*
X109247000Y-79670000D03*
G04 #@! TO.P,REF\002A\002A,ELEC*
G04 #@! TO.N,ELEC1*
X109247000Y-79890000D03*
G04 #@! TD*
D14*
G04 #@! TO.N,*
X115650000Y-85990000D03*
X114448408Y-75400635D03*
X116083482Y-75460889D03*
X116130192Y-77782223D03*
X116109996Y-74820000D03*
X135630192Y-60282223D03*
X135609996Y-57320000D03*
X133948408Y-57900635D03*
X135150000Y-68490000D03*
X135583482Y-57960889D03*
X135583482Y-58541746D03*
X133963439Y-58480452D03*
X135580043Y-59124375D03*
X133960000Y-59120000D03*
X133960000Y-59700000D03*
X135580044Y-59704393D03*
G04 #@! TO.N,ISFET1_D4*
X114463439Y-75980452D03*
X116083482Y-76041746D03*
G04 #@! TO.N,ISFET1_D3*
X116080043Y-76624375D03*
X114460000Y-76620000D03*
G04 #@! TO.N,ISFET1_D2*
X116080044Y-77204393D03*
X114460000Y-77200000D03*
G04 #@! TD*
D15*
G04 #@! TO.N,*
X109247000Y-80330000D02*
X108985340Y-80591660D01*
X110000000Y-80000000D02*
X110000000Y-80482999D01*
X110859066Y-80330000D02*
X110864186Y-80335120D01*
X110753000Y-80330000D02*
X110859066Y-80330000D01*
X110864186Y-80335120D02*
X112036860Y-80335120D01*
X112036860Y-80335120D02*
X112473740Y-79898240D01*
X116077243Y-75458320D02*
X116079812Y-75460889D01*
X116079812Y-75460889D02*
X116083482Y-75460889D01*
X117580000Y-75460000D02*
X119380000Y-73660000D01*
X116083482Y-75460889D02*
X116084371Y-75460000D01*
X116084371Y-75460000D02*
X117580000Y-75460000D01*
X114544589Y-75440000D02*
X114450000Y-75440000D01*
X112480000Y-79890000D02*
X114880002Y-77489998D01*
X110753000Y-79890000D02*
X112480000Y-79890000D01*
X114880002Y-77489998D02*
X114880002Y-76185491D01*
X114880002Y-76185491D02*
X114883440Y-76182053D01*
X114883440Y-75778851D02*
X114544589Y-75440000D01*
X114883440Y-76182053D02*
X114883440Y-75778851D01*
X108990000Y-81040000D02*
X108990000Y-80590000D01*
X112000000Y-81870000D02*
X109820000Y-81870000D01*
X116130192Y-77782223D02*
X116087777Y-77782223D01*
X109820000Y-81870000D02*
X108990000Y-81040000D01*
X116087777Y-77782223D02*
X112000000Y-81870000D01*
X118460520Y-72420480D02*
X116109996Y-74771004D01*
X116109996Y-74771004D02*
X116109996Y-74820000D01*
X130364186Y-62835120D02*
X131536860Y-62835120D01*
X134380002Y-59989998D02*
X134380002Y-58685491D01*
X130253000Y-62830000D02*
X130359066Y-62830000D01*
X131500000Y-64370000D02*
X129320000Y-64370000D01*
X134383440Y-58278851D02*
X134044589Y-57940000D01*
X130253000Y-62390000D02*
X131980000Y-62390000D01*
X135583482Y-57960889D02*
X135584371Y-57960000D01*
X131980000Y-62390000D02*
X134380002Y-59989998D01*
X137960520Y-54920480D02*
X135609996Y-57271004D01*
X135609996Y-57271004D02*
X135609996Y-57320000D01*
X134044589Y-57940000D02*
X133950000Y-57940000D01*
X134380002Y-58685491D02*
X134383440Y-58682053D01*
X128490000Y-63540000D02*
X128490000Y-63090000D01*
X134383440Y-58682053D02*
X134383440Y-58278851D01*
X135584371Y-57960000D02*
X137080000Y-57960000D01*
X135587777Y-60282223D02*
X131500000Y-64370000D01*
X137080000Y-57960000D02*
X138880000Y-56160000D01*
X131536860Y-62835120D02*
X131973740Y-62398240D01*
X130359066Y-62830000D02*
X130364186Y-62835120D01*
X129320000Y-64370000D02*
X128490000Y-63540000D01*
X135630192Y-60282223D02*
X135587777Y-60282223D01*
X128747000Y-62830000D02*
X128485340Y-63091660D01*
X135577243Y-57958320D02*
X135579812Y-57960889D01*
X135579812Y-57960889D02*
X135583482Y-57960889D01*
X136477401Y-70269941D02*
X136477401Y-69797401D01*
X137127400Y-70919940D02*
X136477401Y-70269941D01*
X136477401Y-69797401D02*
X135160000Y-68480000D01*
X134643450Y-58789752D02*
X134643450Y-58171152D01*
X131501159Y-63253000D02*
X134640012Y-60114148D01*
X134633798Y-58161500D02*
X134633798Y-52525938D01*
X134640012Y-58793190D02*
X134643450Y-58789752D01*
X134633798Y-52525938D02*
X134343560Y-52235700D01*
X134640012Y-60114148D02*
X134640012Y-58793190D01*
X129830000Y-63253000D02*
X131501159Y-63253000D01*
X134643450Y-58171152D02*
X134633798Y-58161500D01*
X131290139Y-63831731D02*
X129927431Y-63831731D01*
X134900023Y-60221846D02*
X131290139Y-63831731D01*
X134903461Y-58897452D02*
X134900023Y-58900890D01*
X129927431Y-63831731D02*
X129390560Y-63294860D01*
X134903461Y-53748439D02*
X134903461Y-58897452D01*
X134900023Y-58900890D02*
X134900023Y-60221846D01*
X135671980Y-52979920D02*
X134903461Y-53748439D01*
X135160034Y-60329546D02*
X135160034Y-59008590D01*
X129819731Y-64091742D02*
X131397839Y-64091742D01*
X129788741Y-64091741D02*
X129819731Y-64091742D01*
X135160034Y-59008590D02*
X135163472Y-59005152D01*
X128950000Y-63253000D02*
X129788741Y-64091741D01*
X131397839Y-64091742D02*
X135160034Y-60329546D01*
X135163472Y-55568688D02*
X136845460Y-53886700D01*
X135163472Y-59005152D02*
X135163472Y-55568688D01*
X128948600Y-61748000D02*
X132216148Y-58480452D01*
X133645241Y-58480452D02*
X133963439Y-58480452D01*
X138560734Y-58541746D02*
X135901680Y-58541746D01*
X132216148Y-58480452D02*
X133645241Y-58480452D01*
X135901680Y-58541746D02*
X135583482Y-58541746D01*
X139657240Y-57445240D02*
X138560734Y-58541746D01*
X129403260Y-61704999D02*
X131998259Y-59110000D01*
X131998259Y-59110000D02*
X133910380Y-59110000D01*
X133910380Y-59110000D02*
X133945190Y-59144810D01*
X133945190Y-59144810D02*
X133945190Y-59060177D01*
X135898241Y-59124375D02*
X135580043Y-59124375D01*
X140251600Y-58821920D02*
X139949145Y-59124375D01*
X139949145Y-59124375D02*
X135898241Y-59124375D01*
X140059653Y-59704393D02*
X135898242Y-59704393D01*
X135898242Y-59704393D02*
X135580044Y-59704393D01*
X140645300Y-60290040D02*
X140059653Y-59704393D01*
X133641802Y-59700000D02*
X133960000Y-59700000D01*
X129835060Y-61714980D02*
X131850040Y-59700000D01*
X131850040Y-59700000D02*
X133641802Y-59700000D01*
X128168820Y-62390620D02*
X127980250Y-62202050D01*
X127588764Y-61417800D02*
X119865560Y-61417800D01*
X119865560Y-61417800D02*
X118448240Y-60000480D01*
X127980250Y-62202050D02*
X127980250Y-61809286D01*
X128272960Y-62390620D02*
X128168820Y-62390620D01*
X127980250Y-61809286D02*
X127588764Y-61417800D01*
X128747000Y-62390000D02*
X128640934Y-62390000D01*
X128640934Y-62390000D02*
X128640314Y-62390620D01*
X128640314Y-62390620D02*
X128272960Y-62390620D01*
X128240260Y-61882940D02*
X128240260Y-61701587D01*
X128382180Y-62024860D02*
X128240260Y-61882940D01*
X128240260Y-61701587D02*
X127684693Y-61146020D01*
X127684693Y-61146020D02*
X122296340Y-61146020D01*
X128672001Y-62078461D02*
X128618400Y-62024860D01*
X128672001Y-62095001D02*
X128672001Y-62078461D01*
X128747000Y-62170000D02*
X128672001Y-62095001D01*
X122296340Y-61146020D02*
X119098480Y-57948160D01*
X119111180Y-57930380D02*
X119111180Y-57935460D01*
X128618400Y-62024860D02*
X128382180Y-62024860D01*
D16*
G04 #@! TO.N,GNDD*
X113500000Y-84292540D02*
X113500000Y-84250000D01*
D15*
X116977401Y-87769941D02*
X116977401Y-87297401D01*
X117627400Y-88419940D02*
X116977401Y-87769941D01*
X116977401Y-87297401D02*
X115660000Y-85980000D01*
D17*
X118988840Y-86984840D02*
X115584000Y-83580000D01*
X138488840Y-69484840D02*
X135084000Y-66080000D01*
D15*
G04 #@! TO.N,REFFET1_D2*
X115133798Y-70025938D02*
X114843560Y-69735700D01*
X115133798Y-75661500D02*
X115133798Y-70025938D01*
X112001159Y-80753000D02*
X115140012Y-77614148D01*
X115140012Y-77614148D02*
X115140012Y-76293190D01*
X115143450Y-76289752D02*
X115143450Y-75671152D01*
X115143450Y-75671152D02*
X115133798Y-75661500D01*
X110330000Y-80753000D02*
X112001159Y-80753000D01*
X115140012Y-76293190D02*
X115143450Y-76289752D01*
G04 #@! TO.N,REFFET1_D3*
X110427431Y-81331731D02*
X109890560Y-80794860D01*
X115403461Y-71248439D02*
X115403461Y-76397452D01*
X116171980Y-70479920D02*
X115403461Y-71248439D01*
X115403461Y-76397452D02*
X115400023Y-76400890D01*
X111790139Y-81331731D02*
X110427431Y-81331731D01*
X115400023Y-76400890D02*
X115400023Y-77721846D01*
X115400023Y-77721846D02*
X111790139Y-81331731D01*
G04 #@! TO.N,REFFET1_D4*
X110288741Y-81591741D02*
X110319731Y-81591742D01*
X111897839Y-81591742D02*
X115660034Y-77829546D01*
X115660034Y-77829546D02*
X115660034Y-76508590D01*
X115663472Y-73068688D02*
X117345460Y-71386700D01*
X115660034Y-76508590D02*
X115663472Y-76505152D01*
X109450000Y-80753000D02*
X110288741Y-81591741D01*
X115663472Y-76505152D02*
X115663472Y-73068688D01*
X110319731Y-81591742D02*
X111897839Y-81591742D01*
G04 #@! TO.N,ISFET1_D4*
X109448600Y-79248000D02*
X112716148Y-75980452D01*
X112716148Y-75980452D02*
X114145241Y-75980452D01*
X120157240Y-74945240D02*
X119060734Y-76041746D01*
X114145241Y-75980452D02*
X114463439Y-75980452D01*
X119060734Y-76041746D02*
X116401680Y-76041746D01*
X116401680Y-76041746D02*
X116083482Y-76041746D01*
G04 #@! TO.N,ISFET1_D3*
X116398241Y-76624375D02*
X116080043Y-76624375D01*
X120751600Y-76321920D02*
X120449145Y-76624375D01*
X120449145Y-76624375D02*
X116398241Y-76624375D01*
X114445190Y-76644810D02*
X114445190Y-76560177D01*
X114410380Y-76610000D02*
X114445190Y-76644810D01*
X109903260Y-79204999D02*
X112498259Y-76610000D01*
X112498259Y-76610000D02*
X114410380Y-76610000D01*
G04 #@! TO.N,ISFET1_D2*
X120559653Y-77204393D02*
X116398242Y-77204393D01*
X121145300Y-77790040D02*
X120559653Y-77204393D01*
X114141802Y-77200000D02*
X114460000Y-77200000D01*
X110335060Y-79214980D02*
X112350040Y-77200000D01*
X112350040Y-77200000D02*
X114141802Y-77200000D01*
X116398242Y-77204393D02*
X116080044Y-77204393D01*
G04 #@! TO.N,ELEC1*
X109140934Y-79890000D02*
X109140314Y-79890620D01*
X109247000Y-79890000D02*
X109140934Y-79890000D01*
X109140314Y-79890620D02*
X108772960Y-79890620D01*
X108668820Y-79890620D02*
X108480250Y-79702050D01*
X108772960Y-79890620D02*
X108668820Y-79890620D01*
X108480250Y-79309286D02*
X108088764Y-78917800D01*
X108480250Y-79702050D02*
X108480250Y-79309286D01*
X108088764Y-78917800D02*
X100365560Y-78917800D01*
X100365560Y-78917800D02*
X98948240Y-77500480D01*
G04 #@! TO.N,O2_ELEC1*
X109172001Y-79595001D02*
X109172001Y-79578461D01*
X109247000Y-79670000D02*
X109172001Y-79595001D01*
X109172001Y-79578461D02*
X109118400Y-79524860D01*
X109118400Y-79524860D02*
X108882180Y-79524860D01*
X108740260Y-79382940D02*
X108740260Y-79201587D01*
X108882180Y-79524860D02*
X108740260Y-79382940D01*
X108740260Y-79201587D02*
X108184693Y-78646020D01*
X108184693Y-78646020D02*
X102796340Y-78646020D01*
X102796340Y-78646020D02*
X99598480Y-75448160D01*
X99611180Y-75430380D02*
X99611180Y-75435460D01*
G04 #@! TD*
D11*
G04 #@! TO.N,GNDD*
G36*
X116609695Y-77852377D02*
X116864281Y-78912807D01*
X116949845Y-80000000D01*
X116864281Y-81087193D01*
X116609695Y-82147623D01*
X116192358Y-83155163D01*
X115622541Y-84085020D01*
X114914283Y-84914283D01*
X114085020Y-85622541D01*
X113155163Y-86192358D01*
X112147623Y-86609695D01*
X111087193Y-86864281D01*
X110000000Y-86949845D01*
X108912807Y-86864281D01*
X107852377Y-86609695D01*
X106844837Y-86192358D01*
X105914980Y-85622541D01*
X105085717Y-84914283D01*
X104401846Y-84113573D01*
X104725082Y-84113573D01*
X104890001Y-84399221D01*
X104937343Y-84435548D01*
X104994983Y-84450992D01*
X105054146Y-84443203D01*
X105105826Y-84413366D01*
X105372270Y-84259535D01*
X105385995Y-84208309D01*
X114614005Y-84208309D01*
X114627730Y-84259535D01*
X114894174Y-84413366D01*
X114945854Y-84443203D01*
X115005017Y-84450992D01*
X115062657Y-84435548D01*
X115109999Y-84399221D01*
X115274918Y-84113573D01*
X115261192Y-84062348D01*
X114839005Y-83818598D01*
X114614005Y-84208309D01*
X105385995Y-84208309D01*
X105160995Y-83818598D01*
X104738808Y-84062348D01*
X104725082Y-84113573D01*
X104401846Y-84113573D01*
X104377459Y-84085020D01*
X104037714Y-83530606D01*
X104414875Y-83530606D01*
X104422664Y-83589769D01*
X104587582Y-83875417D01*
X104638808Y-83889142D01*
X104934198Y-83718598D01*
X105334201Y-83718598D01*
X105559201Y-84108309D01*
X105610426Y-84122035D01*
X105876870Y-83968203D01*
X105928550Y-83938366D01*
X105964877Y-83891024D01*
X105980321Y-83833384D01*
X114019679Y-83833384D01*
X114035123Y-83891024D01*
X114071450Y-83938366D01*
X114123130Y-83968203D01*
X114389574Y-84122035D01*
X114440799Y-84108309D01*
X114665799Y-83718598D01*
X114539003Y-83645392D01*
X114939005Y-83645392D01*
X115361192Y-83889142D01*
X115412418Y-83875417D01*
X115577336Y-83589769D01*
X115585125Y-83530606D01*
X115569681Y-83472966D01*
X115533354Y-83425624D01*
X115481674Y-83395787D01*
X115215230Y-83241955D01*
X115164005Y-83255681D01*
X114939005Y-83645392D01*
X114539003Y-83645392D01*
X114243612Y-83474848D01*
X114192386Y-83488573D01*
X114027468Y-83774221D01*
X114019679Y-83833384D01*
X105980321Y-83833384D01*
X105972532Y-83774221D01*
X105807614Y-83488573D01*
X105756388Y-83474848D01*
X105334201Y-83718598D01*
X104934198Y-83718598D01*
X105060995Y-83645392D01*
X104835995Y-83255681D01*
X104784770Y-83241955D01*
X104518326Y-83395787D01*
X104466646Y-83425624D01*
X104430319Y-83472966D01*
X104414875Y-83530606D01*
X104037714Y-83530606D01*
X103807960Y-83155681D01*
X105009201Y-83155681D01*
X105234201Y-83545392D01*
X105656388Y-83301642D01*
X105670114Y-83250417D01*
X114329886Y-83250417D01*
X114343612Y-83301642D01*
X114765799Y-83545392D01*
X114990799Y-83155681D01*
X114977074Y-83104455D01*
X114710630Y-82950624D01*
X114658950Y-82920787D01*
X114599787Y-82912998D01*
X114542147Y-82928442D01*
X114494805Y-82964769D01*
X114329886Y-83250417D01*
X105670114Y-83250417D01*
X105505195Y-82964769D01*
X105457853Y-82928442D01*
X105400213Y-82912998D01*
X105341050Y-82920787D01*
X105289370Y-82950624D01*
X105022926Y-83104455D01*
X105009201Y-83155681D01*
X103807960Y-83155681D01*
X103807642Y-83155163D01*
X103639646Y-82749583D01*
X103937582Y-82749583D01*
X104102501Y-83035231D01*
X104149843Y-83071558D01*
X104207483Y-83087002D01*
X104266646Y-83079213D01*
X104318326Y-83049376D01*
X104584770Y-82895545D01*
X104598495Y-82844319D01*
X115401505Y-82844319D01*
X115415230Y-82895545D01*
X115681674Y-83049376D01*
X115733354Y-83079213D01*
X115792517Y-83087002D01*
X115850157Y-83071558D01*
X115897499Y-83035231D01*
X116062418Y-82749583D01*
X116048692Y-82698358D01*
X115626505Y-82454608D01*
X115401505Y-82844319D01*
X104598495Y-82844319D01*
X104373495Y-82454608D01*
X103951308Y-82698358D01*
X103937582Y-82749583D01*
X103639646Y-82749583D01*
X103398173Y-82166616D01*
X103627375Y-82166616D01*
X103635164Y-82225779D01*
X103800082Y-82511427D01*
X103851308Y-82525152D01*
X104146698Y-82354608D01*
X104546701Y-82354608D01*
X104771701Y-82744319D01*
X104822926Y-82758045D01*
X105089370Y-82604213D01*
X105141050Y-82574376D01*
X105177377Y-82527034D01*
X105192821Y-82469394D01*
X114807179Y-82469394D01*
X114822623Y-82527034D01*
X114858950Y-82574376D01*
X114910630Y-82604213D01*
X115177074Y-82758045D01*
X115228299Y-82744319D01*
X115453299Y-82354608D01*
X115326503Y-82281402D01*
X115726505Y-82281402D01*
X116148692Y-82525152D01*
X116199918Y-82511427D01*
X116364836Y-82225779D01*
X116372625Y-82166616D01*
X116357181Y-82108976D01*
X116320854Y-82061634D01*
X116269174Y-82031797D01*
X116002730Y-81877965D01*
X115951505Y-81891691D01*
X115726505Y-82281402D01*
X115326503Y-82281402D01*
X115031112Y-82110858D01*
X114979886Y-82124583D01*
X114814968Y-82410231D01*
X114807179Y-82469394D01*
X105192821Y-82469394D01*
X105185032Y-82410231D01*
X105020114Y-82124583D01*
X104968888Y-82110858D01*
X104546701Y-82354608D01*
X104146698Y-82354608D01*
X104273495Y-82281402D01*
X104048495Y-81891691D01*
X103997270Y-81877965D01*
X103730826Y-82031797D01*
X103679146Y-82061634D01*
X103642819Y-82108976D01*
X103627375Y-82166616D01*
X103398173Y-82166616D01*
X103390305Y-82147623D01*
X103304854Y-81791691D01*
X104221701Y-81791691D01*
X104446701Y-82181402D01*
X104868888Y-81937652D01*
X104882614Y-81886427D01*
X104717695Y-81600779D01*
X104670353Y-81564452D01*
X104612713Y-81549008D01*
X104553550Y-81556797D01*
X104501870Y-81586634D01*
X104235426Y-81740465D01*
X104221701Y-81791691D01*
X103304854Y-81791691D01*
X103135719Y-81087193D01*
X103050155Y-80000000D01*
X103116044Y-79162800D01*
X107987283Y-79162800D01*
X108235251Y-79410769D01*
X108235250Y-79677924D01*
X108230451Y-79702050D01*
X108248382Y-79792194D01*
X108249466Y-79797643D01*
X108303615Y-79878685D01*
X108324074Y-79892355D01*
X108478517Y-80046798D01*
X108492185Y-80067255D01*
X108573226Y-80121404D01*
X108644694Y-80135620D01*
X108644695Y-80135620D01*
X108668819Y-80140419D01*
X108692944Y-80135620D01*
X109080755Y-80135620D01*
X109030821Y-80185554D01*
X109020820Y-80209698D01*
X108824781Y-80405738D01*
X108813366Y-80413365D01*
X108805739Y-80424780D01*
X108795040Y-80435479D01*
X108754556Y-80496067D01*
X108735541Y-80591660D01*
X108745001Y-80639217D01*
X108745000Y-81015874D01*
X108740201Y-81040000D01*
X108745000Y-81064125D01*
X108759216Y-81135593D01*
X108813365Y-81216635D01*
X108833824Y-81230305D01*
X109629697Y-82026179D01*
X109643365Y-82046635D01*
X109724406Y-82100784D01*
X109795874Y-82115000D01*
X109795875Y-82115000D01*
X109819999Y-82119799D01*
X109844124Y-82115000D01*
X111975874Y-82115000D01*
X112000000Y-82119799D01*
X112024126Y-82115000D01*
X112095594Y-82100784D01*
X112176635Y-82046635D01*
X112190305Y-82026176D01*
X112330054Y-81886427D01*
X115117386Y-81886427D01*
X115131112Y-81937652D01*
X115553299Y-82181402D01*
X115778299Y-81791691D01*
X115764574Y-81740465D01*
X115498130Y-81586634D01*
X115446450Y-81556797D01*
X115387287Y-81549008D01*
X115329647Y-81564452D01*
X115282305Y-81600779D01*
X115117386Y-81886427D01*
X112330054Y-81886427D01*
X116035227Y-78181256D01*
X116049633Y-78187223D01*
X116210751Y-78187223D01*
X116359606Y-78125565D01*
X116473534Y-78011637D01*
X116535192Y-77862782D01*
X116535192Y-77701664D01*
X116473534Y-77552809D01*
X116388959Y-77468234D01*
X116407800Y-77449393D01*
X116442773Y-77449393D01*
X116609695Y-77852377D01*
X116609695Y-77852377D01*
G37*
X116609695Y-77852377D02*
X116864281Y-78912807D01*
X116949845Y-80000000D01*
X116864281Y-81087193D01*
X116609695Y-82147623D01*
X116192358Y-83155163D01*
X115622541Y-84085020D01*
X114914283Y-84914283D01*
X114085020Y-85622541D01*
X113155163Y-86192358D01*
X112147623Y-86609695D01*
X111087193Y-86864281D01*
X110000000Y-86949845D01*
X108912807Y-86864281D01*
X107852377Y-86609695D01*
X106844837Y-86192358D01*
X105914980Y-85622541D01*
X105085717Y-84914283D01*
X104401846Y-84113573D01*
X104725082Y-84113573D01*
X104890001Y-84399221D01*
X104937343Y-84435548D01*
X104994983Y-84450992D01*
X105054146Y-84443203D01*
X105105826Y-84413366D01*
X105372270Y-84259535D01*
X105385995Y-84208309D01*
X114614005Y-84208309D01*
X114627730Y-84259535D01*
X114894174Y-84413366D01*
X114945854Y-84443203D01*
X115005017Y-84450992D01*
X115062657Y-84435548D01*
X115109999Y-84399221D01*
X115274918Y-84113573D01*
X115261192Y-84062348D01*
X114839005Y-83818598D01*
X114614005Y-84208309D01*
X105385995Y-84208309D01*
X105160995Y-83818598D01*
X104738808Y-84062348D01*
X104725082Y-84113573D01*
X104401846Y-84113573D01*
X104377459Y-84085020D01*
X104037714Y-83530606D01*
X104414875Y-83530606D01*
X104422664Y-83589769D01*
X104587582Y-83875417D01*
X104638808Y-83889142D01*
X104934198Y-83718598D01*
X105334201Y-83718598D01*
X105559201Y-84108309D01*
X105610426Y-84122035D01*
X105876870Y-83968203D01*
X105928550Y-83938366D01*
X105964877Y-83891024D01*
X105980321Y-83833384D01*
X114019679Y-83833384D01*
X114035123Y-83891024D01*
X114071450Y-83938366D01*
X114123130Y-83968203D01*
X114389574Y-84122035D01*
X114440799Y-84108309D01*
X114665799Y-83718598D01*
X114539003Y-83645392D01*
X114939005Y-83645392D01*
X115361192Y-83889142D01*
X115412418Y-83875417D01*
X115577336Y-83589769D01*
X115585125Y-83530606D01*
X115569681Y-83472966D01*
X115533354Y-83425624D01*
X115481674Y-83395787D01*
X115215230Y-83241955D01*
X115164005Y-83255681D01*
X114939005Y-83645392D01*
X114539003Y-83645392D01*
X114243612Y-83474848D01*
X114192386Y-83488573D01*
X114027468Y-83774221D01*
X114019679Y-83833384D01*
X105980321Y-83833384D01*
X105972532Y-83774221D01*
X105807614Y-83488573D01*
X105756388Y-83474848D01*
X105334201Y-83718598D01*
X104934198Y-83718598D01*
X105060995Y-83645392D01*
X104835995Y-83255681D01*
X104784770Y-83241955D01*
X104518326Y-83395787D01*
X104466646Y-83425624D01*
X104430319Y-83472966D01*
X104414875Y-83530606D01*
X104037714Y-83530606D01*
X103807960Y-83155681D01*
X105009201Y-83155681D01*
X105234201Y-83545392D01*
X105656388Y-83301642D01*
X105670114Y-83250417D01*
X114329886Y-83250417D01*
X114343612Y-83301642D01*
X114765799Y-83545392D01*
X114990799Y-83155681D01*
X114977074Y-83104455D01*
X114710630Y-82950624D01*
X114658950Y-82920787D01*
X114599787Y-82912998D01*
X114542147Y-82928442D01*
X114494805Y-82964769D01*
X114329886Y-83250417D01*
X105670114Y-83250417D01*
X105505195Y-82964769D01*
X105457853Y-82928442D01*
X105400213Y-82912998D01*
X105341050Y-82920787D01*
X105289370Y-82950624D01*
X105022926Y-83104455D01*
X105009201Y-83155681D01*
X103807960Y-83155681D01*
X103807642Y-83155163D01*
X103639646Y-82749583D01*
X103937582Y-82749583D01*
X104102501Y-83035231D01*
X104149843Y-83071558D01*
X104207483Y-83087002D01*
X104266646Y-83079213D01*
X104318326Y-83049376D01*
X104584770Y-82895545D01*
X104598495Y-82844319D01*
X115401505Y-82844319D01*
X115415230Y-82895545D01*
X115681674Y-83049376D01*
X115733354Y-83079213D01*
X115792517Y-83087002D01*
X115850157Y-83071558D01*
X115897499Y-83035231D01*
X116062418Y-82749583D01*
X116048692Y-82698358D01*
X115626505Y-82454608D01*
X115401505Y-82844319D01*
X104598495Y-82844319D01*
X104373495Y-82454608D01*
X103951308Y-82698358D01*
X103937582Y-82749583D01*
X103639646Y-82749583D01*
X103398173Y-82166616D01*
X103627375Y-82166616D01*
X103635164Y-82225779D01*
X103800082Y-82511427D01*
X103851308Y-82525152D01*
X104146698Y-82354608D01*
X104546701Y-82354608D01*
X104771701Y-82744319D01*
X104822926Y-82758045D01*
X105089370Y-82604213D01*
X105141050Y-82574376D01*
X105177377Y-82527034D01*
X105192821Y-82469394D01*
X114807179Y-82469394D01*
X114822623Y-82527034D01*
X114858950Y-82574376D01*
X114910630Y-82604213D01*
X115177074Y-82758045D01*
X115228299Y-82744319D01*
X115453299Y-82354608D01*
X115326503Y-82281402D01*
X115726505Y-82281402D01*
X116148692Y-82525152D01*
X116199918Y-82511427D01*
X116364836Y-82225779D01*
X116372625Y-82166616D01*
X116357181Y-82108976D01*
X116320854Y-82061634D01*
X116269174Y-82031797D01*
X116002730Y-81877965D01*
X115951505Y-81891691D01*
X115726505Y-82281402D01*
X115326503Y-82281402D01*
X115031112Y-82110858D01*
X114979886Y-82124583D01*
X114814968Y-82410231D01*
X114807179Y-82469394D01*
X105192821Y-82469394D01*
X105185032Y-82410231D01*
X105020114Y-82124583D01*
X104968888Y-82110858D01*
X104546701Y-82354608D01*
X104146698Y-82354608D01*
X104273495Y-82281402D01*
X104048495Y-81891691D01*
X103997270Y-81877965D01*
X103730826Y-82031797D01*
X103679146Y-82061634D01*
X103642819Y-82108976D01*
X103627375Y-82166616D01*
X103398173Y-82166616D01*
X103390305Y-82147623D01*
X103304854Y-81791691D01*
X104221701Y-81791691D01*
X104446701Y-82181402D01*
X104868888Y-81937652D01*
X104882614Y-81886427D01*
X104717695Y-81600779D01*
X104670353Y-81564452D01*
X104612713Y-81549008D01*
X104553550Y-81556797D01*
X104501870Y-81586634D01*
X104235426Y-81740465D01*
X104221701Y-81791691D01*
X103304854Y-81791691D01*
X103135719Y-81087193D01*
X103050155Y-80000000D01*
X103116044Y-79162800D01*
X107987283Y-79162800D01*
X108235251Y-79410769D01*
X108235250Y-79677924D01*
X108230451Y-79702050D01*
X108248382Y-79792194D01*
X108249466Y-79797643D01*
X108303615Y-79878685D01*
X108324074Y-79892355D01*
X108478517Y-80046798D01*
X108492185Y-80067255D01*
X108573226Y-80121404D01*
X108644694Y-80135620D01*
X108644695Y-80135620D01*
X108668819Y-80140419D01*
X108692944Y-80135620D01*
X109080755Y-80135620D01*
X109030821Y-80185554D01*
X109020820Y-80209698D01*
X108824781Y-80405738D01*
X108813366Y-80413365D01*
X108805739Y-80424780D01*
X108795040Y-80435479D01*
X108754556Y-80496067D01*
X108735541Y-80591660D01*
X108745001Y-80639217D01*
X108745000Y-81015874D01*
X108740201Y-81040000D01*
X108745000Y-81064125D01*
X108759216Y-81135593D01*
X108813365Y-81216635D01*
X108833824Y-81230305D01*
X109629697Y-82026179D01*
X109643365Y-82046635D01*
X109724406Y-82100784D01*
X109795874Y-82115000D01*
X109795875Y-82115000D01*
X109819999Y-82119799D01*
X109844124Y-82115000D01*
X111975874Y-82115000D01*
X112000000Y-82119799D01*
X112024126Y-82115000D01*
X112095594Y-82100784D01*
X112176635Y-82046635D01*
X112190305Y-82026176D01*
X112330054Y-81886427D01*
X115117386Y-81886427D01*
X115131112Y-81937652D01*
X115553299Y-82181402D01*
X115778299Y-81791691D01*
X115764574Y-81740465D01*
X115498130Y-81586634D01*
X115446450Y-81556797D01*
X115387287Y-81549008D01*
X115329647Y-81564452D01*
X115282305Y-81600779D01*
X115117386Y-81886427D01*
X112330054Y-81886427D01*
X116035227Y-78181256D01*
X116049633Y-78187223D01*
X116210751Y-78187223D01*
X116359606Y-78125565D01*
X116473534Y-78011637D01*
X116535192Y-77862782D01*
X116535192Y-77701664D01*
X116473534Y-77552809D01*
X116388959Y-77468234D01*
X116407800Y-77449393D01*
X116442773Y-77449393D01*
X116609695Y-77852377D01*
G36*
X111087193Y-73135719D02*
X112147623Y-73390305D01*
X113155163Y-73807642D01*
X114085020Y-74377459D01*
X114888798Y-75063951D01*
X114888798Y-75437727D01*
X114853408Y-75402337D01*
X114853408Y-75320076D01*
X114791750Y-75171221D01*
X114677822Y-75057293D01*
X114528967Y-74995635D01*
X114367849Y-74995635D01*
X114218994Y-75057293D01*
X114105066Y-75171221D01*
X114043408Y-75320076D01*
X114043408Y-75481194D01*
X114105066Y-75630049D01*
X114173076Y-75698059D01*
X114135683Y-75735452D01*
X112740274Y-75735452D01*
X112716148Y-75730653D01*
X112692022Y-75735452D01*
X112620554Y-75749668D01*
X112539513Y-75803817D01*
X112525847Y-75824270D01*
X109329016Y-79021103D01*
X109305554Y-79030821D01*
X109233821Y-79102554D01*
X109195000Y-79196277D01*
X109195000Y-79290298D01*
X109142526Y-79279860D01*
X109118400Y-79275061D01*
X109094274Y-79279860D01*
X108985260Y-79279860D01*
X108985260Y-79225711D01*
X108990059Y-79201586D01*
X108979516Y-79148584D01*
X108971044Y-79105993D01*
X108916895Y-79024952D01*
X108896439Y-79011284D01*
X108374998Y-78489844D01*
X108361328Y-78469385D01*
X108280287Y-78415236D01*
X108208819Y-78401020D01*
X108184693Y-78396221D01*
X108160567Y-78401020D01*
X103258588Y-78401020D01*
X103390305Y-77852377D01*
X103807642Y-76844837D01*
X104377459Y-75914980D01*
X105085717Y-75085717D01*
X105914980Y-74377459D01*
X106306557Y-74137500D01*
X108625000Y-74137500D01*
X108625000Y-74504837D01*
X108647836Y-74559968D01*
X108690032Y-74602164D01*
X108745163Y-74625000D01*
X109075000Y-74625000D01*
X109112500Y-74587500D01*
X109112500Y-74100000D01*
X109312500Y-74100000D01*
X109312500Y-74587500D01*
X109350000Y-74625000D01*
X109679837Y-74625000D01*
X109734968Y-74602164D01*
X109777164Y-74559968D01*
X109800000Y-74504837D01*
X109800000Y-74137500D01*
X110200000Y-74137500D01*
X110200000Y-74504837D01*
X110222836Y-74559968D01*
X110265032Y-74602164D01*
X110320163Y-74625000D01*
X110650000Y-74625000D01*
X110687500Y-74587500D01*
X110687500Y-74100000D01*
X110887500Y-74100000D01*
X110887500Y-74587500D01*
X110925000Y-74625000D01*
X111254837Y-74625000D01*
X111309968Y-74602164D01*
X111352164Y-74559968D01*
X111375000Y-74504837D01*
X111375000Y-74137500D01*
X111337500Y-74100000D01*
X110887500Y-74100000D01*
X110687500Y-74100000D01*
X110237500Y-74100000D01*
X110200000Y-74137500D01*
X109800000Y-74137500D01*
X109762500Y-74100000D01*
X109312500Y-74100000D01*
X109112500Y-74100000D01*
X108662500Y-74100000D01*
X108625000Y-74137500D01*
X106306557Y-74137500D01*
X106844837Y-73807642D01*
X107599227Y-73495163D01*
X108625000Y-73495163D01*
X108625000Y-73862500D01*
X108662500Y-73900000D01*
X109112500Y-73900000D01*
X109112500Y-73412500D01*
X109312500Y-73412500D01*
X109312500Y-73900000D01*
X109762500Y-73900000D01*
X109800000Y-73862500D01*
X109800000Y-73495163D01*
X110200000Y-73495163D01*
X110200000Y-73862500D01*
X110237500Y-73900000D01*
X110687500Y-73900000D01*
X110687500Y-73412500D01*
X110887500Y-73412500D01*
X110887500Y-73900000D01*
X111337500Y-73900000D01*
X111375000Y-73862500D01*
X111375000Y-73495163D01*
X111352164Y-73440032D01*
X111309968Y-73397836D01*
X111254837Y-73375000D01*
X110925000Y-73375000D01*
X110887500Y-73412500D01*
X110687500Y-73412500D01*
X110650000Y-73375000D01*
X110320163Y-73375000D01*
X110265032Y-73397836D01*
X110222836Y-73440032D01*
X110200000Y-73495163D01*
X109800000Y-73495163D01*
X109777164Y-73440032D01*
X109734968Y-73397836D01*
X109679837Y-73375000D01*
X109350000Y-73375000D01*
X109312500Y-73412500D01*
X109112500Y-73412500D01*
X109075000Y-73375000D01*
X108745163Y-73375000D01*
X108690032Y-73397836D01*
X108647836Y-73440032D01*
X108625000Y-73495163D01*
X107599227Y-73495163D01*
X107852377Y-73390305D01*
X108912807Y-73135719D01*
X110000000Y-73050155D01*
X111087193Y-73135719D01*
X111087193Y-73135719D01*
G37*
X111087193Y-73135719D02*
X112147623Y-73390305D01*
X113155163Y-73807642D01*
X114085020Y-74377459D01*
X114888798Y-75063951D01*
X114888798Y-75437727D01*
X114853408Y-75402337D01*
X114853408Y-75320076D01*
X114791750Y-75171221D01*
X114677822Y-75057293D01*
X114528967Y-74995635D01*
X114367849Y-74995635D01*
X114218994Y-75057293D01*
X114105066Y-75171221D01*
X114043408Y-75320076D01*
X114043408Y-75481194D01*
X114105066Y-75630049D01*
X114173076Y-75698059D01*
X114135683Y-75735452D01*
X112740274Y-75735452D01*
X112716148Y-75730653D01*
X112692022Y-75735452D01*
X112620554Y-75749668D01*
X112539513Y-75803817D01*
X112525847Y-75824270D01*
X109329016Y-79021103D01*
X109305554Y-79030821D01*
X109233821Y-79102554D01*
X109195000Y-79196277D01*
X109195000Y-79290298D01*
X109142526Y-79279860D01*
X109118400Y-79275061D01*
X109094274Y-79279860D01*
X108985260Y-79279860D01*
X108985260Y-79225711D01*
X108990059Y-79201586D01*
X108979516Y-79148584D01*
X108971044Y-79105993D01*
X108916895Y-79024952D01*
X108896439Y-79011284D01*
X108374998Y-78489844D01*
X108361328Y-78469385D01*
X108280287Y-78415236D01*
X108208819Y-78401020D01*
X108184693Y-78396221D01*
X108160567Y-78401020D01*
X103258588Y-78401020D01*
X103390305Y-77852377D01*
X103807642Y-76844837D01*
X104377459Y-75914980D01*
X105085717Y-75085717D01*
X105914980Y-74377459D01*
X106306557Y-74137500D01*
X108625000Y-74137500D01*
X108625000Y-74504837D01*
X108647836Y-74559968D01*
X108690032Y-74602164D01*
X108745163Y-74625000D01*
X109075000Y-74625000D01*
X109112500Y-74587500D01*
X109112500Y-74100000D01*
X109312500Y-74100000D01*
X109312500Y-74587500D01*
X109350000Y-74625000D01*
X109679837Y-74625000D01*
X109734968Y-74602164D01*
X109777164Y-74559968D01*
X109800000Y-74504837D01*
X109800000Y-74137500D01*
X110200000Y-74137500D01*
X110200000Y-74504837D01*
X110222836Y-74559968D01*
X110265032Y-74602164D01*
X110320163Y-74625000D01*
X110650000Y-74625000D01*
X110687500Y-74587500D01*
X110687500Y-74100000D01*
X110887500Y-74100000D01*
X110887500Y-74587500D01*
X110925000Y-74625000D01*
X111254837Y-74625000D01*
X111309968Y-74602164D01*
X111352164Y-74559968D01*
X111375000Y-74504837D01*
X111375000Y-74137500D01*
X111337500Y-74100000D01*
X110887500Y-74100000D01*
X110687500Y-74100000D01*
X110237500Y-74100000D01*
X110200000Y-74137500D01*
X109800000Y-74137500D01*
X109762500Y-74100000D01*
X109312500Y-74100000D01*
X109112500Y-74100000D01*
X108662500Y-74100000D01*
X108625000Y-74137500D01*
X106306557Y-74137500D01*
X106844837Y-73807642D01*
X107599227Y-73495163D01*
X108625000Y-73495163D01*
X108625000Y-73862500D01*
X108662500Y-73900000D01*
X109112500Y-73900000D01*
X109112500Y-73412500D01*
X109312500Y-73412500D01*
X109312500Y-73900000D01*
X109762500Y-73900000D01*
X109800000Y-73862500D01*
X109800000Y-73495163D01*
X110200000Y-73495163D01*
X110200000Y-73862500D01*
X110237500Y-73900000D01*
X110687500Y-73900000D01*
X110687500Y-73412500D01*
X110887500Y-73412500D01*
X110887500Y-73900000D01*
X111337500Y-73900000D01*
X111375000Y-73862500D01*
X111375000Y-73495163D01*
X111352164Y-73440032D01*
X111309968Y-73397836D01*
X111254837Y-73375000D01*
X110925000Y-73375000D01*
X110887500Y-73412500D01*
X110687500Y-73412500D01*
X110650000Y-73375000D01*
X110320163Y-73375000D01*
X110265032Y-73397836D01*
X110222836Y-73440032D01*
X110200000Y-73495163D01*
X109800000Y-73495163D01*
X109777164Y-73440032D01*
X109734968Y-73397836D01*
X109679837Y-73375000D01*
X109350000Y-73375000D01*
X109312500Y-73412500D01*
X109112500Y-73412500D01*
X109075000Y-73375000D01*
X108745163Y-73375000D01*
X108690032Y-73397836D01*
X108647836Y-73440032D01*
X108625000Y-73495163D01*
X107599227Y-73495163D01*
X107852377Y-73390305D01*
X108912807Y-73135719D01*
X110000000Y-73050155D01*
X111087193Y-73135719D01*
G36*
X136109695Y-60352377D02*
X136364281Y-61412807D01*
X136449845Y-62500000D01*
X136364281Y-63587193D01*
X136109695Y-64647623D01*
X135692358Y-65655163D01*
X135122541Y-66585020D01*
X134414283Y-67414283D01*
X133585020Y-68122541D01*
X132655163Y-68692358D01*
X131647623Y-69109695D01*
X130587193Y-69364281D01*
X129500000Y-69449845D01*
X128412807Y-69364281D01*
X127352377Y-69109695D01*
X126344837Y-68692358D01*
X125414980Y-68122541D01*
X124585717Y-67414283D01*
X123901846Y-66613573D01*
X124225082Y-66613573D01*
X124390001Y-66899221D01*
X124437343Y-66935548D01*
X124494983Y-66950992D01*
X124554146Y-66943203D01*
X124605826Y-66913366D01*
X124872270Y-66759535D01*
X124885995Y-66708309D01*
X134114005Y-66708309D01*
X134127730Y-66759535D01*
X134394174Y-66913366D01*
X134445854Y-66943203D01*
X134505017Y-66950992D01*
X134562657Y-66935548D01*
X134609999Y-66899221D01*
X134774918Y-66613573D01*
X134761192Y-66562348D01*
X134339005Y-66318598D01*
X134114005Y-66708309D01*
X124885995Y-66708309D01*
X124660995Y-66318598D01*
X124238808Y-66562348D01*
X124225082Y-66613573D01*
X123901846Y-66613573D01*
X123877459Y-66585020D01*
X123537714Y-66030606D01*
X123914875Y-66030606D01*
X123922664Y-66089769D01*
X124087582Y-66375417D01*
X124138808Y-66389142D01*
X124434198Y-66218598D01*
X124834201Y-66218598D01*
X125059201Y-66608309D01*
X125110426Y-66622035D01*
X125376870Y-66468203D01*
X125428550Y-66438366D01*
X125464877Y-66391024D01*
X125480321Y-66333384D01*
X133519679Y-66333384D01*
X133535123Y-66391024D01*
X133571450Y-66438366D01*
X133623130Y-66468203D01*
X133889574Y-66622035D01*
X133940799Y-66608309D01*
X134165799Y-66218598D01*
X134039003Y-66145392D01*
X134439005Y-66145392D01*
X134861192Y-66389142D01*
X134912418Y-66375417D01*
X135077336Y-66089769D01*
X135085125Y-66030606D01*
X135069681Y-65972966D01*
X135033354Y-65925624D01*
X134981674Y-65895787D01*
X134715230Y-65741955D01*
X134664005Y-65755681D01*
X134439005Y-66145392D01*
X134039003Y-66145392D01*
X133743612Y-65974848D01*
X133692386Y-65988573D01*
X133527468Y-66274221D01*
X133519679Y-66333384D01*
X125480321Y-66333384D01*
X125472532Y-66274221D01*
X125307614Y-65988573D01*
X125256388Y-65974848D01*
X124834201Y-66218598D01*
X124434198Y-66218598D01*
X124560995Y-66145392D01*
X124335995Y-65755681D01*
X124284770Y-65741955D01*
X124018326Y-65895787D01*
X123966646Y-65925624D01*
X123930319Y-65972966D01*
X123914875Y-66030606D01*
X123537714Y-66030606D01*
X123307960Y-65655681D01*
X124509201Y-65655681D01*
X124734201Y-66045392D01*
X125156388Y-65801642D01*
X125170114Y-65750417D01*
X133829886Y-65750417D01*
X133843612Y-65801642D01*
X134265799Y-66045392D01*
X134490799Y-65655681D01*
X134477074Y-65604455D01*
X134210630Y-65450624D01*
X134158950Y-65420787D01*
X134099787Y-65412998D01*
X134042147Y-65428442D01*
X133994805Y-65464769D01*
X133829886Y-65750417D01*
X125170114Y-65750417D01*
X125005195Y-65464769D01*
X124957853Y-65428442D01*
X124900213Y-65412998D01*
X124841050Y-65420787D01*
X124789370Y-65450624D01*
X124522926Y-65604455D01*
X124509201Y-65655681D01*
X123307960Y-65655681D01*
X123307642Y-65655163D01*
X123139646Y-65249583D01*
X123437582Y-65249583D01*
X123602501Y-65535231D01*
X123649843Y-65571558D01*
X123707483Y-65587002D01*
X123766646Y-65579213D01*
X123818326Y-65549376D01*
X124084770Y-65395545D01*
X124098495Y-65344319D01*
X134901505Y-65344319D01*
X134915230Y-65395545D01*
X135181674Y-65549376D01*
X135233354Y-65579213D01*
X135292517Y-65587002D01*
X135350157Y-65571558D01*
X135397499Y-65535231D01*
X135562418Y-65249583D01*
X135548692Y-65198358D01*
X135126505Y-64954608D01*
X134901505Y-65344319D01*
X124098495Y-65344319D01*
X123873495Y-64954608D01*
X123451308Y-65198358D01*
X123437582Y-65249583D01*
X123139646Y-65249583D01*
X122898173Y-64666616D01*
X123127375Y-64666616D01*
X123135164Y-64725779D01*
X123300082Y-65011427D01*
X123351308Y-65025152D01*
X123646698Y-64854608D01*
X124046701Y-64854608D01*
X124271701Y-65244319D01*
X124322926Y-65258045D01*
X124589370Y-65104213D01*
X124641050Y-65074376D01*
X124677377Y-65027034D01*
X124692821Y-64969394D01*
X134307179Y-64969394D01*
X134322623Y-65027034D01*
X134358950Y-65074376D01*
X134410630Y-65104213D01*
X134677074Y-65258045D01*
X134728299Y-65244319D01*
X134953299Y-64854608D01*
X134826503Y-64781402D01*
X135226505Y-64781402D01*
X135648692Y-65025152D01*
X135699918Y-65011427D01*
X135864836Y-64725779D01*
X135872625Y-64666616D01*
X135857181Y-64608976D01*
X135820854Y-64561634D01*
X135769174Y-64531797D01*
X135502730Y-64377965D01*
X135451505Y-64391691D01*
X135226505Y-64781402D01*
X134826503Y-64781402D01*
X134531112Y-64610858D01*
X134479886Y-64624583D01*
X134314968Y-64910231D01*
X134307179Y-64969394D01*
X124692821Y-64969394D01*
X124685032Y-64910231D01*
X124520114Y-64624583D01*
X124468888Y-64610858D01*
X124046701Y-64854608D01*
X123646698Y-64854608D01*
X123773495Y-64781402D01*
X123548495Y-64391691D01*
X123497270Y-64377965D01*
X123230826Y-64531797D01*
X123179146Y-64561634D01*
X123142819Y-64608976D01*
X123127375Y-64666616D01*
X122898173Y-64666616D01*
X122890305Y-64647623D01*
X122804854Y-64291691D01*
X123721701Y-64291691D01*
X123946701Y-64681402D01*
X124368888Y-64437652D01*
X124382614Y-64386427D01*
X124217695Y-64100779D01*
X124170353Y-64064452D01*
X124112713Y-64049008D01*
X124053550Y-64056797D01*
X124001870Y-64086634D01*
X123735426Y-64240465D01*
X123721701Y-64291691D01*
X122804854Y-64291691D01*
X122635719Y-63587193D01*
X122550155Y-62500000D01*
X122616044Y-61662800D01*
X127487283Y-61662800D01*
X127735251Y-61910769D01*
X127735250Y-62177924D01*
X127730451Y-62202050D01*
X127736894Y-62234439D01*
X127749466Y-62297643D01*
X127803615Y-62378685D01*
X127824074Y-62392355D01*
X127978517Y-62546798D01*
X127992185Y-62567255D01*
X128073226Y-62621404D01*
X128144694Y-62635620D01*
X128144695Y-62635620D01*
X128168819Y-62640419D01*
X128192944Y-62635620D01*
X128580755Y-62635620D01*
X128530821Y-62685554D01*
X128520820Y-62709698D01*
X128324781Y-62905738D01*
X128313366Y-62913365D01*
X128305739Y-62924780D01*
X128295040Y-62935479D01*
X128254556Y-62996067D01*
X128235541Y-63091660D01*
X128245001Y-63139217D01*
X128245000Y-63515874D01*
X128240201Y-63540000D01*
X128245000Y-63564125D01*
X128259216Y-63635593D01*
X128313365Y-63716635D01*
X128333824Y-63730305D01*
X129129697Y-64526179D01*
X129143365Y-64546635D01*
X129224406Y-64600784D01*
X129295874Y-64615000D01*
X129295875Y-64615000D01*
X129319999Y-64619799D01*
X129344124Y-64615000D01*
X131475874Y-64615000D01*
X131500000Y-64619799D01*
X131524126Y-64615000D01*
X131595594Y-64600784D01*
X131676635Y-64546635D01*
X131690305Y-64526176D01*
X131830054Y-64386427D01*
X134617386Y-64386427D01*
X134631112Y-64437652D01*
X135053299Y-64681402D01*
X135278299Y-64291691D01*
X135264574Y-64240465D01*
X134998130Y-64086634D01*
X134946450Y-64056797D01*
X134887287Y-64049008D01*
X134829647Y-64064452D01*
X134782305Y-64100779D01*
X134617386Y-64386427D01*
X131830054Y-64386427D01*
X135535227Y-60681256D01*
X135549633Y-60687223D01*
X135710751Y-60687223D01*
X135859606Y-60625565D01*
X135973534Y-60511637D01*
X136035192Y-60362782D01*
X136035192Y-60201664D01*
X135973534Y-60052809D01*
X135888959Y-59968234D01*
X135907800Y-59949393D01*
X135942773Y-59949393D01*
X136109695Y-60352377D01*
X136109695Y-60352377D01*
G37*
X136109695Y-60352377D02*
X136364281Y-61412807D01*
X136449845Y-62500000D01*
X136364281Y-63587193D01*
X136109695Y-64647623D01*
X135692358Y-65655163D01*
X135122541Y-66585020D01*
X134414283Y-67414283D01*
X133585020Y-68122541D01*
X132655163Y-68692358D01*
X131647623Y-69109695D01*
X130587193Y-69364281D01*
X129500000Y-69449845D01*
X128412807Y-69364281D01*
X127352377Y-69109695D01*
X126344837Y-68692358D01*
X125414980Y-68122541D01*
X124585717Y-67414283D01*
X123901846Y-66613573D01*
X124225082Y-66613573D01*
X124390001Y-66899221D01*
X124437343Y-66935548D01*
X124494983Y-66950992D01*
X124554146Y-66943203D01*
X124605826Y-66913366D01*
X124872270Y-66759535D01*
X124885995Y-66708309D01*
X134114005Y-66708309D01*
X134127730Y-66759535D01*
X134394174Y-66913366D01*
X134445854Y-66943203D01*
X134505017Y-66950992D01*
X134562657Y-66935548D01*
X134609999Y-66899221D01*
X134774918Y-66613573D01*
X134761192Y-66562348D01*
X134339005Y-66318598D01*
X134114005Y-66708309D01*
X124885995Y-66708309D01*
X124660995Y-66318598D01*
X124238808Y-66562348D01*
X124225082Y-66613573D01*
X123901846Y-66613573D01*
X123877459Y-66585020D01*
X123537714Y-66030606D01*
X123914875Y-66030606D01*
X123922664Y-66089769D01*
X124087582Y-66375417D01*
X124138808Y-66389142D01*
X124434198Y-66218598D01*
X124834201Y-66218598D01*
X125059201Y-66608309D01*
X125110426Y-66622035D01*
X125376870Y-66468203D01*
X125428550Y-66438366D01*
X125464877Y-66391024D01*
X125480321Y-66333384D01*
X133519679Y-66333384D01*
X133535123Y-66391024D01*
X133571450Y-66438366D01*
X133623130Y-66468203D01*
X133889574Y-66622035D01*
X133940799Y-66608309D01*
X134165799Y-66218598D01*
X134039003Y-66145392D01*
X134439005Y-66145392D01*
X134861192Y-66389142D01*
X134912418Y-66375417D01*
X135077336Y-66089769D01*
X135085125Y-66030606D01*
X135069681Y-65972966D01*
X135033354Y-65925624D01*
X134981674Y-65895787D01*
X134715230Y-65741955D01*
X134664005Y-65755681D01*
X134439005Y-66145392D01*
X134039003Y-66145392D01*
X133743612Y-65974848D01*
X133692386Y-65988573D01*
X133527468Y-66274221D01*
X133519679Y-66333384D01*
X125480321Y-66333384D01*
X125472532Y-66274221D01*
X125307614Y-65988573D01*
X125256388Y-65974848D01*
X124834201Y-66218598D01*
X124434198Y-66218598D01*
X124560995Y-66145392D01*
X124335995Y-65755681D01*
X124284770Y-65741955D01*
X124018326Y-65895787D01*
X123966646Y-65925624D01*
X123930319Y-65972966D01*
X123914875Y-66030606D01*
X123537714Y-66030606D01*
X123307960Y-65655681D01*
X124509201Y-65655681D01*
X124734201Y-66045392D01*
X125156388Y-65801642D01*
X125170114Y-65750417D01*
X133829886Y-65750417D01*
X133843612Y-65801642D01*
X134265799Y-66045392D01*
X134490799Y-65655681D01*
X134477074Y-65604455D01*
X134210630Y-65450624D01*
X134158950Y-65420787D01*
X134099787Y-65412998D01*
X134042147Y-65428442D01*
X133994805Y-65464769D01*
X133829886Y-65750417D01*
X125170114Y-65750417D01*
X125005195Y-65464769D01*
X124957853Y-65428442D01*
X124900213Y-65412998D01*
X124841050Y-65420787D01*
X124789370Y-65450624D01*
X124522926Y-65604455D01*
X124509201Y-65655681D01*
X123307960Y-65655681D01*
X123307642Y-65655163D01*
X123139646Y-65249583D01*
X123437582Y-65249583D01*
X123602501Y-65535231D01*
X123649843Y-65571558D01*
X123707483Y-65587002D01*
X123766646Y-65579213D01*
X123818326Y-65549376D01*
X124084770Y-65395545D01*
X124098495Y-65344319D01*
X134901505Y-65344319D01*
X134915230Y-65395545D01*
X135181674Y-65549376D01*
X135233354Y-65579213D01*
X135292517Y-65587002D01*
X135350157Y-65571558D01*
X135397499Y-65535231D01*
X135562418Y-65249583D01*
X135548692Y-65198358D01*
X135126505Y-64954608D01*
X134901505Y-65344319D01*
X124098495Y-65344319D01*
X123873495Y-64954608D01*
X123451308Y-65198358D01*
X123437582Y-65249583D01*
X123139646Y-65249583D01*
X122898173Y-64666616D01*
X123127375Y-64666616D01*
X123135164Y-64725779D01*
X123300082Y-65011427D01*
X123351308Y-65025152D01*
X123646698Y-64854608D01*
X124046701Y-64854608D01*
X124271701Y-65244319D01*
X124322926Y-65258045D01*
X124589370Y-65104213D01*
X124641050Y-65074376D01*
X124677377Y-65027034D01*
X124692821Y-64969394D01*
X134307179Y-64969394D01*
X134322623Y-65027034D01*
X134358950Y-65074376D01*
X134410630Y-65104213D01*
X134677074Y-65258045D01*
X134728299Y-65244319D01*
X134953299Y-64854608D01*
X134826503Y-64781402D01*
X135226505Y-64781402D01*
X135648692Y-65025152D01*
X135699918Y-65011427D01*
X135864836Y-64725779D01*
X135872625Y-64666616D01*
X135857181Y-64608976D01*
X135820854Y-64561634D01*
X135769174Y-64531797D01*
X135502730Y-64377965D01*
X135451505Y-64391691D01*
X135226505Y-64781402D01*
X134826503Y-64781402D01*
X134531112Y-64610858D01*
X134479886Y-64624583D01*
X134314968Y-64910231D01*
X134307179Y-64969394D01*
X124692821Y-64969394D01*
X124685032Y-64910231D01*
X124520114Y-64624583D01*
X124468888Y-64610858D01*
X124046701Y-64854608D01*
X123646698Y-64854608D01*
X123773495Y-64781402D01*
X123548495Y-64391691D01*
X123497270Y-64377965D01*
X123230826Y-64531797D01*
X123179146Y-64561634D01*
X123142819Y-64608976D01*
X123127375Y-64666616D01*
X122898173Y-64666616D01*
X122890305Y-64647623D01*
X122804854Y-64291691D01*
X123721701Y-64291691D01*
X123946701Y-64681402D01*
X124368888Y-64437652D01*
X124382614Y-64386427D01*
X124217695Y-64100779D01*
X124170353Y-64064452D01*
X124112713Y-64049008D01*
X124053550Y-64056797D01*
X124001870Y-64086634D01*
X123735426Y-64240465D01*
X123721701Y-64291691D01*
X122804854Y-64291691D01*
X122635719Y-63587193D01*
X122550155Y-62500000D01*
X122616044Y-61662800D01*
X127487283Y-61662800D01*
X127735251Y-61910769D01*
X127735250Y-62177924D01*
X127730451Y-62202050D01*
X127736894Y-62234439D01*
X127749466Y-62297643D01*
X127803615Y-62378685D01*
X127824074Y-62392355D01*
X127978517Y-62546798D01*
X127992185Y-62567255D01*
X128073226Y-62621404D01*
X128144694Y-62635620D01*
X128144695Y-62635620D01*
X128168819Y-62640419D01*
X128192944Y-62635620D01*
X128580755Y-62635620D01*
X128530821Y-62685554D01*
X128520820Y-62709698D01*
X128324781Y-62905738D01*
X128313366Y-62913365D01*
X128305739Y-62924780D01*
X128295040Y-62935479D01*
X128254556Y-62996067D01*
X128235541Y-63091660D01*
X128245001Y-63139217D01*
X128245000Y-63515874D01*
X128240201Y-63540000D01*
X128245000Y-63564125D01*
X128259216Y-63635593D01*
X128313365Y-63716635D01*
X128333824Y-63730305D01*
X129129697Y-64526179D01*
X129143365Y-64546635D01*
X129224406Y-64600784D01*
X129295874Y-64615000D01*
X129295875Y-64615000D01*
X129319999Y-64619799D01*
X129344124Y-64615000D01*
X131475874Y-64615000D01*
X131500000Y-64619799D01*
X131524126Y-64615000D01*
X131595594Y-64600784D01*
X131676635Y-64546635D01*
X131690305Y-64526176D01*
X131830054Y-64386427D01*
X134617386Y-64386427D01*
X134631112Y-64437652D01*
X135053299Y-64681402D01*
X135278299Y-64291691D01*
X135264574Y-64240465D01*
X134998130Y-64086634D01*
X134946450Y-64056797D01*
X134887287Y-64049008D01*
X134829647Y-64064452D01*
X134782305Y-64100779D01*
X134617386Y-64386427D01*
X131830054Y-64386427D01*
X135535227Y-60681256D01*
X135549633Y-60687223D01*
X135710751Y-60687223D01*
X135859606Y-60625565D01*
X135973534Y-60511637D01*
X136035192Y-60362782D01*
X136035192Y-60201664D01*
X135973534Y-60052809D01*
X135888959Y-59968234D01*
X135907800Y-59949393D01*
X135942773Y-59949393D01*
X136109695Y-60352377D01*
G36*
X130587193Y-55635719D02*
X131647623Y-55890305D01*
X132655163Y-56307642D01*
X133585020Y-56877459D01*
X134388798Y-57563951D01*
X134388798Y-57937727D01*
X134353408Y-57902337D01*
X134353408Y-57820076D01*
X134291750Y-57671221D01*
X134177822Y-57557293D01*
X134028967Y-57495635D01*
X133867849Y-57495635D01*
X133718994Y-57557293D01*
X133605066Y-57671221D01*
X133543408Y-57820076D01*
X133543408Y-57981194D01*
X133605066Y-58130049D01*
X133673076Y-58198059D01*
X133635683Y-58235452D01*
X132240274Y-58235452D01*
X132216148Y-58230653D01*
X132192022Y-58235452D01*
X132120554Y-58249668D01*
X132039513Y-58303817D01*
X132025847Y-58324270D01*
X128829016Y-61521103D01*
X128805554Y-61530821D01*
X128733821Y-61602554D01*
X128695000Y-61696277D01*
X128695000Y-61790298D01*
X128642526Y-61779860D01*
X128618400Y-61775061D01*
X128594274Y-61779860D01*
X128485260Y-61779860D01*
X128485260Y-61725711D01*
X128490059Y-61701586D01*
X128476444Y-61633141D01*
X128471044Y-61605993D01*
X128416895Y-61524952D01*
X128396439Y-61511284D01*
X127874998Y-60989844D01*
X127861328Y-60969385D01*
X127780287Y-60915236D01*
X127708819Y-60901020D01*
X127684693Y-60896221D01*
X127660567Y-60901020D01*
X122758588Y-60901020D01*
X122890305Y-60352377D01*
X123307642Y-59344837D01*
X123877459Y-58414980D01*
X124585717Y-57585717D01*
X125414980Y-56877459D01*
X125806557Y-56637500D01*
X128125000Y-56637500D01*
X128125000Y-57004837D01*
X128147836Y-57059968D01*
X128190032Y-57102164D01*
X128245163Y-57125000D01*
X128575000Y-57125000D01*
X128612500Y-57087500D01*
X128612500Y-56600000D01*
X128812500Y-56600000D01*
X128812500Y-57087500D01*
X128850000Y-57125000D01*
X129179837Y-57125000D01*
X129234968Y-57102164D01*
X129277164Y-57059968D01*
X129300000Y-57004837D01*
X129300000Y-56637500D01*
X129700000Y-56637500D01*
X129700000Y-57004837D01*
X129722836Y-57059968D01*
X129765032Y-57102164D01*
X129820163Y-57125000D01*
X130150000Y-57125000D01*
X130187500Y-57087500D01*
X130187500Y-56600000D01*
X130387500Y-56600000D01*
X130387500Y-57087500D01*
X130425000Y-57125000D01*
X130754837Y-57125000D01*
X130809968Y-57102164D01*
X130852164Y-57059968D01*
X130875000Y-57004837D01*
X130875000Y-56637500D01*
X130837500Y-56600000D01*
X130387500Y-56600000D01*
X130187500Y-56600000D01*
X129737500Y-56600000D01*
X129700000Y-56637500D01*
X129300000Y-56637500D01*
X129262500Y-56600000D01*
X128812500Y-56600000D01*
X128612500Y-56600000D01*
X128162500Y-56600000D01*
X128125000Y-56637500D01*
X125806557Y-56637500D01*
X126344837Y-56307642D01*
X127099227Y-55995163D01*
X128125000Y-55995163D01*
X128125000Y-56362500D01*
X128162500Y-56400000D01*
X128612500Y-56400000D01*
X128612500Y-55912500D01*
X128812500Y-55912500D01*
X128812500Y-56400000D01*
X129262500Y-56400000D01*
X129300000Y-56362500D01*
X129300000Y-55995163D01*
X129700000Y-55995163D01*
X129700000Y-56362500D01*
X129737500Y-56400000D01*
X130187500Y-56400000D01*
X130187500Y-55912500D01*
X130387500Y-55912500D01*
X130387500Y-56400000D01*
X130837500Y-56400000D01*
X130875000Y-56362500D01*
X130875000Y-55995163D01*
X130852164Y-55940032D01*
X130809968Y-55897836D01*
X130754837Y-55875000D01*
X130425000Y-55875000D01*
X130387500Y-55912500D01*
X130187500Y-55912500D01*
X130150000Y-55875000D01*
X129820163Y-55875000D01*
X129765032Y-55897836D01*
X129722836Y-55940032D01*
X129700000Y-55995163D01*
X129300000Y-55995163D01*
X129277164Y-55940032D01*
X129234968Y-55897836D01*
X129179837Y-55875000D01*
X128850000Y-55875000D01*
X128812500Y-55912500D01*
X128612500Y-55912500D01*
X128575000Y-55875000D01*
X128245163Y-55875000D01*
X128190032Y-55897836D01*
X128147836Y-55940032D01*
X128125000Y-55995163D01*
X127099227Y-55995163D01*
X127352377Y-55890305D01*
X128412807Y-55635719D01*
X129500000Y-55550155D01*
X130587193Y-55635719D01*
X130587193Y-55635719D01*
G37*
X130587193Y-55635719D02*
X131647623Y-55890305D01*
X132655163Y-56307642D01*
X133585020Y-56877459D01*
X134388798Y-57563951D01*
X134388798Y-57937727D01*
X134353408Y-57902337D01*
X134353408Y-57820076D01*
X134291750Y-57671221D01*
X134177822Y-57557293D01*
X134028967Y-57495635D01*
X133867849Y-57495635D01*
X133718994Y-57557293D01*
X133605066Y-57671221D01*
X133543408Y-57820076D01*
X133543408Y-57981194D01*
X133605066Y-58130049D01*
X133673076Y-58198059D01*
X133635683Y-58235452D01*
X132240274Y-58235452D01*
X132216148Y-58230653D01*
X132192022Y-58235452D01*
X132120554Y-58249668D01*
X132039513Y-58303817D01*
X132025847Y-58324270D01*
X128829016Y-61521103D01*
X128805554Y-61530821D01*
X128733821Y-61602554D01*
X128695000Y-61696277D01*
X128695000Y-61790298D01*
X128642526Y-61779860D01*
X128618400Y-61775061D01*
X128594274Y-61779860D01*
X128485260Y-61779860D01*
X128485260Y-61725711D01*
X128490059Y-61701586D01*
X128476444Y-61633141D01*
X128471044Y-61605993D01*
X128416895Y-61524952D01*
X128396439Y-61511284D01*
X127874998Y-60989844D01*
X127861328Y-60969385D01*
X127780287Y-60915236D01*
X127708819Y-60901020D01*
X127684693Y-60896221D01*
X127660567Y-60901020D01*
X122758588Y-60901020D01*
X122890305Y-60352377D01*
X123307642Y-59344837D01*
X123877459Y-58414980D01*
X124585717Y-57585717D01*
X125414980Y-56877459D01*
X125806557Y-56637500D01*
X128125000Y-56637500D01*
X128125000Y-57004837D01*
X128147836Y-57059968D01*
X128190032Y-57102164D01*
X128245163Y-57125000D01*
X128575000Y-57125000D01*
X128612500Y-57087500D01*
X128612500Y-56600000D01*
X128812500Y-56600000D01*
X128812500Y-57087500D01*
X128850000Y-57125000D01*
X129179837Y-57125000D01*
X129234968Y-57102164D01*
X129277164Y-57059968D01*
X129300000Y-57004837D01*
X129300000Y-56637500D01*
X129700000Y-56637500D01*
X129700000Y-57004837D01*
X129722836Y-57059968D01*
X129765032Y-57102164D01*
X129820163Y-57125000D01*
X130150000Y-57125000D01*
X130187500Y-57087500D01*
X130187500Y-56600000D01*
X130387500Y-56600000D01*
X130387500Y-57087500D01*
X130425000Y-57125000D01*
X130754837Y-57125000D01*
X130809968Y-57102164D01*
X130852164Y-57059968D01*
X130875000Y-57004837D01*
X130875000Y-56637500D01*
X130837500Y-56600000D01*
X130387500Y-56600000D01*
X130187500Y-56600000D01*
X129737500Y-56600000D01*
X129700000Y-56637500D01*
X129300000Y-56637500D01*
X129262500Y-56600000D01*
X128812500Y-56600000D01*
X128612500Y-56600000D01*
X128162500Y-56600000D01*
X128125000Y-56637500D01*
X125806557Y-56637500D01*
X126344837Y-56307642D01*
X127099227Y-55995163D01*
X128125000Y-55995163D01*
X128125000Y-56362500D01*
X128162500Y-56400000D01*
X128612500Y-56400000D01*
X128612500Y-55912500D01*
X128812500Y-55912500D01*
X128812500Y-56400000D01*
X129262500Y-56400000D01*
X129300000Y-56362500D01*
X129300000Y-55995163D01*
X129700000Y-55995163D01*
X129700000Y-56362500D01*
X129737500Y-56400000D01*
X130187500Y-56400000D01*
X130187500Y-55912500D01*
X130387500Y-55912500D01*
X130387500Y-56400000D01*
X130837500Y-56400000D01*
X130875000Y-56362500D01*
X130875000Y-55995163D01*
X130852164Y-55940032D01*
X130809968Y-55897836D01*
X130754837Y-55875000D01*
X130425000Y-55875000D01*
X130387500Y-55912500D01*
X130187500Y-55912500D01*
X130150000Y-55875000D01*
X129820163Y-55875000D01*
X129765032Y-55897836D01*
X129722836Y-55940032D01*
X129700000Y-55995163D01*
X129300000Y-55995163D01*
X129277164Y-55940032D01*
X129234968Y-55897836D01*
X129179837Y-55875000D01*
X128850000Y-55875000D01*
X128812500Y-55912500D01*
X128612500Y-55912500D01*
X128575000Y-55875000D01*
X128245163Y-55875000D01*
X128190032Y-55897836D01*
X128147836Y-55940032D01*
X128125000Y-55995163D01*
X127099227Y-55995163D01*
X127352377Y-55890305D01*
X128412807Y-55635719D01*
X129500000Y-55550155D01*
X130587193Y-55635719D01*
G04 #@! TD*
M02*
