G04 #@! TF.GenerationSoftware,KiCad,Pcbnew,5.0.2-bee76a0~70~ubuntu18.04.1*
G04 #@! TF.CreationDate,2019-07-08T07:54:46+02:00*
G04 #@! TF.ProjectId,lower_Sensor,6c6f7765-725f-4536-956e-736f722e6b69,rev?*
G04 #@! TF.SameCoordinates,Original*
G04 #@! TF.FileFunction,Soldermask,Bot*
G04 #@! TF.FilePolarity,Negative*
%FSLAX46Y46*%
G04 Gerber Fmt 4.6, Leading zero omitted, Abs format (unit mm)*
G04 Created by KiCad (PCBNEW 5.0.2-bee76a0~70~ubuntu18.04.1) date Mo 08 Jul 2019 07:54:46 CEST*
%MOMM*%
%LPD*%
G01*
G04 APERTURE LIST*
%ADD10C,0.100000*%
G04 APERTURE END LIST*
D10*
G36*
X105068372Y-89485778D02*
X105195949Y-89538622D01*
X105310765Y-89615340D01*
X105408400Y-89712975D01*
X105485118Y-89827791D01*
X105537962Y-89955368D01*
X105564900Y-90090796D01*
X105564900Y-90228884D01*
X105537962Y-90364312D01*
X105485118Y-90491889D01*
X105408400Y-90606705D01*
X105310765Y-90704340D01*
X105195949Y-90781058D01*
X105068372Y-90833902D01*
X104932944Y-90860840D01*
X104794856Y-90860840D01*
X104659428Y-90833902D01*
X104531851Y-90781058D01*
X104417035Y-90704340D01*
X104319400Y-90606705D01*
X104242682Y-90491889D01*
X104189838Y-90364312D01*
X104162900Y-90228884D01*
X104162900Y-90090796D01*
X104189838Y-89955368D01*
X104242682Y-89827791D01*
X104319400Y-89712975D01*
X104417035Y-89615340D01*
X104531851Y-89538622D01*
X104659428Y-89485778D01*
X104794856Y-89458840D01*
X104932944Y-89458840D01*
X105068372Y-89485778D01*
X105068372Y-89485778D01*
G37*
G36*
X117831872Y-87745878D02*
X117959449Y-87798722D01*
X118074265Y-87875440D01*
X118171900Y-87973075D01*
X118248618Y-88087891D01*
X118301462Y-88215468D01*
X118328400Y-88350896D01*
X118328400Y-88488984D01*
X118301462Y-88624412D01*
X118248618Y-88751989D01*
X118171900Y-88866805D01*
X118074265Y-88964440D01*
X117959449Y-89041158D01*
X117831872Y-89094002D01*
X117696444Y-89120940D01*
X117558356Y-89120940D01*
X117422928Y-89094002D01*
X117295351Y-89041158D01*
X117180535Y-88964440D01*
X117082900Y-88866805D01*
X117006182Y-88751989D01*
X116953338Y-88624412D01*
X116926400Y-88488984D01*
X116926400Y-88350896D01*
X116953338Y-88215468D01*
X117006182Y-88087891D01*
X117082900Y-87973075D01*
X117180535Y-87875440D01*
X117295351Y-87798722D01*
X117422928Y-87745878D01*
X117558356Y-87718940D01*
X117696444Y-87718940D01*
X117831872Y-87745878D01*
X117831872Y-87745878D01*
G37*
G36*
X119193312Y-86310778D02*
X119320889Y-86363622D01*
X119435705Y-86440340D01*
X119533340Y-86537975D01*
X119610058Y-86652791D01*
X119662902Y-86780368D01*
X119689840Y-86915796D01*
X119689840Y-87053884D01*
X119662902Y-87189312D01*
X119610058Y-87316889D01*
X119533340Y-87431705D01*
X119435705Y-87529340D01*
X119320889Y-87606058D01*
X119193312Y-87658902D01*
X119057884Y-87685840D01*
X118919796Y-87685840D01*
X118784368Y-87658902D01*
X118656791Y-87606058D01*
X118541975Y-87529340D01*
X118444340Y-87431705D01*
X118367622Y-87316889D01*
X118314778Y-87189312D01*
X118287840Y-87053884D01*
X118287840Y-86915796D01*
X118314778Y-86780368D01*
X118367622Y-86652791D01*
X118444340Y-86537975D01*
X118541975Y-86440340D01*
X118656791Y-86363622D01*
X118784368Y-86310778D01*
X118919796Y-86283840D01*
X119057884Y-86283840D01*
X119193312Y-86310778D01*
X119193312Y-86310778D01*
G37*
G36*
X120282972Y-84629298D02*
X120410549Y-84682142D01*
X120525365Y-84758860D01*
X120623000Y-84856495D01*
X120699718Y-84971311D01*
X120752562Y-85098888D01*
X120779500Y-85234316D01*
X120779500Y-85372404D01*
X120752562Y-85507832D01*
X120699718Y-85635409D01*
X120623000Y-85750225D01*
X120525365Y-85847860D01*
X120410549Y-85924578D01*
X120282972Y-85977422D01*
X120147544Y-86004360D01*
X120009456Y-86004360D01*
X119874028Y-85977422D01*
X119746451Y-85924578D01*
X119631635Y-85847860D01*
X119534000Y-85750225D01*
X119457282Y-85635409D01*
X119404438Y-85507832D01*
X119377500Y-85372404D01*
X119377500Y-85234316D01*
X119404438Y-85098888D01*
X119457282Y-84971311D01*
X119534000Y-84856495D01*
X119631635Y-84758860D01*
X119746451Y-84682142D01*
X119874028Y-84629298D01*
X120009456Y-84602360D01*
X120147544Y-84602360D01*
X120282972Y-84629298D01*
X120282972Y-84629298D01*
G37*
G36*
X110160721Y-79470174D02*
X110260995Y-79511709D01*
X110351245Y-79572012D01*
X110427988Y-79648755D01*
X110488291Y-79739005D01*
X110529826Y-79839279D01*
X110551000Y-79945730D01*
X110551000Y-80054270D01*
X110529826Y-80160721D01*
X110488291Y-80260995D01*
X110427988Y-80351245D01*
X110351245Y-80427988D01*
X110260995Y-80488291D01*
X110160721Y-80529826D01*
X110054270Y-80551000D01*
X109945730Y-80551000D01*
X109839279Y-80529826D01*
X109739005Y-80488291D01*
X109648755Y-80427988D01*
X109572012Y-80351245D01*
X109511709Y-80260995D01*
X109470174Y-80160721D01*
X109449000Y-80054270D01*
X109449000Y-79945730D01*
X109470174Y-79839279D01*
X109511709Y-79739005D01*
X109572012Y-79648755D01*
X109648755Y-79572012D01*
X109739005Y-79511709D01*
X109839279Y-79470174D01*
X109945730Y-79449000D01*
X110054270Y-79449000D01*
X110160721Y-79470174D01*
X110160721Y-79470174D01*
G37*
G36*
X115040412Y-69051478D02*
X115167989Y-69104322D01*
X115282805Y-69181040D01*
X115380440Y-69278675D01*
X115457158Y-69393491D01*
X115510002Y-69521068D01*
X115536940Y-69656496D01*
X115536940Y-69794585D01*
X115534662Y-69806038D01*
X115532260Y-69830424D01*
X115534662Y-69854810D01*
X115541775Y-69878259D01*
X115553327Y-69899870D01*
X115568872Y-69918812D01*
X115587815Y-69934357D01*
X115609426Y-69945908D01*
X115632875Y-69953021D01*
X115657261Y-69955423D01*
X115681647Y-69953021D01*
X115705096Y-69945908D01*
X115726706Y-69934357D01*
X115839931Y-69858702D01*
X115967508Y-69805858D01*
X116102936Y-69778920D01*
X116241024Y-69778920D01*
X116376452Y-69805858D01*
X116504029Y-69858702D01*
X116618845Y-69935420D01*
X116716480Y-70033055D01*
X116793198Y-70147871D01*
X116846042Y-70275448D01*
X116872980Y-70410876D01*
X116872980Y-70548964D01*
X116859676Y-70615848D01*
X116857274Y-70640234D01*
X116859676Y-70664620D01*
X116866789Y-70688070D01*
X116878340Y-70709680D01*
X116893886Y-70728622D01*
X116912828Y-70744168D01*
X116934439Y-70755719D01*
X116957888Y-70762832D01*
X116982274Y-70765234D01*
X117006660Y-70762832D01*
X117030110Y-70755719D01*
X117040554Y-70750137D01*
X117046431Y-70747703D01*
X117046432Y-70747702D01*
X117138225Y-70709680D01*
X117174008Y-70694858D01*
X117309436Y-70667920D01*
X117447524Y-70667920D01*
X117582952Y-70694858D01*
X117710529Y-70747702D01*
X117825345Y-70824420D01*
X117922980Y-70922055D01*
X117999698Y-71036871D01*
X118052542Y-71164448D01*
X118079480Y-71299876D01*
X118079480Y-71437964D01*
X118052542Y-71573391D01*
X118039367Y-71605199D01*
X118032254Y-71628648D01*
X118029852Y-71653034D01*
X118032254Y-71677421D01*
X118039367Y-71700870D01*
X118050918Y-71722481D01*
X118066463Y-71741423D01*
X118085405Y-71756968D01*
X118107016Y-71768520D01*
X118130465Y-71775633D01*
X118154851Y-71778035D01*
X118179238Y-71775633D01*
X118202687Y-71768520D01*
X118256046Y-71746418D01*
X118391476Y-71719480D01*
X118529564Y-71719480D01*
X118664992Y-71746418D01*
X118792569Y-71799262D01*
X118907385Y-71875980D01*
X119005020Y-71973615D01*
X119081738Y-72088431D01*
X119134582Y-72216008D01*
X119161520Y-72351436D01*
X119161520Y-72489524D01*
X119134582Y-72624954D01*
X119079702Y-72757446D01*
X119072589Y-72780895D01*
X119070187Y-72805281D01*
X119072589Y-72829667D01*
X119079702Y-72853117D01*
X119091253Y-72874727D01*
X119106799Y-72893669D01*
X119125741Y-72909215D01*
X119147352Y-72920766D01*
X119170801Y-72927879D01*
X119195187Y-72930281D01*
X119219573Y-72927879D01*
X119331276Y-72905660D01*
X119469364Y-72905660D01*
X119604792Y-72932598D01*
X119732369Y-72985442D01*
X119847185Y-73062160D01*
X119944820Y-73159795D01*
X120021538Y-73274611D01*
X120074382Y-73402188D01*
X120101320Y-73537616D01*
X120101320Y-73675704D01*
X120074382Y-73811132D01*
X120021538Y-73938709D01*
X119948630Y-74047823D01*
X119937079Y-74069433D01*
X119929966Y-74092883D01*
X119927564Y-74117269D01*
X119929966Y-74141655D01*
X119937079Y-74165104D01*
X119948630Y-74186715D01*
X119964176Y-74205657D01*
X119983118Y-74221203D01*
X120004728Y-74232754D01*
X120028178Y-74239867D01*
X120052564Y-74242269D01*
X120076948Y-74239868D01*
X120093278Y-74236620D01*
X120231364Y-74236620D01*
X120366792Y-74263558D01*
X120494369Y-74316402D01*
X120609185Y-74393120D01*
X120706820Y-74490755D01*
X120783538Y-74605571D01*
X120836382Y-74733148D01*
X120863320Y-74868576D01*
X120863320Y-75006664D01*
X120836382Y-75142092D01*
X120783538Y-75269669D01*
X120706820Y-75384485D01*
X120691393Y-75399912D01*
X120675847Y-75418854D01*
X120664296Y-75440465D01*
X120657183Y-75463914D01*
X120654781Y-75488300D01*
X120657183Y-75512686D01*
X120664296Y-75536135D01*
X120675847Y-75557746D01*
X120691393Y-75576688D01*
X120710335Y-75592234D01*
X120731946Y-75603785D01*
X120755395Y-75610898D01*
X120779781Y-75613300D01*
X120800324Y-75613300D01*
X120935752Y-75640238D01*
X121063329Y-75693082D01*
X121178145Y-75769800D01*
X121275780Y-75867435D01*
X121352498Y-75982251D01*
X121405342Y-76109828D01*
X121432280Y-76245256D01*
X121432280Y-76383344D01*
X121405342Y-76518772D01*
X121352498Y-76646349D01*
X121275780Y-76761165D01*
X121172736Y-76864209D01*
X121157190Y-76883151D01*
X121145639Y-76904762D01*
X121138526Y-76928211D01*
X121136124Y-76952597D01*
X121138526Y-76976983D01*
X121145639Y-77000432D01*
X121157190Y-77022043D01*
X121172736Y-77040985D01*
X121191678Y-77056531D01*
X121213289Y-77068082D01*
X121236738Y-77075195D01*
X121339611Y-77095658D01*
X121339613Y-77095659D01*
X121339614Y-77095659D01*
X121367083Y-77107037D01*
X121467189Y-77148502D01*
X121582005Y-77225220D01*
X121679640Y-77322855D01*
X121756358Y-77437671D01*
X121809202Y-77565248D01*
X121836140Y-77700676D01*
X121836140Y-77838764D01*
X121809202Y-77974192D01*
X121756358Y-78101769D01*
X121679640Y-78216585D01*
X121582005Y-78314220D01*
X121467189Y-78390938D01*
X121339612Y-78443782D01*
X121204184Y-78470720D01*
X121066096Y-78470720D01*
X120930668Y-78443782D01*
X120803091Y-78390938D01*
X120688275Y-78314220D01*
X120590640Y-78216585D01*
X120513922Y-78101769D01*
X120461078Y-77974192D01*
X120434140Y-77838764D01*
X120434140Y-77700676D01*
X120461078Y-77565248D01*
X120513922Y-77437671D01*
X120590640Y-77322855D01*
X120693684Y-77219811D01*
X120709230Y-77200869D01*
X120720781Y-77179258D01*
X120727894Y-77155809D01*
X120730296Y-77131423D01*
X120727894Y-77107037D01*
X120720781Y-77083588D01*
X120709230Y-77061977D01*
X120693684Y-77043035D01*
X120674742Y-77027489D01*
X120653131Y-77015938D01*
X120629682Y-77008825D01*
X120526809Y-76988362D01*
X120526807Y-76988361D01*
X120526806Y-76988361D01*
X120479682Y-76968841D01*
X120399231Y-76935518D01*
X120284415Y-76858800D01*
X120186780Y-76761165D01*
X120110062Y-76646349D01*
X120057218Y-76518772D01*
X120030280Y-76383344D01*
X120030280Y-76245256D01*
X120057218Y-76109828D01*
X120110062Y-75982251D01*
X120186780Y-75867435D01*
X120202207Y-75852008D01*
X120217753Y-75833066D01*
X120229304Y-75811455D01*
X120236417Y-75788006D01*
X120238819Y-75763620D01*
X120236417Y-75739234D01*
X120229304Y-75715785D01*
X120217753Y-75694174D01*
X120202207Y-75675232D01*
X120183265Y-75659686D01*
X120161654Y-75648135D01*
X120138205Y-75641022D01*
X120113819Y-75638620D01*
X120093276Y-75638620D01*
X119957848Y-75611682D01*
X119830271Y-75558838D01*
X119715455Y-75482120D01*
X119617820Y-75384485D01*
X119541102Y-75269669D01*
X119488258Y-75142092D01*
X119461320Y-75006664D01*
X119461320Y-74868576D01*
X119488258Y-74733148D01*
X119541102Y-74605571D01*
X119614010Y-74496457D01*
X119625561Y-74474847D01*
X119632674Y-74451397D01*
X119635076Y-74427011D01*
X119632674Y-74402625D01*
X119625561Y-74379176D01*
X119614010Y-74357565D01*
X119598464Y-74338623D01*
X119579522Y-74323077D01*
X119557912Y-74311526D01*
X119534462Y-74304413D01*
X119510076Y-74302011D01*
X119485692Y-74304412D01*
X119469362Y-74307660D01*
X119331276Y-74307660D01*
X119195848Y-74280722D01*
X119068271Y-74227878D01*
X118953455Y-74151160D01*
X118855820Y-74053525D01*
X118779102Y-73938709D01*
X118726258Y-73811132D01*
X118699320Y-73675704D01*
X118699320Y-73537616D01*
X118726258Y-73402186D01*
X118781138Y-73269694D01*
X118788251Y-73246245D01*
X118790653Y-73221859D01*
X118788251Y-73197473D01*
X118781138Y-73174023D01*
X118769587Y-73152413D01*
X118754041Y-73133471D01*
X118735099Y-73117925D01*
X118713488Y-73106374D01*
X118690039Y-73099261D01*
X118665653Y-73096859D01*
X118641267Y-73099261D01*
X118529564Y-73121480D01*
X118391476Y-73121480D01*
X118256048Y-73094542D01*
X118128471Y-73041698D01*
X118013655Y-72964980D01*
X117916020Y-72867345D01*
X117839302Y-72752529D01*
X117786458Y-72624952D01*
X117759520Y-72489524D01*
X117759520Y-72351436D01*
X117786458Y-72216009D01*
X117787409Y-72213714D01*
X117799633Y-72184201D01*
X117806746Y-72160752D01*
X117809148Y-72136366D01*
X117806746Y-72111979D01*
X117799633Y-72088530D01*
X117788082Y-72066919D01*
X117772537Y-72047977D01*
X117753595Y-72032432D01*
X117731984Y-72020880D01*
X117708535Y-72013767D01*
X117684149Y-72011365D01*
X117659762Y-72013767D01*
X117636313Y-72020880D01*
X117582954Y-72042982D01*
X117447524Y-72069920D01*
X117309436Y-72069920D01*
X117174008Y-72042982D01*
X117046431Y-71990138D01*
X116931615Y-71913420D01*
X116833980Y-71815785D01*
X116757262Y-71700969D01*
X116704418Y-71573392D01*
X116677480Y-71437964D01*
X116677480Y-71299876D01*
X116690784Y-71232992D01*
X116693186Y-71208606D01*
X116690784Y-71184220D01*
X116683671Y-71160770D01*
X116672120Y-71139160D01*
X116656574Y-71120218D01*
X116637632Y-71104672D01*
X116616021Y-71093121D01*
X116592572Y-71086008D01*
X116568186Y-71083606D01*
X116543800Y-71086008D01*
X116520350Y-71093121D01*
X116509906Y-71098703D01*
X116504029Y-71101137D01*
X116504028Y-71101138D01*
X116495496Y-71104672D01*
X116376452Y-71153982D01*
X116241024Y-71180920D01*
X116102936Y-71180920D01*
X115967508Y-71153982D01*
X115839931Y-71101138D01*
X115725115Y-71024420D01*
X115627480Y-70926785D01*
X115550762Y-70811969D01*
X115497918Y-70684392D01*
X115470980Y-70548964D01*
X115470980Y-70410875D01*
X115473258Y-70399422D01*
X115475660Y-70375036D01*
X115473258Y-70350650D01*
X115466145Y-70327201D01*
X115454593Y-70305590D01*
X115439048Y-70286648D01*
X115420105Y-70271103D01*
X115398494Y-70259552D01*
X115375045Y-70252439D01*
X115350659Y-70250037D01*
X115326273Y-70252439D01*
X115302824Y-70259552D01*
X115281214Y-70271103D01*
X115167989Y-70346758D01*
X115040412Y-70399602D01*
X114904984Y-70426540D01*
X114766896Y-70426540D01*
X114631468Y-70399602D01*
X114503891Y-70346758D01*
X114389075Y-70270040D01*
X114291440Y-70172405D01*
X114214722Y-70057589D01*
X114161878Y-69930012D01*
X114134940Y-69794584D01*
X114134940Y-69656496D01*
X114161878Y-69521068D01*
X114214722Y-69393491D01*
X114291440Y-69278675D01*
X114389075Y-69181040D01*
X114503891Y-69104322D01*
X114631468Y-69051478D01*
X114766896Y-69024540D01*
X114904984Y-69024540D01*
X115040412Y-69051478D01*
X115040412Y-69051478D01*
G37*
G36*
X99132392Y-76831498D02*
X99259969Y-76884342D01*
X99374785Y-76961060D01*
X99472420Y-77058695D01*
X99549138Y-77173511D01*
X99601982Y-77301088D01*
X99628920Y-77436516D01*
X99628920Y-77574604D01*
X99601982Y-77710032D01*
X99549138Y-77837609D01*
X99472420Y-77952425D01*
X99374785Y-78050060D01*
X99259969Y-78126778D01*
X99132392Y-78179622D01*
X98996964Y-78206560D01*
X98858876Y-78206560D01*
X98723448Y-78179622D01*
X98595871Y-78126778D01*
X98481055Y-78050060D01*
X98383420Y-77952425D01*
X98306702Y-77837609D01*
X98253858Y-77710032D01*
X98226920Y-77574604D01*
X98226920Y-77436516D01*
X98253858Y-77301088D01*
X98306702Y-77173511D01*
X98383420Y-77058695D01*
X98481055Y-76961060D01*
X98595871Y-76884342D01*
X98723448Y-76831498D01*
X98858876Y-76804560D01*
X98996964Y-76804560D01*
X99132392Y-76831498D01*
X99132392Y-76831498D01*
G37*
G36*
X99815652Y-74756318D02*
X99943229Y-74809162D01*
X100058045Y-74885880D01*
X100155680Y-74983515D01*
X100232398Y-75098331D01*
X100285242Y-75225908D01*
X100312180Y-75361336D01*
X100312180Y-75499424D01*
X100285242Y-75634852D01*
X100232398Y-75762429D01*
X100155680Y-75877245D01*
X100058045Y-75974880D01*
X99943229Y-76051598D01*
X99815652Y-76104442D01*
X99680224Y-76131380D01*
X99542136Y-76131380D01*
X99406708Y-76104442D01*
X99279131Y-76051598D01*
X99164315Y-75974880D01*
X99066680Y-75877245D01*
X98989962Y-75762429D01*
X98937118Y-75634852D01*
X98910180Y-75499424D01*
X98910180Y-75361336D01*
X98937118Y-75225908D01*
X98989962Y-75098331D01*
X99066680Y-74983515D01*
X99164315Y-74885880D01*
X99279131Y-74809162D01*
X99406708Y-74756318D01*
X99542136Y-74729380D01*
X99680224Y-74729380D01*
X99815652Y-74756318D01*
X99815652Y-74756318D01*
G37*
G36*
X124568372Y-71985778D02*
X124695949Y-72038622D01*
X124810765Y-72115340D01*
X124908400Y-72212975D01*
X124985118Y-72327791D01*
X125037962Y-72455368D01*
X125064900Y-72590796D01*
X125064900Y-72728884D01*
X125037962Y-72864312D01*
X124985118Y-72991889D01*
X124908400Y-73106705D01*
X124810765Y-73204340D01*
X124695949Y-73281058D01*
X124568372Y-73333902D01*
X124432944Y-73360840D01*
X124294856Y-73360840D01*
X124159428Y-73333902D01*
X124031851Y-73281058D01*
X123917035Y-73204340D01*
X123819400Y-73106705D01*
X123742682Y-72991889D01*
X123689838Y-72864312D01*
X123662900Y-72728884D01*
X123662900Y-72590796D01*
X123689838Y-72455368D01*
X123742682Y-72327791D01*
X123819400Y-72212975D01*
X123917035Y-72115340D01*
X124031851Y-72038622D01*
X124159428Y-71985778D01*
X124294856Y-71958840D01*
X124432944Y-71958840D01*
X124568372Y-71985778D01*
X124568372Y-71985778D01*
G37*
G36*
X118598402Y-70627536D02*
X118633846Y-70634586D01*
X118670425Y-70649738D01*
X118670427Y-70649739D01*
X118676699Y-70653930D01*
X118692698Y-70664620D01*
X118703347Y-70671736D01*
X118731342Y-70699731D01*
X118749866Y-70727453D01*
X118753340Y-70732653D01*
X118768492Y-70769232D01*
X118776216Y-70808065D01*
X118776216Y-70847659D01*
X118770791Y-70874932D01*
X118768390Y-70899311D01*
X118770792Y-70923697D01*
X118777905Y-70947146D01*
X118789456Y-70968757D01*
X118805001Y-70987700D01*
X118823943Y-71003245D01*
X118845553Y-71014796D01*
X118869003Y-71021910D01*
X118893389Y-71024312D01*
X118917776Y-71021910D01*
X118947252Y-71016047D01*
X118986848Y-71016047D01*
X118996555Y-71017978D01*
X119025680Y-71023771D01*
X119062259Y-71038923D01*
X119062261Y-71038924D01*
X119077131Y-71048860D01*
X119095180Y-71060920D01*
X119123177Y-71088917D01*
X119131343Y-71101138D01*
X119144469Y-71120782D01*
X119145174Y-71121838D01*
X119160326Y-71158417D01*
X119168050Y-71197250D01*
X119168050Y-71236844D01*
X119160327Y-71275674D01*
X119160326Y-71275676D01*
X119158624Y-71279785D01*
X119151510Y-71303234D01*
X119149108Y-71327620D01*
X119151509Y-71352006D01*
X119158622Y-71375455D01*
X119170173Y-71397066D01*
X119185718Y-71416009D01*
X119204660Y-71431554D01*
X119226271Y-71443106D01*
X119249720Y-71450220D01*
X119274106Y-71452622D01*
X119298493Y-71450220D01*
X119326829Y-71444584D01*
X119366426Y-71444584D01*
X119376133Y-71446515D01*
X119405258Y-71452308D01*
X119441837Y-71467460D01*
X119441839Y-71467461D01*
X119450664Y-71473358D01*
X119472533Y-71487970D01*
X119474759Y-71489458D01*
X119502754Y-71517453D01*
X119522370Y-71546809D01*
X119524752Y-71550375D01*
X119539904Y-71586954D01*
X119547628Y-71625787D01*
X119547628Y-71665381D01*
X119539905Y-71704211D01*
X119539904Y-71704213D01*
X119534785Y-71716571D01*
X119527671Y-71740020D01*
X119525269Y-71764406D01*
X119527670Y-71788792D01*
X119534783Y-71812241D01*
X119546334Y-71833853D01*
X119561879Y-71852795D01*
X119580821Y-71868341D01*
X119602432Y-71879892D01*
X119625881Y-71887006D01*
X119650267Y-71889408D01*
X119674652Y-71887006D01*
X119686831Y-71884584D01*
X119726426Y-71884584D01*
X119736133Y-71886515D01*
X119765258Y-71892308D01*
X119801837Y-71907460D01*
X119801839Y-71907461D01*
X119834759Y-71929458D01*
X119862754Y-71957453D01*
X119881681Y-71985778D01*
X119884752Y-71990375D01*
X119899904Y-72026954D01*
X119907628Y-72065787D01*
X119907628Y-72105381D01*
X119899904Y-72144214D01*
X119885756Y-72178368D01*
X119878643Y-72201817D01*
X119876241Y-72226203D01*
X119878643Y-72250590D01*
X119885756Y-72274039D01*
X119897307Y-72295650D01*
X119912852Y-72314592D01*
X119931794Y-72330137D01*
X119953405Y-72341689D01*
X119976854Y-72348802D01*
X120001240Y-72351204D01*
X120025620Y-72348803D01*
X120046831Y-72344584D01*
X120086426Y-72344584D01*
X120096133Y-72346515D01*
X120125258Y-72352308D01*
X120161837Y-72367460D01*
X120161839Y-72367461D01*
X120178410Y-72378534D01*
X120194758Y-72389457D01*
X120222755Y-72417454D01*
X120244752Y-72450375D01*
X120259904Y-72486954D01*
X120267628Y-72525787D01*
X120267628Y-72565381D01*
X120259904Y-72604214D01*
X120244752Y-72640793D01*
X120244751Y-72640795D01*
X120222754Y-72673715D01*
X120194759Y-72701710D01*
X120161839Y-72723707D01*
X120161838Y-72723708D01*
X120161837Y-72723708D01*
X120125258Y-72738860D01*
X120096133Y-72744653D01*
X120086426Y-72746584D01*
X120046830Y-72746584D01*
X120037123Y-72744653D01*
X120007998Y-72738860D01*
X119971419Y-72723708D01*
X119971418Y-72723708D01*
X119971417Y-72723707D01*
X119938497Y-72701710D01*
X119910502Y-72673715D01*
X119888505Y-72640795D01*
X119888504Y-72640793D01*
X119873352Y-72604214D01*
X119865628Y-72565381D01*
X119865628Y-72525787D01*
X119873352Y-72486954D01*
X119887501Y-72452795D01*
X119894613Y-72429351D01*
X119897015Y-72404965D01*
X119894613Y-72380578D01*
X119887500Y-72357129D01*
X119875949Y-72335518D01*
X119860404Y-72316576D01*
X119841462Y-72301031D01*
X119819851Y-72289479D01*
X119796402Y-72282366D01*
X119772016Y-72279964D01*
X119747636Y-72282365D01*
X119726425Y-72286584D01*
X119686830Y-72286584D01*
X119677123Y-72284653D01*
X119647998Y-72278860D01*
X119611419Y-72263708D01*
X119611418Y-72263708D01*
X119611417Y-72263707D01*
X119594846Y-72252634D01*
X119578498Y-72241711D01*
X119550501Y-72213714D01*
X119528504Y-72180793D01*
X119513352Y-72144214D01*
X119505628Y-72105381D01*
X119505628Y-72065787D01*
X119513352Y-72026954D01*
X119518472Y-72014593D01*
X119525585Y-71991148D01*
X119527987Y-71966762D01*
X119525586Y-71942376D01*
X119518473Y-71918927D01*
X119506922Y-71897315D01*
X119491377Y-71878373D01*
X119472435Y-71862827D01*
X119450824Y-71851276D01*
X119427375Y-71844162D01*
X119402989Y-71841760D01*
X119378604Y-71844162D01*
X119366425Y-71846584D01*
X119326830Y-71846584D01*
X119314654Y-71844162D01*
X119287998Y-71838860D01*
X119251419Y-71823708D01*
X119251418Y-71823708D01*
X119251417Y-71823707D01*
X119218497Y-71801710D01*
X119190502Y-71773715D01*
X119187031Y-71768520D01*
X119168504Y-71740793D01*
X119153352Y-71704214D01*
X119145628Y-71665381D01*
X119145628Y-71625787D01*
X119153352Y-71586954D01*
X119155055Y-71582843D01*
X119162168Y-71559397D01*
X119164570Y-71535011D01*
X119162169Y-71510625D01*
X119155056Y-71487176D01*
X119143505Y-71465565D01*
X119127960Y-71446622D01*
X119109018Y-71431077D01*
X119087407Y-71419525D01*
X119063958Y-71412411D01*
X119039572Y-71410009D01*
X119015185Y-71412411D01*
X118986849Y-71418047D01*
X118947252Y-71418047D01*
X118937007Y-71416009D01*
X118908420Y-71410323D01*
X118871841Y-71395171D01*
X118871840Y-71395171D01*
X118871839Y-71395170D01*
X118838919Y-71373173D01*
X118810924Y-71345178D01*
X118804483Y-71335538D01*
X118788926Y-71312256D01*
X118773774Y-71275677D01*
X118766050Y-71236844D01*
X118766050Y-71197250D01*
X118771475Y-71169977D01*
X118773876Y-71145598D01*
X118771474Y-71121212D01*
X118764361Y-71097763D01*
X118752810Y-71076152D01*
X118737265Y-71057209D01*
X118718323Y-71041664D01*
X118696713Y-71030113D01*
X118673263Y-71022999D01*
X118648877Y-71020597D01*
X118624490Y-71022999D01*
X118595014Y-71028862D01*
X118555418Y-71028862D01*
X118545711Y-71026931D01*
X118516586Y-71021138D01*
X118480007Y-71005986D01*
X118480006Y-71005986D01*
X118480005Y-71005985D01*
X118447085Y-70983988D01*
X118419090Y-70955993D01*
X118416870Y-70952670D01*
X118408166Y-70939644D01*
X118397093Y-70923073D01*
X118397092Y-70923071D01*
X118381940Y-70886492D01*
X118374216Y-70847659D01*
X118374216Y-70808065D01*
X118381940Y-70769232D01*
X118397092Y-70732653D01*
X118400567Y-70727453D01*
X118419090Y-70699731D01*
X118447085Y-70671736D01*
X118457735Y-70664620D01*
X118473733Y-70653930D01*
X118480005Y-70649739D01*
X118480007Y-70649738D01*
X118516586Y-70634586D01*
X118552030Y-70627536D01*
X118555418Y-70626862D01*
X118595014Y-70626862D01*
X118598402Y-70627536D01*
X118598402Y-70627536D01*
G37*
G36*
X119477369Y-69781727D02*
X119506494Y-69787520D01*
X119543073Y-69802672D01*
X119543075Y-69802673D01*
X119547843Y-69805859D01*
X119575994Y-69824669D01*
X119603991Y-69852666D01*
X119625988Y-69885587D01*
X119641140Y-69922166D01*
X119648864Y-69960999D01*
X119648864Y-70000593D01*
X119641140Y-70039426D01*
X119633617Y-70057588D01*
X119632442Y-70060423D01*
X119625328Y-70083872D01*
X119622926Y-70108258D01*
X119625327Y-70132644D01*
X119632440Y-70156093D01*
X119643991Y-70177704D01*
X119659536Y-70196647D01*
X119678478Y-70212192D01*
X119700089Y-70223744D01*
X119723538Y-70230858D01*
X119747926Y-70233260D01*
X119782894Y-70233260D01*
X119792601Y-70235191D01*
X119821726Y-70240984D01*
X119858305Y-70256136D01*
X119858307Y-70256137D01*
X119874878Y-70267210D01*
X119887208Y-70275448D01*
X119891227Y-70278134D01*
X119919222Y-70306129D01*
X119935964Y-70331184D01*
X119941220Y-70339051D01*
X119956372Y-70375630D01*
X119961104Y-70399422D01*
X119964096Y-70414462D01*
X119964096Y-70454058D01*
X119954385Y-70502880D01*
X119953148Y-70506959D01*
X119950749Y-70531346D01*
X119953154Y-70555732D01*
X119960271Y-70579180D01*
X119971825Y-70600789D01*
X119987373Y-70619729D01*
X120006317Y-70635272D01*
X120027929Y-70646820D01*
X120051379Y-70653930D01*
X120075766Y-70656329D01*
X120093466Y-70654584D01*
X120136426Y-70654584D01*
X120145198Y-70656329D01*
X120175258Y-70662308D01*
X120211837Y-70677460D01*
X120211839Y-70677461D01*
X120222212Y-70684392D01*
X120244758Y-70699457D01*
X120272755Y-70727454D01*
X120294752Y-70760375D01*
X120309904Y-70796954D01*
X120315367Y-70824418D01*
X120317628Y-70835786D01*
X120317628Y-70875382D01*
X120307917Y-70924204D01*
X120306680Y-70928283D01*
X120304281Y-70952670D01*
X120306686Y-70977056D01*
X120313803Y-71000504D01*
X120325357Y-71022113D01*
X120340905Y-71041053D01*
X120359849Y-71056596D01*
X120381461Y-71068144D01*
X120404911Y-71075254D01*
X120429298Y-71077653D01*
X120447003Y-71075908D01*
X120489959Y-71075908D01*
X120498731Y-71077653D01*
X120528791Y-71083632D01*
X120562905Y-71097763D01*
X120565372Y-71098785D01*
X120568893Y-71101138D01*
X120598291Y-71120781D01*
X120626288Y-71148778D01*
X120634301Y-71160770D01*
X120647765Y-71180920D01*
X120648285Y-71181699D01*
X120663437Y-71218278D01*
X120671161Y-71257111D01*
X120671161Y-71296705D01*
X120665736Y-71323978D01*
X120663335Y-71348357D01*
X120665737Y-71372743D01*
X120672850Y-71396192D01*
X120684401Y-71417803D01*
X120699946Y-71436746D01*
X120718888Y-71452291D01*
X120740498Y-71463842D01*
X120763948Y-71470956D01*
X120788334Y-71473358D01*
X120812717Y-71470957D01*
X120842200Y-71465093D01*
X120881795Y-71465093D01*
X120891502Y-71467024D01*
X120920627Y-71472817D01*
X120957206Y-71487969D01*
X120957208Y-71487970D01*
X120973779Y-71499043D01*
X120990127Y-71509966D01*
X121018124Y-71537963D01*
X121040121Y-71570884D01*
X121055273Y-71607463D01*
X121062997Y-71646296D01*
X121062997Y-71685890D01*
X121055273Y-71724723D01*
X121040121Y-71761302D01*
X121018124Y-71794223D01*
X120990127Y-71822220D01*
X120987900Y-71823708D01*
X120957208Y-71844216D01*
X120957207Y-71844217D01*
X120957206Y-71844217D01*
X120920627Y-71859369D01*
X120891502Y-71865162D01*
X120881795Y-71867093D01*
X120842199Y-71867093D01*
X120832492Y-71865162D01*
X120803367Y-71859369D01*
X120766788Y-71844217D01*
X120766787Y-71844217D01*
X120766786Y-71844216D01*
X120736094Y-71823708D01*
X120733867Y-71822220D01*
X120705870Y-71794223D01*
X120683873Y-71761302D01*
X120668721Y-71724723D01*
X120660997Y-71685890D01*
X120660997Y-71646296D01*
X120666422Y-71619023D01*
X120668823Y-71594644D01*
X120666421Y-71570258D01*
X120659308Y-71546809D01*
X120647757Y-71525198D01*
X120632212Y-71506255D01*
X120613270Y-71490710D01*
X120591660Y-71479159D01*
X120568210Y-71472045D01*
X120543824Y-71469643D01*
X120519441Y-71472044D01*
X120489958Y-71477908D01*
X120450363Y-71477908D01*
X120440656Y-71475977D01*
X120411531Y-71470184D01*
X120374952Y-71455032D01*
X120374951Y-71455032D01*
X120374950Y-71455031D01*
X120342030Y-71433034D01*
X120314035Y-71405039D01*
X120307441Y-71395170D01*
X120292743Y-71373174D01*
X120292038Y-71372119D01*
X120289837Y-71366805D01*
X120276885Y-71335538D01*
X120269161Y-71296705D01*
X120269161Y-71257111D01*
X120276885Y-71218278D01*
X120278872Y-71208288D01*
X120280109Y-71204209D01*
X120282508Y-71179822D01*
X120280103Y-71155436D01*
X120272986Y-71131988D01*
X120261432Y-71110379D01*
X120245884Y-71091439D01*
X120226940Y-71075896D01*
X120205328Y-71064348D01*
X120181878Y-71057238D01*
X120157491Y-71054839D01*
X120139786Y-71056584D01*
X120096830Y-71056584D01*
X120087123Y-71054653D01*
X120057998Y-71048860D01*
X120021419Y-71033708D01*
X120021418Y-71033708D01*
X120021417Y-71033707D01*
X120001797Y-71020597D01*
X119988498Y-71011711D01*
X119960501Y-70983714D01*
X119949578Y-70967366D01*
X119938505Y-70950795D01*
X119938504Y-70950793D01*
X119923352Y-70914214D01*
X119915628Y-70875381D01*
X119915628Y-70835787D01*
X119923352Y-70796954D01*
X119925339Y-70786964D01*
X119926576Y-70782885D01*
X119928975Y-70758498D01*
X119926570Y-70734112D01*
X119919453Y-70710664D01*
X119907899Y-70689055D01*
X119892351Y-70670115D01*
X119873407Y-70654572D01*
X119851795Y-70643024D01*
X119828345Y-70635914D01*
X119803958Y-70633515D01*
X119786258Y-70635260D01*
X119743298Y-70635260D01*
X119733591Y-70633329D01*
X119704466Y-70627536D01*
X119667887Y-70612384D01*
X119667886Y-70612384D01*
X119667885Y-70612383D01*
X119634965Y-70590386D01*
X119606970Y-70562391D01*
X119584973Y-70529471D01*
X119584972Y-70529469D01*
X119569820Y-70492890D01*
X119562096Y-70454057D01*
X119562096Y-70414463D01*
X119569820Y-70375630D01*
X119578519Y-70354629D01*
X119585632Y-70331184D01*
X119588034Y-70306798D01*
X119585633Y-70282412D01*
X119578520Y-70258963D01*
X119566969Y-70237352D01*
X119551424Y-70218409D01*
X119532482Y-70202864D01*
X119510871Y-70191312D01*
X119487422Y-70184198D01*
X119463034Y-70181796D01*
X119428066Y-70181796D01*
X119418359Y-70179865D01*
X119389234Y-70174072D01*
X119352655Y-70158920D01*
X119352654Y-70158920D01*
X119352653Y-70158919D01*
X119319733Y-70136922D01*
X119291738Y-70108927D01*
X119269741Y-70076007D01*
X119262112Y-70057589D01*
X119254588Y-70039426D01*
X119246864Y-70000593D01*
X119246864Y-69960999D01*
X119254588Y-69922166D01*
X119269740Y-69885587D01*
X119291737Y-69852666D01*
X119319734Y-69824669D01*
X119347885Y-69805859D01*
X119352653Y-69802673D01*
X119352655Y-69802672D01*
X119389234Y-69787520D01*
X119418359Y-69781727D01*
X119428066Y-69779796D01*
X119467662Y-69779796D01*
X119477369Y-69781727D01*
X119477369Y-69781727D01*
G37*
G36*
X137331872Y-70245878D02*
X137459449Y-70298722D01*
X137574265Y-70375440D01*
X137671900Y-70473075D01*
X137748618Y-70587891D01*
X137801462Y-70715468D01*
X137828400Y-70850896D01*
X137828400Y-70988984D01*
X137801462Y-71124412D01*
X137748618Y-71251989D01*
X137671900Y-71366805D01*
X137574265Y-71464440D01*
X137459449Y-71541158D01*
X137331872Y-71594002D01*
X137196444Y-71620940D01*
X137058356Y-71620940D01*
X136922928Y-71594002D01*
X136795351Y-71541158D01*
X136680535Y-71464440D01*
X136582900Y-71366805D01*
X136506182Y-71251989D01*
X136453338Y-71124412D01*
X136426400Y-70988984D01*
X136426400Y-70850896D01*
X136453338Y-70715468D01*
X136506182Y-70587891D01*
X136582900Y-70473075D01*
X136680535Y-70375440D01*
X136795351Y-70298722D01*
X136922928Y-70245878D01*
X137058356Y-70218940D01*
X137196444Y-70218940D01*
X137331872Y-70245878D01*
X137331872Y-70245878D01*
G37*
G36*
X138693312Y-68810778D02*
X138820889Y-68863622D01*
X138935705Y-68940340D01*
X139033340Y-69037975D01*
X139110058Y-69152791D01*
X139162902Y-69280368D01*
X139189840Y-69415796D01*
X139189840Y-69553884D01*
X139162902Y-69689312D01*
X139110058Y-69816889D01*
X139033340Y-69931705D01*
X138935705Y-70029340D01*
X138820889Y-70106058D01*
X138693312Y-70158902D01*
X138557884Y-70185840D01*
X138419796Y-70185840D01*
X138284368Y-70158902D01*
X138156791Y-70106058D01*
X138041975Y-70029340D01*
X137944340Y-69931705D01*
X137867622Y-69816889D01*
X137814778Y-69689312D01*
X137787840Y-69553884D01*
X137787840Y-69415796D01*
X137814778Y-69280368D01*
X137867622Y-69152791D01*
X137944340Y-69037975D01*
X138041975Y-68940340D01*
X138156791Y-68863622D01*
X138284368Y-68810778D01*
X138419796Y-68783840D01*
X138557884Y-68783840D01*
X138693312Y-68810778D01*
X138693312Y-68810778D01*
G37*
G36*
X139782972Y-67129298D02*
X139910549Y-67182142D01*
X140025365Y-67258860D01*
X140123000Y-67356495D01*
X140199718Y-67471311D01*
X140252562Y-67598888D01*
X140279500Y-67734316D01*
X140279500Y-67872404D01*
X140252562Y-68007832D01*
X140199718Y-68135409D01*
X140123000Y-68250225D01*
X140025365Y-68347860D01*
X139910549Y-68424578D01*
X139782972Y-68477422D01*
X139647544Y-68504360D01*
X139509456Y-68504360D01*
X139374028Y-68477422D01*
X139246451Y-68424578D01*
X139131635Y-68347860D01*
X139034000Y-68250225D01*
X138957282Y-68135409D01*
X138904438Y-68007832D01*
X138877500Y-67872404D01*
X138877500Y-67734316D01*
X138904438Y-67598888D01*
X138957282Y-67471311D01*
X139034000Y-67356495D01*
X139131635Y-67258860D01*
X139246451Y-67182142D01*
X139374028Y-67129298D01*
X139509456Y-67102360D01*
X139647544Y-67102360D01*
X139782972Y-67129298D01*
X139782972Y-67129298D01*
G37*
G36*
X129631552Y-62066331D02*
X129713625Y-62100327D01*
X129713626Y-62100328D01*
X129713629Y-62100329D01*
X129787496Y-62149686D01*
X129787500Y-62149689D01*
X129850311Y-62212500D01*
X129850313Y-62212503D01*
X129850314Y-62212504D01*
X129899671Y-62286371D01*
X129899672Y-62286374D01*
X129899673Y-62286375D01*
X129933669Y-62368448D01*
X129951000Y-62455579D01*
X129951000Y-62544421D01*
X129933669Y-62631552D01*
X129899673Y-62713625D01*
X129899671Y-62713629D01*
X129850314Y-62787496D01*
X129850311Y-62787500D01*
X129787500Y-62850311D01*
X129787497Y-62850313D01*
X129787496Y-62850314D01*
X129713629Y-62899671D01*
X129713626Y-62899672D01*
X129713625Y-62899673D01*
X129631552Y-62933669D01*
X129544421Y-62951000D01*
X129455579Y-62951000D01*
X129368448Y-62933669D01*
X129286375Y-62899673D01*
X129286374Y-62899672D01*
X129286371Y-62899671D01*
X129212504Y-62850314D01*
X129212503Y-62850313D01*
X129212500Y-62850311D01*
X129149689Y-62787500D01*
X129149686Y-62787496D01*
X129100329Y-62713629D01*
X129100327Y-62713625D01*
X129066331Y-62631552D01*
X129049000Y-62544421D01*
X129049000Y-62455579D01*
X129066331Y-62368448D01*
X129100327Y-62286375D01*
X129100328Y-62286374D01*
X129100329Y-62286371D01*
X129149686Y-62212504D01*
X129149687Y-62212503D01*
X129149689Y-62212500D01*
X129212500Y-62149689D01*
X129212504Y-62149686D01*
X129286371Y-62100329D01*
X129286374Y-62100328D01*
X129286375Y-62100327D01*
X129368448Y-62066331D01*
X129455579Y-62049000D01*
X129544421Y-62049000D01*
X129631552Y-62066331D01*
X129631552Y-62066331D01*
G37*
G36*
X134540412Y-51551478D02*
X134667989Y-51604322D01*
X134782805Y-51681040D01*
X134880440Y-51778675D01*
X134957158Y-51893491D01*
X135010002Y-52021068D01*
X135036940Y-52156496D01*
X135036940Y-52294585D01*
X135034662Y-52306038D01*
X135032260Y-52330424D01*
X135034662Y-52354810D01*
X135041775Y-52378259D01*
X135053327Y-52399870D01*
X135068872Y-52418812D01*
X135087815Y-52434357D01*
X135109426Y-52445908D01*
X135132875Y-52453021D01*
X135157261Y-52455423D01*
X135181647Y-52453021D01*
X135205096Y-52445908D01*
X135226706Y-52434357D01*
X135339931Y-52358702D01*
X135467508Y-52305858D01*
X135602936Y-52278920D01*
X135741024Y-52278920D01*
X135876452Y-52305858D01*
X136004029Y-52358702D01*
X136118845Y-52435420D01*
X136216480Y-52533055D01*
X136293198Y-52647871D01*
X136346042Y-52775448D01*
X136372980Y-52910876D01*
X136372980Y-53048964D01*
X136359676Y-53115848D01*
X136357274Y-53140234D01*
X136359676Y-53164620D01*
X136366789Y-53188070D01*
X136378340Y-53209680D01*
X136393886Y-53228622D01*
X136412828Y-53244168D01*
X136434439Y-53255719D01*
X136457888Y-53262832D01*
X136482274Y-53265234D01*
X136506660Y-53262832D01*
X136530110Y-53255719D01*
X136540554Y-53250137D01*
X136546431Y-53247703D01*
X136546432Y-53247702D01*
X136674006Y-53194859D01*
X136674005Y-53194859D01*
X136674008Y-53194858D01*
X136809436Y-53167920D01*
X136947524Y-53167920D01*
X137082952Y-53194858D01*
X137210529Y-53247702D01*
X137325345Y-53324420D01*
X137422980Y-53422055D01*
X137499698Y-53536871D01*
X137552542Y-53664448D01*
X137579480Y-53799876D01*
X137579480Y-53937964D01*
X137552542Y-54073391D01*
X137539367Y-54105199D01*
X137532254Y-54128648D01*
X137529852Y-54153034D01*
X137532254Y-54177421D01*
X137539367Y-54200870D01*
X137550918Y-54222481D01*
X137566463Y-54241423D01*
X137585405Y-54256968D01*
X137607016Y-54268520D01*
X137630465Y-54275633D01*
X137654851Y-54278035D01*
X137679238Y-54275633D01*
X137702687Y-54268520D01*
X137756046Y-54246418D01*
X137891476Y-54219480D01*
X138029564Y-54219480D01*
X138164992Y-54246418D01*
X138292569Y-54299262D01*
X138407385Y-54375980D01*
X138505020Y-54473615D01*
X138581738Y-54588431D01*
X138634582Y-54716008D01*
X138661520Y-54851436D01*
X138661520Y-54989524D01*
X138634582Y-55124954D01*
X138579702Y-55257446D01*
X138572589Y-55280895D01*
X138570187Y-55305281D01*
X138572589Y-55329667D01*
X138579702Y-55353117D01*
X138591253Y-55374727D01*
X138606799Y-55393669D01*
X138625741Y-55409215D01*
X138647352Y-55420766D01*
X138670801Y-55427879D01*
X138695187Y-55430281D01*
X138719573Y-55427879D01*
X138831276Y-55405660D01*
X138969364Y-55405660D01*
X139104792Y-55432598D01*
X139232369Y-55485442D01*
X139347185Y-55562160D01*
X139444820Y-55659795D01*
X139521538Y-55774611D01*
X139574382Y-55902188D01*
X139601320Y-56037616D01*
X139601320Y-56175704D01*
X139574382Y-56311132D01*
X139521538Y-56438709D01*
X139448630Y-56547823D01*
X139437079Y-56569433D01*
X139429966Y-56592883D01*
X139427564Y-56617269D01*
X139429966Y-56641655D01*
X139437079Y-56665104D01*
X139448630Y-56686715D01*
X139464176Y-56705657D01*
X139483118Y-56721203D01*
X139504728Y-56732754D01*
X139528178Y-56739867D01*
X139552564Y-56742269D01*
X139576948Y-56739868D01*
X139593278Y-56736620D01*
X139731364Y-56736620D01*
X139866792Y-56763558D01*
X139994369Y-56816402D01*
X140109185Y-56893120D01*
X140206820Y-56990755D01*
X140283538Y-57105571D01*
X140336382Y-57233148D01*
X140363320Y-57368576D01*
X140363320Y-57506664D01*
X140336382Y-57642092D01*
X140283538Y-57769669D01*
X140206820Y-57884485D01*
X140191393Y-57899912D01*
X140175847Y-57918854D01*
X140164296Y-57940465D01*
X140157183Y-57963914D01*
X140154781Y-57988300D01*
X140157183Y-58012686D01*
X140164296Y-58036135D01*
X140175847Y-58057746D01*
X140191393Y-58076688D01*
X140210335Y-58092234D01*
X140231946Y-58103785D01*
X140255395Y-58110898D01*
X140279781Y-58113300D01*
X140300324Y-58113300D01*
X140435752Y-58140238D01*
X140563329Y-58193082D01*
X140678145Y-58269800D01*
X140775780Y-58367435D01*
X140852498Y-58482251D01*
X140905342Y-58609828D01*
X140932280Y-58745256D01*
X140932280Y-58883344D01*
X140905342Y-59018772D01*
X140852498Y-59146349D01*
X140775780Y-59261165D01*
X140672736Y-59364209D01*
X140657190Y-59383151D01*
X140645639Y-59404762D01*
X140638526Y-59428211D01*
X140636124Y-59452597D01*
X140638526Y-59476983D01*
X140645639Y-59500432D01*
X140657190Y-59522043D01*
X140672736Y-59540985D01*
X140691678Y-59556531D01*
X140713289Y-59568082D01*
X140736738Y-59575195D01*
X140839611Y-59595658D01*
X140839613Y-59595659D01*
X140839614Y-59595659D01*
X140867083Y-59607037D01*
X140967189Y-59648502D01*
X141082005Y-59725220D01*
X141179640Y-59822855D01*
X141256358Y-59937671D01*
X141309202Y-60065248D01*
X141336140Y-60200676D01*
X141336140Y-60338764D01*
X141309202Y-60474192D01*
X141256358Y-60601769D01*
X141179640Y-60716585D01*
X141082005Y-60814220D01*
X140967189Y-60890938D01*
X140839612Y-60943782D01*
X140704184Y-60970720D01*
X140566096Y-60970720D01*
X140430668Y-60943782D01*
X140303091Y-60890938D01*
X140188275Y-60814220D01*
X140090640Y-60716585D01*
X140013922Y-60601769D01*
X139961078Y-60474192D01*
X139934140Y-60338764D01*
X139934140Y-60200676D01*
X139961078Y-60065248D01*
X140013922Y-59937671D01*
X140090640Y-59822855D01*
X140193684Y-59719811D01*
X140209230Y-59700869D01*
X140220781Y-59679258D01*
X140227894Y-59655809D01*
X140230296Y-59631423D01*
X140227894Y-59607037D01*
X140220781Y-59583588D01*
X140209230Y-59561977D01*
X140193684Y-59543035D01*
X140174742Y-59527489D01*
X140153131Y-59515938D01*
X140129682Y-59508825D01*
X140026809Y-59488362D01*
X140026807Y-59488361D01*
X140026806Y-59488361D01*
X139979682Y-59468841D01*
X139899231Y-59435518D01*
X139784415Y-59358800D01*
X139686780Y-59261165D01*
X139610062Y-59146349D01*
X139557218Y-59018772D01*
X139530280Y-58883344D01*
X139530280Y-58745256D01*
X139557218Y-58609828D01*
X139610062Y-58482251D01*
X139686780Y-58367435D01*
X139702207Y-58352008D01*
X139717753Y-58333066D01*
X139729304Y-58311455D01*
X139736417Y-58288006D01*
X139738819Y-58263620D01*
X139736417Y-58239234D01*
X139729304Y-58215785D01*
X139717753Y-58194174D01*
X139702207Y-58175232D01*
X139683265Y-58159686D01*
X139661654Y-58148135D01*
X139638205Y-58141022D01*
X139613819Y-58138620D01*
X139593276Y-58138620D01*
X139457848Y-58111682D01*
X139330271Y-58058838D01*
X139215455Y-57982120D01*
X139117820Y-57884485D01*
X139041102Y-57769669D01*
X138988258Y-57642092D01*
X138961320Y-57506664D01*
X138961320Y-57368576D01*
X138988258Y-57233148D01*
X139041102Y-57105571D01*
X139114010Y-56996457D01*
X139125561Y-56974847D01*
X139132674Y-56951397D01*
X139135076Y-56927011D01*
X139132674Y-56902625D01*
X139125561Y-56879176D01*
X139114010Y-56857565D01*
X139098464Y-56838623D01*
X139079522Y-56823077D01*
X139057912Y-56811526D01*
X139034462Y-56804413D01*
X139010076Y-56802011D01*
X138985692Y-56804412D01*
X138969362Y-56807660D01*
X138831276Y-56807660D01*
X138695848Y-56780722D01*
X138568271Y-56727878D01*
X138453455Y-56651160D01*
X138355820Y-56553525D01*
X138279102Y-56438709D01*
X138226258Y-56311132D01*
X138199320Y-56175704D01*
X138199320Y-56037616D01*
X138226258Y-55902186D01*
X138281138Y-55769694D01*
X138288251Y-55746245D01*
X138290653Y-55721859D01*
X138288251Y-55697473D01*
X138281138Y-55674023D01*
X138269587Y-55652413D01*
X138254041Y-55633471D01*
X138235099Y-55617925D01*
X138213488Y-55606374D01*
X138190039Y-55599261D01*
X138165653Y-55596859D01*
X138141267Y-55599261D01*
X138029564Y-55621480D01*
X137891476Y-55621480D01*
X137756048Y-55594542D01*
X137628471Y-55541698D01*
X137513655Y-55464980D01*
X137416020Y-55367345D01*
X137339302Y-55252529D01*
X137286458Y-55124952D01*
X137259520Y-54989524D01*
X137259520Y-54851436D01*
X137286458Y-54716009D01*
X137299633Y-54684201D01*
X137306746Y-54660752D01*
X137309148Y-54636366D01*
X137306746Y-54611979D01*
X137299633Y-54588530D01*
X137288082Y-54566919D01*
X137272537Y-54547977D01*
X137253595Y-54532432D01*
X137231984Y-54520880D01*
X137208535Y-54513767D01*
X137184149Y-54511365D01*
X137159762Y-54513767D01*
X137136313Y-54520880D01*
X137082954Y-54542982D01*
X136947524Y-54569920D01*
X136809436Y-54569920D01*
X136674008Y-54542982D01*
X136546431Y-54490138D01*
X136431615Y-54413420D01*
X136333980Y-54315785D01*
X136257262Y-54200969D01*
X136204418Y-54073392D01*
X136177480Y-53937964D01*
X136177480Y-53799876D01*
X136190784Y-53732992D01*
X136193186Y-53708606D01*
X136190784Y-53684220D01*
X136183671Y-53660770D01*
X136172120Y-53639160D01*
X136156574Y-53620218D01*
X136137632Y-53604672D01*
X136116021Y-53593121D01*
X136092572Y-53586008D01*
X136068186Y-53583606D01*
X136043800Y-53586008D01*
X136020350Y-53593121D01*
X136009906Y-53598703D01*
X136004029Y-53601137D01*
X136004028Y-53601138D01*
X135995496Y-53604672D01*
X135876452Y-53653982D01*
X135741024Y-53680920D01*
X135602936Y-53680920D01*
X135467508Y-53653982D01*
X135339931Y-53601138D01*
X135225115Y-53524420D01*
X135127480Y-53426785D01*
X135050762Y-53311969D01*
X134997918Y-53184392D01*
X134970980Y-53048964D01*
X134970980Y-52910875D01*
X134973258Y-52899422D01*
X134975660Y-52875036D01*
X134973258Y-52850650D01*
X134966145Y-52827201D01*
X134954593Y-52805590D01*
X134939048Y-52786648D01*
X134920105Y-52771103D01*
X134898494Y-52759552D01*
X134875045Y-52752439D01*
X134850659Y-52750037D01*
X134826273Y-52752439D01*
X134802824Y-52759552D01*
X134781214Y-52771103D01*
X134667989Y-52846758D01*
X134540412Y-52899602D01*
X134404984Y-52926540D01*
X134266896Y-52926540D01*
X134131468Y-52899602D01*
X134003891Y-52846758D01*
X133889075Y-52770040D01*
X133791440Y-52672405D01*
X133714722Y-52557589D01*
X133661878Y-52430012D01*
X133634940Y-52294584D01*
X133634940Y-52156496D01*
X133661878Y-52021068D01*
X133714722Y-51893491D01*
X133791440Y-51778675D01*
X133889075Y-51681040D01*
X134003891Y-51604322D01*
X134131468Y-51551478D01*
X134266896Y-51524540D01*
X134404984Y-51524540D01*
X134540412Y-51551478D01*
X134540412Y-51551478D01*
G37*
G36*
X118632392Y-59331498D02*
X118759969Y-59384342D01*
X118874785Y-59461060D01*
X118972420Y-59558695D01*
X119049138Y-59673511D01*
X119101982Y-59801088D01*
X119128920Y-59936516D01*
X119128920Y-60074604D01*
X119101982Y-60210032D01*
X119049138Y-60337609D01*
X118972420Y-60452425D01*
X118874785Y-60550060D01*
X118759969Y-60626778D01*
X118632392Y-60679622D01*
X118496964Y-60706560D01*
X118358876Y-60706560D01*
X118223448Y-60679622D01*
X118095871Y-60626778D01*
X117981055Y-60550060D01*
X117883420Y-60452425D01*
X117806702Y-60337609D01*
X117753858Y-60210032D01*
X117726920Y-60074604D01*
X117726920Y-59936516D01*
X117753858Y-59801088D01*
X117806702Y-59673511D01*
X117883420Y-59558695D01*
X117981055Y-59461060D01*
X118095871Y-59384342D01*
X118223448Y-59331498D01*
X118358876Y-59304560D01*
X118496964Y-59304560D01*
X118632392Y-59331498D01*
X118632392Y-59331498D01*
G37*
G36*
X119315652Y-57256318D02*
X119443229Y-57309162D01*
X119558045Y-57385880D01*
X119655680Y-57483515D01*
X119732398Y-57598331D01*
X119785242Y-57725908D01*
X119812180Y-57861336D01*
X119812180Y-57999424D01*
X119785242Y-58134852D01*
X119732398Y-58262429D01*
X119655680Y-58377245D01*
X119558045Y-58474880D01*
X119443229Y-58551598D01*
X119315652Y-58604442D01*
X119180224Y-58631380D01*
X119042136Y-58631380D01*
X118906708Y-58604442D01*
X118779131Y-58551598D01*
X118664315Y-58474880D01*
X118566680Y-58377245D01*
X118489962Y-58262429D01*
X118437118Y-58134852D01*
X118410180Y-57999424D01*
X118410180Y-57861336D01*
X118437118Y-57725908D01*
X118489962Y-57598331D01*
X118566680Y-57483515D01*
X118664315Y-57385880D01*
X118779131Y-57309162D01*
X118906708Y-57256318D01*
X119042136Y-57229380D01*
X119180224Y-57229380D01*
X119315652Y-57256318D01*
X119315652Y-57256318D01*
G37*
M02*
