G04 #@! TF.GenerationSoftware,KiCad,Pcbnew,5.0.2-bee76a0~70~ubuntu18.04.1*
G04 #@! TF.CreationDate,2019-07-08T07:54:46+02:00*
G04 #@! TF.ProjectId,lower_Sensor,6c6f7765-725f-4536-956e-736f722e6b69,rev?*
G04 #@! TF.SameCoordinates,Original*
G04 #@! TF.FileFunction,Legend,Top*
G04 #@! TF.FilePolarity,Positive*
%FSLAX46Y46*%
G04 Gerber Fmt 4.6, Leading zero omitted, Abs format (unit mm)*
G04 Created by KiCad (PCBNEW 5.0.2-bee76a0~70~ubuntu18.04.1) date Mo 08 Jul 2019 07:54:46 CEST*
%MOMM*%
%LPD*%
G01*
G04 APERTURE LIST*
%ADD10C,0.200000*%
%ADD11C,0.250000*%
%ADD12C,0.120000*%
G04 APERTURE END LIST*
D10*
X130900000Y-61100000D02*
X130900000Y-63900000D01*
X128100000Y-61100000D02*
X130900000Y-61100000D01*
X128100000Y-63900000D02*
X128100000Y-61100000D01*
D11*
X125030000Y-58197380D02*
X125030000Y-57197380D01*
X125601428Y-58197380D01*
X125601428Y-57197380D01*
X126077619Y-58197380D02*
X126077619Y-57530714D01*
X126077619Y-57197380D02*
X126030000Y-57245000D01*
X126077619Y-57292619D01*
X126125238Y-57245000D01*
X126077619Y-57197380D01*
X126077619Y-57292619D01*
X126553809Y-58197380D02*
X126553809Y-57197380D01*
X126649047Y-57816428D02*
X126934761Y-58197380D01*
X126934761Y-57530714D02*
X126553809Y-57911666D01*
X127506190Y-58197380D02*
X127410952Y-58149761D01*
X127363333Y-58054523D01*
X127363333Y-57197380D01*
X128315714Y-58197380D02*
X128315714Y-57673571D01*
X128268095Y-57578333D01*
X128172857Y-57530714D01*
X127982380Y-57530714D01*
X127887142Y-57578333D01*
X128315714Y-58149761D02*
X128220476Y-58197380D01*
X127982380Y-58197380D01*
X127887142Y-58149761D01*
X127839523Y-58054523D01*
X127839523Y-57959285D01*
X127887142Y-57864047D01*
X127982380Y-57816428D01*
X128220476Y-57816428D01*
X128315714Y-57768809D01*
X128744285Y-58149761D02*
X128839523Y-58197380D01*
X129030000Y-58197380D01*
X129125238Y-58149761D01*
X129172857Y-58054523D01*
X129172857Y-58006904D01*
X129125238Y-57911666D01*
X129030000Y-57864047D01*
X128887142Y-57864047D01*
X128791904Y-57816428D01*
X128744285Y-57721190D01*
X128744285Y-57673571D01*
X128791904Y-57578333D01*
X128887142Y-57530714D01*
X129030000Y-57530714D01*
X129125238Y-57578333D01*
X130696666Y-57673571D02*
X130363333Y-57673571D01*
X130363333Y-58197380D02*
X130363333Y-57197380D01*
X130839523Y-57197380D01*
X131649047Y-58197380D02*
X131649047Y-57673571D01*
X131601428Y-57578333D01*
X131506190Y-57530714D01*
X131315714Y-57530714D01*
X131220476Y-57578333D01*
X131649047Y-58149761D02*
X131553809Y-58197380D01*
X131315714Y-58197380D01*
X131220476Y-58149761D01*
X131172857Y-58054523D01*
X131172857Y-57959285D01*
X131220476Y-57864047D01*
X131315714Y-57816428D01*
X131553809Y-57816428D01*
X131649047Y-57768809D01*
X132553809Y-57530714D02*
X132553809Y-58197380D01*
X132125238Y-57530714D02*
X132125238Y-58054523D01*
X132172857Y-58149761D01*
X132268095Y-58197380D01*
X132410952Y-58197380D01*
X132506190Y-58149761D01*
X132553809Y-58102142D01*
X132887142Y-57530714D02*
X133268095Y-57530714D01*
X133030000Y-57197380D02*
X133030000Y-58054523D01*
X133077619Y-58149761D01*
X133172857Y-58197380D01*
X133268095Y-58197380D01*
X133601428Y-58197380D02*
X133601428Y-57197380D01*
X134030000Y-58197380D02*
X134030000Y-57673571D01*
X133982380Y-57578333D01*
X133887142Y-57530714D01*
X133744285Y-57530714D01*
X133649047Y-57578333D01*
X133601428Y-57625952D01*
X127815714Y-59042619D02*
X127863333Y-58995000D01*
X127958571Y-58947380D01*
X128196666Y-58947380D01*
X128291904Y-58995000D01*
X128339523Y-59042619D01*
X128387142Y-59137857D01*
X128387142Y-59233095D01*
X128339523Y-59375952D01*
X127768095Y-59947380D01*
X128387142Y-59947380D01*
X129006190Y-58947380D02*
X129101428Y-58947380D01*
X129196666Y-58995000D01*
X129244285Y-59042619D01*
X129291904Y-59137857D01*
X129339523Y-59328333D01*
X129339523Y-59566428D01*
X129291904Y-59756904D01*
X129244285Y-59852142D01*
X129196666Y-59899761D01*
X129101428Y-59947380D01*
X129006190Y-59947380D01*
X128910952Y-59899761D01*
X128863333Y-59852142D01*
X128815714Y-59756904D01*
X128768095Y-59566428D01*
X128768095Y-59328333D01*
X128815714Y-59137857D01*
X128863333Y-59042619D01*
X128910952Y-58995000D01*
X129006190Y-58947380D01*
X130291904Y-59947380D02*
X129720476Y-59947380D01*
X130006190Y-59947380D02*
X130006190Y-58947380D01*
X129910952Y-59090238D01*
X129815714Y-59185476D01*
X129720476Y-59233095D01*
X130768095Y-59947380D02*
X130958571Y-59947380D01*
X131053809Y-59899761D01*
X131101428Y-59852142D01*
X131196666Y-59709285D01*
X131244285Y-59518809D01*
X131244285Y-59137857D01*
X131196666Y-59042619D01*
X131149047Y-58995000D01*
X131053809Y-58947380D01*
X130863333Y-58947380D01*
X130768095Y-58995000D01*
X130720476Y-59042619D01*
X130672857Y-59137857D01*
X130672857Y-59375952D01*
X130720476Y-59471190D01*
X130768095Y-59518809D01*
X130863333Y-59566428D01*
X131053809Y-59566428D01*
X131149047Y-59518809D01*
X131196666Y-59471190D01*
X131244285Y-59375952D01*
D10*
X130900000Y-63900000D02*
X128100000Y-63900000D01*
D11*
X127931904Y-68857380D02*
X127931904Y-67857380D01*
X128360476Y-68809761D02*
X128503333Y-68857380D01*
X128741428Y-68857380D01*
X128836666Y-68809761D01*
X128884285Y-68762142D01*
X128931904Y-68666904D01*
X128931904Y-68571666D01*
X128884285Y-68476428D01*
X128836666Y-68428809D01*
X128741428Y-68381190D01*
X128550952Y-68333571D01*
X128455714Y-68285952D01*
X128408095Y-68238333D01*
X128360476Y-68143095D01*
X128360476Y-68047857D01*
X128408095Y-67952619D01*
X128455714Y-67905000D01*
X128550952Y-67857380D01*
X128789047Y-67857380D01*
X128931904Y-67905000D01*
X129693809Y-68333571D02*
X129360476Y-68333571D01*
X129360476Y-68857380D02*
X129360476Y-67857380D01*
X129836666Y-67857380D01*
X130217619Y-68333571D02*
X130550952Y-68333571D01*
X130693809Y-68857380D02*
X130217619Y-68857380D01*
X130217619Y-67857380D01*
X130693809Y-67857380D01*
X130979523Y-67857380D02*
X131550952Y-67857380D01*
X131265238Y-68857380D02*
X131265238Y-67857380D01*
X127217619Y-70083571D02*
X126884285Y-70083571D01*
X126884285Y-70607380D02*
X126884285Y-69607380D01*
X127360476Y-69607380D01*
X127884285Y-70607380D02*
X127789047Y-70559761D01*
X127741428Y-70464523D01*
X127741428Y-69607380D01*
X128265238Y-70607380D02*
X128265238Y-69940714D01*
X128265238Y-69607380D02*
X128217619Y-69655000D01*
X128265238Y-69702619D01*
X128312857Y-69655000D01*
X128265238Y-69607380D01*
X128265238Y-69702619D01*
X128741428Y-69940714D02*
X128741428Y-70940714D01*
X128741428Y-69988333D02*
X128836666Y-69940714D01*
X129027142Y-69940714D01*
X129122380Y-69988333D01*
X129170000Y-70035952D01*
X129217619Y-70131190D01*
X129217619Y-70416904D01*
X129170000Y-70512142D01*
X129122380Y-70559761D01*
X129027142Y-70607380D01*
X128836666Y-70607380D01*
X128741428Y-70559761D01*
X130217619Y-70512142D02*
X130170000Y-70559761D01*
X130027142Y-70607380D01*
X129931904Y-70607380D01*
X129789047Y-70559761D01*
X129693809Y-70464523D01*
X129646190Y-70369285D01*
X129598571Y-70178809D01*
X129598571Y-70035952D01*
X129646190Y-69845476D01*
X129693809Y-69750238D01*
X129789047Y-69655000D01*
X129931904Y-69607380D01*
X130027142Y-69607380D01*
X130170000Y-69655000D01*
X130217619Y-69702619D01*
X130646190Y-70607380D02*
X130646190Y-69607380D01*
X131074761Y-70607380D02*
X131074761Y-70083571D01*
X131027142Y-69988333D01*
X130931904Y-69940714D01*
X130789047Y-69940714D01*
X130693809Y-69988333D01*
X130646190Y-70035952D01*
X131550952Y-70607380D02*
X131550952Y-69940714D01*
X131550952Y-69607380D02*
X131503333Y-69655000D01*
X131550952Y-69702619D01*
X131598571Y-69655000D01*
X131550952Y-69607380D01*
X131550952Y-69702619D01*
X132027142Y-69940714D02*
X132027142Y-70940714D01*
X132027142Y-69988333D02*
X132122380Y-69940714D01*
X132312857Y-69940714D01*
X132408095Y-69988333D01*
X132455714Y-70035952D01*
X132503333Y-70131190D01*
X132503333Y-70416904D01*
X132455714Y-70512142D01*
X132408095Y-70559761D01*
X132312857Y-70607380D01*
X132122380Y-70607380D01*
X132027142Y-70559761D01*
X105530000Y-75697380D02*
X105530000Y-74697380D01*
X106101428Y-75697380D01*
X106101428Y-74697380D01*
X106577619Y-75697380D02*
X106577619Y-75030714D01*
X106577619Y-74697380D02*
X106530000Y-74745000D01*
X106577619Y-74792619D01*
X106625238Y-74745000D01*
X106577619Y-74697380D01*
X106577619Y-74792619D01*
X107053809Y-75697380D02*
X107053809Y-74697380D01*
X107149047Y-75316428D02*
X107434761Y-75697380D01*
X107434761Y-75030714D02*
X107053809Y-75411666D01*
X108006190Y-75697380D02*
X107910952Y-75649761D01*
X107863333Y-75554523D01*
X107863333Y-74697380D01*
X108815714Y-75697380D02*
X108815714Y-75173571D01*
X108768095Y-75078333D01*
X108672857Y-75030714D01*
X108482380Y-75030714D01*
X108387142Y-75078333D01*
X108815714Y-75649761D02*
X108720476Y-75697380D01*
X108482380Y-75697380D01*
X108387142Y-75649761D01*
X108339523Y-75554523D01*
X108339523Y-75459285D01*
X108387142Y-75364047D01*
X108482380Y-75316428D01*
X108720476Y-75316428D01*
X108815714Y-75268809D01*
X109244285Y-75649761D02*
X109339523Y-75697380D01*
X109530000Y-75697380D01*
X109625238Y-75649761D01*
X109672857Y-75554523D01*
X109672857Y-75506904D01*
X109625238Y-75411666D01*
X109530000Y-75364047D01*
X109387142Y-75364047D01*
X109291904Y-75316428D01*
X109244285Y-75221190D01*
X109244285Y-75173571D01*
X109291904Y-75078333D01*
X109387142Y-75030714D01*
X109530000Y-75030714D01*
X109625238Y-75078333D01*
X111196666Y-75173571D02*
X110863333Y-75173571D01*
X110863333Y-75697380D02*
X110863333Y-74697380D01*
X111339523Y-74697380D01*
X112149047Y-75697380D02*
X112149047Y-75173571D01*
X112101428Y-75078333D01*
X112006190Y-75030714D01*
X111815714Y-75030714D01*
X111720476Y-75078333D01*
X112149047Y-75649761D02*
X112053809Y-75697380D01*
X111815714Y-75697380D01*
X111720476Y-75649761D01*
X111672857Y-75554523D01*
X111672857Y-75459285D01*
X111720476Y-75364047D01*
X111815714Y-75316428D01*
X112053809Y-75316428D01*
X112149047Y-75268809D01*
X113053809Y-75030714D02*
X113053809Y-75697380D01*
X112625238Y-75030714D02*
X112625238Y-75554523D01*
X112672857Y-75649761D01*
X112768095Y-75697380D01*
X112910952Y-75697380D01*
X113006190Y-75649761D01*
X113053809Y-75602142D01*
X113387142Y-75030714D02*
X113768095Y-75030714D01*
X113530000Y-74697380D02*
X113530000Y-75554523D01*
X113577619Y-75649761D01*
X113672857Y-75697380D01*
X113768095Y-75697380D01*
X114101428Y-75697380D02*
X114101428Y-74697380D01*
X114530000Y-75697380D02*
X114530000Y-75173571D01*
X114482380Y-75078333D01*
X114387142Y-75030714D01*
X114244285Y-75030714D01*
X114149047Y-75078333D01*
X114101428Y-75125952D01*
X108315714Y-76542619D02*
X108363333Y-76495000D01*
X108458571Y-76447380D01*
X108696666Y-76447380D01*
X108791904Y-76495000D01*
X108839523Y-76542619D01*
X108887142Y-76637857D01*
X108887142Y-76733095D01*
X108839523Y-76875952D01*
X108268095Y-77447380D01*
X108887142Y-77447380D01*
X109506190Y-76447380D02*
X109601428Y-76447380D01*
X109696666Y-76495000D01*
X109744285Y-76542619D01*
X109791904Y-76637857D01*
X109839523Y-76828333D01*
X109839523Y-77066428D01*
X109791904Y-77256904D01*
X109744285Y-77352142D01*
X109696666Y-77399761D01*
X109601428Y-77447380D01*
X109506190Y-77447380D01*
X109410952Y-77399761D01*
X109363333Y-77352142D01*
X109315714Y-77256904D01*
X109268095Y-77066428D01*
X109268095Y-76828333D01*
X109315714Y-76637857D01*
X109363333Y-76542619D01*
X109410952Y-76495000D01*
X109506190Y-76447380D01*
X110791904Y-77447380D02*
X110220476Y-77447380D01*
X110506190Y-77447380D02*
X110506190Y-76447380D01*
X110410952Y-76590238D01*
X110315714Y-76685476D01*
X110220476Y-76733095D01*
X111268095Y-77447380D02*
X111458571Y-77447380D01*
X111553809Y-77399761D01*
X111601428Y-77352142D01*
X111696666Y-77209285D01*
X111744285Y-77018809D01*
X111744285Y-76637857D01*
X111696666Y-76542619D01*
X111649047Y-76495000D01*
X111553809Y-76447380D01*
X111363333Y-76447380D01*
X111268095Y-76495000D01*
X111220476Y-76542619D01*
X111172857Y-76637857D01*
X111172857Y-76875952D01*
X111220476Y-76971190D01*
X111268095Y-77018809D01*
X111363333Y-77066428D01*
X111553809Y-77066428D01*
X111649047Y-77018809D01*
X111696666Y-76971190D01*
X111744285Y-76875952D01*
X108431904Y-86357380D02*
X108431904Y-85357380D01*
X108860476Y-86309761D02*
X109003333Y-86357380D01*
X109241428Y-86357380D01*
X109336666Y-86309761D01*
X109384285Y-86262142D01*
X109431904Y-86166904D01*
X109431904Y-86071666D01*
X109384285Y-85976428D01*
X109336666Y-85928809D01*
X109241428Y-85881190D01*
X109050952Y-85833571D01*
X108955714Y-85785952D01*
X108908095Y-85738333D01*
X108860476Y-85643095D01*
X108860476Y-85547857D01*
X108908095Y-85452619D01*
X108955714Y-85405000D01*
X109050952Y-85357380D01*
X109289047Y-85357380D01*
X109431904Y-85405000D01*
X110193809Y-85833571D02*
X109860476Y-85833571D01*
X109860476Y-86357380D02*
X109860476Y-85357380D01*
X110336666Y-85357380D01*
X110717619Y-85833571D02*
X111050952Y-85833571D01*
X111193809Y-86357380D02*
X110717619Y-86357380D01*
X110717619Y-85357380D01*
X111193809Y-85357380D01*
X111479523Y-85357380D02*
X112050952Y-85357380D01*
X111765238Y-86357380D02*
X111765238Y-85357380D01*
X107717619Y-87583571D02*
X107384285Y-87583571D01*
X107384285Y-88107380D02*
X107384285Y-87107380D01*
X107860476Y-87107380D01*
X108384285Y-88107380D02*
X108289047Y-88059761D01*
X108241428Y-87964523D01*
X108241428Y-87107380D01*
X108765238Y-88107380D02*
X108765238Y-87440714D01*
X108765238Y-87107380D02*
X108717619Y-87155000D01*
X108765238Y-87202619D01*
X108812857Y-87155000D01*
X108765238Y-87107380D01*
X108765238Y-87202619D01*
X109241428Y-87440714D02*
X109241428Y-88440714D01*
X109241428Y-87488333D02*
X109336666Y-87440714D01*
X109527142Y-87440714D01*
X109622380Y-87488333D01*
X109670000Y-87535952D01*
X109717619Y-87631190D01*
X109717619Y-87916904D01*
X109670000Y-88012142D01*
X109622380Y-88059761D01*
X109527142Y-88107380D01*
X109336666Y-88107380D01*
X109241428Y-88059761D01*
X110717619Y-88012142D02*
X110670000Y-88059761D01*
X110527142Y-88107380D01*
X110431904Y-88107380D01*
X110289047Y-88059761D01*
X110193809Y-87964523D01*
X110146190Y-87869285D01*
X110098571Y-87678809D01*
X110098571Y-87535952D01*
X110146190Y-87345476D01*
X110193809Y-87250238D01*
X110289047Y-87155000D01*
X110431904Y-87107380D01*
X110527142Y-87107380D01*
X110670000Y-87155000D01*
X110717619Y-87202619D01*
X111146190Y-88107380D02*
X111146190Y-87107380D01*
X111574761Y-88107380D02*
X111574761Y-87583571D01*
X111527142Y-87488333D01*
X111431904Y-87440714D01*
X111289047Y-87440714D01*
X111193809Y-87488333D01*
X111146190Y-87535952D01*
X112050952Y-88107380D02*
X112050952Y-87440714D01*
X112050952Y-87107380D02*
X112003333Y-87155000D01*
X112050952Y-87202619D01*
X112098571Y-87155000D01*
X112050952Y-87107380D01*
X112050952Y-87202619D01*
X112527142Y-87440714D02*
X112527142Y-88440714D01*
X112527142Y-87488333D02*
X112622380Y-87440714D01*
X112812857Y-87440714D01*
X112908095Y-87488333D01*
X112955714Y-87535952D01*
X113003333Y-87631190D01*
X113003333Y-87916904D01*
X112955714Y-88012142D01*
X112908095Y-88059761D01*
X112812857Y-88107380D01*
X112622380Y-88107380D01*
X112527142Y-88059761D01*
D10*
X108600000Y-78600000D02*
X111400000Y-78600000D01*
X108600000Y-81400000D02*
X108600000Y-78600000D01*
X111400000Y-81400000D02*
X108600000Y-81400000D01*
X111400000Y-78600000D02*
X111400000Y-81400000D01*
D12*
G04 #@! TO.C,REF\002A\002A*
X135056435Y-65895971D02*
X135219214Y-65614029D01*
X134173090Y-65385971D02*
X134335869Y-65104029D01*
X129662779Y-55990000D02*
X129337221Y-55990000D01*
X129662779Y-57010000D02*
X129337221Y-57010000D01*
X123780786Y-65614029D02*
X123943565Y-65895971D01*
X124664131Y-65104029D02*
X124826910Y-65385971D01*
X105164131Y-82604029D02*
X105326910Y-82885971D01*
X104280786Y-83114029D02*
X104443565Y-83395971D01*
X114673090Y-82885971D02*
X114835869Y-82604029D01*
X115556435Y-83395971D02*
X115719214Y-83114029D01*
X110162779Y-74510000D02*
X109837221Y-74510000D01*
X110162779Y-73490000D02*
X109837221Y-73490000D01*
G04 #@! TD*
M02*
