M48
;DRILL file {KiCad 5.0.2-bee76a0~70~ubuntu18.04.1} date Mi 03 Jul 2019 17:26:25 CEST
;FORMAT={-:-/ absolute / inch / decimal}
FMAT,2
INCH,TZ
T1C0.0079
T2C0.0315
%
G90
G05
T1
X4.0291Y-3.1398
X4.0492Y-3.0996
X4.2815Y-3.2496
X4.3209Y-3.2496
X4.361Y-3.2492
X4.5531Y-3.3854
X4.5701Y-3.0167
X4.5701Y-3.0395
X4.5702Y-2.9709
X4.5702Y-2.9938
X4.5713Y-2.9457
T2
X4.7008Y-2.8979
X4.6212Y-2.8098
X3.9217Y-2.9697
X3.8948Y-3.0514
X4.6846Y-3.4246
X4.7532Y-3.0045
X4.7691Y-3.0618
X4.631Y-3.4811
X4.6638Y-2.8512
X4.7275Y-3.3584
X4.7308Y-2.9503
X4.1285Y-3.5496
X4.5211Y-2.7451
X4.5737Y-2.7748
T0
M30
