G04 #@! TF.GenerationSoftware,KiCad,Pcbnew,5.0.2-bee76a0~70~ubuntu18.04.1*
G04 #@! TF.CreationDate,2019-07-03T17:26:22+02:00*
G04 #@! TF.ProjectId,lower_Sensor,6c6f7765-725f-4536-956e-736f722e6b69,rev?*
G04 #@! TF.SameCoordinates,Original*
G04 #@! TF.FileFunction,Soldermask,Top*
G04 #@! TF.FilePolarity,Negative*
%FSLAX46Y46*%
G04 Gerber Fmt 4.6, Leading zero omitted, Abs format (unit mm)*
G04 Created by KiCad (PCBNEW 5.0.2-bee76a0~70~ubuntu18.04.1) date Mi 03 Jul 2019 17:26:22 CEST*
%MOMM*%
%LPD*%
G01*
G04 APERTURE LIST*
%ADD10C,0.100000*%
G04 APERTURE END LIST*
D10*
G36*
X105068372Y-89485778D02*
X105195949Y-89538622D01*
X105310765Y-89615340D01*
X105408400Y-89712975D01*
X105485118Y-89827791D01*
X105537962Y-89955368D01*
X105564900Y-90090796D01*
X105564900Y-90228884D01*
X105537962Y-90364312D01*
X105485118Y-90491889D01*
X105408400Y-90606705D01*
X105310765Y-90704340D01*
X105195949Y-90781058D01*
X105068372Y-90833902D01*
X104932944Y-90860840D01*
X104794856Y-90860840D01*
X104659428Y-90833902D01*
X104531851Y-90781058D01*
X104417035Y-90704340D01*
X104319400Y-90606705D01*
X104242682Y-90491889D01*
X104189838Y-90364312D01*
X104162900Y-90228884D01*
X104162900Y-90090796D01*
X104189838Y-89955368D01*
X104242682Y-89827791D01*
X104319400Y-89712975D01*
X104417035Y-89615340D01*
X104531851Y-89538622D01*
X104659428Y-89485778D01*
X104794856Y-89458840D01*
X104932944Y-89458840D01*
X105068372Y-89485778D01*
X105068372Y-89485778D01*
G37*
G36*
X117831872Y-87745878D02*
X117959449Y-87798722D01*
X118074265Y-87875440D01*
X118171900Y-87973075D01*
X118248618Y-88087891D01*
X118301462Y-88215468D01*
X118328400Y-88350896D01*
X118328400Y-88488984D01*
X118301462Y-88624412D01*
X118248618Y-88751989D01*
X118171900Y-88866805D01*
X118074265Y-88964440D01*
X117959449Y-89041158D01*
X117831872Y-89094002D01*
X117696444Y-89120940D01*
X117558356Y-89120940D01*
X117422928Y-89094002D01*
X117295351Y-89041158D01*
X117180535Y-88964440D01*
X117082900Y-88866805D01*
X117006182Y-88751989D01*
X116953338Y-88624412D01*
X116926400Y-88488984D01*
X116926400Y-88350896D01*
X116953338Y-88215468D01*
X117006182Y-88087891D01*
X117082900Y-87973075D01*
X117180535Y-87875440D01*
X117295351Y-87798722D01*
X117422928Y-87745878D01*
X117558356Y-87718940D01*
X117696444Y-87718940D01*
X117831872Y-87745878D01*
X117831872Y-87745878D01*
G37*
G36*
X119193312Y-86310778D02*
X119320889Y-86363622D01*
X119435705Y-86440340D01*
X119533340Y-86537975D01*
X119610058Y-86652791D01*
X119662902Y-86780368D01*
X119689840Y-86915796D01*
X119689840Y-87053884D01*
X119662902Y-87189312D01*
X119610058Y-87316889D01*
X119533340Y-87431705D01*
X119435705Y-87529340D01*
X119320889Y-87606058D01*
X119193312Y-87658902D01*
X119057884Y-87685840D01*
X118919796Y-87685840D01*
X118784368Y-87658902D01*
X118656791Y-87606058D01*
X118541975Y-87529340D01*
X118444340Y-87431705D01*
X118367622Y-87316889D01*
X118314778Y-87189312D01*
X118287840Y-87053884D01*
X118287840Y-86915796D01*
X118314778Y-86780368D01*
X118367622Y-86652791D01*
X118444340Y-86537975D01*
X118541975Y-86440340D01*
X118656791Y-86363622D01*
X118784368Y-86310778D01*
X118919796Y-86283840D01*
X119057884Y-86283840D01*
X119193312Y-86310778D01*
X119193312Y-86310778D01*
G37*
G36*
X120282972Y-84629298D02*
X120410549Y-84682142D01*
X120525365Y-84758860D01*
X120623000Y-84856495D01*
X120699718Y-84971311D01*
X120752562Y-85098888D01*
X120779500Y-85234316D01*
X120779500Y-85372404D01*
X120752562Y-85507832D01*
X120699718Y-85635409D01*
X120623000Y-85750225D01*
X120525365Y-85847860D01*
X120410549Y-85924578D01*
X120282972Y-85977422D01*
X120147544Y-86004360D01*
X120009456Y-86004360D01*
X119874028Y-85977422D01*
X119746451Y-85924578D01*
X119631635Y-85847860D01*
X119534000Y-85750225D01*
X119457282Y-85635409D01*
X119404438Y-85507832D01*
X119377500Y-85372404D01*
X119377500Y-85234316D01*
X119404438Y-85098888D01*
X119457282Y-84971311D01*
X119534000Y-84856495D01*
X119631635Y-84758860D01*
X119746451Y-84682142D01*
X119874028Y-84629298D01*
X120009456Y-84602360D01*
X120147544Y-84602360D01*
X120282972Y-84629298D01*
X120282972Y-84629298D01*
G37*
G36*
X105389240Y-83069245D02*
X105422466Y-83081750D01*
X105452628Y-83100507D01*
X105478545Y-83124781D01*
X105502822Y-83158659D01*
X105530997Y-83207460D01*
X105531003Y-83207468D01*
X105775253Y-83630522D01*
X105775256Y-83630529D01*
X105803432Y-83679331D01*
X105820633Y-83717293D01*
X105828698Y-83751881D01*
X105829859Y-83787367D01*
X105824074Y-83822411D01*
X105811569Y-83855637D01*
X105792812Y-83885799D01*
X105768538Y-83911716D01*
X105734660Y-83935993D01*
X105685859Y-83964168D01*
X105685851Y-83964174D01*
X105197845Y-84245924D01*
X105197838Y-84245927D01*
X105149036Y-84274103D01*
X105111074Y-84291304D01*
X105076486Y-84299369D01*
X105041000Y-84300530D01*
X105005956Y-84294745D01*
X104972730Y-84282240D01*
X104942568Y-84263483D01*
X104916651Y-84239209D01*
X104892374Y-84205331D01*
X104864199Y-84156530D01*
X104864193Y-84156522D01*
X104619943Y-83733468D01*
X104619940Y-83733461D01*
X104591764Y-83684659D01*
X104574563Y-83646697D01*
X104566498Y-83612109D01*
X104565337Y-83576623D01*
X104571122Y-83541579D01*
X104583627Y-83508353D01*
X104602384Y-83478191D01*
X104626658Y-83452274D01*
X104660536Y-83427997D01*
X104709337Y-83399822D01*
X104709345Y-83399816D01*
X105197351Y-83118066D01*
X105197358Y-83118063D01*
X105246160Y-83089887D01*
X105284122Y-83072686D01*
X105318710Y-83064621D01*
X105354196Y-83063460D01*
X105389240Y-83069245D01*
X105389240Y-83069245D01*
G37*
G36*
X114681290Y-83064621D02*
X114715878Y-83072686D01*
X114753840Y-83089887D01*
X114802642Y-83118063D01*
X114802649Y-83118066D01*
X115290655Y-83399816D01*
X115290663Y-83399822D01*
X115339464Y-83427997D01*
X115373342Y-83452274D01*
X115397616Y-83478191D01*
X115416373Y-83508353D01*
X115428878Y-83541579D01*
X115434663Y-83576623D01*
X115433502Y-83612109D01*
X115425437Y-83646697D01*
X115408236Y-83684659D01*
X115380060Y-83733461D01*
X115380057Y-83733468D01*
X115135807Y-84156522D01*
X115135801Y-84156530D01*
X115107626Y-84205331D01*
X115083349Y-84239209D01*
X115057432Y-84263483D01*
X115027270Y-84282240D01*
X114994044Y-84294745D01*
X114959000Y-84300530D01*
X114923514Y-84299369D01*
X114888926Y-84291304D01*
X114850964Y-84274103D01*
X114802162Y-84245927D01*
X114802155Y-84245924D01*
X114314149Y-83964174D01*
X114314141Y-83964168D01*
X114265340Y-83935993D01*
X114231462Y-83911716D01*
X114207188Y-83885799D01*
X114188431Y-83855637D01*
X114175926Y-83822411D01*
X114170141Y-83787367D01*
X114171302Y-83751881D01*
X114179367Y-83717293D01*
X114196568Y-83679331D01*
X114224744Y-83630529D01*
X114224747Y-83630522D01*
X114468997Y-83207468D01*
X114469003Y-83207460D01*
X114497178Y-83158659D01*
X114521455Y-83124781D01*
X114547372Y-83100507D01*
X114577534Y-83081750D01*
X114610760Y-83069245D01*
X114645804Y-83063460D01*
X114681290Y-83064621D01*
X114681290Y-83064621D01*
G37*
G36*
X104601740Y-81705255D02*
X104634966Y-81717760D01*
X104665128Y-81736517D01*
X104691045Y-81760791D01*
X104715322Y-81794669D01*
X104743497Y-81843470D01*
X104743503Y-81843478D01*
X104987753Y-82266532D01*
X104987756Y-82266539D01*
X105015932Y-82315341D01*
X105033133Y-82353303D01*
X105041198Y-82387891D01*
X105042359Y-82423377D01*
X105036574Y-82458421D01*
X105024069Y-82491647D01*
X105005312Y-82521809D01*
X104981038Y-82547726D01*
X104947160Y-82572003D01*
X104898359Y-82600178D01*
X104898351Y-82600184D01*
X104410345Y-82881934D01*
X104410338Y-82881937D01*
X104361536Y-82910113D01*
X104323574Y-82927314D01*
X104288986Y-82935379D01*
X104253500Y-82936540D01*
X104218456Y-82930755D01*
X104185230Y-82918250D01*
X104155068Y-82899493D01*
X104129151Y-82875219D01*
X104104874Y-82841341D01*
X104076699Y-82792540D01*
X104076693Y-82792532D01*
X103832443Y-82369478D01*
X103832440Y-82369471D01*
X103804264Y-82320669D01*
X103787063Y-82282707D01*
X103778998Y-82248119D01*
X103777837Y-82212633D01*
X103783622Y-82177589D01*
X103796127Y-82144363D01*
X103814884Y-82114201D01*
X103839158Y-82088284D01*
X103873036Y-82064007D01*
X103921837Y-82035832D01*
X103921845Y-82035826D01*
X104409851Y-81754076D01*
X104409858Y-81754073D01*
X104458660Y-81725897D01*
X104496622Y-81708696D01*
X104531210Y-81700631D01*
X104566696Y-81699470D01*
X104601740Y-81705255D01*
X104601740Y-81705255D01*
G37*
G36*
X115468790Y-81700631D02*
X115503378Y-81708696D01*
X115541340Y-81725897D01*
X115590142Y-81754073D01*
X115590149Y-81754076D01*
X116078155Y-82035826D01*
X116078163Y-82035832D01*
X116126964Y-82064007D01*
X116160842Y-82088284D01*
X116185116Y-82114201D01*
X116203873Y-82144363D01*
X116216378Y-82177589D01*
X116222163Y-82212633D01*
X116221002Y-82248119D01*
X116212937Y-82282707D01*
X116195736Y-82320669D01*
X116167560Y-82369471D01*
X116167557Y-82369478D01*
X115923307Y-82792532D01*
X115923301Y-82792540D01*
X115895126Y-82841341D01*
X115870849Y-82875219D01*
X115844932Y-82899493D01*
X115814770Y-82918250D01*
X115781544Y-82930755D01*
X115746500Y-82936540D01*
X115711014Y-82935379D01*
X115676426Y-82927314D01*
X115638464Y-82910113D01*
X115589662Y-82881937D01*
X115589655Y-82881934D01*
X115101649Y-82600184D01*
X115101641Y-82600178D01*
X115052840Y-82572003D01*
X115018962Y-82547726D01*
X114994688Y-82521809D01*
X114975931Y-82491647D01*
X114963426Y-82458421D01*
X114957641Y-82423377D01*
X114958802Y-82387891D01*
X114966867Y-82353303D01*
X114984068Y-82315341D01*
X115012244Y-82266539D01*
X115012247Y-82266532D01*
X115256497Y-81843478D01*
X115256503Y-81843470D01*
X115284678Y-81794669D01*
X115308955Y-81760791D01*
X115334872Y-81736517D01*
X115365034Y-81717760D01*
X115398260Y-81705255D01*
X115433304Y-81699470D01*
X115468790Y-81700631D01*
X115468790Y-81700631D01*
G37*
G36*
X115040412Y-69051478D02*
X115167989Y-69104322D01*
X115282805Y-69181040D01*
X115380440Y-69278675D01*
X115457158Y-69393491D01*
X115510002Y-69521068D01*
X115536940Y-69656496D01*
X115536940Y-69794585D01*
X115534662Y-69806038D01*
X115532260Y-69830424D01*
X115534662Y-69854810D01*
X115541775Y-69878259D01*
X115553327Y-69899870D01*
X115568872Y-69918812D01*
X115587815Y-69934357D01*
X115609426Y-69945908D01*
X115632875Y-69953021D01*
X115657261Y-69955423D01*
X115681647Y-69953021D01*
X115705096Y-69945908D01*
X115726706Y-69934357D01*
X115839931Y-69858702D01*
X115967508Y-69805858D01*
X116102936Y-69778920D01*
X116241024Y-69778920D01*
X116376452Y-69805858D01*
X116504029Y-69858702D01*
X116618845Y-69935420D01*
X116716480Y-70033055D01*
X116793198Y-70147871D01*
X116846042Y-70275448D01*
X116872980Y-70410876D01*
X116872980Y-70548964D01*
X116859676Y-70615848D01*
X116857274Y-70640234D01*
X116859676Y-70664620D01*
X116866789Y-70688070D01*
X116878340Y-70709680D01*
X116893886Y-70728622D01*
X116912828Y-70744168D01*
X116934439Y-70755719D01*
X116957888Y-70762832D01*
X116982274Y-70765234D01*
X117006660Y-70762832D01*
X117030110Y-70755719D01*
X117040554Y-70750137D01*
X117046431Y-70747703D01*
X117046432Y-70747702D01*
X117174006Y-70694859D01*
X117174005Y-70694859D01*
X117174008Y-70694858D01*
X117309436Y-70667920D01*
X117447524Y-70667920D01*
X117582952Y-70694858D01*
X117710529Y-70747702D01*
X117825345Y-70824420D01*
X117922980Y-70922055D01*
X117999698Y-71036871D01*
X118052542Y-71164448D01*
X118079480Y-71299876D01*
X118079480Y-71437964D01*
X118052542Y-71573391D01*
X118039367Y-71605199D01*
X118032254Y-71628648D01*
X118029852Y-71653034D01*
X118032254Y-71677421D01*
X118039367Y-71700870D01*
X118050918Y-71722481D01*
X118066463Y-71741423D01*
X118085405Y-71756968D01*
X118107016Y-71768520D01*
X118130465Y-71775633D01*
X118154851Y-71778035D01*
X118179238Y-71775633D01*
X118202687Y-71768520D01*
X118256046Y-71746418D01*
X118391476Y-71719480D01*
X118529564Y-71719480D01*
X118664992Y-71746418D01*
X118792569Y-71799262D01*
X118907385Y-71875980D01*
X119005020Y-71973615D01*
X119081738Y-72088431D01*
X119134582Y-72216008D01*
X119161520Y-72351436D01*
X119161520Y-72489524D01*
X119134582Y-72624954D01*
X119079702Y-72757446D01*
X119072589Y-72780895D01*
X119070187Y-72805281D01*
X119072589Y-72829667D01*
X119079702Y-72853117D01*
X119091253Y-72874727D01*
X119106799Y-72893669D01*
X119125741Y-72909215D01*
X119147352Y-72920766D01*
X119170801Y-72927879D01*
X119195187Y-72930281D01*
X119219573Y-72927879D01*
X119331276Y-72905660D01*
X119469364Y-72905660D01*
X119604792Y-72932598D01*
X119732369Y-72985442D01*
X119847185Y-73062160D01*
X119944820Y-73159795D01*
X120021538Y-73274611D01*
X120074382Y-73402188D01*
X120101320Y-73537616D01*
X120101320Y-73675704D01*
X120074382Y-73811132D01*
X120021538Y-73938709D01*
X119948630Y-74047823D01*
X119937079Y-74069433D01*
X119929966Y-74092883D01*
X119927564Y-74117269D01*
X119929966Y-74141655D01*
X119937079Y-74165104D01*
X119948630Y-74186715D01*
X119964176Y-74205657D01*
X119983118Y-74221203D01*
X120004728Y-74232754D01*
X120028178Y-74239867D01*
X120052564Y-74242269D01*
X120076948Y-74239868D01*
X120093278Y-74236620D01*
X120231364Y-74236620D01*
X120366792Y-74263558D01*
X120494369Y-74316402D01*
X120609185Y-74393120D01*
X120706820Y-74490755D01*
X120783538Y-74605571D01*
X120836382Y-74733148D01*
X120863320Y-74868576D01*
X120863320Y-75006664D01*
X120836382Y-75142092D01*
X120783538Y-75269669D01*
X120706820Y-75384485D01*
X120691393Y-75399912D01*
X120675847Y-75418854D01*
X120664296Y-75440465D01*
X120657183Y-75463914D01*
X120654781Y-75488300D01*
X120657183Y-75512686D01*
X120664296Y-75536135D01*
X120675847Y-75557746D01*
X120691393Y-75576688D01*
X120710335Y-75592234D01*
X120731946Y-75603785D01*
X120755395Y-75610898D01*
X120779781Y-75613300D01*
X120800324Y-75613300D01*
X120935752Y-75640238D01*
X121063329Y-75693082D01*
X121178145Y-75769800D01*
X121275780Y-75867435D01*
X121352498Y-75982251D01*
X121405342Y-76109828D01*
X121432280Y-76245256D01*
X121432280Y-76383344D01*
X121405342Y-76518772D01*
X121352498Y-76646349D01*
X121275780Y-76761165D01*
X121172736Y-76864209D01*
X121157190Y-76883151D01*
X121145639Y-76904762D01*
X121138526Y-76928211D01*
X121136124Y-76952597D01*
X121138526Y-76976983D01*
X121145639Y-77000432D01*
X121157190Y-77022043D01*
X121172736Y-77040985D01*
X121191678Y-77056531D01*
X121213289Y-77068082D01*
X121236738Y-77075195D01*
X121339611Y-77095658D01*
X121339613Y-77095659D01*
X121339614Y-77095659D01*
X121367083Y-77107037D01*
X121467189Y-77148502D01*
X121582005Y-77225220D01*
X121679640Y-77322855D01*
X121756358Y-77437671D01*
X121809202Y-77565248D01*
X121836140Y-77700676D01*
X121836140Y-77838764D01*
X121809202Y-77974192D01*
X121756358Y-78101769D01*
X121679640Y-78216585D01*
X121582005Y-78314220D01*
X121467189Y-78390938D01*
X121339612Y-78443782D01*
X121204184Y-78470720D01*
X121066096Y-78470720D01*
X120930668Y-78443782D01*
X120803091Y-78390938D01*
X120688275Y-78314220D01*
X120590640Y-78216585D01*
X120513922Y-78101769D01*
X120461078Y-77974192D01*
X120434140Y-77838764D01*
X120434140Y-77700676D01*
X120461078Y-77565248D01*
X120513922Y-77437671D01*
X120590640Y-77322855D01*
X120693684Y-77219811D01*
X120709230Y-77200869D01*
X120720781Y-77179258D01*
X120727894Y-77155809D01*
X120730296Y-77131423D01*
X120727894Y-77107037D01*
X120720781Y-77083588D01*
X120709230Y-77061977D01*
X120693684Y-77043035D01*
X120674742Y-77027489D01*
X120653131Y-77015938D01*
X120629682Y-77008825D01*
X120526809Y-76988362D01*
X120526807Y-76988361D01*
X120526806Y-76988361D01*
X120479682Y-76968841D01*
X120399231Y-76935518D01*
X120284415Y-76858800D01*
X120186780Y-76761165D01*
X120110062Y-76646349D01*
X120057218Y-76518772D01*
X120030280Y-76383344D01*
X120030280Y-76245256D01*
X120057218Y-76109828D01*
X120110062Y-75982251D01*
X120186780Y-75867435D01*
X120202207Y-75852008D01*
X120217753Y-75833066D01*
X120229304Y-75811455D01*
X120236417Y-75788006D01*
X120238819Y-75763620D01*
X120236417Y-75739234D01*
X120229304Y-75715785D01*
X120217753Y-75694174D01*
X120202207Y-75675232D01*
X120183265Y-75659686D01*
X120161654Y-75648135D01*
X120138205Y-75641022D01*
X120113819Y-75638620D01*
X120093276Y-75638620D01*
X119957848Y-75611682D01*
X119830271Y-75558838D01*
X119715455Y-75482120D01*
X119617820Y-75384485D01*
X119541102Y-75269669D01*
X119488258Y-75142092D01*
X119461320Y-75006664D01*
X119461320Y-74868576D01*
X119488258Y-74733148D01*
X119541102Y-74605571D01*
X119614010Y-74496457D01*
X119625561Y-74474847D01*
X119632674Y-74451397D01*
X119635076Y-74427011D01*
X119632674Y-74402625D01*
X119625561Y-74379176D01*
X119614010Y-74357565D01*
X119598464Y-74338623D01*
X119579522Y-74323077D01*
X119557912Y-74311526D01*
X119534462Y-74304413D01*
X119510076Y-74302011D01*
X119485692Y-74304412D01*
X119469362Y-74307660D01*
X119331276Y-74307660D01*
X119195848Y-74280722D01*
X119068271Y-74227878D01*
X118953455Y-74151160D01*
X118855820Y-74053525D01*
X118779102Y-73938709D01*
X118726258Y-73811132D01*
X118699320Y-73675704D01*
X118699320Y-73537616D01*
X118726258Y-73402186D01*
X118781138Y-73269694D01*
X118788251Y-73246245D01*
X118790653Y-73221859D01*
X118788251Y-73197473D01*
X118781138Y-73174023D01*
X118769587Y-73152413D01*
X118754041Y-73133471D01*
X118735099Y-73117925D01*
X118713488Y-73106374D01*
X118690039Y-73099261D01*
X118665653Y-73096859D01*
X118641267Y-73099261D01*
X118529564Y-73121480D01*
X118391476Y-73121480D01*
X118256048Y-73094542D01*
X118128471Y-73041698D01*
X118013655Y-72964980D01*
X117916020Y-72867345D01*
X117839302Y-72752529D01*
X117786458Y-72624952D01*
X117759520Y-72489524D01*
X117759520Y-72351436D01*
X117786458Y-72216009D01*
X117799633Y-72184201D01*
X117806746Y-72160752D01*
X117809148Y-72136366D01*
X117806746Y-72111979D01*
X117799633Y-72088530D01*
X117788082Y-72066919D01*
X117772537Y-72047977D01*
X117753595Y-72032432D01*
X117731984Y-72020880D01*
X117708535Y-72013767D01*
X117684149Y-72011365D01*
X117659762Y-72013767D01*
X117636313Y-72020880D01*
X117582954Y-72042982D01*
X117447524Y-72069920D01*
X117309436Y-72069920D01*
X117174008Y-72042982D01*
X117046431Y-71990138D01*
X116931615Y-71913420D01*
X116833980Y-71815785D01*
X116757262Y-71700969D01*
X116704418Y-71573392D01*
X116677480Y-71437964D01*
X116677480Y-71299876D01*
X116690784Y-71232992D01*
X116693186Y-71208606D01*
X116690784Y-71184220D01*
X116683671Y-71160770D01*
X116672120Y-71139160D01*
X116656574Y-71120218D01*
X116637632Y-71104672D01*
X116616021Y-71093121D01*
X116592572Y-71086008D01*
X116568186Y-71083606D01*
X116543800Y-71086008D01*
X116520350Y-71093121D01*
X116509906Y-71098703D01*
X116504029Y-71101137D01*
X116504028Y-71101138D01*
X116495496Y-71104672D01*
X116376452Y-71153982D01*
X116241024Y-71180920D01*
X116102936Y-71180920D01*
X115967508Y-71153982D01*
X115839931Y-71101138D01*
X115725115Y-71024420D01*
X115627480Y-70926785D01*
X115550762Y-70811969D01*
X115497918Y-70684392D01*
X115470980Y-70548964D01*
X115470980Y-70410875D01*
X115473258Y-70399422D01*
X115475660Y-70375036D01*
X115473258Y-70350650D01*
X115466145Y-70327201D01*
X115454593Y-70305590D01*
X115439048Y-70286648D01*
X115420105Y-70271103D01*
X115398494Y-70259552D01*
X115375045Y-70252439D01*
X115350659Y-70250037D01*
X115326273Y-70252439D01*
X115302824Y-70259552D01*
X115281214Y-70271103D01*
X115167989Y-70346758D01*
X115040412Y-70399602D01*
X114904984Y-70426540D01*
X114766896Y-70426540D01*
X114631468Y-70399602D01*
X114503891Y-70346758D01*
X114389075Y-70270040D01*
X114291440Y-70172405D01*
X114214722Y-70057589D01*
X114161878Y-69930012D01*
X114134940Y-69794584D01*
X114134940Y-69656496D01*
X114161878Y-69521068D01*
X114214722Y-69393491D01*
X114291440Y-69278675D01*
X114389075Y-69181040D01*
X114503891Y-69104322D01*
X114631468Y-69051478D01*
X114766896Y-69024540D01*
X114904984Y-69024540D01*
X115040412Y-69051478D01*
X115040412Y-69051478D01*
G37*
G36*
X99132392Y-76831498D02*
X99259969Y-76884342D01*
X99374785Y-76961060D01*
X99472420Y-77058695D01*
X99549138Y-77173511D01*
X99601982Y-77301088D01*
X99628920Y-77436516D01*
X99628920Y-77574604D01*
X99601982Y-77710032D01*
X99549138Y-77837609D01*
X99472420Y-77952425D01*
X99374785Y-78050060D01*
X99259969Y-78126778D01*
X99132392Y-78179622D01*
X98996964Y-78206560D01*
X98858876Y-78206560D01*
X98723448Y-78179622D01*
X98595871Y-78126778D01*
X98481055Y-78050060D01*
X98383420Y-77952425D01*
X98306702Y-77837609D01*
X98253858Y-77710032D01*
X98226920Y-77574604D01*
X98226920Y-77436516D01*
X98253858Y-77301088D01*
X98306702Y-77173511D01*
X98383420Y-77058695D01*
X98481055Y-76961060D01*
X98595871Y-76884342D01*
X98723448Y-76831498D01*
X98858876Y-76804560D01*
X98996964Y-76804560D01*
X99132392Y-76831498D01*
X99132392Y-76831498D01*
G37*
G36*
X99815652Y-74756318D02*
X99943229Y-74809162D01*
X100058045Y-74885880D01*
X100155680Y-74983515D01*
X100232398Y-75098331D01*
X100285242Y-75225908D01*
X100312180Y-75361336D01*
X100312180Y-75499424D01*
X100285242Y-75634852D01*
X100232398Y-75762429D01*
X100155680Y-75877245D01*
X100058045Y-75974880D01*
X99943229Y-76051598D01*
X99815652Y-76104442D01*
X99680224Y-76131380D01*
X99542136Y-76131380D01*
X99406708Y-76104442D01*
X99279131Y-76051598D01*
X99164315Y-75974880D01*
X99066680Y-75877245D01*
X98989962Y-75762429D01*
X98937118Y-75634852D01*
X98910180Y-75499424D01*
X98910180Y-75361336D01*
X98937118Y-75225908D01*
X98989962Y-75098331D01*
X99066680Y-74983515D01*
X99164315Y-74885880D01*
X99279131Y-74809162D01*
X99406708Y-74756318D01*
X99542136Y-74729380D01*
X99680224Y-74729380D01*
X99815652Y-74756318D01*
X99815652Y-74756318D01*
G37*
G36*
X109554591Y-73478085D02*
X109588569Y-73488393D01*
X109619887Y-73505133D01*
X109647339Y-73527661D01*
X109669867Y-73555113D01*
X109686607Y-73586431D01*
X109696915Y-73620409D01*
X109701000Y-73661890D01*
X109701000Y-74338110D01*
X109696915Y-74379591D01*
X109686607Y-74413569D01*
X109669867Y-74444887D01*
X109647339Y-74472339D01*
X109619887Y-74494867D01*
X109588569Y-74511607D01*
X109554591Y-74521915D01*
X109513110Y-74526000D01*
X108911890Y-74526000D01*
X108870409Y-74521915D01*
X108836431Y-74511607D01*
X108805113Y-74494867D01*
X108777661Y-74472339D01*
X108755133Y-74444887D01*
X108738393Y-74413569D01*
X108728085Y-74379591D01*
X108724000Y-74338110D01*
X108724000Y-73661890D01*
X108728085Y-73620409D01*
X108738393Y-73586431D01*
X108755133Y-73555113D01*
X108777661Y-73527661D01*
X108805113Y-73505133D01*
X108836431Y-73488393D01*
X108870409Y-73478085D01*
X108911890Y-73474000D01*
X109513110Y-73474000D01*
X109554591Y-73478085D01*
X109554591Y-73478085D01*
G37*
G36*
X111129591Y-73478085D02*
X111163569Y-73488393D01*
X111194887Y-73505133D01*
X111222339Y-73527661D01*
X111244867Y-73555113D01*
X111261607Y-73586431D01*
X111271915Y-73620409D01*
X111276000Y-73661890D01*
X111276000Y-74338110D01*
X111271915Y-74379591D01*
X111261607Y-74413569D01*
X111244867Y-74444887D01*
X111222339Y-74472339D01*
X111194887Y-74494867D01*
X111163569Y-74511607D01*
X111129591Y-74521915D01*
X111088110Y-74526000D01*
X110486890Y-74526000D01*
X110445409Y-74521915D01*
X110411431Y-74511607D01*
X110380113Y-74494867D01*
X110352661Y-74472339D01*
X110330133Y-74444887D01*
X110313393Y-74413569D01*
X110303085Y-74379591D01*
X110299000Y-74338110D01*
X110299000Y-73661890D01*
X110303085Y-73620409D01*
X110313393Y-73586431D01*
X110330133Y-73555113D01*
X110352661Y-73527661D01*
X110380113Y-73505133D01*
X110411431Y-73488393D01*
X110445409Y-73478085D01*
X110486890Y-73474000D01*
X111088110Y-73474000D01*
X111129591Y-73478085D01*
X111129591Y-73478085D01*
G37*
M02*
