G04 #@! TF.GenerationSoftware,KiCad,Pcbnew,5.0.2-bee76a0~70~ubuntu18.04.1*
G04 #@! TF.CreationDate,2019-07-03T17:26:22+02:00*
G04 #@! TF.ProjectId,lower_Sensor,6c6f7765-725f-4536-956e-736f722e6b69,rev?*
G04 #@! TF.SameCoordinates,Original*
G04 #@! TF.FileFunction,Legend,Bot*
G04 #@! TF.FilePolarity,Positive*
%FSLAX46Y46*%
G04 Gerber Fmt 4.6, Leading zero omitted, Abs format (unit mm)*
G04 Created by KiCad (PCBNEW 5.0.2-bee76a0~70~ubuntu18.04.1) date Mi 03 Jul 2019 17:26:22 CEST*
%MOMM*%
%LPD*%
G01*
G04 APERTURE LIST*
%ADD10C,0.050000*%
%ADD11C,0.120000*%
%ADD12C,0.100000*%
%ADD13C,0.150000*%
G04 APERTURE END LIST*
D10*
G04 #@! TO.C,REF\002A\002A*
X108850000Y-78000000D02*
G75*
G03X108850000Y-78000000I-100000J0D01*
G01*
X109350000Y-78000000D02*
G75*
G03X109350000Y-78000000I-100000J0D01*
G01*
X109850000Y-78000000D02*
G75*
G03X109850000Y-78000000I-100000J0D01*
G01*
X110350000Y-78000000D02*
G75*
G03X110350000Y-78000000I-100000J0D01*
G01*
X110850000Y-78000000D02*
G75*
G03X110850000Y-78000000I-100000J0D01*
G01*
X111350000Y-78000000D02*
G75*
G03X111350000Y-78000000I-100000J0D01*
G01*
X112100000Y-78750000D02*
G75*
G03X112100000Y-78750000I-100000J0D01*
G01*
X112100000Y-79250000D02*
G75*
G03X112100000Y-79250000I-100000J0D01*
G01*
X112100000Y-79750000D02*
G75*
G03X112100000Y-79750000I-100000J0D01*
G01*
X112100000Y-80250000D02*
G75*
G03X112100000Y-80250000I-100000J0D01*
G01*
X112100000Y-80750000D02*
G75*
G03X112100000Y-80750000I-100000J0D01*
G01*
X112100000Y-81250000D02*
G75*
G03X112100000Y-81250000I-100000J0D01*
G01*
X110850000Y-82000000D02*
G75*
G03X110850000Y-82000000I-100000J0D01*
G01*
X110350000Y-82000000D02*
G75*
G03X110350000Y-82000000I-100000J0D01*
G01*
X109850000Y-82000000D02*
G75*
G03X109850000Y-82000000I-100000J0D01*
G01*
X111350000Y-82000000D02*
G75*
G03X111350000Y-82000000I-100000J0D01*
G01*
X109350000Y-82000000D02*
G75*
G03X109350000Y-82000000I-100000J0D01*
G01*
X108850000Y-82000000D02*
G75*
G03X108850000Y-82000000I-100000J0D01*
G01*
X108100000Y-80250000D02*
G75*
G03X108100000Y-80250000I-100000J0D01*
G01*
X108100000Y-80750000D02*
G75*
G03X108100000Y-80750000I-100000J0D01*
G01*
X108100000Y-81250000D02*
G75*
G03X108100000Y-81250000I-100000J0D01*
G01*
X108100000Y-79750000D02*
G75*
G03X108100000Y-79750000I-100000J0D01*
G01*
X108100000Y-79250000D02*
G75*
G03X108100000Y-79250000I-100000J0D01*
G01*
X108100000Y-78750000D02*
G75*
G03X108100000Y-78750000I-100000J0D01*
G01*
D11*
G04 #@! TO.C,J14*
X100311180Y-75430380D02*
G75*
G03X100311180Y-75430380I-700000J0D01*
G01*
G04 #@! TO.C,J16*
X118327400Y-88419940D02*
G75*
G03X118327400Y-88419940I-700000J0D01*
G01*
G04 #@! TO.C,J15*
X105563900Y-90159840D02*
G75*
G03X105563900Y-90159840I-700000J0D01*
G01*
G04 #@! TO.C,J13*
X99627920Y-77505560D02*
G75*
G03X99627920Y-77505560I-700000J0D01*
G01*
G04 #@! TO.C,J2*
X121431280Y-76314300D02*
G75*
G03X121431280Y-76314300I-700000J0D01*
G01*
G04 #@! TO.C,J1*
X121835140Y-77769720D02*
G75*
G03X121835140Y-77769720I-700000J0D01*
G01*
G04 #@! TO.C,J10*
X115535940Y-69725540D02*
G75*
G03X115535940Y-69725540I-700000J0D01*
G01*
G04 #@! TO.C,J9*
X116871980Y-70479920D02*
G75*
G03X116871980Y-70479920I-700000J0D01*
G01*
G04 #@! TO.C,J8*
X120778500Y-85303360D02*
G75*
G03X120778500Y-85303360I-700000J0D01*
G01*
G04 #@! TO.C,J7*
X118078480Y-71368920D02*
G75*
G03X118078480Y-71368920I-700000J0D01*
G01*
G04 #@! TO.C,J5*
X119160520Y-72420480D02*
G75*
G03X119160520Y-72420480I-700000J0D01*
G01*
G04 #@! TO.C,J4*
X120100320Y-73606660D02*
G75*
G03X120100320Y-73606660I-700000J0D01*
G01*
G04 #@! TO.C,J3*
X120862320Y-74937620D02*
G75*
G03X120862320Y-74937620I-700000J0D01*
G01*
G04 #@! TO.C,J6*
X119688840Y-86984840D02*
G75*
G03X119688840Y-86984840I-700000J0D01*
G01*
G04 #@! TO.C,J14*
D12*
X99611180Y-76878380D02*
X99611180Y-76878380D01*
X99611180Y-76878380D01*
X99611180Y-76878380D01*
X99611180Y-76878380D01*
X99611180Y-76878380D01*
X99611180Y-76878380D02*
X99611180Y-76878380D01*
X99611180Y-76878380D02*
X99611180Y-76878380D01*
X99611180Y-76878380D01*
X99611180Y-76878380D01*
X99611180Y-76878380D01*
X99611180Y-76878380D02*
X99611180Y-76878380D01*
X99611180Y-76878380D02*
X99611180Y-76878380D01*
X99611180Y-76878380D01*
D13*
G04 #@! TO.C,J16*
D12*
X117627400Y-89867940D02*
X117627400Y-89867940D01*
X117627400Y-89867940D01*
X117627400Y-89867940D01*
X117627400Y-89867940D01*
X117627400Y-89867940D01*
X117627400Y-89867940D02*
X117627400Y-89867940D01*
X117627400Y-89867940D02*
X117627400Y-89867940D01*
X117627400Y-89867940D01*
X117627400Y-89867940D01*
X117627400Y-89867940D01*
X117627400Y-89867940D02*
X117627400Y-89867940D01*
X117627400Y-89867940D01*
X117627400Y-89867940D01*
X117627400Y-89867940D01*
X117627400Y-89867940D01*
X117627400Y-89867940D01*
X117627400Y-89867940D01*
X117627400Y-89867940D01*
X117627400Y-89867940D01*
X117627400Y-89867940D01*
X117627400Y-89867940D01*
X117627400Y-89867940D01*
X117627400Y-89867940D01*
X117627400Y-89867940D01*
X117627400Y-89867940D01*
X117627400Y-89867940D01*
X117627400Y-89867940D01*
X117627400Y-89867940D01*
X117627400Y-89867940D01*
X117627400Y-89867940D01*
X117627400Y-89867940D01*
D13*
G04 #@! TO.C,J15*
D12*
X104863900Y-91607840D02*
X104863900Y-91607840D01*
X104863900Y-91607840D01*
X104863900Y-91607840D01*
X104863900Y-91607840D01*
X104863900Y-91607840D01*
X104863900Y-91607840D02*
X104863900Y-91607840D01*
X104863900Y-91607840D02*
X104863900Y-91607840D01*
X104863900Y-91607840D01*
X104863900Y-91607840D01*
X104863900Y-91607840D01*
X104863900Y-91607840D02*
X104863900Y-91607840D01*
X104863900Y-91607840D01*
X104863900Y-91607840D01*
X104863900Y-91607840D01*
X104863900Y-91607840D01*
X104863900Y-91607840D01*
X104863900Y-91607840D01*
X104863900Y-91607840D01*
X104863900Y-91607840D01*
X104863900Y-91607840D01*
X104863900Y-91607840D01*
X104863900Y-91607840D01*
X104863900Y-91607840D01*
X104863900Y-91607840D01*
X104863900Y-91607840D01*
D13*
G04 #@! TO.C,J13*
D12*
X98927920Y-78953560D02*
X98927920Y-78953560D01*
X98927920Y-78953560D01*
X98927920Y-78953560D01*
X98927920Y-78953560D01*
X98927920Y-78953560D01*
X98927920Y-78953560D02*
X98927920Y-78953560D01*
X98927920Y-78953560D02*
X98927920Y-78953560D01*
X98927920Y-78953560D01*
X98927920Y-78953560D01*
X98927920Y-78953560D01*
X98927920Y-78953560D02*
X98927920Y-78953560D01*
X98927920Y-78953560D01*
X98927920Y-78953560D01*
X98927920Y-78953560D01*
X98927920Y-78953560D01*
X98927920Y-78953560D01*
X98927920Y-78953560D01*
X98927920Y-78953560D01*
X98927920Y-78953560D01*
X98927920Y-78953560D01*
X98927920Y-78953560D01*
X98927920Y-78953560D01*
X98927920Y-78953560D01*
D13*
G04 #@! TO.C,J2*
D12*
X121755171Y-77338191D02*
X121755171Y-77338191D01*
X121755171Y-77338191D01*
X121755171Y-77338191D01*
X121755171Y-77338191D01*
X121755171Y-77338191D01*
X121755171Y-77338191D02*
X121755171Y-77338191D01*
X121755171Y-77338191D01*
X121755171Y-77338191D01*
X121755171Y-77338191D01*
X121755171Y-77338191D01*
X121755171Y-77338191D01*
X121755171Y-77338191D01*
X121755171Y-77338191D01*
X121755171Y-77338191D01*
X121755171Y-77338191D01*
D13*
G04 #@! TO.C,J1*
D12*
X122159031Y-78793611D02*
X122159031Y-78793611D01*
X122159031Y-78793611D01*
X122159031Y-78793611D01*
X122159031Y-78793611D01*
X122159031Y-78793611D01*
X122159031Y-78793611D02*
X122159031Y-78793611D01*
X122159031Y-78793611D02*
X122159031Y-78793611D01*
X122159031Y-78793611D01*
X122159031Y-78793611D01*
X122159031Y-78793611D01*
D13*
G04 #@! TO.C,J10*
D12*
X115859831Y-70749431D02*
X115859831Y-70749431D01*
X115859831Y-70749431D01*
X115859831Y-70749431D01*
X115859831Y-70749431D01*
X115859831Y-70749431D01*
X115859831Y-70749431D02*
X115859831Y-70749431D01*
X115859831Y-70749431D02*
X115859831Y-70749431D01*
X115859831Y-70749431D01*
X115859831Y-70749431D01*
X115859831Y-70749431D01*
X115859831Y-70749431D02*
X115859831Y-70749431D01*
X115859831Y-70749431D01*
X115859831Y-70749431D01*
X115859831Y-70749431D01*
X115859831Y-70749431D01*
X115859831Y-70749431D01*
X115859831Y-70749431D01*
X115859831Y-70749431D01*
X115859831Y-70749431D01*
X115859831Y-70749431D01*
X115859831Y-70749431D01*
X115859831Y-70749431D01*
X115859831Y-70749431D01*
X115859831Y-70749431D01*
X115859831Y-70749431D01*
X115859831Y-70749431D01*
X115859831Y-70749431D01*
X115859831Y-70749431D01*
X115859831Y-70749431D01*
X115859831Y-70749431D01*
D13*
G04 #@! TO.C,J9*
D12*
X117195871Y-71503811D02*
X117195871Y-71503811D01*
X117195871Y-71503811D01*
X117195871Y-71503811D01*
X117195871Y-71503811D01*
X117195871Y-71503811D01*
X117195871Y-71503811D02*
X117195871Y-71503811D01*
X117195871Y-71503811D01*
X117195871Y-71503811D01*
X117195871Y-71503811D01*
X117195871Y-71503811D01*
X117195871Y-71503811D01*
X117195871Y-71503811D01*
X117195871Y-71503811D01*
X117195871Y-71503811D01*
X117195871Y-71503811D01*
X117195871Y-71503811D01*
X117195871Y-71503811D01*
X117195871Y-71503811D01*
X117195871Y-71503811D01*
X117195871Y-71503811D01*
X117195871Y-71503811D01*
X117195871Y-71503811D01*
X117195871Y-71503811D01*
X117195871Y-71503811D01*
X117195871Y-71503811D01*
X117195871Y-71503811D01*
D13*
G04 #@! TO.C,J8*
D12*
X120078500Y-86751360D02*
X120078500Y-86751360D01*
X120078500Y-86751360D01*
X120078500Y-86751360D01*
X120078500Y-86751360D01*
X120078500Y-86751360D01*
X120078500Y-86751360D02*
X120078500Y-86751360D01*
X120078500Y-86751360D01*
X120078500Y-86751360D01*
X120078500Y-86751360D01*
X120078500Y-86751360D01*
X120078500Y-86751360D01*
X120078500Y-86751360D01*
X120078500Y-86751360D01*
X120078500Y-86751360D01*
X120078500Y-86751360D01*
X120078500Y-86751360D01*
X120078500Y-86751360D01*
X120078500Y-86751360D01*
X120078500Y-86751360D01*
X120078500Y-86751360D01*
X120078500Y-86751360D01*
X120078500Y-86751360D01*
X120078500Y-86751360D01*
X120078500Y-86751360D01*
X120078500Y-86751360D01*
X120078500Y-86751360D01*
X120078500Y-86751360D01*
X120078500Y-86751360D01*
X120078500Y-86751360D01*
X120078500Y-86751360D01*
X120078500Y-86751360D01*
X120078500Y-86751360D01*
X120078500Y-86751360D01*
X120078500Y-86751360D01*
X120078500Y-86751360D01*
X120078500Y-86751360D01*
D13*
G04 #@! TO.C,J7*
D12*
X118402371Y-72392811D02*
X118402371Y-72392811D01*
X118402371Y-72392811D01*
X118402371Y-72392811D01*
X118402371Y-72392811D01*
X118402371Y-72392811D01*
X118402371Y-72392811D02*
X118402371Y-72392811D01*
X118402371Y-72392811D01*
D13*
G04 #@! TO.C,J5*
D12*
X119484411Y-73444371D02*
X119484411Y-73444371D01*
X119484411Y-73444371D01*
X119484411Y-73444371D01*
X119484411Y-73444371D01*
X119484411Y-73444371D01*
X119484411Y-73444371D02*
X119484411Y-73444371D01*
X119484411Y-73444371D01*
X119484411Y-73444371D01*
X119484411Y-73444371D01*
X119484411Y-73444371D01*
X119484411Y-73444371D01*
X119484411Y-73444371D01*
X119484411Y-73444371D01*
X119484411Y-73444371D01*
X119484411Y-73444371D01*
X119484411Y-73444371D01*
X119484411Y-73444371D01*
X119484411Y-73444371D01*
X119484411Y-73444371D01*
X119484411Y-73444371D01*
D13*
G04 #@! TO.C,J4*
D12*
X120424211Y-74630551D02*
X120424211Y-74630551D01*
X120424211Y-74630551D01*
X120424211Y-74630551D01*
X120424211Y-74630551D01*
X120424211Y-74630551D01*
X120424211Y-74630551D02*
X120424211Y-74630551D01*
X120424211Y-74630551D02*
X120424211Y-74630551D01*
X120424211Y-74630551D01*
D13*
G04 #@! TO.C,J3*
D12*
X121186211Y-75961511D02*
X121186211Y-75961511D01*
X121186211Y-75961511D01*
X121186211Y-75961511D01*
X121186211Y-75961511D01*
X121186211Y-75961511D01*
X121186211Y-75961511D02*
X121186211Y-75961511D01*
X121186211Y-75961511D01*
X121186211Y-75961511D01*
X121186211Y-75961511D01*
X121186211Y-75961511D01*
X121186211Y-75961511D01*
X121186211Y-75961511D01*
X121186211Y-75961511D01*
X121186211Y-75961511D01*
X121186211Y-75961511D01*
X121186211Y-75961511D01*
X121186211Y-75961511D01*
X121186211Y-75961511D01*
D13*
G04 #@! TO.C,J6*
D12*
X118988840Y-88432840D02*
X118988840Y-88432840D01*
X118988840Y-88432840D01*
X118988840Y-88432840D01*
X118988840Y-88432840D01*
X118988840Y-88432840D01*
X118988840Y-88432840D02*
X118988840Y-88432840D01*
X118988840Y-88432840D01*
X118988840Y-88432840D01*
X118988840Y-88432840D01*
X118988840Y-88432840D01*
X118988840Y-88432840D01*
X118988840Y-88432840D01*
X118988840Y-88432840D01*
X118988840Y-88432840D01*
X118988840Y-88432840D01*
X118988840Y-88432840D01*
X118988840Y-88432840D01*
X118988840Y-88432840D01*
X118988840Y-88432840D01*
X118988840Y-88432840D01*
X118988840Y-88432840D01*
X118988840Y-88432840D01*
X118988840Y-88432840D01*
X118988840Y-88432840D01*
X118988840Y-88432840D01*
X118988840Y-88432840D01*
D13*
G04 #@! TD*
M02*
