G04 #@! TF.GenerationSoftware,KiCad,Pcbnew,5.0.2-bee76a0~70~ubuntu18.04.1*
G04 #@! TF.CreationDate,2019-07-03T17:26:22+02:00*
G04 #@! TF.ProjectId,lower_Sensor,6c6f7765-725f-4536-956e-736f722e6b69,rev?*
G04 #@! TF.SameCoordinates,Original*
G04 #@! TF.FileFunction,Copper,L2,Bot*
G04 #@! TF.FilePolarity,Positive*
%FSLAX46Y46*%
G04 Gerber Fmt 4.6, Leading zero omitted, Abs format (unit mm)*
G04 Created by KiCad (PCBNEW 5.0.2-bee76a0~70~ubuntu18.04.1) date Mi 03 Jul 2019 17:26:22 CEST*
%MOMM*%
%LPD*%
G01*
G04 APERTURE LIST*
G04 #@! TA.AperFunction,SMDPad,CuDef*
%ADD10R,0.250000X0.500000*%
G04 #@! TD*
G04 #@! TA.AperFunction,SMDPad,CuDef*
%ADD11R,0.500000X0.250000*%
G04 #@! TD*
G04 #@! TA.AperFunction,ComponentPad*
%ADD12C,1.300000*%
G04 #@! TD*
G04 #@! TA.AperFunction,ViaPad*
%ADD13C,0.450000*%
G04 #@! TD*
G04 #@! TA.AperFunction,Conductor*
%ADD14C,0.130000*%
G04 #@! TD*
G04 APERTURE END LIST*
D10*
G04 #@! TO.P,REF\002A\002A,D4i*
G04 #@! TO.N,ISFET1_D4*
X108750000Y-78500000D03*
G04 #@! TO.P,REF\002A\002A,D3i*
G04 #@! TO.N,ISFET1_D3*
X109750000Y-78500000D03*
G04 #@! TO.P,REF\002A\002A,D2i*
G04 #@! TO.N,ISFET1_D2*
X110750000Y-78500000D03*
D11*
G04 #@! TO.P,REF\002A\002A,ELEC*
G04 #@! TO.N,ELEC1*
X108500000Y-79750000D03*
G04 #@! TO.P,REF\002A\002A,O2*
G04 #@! TO.N,O2_ELEC1*
X108500000Y-79250000D03*
G04 #@! TO.P,REF\002A\002A,G*
G04 #@! TO.N,N/C*
X108500000Y-80750000D03*
D10*
G04 #@! TO.P,REF\002A\002A,D3m*
G04 #@! TO.N,REFFET1_D3*
X109750000Y-81500000D03*
G04 #@! TO.P,REF\002A\002A,D4m*
G04 #@! TO.N,REFFET1_D4*
X108750000Y-81500000D03*
G04 #@! TO.P,REF\002A\002A,D2m*
G04 #@! TO.N,REFFET1_D2*
X110750000Y-81500000D03*
D11*
G04 #@! TO.P,REF\002A\002A,SUB*
G04 #@! TO.N,N/C*
X111500000Y-80750000D03*
G04 #@! TO.P,REF\002A\002A,S*
X111500000Y-79750000D03*
G04 #@! TO.P,REF\002A\002A,D1i*
G04 #@! TO.N,ISFET1_D1*
X111500000Y-78750000D03*
G04 #@! TD*
D12*
G04 #@! TO.P,J14,1*
G04 #@! TO.N,O2_ELEC1*
X99611180Y-75430380D03*
G04 #@! TD*
G04 #@! TO.P,J16,1*
G04 #@! TO.N,GNDD*
X117627400Y-88419940D03*
G04 #@! TD*
G04 #@! TO.P,J15,1*
G04 #@! TO.N,N/C*
X104863900Y-90159840D03*
G04 #@! TD*
G04 #@! TO.P,J13,1*
G04 #@! TO.N,ELEC1*
X98927920Y-77505560D03*
G04 #@! TD*
G04 #@! TO.P,J2,1*
G04 #@! TO.N,ISFET1_D3*
X120731280Y-76314300D03*
G04 #@! TD*
G04 #@! TO.P,J1,1*
G04 #@! TO.N,ISFET1_D2*
X121135140Y-77769720D03*
G04 #@! TD*
G04 #@! TO.P,J10,1*
G04 #@! TO.N,REFFET1_D2*
X114835940Y-69725540D03*
G04 #@! TD*
G04 #@! TO.P,J9,1*
G04 #@! TO.N,REFFET1_D3*
X116171980Y-70479920D03*
G04 #@! TD*
G04 #@! TO.P,J8,1*
G04 #@! TO.N,N/C*
X120078500Y-85303360D03*
G04 #@! TD*
G04 #@! TO.P,J7,1*
G04 #@! TO.N,REFFET1_D4*
X117378480Y-71368920D03*
G04 #@! TD*
G04 #@! TO.P,J5,1*
G04 #@! TO.N,N/C*
X118460520Y-72420480D03*
G04 #@! TD*
G04 #@! TO.P,J4,1*
G04 #@! TO.N,N/C*
X119400320Y-73606660D03*
G04 #@! TD*
G04 #@! TO.P,J3,1*
G04 #@! TO.N,ISFET1_D4*
X120162320Y-74937620D03*
G04 #@! TD*
G04 #@! TO.P,J6,1*
G04 #@! TO.N,GNDD*
X118988840Y-86984840D03*
G04 #@! TD*
D13*
G04 #@! TO.N,*
X115650000Y-85990000D03*
X116083482Y-75460889D03*
X116109996Y-74820000D03*
G04 #@! TO.N,REFFET1_D2*
X110770000Y-82530000D03*
G04 #@! TO.N,REFFET1_D3*
X109750022Y-82539990D03*
G04 #@! TO.N,REFFET1_D4*
X108750000Y-82539990D03*
G04 #@! TO.N,ISFET1_D4*
X116083482Y-76041746D03*
G04 #@! TO.N,ISFET1_D3*
X116080043Y-76624375D03*
G04 #@! TO.N,ISFET1_D2*
X116080044Y-77204393D03*
G04 #@! TO.N,ELEC1*
X102340000Y-79750008D03*
G04 #@! TO.N,O2_ELEC1*
X102850000Y-78730000D03*
G04 #@! TD*
D14*
G04 #@! TO.N,*
X119204237Y-83595763D02*
X119550000Y-82531613D01*
X114677858Y-88100000D02*
X114854425Y-88007885D01*
X114854425Y-88007885D02*
X115722978Y-87402021D01*
X114675000Y-88100000D02*
X114677858Y-88100000D01*
X117504743Y-85600937D02*
X118159361Y-84595267D01*
X115722978Y-87402021D02*
X117394124Y-85730876D01*
X118159361Y-84595267D02*
X118175000Y-84562794D01*
X117394124Y-85730876D02*
X117504743Y-85600937D01*
X113790542Y-88562912D02*
X114671880Y-88103119D01*
X102151822Y-85108601D02*
X102869522Y-86070252D01*
X100808303Y-78209923D02*
X100654857Y-79400015D01*
X107916233Y-89129599D02*
X109100808Y-89321111D01*
X101562980Y-84063052D02*
X102151822Y-85108601D01*
X101112676Y-77049210D02*
X100808303Y-78209923D01*
X101112675Y-82950788D02*
X101562980Y-84063052D01*
X101562981Y-75936946D02*
X101112676Y-77049210D01*
X100808302Y-81790076D02*
X101112675Y-82950788D01*
X102151822Y-74891399D02*
X101562981Y-75936946D01*
X100654857Y-80599984D02*
X100808302Y-81790076D01*
X110300146Y-70640428D02*
X109100810Y-70678887D01*
X110300146Y-89359571D02*
X111494545Y-89244351D01*
X102869523Y-73929746D02*
X102151822Y-74891399D01*
X104642480Y-72319593D02*
X103718790Y-73056210D01*
X105668614Y-71697543D02*
X104642480Y-72319593D01*
X106765871Y-71211821D02*
X105668614Y-71697543D01*
X107916233Y-70870399D02*
X106765871Y-71211821D01*
X109100810Y-70678887D02*
X107916233Y-70870399D01*
X119364384Y-80000000D02*
X119287503Y-78802516D01*
X119287502Y-81197484D02*
X119364384Y-80000000D01*
X113790543Y-71437088D02*
X112664419Y-71022665D01*
X103614367Y-73160633D02*
X102869523Y-73929746D01*
X119058121Y-82375313D02*
X119287502Y-81197484D01*
X119058122Y-77624687D02*
X118680005Y-76485858D01*
X103718790Y-73056210D02*
X103614367Y-73160633D01*
X118680003Y-83514143D02*
X119058121Y-82375313D01*
X118680005Y-76485858D02*
X118159364Y-75404736D01*
X119287503Y-78802516D02*
X119058122Y-77624687D01*
X118159364Y-75404736D02*
X117504744Y-74399064D01*
X111494546Y-70755649D02*
X110300146Y-70640428D01*
X117504744Y-74399064D02*
X116726901Y-73485365D01*
X116726901Y-73485365D02*
X115838593Y-72678626D01*
X100654857Y-79400015D02*
X100654857Y-80599984D01*
X102869522Y-86070252D02*
X103704317Y-86932247D01*
X109100808Y-89321111D02*
X110300146Y-89359571D01*
X112664419Y-71022665D02*
X111494546Y-70755649D01*
X115838593Y-72678626D02*
X114854424Y-71992113D01*
X118558451Y-83766549D02*
X118680003Y-83514143D01*
X114854424Y-71992113D02*
X113790543Y-71437088D01*
X103704317Y-86932247D02*
X104642479Y-87680405D01*
X104642479Y-87680405D02*
X105668614Y-88302455D01*
X105668614Y-88302455D02*
X106765870Y-88788177D01*
X106765870Y-88788177D02*
X107916233Y-89129599D01*
X111494545Y-89244351D02*
X112664418Y-88977335D01*
X112664418Y-88977335D02*
X113790542Y-88562912D01*
X119063502Y-85086498D02*
X119275000Y-84075000D01*
X119063502Y-85088503D02*
X119063502Y-85086498D01*
X117688968Y-87009416D02*
X118492062Y-86011408D01*
X116769314Y-87901173D02*
X117688968Y-87009416D01*
X115747042Y-88673157D02*
X116769314Y-87901173D01*
X113457954Y-89812987D02*
X114637643Y-89313669D01*
X112225835Y-90163554D02*
X113457954Y-89812987D01*
X110959998Y-90360046D02*
X112225835Y-90163554D01*
X109679596Y-90399495D02*
X110959998Y-90360046D01*
X108404061Y-90281299D02*
X109679596Y-90399495D01*
X114637643Y-89313669D02*
X115747042Y-88673157D01*
X107152698Y-90007248D02*
X108404061Y-90281299D01*
X105944508Y-89581500D02*
X107152698Y-90007248D01*
X102757122Y-87469464D02*
X103729928Y-88302912D01*
X101894113Y-86522787D02*
X102757122Y-87469464D01*
X119166429Y-75077728D02*
X118492063Y-73988592D01*
X113457959Y-70187014D02*
X112225837Y-69836446D01*
X119701842Y-76241488D02*
X119166429Y-75077728D01*
X117688972Y-72990586D02*
X116769315Y-72098827D01*
X118492063Y-73988592D02*
X117688972Y-72990586D01*
X118492062Y-86011408D02*
X119063502Y-85088503D01*
X120090187Y-77462227D02*
X119701842Y-76241488D01*
X120090186Y-85059814D02*
X120090186Y-82537773D01*
X120325569Y-81278579D02*
X120404430Y-80000000D01*
X120090186Y-82537773D02*
X120325569Y-81278579D01*
X119975000Y-85175000D02*
X120090186Y-85059814D01*
X104797789Y-89010502D02*
X105944508Y-89581500D01*
X99772722Y-81911799D02*
X100085179Y-83154125D01*
X120404430Y-80000000D02*
X120325570Y-78721421D01*
X114637648Y-70686333D02*
X113457959Y-70187014D01*
X116769315Y-72098827D02*
X115747043Y-71326843D01*
X115747043Y-71326843D02*
X114637648Y-70686333D01*
X120325570Y-78721421D02*
X120090187Y-77462227D01*
X100085180Y-76845874D02*
X99772723Y-78088199D01*
X109679596Y-69600504D02*
X108404070Y-69718697D01*
X108404070Y-69718697D02*
X107152699Y-69992750D01*
X107152699Y-69992750D02*
X105944509Y-70418498D01*
X112225837Y-69836446D02*
X110960000Y-69639954D01*
X105944509Y-70418498D02*
X104797790Y-70989496D01*
X104797790Y-70989496D02*
X103729929Y-71697086D01*
X103729929Y-71697086D02*
X102757125Y-72530533D01*
X99615304Y-80640510D02*
X99635082Y-80800240D01*
X110960000Y-69639954D02*
X109679596Y-69600504D01*
X102757125Y-72530533D02*
X101894114Y-73477211D01*
X100547933Y-75651368D02*
X100085180Y-76845874D01*
X101153973Y-74522776D02*
X100547933Y-75651368D01*
X99772723Y-78088199D02*
X99615304Y-79359488D01*
X99615304Y-79359488D02*
X99615304Y-80640510D01*
X103729928Y-88302912D02*
X104797789Y-89010502D01*
X101894114Y-73477211D02*
X101153973Y-74522776D01*
X99635082Y-80800240D02*
X99772722Y-81911799D01*
X100547931Y-84348629D02*
X101153972Y-85477223D01*
X100085179Y-83154125D02*
X100547931Y-84348629D01*
X101153972Y-85477223D02*
X101894113Y-86522787D01*
X119044720Y-84005420D02*
X119199660Y-83601560D01*
X118859300Y-84896960D02*
X118912640Y-84632800D01*
X118750000Y-85101871D02*
X118859300Y-84896960D01*
X118279851Y-85861187D02*
X118750000Y-85101871D01*
X117496826Y-86834255D02*
X118279851Y-85861187D01*
X116600154Y-87703727D02*
X117496826Y-86834255D01*
X115603427Y-88456420D02*
X116600154Y-87703727D01*
X118912640Y-84632800D02*
X119044720Y-84005420D01*
X114521755Y-89080924D02*
X115603427Y-88456420D01*
X113371542Y-89567767D02*
X114521755Y-89080924D01*
X112170214Y-89909573D02*
X113371542Y-89567767D01*
X110936008Y-90101155D02*
X112170214Y-89909573D01*
X109687603Y-90139618D02*
X110936008Y-90101155D01*
X108443943Y-90024376D02*
X109687603Y-90139618D01*
X107223843Y-89757172D02*
X108443943Y-90024376D01*
X106045858Y-89342067D02*
X107223843Y-89757172D01*
X104927789Y-88785336D02*
X106045858Y-89342067D01*
X120067541Y-78753372D02*
X119838040Y-77525644D01*
X115603429Y-71543580D02*
X114521756Y-70919076D01*
X116600155Y-72296272D02*
X115603429Y-71543580D01*
X119838039Y-82474356D02*
X120067540Y-81246628D01*
X117496827Y-73165745D02*
X116600155Y-72296272D01*
X119459399Y-83664589D02*
X119838039Y-82474356D01*
X114521756Y-70919076D02*
X113371547Y-70432234D01*
X119459400Y-76335412D02*
X119459125Y-76334813D01*
X119273320Y-84084160D02*
X119459399Y-83664589D01*
X118279851Y-74138812D02*
X117496827Y-73165745D01*
X118937366Y-75200734D02*
X118279851Y-74138812D01*
X120067540Y-81246628D02*
X120144430Y-80000000D01*
X119459125Y-76334813D02*
X118937366Y-75200734D01*
X102938119Y-87282808D02*
X103886613Y-88095427D01*
X119838040Y-77525644D02*
X119459400Y-76335412D01*
X120144430Y-80000000D02*
X120067541Y-78753372D01*
X112170215Y-70090427D02*
X110936010Y-69898845D01*
X110936010Y-69898845D02*
X109687607Y-69860381D01*
X107223844Y-70242826D02*
X106045860Y-70657931D01*
X108443944Y-69975622D02*
X107223844Y-70242826D01*
X109687607Y-69860381D02*
X108443944Y-69975622D01*
X102096671Y-86359784D02*
X102938119Y-87282808D01*
X101375031Y-85340354D02*
X102096671Y-86359784D01*
X100784132Y-84239960D02*
X101375031Y-85340354D01*
X100332944Y-83075305D02*
X100784132Y-84239960D01*
X113371547Y-70432234D02*
X112170215Y-70090427D01*
X106045860Y-70657931D02*
X104927790Y-71214662D01*
X104927790Y-71214662D02*
X103886614Y-71904571D01*
X102938119Y-72717190D02*
X102096674Y-73640211D01*
X102096674Y-73640211D02*
X101375032Y-74659644D01*
X101375032Y-74659644D02*
X100784133Y-75760038D01*
X100784133Y-75760038D02*
X100332945Y-76924693D01*
X100332945Y-76924693D02*
X100028296Y-78135973D01*
X100028296Y-78135973D02*
X99874811Y-79375494D01*
X103886614Y-71904571D02*
X102938119Y-72717190D01*
X99874811Y-79375494D02*
X99874811Y-80624504D01*
X99874811Y-80624504D02*
X99887570Y-80727549D01*
X103886613Y-88095427D02*
X104927789Y-88785336D01*
X99887570Y-80727549D02*
X100028295Y-81864025D01*
X100028295Y-81864025D02*
X100332944Y-83075305D01*
X118450000Y-85095548D02*
X118618000Y-84808060D01*
X117996653Y-85809908D02*
X118450000Y-85095548D01*
X117205423Y-86766340D02*
X117996653Y-85809908D01*
X116300555Y-87616068D02*
X117205423Y-86766340D01*
X114208567Y-88943683D02*
X115296326Y-88345683D01*
X113054444Y-89400632D02*
X114208567Y-88943683D01*
X111852152Y-89709328D02*
X113054444Y-89400632D01*
X110620651Y-89864902D02*
X111852152Y-89709328D01*
X109379348Y-89864902D02*
X110620651Y-89864902D01*
X108147849Y-89709327D02*
X109379348Y-89864902D01*
X106945554Y-89400631D02*
X108147849Y-89709327D01*
X105791431Y-88943682D02*
X106945554Y-89400631D01*
X104703674Y-88345683D02*
X105791431Y-88943682D01*
X103699443Y-87616067D02*
X104703674Y-88345683D01*
X111852153Y-70290672D02*
X110738621Y-70150000D01*
X100193532Y-81238835D02*
X100426126Y-82458141D01*
X110738621Y-70150000D02*
X109261379Y-70150000D01*
X117205426Y-73233662D02*
X116300556Y-72383932D01*
X117996654Y-74190092D02*
X117205426Y-73233662D01*
X115296326Y-88345683D02*
X116300555Y-87616068D01*
X118661776Y-75238157D02*
X117996654Y-74190092D01*
X119190291Y-76361311D02*
X118661776Y-75238157D01*
X118808500Y-83906360D02*
X118874540Y-83705700D01*
X118618000Y-84808060D02*
X118808500Y-83906360D01*
X119529117Y-82595883D02*
X119573871Y-82458146D01*
X119884407Y-80000000D02*
X119806467Y-78761164D01*
X100426126Y-82458141D02*
X100809707Y-83638684D01*
X113054445Y-70599368D02*
X111852153Y-70290672D01*
X115296325Y-71654316D02*
X114208568Y-71056317D01*
X116300556Y-72383932D02*
X115296325Y-71654316D01*
X114208568Y-71056317D02*
X113054445Y-70599368D01*
X100809707Y-83638684D02*
X101338223Y-84761842D01*
X119806466Y-81238835D02*
X119884407Y-80000000D01*
X119573871Y-82458146D02*
X119806466Y-81238835D01*
X119806467Y-78761164D02*
X119573873Y-77541858D01*
X119573873Y-77541858D02*
X119190291Y-76361311D01*
X106945555Y-70599367D02*
X105791432Y-71056316D01*
X108147847Y-70290671D02*
X106945555Y-70599367D01*
X105791432Y-71056316D02*
X104703675Y-71654315D01*
X104703675Y-71654315D02*
X103699441Y-72383933D01*
X103699441Y-72383933D02*
X102794576Y-73233658D01*
X102794576Y-73233658D02*
X102003346Y-74190091D01*
X109261379Y-70150000D02*
X108147847Y-70290671D01*
X102003346Y-74190091D02*
X101338224Y-75238156D01*
X100193533Y-78761163D02*
X100150000Y-79453104D01*
X100150000Y-79453104D02*
X100150000Y-80546894D01*
X100150000Y-80546894D02*
X100193532Y-81238835D01*
X101338224Y-75238156D02*
X100809708Y-76361314D01*
X102794576Y-86766340D02*
X103699443Y-87616067D01*
X100809708Y-76361314D02*
X100426127Y-77541858D01*
X100426127Y-77541858D02*
X100193533Y-78761163D01*
X101338223Y-84761842D02*
X102003345Y-85809907D01*
X102003345Y-85809907D02*
X102794576Y-86766340D01*
X118402100Y-84653120D02*
X118562120Y-83764120D01*
X118300000Y-84854826D02*
X118402100Y-84653120D01*
X117713113Y-85756442D02*
X118300000Y-84854826D01*
X117393661Y-86131689D02*
X117713113Y-85756442D01*
X116000702Y-87524648D02*
X117393661Y-86131689D01*
X110308479Y-89619438D02*
X111536035Y-89501019D01*
X109075843Y-89579909D02*
X110308479Y-89619438D01*
X107858377Y-89383080D02*
X109075843Y-89579909D01*
X114989204Y-88230224D02*
X116000702Y-87524648D01*
X106676074Y-89032179D02*
X107858377Y-89383080D01*
X112738397Y-70773411D02*
X111536042Y-70498982D01*
X118921003Y-76388288D02*
X118385907Y-75277149D01*
X104493729Y-72106348D02*
X103529521Y-72875278D01*
X113895786Y-71199340D02*
X112738397Y-70773411D01*
X114989205Y-71769776D02*
X113895786Y-71199340D01*
X116000702Y-72475352D02*
X114989205Y-71769776D01*
X118385907Y-75277149D02*
X117713113Y-74243556D01*
X112738395Y-89226589D02*
X113895781Y-88800662D01*
X111536035Y-89501019D02*
X112738395Y-89226589D01*
X117713113Y-74243556D02*
X116913675Y-73304491D01*
X119309619Y-77558736D02*
X118921003Y-76388288D01*
X119545369Y-78769274D02*
X119309619Y-77558736D01*
X119624384Y-80000000D02*
X119545369Y-78769274D01*
X118875000Y-83700000D02*
X118881722Y-83693278D01*
X118921003Y-83611711D02*
X119309618Y-82441264D01*
X119309618Y-82441264D02*
X119545367Y-81230732D01*
X116913675Y-73304491D02*
X116000702Y-72475352D01*
X102671546Y-86238791D02*
X103529519Y-87124719D01*
X118881722Y-83693278D02*
X118921003Y-83611711D01*
X119545367Y-81230732D02*
X119624384Y-80000000D01*
X107858385Y-70616916D02*
X106676075Y-70967819D01*
X110308479Y-70380561D02*
X109075844Y-70420089D01*
X111536042Y-70498982D02*
X110308479Y-70380561D01*
X109075844Y-70420089D02*
X107858385Y-70616916D01*
X106676075Y-70967819D02*
X105548354Y-71467027D01*
X101933918Y-85250438D02*
X102671546Y-86238791D01*
X105548354Y-71467027D02*
X104493729Y-72106348D01*
X104493728Y-87893650D02*
X105548353Y-88532971D01*
X103529519Y-87124719D02*
X104493728Y-87893650D01*
X100553097Y-81839777D02*
X100563421Y-81879150D01*
X100865921Y-76967282D02*
X100553098Y-78160221D01*
X101328729Y-75824136D02*
X100865921Y-76967282D01*
X102671547Y-73761207D02*
X101933919Y-74749560D01*
X101933919Y-74749560D02*
X101328729Y-75824136D01*
X100553098Y-78160221D02*
X100395391Y-79383357D01*
X100395391Y-80616642D02*
X100553097Y-81839777D01*
X103529521Y-72875278D02*
X102671547Y-73761207D01*
X100395391Y-79383357D02*
X100395391Y-80616642D01*
X113895781Y-88800662D02*
X114989204Y-88230224D01*
X105548353Y-88532971D02*
X106676074Y-89032179D01*
X100563421Y-81879150D02*
X100865920Y-83032716D01*
X100865920Y-83032716D02*
X101328728Y-84175861D01*
X101328728Y-84175861D02*
X101933918Y-85250438D01*
X118303040Y-83784440D02*
X118346220Y-83588860D01*
X118181120Y-84561680D02*
X118303040Y-83784440D01*
X117975380Y-84368105D02*
X118082060Y-83601560D01*
X117884603Y-84552182D02*
X117975380Y-84368105D01*
X115512682Y-87242817D02*
X117242815Y-85512685D01*
X114552180Y-87884604D02*
X115512682Y-87242817D01*
X113484077Y-88411334D02*
X114552180Y-87884604D01*
X112356376Y-88794135D02*
X113484077Y-88411334D01*
X111188354Y-89026469D02*
X112356376Y-88794135D01*
X117242815Y-85512685D02*
X117884603Y-84552182D01*
X108811646Y-89026468D02*
X109999999Y-89104358D01*
X112356377Y-71205865D02*
X111188356Y-70973532D01*
X113484077Y-71588666D02*
X112356377Y-71205865D01*
X116437756Y-73562250D02*
X115542380Y-72777026D01*
X115542380Y-72777026D02*
X114552181Y-72115396D01*
X119104358Y-80000000D02*
X119026469Y-78811645D01*
X118794135Y-77643623D02*
X118411337Y-76515928D01*
X118525393Y-83148067D02*
X118794134Y-82356377D01*
X111188356Y-70973532D02*
X110000005Y-70895642D01*
X117222977Y-74457623D02*
X116437756Y-73562250D01*
X117884606Y-75447824D02*
X117222977Y-74457623D01*
X118338600Y-83596480D02*
X118525393Y-83148067D01*
X107643623Y-71205864D02*
X106515923Y-71588665D01*
X118794134Y-82356377D02*
X119026467Y-81188355D01*
X110000005Y-70895642D02*
X108811644Y-70973531D01*
X108811644Y-70973531D02*
X107643623Y-71205864D01*
X114552181Y-72115396D02*
X113484077Y-71588666D01*
X119026467Y-81188355D02*
X119104358Y-80000000D01*
X109999999Y-89104358D02*
X111188354Y-89026469D01*
X118411337Y-76515928D02*
X117884606Y-75447824D01*
X119026469Y-78811645D02*
X118794135Y-77643623D01*
X105447824Y-72115393D02*
X104457623Y-72777022D01*
X104457623Y-72777022D02*
X103562250Y-73562243D01*
X103562250Y-73562243D02*
X102777023Y-74457622D01*
X106515923Y-71588665D02*
X105447824Y-72115393D01*
X107643622Y-88794134D02*
X108811646Y-89026468D01*
X106515922Y-88411333D02*
X107643622Y-88794134D01*
X105447823Y-87884605D02*
X106515922Y-88411333D01*
X101588665Y-83484076D02*
X102115395Y-84552181D01*
X102115394Y-75447823D02*
X101588666Y-76515922D01*
X101588666Y-76515922D02*
X101205865Y-77643622D01*
X101205865Y-77643622D02*
X100973532Y-78811643D01*
X102777023Y-74457622D02*
X102115394Y-75447823D01*
X101205864Y-82356377D02*
X101588665Y-83484076D01*
X100973531Y-81188354D02*
X101205864Y-82356377D01*
X100895642Y-80000000D02*
X100973531Y-81188354D01*
X100973532Y-78811643D02*
X100895642Y-80000000D01*
X102115395Y-84552181D02*
X102777026Y-85542380D01*
X104457622Y-87222976D02*
X105447823Y-87884605D01*
X102777026Y-85542380D02*
X103562247Y-86437752D01*
X103562247Y-86437752D02*
X104457622Y-87222976D01*
X115480647Y-86909093D02*
X115650000Y-85990000D01*
X115240349Y-87112252D02*
X115480647Y-86909093D01*
X114245615Y-87747267D02*
X115240349Y-87112252D01*
X113175126Y-88244025D02*
X114245615Y-87747267D01*
X112047971Y-88593673D02*
X113175126Y-88244025D01*
X110884274Y-88789963D02*
X112047971Y-88593673D01*
X109522932Y-88811100D02*
X110252037Y-88811100D01*
X108530595Y-88711270D02*
X109522932Y-88811100D01*
X107382605Y-88437691D02*
X108530595Y-88711270D01*
X106281323Y-88013541D02*
X107382605Y-88437691D01*
X110884275Y-71210037D02*
X109862637Y-71175880D01*
X112047972Y-71406327D02*
X110884275Y-71210037D01*
X113175127Y-71755975D02*
X112047972Y-71406327D01*
X114245617Y-72252733D02*
X113175127Y-71755975D01*
X118737380Y-81266672D02*
X118737380Y-78733328D01*
X115240351Y-72887748D02*
X114245617Y-72252733D01*
X118133326Y-76551173D02*
X117601073Y-75497879D01*
X109862637Y-71175880D02*
X109652346Y-71175880D01*
X118084600Y-83606640D02*
X118536720Y-82283300D01*
X107382606Y-71562307D02*
X106281324Y-71986457D01*
X116933179Y-74524927D02*
X116141558Y-73649672D01*
X116141558Y-73649672D02*
X115240351Y-72887748D01*
X110252037Y-88811100D02*
X110884274Y-88789963D01*
X117601073Y-75497879D02*
X116933179Y-74524927D01*
X118520441Y-77666014D02*
X118133326Y-76551173D01*
X118536720Y-82283300D02*
X118608271Y-81901869D01*
X118608271Y-81901869D02*
X118737380Y-81266672D01*
X101654482Y-77102118D02*
X101342692Y-78240336D01*
X118737380Y-78733328D02*
X118520441Y-77666014D01*
X109652346Y-71175880D02*
X108530594Y-71288728D01*
X108530594Y-71288728D02*
X107382606Y-71562307D01*
X105246407Y-72553607D02*
X104296319Y-73253635D01*
X104296319Y-73253635D02*
X103447998Y-74074067D01*
X106281324Y-71986457D02*
X105246407Y-72553607D01*
X103447998Y-74074067D02*
X102716610Y-75000238D01*
X102716610Y-75000238D02*
X102115191Y-76015633D01*
X102115191Y-76015633D02*
X101654482Y-77102118D01*
X102115190Y-83984365D02*
X102716609Y-84999760D01*
X101342692Y-78240336D02*
X101185398Y-79409925D01*
X101185398Y-79409925D02*
X101185398Y-80590073D01*
X101185398Y-80590073D02*
X101342691Y-81759663D01*
X101342691Y-81759663D02*
X101654480Y-82897880D01*
X101654480Y-82897880D02*
X102115190Y-83984365D01*
X102716609Y-84999760D02*
X103447998Y-85925932D01*
X103447998Y-85925932D02*
X104296315Y-86746360D01*
X104296315Y-86746360D02*
X105246406Y-87446391D01*
X105246406Y-87446391D02*
X106281323Y-88013541D01*
X115650000Y-85990000D02*
X115650000Y-85990000D01*
X115650000Y-85990000D02*
X115650000Y-85990000D01*
X119400320Y-73606660D02*
X119400320Y-73621900D01*
X116023228Y-75400635D02*
X116083482Y-75460889D01*
X108010000Y-80760000D02*
X108500000Y-80760000D01*
X107530000Y-81240000D02*
X108010000Y-80760000D01*
X116109996Y-74820000D02*
X116730000Y-75440004D01*
X116730000Y-75440004D02*
X116730000Y-77750000D01*
X116730000Y-77750000D02*
X111520000Y-82960000D01*
X111520000Y-82960000D02*
X108020000Y-82960000D01*
X107530000Y-82470000D02*
X107530000Y-81240000D01*
X108020000Y-82960000D02*
X107530000Y-82470000D01*
X116503483Y-75840145D02*
X116503483Y-77666517D01*
X116083482Y-75460889D02*
X116124227Y-75460889D01*
X116124227Y-75460889D02*
X116503483Y-75840145D01*
X116503483Y-77666517D02*
X114420000Y-79750000D01*
X114420000Y-79750000D02*
X111510000Y-79750000D01*
X112510000Y-80120000D02*
X112510000Y-79760000D01*
X111500000Y-80750000D02*
X111880000Y-80750000D01*
X111880000Y-80750000D02*
X112510000Y-80120000D01*
G04 #@! TO.N,REFFET1_D2*
X110770000Y-82530000D02*
X110770000Y-81560000D01*
G04 #@! TO.N,REFFET1_D3*
X109750022Y-82221792D02*
X109750022Y-82539990D01*
X109750022Y-81540022D02*
X109750022Y-82221792D01*
X109740000Y-81530000D02*
X109750022Y-81540022D01*
G04 #@! TO.N,REFFET1_D4*
X108750000Y-81510000D02*
X108750000Y-82539990D01*
G04 #@! TO.N,ISFET1_D4*
X116022188Y-75980452D02*
X116083482Y-76041746D01*
X108750000Y-78120000D02*
X110830000Y-76040000D01*
X108750000Y-78500000D02*
X108750000Y-78120000D01*
X110830000Y-76040000D02*
X116110000Y-76040000D01*
G04 #@! TO.N,ISFET1_D3*
X111200000Y-76620000D02*
X116100000Y-76620000D01*
X109750000Y-78500000D02*
X109750000Y-78070000D01*
X109750000Y-78070000D02*
X111200000Y-76620000D01*
G04 #@! TO.N,ISFET1_D2*
X120985280Y-77619860D02*
X120703340Y-77619860D01*
X121135140Y-77769720D02*
X120985280Y-77619860D01*
X110750000Y-78120000D02*
X111660000Y-77210000D01*
X110750000Y-78500000D02*
X110750000Y-78120000D01*
X111660000Y-77210000D02*
X116090000Y-77210000D01*
G04 #@! TO.N,ELEC1*
X108500000Y-79750000D02*
X102340008Y-79750000D01*
X102340008Y-79750000D02*
X102340000Y-79750008D01*
G04 #@! TO.N,O2_ELEC1*
X108490000Y-79250000D02*
X108510000Y-79230000D01*
X102850000Y-78730000D02*
X103370000Y-79250000D01*
X103370000Y-79250000D02*
X108490000Y-79250000D01*
G04 #@! TD*
M02*
