G04 #@! TF.GenerationSoftware,KiCad,Pcbnew,5.0.2-bee76a0~70~ubuntu18.04.1*
G04 #@! TF.CreationDate,2019-06-04T20:48:53+02:00*
G04 #@! TF.ProjectId,lower_Sensor,6c6f7765-725f-4536-956e-736f722e6b69,rev?*
G04 #@! TF.SameCoordinates,Original*
G04 #@! TF.FileFunction,Paste,Top*
G04 #@! TF.FilePolarity,Positive*
%FSLAX46Y46*%
G04 Gerber Fmt 4.6, Leading zero omitted, Abs format (unit mm)*
G04 Created by KiCad (PCBNEW 5.0.2-bee76a0~70~ubuntu18.04.1) date Di 04 Jun 2019 20:48:53 CEST*
%MOMM*%
%LPD*%
G01*
G04 APERTURE LIST*
%ADD10C,0.100000*%
%ADD11C,0.875000*%
%ADD12C,0.150000*%
G04 APERTURE END LIST*
D10*
G04 #@! TO.C,REF\002A\002A*
G36*
X135005911Y-64283558D02*
X135027031Y-64287401D01*
X135047673Y-64293296D01*
X135067638Y-64301186D01*
X135086733Y-64310994D01*
X135530571Y-64567244D01*
X135548613Y-64578877D01*
X135565428Y-64592222D01*
X135580854Y-64607151D01*
X135594742Y-64623520D01*
X135606959Y-64641172D01*
X135617387Y-64659936D01*
X135625925Y-64679632D01*
X135632492Y-64700070D01*
X135637024Y-64721054D01*
X135639478Y-64742380D01*
X135639829Y-64763844D01*
X135638075Y-64785240D01*
X135634232Y-64806360D01*
X135628337Y-64827002D01*
X135620447Y-64846967D01*
X135610639Y-64866062D01*
X135391889Y-65244948D01*
X135380256Y-65262990D01*
X135366911Y-65279805D01*
X135351982Y-65295231D01*
X135335613Y-65309119D01*
X135317961Y-65321336D01*
X135299197Y-65331764D01*
X135279501Y-65340302D01*
X135259063Y-65346869D01*
X135238079Y-65351401D01*
X135216753Y-65353855D01*
X135195289Y-65354206D01*
X135173893Y-65352452D01*
X135152773Y-65348609D01*
X135132131Y-65342714D01*
X135112166Y-65334824D01*
X135093071Y-65325016D01*
X134649233Y-65068766D01*
X134631191Y-65057133D01*
X134614376Y-65043788D01*
X134598950Y-65028859D01*
X134585062Y-65012490D01*
X134572845Y-64994838D01*
X134562417Y-64976074D01*
X134553879Y-64956378D01*
X134547312Y-64935940D01*
X134542780Y-64914956D01*
X134540326Y-64893630D01*
X134539975Y-64872166D01*
X134541729Y-64850770D01*
X134545572Y-64829650D01*
X134551467Y-64809008D01*
X134559357Y-64789043D01*
X134569165Y-64769948D01*
X134787915Y-64391062D01*
X134799548Y-64373020D01*
X134812893Y-64356205D01*
X134827822Y-64340779D01*
X134844191Y-64326891D01*
X134861843Y-64314674D01*
X134880607Y-64304246D01*
X134900303Y-64295708D01*
X134920741Y-64289141D01*
X134941725Y-64284609D01*
X134963051Y-64282155D01*
X134984515Y-64281804D01*
X135005911Y-64283558D01*
X135005911Y-64283558D01*
G37*
D11*
X135089902Y-64818005D03*
D10*
G36*
X134218411Y-65647548D02*
X134239531Y-65651391D01*
X134260173Y-65657286D01*
X134280138Y-65665176D01*
X134299233Y-65674984D01*
X134743071Y-65931234D01*
X134761113Y-65942867D01*
X134777928Y-65956212D01*
X134793354Y-65971141D01*
X134807242Y-65987510D01*
X134819459Y-66005162D01*
X134829887Y-66023926D01*
X134838425Y-66043622D01*
X134844992Y-66064060D01*
X134849524Y-66085044D01*
X134851978Y-66106370D01*
X134852329Y-66127834D01*
X134850575Y-66149230D01*
X134846732Y-66170350D01*
X134840837Y-66190992D01*
X134832947Y-66210957D01*
X134823139Y-66230052D01*
X134604389Y-66608938D01*
X134592756Y-66626980D01*
X134579411Y-66643795D01*
X134564482Y-66659221D01*
X134548113Y-66673109D01*
X134530461Y-66685326D01*
X134511697Y-66695754D01*
X134492001Y-66704292D01*
X134471563Y-66710859D01*
X134450579Y-66715391D01*
X134429253Y-66717845D01*
X134407789Y-66718196D01*
X134386393Y-66716442D01*
X134365273Y-66712599D01*
X134344631Y-66706704D01*
X134324666Y-66698814D01*
X134305571Y-66689006D01*
X133861733Y-66432756D01*
X133843691Y-66421123D01*
X133826876Y-66407778D01*
X133811450Y-66392849D01*
X133797562Y-66376480D01*
X133785345Y-66358828D01*
X133774917Y-66340064D01*
X133766379Y-66320368D01*
X133759812Y-66299930D01*
X133755280Y-66278946D01*
X133752826Y-66257620D01*
X133752475Y-66236156D01*
X133754229Y-66214760D01*
X133758072Y-66193640D01*
X133763967Y-66172998D01*
X133771857Y-66153033D01*
X133781665Y-66133938D01*
X134000415Y-65755052D01*
X134012048Y-65737010D01*
X134025393Y-65720195D01*
X134040322Y-65704769D01*
X134056691Y-65690881D01*
X134074343Y-65678664D01*
X134093107Y-65668236D01*
X134112803Y-65659698D01*
X134133241Y-65653131D01*
X134154225Y-65648599D01*
X134175551Y-65646145D01*
X134197015Y-65645794D01*
X134218411Y-65647548D01*
X134218411Y-65647548D01*
G37*
D11*
X134302402Y-66181995D03*
G04 #@! TD*
D10*
G04 #@! TO.C,REF\002A\002A*
G36*
X128952691Y-56026053D02*
X128973926Y-56029203D01*
X128994750Y-56034419D01*
X129014962Y-56041651D01*
X129034368Y-56050830D01*
X129052781Y-56061866D01*
X129070024Y-56074654D01*
X129085930Y-56089070D01*
X129100346Y-56104976D01*
X129113134Y-56122219D01*
X129124170Y-56140632D01*
X129133349Y-56160038D01*
X129140581Y-56180250D01*
X129145797Y-56201074D01*
X129148947Y-56222309D01*
X129150000Y-56243750D01*
X129150000Y-56756250D01*
X129148947Y-56777691D01*
X129145797Y-56798926D01*
X129140581Y-56819750D01*
X129133349Y-56839962D01*
X129124170Y-56859368D01*
X129113134Y-56877781D01*
X129100346Y-56895024D01*
X129085930Y-56910930D01*
X129070024Y-56925346D01*
X129052781Y-56938134D01*
X129034368Y-56949170D01*
X129014962Y-56958349D01*
X128994750Y-56965581D01*
X128973926Y-56970797D01*
X128952691Y-56973947D01*
X128931250Y-56975000D01*
X128493750Y-56975000D01*
X128472309Y-56973947D01*
X128451074Y-56970797D01*
X128430250Y-56965581D01*
X128410038Y-56958349D01*
X128390632Y-56949170D01*
X128372219Y-56938134D01*
X128354976Y-56925346D01*
X128339070Y-56910930D01*
X128324654Y-56895024D01*
X128311866Y-56877781D01*
X128300830Y-56859368D01*
X128291651Y-56839962D01*
X128284419Y-56819750D01*
X128279203Y-56798926D01*
X128276053Y-56777691D01*
X128275000Y-56756250D01*
X128275000Y-56243750D01*
X128276053Y-56222309D01*
X128279203Y-56201074D01*
X128284419Y-56180250D01*
X128291651Y-56160038D01*
X128300830Y-56140632D01*
X128311866Y-56122219D01*
X128324654Y-56104976D01*
X128339070Y-56089070D01*
X128354976Y-56074654D01*
X128372219Y-56061866D01*
X128390632Y-56050830D01*
X128410038Y-56041651D01*
X128430250Y-56034419D01*
X128451074Y-56029203D01*
X128472309Y-56026053D01*
X128493750Y-56025000D01*
X128931250Y-56025000D01*
X128952691Y-56026053D01*
X128952691Y-56026053D01*
G37*
D11*
X128712500Y-56500000D03*
D10*
G36*
X130527691Y-56026053D02*
X130548926Y-56029203D01*
X130569750Y-56034419D01*
X130589962Y-56041651D01*
X130609368Y-56050830D01*
X130627781Y-56061866D01*
X130645024Y-56074654D01*
X130660930Y-56089070D01*
X130675346Y-56104976D01*
X130688134Y-56122219D01*
X130699170Y-56140632D01*
X130708349Y-56160038D01*
X130715581Y-56180250D01*
X130720797Y-56201074D01*
X130723947Y-56222309D01*
X130725000Y-56243750D01*
X130725000Y-56756250D01*
X130723947Y-56777691D01*
X130720797Y-56798926D01*
X130715581Y-56819750D01*
X130708349Y-56839962D01*
X130699170Y-56859368D01*
X130688134Y-56877781D01*
X130675346Y-56895024D01*
X130660930Y-56910930D01*
X130645024Y-56925346D01*
X130627781Y-56938134D01*
X130609368Y-56949170D01*
X130589962Y-56958349D01*
X130569750Y-56965581D01*
X130548926Y-56970797D01*
X130527691Y-56973947D01*
X130506250Y-56975000D01*
X130068750Y-56975000D01*
X130047309Y-56973947D01*
X130026074Y-56970797D01*
X130005250Y-56965581D01*
X129985038Y-56958349D01*
X129965632Y-56949170D01*
X129947219Y-56938134D01*
X129929976Y-56925346D01*
X129914070Y-56910930D01*
X129899654Y-56895024D01*
X129886866Y-56877781D01*
X129875830Y-56859368D01*
X129866651Y-56839962D01*
X129859419Y-56819750D01*
X129854203Y-56798926D01*
X129851053Y-56777691D01*
X129850000Y-56756250D01*
X129850000Y-56243750D01*
X129851053Y-56222309D01*
X129854203Y-56201074D01*
X129859419Y-56180250D01*
X129866651Y-56160038D01*
X129875830Y-56140632D01*
X129886866Y-56122219D01*
X129899654Y-56104976D01*
X129914070Y-56089070D01*
X129929976Y-56074654D01*
X129947219Y-56061866D01*
X129965632Y-56050830D01*
X129985038Y-56041651D01*
X130005250Y-56034419D01*
X130026074Y-56029203D01*
X130047309Y-56026053D01*
X130068750Y-56025000D01*
X130506250Y-56025000D01*
X130527691Y-56026053D01*
X130527691Y-56026053D01*
G37*
D11*
X130287500Y-56500000D03*
G04 #@! TD*
D10*
G04 #@! TO.C,REF\002A\002A*
G36*
X124824449Y-65646145D02*
X124845775Y-65648599D01*
X124866759Y-65653131D01*
X124887197Y-65659698D01*
X124906893Y-65668236D01*
X124925657Y-65678664D01*
X124943309Y-65690881D01*
X124959678Y-65704769D01*
X124974607Y-65720195D01*
X124987952Y-65737010D01*
X124999585Y-65755052D01*
X125218335Y-66133938D01*
X125228143Y-66153033D01*
X125236033Y-66172998D01*
X125241928Y-66193640D01*
X125245771Y-66214760D01*
X125247525Y-66236156D01*
X125247174Y-66257620D01*
X125244720Y-66278946D01*
X125240188Y-66299930D01*
X125233621Y-66320368D01*
X125225083Y-66340064D01*
X125214655Y-66358828D01*
X125202438Y-66376480D01*
X125188550Y-66392849D01*
X125173124Y-66407778D01*
X125156309Y-66421123D01*
X125138267Y-66432756D01*
X124694429Y-66689006D01*
X124675334Y-66698814D01*
X124655369Y-66706704D01*
X124634727Y-66712599D01*
X124613607Y-66716442D01*
X124592211Y-66718196D01*
X124570747Y-66717845D01*
X124549421Y-66715391D01*
X124528437Y-66710859D01*
X124507999Y-66704292D01*
X124488303Y-66695754D01*
X124469539Y-66685326D01*
X124451887Y-66673109D01*
X124435518Y-66659221D01*
X124420589Y-66643795D01*
X124407244Y-66626980D01*
X124395611Y-66608938D01*
X124176861Y-66230052D01*
X124167053Y-66210957D01*
X124159163Y-66190992D01*
X124153268Y-66170350D01*
X124149425Y-66149230D01*
X124147671Y-66127834D01*
X124148022Y-66106370D01*
X124150476Y-66085044D01*
X124155008Y-66064060D01*
X124161575Y-66043622D01*
X124170113Y-66023926D01*
X124180541Y-66005162D01*
X124192758Y-65987510D01*
X124206646Y-65971141D01*
X124222072Y-65956212D01*
X124238887Y-65942867D01*
X124256929Y-65931234D01*
X124700767Y-65674984D01*
X124719862Y-65665176D01*
X124739827Y-65657286D01*
X124760469Y-65651391D01*
X124781589Y-65647548D01*
X124802985Y-65645794D01*
X124824449Y-65646145D01*
X124824449Y-65646145D01*
G37*
D11*
X124697598Y-66181995D03*
D10*
G36*
X124036949Y-64282155D02*
X124058275Y-64284609D01*
X124079259Y-64289141D01*
X124099697Y-64295708D01*
X124119393Y-64304246D01*
X124138157Y-64314674D01*
X124155809Y-64326891D01*
X124172178Y-64340779D01*
X124187107Y-64356205D01*
X124200452Y-64373020D01*
X124212085Y-64391062D01*
X124430835Y-64769948D01*
X124440643Y-64789043D01*
X124448533Y-64809008D01*
X124454428Y-64829650D01*
X124458271Y-64850770D01*
X124460025Y-64872166D01*
X124459674Y-64893630D01*
X124457220Y-64914956D01*
X124452688Y-64935940D01*
X124446121Y-64956378D01*
X124437583Y-64976074D01*
X124427155Y-64994838D01*
X124414938Y-65012490D01*
X124401050Y-65028859D01*
X124385624Y-65043788D01*
X124368809Y-65057133D01*
X124350767Y-65068766D01*
X123906929Y-65325016D01*
X123887834Y-65334824D01*
X123867869Y-65342714D01*
X123847227Y-65348609D01*
X123826107Y-65352452D01*
X123804711Y-65354206D01*
X123783247Y-65353855D01*
X123761921Y-65351401D01*
X123740937Y-65346869D01*
X123720499Y-65340302D01*
X123700803Y-65331764D01*
X123682039Y-65321336D01*
X123664387Y-65309119D01*
X123648018Y-65295231D01*
X123633089Y-65279805D01*
X123619744Y-65262990D01*
X123608111Y-65244948D01*
X123389361Y-64866062D01*
X123379553Y-64846967D01*
X123371663Y-64827002D01*
X123365768Y-64806360D01*
X123361925Y-64785240D01*
X123360171Y-64763844D01*
X123360522Y-64742380D01*
X123362976Y-64721054D01*
X123367508Y-64700070D01*
X123374075Y-64679632D01*
X123382613Y-64659936D01*
X123393041Y-64641172D01*
X123405258Y-64623520D01*
X123419146Y-64607151D01*
X123434572Y-64592222D01*
X123451387Y-64578877D01*
X123469429Y-64567244D01*
X123913267Y-64310994D01*
X123932362Y-64301186D01*
X123952327Y-64293296D01*
X123972969Y-64287401D01*
X123994089Y-64283558D01*
X124015485Y-64281804D01*
X124036949Y-64282155D01*
X124036949Y-64282155D01*
G37*
D11*
X123910098Y-64818005D03*
G04 #@! TD*
D12*
G04 #@! TO.C,REF\002A\002A*
X128747000Y-62390000D03*
X128747000Y-62170000D03*
X128747000Y-62830000D03*
X129830000Y-63253000D03*
X128950000Y-63253000D03*
X129390000Y-63253000D03*
X130253000Y-62390000D03*
X130253000Y-62830000D03*
X130253000Y-61950000D03*
X129390000Y-61747000D03*
X129830000Y-61747000D03*
X128950000Y-61747000D03*
G04 #@! TD*
D10*
G04 #@! TO.C,REF\002A\002A*
G36*
X104536949Y-81782155D02*
X104558275Y-81784609D01*
X104579259Y-81789141D01*
X104599697Y-81795708D01*
X104619393Y-81804246D01*
X104638157Y-81814674D01*
X104655809Y-81826891D01*
X104672178Y-81840779D01*
X104687107Y-81856205D01*
X104700452Y-81873020D01*
X104712085Y-81891062D01*
X104930835Y-82269948D01*
X104940643Y-82289043D01*
X104948533Y-82309008D01*
X104954428Y-82329650D01*
X104958271Y-82350770D01*
X104960025Y-82372166D01*
X104959674Y-82393630D01*
X104957220Y-82414956D01*
X104952688Y-82435940D01*
X104946121Y-82456378D01*
X104937583Y-82476074D01*
X104927155Y-82494838D01*
X104914938Y-82512490D01*
X104901050Y-82528859D01*
X104885624Y-82543788D01*
X104868809Y-82557133D01*
X104850767Y-82568766D01*
X104406929Y-82825016D01*
X104387834Y-82834824D01*
X104367869Y-82842714D01*
X104347227Y-82848609D01*
X104326107Y-82852452D01*
X104304711Y-82854206D01*
X104283247Y-82853855D01*
X104261921Y-82851401D01*
X104240937Y-82846869D01*
X104220499Y-82840302D01*
X104200803Y-82831764D01*
X104182039Y-82821336D01*
X104164387Y-82809119D01*
X104148018Y-82795231D01*
X104133089Y-82779805D01*
X104119744Y-82762990D01*
X104108111Y-82744948D01*
X103889361Y-82366062D01*
X103879553Y-82346967D01*
X103871663Y-82327002D01*
X103865768Y-82306360D01*
X103861925Y-82285240D01*
X103860171Y-82263844D01*
X103860522Y-82242380D01*
X103862976Y-82221054D01*
X103867508Y-82200070D01*
X103874075Y-82179632D01*
X103882613Y-82159936D01*
X103893041Y-82141172D01*
X103905258Y-82123520D01*
X103919146Y-82107151D01*
X103934572Y-82092222D01*
X103951387Y-82078877D01*
X103969429Y-82067244D01*
X104413267Y-81810994D01*
X104432362Y-81801186D01*
X104452327Y-81793296D01*
X104472969Y-81787401D01*
X104494089Y-81783558D01*
X104515485Y-81781804D01*
X104536949Y-81782155D01*
X104536949Y-81782155D01*
G37*
D11*
X104410098Y-82318005D03*
D10*
G36*
X105324449Y-83146145D02*
X105345775Y-83148599D01*
X105366759Y-83153131D01*
X105387197Y-83159698D01*
X105406893Y-83168236D01*
X105425657Y-83178664D01*
X105443309Y-83190881D01*
X105459678Y-83204769D01*
X105474607Y-83220195D01*
X105487952Y-83237010D01*
X105499585Y-83255052D01*
X105718335Y-83633938D01*
X105728143Y-83653033D01*
X105736033Y-83672998D01*
X105741928Y-83693640D01*
X105745771Y-83714760D01*
X105747525Y-83736156D01*
X105747174Y-83757620D01*
X105744720Y-83778946D01*
X105740188Y-83799930D01*
X105733621Y-83820368D01*
X105725083Y-83840064D01*
X105714655Y-83858828D01*
X105702438Y-83876480D01*
X105688550Y-83892849D01*
X105673124Y-83907778D01*
X105656309Y-83921123D01*
X105638267Y-83932756D01*
X105194429Y-84189006D01*
X105175334Y-84198814D01*
X105155369Y-84206704D01*
X105134727Y-84212599D01*
X105113607Y-84216442D01*
X105092211Y-84218196D01*
X105070747Y-84217845D01*
X105049421Y-84215391D01*
X105028437Y-84210859D01*
X105007999Y-84204292D01*
X104988303Y-84195754D01*
X104969539Y-84185326D01*
X104951887Y-84173109D01*
X104935518Y-84159221D01*
X104920589Y-84143795D01*
X104907244Y-84126980D01*
X104895611Y-84108938D01*
X104676861Y-83730052D01*
X104667053Y-83710957D01*
X104659163Y-83690992D01*
X104653268Y-83670350D01*
X104649425Y-83649230D01*
X104647671Y-83627834D01*
X104648022Y-83606370D01*
X104650476Y-83585044D01*
X104655008Y-83564060D01*
X104661575Y-83543622D01*
X104670113Y-83523926D01*
X104680541Y-83505162D01*
X104692758Y-83487510D01*
X104706646Y-83471141D01*
X104722072Y-83456212D01*
X104738887Y-83442867D01*
X104756929Y-83431234D01*
X105200767Y-83174984D01*
X105219862Y-83165176D01*
X105239827Y-83157286D01*
X105260469Y-83151391D01*
X105281589Y-83147548D01*
X105302985Y-83145794D01*
X105324449Y-83146145D01*
X105324449Y-83146145D01*
G37*
D11*
X105197598Y-83681995D03*
G04 #@! TD*
D10*
G04 #@! TO.C,REF\002A\002A*
G36*
X114718411Y-83147548D02*
X114739531Y-83151391D01*
X114760173Y-83157286D01*
X114780138Y-83165176D01*
X114799233Y-83174984D01*
X115243071Y-83431234D01*
X115261113Y-83442867D01*
X115277928Y-83456212D01*
X115293354Y-83471141D01*
X115307242Y-83487510D01*
X115319459Y-83505162D01*
X115329887Y-83523926D01*
X115338425Y-83543622D01*
X115344992Y-83564060D01*
X115349524Y-83585044D01*
X115351978Y-83606370D01*
X115352329Y-83627834D01*
X115350575Y-83649230D01*
X115346732Y-83670350D01*
X115340837Y-83690992D01*
X115332947Y-83710957D01*
X115323139Y-83730052D01*
X115104389Y-84108938D01*
X115092756Y-84126980D01*
X115079411Y-84143795D01*
X115064482Y-84159221D01*
X115048113Y-84173109D01*
X115030461Y-84185326D01*
X115011697Y-84195754D01*
X114992001Y-84204292D01*
X114971563Y-84210859D01*
X114950579Y-84215391D01*
X114929253Y-84217845D01*
X114907789Y-84218196D01*
X114886393Y-84216442D01*
X114865273Y-84212599D01*
X114844631Y-84206704D01*
X114824666Y-84198814D01*
X114805571Y-84189006D01*
X114361733Y-83932756D01*
X114343691Y-83921123D01*
X114326876Y-83907778D01*
X114311450Y-83892849D01*
X114297562Y-83876480D01*
X114285345Y-83858828D01*
X114274917Y-83840064D01*
X114266379Y-83820368D01*
X114259812Y-83799930D01*
X114255280Y-83778946D01*
X114252826Y-83757620D01*
X114252475Y-83736156D01*
X114254229Y-83714760D01*
X114258072Y-83693640D01*
X114263967Y-83672998D01*
X114271857Y-83653033D01*
X114281665Y-83633938D01*
X114500415Y-83255052D01*
X114512048Y-83237010D01*
X114525393Y-83220195D01*
X114540322Y-83204769D01*
X114556691Y-83190881D01*
X114574343Y-83178664D01*
X114593107Y-83168236D01*
X114612803Y-83159698D01*
X114633241Y-83153131D01*
X114654225Y-83148599D01*
X114675551Y-83146145D01*
X114697015Y-83145794D01*
X114718411Y-83147548D01*
X114718411Y-83147548D01*
G37*
D11*
X114802402Y-83681995D03*
D10*
G36*
X115505911Y-81783558D02*
X115527031Y-81787401D01*
X115547673Y-81793296D01*
X115567638Y-81801186D01*
X115586733Y-81810994D01*
X116030571Y-82067244D01*
X116048613Y-82078877D01*
X116065428Y-82092222D01*
X116080854Y-82107151D01*
X116094742Y-82123520D01*
X116106959Y-82141172D01*
X116117387Y-82159936D01*
X116125925Y-82179632D01*
X116132492Y-82200070D01*
X116137024Y-82221054D01*
X116139478Y-82242380D01*
X116139829Y-82263844D01*
X116138075Y-82285240D01*
X116134232Y-82306360D01*
X116128337Y-82327002D01*
X116120447Y-82346967D01*
X116110639Y-82366062D01*
X115891889Y-82744948D01*
X115880256Y-82762990D01*
X115866911Y-82779805D01*
X115851982Y-82795231D01*
X115835613Y-82809119D01*
X115817961Y-82821336D01*
X115799197Y-82831764D01*
X115779501Y-82840302D01*
X115759063Y-82846869D01*
X115738079Y-82851401D01*
X115716753Y-82853855D01*
X115695289Y-82854206D01*
X115673893Y-82852452D01*
X115652773Y-82848609D01*
X115632131Y-82842714D01*
X115612166Y-82834824D01*
X115593071Y-82825016D01*
X115149233Y-82568766D01*
X115131191Y-82557133D01*
X115114376Y-82543788D01*
X115098950Y-82528859D01*
X115085062Y-82512490D01*
X115072845Y-82494838D01*
X115062417Y-82476074D01*
X115053879Y-82456378D01*
X115047312Y-82435940D01*
X115042780Y-82414956D01*
X115040326Y-82393630D01*
X115039975Y-82372166D01*
X115041729Y-82350770D01*
X115045572Y-82329650D01*
X115051467Y-82309008D01*
X115059357Y-82289043D01*
X115069165Y-82269948D01*
X115287915Y-81891062D01*
X115299548Y-81873020D01*
X115312893Y-81856205D01*
X115327822Y-81840779D01*
X115344191Y-81826891D01*
X115361843Y-81814674D01*
X115380607Y-81804246D01*
X115400303Y-81795708D01*
X115420741Y-81789141D01*
X115441725Y-81784609D01*
X115463051Y-81782155D01*
X115484515Y-81781804D01*
X115505911Y-81783558D01*
X115505911Y-81783558D01*
G37*
D11*
X115589902Y-82318005D03*
G04 #@! TD*
D10*
G04 #@! TO.C,REF\002A\002A*
G36*
X111027691Y-73526053D02*
X111048926Y-73529203D01*
X111069750Y-73534419D01*
X111089962Y-73541651D01*
X111109368Y-73550830D01*
X111127781Y-73561866D01*
X111145024Y-73574654D01*
X111160930Y-73589070D01*
X111175346Y-73604976D01*
X111188134Y-73622219D01*
X111199170Y-73640632D01*
X111208349Y-73660038D01*
X111215581Y-73680250D01*
X111220797Y-73701074D01*
X111223947Y-73722309D01*
X111225000Y-73743750D01*
X111225000Y-74256250D01*
X111223947Y-74277691D01*
X111220797Y-74298926D01*
X111215581Y-74319750D01*
X111208349Y-74339962D01*
X111199170Y-74359368D01*
X111188134Y-74377781D01*
X111175346Y-74395024D01*
X111160930Y-74410930D01*
X111145024Y-74425346D01*
X111127781Y-74438134D01*
X111109368Y-74449170D01*
X111089962Y-74458349D01*
X111069750Y-74465581D01*
X111048926Y-74470797D01*
X111027691Y-74473947D01*
X111006250Y-74475000D01*
X110568750Y-74475000D01*
X110547309Y-74473947D01*
X110526074Y-74470797D01*
X110505250Y-74465581D01*
X110485038Y-74458349D01*
X110465632Y-74449170D01*
X110447219Y-74438134D01*
X110429976Y-74425346D01*
X110414070Y-74410930D01*
X110399654Y-74395024D01*
X110386866Y-74377781D01*
X110375830Y-74359368D01*
X110366651Y-74339962D01*
X110359419Y-74319750D01*
X110354203Y-74298926D01*
X110351053Y-74277691D01*
X110350000Y-74256250D01*
X110350000Y-73743750D01*
X110351053Y-73722309D01*
X110354203Y-73701074D01*
X110359419Y-73680250D01*
X110366651Y-73660038D01*
X110375830Y-73640632D01*
X110386866Y-73622219D01*
X110399654Y-73604976D01*
X110414070Y-73589070D01*
X110429976Y-73574654D01*
X110447219Y-73561866D01*
X110465632Y-73550830D01*
X110485038Y-73541651D01*
X110505250Y-73534419D01*
X110526074Y-73529203D01*
X110547309Y-73526053D01*
X110568750Y-73525000D01*
X111006250Y-73525000D01*
X111027691Y-73526053D01*
X111027691Y-73526053D01*
G37*
D11*
X110787500Y-74000000D03*
D10*
G36*
X109452691Y-73526053D02*
X109473926Y-73529203D01*
X109494750Y-73534419D01*
X109514962Y-73541651D01*
X109534368Y-73550830D01*
X109552781Y-73561866D01*
X109570024Y-73574654D01*
X109585930Y-73589070D01*
X109600346Y-73604976D01*
X109613134Y-73622219D01*
X109624170Y-73640632D01*
X109633349Y-73660038D01*
X109640581Y-73680250D01*
X109645797Y-73701074D01*
X109648947Y-73722309D01*
X109650000Y-73743750D01*
X109650000Y-74256250D01*
X109648947Y-74277691D01*
X109645797Y-74298926D01*
X109640581Y-74319750D01*
X109633349Y-74339962D01*
X109624170Y-74359368D01*
X109613134Y-74377781D01*
X109600346Y-74395024D01*
X109585930Y-74410930D01*
X109570024Y-74425346D01*
X109552781Y-74438134D01*
X109534368Y-74449170D01*
X109514962Y-74458349D01*
X109494750Y-74465581D01*
X109473926Y-74470797D01*
X109452691Y-74473947D01*
X109431250Y-74475000D01*
X108993750Y-74475000D01*
X108972309Y-74473947D01*
X108951074Y-74470797D01*
X108930250Y-74465581D01*
X108910038Y-74458349D01*
X108890632Y-74449170D01*
X108872219Y-74438134D01*
X108854976Y-74425346D01*
X108839070Y-74410930D01*
X108824654Y-74395024D01*
X108811866Y-74377781D01*
X108800830Y-74359368D01*
X108791651Y-74339962D01*
X108784419Y-74319750D01*
X108779203Y-74298926D01*
X108776053Y-74277691D01*
X108775000Y-74256250D01*
X108775000Y-73743750D01*
X108776053Y-73722309D01*
X108779203Y-73701074D01*
X108784419Y-73680250D01*
X108791651Y-73660038D01*
X108800830Y-73640632D01*
X108811866Y-73622219D01*
X108824654Y-73604976D01*
X108839070Y-73589070D01*
X108854976Y-73574654D01*
X108872219Y-73561866D01*
X108890632Y-73550830D01*
X108910038Y-73541651D01*
X108930250Y-73534419D01*
X108951074Y-73529203D01*
X108972309Y-73526053D01*
X108993750Y-73525000D01*
X109431250Y-73525000D01*
X109452691Y-73526053D01*
X109452691Y-73526053D01*
G37*
D11*
X109212500Y-74000000D03*
G04 #@! TD*
D12*
G04 #@! TO.C,REF\002A\002A*
X109450000Y-79247000D03*
X110330000Y-79247000D03*
X109890000Y-79247000D03*
X110753000Y-79450000D03*
X110753000Y-80330000D03*
X110753000Y-79890000D03*
X109890000Y-80753000D03*
X109450000Y-80753000D03*
X110330000Y-80753000D03*
X109247000Y-80330000D03*
X109247000Y-79670000D03*
X109247000Y-79890000D03*
G04 #@! TD*
M02*
