G04 #@! TF.GenerationSoftware,KiCad,Pcbnew,5.0.2-bee76a0~70~ubuntu18.04.1*
G04 #@! TF.CreationDate,2019-06-04T20:48:53+02:00*
G04 #@! TF.ProjectId,lower_Sensor,6c6f7765-725f-4536-956e-736f722e6b69,rev?*
G04 #@! TF.SameCoordinates,Original*
G04 #@! TF.FileFunction,Legend,Bot*
G04 #@! TF.FilePolarity,Positive*
%FSLAX46Y46*%
G04 Gerber Fmt 4.6, Leading zero omitted, Abs format (unit mm)*
G04 Created by KiCad (PCBNEW 5.0.2-bee76a0~70~ubuntu18.04.1) date Di 04 Jun 2019 20:48:53 CEST*
%MOMM*%
%LPD*%
G01*
G04 APERTURE LIST*
%ADD10C,0.120000*%
%ADD11C,0.100000*%
%ADD12C,0.150000*%
G04 APERTURE END LIST*
D10*
G04 #@! TO.C,J3*
X140362320Y-57437620D02*
G75*
G03X140362320Y-57437620I-700000J0D01*
G01*
G04 #@! TO.C,J10*
X135035940Y-52225540D02*
G75*
G03X135035940Y-52225540I-700000J0D01*
G01*
G04 #@! TO.C,J14*
X119811180Y-57930380D02*
G75*
G03X119811180Y-57930380I-700000J0D01*
G01*
G04 #@! TO.C,J7*
X137578480Y-53868920D02*
G75*
G03X137578480Y-53868920I-700000J0D01*
G01*
G04 #@! TO.C,J16*
X137827400Y-70919940D02*
G75*
G03X137827400Y-70919940I-700000J0D01*
G01*
G04 #@! TO.C,J9*
X136371980Y-52979920D02*
G75*
G03X136371980Y-52979920I-700000J0D01*
G01*
G04 #@! TO.C,J13*
X119127920Y-60005560D02*
G75*
G03X119127920Y-60005560I-700000J0D01*
G01*
G04 #@! TO.C,J2*
X140931280Y-58814300D02*
G75*
G03X140931280Y-58814300I-700000J0D01*
G01*
G04 #@! TO.C,J15*
X125063900Y-72659840D02*
G75*
G03X125063900Y-72659840I-700000J0D01*
G01*
G04 #@! TO.C,J8*
X140278500Y-67803360D02*
G75*
G03X140278500Y-67803360I-700000J0D01*
G01*
G04 #@! TO.C,J5*
X138660520Y-54920480D02*
G75*
G03X138660520Y-54920480I-700000J0D01*
G01*
G04 #@! TO.C,J4*
X139600320Y-56106660D02*
G75*
G03X139600320Y-56106660I-700000J0D01*
G01*
G04 #@! TO.C,J6*
X139188840Y-69484840D02*
G75*
G03X139188840Y-69484840I-700000J0D01*
G01*
G04 #@! TO.C,J1*
X141335140Y-60269720D02*
G75*
G03X141335140Y-60269720I-700000J0D01*
G01*
G04 #@! TO.C,J14*
X100311180Y-75430380D02*
G75*
G03X100311180Y-75430380I-700000J0D01*
G01*
G04 #@! TO.C,J16*
X118327400Y-88419940D02*
G75*
G03X118327400Y-88419940I-700000J0D01*
G01*
G04 #@! TO.C,J15*
X105563900Y-90159840D02*
G75*
G03X105563900Y-90159840I-700000J0D01*
G01*
G04 #@! TO.C,J13*
X99627920Y-77505560D02*
G75*
G03X99627920Y-77505560I-700000J0D01*
G01*
G04 #@! TO.C,J2*
X121431280Y-76314300D02*
G75*
G03X121431280Y-76314300I-700000J0D01*
G01*
G04 #@! TO.C,J1*
X121835140Y-77769720D02*
G75*
G03X121835140Y-77769720I-700000J0D01*
G01*
G04 #@! TO.C,J10*
X115535940Y-69725540D02*
G75*
G03X115535940Y-69725540I-700000J0D01*
G01*
G04 #@! TO.C,J9*
X116871980Y-70479920D02*
G75*
G03X116871980Y-70479920I-700000J0D01*
G01*
G04 #@! TO.C,J8*
X120778500Y-85303360D02*
G75*
G03X120778500Y-85303360I-700000J0D01*
G01*
G04 #@! TO.C,J7*
X118078480Y-71368920D02*
G75*
G03X118078480Y-71368920I-700000J0D01*
G01*
G04 #@! TO.C,J5*
X119160520Y-72420480D02*
G75*
G03X119160520Y-72420480I-700000J0D01*
G01*
G04 #@! TO.C,J4*
X120100320Y-73606660D02*
G75*
G03X120100320Y-73606660I-700000J0D01*
G01*
G04 #@! TO.C,J3*
X120862320Y-74937620D02*
G75*
G03X120862320Y-74937620I-700000J0D01*
G01*
G04 #@! TO.C,J6*
X119688840Y-86984840D02*
G75*
G03X119688840Y-86984840I-700000J0D01*
G01*
G04 #@! TO.C,J3*
D11*
X140686211Y-58461511D02*
X140686211Y-58461511D01*
X140686211Y-58461511D01*
X140686211Y-58461511D01*
X140686211Y-58461511D01*
X140686211Y-58461511D01*
X140686211Y-58461511D02*
X140686211Y-58461511D01*
X140686211Y-58461511D01*
X140686211Y-58461511D01*
X140686211Y-58461511D01*
X140686211Y-58461511D01*
X140686211Y-58461511D01*
X140686211Y-58461511D01*
X140686211Y-58461511D01*
X140686211Y-58461511D01*
X140686211Y-58461511D01*
X140686211Y-58461511D01*
X140686211Y-58461511D01*
X140686211Y-58461511D01*
D12*
G04 #@! TO.C,J10*
D11*
X135359831Y-53249431D02*
X135359831Y-53249431D01*
X135359831Y-53249431D01*
X135359831Y-53249431D01*
X135359831Y-53249431D01*
X135359831Y-53249431D01*
X135359831Y-53249431D02*
X135359831Y-53249431D01*
X135359831Y-53249431D02*
X135359831Y-53249431D01*
X135359831Y-53249431D01*
X135359831Y-53249431D01*
X135359831Y-53249431D01*
X135359831Y-53249431D02*
X135359831Y-53249431D01*
X135359831Y-53249431D01*
X135359831Y-53249431D01*
X135359831Y-53249431D01*
X135359831Y-53249431D01*
X135359831Y-53249431D01*
X135359831Y-53249431D01*
X135359831Y-53249431D01*
X135359831Y-53249431D01*
X135359831Y-53249431D01*
X135359831Y-53249431D01*
X135359831Y-53249431D01*
X135359831Y-53249431D01*
X135359831Y-53249431D01*
X135359831Y-53249431D01*
X135359831Y-53249431D01*
X135359831Y-53249431D01*
X135359831Y-53249431D01*
X135359831Y-53249431D01*
X135359831Y-53249431D01*
D12*
G04 #@! TO.C,J14*
D11*
X119111180Y-59378380D02*
X119111180Y-59378380D01*
X119111180Y-59378380D01*
X119111180Y-59378380D01*
X119111180Y-59378380D01*
X119111180Y-59378380D01*
X119111180Y-59378380D02*
X119111180Y-59378380D01*
X119111180Y-59378380D02*
X119111180Y-59378380D01*
X119111180Y-59378380D01*
X119111180Y-59378380D01*
X119111180Y-59378380D01*
X119111180Y-59378380D02*
X119111180Y-59378380D01*
X119111180Y-59378380D02*
X119111180Y-59378380D01*
X119111180Y-59378380D01*
D12*
G04 #@! TO.C,J7*
D11*
X137902371Y-54892811D02*
X137902371Y-54892811D01*
X137902371Y-54892811D01*
X137902371Y-54892811D01*
X137902371Y-54892811D01*
X137902371Y-54892811D01*
X137902371Y-54892811D02*
X137902371Y-54892811D01*
X137902371Y-54892811D01*
D12*
G04 #@! TO.C,J16*
D11*
X137127400Y-72367940D02*
X137127400Y-72367940D01*
X137127400Y-72367940D01*
X137127400Y-72367940D01*
X137127400Y-72367940D01*
X137127400Y-72367940D01*
X137127400Y-72367940D02*
X137127400Y-72367940D01*
X137127400Y-72367940D02*
X137127400Y-72367940D01*
X137127400Y-72367940D01*
X137127400Y-72367940D01*
X137127400Y-72367940D01*
X137127400Y-72367940D02*
X137127400Y-72367940D01*
X137127400Y-72367940D01*
X137127400Y-72367940D01*
X137127400Y-72367940D01*
X137127400Y-72367940D01*
X137127400Y-72367940D01*
X137127400Y-72367940D01*
X137127400Y-72367940D01*
X137127400Y-72367940D01*
X137127400Y-72367940D01*
X137127400Y-72367940D01*
X137127400Y-72367940D01*
X137127400Y-72367940D01*
X137127400Y-72367940D01*
X137127400Y-72367940D01*
X137127400Y-72367940D01*
X137127400Y-72367940D01*
X137127400Y-72367940D01*
X137127400Y-72367940D01*
X137127400Y-72367940D01*
X137127400Y-72367940D01*
D12*
G04 #@! TO.C,J9*
D11*
X136695871Y-54003811D02*
X136695871Y-54003811D01*
X136695871Y-54003811D01*
X136695871Y-54003811D01*
X136695871Y-54003811D01*
X136695871Y-54003811D01*
X136695871Y-54003811D02*
X136695871Y-54003811D01*
X136695871Y-54003811D01*
X136695871Y-54003811D01*
X136695871Y-54003811D01*
X136695871Y-54003811D01*
X136695871Y-54003811D01*
X136695871Y-54003811D01*
X136695871Y-54003811D01*
X136695871Y-54003811D01*
X136695871Y-54003811D01*
X136695871Y-54003811D01*
X136695871Y-54003811D01*
X136695871Y-54003811D01*
X136695871Y-54003811D01*
X136695871Y-54003811D01*
X136695871Y-54003811D01*
X136695871Y-54003811D01*
X136695871Y-54003811D01*
X136695871Y-54003811D01*
X136695871Y-54003811D01*
X136695871Y-54003811D01*
D12*
G04 #@! TO.C,J13*
D11*
X118427920Y-61453560D02*
X118427920Y-61453560D01*
X118427920Y-61453560D01*
X118427920Y-61453560D01*
X118427920Y-61453560D01*
X118427920Y-61453560D01*
X118427920Y-61453560D02*
X118427920Y-61453560D01*
X118427920Y-61453560D02*
X118427920Y-61453560D01*
X118427920Y-61453560D01*
X118427920Y-61453560D01*
X118427920Y-61453560D01*
X118427920Y-61453560D02*
X118427920Y-61453560D01*
X118427920Y-61453560D01*
X118427920Y-61453560D01*
X118427920Y-61453560D01*
X118427920Y-61453560D01*
X118427920Y-61453560D01*
X118427920Y-61453560D01*
X118427920Y-61453560D01*
X118427920Y-61453560D01*
X118427920Y-61453560D01*
X118427920Y-61453560D01*
X118427920Y-61453560D01*
X118427920Y-61453560D01*
D12*
G04 #@! TO.C,J2*
D11*
X141255171Y-59838191D02*
X141255171Y-59838191D01*
X141255171Y-59838191D01*
X141255171Y-59838191D01*
X141255171Y-59838191D01*
X141255171Y-59838191D01*
X141255171Y-59838191D02*
X141255171Y-59838191D01*
X141255171Y-59838191D01*
X141255171Y-59838191D01*
X141255171Y-59838191D01*
X141255171Y-59838191D01*
X141255171Y-59838191D01*
X141255171Y-59838191D01*
X141255171Y-59838191D01*
X141255171Y-59838191D01*
X141255171Y-59838191D01*
D12*
G04 #@! TO.C,J15*
D11*
X124363900Y-74107840D02*
X124363900Y-74107840D01*
X124363900Y-74107840D01*
X124363900Y-74107840D01*
X124363900Y-74107840D01*
X124363900Y-74107840D01*
X124363900Y-74107840D02*
X124363900Y-74107840D01*
X124363900Y-74107840D02*
X124363900Y-74107840D01*
X124363900Y-74107840D01*
X124363900Y-74107840D01*
X124363900Y-74107840D01*
X124363900Y-74107840D02*
X124363900Y-74107840D01*
X124363900Y-74107840D01*
X124363900Y-74107840D01*
X124363900Y-74107840D01*
X124363900Y-74107840D01*
X124363900Y-74107840D01*
X124363900Y-74107840D01*
X124363900Y-74107840D01*
X124363900Y-74107840D01*
X124363900Y-74107840D01*
X124363900Y-74107840D01*
X124363900Y-74107840D01*
X124363900Y-74107840D01*
X124363900Y-74107840D01*
X124363900Y-74107840D01*
D12*
G04 #@! TO.C,J8*
D11*
X139578500Y-69251360D02*
X139578500Y-69251360D01*
X139578500Y-69251360D01*
X139578500Y-69251360D01*
X139578500Y-69251360D01*
X139578500Y-69251360D01*
X139578500Y-69251360D02*
X139578500Y-69251360D01*
X139578500Y-69251360D01*
X139578500Y-69251360D01*
X139578500Y-69251360D01*
X139578500Y-69251360D01*
X139578500Y-69251360D01*
X139578500Y-69251360D01*
X139578500Y-69251360D01*
X139578500Y-69251360D01*
X139578500Y-69251360D01*
X139578500Y-69251360D01*
X139578500Y-69251360D01*
X139578500Y-69251360D01*
X139578500Y-69251360D01*
X139578500Y-69251360D01*
X139578500Y-69251360D01*
X139578500Y-69251360D01*
X139578500Y-69251360D01*
X139578500Y-69251360D01*
X139578500Y-69251360D01*
X139578500Y-69251360D01*
X139578500Y-69251360D01*
X139578500Y-69251360D01*
X139578500Y-69251360D01*
X139578500Y-69251360D01*
X139578500Y-69251360D01*
X139578500Y-69251360D01*
X139578500Y-69251360D01*
X139578500Y-69251360D01*
X139578500Y-69251360D01*
X139578500Y-69251360D01*
D12*
G04 #@! TO.C,J5*
D11*
X138984411Y-55944371D02*
X138984411Y-55944371D01*
X138984411Y-55944371D01*
X138984411Y-55944371D01*
X138984411Y-55944371D01*
X138984411Y-55944371D01*
X138984411Y-55944371D02*
X138984411Y-55944371D01*
X138984411Y-55944371D01*
X138984411Y-55944371D01*
X138984411Y-55944371D01*
X138984411Y-55944371D01*
X138984411Y-55944371D01*
X138984411Y-55944371D01*
X138984411Y-55944371D01*
X138984411Y-55944371D01*
X138984411Y-55944371D01*
X138984411Y-55944371D01*
X138984411Y-55944371D01*
X138984411Y-55944371D01*
X138984411Y-55944371D01*
X138984411Y-55944371D01*
D12*
G04 #@! TO.C,J4*
D11*
X139924211Y-57130551D02*
X139924211Y-57130551D01*
X139924211Y-57130551D01*
X139924211Y-57130551D01*
X139924211Y-57130551D01*
X139924211Y-57130551D01*
X139924211Y-57130551D02*
X139924211Y-57130551D01*
X139924211Y-57130551D02*
X139924211Y-57130551D01*
X139924211Y-57130551D01*
D12*
G04 #@! TO.C,J6*
D11*
X138488840Y-70932840D02*
X138488840Y-70932840D01*
X138488840Y-70932840D01*
X138488840Y-70932840D01*
X138488840Y-70932840D01*
X138488840Y-70932840D01*
X138488840Y-70932840D02*
X138488840Y-70932840D01*
X138488840Y-70932840D01*
X138488840Y-70932840D01*
X138488840Y-70932840D01*
X138488840Y-70932840D01*
X138488840Y-70932840D01*
X138488840Y-70932840D01*
X138488840Y-70932840D01*
X138488840Y-70932840D01*
X138488840Y-70932840D01*
X138488840Y-70932840D01*
X138488840Y-70932840D01*
X138488840Y-70932840D01*
X138488840Y-70932840D01*
X138488840Y-70932840D01*
X138488840Y-70932840D01*
X138488840Y-70932840D01*
X138488840Y-70932840D01*
X138488840Y-70932840D01*
X138488840Y-70932840D01*
X138488840Y-70932840D01*
D12*
G04 #@! TO.C,J1*
D11*
X141659031Y-61293611D02*
X141659031Y-61293611D01*
X141659031Y-61293611D01*
X141659031Y-61293611D01*
X141659031Y-61293611D01*
X141659031Y-61293611D01*
X141659031Y-61293611D02*
X141659031Y-61293611D01*
X141659031Y-61293611D02*
X141659031Y-61293611D01*
X141659031Y-61293611D01*
X141659031Y-61293611D01*
X141659031Y-61293611D01*
D12*
G04 #@! TO.C,J14*
D11*
X99611180Y-76878380D02*
X99611180Y-76878380D01*
X99611180Y-76878380D01*
X99611180Y-76878380D01*
X99611180Y-76878380D01*
X99611180Y-76878380D01*
X99611180Y-76878380D02*
X99611180Y-76878380D01*
X99611180Y-76878380D02*
X99611180Y-76878380D01*
X99611180Y-76878380D01*
X99611180Y-76878380D01*
X99611180Y-76878380D01*
X99611180Y-76878380D02*
X99611180Y-76878380D01*
X99611180Y-76878380D02*
X99611180Y-76878380D01*
X99611180Y-76878380D01*
D12*
G04 #@! TO.C,J16*
D11*
X117627400Y-89867940D02*
X117627400Y-89867940D01*
X117627400Y-89867940D01*
X117627400Y-89867940D01*
X117627400Y-89867940D01*
X117627400Y-89867940D01*
X117627400Y-89867940D02*
X117627400Y-89867940D01*
X117627400Y-89867940D02*
X117627400Y-89867940D01*
X117627400Y-89867940D01*
X117627400Y-89867940D01*
X117627400Y-89867940D01*
X117627400Y-89867940D02*
X117627400Y-89867940D01*
X117627400Y-89867940D01*
X117627400Y-89867940D01*
X117627400Y-89867940D01*
X117627400Y-89867940D01*
X117627400Y-89867940D01*
X117627400Y-89867940D01*
X117627400Y-89867940D01*
X117627400Y-89867940D01*
X117627400Y-89867940D01*
X117627400Y-89867940D01*
X117627400Y-89867940D01*
X117627400Y-89867940D01*
X117627400Y-89867940D01*
X117627400Y-89867940D01*
X117627400Y-89867940D01*
X117627400Y-89867940D01*
X117627400Y-89867940D01*
X117627400Y-89867940D01*
X117627400Y-89867940D01*
X117627400Y-89867940D01*
D12*
G04 #@! TO.C,J15*
D11*
X104863900Y-91607840D02*
X104863900Y-91607840D01*
X104863900Y-91607840D01*
X104863900Y-91607840D01*
X104863900Y-91607840D01*
X104863900Y-91607840D01*
X104863900Y-91607840D02*
X104863900Y-91607840D01*
X104863900Y-91607840D02*
X104863900Y-91607840D01*
X104863900Y-91607840D01*
X104863900Y-91607840D01*
X104863900Y-91607840D01*
X104863900Y-91607840D02*
X104863900Y-91607840D01*
X104863900Y-91607840D01*
X104863900Y-91607840D01*
X104863900Y-91607840D01*
X104863900Y-91607840D01*
X104863900Y-91607840D01*
X104863900Y-91607840D01*
X104863900Y-91607840D01*
X104863900Y-91607840D01*
X104863900Y-91607840D01*
X104863900Y-91607840D01*
X104863900Y-91607840D01*
X104863900Y-91607840D01*
X104863900Y-91607840D01*
X104863900Y-91607840D01*
D12*
G04 #@! TO.C,J13*
D11*
X98927920Y-78953560D02*
X98927920Y-78953560D01*
X98927920Y-78953560D01*
X98927920Y-78953560D01*
X98927920Y-78953560D01*
X98927920Y-78953560D01*
X98927920Y-78953560D02*
X98927920Y-78953560D01*
X98927920Y-78953560D02*
X98927920Y-78953560D01*
X98927920Y-78953560D01*
X98927920Y-78953560D01*
X98927920Y-78953560D01*
X98927920Y-78953560D02*
X98927920Y-78953560D01*
X98927920Y-78953560D01*
X98927920Y-78953560D01*
X98927920Y-78953560D01*
X98927920Y-78953560D01*
X98927920Y-78953560D01*
X98927920Y-78953560D01*
X98927920Y-78953560D01*
X98927920Y-78953560D01*
X98927920Y-78953560D01*
X98927920Y-78953560D01*
X98927920Y-78953560D01*
X98927920Y-78953560D01*
D12*
G04 #@! TO.C,J2*
D11*
X121755171Y-77338191D02*
X121755171Y-77338191D01*
X121755171Y-77338191D01*
X121755171Y-77338191D01*
X121755171Y-77338191D01*
X121755171Y-77338191D01*
X121755171Y-77338191D02*
X121755171Y-77338191D01*
X121755171Y-77338191D01*
X121755171Y-77338191D01*
X121755171Y-77338191D01*
X121755171Y-77338191D01*
X121755171Y-77338191D01*
X121755171Y-77338191D01*
X121755171Y-77338191D01*
X121755171Y-77338191D01*
X121755171Y-77338191D01*
D12*
G04 #@! TO.C,J1*
D11*
X122159031Y-78793611D02*
X122159031Y-78793611D01*
X122159031Y-78793611D01*
X122159031Y-78793611D01*
X122159031Y-78793611D01*
X122159031Y-78793611D01*
X122159031Y-78793611D02*
X122159031Y-78793611D01*
X122159031Y-78793611D02*
X122159031Y-78793611D01*
X122159031Y-78793611D01*
X122159031Y-78793611D01*
X122159031Y-78793611D01*
D12*
G04 #@! TO.C,J10*
D11*
X115859831Y-70749431D02*
X115859831Y-70749431D01*
X115859831Y-70749431D01*
X115859831Y-70749431D01*
X115859831Y-70749431D01*
X115859831Y-70749431D01*
X115859831Y-70749431D02*
X115859831Y-70749431D01*
X115859831Y-70749431D02*
X115859831Y-70749431D01*
X115859831Y-70749431D01*
X115859831Y-70749431D01*
X115859831Y-70749431D01*
X115859831Y-70749431D02*
X115859831Y-70749431D01*
X115859831Y-70749431D01*
X115859831Y-70749431D01*
X115859831Y-70749431D01*
X115859831Y-70749431D01*
X115859831Y-70749431D01*
X115859831Y-70749431D01*
X115859831Y-70749431D01*
X115859831Y-70749431D01*
X115859831Y-70749431D01*
X115859831Y-70749431D01*
X115859831Y-70749431D01*
X115859831Y-70749431D01*
X115859831Y-70749431D01*
X115859831Y-70749431D01*
X115859831Y-70749431D01*
X115859831Y-70749431D01*
X115859831Y-70749431D01*
X115859831Y-70749431D01*
X115859831Y-70749431D01*
D12*
G04 #@! TO.C,J9*
D11*
X117195871Y-71503811D02*
X117195871Y-71503811D01*
X117195871Y-71503811D01*
X117195871Y-71503811D01*
X117195871Y-71503811D01*
X117195871Y-71503811D01*
X117195871Y-71503811D02*
X117195871Y-71503811D01*
X117195871Y-71503811D01*
X117195871Y-71503811D01*
X117195871Y-71503811D01*
X117195871Y-71503811D01*
X117195871Y-71503811D01*
X117195871Y-71503811D01*
X117195871Y-71503811D01*
X117195871Y-71503811D01*
X117195871Y-71503811D01*
X117195871Y-71503811D01*
X117195871Y-71503811D01*
X117195871Y-71503811D01*
X117195871Y-71503811D01*
X117195871Y-71503811D01*
X117195871Y-71503811D01*
X117195871Y-71503811D01*
X117195871Y-71503811D01*
X117195871Y-71503811D01*
X117195871Y-71503811D01*
X117195871Y-71503811D01*
D12*
G04 #@! TO.C,J8*
D11*
X120078500Y-86751360D02*
X120078500Y-86751360D01*
X120078500Y-86751360D01*
X120078500Y-86751360D01*
X120078500Y-86751360D01*
X120078500Y-86751360D01*
X120078500Y-86751360D02*
X120078500Y-86751360D01*
X120078500Y-86751360D01*
X120078500Y-86751360D01*
X120078500Y-86751360D01*
X120078500Y-86751360D01*
X120078500Y-86751360D01*
X120078500Y-86751360D01*
X120078500Y-86751360D01*
X120078500Y-86751360D01*
X120078500Y-86751360D01*
X120078500Y-86751360D01*
X120078500Y-86751360D01*
X120078500Y-86751360D01*
X120078500Y-86751360D01*
X120078500Y-86751360D01*
X120078500Y-86751360D01*
X120078500Y-86751360D01*
X120078500Y-86751360D01*
X120078500Y-86751360D01*
X120078500Y-86751360D01*
X120078500Y-86751360D01*
X120078500Y-86751360D01*
X120078500Y-86751360D01*
X120078500Y-86751360D01*
X120078500Y-86751360D01*
X120078500Y-86751360D01*
X120078500Y-86751360D01*
X120078500Y-86751360D01*
X120078500Y-86751360D01*
X120078500Y-86751360D01*
X120078500Y-86751360D01*
D12*
G04 #@! TO.C,J7*
D11*
X118402371Y-72392811D02*
X118402371Y-72392811D01*
X118402371Y-72392811D01*
X118402371Y-72392811D01*
X118402371Y-72392811D01*
X118402371Y-72392811D01*
X118402371Y-72392811D02*
X118402371Y-72392811D01*
X118402371Y-72392811D01*
D12*
G04 #@! TO.C,J5*
D11*
X119484411Y-73444371D02*
X119484411Y-73444371D01*
X119484411Y-73444371D01*
X119484411Y-73444371D01*
X119484411Y-73444371D01*
X119484411Y-73444371D01*
X119484411Y-73444371D02*
X119484411Y-73444371D01*
X119484411Y-73444371D01*
X119484411Y-73444371D01*
X119484411Y-73444371D01*
X119484411Y-73444371D01*
X119484411Y-73444371D01*
X119484411Y-73444371D01*
X119484411Y-73444371D01*
X119484411Y-73444371D01*
X119484411Y-73444371D01*
X119484411Y-73444371D01*
X119484411Y-73444371D01*
X119484411Y-73444371D01*
X119484411Y-73444371D01*
X119484411Y-73444371D01*
D12*
G04 #@! TO.C,J4*
D11*
X120424211Y-74630551D02*
X120424211Y-74630551D01*
X120424211Y-74630551D01*
X120424211Y-74630551D01*
X120424211Y-74630551D01*
X120424211Y-74630551D01*
X120424211Y-74630551D02*
X120424211Y-74630551D01*
X120424211Y-74630551D02*
X120424211Y-74630551D01*
X120424211Y-74630551D01*
D12*
G04 #@! TO.C,J3*
D11*
X121186211Y-75961511D02*
X121186211Y-75961511D01*
X121186211Y-75961511D01*
X121186211Y-75961511D01*
X121186211Y-75961511D01*
X121186211Y-75961511D01*
X121186211Y-75961511D02*
X121186211Y-75961511D01*
X121186211Y-75961511D01*
X121186211Y-75961511D01*
X121186211Y-75961511D01*
X121186211Y-75961511D01*
X121186211Y-75961511D01*
X121186211Y-75961511D01*
X121186211Y-75961511D01*
X121186211Y-75961511D01*
X121186211Y-75961511D01*
X121186211Y-75961511D01*
X121186211Y-75961511D01*
X121186211Y-75961511D01*
D12*
G04 #@! TO.C,J6*
D11*
X118988840Y-88432840D02*
X118988840Y-88432840D01*
X118988840Y-88432840D01*
X118988840Y-88432840D01*
X118988840Y-88432840D01*
X118988840Y-88432840D01*
X118988840Y-88432840D02*
X118988840Y-88432840D01*
X118988840Y-88432840D01*
X118988840Y-88432840D01*
X118988840Y-88432840D01*
X118988840Y-88432840D01*
X118988840Y-88432840D01*
X118988840Y-88432840D01*
X118988840Y-88432840D01*
X118988840Y-88432840D01*
X118988840Y-88432840D01*
X118988840Y-88432840D01*
X118988840Y-88432840D01*
X118988840Y-88432840D01*
X118988840Y-88432840D01*
X118988840Y-88432840D01*
X118988840Y-88432840D01*
X118988840Y-88432840D01*
X118988840Y-88432840D01*
X118988840Y-88432840D01*
X118988840Y-88432840D01*
X118988840Y-88432840D01*
D12*
G04 #@! TD*
M02*
