G04 #@! TF.GenerationSoftware,KiCad,Pcbnew,5.0.2-bee76a0~70~ubuntu18.04.1*
G04 #@! TF.CreationDate,2019-05-27T20:40:17+02:00*
G04 #@! TF.ProjectId,upper_Sensor,75707065-725f-4536-956e-736f722e6b69,rev?*
G04 #@! TF.SameCoordinates,Original*
G04 #@! TF.FileFunction,Paste,Top*
G04 #@! TF.FilePolarity,Positive*
%FSLAX46Y46*%
G04 Gerber Fmt 4.6, Leading zero omitted, Abs format (unit mm)*
G04 Created by KiCad (PCBNEW 5.0.2-bee76a0~70~ubuntu18.04.1) date Mo 27 Mai 2019 20:40:17 CEST*
%MOMM*%
%LPD*%
G01*
G04 APERTURE LIST*
%ADD10C,0.100000*%
%ADD11C,0.590000*%
%ADD12R,0.630000X0.230000*%
%ADD13C,0.150000*%
G04 APERTURE END LIST*
D10*
G04 #@! TO.C,GATE*
G36*
X129236958Y-60260710D02*
X129251276Y-60262834D01*
X129265317Y-60266351D01*
X129278946Y-60271228D01*
X129292031Y-60277417D01*
X129304447Y-60284858D01*
X129316073Y-60293481D01*
X129326798Y-60303202D01*
X129336519Y-60313927D01*
X129345142Y-60325553D01*
X129352583Y-60337969D01*
X129358772Y-60351054D01*
X129363649Y-60364683D01*
X129367166Y-60378724D01*
X129369290Y-60393042D01*
X129370000Y-60407500D01*
X129370000Y-60752500D01*
X129369290Y-60766958D01*
X129367166Y-60781276D01*
X129363649Y-60795317D01*
X129358772Y-60808946D01*
X129352583Y-60822031D01*
X129345142Y-60834447D01*
X129336519Y-60846073D01*
X129326798Y-60856798D01*
X129316073Y-60866519D01*
X129304447Y-60875142D01*
X129292031Y-60882583D01*
X129278946Y-60888772D01*
X129265317Y-60893649D01*
X129251276Y-60897166D01*
X129236958Y-60899290D01*
X129222500Y-60900000D01*
X128927500Y-60900000D01*
X128913042Y-60899290D01*
X128898724Y-60897166D01*
X128884683Y-60893649D01*
X128871054Y-60888772D01*
X128857969Y-60882583D01*
X128845553Y-60875142D01*
X128833927Y-60866519D01*
X128823202Y-60856798D01*
X128813481Y-60846073D01*
X128804858Y-60834447D01*
X128797417Y-60822031D01*
X128791228Y-60808946D01*
X128786351Y-60795317D01*
X128782834Y-60781276D01*
X128780710Y-60766958D01*
X128780000Y-60752500D01*
X128780000Y-60407500D01*
X128780710Y-60393042D01*
X128782834Y-60378724D01*
X128786351Y-60364683D01*
X128791228Y-60351054D01*
X128797417Y-60337969D01*
X128804858Y-60325553D01*
X128813481Y-60313927D01*
X128823202Y-60303202D01*
X128833927Y-60293481D01*
X128845553Y-60284858D01*
X128857969Y-60277417D01*
X128871054Y-60271228D01*
X128884683Y-60266351D01*
X128898724Y-60262834D01*
X128913042Y-60260710D01*
X128927500Y-60260000D01*
X129222500Y-60260000D01*
X129236958Y-60260710D01*
X129236958Y-60260710D01*
G37*
D11*
X129075000Y-60580000D03*
D10*
G36*
X130206958Y-60260710D02*
X130221276Y-60262834D01*
X130235317Y-60266351D01*
X130248946Y-60271228D01*
X130262031Y-60277417D01*
X130274447Y-60284858D01*
X130286073Y-60293481D01*
X130296798Y-60303202D01*
X130306519Y-60313927D01*
X130315142Y-60325553D01*
X130322583Y-60337969D01*
X130328772Y-60351054D01*
X130333649Y-60364683D01*
X130337166Y-60378724D01*
X130339290Y-60393042D01*
X130340000Y-60407500D01*
X130340000Y-60752500D01*
X130339290Y-60766958D01*
X130337166Y-60781276D01*
X130333649Y-60795317D01*
X130328772Y-60808946D01*
X130322583Y-60822031D01*
X130315142Y-60834447D01*
X130306519Y-60846073D01*
X130296798Y-60856798D01*
X130286073Y-60866519D01*
X130274447Y-60875142D01*
X130262031Y-60882583D01*
X130248946Y-60888772D01*
X130235317Y-60893649D01*
X130221276Y-60897166D01*
X130206958Y-60899290D01*
X130192500Y-60900000D01*
X129897500Y-60900000D01*
X129883042Y-60899290D01*
X129868724Y-60897166D01*
X129854683Y-60893649D01*
X129841054Y-60888772D01*
X129827969Y-60882583D01*
X129815553Y-60875142D01*
X129803927Y-60866519D01*
X129793202Y-60856798D01*
X129783481Y-60846073D01*
X129774858Y-60834447D01*
X129767417Y-60822031D01*
X129761228Y-60808946D01*
X129756351Y-60795317D01*
X129752834Y-60781276D01*
X129750710Y-60766958D01*
X129750000Y-60752500D01*
X129750000Y-60407500D01*
X129750710Y-60393042D01*
X129752834Y-60378724D01*
X129756351Y-60364683D01*
X129761228Y-60351054D01*
X129767417Y-60337969D01*
X129774858Y-60325553D01*
X129783481Y-60313927D01*
X129793202Y-60303202D01*
X129803927Y-60293481D01*
X129815553Y-60284858D01*
X129827969Y-60277417D01*
X129841054Y-60271228D01*
X129854683Y-60266351D01*
X129868724Y-60262834D01*
X129883042Y-60260710D01*
X129897500Y-60260000D01*
X130192500Y-60260000D01*
X130206958Y-60260710D01*
X130206958Y-60260710D01*
G37*
D11*
X130045000Y-60580000D03*
G04 #@! TD*
D12*
G04 #@! TO.C,J12*
X121175000Y-63300000D03*
X123825000Y-63300000D03*
X121175000Y-62900000D03*
X123825000Y-62900000D03*
X121175000Y-62500000D03*
X123825000Y-62500000D03*
X121175000Y-62100000D03*
X123825000Y-62100000D03*
X121175000Y-61700000D03*
X123825000Y-61700000D03*
G04 #@! TD*
G04 #@! TO.C,J11*
X135175000Y-63300000D03*
X137825000Y-63300000D03*
X135175000Y-62900000D03*
X137825000Y-62900000D03*
X135175000Y-62500000D03*
X137825000Y-62500000D03*
X135175000Y-62100000D03*
X137825000Y-62100000D03*
X135175000Y-61700000D03*
X137825000Y-61700000D03*
G04 #@! TD*
D13*
G04 #@! TO.C,REF\002A\002A*
X129610000Y-61747000D03*
X129830000Y-61747000D03*
X129170000Y-61747000D03*
X128747000Y-62830000D03*
X128747000Y-61950000D03*
X128747000Y-62390000D03*
X129610000Y-63253000D03*
X129170000Y-63253000D03*
X130050000Y-63253000D03*
X130253000Y-62390000D03*
X130253000Y-62830000D03*
X130253000Y-61950000D03*
G04 #@! TD*
D12*
G04 #@! TO.C,J12*
X104325000Y-79200000D03*
X101675000Y-79200000D03*
X104325000Y-79600000D03*
X101675000Y-79600000D03*
X104325000Y-80000000D03*
X101675000Y-80000000D03*
X104325000Y-80400000D03*
X101675000Y-80400000D03*
X104325000Y-80800000D03*
X101675000Y-80800000D03*
G04 #@! TD*
G04 #@! TO.C,J11*
X118325000Y-79200000D03*
X115675000Y-79200000D03*
X118325000Y-79600000D03*
X115675000Y-79600000D03*
X118325000Y-80000000D03*
X115675000Y-80000000D03*
X118325000Y-80400000D03*
X115675000Y-80400000D03*
X118325000Y-80800000D03*
X115675000Y-80800000D03*
G04 #@! TD*
D13*
G04 #@! TO.C,REF\002A\002A*
X110753000Y-79450000D03*
X110753000Y-80330000D03*
X110753000Y-79890000D03*
X110550000Y-80753000D03*
X109670000Y-80753000D03*
X110110000Y-80753000D03*
X109247000Y-79890000D03*
X109247000Y-79450000D03*
X109247000Y-80330000D03*
X109670000Y-79247000D03*
X110330000Y-79247000D03*
X110110000Y-79247000D03*
G04 #@! TD*
D10*
G04 #@! TO.C,GATE*
G36*
X110706958Y-77760710D02*
X110721276Y-77762834D01*
X110735317Y-77766351D01*
X110748946Y-77771228D01*
X110762031Y-77777417D01*
X110774447Y-77784858D01*
X110786073Y-77793481D01*
X110796798Y-77803202D01*
X110806519Y-77813927D01*
X110815142Y-77825553D01*
X110822583Y-77837969D01*
X110828772Y-77851054D01*
X110833649Y-77864683D01*
X110837166Y-77878724D01*
X110839290Y-77893042D01*
X110840000Y-77907500D01*
X110840000Y-78252500D01*
X110839290Y-78266958D01*
X110837166Y-78281276D01*
X110833649Y-78295317D01*
X110828772Y-78308946D01*
X110822583Y-78322031D01*
X110815142Y-78334447D01*
X110806519Y-78346073D01*
X110796798Y-78356798D01*
X110786073Y-78366519D01*
X110774447Y-78375142D01*
X110762031Y-78382583D01*
X110748946Y-78388772D01*
X110735317Y-78393649D01*
X110721276Y-78397166D01*
X110706958Y-78399290D01*
X110692500Y-78400000D01*
X110397500Y-78400000D01*
X110383042Y-78399290D01*
X110368724Y-78397166D01*
X110354683Y-78393649D01*
X110341054Y-78388772D01*
X110327969Y-78382583D01*
X110315553Y-78375142D01*
X110303927Y-78366519D01*
X110293202Y-78356798D01*
X110283481Y-78346073D01*
X110274858Y-78334447D01*
X110267417Y-78322031D01*
X110261228Y-78308946D01*
X110256351Y-78295317D01*
X110252834Y-78281276D01*
X110250710Y-78266958D01*
X110250000Y-78252500D01*
X110250000Y-77907500D01*
X110250710Y-77893042D01*
X110252834Y-77878724D01*
X110256351Y-77864683D01*
X110261228Y-77851054D01*
X110267417Y-77837969D01*
X110274858Y-77825553D01*
X110283481Y-77813927D01*
X110293202Y-77803202D01*
X110303927Y-77793481D01*
X110315553Y-77784858D01*
X110327969Y-77777417D01*
X110341054Y-77771228D01*
X110354683Y-77766351D01*
X110368724Y-77762834D01*
X110383042Y-77760710D01*
X110397500Y-77760000D01*
X110692500Y-77760000D01*
X110706958Y-77760710D01*
X110706958Y-77760710D01*
G37*
D11*
X110545000Y-78080000D03*
D10*
G36*
X109736958Y-77760710D02*
X109751276Y-77762834D01*
X109765317Y-77766351D01*
X109778946Y-77771228D01*
X109792031Y-77777417D01*
X109804447Y-77784858D01*
X109816073Y-77793481D01*
X109826798Y-77803202D01*
X109836519Y-77813927D01*
X109845142Y-77825553D01*
X109852583Y-77837969D01*
X109858772Y-77851054D01*
X109863649Y-77864683D01*
X109867166Y-77878724D01*
X109869290Y-77893042D01*
X109870000Y-77907500D01*
X109870000Y-78252500D01*
X109869290Y-78266958D01*
X109867166Y-78281276D01*
X109863649Y-78295317D01*
X109858772Y-78308946D01*
X109852583Y-78322031D01*
X109845142Y-78334447D01*
X109836519Y-78346073D01*
X109826798Y-78356798D01*
X109816073Y-78366519D01*
X109804447Y-78375142D01*
X109792031Y-78382583D01*
X109778946Y-78388772D01*
X109765317Y-78393649D01*
X109751276Y-78397166D01*
X109736958Y-78399290D01*
X109722500Y-78400000D01*
X109427500Y-78400000D01*
X109413042Y-78399290D01*
X109398724Y-78397166D01*
X109384683Y-78393649D01*
X109371054Y-78388772D01*
X109357969Y-78382583D01*
X109345553Y-78375142D01*
X109333927Y-78366519D01*
X109323202Y-78356798D01*
X109313481Y-78346073D01*
X109304858Y-78334447D01*
X109297417Y-78322031D01*
X109291228Y-78308946D01*
X109286351Y-78295317D01*
X109282834Y-78281276D01*
X109280710Y-78266958D01*
X109280000Y-78252500D01*
X109280000Y-77907500D01*
X109280710Y-77893042D01*
X109282834Y-77878724D01*
X109286351Y-77864683D01*
X109291228Y-77851054D01*
X109297417Y-77837969D01*
X109304858Y-77825553D01*
X109313481Y-77813927D01*
X109323202Y-77803202D01*
X109333927Y-77793481D01*
X109345553Y-77784858D01*
X109357969Y-77777417D01*
X109371054Y-77771228D01*
X109384683Y-77766351D01*
X109398724Y-77762834D01*
X109413042Y-77760710D01*
X109427500Y-77760000D01*
X109722500Y-77760000D01*
X109736958Y-77760710D01*
X109736958Y-77760710D01*
G37*
D11*
X109575000Y-78080000D03*
G04 #@! TD*
M02*
