G04 #@! TF.GenerationSoftware,KiCad,Pcbnew,5.0.2-bee76a0~70~ubuntu18.04.1*
G04 #@! TF.CreationDate,2019-05-27T20:40:17+02:00*
G04 #@! TF.ProjectId,upper_Sensor,75707065-725f-4536-956e-736f722e6b69,rev?*
G04 #@! TF.SameCoordinates,Original*
G04 #@! TF.FileFunction,Legend,Top*
G04 #@! TF.FilePolarity,Positive*
%FSLAX46Y46*%
G04 Gerber Fmt 4.6, Leading zero omitted, Abs format (unit mm)*
G04 Created by KiCad (PCBNEW 5.0.2-bee76a0~70~ubuntu18.04.1) date Mo 27 Mai 2019 20:40:17 CEST*
%MOMM*%
%LPD*%
G01*
G04 APERTURE LIST*
%ADD10C,0.250000*%
%ADD11C,0.200000*%
%ADD12C,0.100000*%
%ADD13C,0.125000*%
G04 APERTURE END LIST*
D10*
X105540000Y-73517380D02*
X105540000Y-72517380D01*
X106111428Y-73517380D01*
X106111428Y-72517380D01*
X106587619Y-73517380D02*
X106587619Y-72850714D01*
X106587619Y-72517380D02*
X106540000Y-72565000D01*
X106587619Y-72612619D01*
X106635238Y-72565000D01*
X106587619Y-72517380D01*
X106587619Y-72612619D01*
X107063809Y-73517380D02*
X107063809Y-72517380D01*
X107159047Y-73136428D02*
X107444761Y-73517380D01*
X107444761Y-72850714D02*
X107063809Y-73231666D01*
X108016190Y-73517380D02*
X107920952Y-73469761D01*
X107873333Y-73374523D01*
X107873333Y-72517380D01*
X108825714Y-73517380D02*
X108825714Y-72993571D01*
X108778095Y-72898333D01*
X108682857Y-72850714D01*
X108492380Y-72850714D01*
X108397142Y-72898333D01*
X108825714Y-73469761D02*
X108730476Y-73517380D01*
X108492380Y-73517380D01*
X108397142Y-73469761D01*
X108349523Y-73374523D01*
X108349523Y-73279285D01*
X108397142Y-73184047D01*
X108492380Y-73136428D01*
X108730476Y-73136428D01*
X108825714Y-73088809D01*
X109254285Y-73469761D02*
X109349523Y-73517380D01*
X109540000Y-73517380D01*
X109635238Y-73469761D01*
X109682857Y-73374523D01*
X109682857Y-73326904D01*
X109635238Y-73231666D01*
X109540000Y-73184047D01*
X109397142Y-73184047D01*
X109301904Y-73136428D01*
X109254285Y-73041190D01*
X109254285Y-72993571D01*
X109301904Y-72898333D01*
X109397142Y-72850714D01*
X109540000Y-72850714D01*
X109635238Y-72898333D01*
X111206666Y-72993571D02*
X110873333Y-72993571D01*
X110873333Y-73517380D02*
X110873333Y-72517380D01*
X111349523Y-72517380D01*
X112159047Y-73517380D02*
X112159047Y-72993571D01*
X112111428Y-72898333D01*
X112016190Y-72850714D01*
X111825714Y-72850714D01*
X111730476Y-72898333D01*
X112159047Y-73469761D02*
X112063809Y-73517380D01*
X111825714Y-73517380D01*
X111730476Y-73469761D01*
X111682857Y-73374523D01*
X111682857Y-73279285D01*
X111730476Y-73184047D01*
X111825714Y-73136428D01*
X112063809Y-73136428D01*
X112159047Y-73088809D01*
X113063809Y-72850714D02*
X113063809Y-73517380D01*
X112635238Y-72850714D02*
X112635238Y-73374523D01*
X112682857Y-73469761D01*
X112778095Y-73517380D01*
X112920952Y-73517380D01*
X113016190Y-73469761D01*
X113063809Y-73422142D01*
X113397142Y-72850714D02*
X113778095Y-72850714D01*
X113540000Y-72517380D02*
X113540000Y-73374523D01*
X113587619Y-73469761D01*
X113682857Y-73517380D01*
X113778095Y-73517380D01*
X114111428Y-73517380D02*
X114111428Y-72517380D01*
X114540000Y-73517380D02*
X114540000Y-72993571D01*
X114492380Y-72898333D01*
X114397142Y-72850714D01*
X114254285Y-72850714D01*
X114159047Y-72898333D01*
X114111428Y-72945952D01*
X108325714Y-74362619D02*
X108373333Y-74315000D01*
X108468571Y-74267380D01*
X108706666Y-74267380D01*
X108801904Y-74315000D01*
X108849523Y-74362619D01*
X108897142Y-74457857D01*
X108897142Y-74553095D01*
X108849523Y-74695952D01*
X108278095Y-75267380D01*
X108897142Y-75267380D01*
X109516190Y-74267380D02*
X109611428Y-74267380D01*
X109706666Y-74315000D01*
X109754285Y-74362619D01*
X109801904Y-74457857D01*
X109849523Y-74648333D01*
X109849523Y-74886428D01*
X109801904Y-75076904D01*
X109754285Y-75172142D01*
X109706666Y-75219761D01*
X109611428Y-75267380D01*
X109516190Y-75267380D01*
X109420952Y-75219761D01*
X109373333Y-75172142D01*
X109325714Y-75076904D01*
X109278095Y-74886428D01*
X109278095Y-74648333D01*
X109325714Y-74457857D01*
X109373333Y-74362619D01*
X109420952Y-74315000D01*
X109516190Y-74267380D01*
X110801904Y-75267380D02*
X110230476Y-75267380D01*
X110516190Y-75267380D02*
X110516190Y-74267380D01*
X110420952Y-74410238D01*
X110325714Y-74505476D01*
X110230476Y-74553095D01*
X111278095Y-75267380D02*
X111468571Y-75267380D01*
X111563809Y-75219761D01*
X111611428Y-75172142D01*
X111706666Y-75029285D01*
X111754285Y-74838809D01*
X111754285Y-74457857D01*
X111706666Y-74362619D01*
X111659047Y-74315000D01*
X111563809Y-74267380D01*
X111373333Y-74267380D01*
X111278095Y-74315000D01*
X111230476Y-74362619D01*
X111182857Y-74457857D01*
X111182857Y-74695952D01*
X111230476Y-74791190D01*
X111278095Y-74838809D01*
X111373333Y-74886428D01*
X111563809Y-74886428D01*
X111659047Y-74838809D01*
X111706666Y-74791190D01*
X111754285Y-74695952D01*
X125070000Y-56017380D02*
X125070000Y-55017380D01*
X125641428Y-56017380D01*
X125641428Y-55017380D01*
X126117619Y-56017380D02*
X126117619Y-55350714D01*
X126117619Y-55017380D02*
X126070000Y-55065000D01*
X126117619Y-55112619D01*
X126165238Y-55065000D01*
X126117619Y-55017380D01*
X126117619Y-55112619D01*
X126593809Y-56017380D02*
X126593809Y-55017380D01*
X126689047Y-55636428D02*
X126974761Y-56017380D01*
X126974761Y-55350714D02*
X126593809Y-55731666D01*
X127546190Y-56017380D02*
X127450952Y-55969761D01*
X127403333Y-55874523D01*
X127403333Y-55017380D01*
X128355714Y-56017380D02*
X128355714Y-55493571D01*
X128308095Y-55398333D01*
X128212857Y-55350714D01*
X128022380Y-55350714D01*
X127927142Y-55398333D01*
X128355714Y-55969761D02*
X128260476Y-56017380D01*
X128022380Y-56017380D01*
X127927142Y-55969761D01*
X127879523Y-55874523D01*
X127879523Y-55779285D01*
X127927142Y-55684047D01*
X128022380Y-55636428D01*
X128260476Y-55636428D01*
X128355714Y-55588809D01*
X128784285Y-55969761D02*
X128879523Y-56017380D01*
X129070000Y-56017380D01*
X129165238Y-55969761D01*
X129212857Y-55874523D01*
X129212857Y-55826904D01*
X129165238Y-55731666D01*
X129070000Y-55684047D01*
X128927142Y-55684047D01*
X128831904Y-55636428D01*
X128784285Y-55541190D01*
X128784285Y-55493571D01*
X128831904Y-55398333D01*
X128927142Y-55350714D01*
X129070000Y-55350714D01*
X129165238Y-55398333D01*
X130736666Y-55493571D02*
X130403333Y-55493571D01*
X130403333Y-56017380D02*
X130403333Y-55017380D01*
X130879523Y-55017380D01*
X131689047Y-56017380D02*
X131689047Y-55493571D01*
X131641428Y-55398333D01*
X131546190Y-55350714D01*
X131355714Y-55350714D01*
X131260476Y-55398333D01*
X131689047Y-55969761D02*
X131593809Y-56017380D01*
X131355714Y-56017380D01*
X131260476Y-55969761D01*
X131212857Y-55874523D01*
X131212857Y-55779285D01*
X131260476Y-55684047D01*
X131355714Y-55636428D01*
X131593809Y-55636428D01*
X131689047Y-55588809D01*
X132593809Y-55350714D02*
X132593809Y-56017380D01*
X132165238Y-55350714D02*
X132165238Y-55874523D01*
X132212857Y-55969761D01*
X132308095Y-56017380D01*
X132450952Y-56017380D01*
X132546190Y-55969761D01*
X132593809Y-55922142D01*
X132927142Y-55350714D02*
X133308095Y-55350714D01*
X133070000Y-55017380D02*
X133070000Y-55874523D01*
X133117619Y-55969761D01*
X133212857Y-56017380D01*
X133308095Y-56017380D01*
X133641428Y-56017380D02*
X133641428Y-55017380D01*
X134070000Y-56017380D02*
X134070000Y-55493571D01*
X134022380Y-55398333D01*
X133927142Y-55350714D01*
X133784285Y-55350714D01*
X133689047Y-55398333D01*
X133641428Y-55445952D01*
X127855714Y-56862619D02*
X127903333Y-56815000D01*
X127998571Y-56767380D01*
X128236666Y-56767380D01*
X128331904Y-56815000D01*
X128379523Y-56862619D01*
X128427142Y-56957857D01*
X128427142Y-57053095D01*
X128379523Y-57195952D01*
X127808095Y-57767380D01*
X128427142Y-57767380D01*
X129046190Y-56767380D02*
X129141428Y-56767380D01*
X129236666Y-56815000D01*
X129284285Y-56862619D01*
X129331904Y-56957857D01*
X129379523Y-57148333D01*
X129379523Y-57386428D01*
X129331904Y-57576904D01*
X129284285Y-57672142D01*
X129236666Y-57719761D01*
X129141428Y-57767380D01*
X129046190Y-57767380D01*
X128950952Y-57719761D01*
X128903333Y-57672142D01*
X128855714Y-57576904D01*
X128808095Y-57386428D01*
X128808095Y-57148333D01*
X128855714Y-56957857D01*
X128903333Y-56862619D01*
X128950952Y-56815000D01*
X129046190Y-56767380D01*
X130331904Y-57767380D02*
X129760476Y-57767380D01*
X130046190Y-57767380D02*
X130046190Y-56767380D01*
X129950952Y-56910238D01*
X129855714Y-57005476D01*
X129760476Y-57053095D01*
X130808095Y-57767380D02*
X130998571Y-57767380D01*
X131093809Y-57719761D01*
X131141428Y-57672142D01*
X131236666Y-57529285D01*
X131284285Y-57338809D01*
X131284285Y-56957857D01*
X131236666Y-56862619D01*
X131189047Y-56815000D01*
X131093809Y-56767380D01*
X130903333Y-56767380D01*
X130808095Y-56815000D01*
X130760476Y-56862619D01*
X130712857Y-56957857D01*
X130712857Y-57195952D01*
X130760476Y-57291190D01*
X130808095Y-57338809D01*
X130903333Y-57386428D01*
X131093809Y-57386428D01*
X131189047Y-57338809D01*
X131236666Y-57291190D01*
X131284285Y-57195952D01*
X127931904Y-68857380D02*
X127931904Y-67857380D01*
X128360476Y-68809761D02*
X128503333Y-68857380D01*
X128741428Y-68857380D01*
X128836666Y-68809761D01*
X128884285Y-68762142D01*
X128931904Y-68666904D01*
X128931904Y-68571666D01*
X128884285Y-68476428D01*
X128836666Y-68428809D01*
X128741428Y-68381190D01*
X128550952Y-68333571D01*
X128455714Y-68285952D01*
X128408095Y-68238333D01*
X128360476Y-68143095D01*
X128360476Y-68047857D01*
X128408095Y-67952619D01*
X128455714Y-67905000D01*
X128550952Y-67857380D01*
X128789047Y-67857380D01*
X128931904Y-67905000D01*
X129693809Y-68333571D02*
X129360476Y-68333571D01*
X129360476Y-68857380D02*
X129360476Y-67857380D01*
X129836666Y-67857380D01*
X130217619Y-68333571D02*
X130550952Y-68333571D01*
X130693809Y-68857380D02*
X130217619Y-68857380D01*
X130217619Y-67857380D01*
X130693809Y-67857380D01*
X130979523Y-67857380D02*
X131550952Y-67857380D01*
X131265238Y-68857380D02*
X131265238Y-67857380D01*
X127217619Y-70083571D02*
X126884285Y-70083571D01*
X126884285Y-70607380D02*
X126884285Y-69607380D01*
X127360476Y-69607380D01*
X127884285Y-70607380D02*
X127789047Y-70559761D01*
X127741428Y-70464523D01*
X127741428Y-69607380D01*
X128265238Y-70607380D02*
X128265238Y-69940714D01*
X128265238Y-69607380D02*
X128217619Y-69655000D01*
X128265238Y-69702619D01*
X128312857Y-69655000D01*
X128265238Y-69607380D01*
X128265238Y-69702619D01*
X128741428Y-69940714D02*
X128741428Y-70940714D01*
X128741428Y-69988333D02*
X128836666Y-69940714D01*
X129027142Y-69940714D01*
X129122380Y-69988333D01*
X129170000Y-70035952D01*
X129217619Y-70131190D01*
X129217619Y-70416904D01*
X129170000Y-70512142D01*
X129122380Y-70559761D01*
X129027142Y-70607380D01*
X128836666Y-70607380D01*
X128741428Y-70559761D01*
X130217619Y-70512142D02*
X130170000Y-70559761D01*
X130027142Y-70607380D01*
X129931904Y-70607380D01*
X129789047Y-70559761D01*
X129693809Y-70464523D01*
X129646190Y-70369285D01*
X129598571Y-70178809D01*
X129598571Y-70035952D01*
X129646190Y-69845476D01*
X129693809Y-69750238D01*
X129789047Y-69655000D01*
X129931904Y-69607380D01*
X130027142Y-69607380D01*
X130170000Y-69655000D01*
X130217619Y-69702619D01*
X130646190Y-70607380D02*
X130646190Y-69607380D01*
X131074761Y-70607380D02*
X131074761Y-70083571D01*
X131027142Y-69988333D01*
X130931904Y-69940714D01*
X130789047Y-69940714D01*
X130693809Y-69988333D01*
X130646190Y-70035952D01*
X131550952Y-70607380D02*
X131550952Y-69940714D01*
X131550952Y-69607380D02*
X131503333Y-69655000D01*
X131550952Y-69702619D01*
X131598571Y-69655000D01*
X131550952Y-69607380D01*
X131550952Y-69702619D01*
X132027142Y-69940714D02*
X132027142Y-70940714D01*
X132027142Y-69988333D02*
X132122380Y-69940714D01*
X132312857Y-69940714D01*
X132408095Y-69988333D01*
X132455714Y-70035952D01*
X132503333Y-70131190D01*
X132503333Y-70416904D01*
X132455714Y-70512142D01*
X132408095Y-70559761D01*
X132312857Y-70607380D01*
X132122380Y-70607380D01*
X132027142Y-70559761D01*
D11*
X128100000Y-61100000D02*
X130900000Y-61100000D01*
X130900000Y-63900000D02*
X128100000Y-63900000D01*
X130900000Y-61100000D02*
X130900000Y-63900000D01*
X128100000Y-63900000D02*
X128100000Y-61100000D01*
D10*
X108431904Y-86357380D02*
X108431904Y-85357380D01*
X108860476Y-86309761D02*
X109003333Y-86357380D01*
X109241428Y-86357380D01*
X109336666Y-86309761D01*
X109384285Y-86262142D01*
X109431904Y-86166904D01*
X109431904Y-86071666D01*
X109384285Y-85976428D01*
X109336666Y-85928809D01*
X109241428Y-85881190D01*
X109050952Y-85833571D01*
X108955714Y-85785952D01*
X108908095Y-85738333D01*
X108860476Y-85643095D01*
X108860476Y-85547857D01*
X108908095Y-85452619D01*
X108955714Y-85405000D01*
X109050952Y-85357380D01*
X109289047Y-85357380D01*
X109431904Y-85405000D01*
X110193809Y-85833571D02*
X109860476Y-85833571D01*
X109860476Y-86357380D02*
X109860476Y-85357380D01*
X110336666Y-85357380D01*
X110717619Y-85833571D02*
X111050952Y-85833571D01*
X111193809Y-86357380D02*
X110717619Y-86357380D01*
X110717619Y-85357380D01*
X111193809Y-85357380D01*
X111479523Y-85357380D02*
X112050952Y-85357380D01*
X111765238Y-86357380D02*
X111765238Y-85357380D01*
X107717619Y-87583571D02*
X107384285Y-87583571D01*
X107384285Y-88107380D02*
X107384285Y-87107380D01*
X107860476Y-87107380D01*
X108384285Y-88107380D02*
X108289047Y-88059761D01*
X108241428Y-87964523D01*
X108241428Y-87107380D01*
X108765238Y-88107380D02*
X108765238Y-87440714D01*
X108765238Y-87107380D02*
X108717619Y-87155000D01*
X108765238Y-87202619D01*
X108812857Y-87155000D01*
X108765238Y-87107380D01*
X108765238Y-87202619D01*
X109241428Y-87440714D02*
X109241428Y-88440714D01*
X109241428Y-87488333D02*
X109336666Y-87440714D01*
X109527142Y-87440714D01*
X109622380Y-87488333D01*
X109670000Y-87535952D01*
X109717619Y-87631190D01*
X109717619Y-87916904D01*
X109670000Y-88012142D01*
X109622380Y-88059761D01*
X109527142Y-88107380D01*
X109336666Y-88107380D01*
X109241428Y-88059761D01*
X110717619Y-88012142D02*
X110670000Y-88059761D01*
X110527142Y-88107380D01*
X110431904Y-88107380D01*
X110289047Y-88059761D01*
X110193809Y-87964523D01*
X110146190Y-87869285D01*
X110098571Y-87678809D01*
X110098571Y-87535952D01*
X110146190Y-87345476D01*
X110193809Y-87250238D01*
X110289047Y-87155000D01*
X110431904Y-87107380D01*
X110527142Y-87107380D01*
X110670000Y-87155000D01*
X110717619Y-87202619D01*
X111146190Y-88107380D02*
X111146190Y-87107380D01*
X111574761Y-88107380D02*
X111574761Y-87583571D01*
X111527142Y-87488333D01*
X111431904Y-87440714D01*
X111289047Y-87440714D01*
X111193809Y-87488333D01*
X111146190Y-87535952D01*
X112050952Y-88107380D02*
X112050952Y-87440714D01*
X112050952Y-87107380D02*
X112003333Y-87155000D01*
X112050952Y-87202619D01*
X112098571Y-87155000D01*
X112050952Y-87107380D01*
X112050952Y-87202619D01*
X112527142Y-87440714D02*
X112527142Y-88440714D01*
X112527142Y-87488333D02*
X112622380Y-87440714D01*
X112812857Y-87440714D01*
X112908095Y-87488333D01*
X112955714Y-87535952D01*
X113003333Y-87631190D01*
X113003333Y-87916904D01*
X112955714Y-88012142D01*
X112908095Y-88059761D01*
X112812857Y-88107380D01*
X112622380Y-88107380D01*
X112527142Y-88059761D01*
D11*
X108600000Y-78600000D02*
X111400000Y-78600000D01*
X108600000Y-81400000D02*
X108600000Y-78600000D01*
X111400000Y-81400000D02*
X108600000Y-81400000D01*
X111400000Y-78600000D02*
X111400000Y-81400000D01*
D12*
G04 #@! TO.C,J12*
X123660000Y-63700000D02*
X123660000Y-64610000D01*
X123660000Y-64610000D02*
X121340000Y-64610000D01*
X121340000Y-64610000D02*
X121340000Y-63700000D01*
X123660000Y-61300000D02*
X123660000Y-60390000D01*
X123660000Y-60390000D02*
X121340000Y-60390000D01*
X121340000Y-60390000D02*
X121340000Y-61300000D01*
D11*
X120500000Y-63500000D02*
X120500000Y-63500000D01*
X120500000Y-63400000D02*
X120500000Y-63400000D01*
X120500000Y-63400000D02*
G75*
G02X120500000Y-63500000I0J-50000D01*
G01*
X120500000Y-63500000D02*
G75*
G02X120500000Y-63400000I0J50000D01*
G01*
D12*
G04 #@! TO.C,J11*
X137660000Y-63700000D02*
X137660000Y-64610000D01*
X137660000Y-64610000D02*
X135340000Y-64610000D01*
X135340000Y-64610000D02*
X135340000Y-63700000D01*
X137660000Y-61300000D02*
X137660000Y-60390000D01*
X137660000Y-60390000D02*
X135340000Y-60390000D01*
X135340000Y-60390000D02*
X135340000Y-61300000D01*
D11*
X134500000Y-63500000D02*
X134500000Y-63500000D01*
X134500000Y-63400000D02*
X134500000Y-63400000D01*
X134500000Y-63400000D02*
G75*
G02X134500000Y-63500000I0J-50000D01*
G01*
X134500000Y-63500000D02*
G75*
G02X134500000Y-63400000I0J50000D01*
G01*
G04 #@! TO.C,J12*
X101000000Y-81000000D02*
G75*
G02X101000000Y-80900000I0J50000D01*
G01*
X101000000Y-80900000D02*
G75*
G02X101000000Y-81000000I0J-50000D01*
G01*
X101000000Y-80900000D02*
X101000000Y-80900000D01*
X101000000Y-81000000D02*
X101000000Y-81000000D01*
D12*
X101840000Y-77890000D02*
X101840000Y-78800000D01*
X104160000Y-77890000D02*
X101840000Y-77890000D01*
X104160000Y-78800000D02*
X104160000Y-77890000D01*
X101840000Y-82110000D02*
X101840000Y-81200000D01*
X104160000Y-82110000D02*
X101840000Y-82110000D01*
X104160000Y-81200000D02*
X104160000Y-82110000D01*
D11*
G04 #@! TO.C,J11*
X115000000Y-81000000D02*
G75*
G02X115000000Y-80900000I0J50000D01*
G01*
X115000000Y-80900000D02*
G75*
G02X115000000Y-81000000I0J-50000D01*
G01*
X115000000Y-80900000D02*
X115000000Y-80900000D01*
X115000000Y-81000000D02*
X115000000Y-81000000D01*
D12*
X115840000Y-77890000D02*
X115840000Y-78800000D01*
X118160000Y-77890000D02*
X115840000Y-77890000D01*
X118160000Y-78800000D02*
X118160000Y-77890000D01*
X115840000Y-82110000D02*
X115840000Y-81200000D01*
X118160000Y-82110000D02*
X115840000Y-82110000D01*
X118160000Y-81200000D02*
X118160000Y-82110000D01*
G04 #@! TO.C,GATE*
D13*
X129060000Y-59120000D02*
X129012380Y-59096190D01*
X128940952Y-59096190D01*
X128869523Y-59120000D01*
X128821904Y-59167619D01*
X128798095Y-59215238D01*
X128774285Y-59310476D01*
X128774285Y-59381904D01*
X128798095Y-59477142D01*
X128821904Y-59524761D01*
X128869523Y-59572380D01*
X128940952Y-59596190D01*
X128988571Y-59596190D01*
X129060000Y-59572380D01*
X129083809Y-59548571D01*
X129083809Y-59381904D01*
X128988571Y-59381904D01*
X129274285Y-59453333D02*
X129512380Y-59453333D01*
X129226666Y-59596190D02*
X129393333Y-59096190D01*
X129560000Y-59596190D01*
X129655238Y-59096190D02*
X129940952Y-59096190D01*
X129798095Y-59596190D02*
X129798095Y-59096190D01*
X130107619Y-59334285D02*
X130274285Y-59334285D01*
X130345714Y-59596190D02*
X130107619Y-59596190D01*
X130107619Y-59096190D01*
X130345714Y-59096190D01*
X109560000Y-76620000D02*
X109512380Y-76596190D01*
X109440952Y-76596190D01*
X109369523Y-76620000D01*
X109321904Y-76667619D01*
X109298095Y-76715238D01*
X109274285Y-76810476D01*
X109274285Y-76881904D01*
X109298095Y-76977142D01*
X109321904Y-77024761D01*
X109369523Y-77072380D01*
X109440952Y-77096190D01*
X109488571Y-77096190D01*
X109560000Y-77072380D01*
X109583809Y-77048571D01*
X109583809Y-76881904D01*
X109488571Y-76881904D01*
X109774285Y-76953333D02*
X110012380Y-76953333D01*
X109726666Y-77096190D02*
X109893333Y-76596190D01*
X110060000Y-77096190D01*
X110155238Y-76596190D02*
X110440952Y-76596190D01*
X110298095Y-77096190D02*
X110298095Y-76596190D01*
X110607619Y-76834285D02*
X110774285Y-76834285D01*
X110845714Y-77096190D02*
X110607619Y-77096190D01*
X110607619Y-76596190D01*
X110845714Y-76596190D01*
G04 #@! TD*
M02*
