G04 #@! TF.GenerationSoftware,KiCad,Pcbnew,5.0.2-bee76a0~70~ubuntu18.04.1*
G04 #@! TF.CreationDate,2019-07-03T17:50:11+02:00*
G04 #@! TF.ProjectId,upper_Sensor,75707065-725f-4536-956e-736f722e6b69,rev?*
G04 #@! TF.SameCoordinates,Original*
G04 #@! TF.FileFunction,Legend,Bot*
G04 #@! TF.FilePolarity,Positive*
%FSLAX46Y46*%
G04 Gerber Fmt 4.6, Leading zero omitted, Abs format (unit mm)*
G04 Created by KiCad (PCBNEW 5.0.2-bee76a0~70~ubuntu18.04.1) date Mi 03 Jul 2019 17:50:11 CEST*
%MOMM*%
%LPD*%
G01*
G04 APERTURE LIST*
%ADD10C,0.050000*%
G04 APERTURE END LIST*
D10*
G04 #@! TO.C,REF\002A\002A*
X109350000Y-82000000D02*
G75*
G03X109350000Y-82000000I-100000J0D01*
G01*
X110350000Y-78000000D02*
G75*
G03X110350000Y-78000000I-100000J0D01*
G01*
X108850000Y-78000000D02*
G75*
G03X108850000Y-78000000I-100000J0D01*
G01*
X109350000Y-78000000D02*
G75*
G03X109350000Y-78000000I-100000J0D01*
G01*
X109850000Y-78000000D02*
G75*
G03X109850000Y-78000000I-100000J0D01*
G01*
X108100000Y-78750000D02*
G75*
G03X108100000Y-78750000I-100000J0D01*
G01*
X108100000Y-79250000D02*
G75*
G03X108100000Y-79250000I-100000J0D01*
G01*
X111350000Y-78000000D02*
G75*
G03X111350000Y-78000000I-100000J0D01*
G01*
X110850000Y-78000000D02*
G75*
G03X110850000Y-78000000I-100000J0D01*
G01*
X108850000Y-82000000D02*
G75*
G03X108850000Y-82000000I-100000J0D01*
G01*
X110350000Y-82000000D02*
G75*
G03X110350000Y-82000000I-100000J0D01*
G01*
X112100000Y-78750000D02*
G75*
G03X112100000Y-78750000I-100000J0D01*
G01*
X112100000Y-80250000D02*
G75*
G03X112100000Y-80250000I-100000J0D01*
G01*
X112100000Y-80750000D02*
G75*
G03X112100000Y-80750000I-100000J0D01*
G01*
X109850000Y-82000000D02*
G75*
G03X109850000Y-82000000I-100000J0D01*
G01*
X111350000Y-82000000D02*
G75*
G03X111350000Y-82000000I-100000J0D01*
G01*
X112100000Y-79250000D02*
G75*
G03X112100000Y-79250000I-100000J0D01*
G01*
X108100000Y-80250000D02*
G75*
G03X108100000Y-80250000I-100000J0D01*
G01*
X108100000Y-80750000D02*
G75*
G03X108100000Y-80750000I-100000J0D01*
G01*
X112100000Y-81250000D02*
G75*
G03X112100000Y-81250000I-100000J0D01*
G01*
X112100000Y-79750000D02*
G75*
G03X112100000Y-79750000I-100000J0D01*
G01*
X110850000Y-82000000D02*
G75*
G03X110850000Y-82000000I-100000J0D01*
G01*
X108100000Y-81250000D02*
G75*
G03X108100000Y-81250000I-100000J0D01*
G01*
X108100000Y-79750000D02*
G75*
G03X108100000Y-79750000I-100000J0D01*
G01*
G04 #@! TD*
M02*
