G04 #@! TF.GenerationSoftware,KiCad,Pcbnew,5.0.2-bee76a0~70~ubuntu18.04.1*
G04 #@! TF.CreationDate,2019-07-03T17:50:11+02:00*
G04 #@! TF.ProjectId,upper_Sensor,75707065-725f-4536-956e-736f722e6b69,rev?*
G04 #@! TF.SameCoordinates,Original*
G04 #@! TF.FileFunction,Soldermask,Bot*
G04 #@! TF.FilePolarity,Negative*
%FSLAX46Y46*%
G04 Gerber Fmt 4.6, Leading zero omitted, Abs format (unit mm)*
G04 Created by KiCad (PCBNEW 5.0.2-bee76a0~70~ubuntu18.04.1) date Mi 03 Jul 2019 17:50:11 CEST*
%MOMM*%
%LPD*%
G01*
G04 APERTURE LIST*
%ADD10C,0.100000*%
G04 APERTURE END LIST*
D10*
G36*
X110426000Y-81801000D02*
X110074000Y-81801000D01*
X110074000Y-81199000D01*
X110426000Y-81199000D01*
X110426000Y-81801000D01*
X110426000Y-81801000D01*
G37*
G36*
X111426000Y-81801000D02*
X111074000Y-81801000D01*
X111074000Y-81199000D01*
X111426000Y-81199000D01*
X111426000Y-81801000D01*
X111426000Y-81801000D01*
G37*
G36*
X109426000Y-81801000D02*
X109074000Y-81801000D01*
X109074000Y-81199000D01*
X109426000Y-81199000D01*
X109426000Y-81801000D01*
X109426000Y-81801000D01*
G37*
G36*
X108801000Y-80926000D02*
X108199000Y-80926000D01*
X108199000Y-80574000D01*
X108801000Y-80574000D01*
X108801000Y-80926000D01*
X108801000Y-80926000D01*
G37*
G36*
X111801000Y-80926000D02*
X111199000Y-80926000D01*
X111199000Y-80574000D01*
X111801000Y-80574000D01*
X111801000Y-80926000D01*
X111801000Y-80926000D01*
G37*
G36*
X111801000Y-79926000D02*
X111199000Y-79926000D01*
X111199000Y-79574000D01*
X111801000Y-79574000D01*
X111801000Y-79926000D01*
X111801000Y-79926000D01*
G37*
G36*
X108801000Y-79926000D02*
X108199000Y-79926000D01*
X108199000Y-79574000D01*
X108801000Y-79574000D01*
X108801000Y-79926000D01*
X108801000Y-79926000D01*
G37*
G36*
X108801000Y-78926000D02*
X108199000Y-78926000D01*
X108199000Y-78574000D01*
X108801000Y-78574000D01*
X108801000Y-78926000D01*
X108801000Y-78926000D01*
G37*
G36*
X111801000Y-78926000D02*
X111199000Y-78926000D01*
X111199000Y-78574000D01*
X111801000Y-78574000D01*
X111801000Y-78926000D01*
X111801000Y-78926000D01*
G37*
G36*
X109426000Y-78801000D02*
X109074000Y-78801000D01*
X109074000Y-78199000D01*
X109426000Y-78199000D01*
X109426000Y-78801000D01*
X109426000Y-78801000D01*
G37*
G36*
X110926000Y-78801000D02*
X110074000Y-78801000D01*
X110074000Y-78199000D01*
X110926000Y-78199000D01*
X110926000Y-78801000D01*
X110926000Y-78801000D01*
G37*
M02*
