M48
;DRILL file {KiCad 5.0.2-bee76a0~70~ubuntu18.04.1} date Mo 22 Jul 2019 04:32:21 CEST
;FORMAT={-:-/ absolute / inch / decimal}
FMAT,2
INCH,TZ
T1C0.0079
%
G90
G05
T1
X-0.474Y0.0056
X-0.4727Y-0.0357
X-0.4678Y-0.0768
X-0.4593Y-0.1173
X-0.4518Y-0.0732
X-0.4473Y-0.1568
X-0.4435Y0.1674
X-0.4407Y-0.0883
X-0.4347Y-0.1073
X-0.432Y-0.1952
X-0.4283Y-0.026
X-0.4283Y-0.0539
X-0.428Y-0.1253
X-0.4199Y-0.1432
X-0.4134Y0.0039
X-0.4133Y-0.2321
X-0.4113Y-0.1617
X-0.4077Y0.2419
X-0.4018Y-0.1804
X-0.3922Y-0.1985
X-0.3915Y-0.2673
X-0.3851Y0.2765
X-0.3825Y-0.2193
X-0.3716Y0.1137
X-0.3698Y0.085
X-0.368Y0.029
X-0.3667Y-0.3004
X-0.3655Y0.1808
X-0.3595Y0.309
X-0.3585Y-0.1558
X-0.3547Y-0.2563
X-0.3545Y0.0103
X-0.3431Y-0.0486
X-0.3402Y-0.2845
X-0.3391Y-0.3312
X-0.3347Y0.174
X-0.3332Y-0.0691
X-0.3328Y-0.0901
X-0.3312Y0.3391
X-0.3279Y-0.2193
X-0.3261Y0.2799
X-0.3221Y-0.0505
X-0.3116Y-0.0907
X-0.3115Y0.1705
X-0.3103Y0.2186
X-0.3098Y-0.3113
X-0.3095Y0.0995
X-0.309Y-0.3595
X-0.3083Y0.063
X-0.3026Y-0.0418
X-0.3025Y-0.2186
X-0.3022Y-0.0025
X-0.3018Y-0.0219
X-0.3005Y-0.1621
X-0.3004Y0.3667
X-0.2915Y0.125
X-0.281Y-0.1532
X-0.2808Y-0.1722
X-0.2801Y-0.3399
X-0.2765Y-0.3851
X-0.2685Y0.3312
X-0.2673Y0.3915
X-0.258Y-0.355
X-0.2527Y0.1513
X-0.246Y-0.0135
X-0.2419Y-0.4077
X-0.2418Y0.0801
X-0.2378Y0.3367
X-0.2377Y-0.157
X-0.2362Y0.1379
X-0.2325Y-0.1112
X-0.2321Y0.4133
X-0.2174Y-0.29
X-0.2141Y0.2497
X-0.201Y-0.1443
X-0.1982Y0.2763
X-0.1957Y-0.0507
X-0.1952Y0.432
X-0.193Y0.2477
X-0.1913Y0.2266
X-0.1894Y0.0921
X-0.1835Y0.0704
X-0.1737Y-0.1166
X-0.171Y-0.3507
X-0.1674Y-0.4435
X-0.1655Y0.1426
X-0.1653Y0.2243
X-0.1622Y0.2033
X-0.1607Y0.295
X-0.1598Y-0.3274
X-0.1549Y0.0744
X-0.1506Y0.1762
X-0.1489Y-0.4116
X-0.1456Y0.3366
X-0.1434Y-0.1136
X-0.137Y0.16
X-0.1307Y0.3517
X-0.1306Y0.0675
X-0.128Y-0.4528
X-0.126Y0.0961
X-0.1225Y-0.4183
X-0.1207Y0.1746
X-0.1167Y-0.0962
X-0.1165Y-0.1174
X-0.1089Y0.4014
X-0.1089Y0.0685
X-0.1033Y0.3621
X-0.0997Y0.177
X-0.0953Y-0.1174
X-0.0931Y0.3436
X-0.0908Y0.1318
X-0.0886Y-0.4528
X-0.0802Y-0.3599
X-0.0756Y0.1466
X-0.0752Y0.3559
X-0.0729Y0.4273
X-0.0613Y0.34
X-0.0567Y-0.3016
X-0.0513Y0.1981
X-0.0492Y-0.4528
X-0.0485Y0.3231
X-0.03Y0.2274
X-0.0294Y0.1988
X-0.0289Y0.1046
X-0.0267Y0.3245
X-0.0181Y0.478
X-0.0171Y0.4348
X-0.0167Y-0.325
X-0.015Y-0.4084
X-0.014Y0.2135
X-0.0098Y-0.4528
X-0.0067Y0.2779
X-0.0056Y-0.1215
X-0.0027Y0.2987
X-0.0017Y0.2497
X0.0057Y0.4182
X0.0083Y0.2092
X0.0083Y0.2311
X0.0093Y0.3774
X0.0174Y0.2632
X0.0211Y0.1271
X0.0218Y0.1482
X0.0295Y-0.4528
X0.0316Y-0.1228
X0.0356Y0.3617
X0.039Y-0.2397
X0.0448Y0.4405
X0.0469Y0.4735
X0.0472Y0.1772
X0.0484Y0.2488
X0.0527Y0.3027
X0.0646Y-0.3443
X0.0689Y-0.4528
X0.0695Y0.2691
X0.0864Y-0.2395
X0.0867Y-0.3417
X0.0904Y-0.4111
X0.0926Y0.3685
X0.098Y0.1776
X0.0984Y0.2043
X0.1005Y0.3305
X0.1083Y-0.4528
X0.1267Y-0.3496
X0.1281Y0.4564
X0.1297Y-0.3004
X0.1298Y0.2609
X0.1378Y-0.1772
X0.1379Y0.4337
X0.1436Y0.1509
X0.1437Y0.3665
X0.1444Y0.1721
X0.1459Y-0.3584
X0.1561Y0.079
X0.1568Y-0.4473
X0.1575Y-0.1772
X0.165Y-0.402
X0.1674Y0.4435
X0.1748Y0.1074
X0.1756Y0.2371
X0.1778Y0.3319
X0.1811Y0.2582
X0.1815Y-0.3429
X0.1867Y-0.3745
X0.1894Y-0.3224
X0.1901Y0.4045
X0.1937Y0.3179
X0.1952Y-0.432
X0.2017Y0.2633
X0.2047Y0.1614
X0.2047Y0.1339
X0.2114Y-0.1648
X0.2156Y0.3192
X0.2253Y0.4043
X0.2271Y-0.2882
X0.2318Y-0.0579
X0.2321Y-0.4133
X0.2346Y-0.3612
X0.2409Y-0.2228
X0.2412Y0.2146
X0.2441Y0.1909
X0.2441Y0.1614
X0.2441Y0.1339
X0.2456Y0.2841
X0.2513Y-0.0377
X0.2516Y-0.1875
X0.2521Y-0.2854
X0.2657Y0.0295
X0.2673Y-0.3915
X0.27Y0.2162
X0.2728Y0.1138
X0.2733Y-0.2502
X0.2795Y0.3808
X0.2842Y0.2683
X0.2908Y0.3505
X0.2908Y0.2202
X0.2953Y-0.0098
X0.3004Y-0.3667
X0.311Y0.0806
X0.3212Y0.3289
X0.323Y-0.1833
X0.3303Y0.2382
X0.3312Y-0.3391
X0.3321Y0.082
X0.3398Y0.2906
X0.345Y0.1243
X0.348Y-0.2193
X0.3496Y-0.278
X0.352Y0.0533
X0.3558Y-0.0404
X0.3595Y-0.309
X0.3789Y0.2618
X0.3789Y0.1748
X0.3813Y-0.0721
X0.3964Y-0.2095
X0.398Y-0.0223
X0.4009Y0.2344
X0.4024Y0.0217
X0.4025Y-0.072
X0.4315Y0.1472
X0.4321Y-0.0405
X0.4378Y0.0535
X0.4393Y-0.1786
X0.4409Y0.1756
X0.4593Y0.1173
X0.4619Y0.0619
X0.4658Y-0.0878
X0.4727Y0.0357
X-0.1752Y-0.1791
X-0.1752Y-0.2205
X-0.1752Y-0.2618
X-0.1339Y-0.1791
X-0.1339Y-0.2205
X-0.1339Y-0.2618
X-0.0925Y-0.1791
X-0.0925Y-0.2205
X-0.0925Y-0.2618
T0
M30
